%TF.GenerationSoftware,KiCad,Pcbnew,7.0.1*%
%TF.CreationDate,2023-04-12T10:33:11-04:00*%
%TF.ProjectId,kastenwagen-1840-chunky,6b617374-656e-4776-9167-656e2d313834,rev?*%
%TF.SameCoordinates,Original*%
%TF.FileFunction,Drillmap*%
%TF.FilePolarity,Positive*%
%FSLAX45Y45*%
G04 Gerber Fmt 4.5, Leading zero omitted, Abs format (unit mm)*
G04 Created by KiCad (PCBNEW 7.0.1) date 2023-04-12 10:33:11*
%MOMM*%
%LPD*%
G01*
G04 APERTURE LIST*
%ADD10C,0.200000*%
%ADD11C,0.175000*%
%ADD12C,0.304800*%
%ADD13C,0.398780*%
G04 APERTURE END LIST*
D10*
X36000000Y-9350000D02*
G75*
G03*
X36500000Y-8850000I0J500000D01*
G01*
X1450000Y-8850000D02*
G75*
G03*
X1950000Y-9350000I500000J0D01*
G01*
X1950000Y-9350000D02*
X36000000Y-9350000D01*
X1950000Y-1000000D02*
G75*
G03*
X1450000Y-1500000I0J-500000D01*
G01*
X1450000Y-1500000D02*
X1450000Y-8850000D01*
X1950000Y-1000000D02*
X36000000Y-1000000D01*
X36500000Y-1500000D02*
X36500000Y-8850000D01*
X36500000Y-1500000D02*
G75*
G03*
X36000000Y-1000000I-500000J0D01*
G01*
D11*
X1944500Y-2452500D02*
X2119500Y-2627500D01*
X2119500Y-2452500D02*
X1944500Y-2627500D01*
X2182625Y-4357500D02*
X2357625Y-4532500D01*
X2357625Y-4357500D02*
X2182625Y-4532500D01*
X2182625Y-8167500D02*
X2357625Y-8342500D01*
X2357625Y-8167500D02*
X2182625Y-8342500D01*
X2658875Y-6262500D02*
X2833875Y-6437500D01*
X2833875Y-6262500D02*
X2658875Y-6437500D01*
X2960500Y-2452500D02*
X3135500Y-2627500D01*
X3135500Y-2452500D02*
X2960500Y-2627500D01*
X3198625Y-4357500D02*
X3373625Y-4532500D01*
X3373625Y-4357500D02*
X3198625Y-4532500D01*
X3198625Y-8167500D02*
X3373625Y-8342500D01*
X3373625Y-8167500D02*
X3198625Y-8342500D01*
X3674875Y-6262500D02*
X3849875Y-6437500D01*
X3849875Y-6262500D02*
X3674875Y-6437500D01*
X3849500Y-2452500D02*
X4024500Y-2627500D01*
X4024500Y-2452500D02*
X3849500Y-2627500D01*
X4325750Y-4357500D02*
X4500750Y-4532500D01*
X4500750Y-4357500D02*
X4325750Y-4532500D01*
X4563875Y-8167500D02*
X4738875Y-8342500D01*
X4738875Y-8167500D02*
X4563875Y-8342500D01*
X4865500Y-2452500D02*
X5040500Y-2627500D01*
X5040500Y-2452500D02*
X4865500Y-2627500D01*
X5278250Y-6262500D02*
X5453250Y-6437500D01*
X5453250Y-6262500D02*
X5278250Y-6437500D01*
X5341750Y-4357500D02*
X5516750Y-4532500D01*
X5516750Y-4357500D02*
X5341750Y-4532500D01*
X5579875Y-8167500D02*
X5754875Y-8342500D01*
X5754875Y-8167500D02*
X5579875Y-8342500D01*
X5754500Y-2452500D02*
X5929500Y-2627500D01*
X5929500Y-2452500D02*
X5754500Y-2627500D01*
X6230750Y-4357500D02*
X6405750Y-4532500D01*
X6405750Y-4357500D02*
X6230750Y-4532500D01*
X6294250Y-6262500D02*
X6469250Y-6437500D01*
X6469250Y-6262500D02*
X6294250Y-6437500D01*
X6707000Y-8167500D02*
X6882000Y-8342500D01*
X6882000Y-8167500D02*
X6707000Y-8342500D01*
X6770500Y-2452500D02*
X6945500Y-2627500D01*
X6945500Y-2452500D02*
X6770500Y-2627500D01*
X7183250Y-6262500D02*
X7358250Y-6437500D01*
X7358250Y-6262500D02*
X7183250Y-6437500D01*
X7246750Y-4357500D02*
X7421750Y-4532500D01*
X7421750Y-4357500D02*
X7246750Y-4532500D01*
X7659500Y-2452500D02*
X7834500Y-2627500D01*
X7834500Y-2452500D02*
X7659500Y-2627500D01*
X7723000Y-8167500D02*
X7898000Y-8342500D01*
X7898000Y-8167500D02*
X7723000Y-8342500D01*
X8135750Y-4357500D02*
X8310750Y-4532500D01*
X8310750Y-4357500D02*
X8135750Y-4532500D01*
X8199250Y-6262500D02*
X8374250Y-6437500D01*
X8374250Y-6262500D02*
X8199250Y-6437500D01*
X8675500Y-2452500D02*
X8850500Y-2627500D01*
X8850500Y-2452500D02*
X8675500Y-2627500D01*
X9088250Y-6262500D02*
X9263250Y-6437500D01*
X9263250Y-6262500D02*
X9088250Y-6437500D01*
X9151750Y-4357500D02*
X9326750Y-4532500D01*
X9326750Y-4357500D02*
X9151750Y-4532500D01*
X9564500Y-2452500D02*
X9739500Y-2627500D01*
X9739500Y-2452500D02*
X9564500Y-2627500D01*
X10040750Y-4357500D02*
X10215750Y-4532500D01*
X10215750Y-4357500D02*
X10040750Y-4532500D01*
X10104250Y-6262500D02*
X10279250Y-6437500D01*
X10279250Y-6262500D02*
X10104250Y-6437500D01*
X10278875Y-8167500D02*
X10453875Y-8342500D01*
X10453875Y-8167500D02*
X10278875Y-8342500D01*
X10580500Y-2452500D02*
X10755500Y-2627500D01*
X10755500Y-2452500D02*
X10580500Y-2627500D01*
X10993250Y-6262500D02*
X11168250Y-6437500D01*
X11168250Y-6262500D02*
X10993250Y-6437500D01*
X11056750Y-4357500D02*
X11231750Y-4532500D01*
X11231750Y-4357500D02*
X11056750Y-4532500D01*
X11294875Y-8167500D02*
X11469875Y-8342500D01*
X11469875Y-8167500D02*
X11294875Y-8342500D01*
X11469500Y-2452500D02*
X11644500Y-2627500D01*
X11644500Y-2452500D02*
X11469500Y-2627500D01*
X11945750Y-4357500D02*
X12120750Y-4532500D01*
X12120750Y-4357500D02*
X11945750Y-4532500D01*
X12009250Y-6262500D02*
X12184250Y-6437500D01*
X12184250Y-6262500D02*
X12009250Y-6437500D01*
X12422000Y-8167500D02*
X12597000Y-8342500D01*
X12597000Y-8167500D02*
X12422000Y-8342500D01*
X12485500Y-2452500D02*
X12660500Y-2627500D01*
X12660500Y-2452500D02*
X12485500Y-2627500D01*
X12898250Y-6262500D02*
X13073250Y-6437500D01*
X13073250Y-6262500D02*
X12898250Y-6437500D01*
X12961750Y-4357500D02*
X13136750Y-4532500D01*
X13136750Y-4357500D02*
X12961750Y-4532500D01*
X13374500Y-2452500D02*
X13549500Y-2627500D01*
X13549500Y-2452500D02*
X13374500Y-2627500D01*
X13438000Y-8167500D02*
X13613000Y-8342500D01*
X13613000Y-8167500D02*
X13438000Y-8342500D01*
X13850750Y-4357500D02*
X14025750Y-4532500D01*
X14025750Y-4357500D02*
X13850750Y-4532500D01*
X13914250Y-6262500D02*
X14089250Y-6437500D01*
X14089250Y-6262500D02*
X13914250Y-6437500D01*
X14390500Y-2452500D02*
X14565500Y-2627500D01*
X14565500Y-2452500D02*
X14390500Y-2627500D01*
X14803250Y-6262500D02*
X14978250Y-6437500D01*
X14978250Y-6262500D02*
X14803250Y-6437500D01*
X14866750Y-4357500D02*
X15041750Y-4532500D01*
X15041750Y-4357500D02*
X14866750Y-4532500D01*
X15041375Y-8167500D02*
X15216375Y-8342500D01*
X15216375Y-8167500D02*
X15041375Y-8342500D01*
X15279500Y-2452500D02*
X15454500Y-2627500D01*
X15454500Y-2452500D02*
X15279500Y-2627500D01*
X15755750Y-4357500D02*
X15930750Y-4532500D01*
X15930750Y-4357500D02*
X15755750Y-4532500D01*
X15819250Y-6262500D02*
X15994250Y-6437500D01*
X15994250Y-6262500D02*
X15819250Y-6437500D01*
X16057375Y-8167500D02*
X16232375Y-8342500D01*
X16232375Y-8167500D02*
X16057375Y-8342500D01*
X16295500Y-2452500D02*
X16470500Y-2627500D01*
X16470500Y-2452500D02*
X16295500Y-2627500D01*
X16708250Y-6262500D02*
X16883250Y-6437500D01*
X16883250Y-6262500D02*
X16708250Y-6437500D01*
X16771750Y-4357500D02*
X16946750Y-4532500D01*
X16946750Y-4357500D02*
X16771750Y-4532500D01*
X17184500Y-2452500D02*
X17359500Y-2627500D01*
X17359500Y-2452500D02*
X17184500Y-2627500D01*
X17660750Y-4357500D02*
X17835750Y-4532500D01*
X17835750Y-4357500D02*
X17660750Y-4532500D01*
X17724250Y-6262500D02*
X17899250Y-6437500D01*
X17899250Y-6262500D02*
X17724250Y-6437500D01*
X18137000Y-8167500D02*
X18312000Y-8342500D01*
X18312000Y-8167500D02*
X18137000Y-8342500D01*
X18200500Y-2452500D02*
X18375500Y-2627500D01*
X18375500Y-2452500D02*
X18200500Y-2627500D01*
X18613250Y-6262500D02*
X18788250Y-6437500D01*
X18788250Y-6262500D02*
X18613250Y-6437500D01*
X18676750Y-4357500D02*
X18851750Y-4532500D01*
X18851750Y-4357500D02*
X18676750Y-4532500D01*
X19089500Y-2452500D02*
X19264500Y-2627500D01*
X19264500Y-2452500D02*
X19089500Y-2627500D01*
X19153000Y-8167500D02*
X19328000Y-8342500D01*
X19328000Y-8167500D02*
X19153000Y-8342500D01*
X19565750Y-4357500D02*
X19740750Y-4532500D01*
X19740750Y-4357500D02*
X19565750Y-4532500D01*
X19629250Y-6262500D02*
X19804250Y-6437500D01*
X19804250Y-6262500D02*
X19629250Y-6437500D01*
X20105500Y-2452500D02*
X20280500Y-2627500D01*
X20280500Y-2452500D02*
X20105500Y-2627500D01*
X20280125Y-8167500D02*
X20455125Y-8342500D01*
X20455125Y-8167500D02*
X20280125Y-8342500D01*
X20518250Y-6262500D02*
X20693250Y-6437500D01*
X20693250Y-6262500D02*
X20518250Y-6437500D01*
X20581750Y-4357500D02*
X20756750Y-4532500D01*
X20756750Y-4357500D02*
X20581750Y-4532500D01*
X20994500Y-2452500D02*
X21169500Y-2627500D01*
X21169500Y-2452500D02*
X20994500Y-2627500D01*
X21296125Y-8167500D02*
X21471125Y-8342500D01*
X21471125Y-8167500D02*
X21296125Y-8342500D01*
X21470750Y-4357500D02*
X21645750Y-4532500D01*
X21645750Y-4357500D02*
X21470750Y-4532500D01*
X21534250Y-6262500D02*
X21709250Y-6437500D01*
X21709250Y-6262500D02*
X21534250Y-6437500D01*
X22010500Y-2452500D02*
X22185500Y-2627500D01*
X22185500Y-2452500D02*
X22010500Y-2627500D01*
X22423250Y-6262500D02*
X22598250Y-6437500D01*
X22598250Y-6262500D02*
X22423250Y-6437500D01*
X22486750Y-4357500D02*
X22661750Y-4532500D01*
X22661750Y-4357500D02*
X22486750Y-4532500D01*
X22661375Y-8167500D02*
X22836375Y-8342500D01*
X22836375Y-8167500D02*
X22661375Y-8342500D01*
X22899500Y-2452500D02*
X23074500Y-2627500D01*
X23074500Y-2452500D02*
X22899500Y-2627500D01*
X23375750Y-4357500D02*
X23550750Y-4532500D01*
X23550750Y-4357500D02*
X23375750Y-4532500D01*
X23439250Y-6262500D02*
X23614250Y-6437500D01*
X23614250Y-6262500D02*
X23439250Y-6437500D01*
X23677375Y-8167500D02*
X23852375Y-8342500D01*
X23852375Y-8167500D02*
X23677375Y-8342500D01*
X23915500Y-2452500D02*
X24090500Y-2627500D01*
X24090500Y-2452500D02*
X23915500Y-2627500D01*
X24391750Y-4357500D02*
X24566750Y-4532500D01*
X24566750Y-4357500D02*
X24391750Y-4532500D01*
X24566375Y-6262500D02*
X24741375Y-6437500D01*
X24741375Y-6262500D02*
X24566375Y-6437500D01*
X25042625Y-8405625D02*
X25217625Y-8580625D01*
X25217625Y-8405625D02*
X25042625Y-8580625D01*
X25582375Y-6262500D02*
X25757375Y-6437500D01*
X25757375Y-6262500D02*
X25582375Y-6437500D01*
X26026875Y-2897000D02*
X26201875Y-3072000D01*
X26201875Y-2897000D02*
X26026875Y-3072000D01*
X26026875Y-3913000D02*
X26201875Y-4088000D01*
X26201875Y-3913000D02*
X26026875Y-4088000D01*
X26058625Y-8405625D02*
X26233625Y-8580625D01*
X26233625Y-8405625D02*
X26058625Y-8580625D01*
X26947625Y-6500625D02*
X27122625Y-6675625D01*
X27122625Y-6500625D02*
X26947625Y-6675625D01*
X26947625Y-8405625D02*
X27122625Y-8580625D01*
X27122625Y-8405625D02*
X26947625Y-8580625D01*
X27963625Y-6500625D02*
X28138625Y-6675625D01*
X28138625Y-6500625D02*
X27963625Y-6675625D01*
X27963625Y-8405625D02*
X28138625Y-8580625D01*
X28138625Y-8405625D02*
X27963625Y-8580625D01*
X28852625Y-8405625D02*
X29027625Y-8580625D01*
X29027625Y-8405625D02*
X28852625Y-8580625D01*
X29090750Y-2452500D02*
X29265750Y-2627500D01*
X29265750Y-2452500D02*
X29090750Y-2627500D01*
X29090750Y-4357500D02*
X29265750Y-4532500D01*
X29265750Y-4357500D02*
X29090750Y-4532500D01*
X29090750Y-6262500D02*
X29265750Y-6437500D01*
X29265750Y-6262500D02*
X29090750Y-6437500D01*
X29868625Y-8405625D02*
X30043625Y-8580625D01*
X30043625Y-8405625D02*
X29868625Y-8580625D01*
X30106750Y-2452500D02*
X30281750Y-2627500D01*
X30281750Y-2452500D02*
X30106750Y-2627500D01*
X30106750Y-4357500D02*
X30281750Y-4532500D01*
X30281750Y-4357500D02*
X30106750Y-4532500D01*
X30106750Y-6262500D02*
X30281750Y-6437500D01*
X30281750Y-6262500D02*
X30106750Y-6437500D01*
X30995750Y-2452500D02*
X31170750Y-2627500D01*
X31170750Y-2452500D02*
X30995750Y-2627500D01*
X30995750Y-4357500D02*
X31170750Y-4532500D01*
X31170750Y-4357500D02*
X30995750Y-4532500D01*
X30995750Y-6262500D02*
X31170750Y-6437500D01*
X31170750Y-6262500D02*
X30995750Y-6437500D01*
X30995750Y-8167500D02*
X31170750Y-8342500D01*
X31170750Y-8167500D02*
X30995750Y-8342500D01*
X31936820Y-8164960D02*
X32111820Y-8339960D01*
X32111820Y-8164960D02*
X31936820Y-8339960D01*
X32011750Y-2452500D02*
X32186750Y-2627500D01*
X32186750Y-2452500D02*
X32011750Y-2627500D01*
X32011750Y-4357500D02*
X32186750Y-4532500D01*
X32186750Y-4357500D02*
X32011750Y-4532500D01*
X32011750Y-6262500D02*
X32186750Y-6437500D01*
X32186750Y-6262500D02*
X32011750Y-6437500D01*
X32011750Y-8167500D02*
X32186750Y-8342500D01*
X32186750Y-8167500D02*
X32011750Y-8342500D01*
X32900750Y-2452500D02*
X33075750Y-2627500D01*
X33075750Y-2452500D02*
X32900750Y-2627500D01*
X32900750Y-4357500D02*
X33075750Y-4532500D01*
X33075750Y-4357500D02*
X32900750Y-4532500D01*
X32900750Y-6262500D02*
X33075750Y-6437500D01*
X33075750Y-6262500D02*
X32900750Y-6437500D01*
X32900750Y-8167500D02*
X33075750Y-8342500D01*
X33075750Y-8167500D02*
X32900750Y-8342500D01*
X32952820Y-8164960D02*
X33127820Y-8339960D01*
X33127820Y-8164960D02*
X32952820Y-8339960D01*
X33916750Y-2452500D02*
X34091750Y-2627500D01*
X34091750Y-2452500D02*
X33916750Y-2627500D01*
X33916750Y-4357500D02*
X34091750Y-4532500D01*
X34091750Y-4357500D02*
X33916750Y-4532500D01*
X33916750Y-6262500D02*
X34091750Y-6437500D01*
X34091750Y-6262500D02*
X33916750Y-6437500D01*
X33916750Y-8167500D02*
X34091750Y-8342500D01*
X34091750Y-8167500D02*
X33916750Y-8342500D01*
X34805750Y-2452500D02*
X34980750Y-2627500D01*
X34980750Y-2452500D02*
X34805750Y-2627500D01*
X34805750Y-4357500D02*
X34980750Y-4532500D01*
X34980750Y-4357500D02*
X34805750Y-4532500D01*
X34805750Y-6262500D02*
X34980750Y-6437500D01*
X34980750Y-6262500D02*
X34805750Y-6437500D01*
X34805750Y-8167500D02*
X34980750Y-8342500D01*
X34980750Y-8167500D02*
X34805750Y-8342500D01*
X35313750Y-6707000D02*
X35488750Y-6882000D01*
X35488750Y-6707000D02*
X35313750Y-6882000D01*
X35313750Y-7723000D02*
X35488750Y-7898000D01*
X35488750Y-7723000D02*
X35313750Y-7898000D01*
X35821750Y-2452500D02*
X35996750Y-2627500D01*
X35996750Y-2452500D02*
X35821750Y-2627500D01*
X35821750Y-4357500D02*
X35996750Y-4532500D01*
X35996750Y-4357500D02*
X35821750Y-4532500D01*
X35821750Y-6262500D02*
X35996750Y-6437500D01*
X35996750Y-6262500D02*
X35821750Y-6437500D01*
X35821750Y-8167500D02*
X35996750Y-8342500D01*
X35996750Y-8167500D02*
X35821750Y-8342500D01*
D12*
X7454900Y-8953500D02*
G75*
G03*
X7454900Y-8953500I-152400J0D01*
G01*
X9836150Y-8953500D02*
G75*
G03*
X9836150Y-8953500I-152400J0D01*
G01*
X12217400Y-8953500D02*
G75*
G03*
X12217400Y-8953500I-152400J0D01*
G01*
X14598650Y-8953500D02*
G75*
G03*
X14598650Y-8953500I-152400J0D01*
G01*
X16979900Y-8953500D02*
G75*
G03*
X16979900Y-8953500I-152400J0D01*
G01*
X18884900Y-8953500D02*
G75*
G03*
X18884900Y-8953500I-152400J0D01*
G01*
X31494095Y-8950960D02*
G75*
G03*
X31494095Y-8950960I-152400J0D01*
G01*
X33875345Y-8950960D02*
G75*
G03*
X33875345Y-8950960I-152400J0D01*
G01*
X36252150Y-6111875D02*
G75*
G03*
X36252150Y-6111875I-152400J0D01*
G01*
X36252150Y-8493125D02*
G75*
G03*
X36252150Y-8493125I-152400J0D01*
G01*
D13*
X2540000Y-2340610D02*
X2540000Y-2739390D01*
X2340610Y-2540000D02*
X2739390Y-2540000D01*
X2778125Y-4245610D02*
X2778125Y-4644390D01*
X2578735Y-4445000D02*
X2977515Y-4445000D01*
X2778125Y-8055610D02*
X2778125Y-8454390D01*
X2578735Y-8255000D02*
X2977515Y-8255000D01*
X3254375Y-6150610D02*
X3254375Y-6549390D01*
X3054985Y-6350000D02*
X3453765Y-6350000D01*
X4445000Y-2340610D02*
X4445000Y-2739390D01*
X4245610Y-2540000D02*
X4644390Y-2540000D01*
X4921250Y-4245610D02*
X4921250Y-4644390D01*
X4721860Y-4445000D02*
X5120640Y-4445000D01*
X5159375Y-8055610D02*
X5159375Y-8454390D01*
X4959985Y-8255000D02*
X5358765Y-8255000D01*
X5873750Y-6150610D02*
X5873750Y-6549390D01*
X5674360Y-6350000D02*
X6073140Y-6350000D01*
X6350000Y-2340610D02*
X6350000Y-2739390D01*
X6150610Y-2540000D02*
X6549390Y-2540000D01*
X6826250Y-4245610D02*
X6826250Y-4644390D01*
X6626860Y-4445000D02*
X7025640Y-4445000D01*
X7302500Y-7230110D02*
X7302500Y-7628890D01*
X7103110Y-7429500D02*
X7501890Y-7429500D01*
X7302500Y-8055610D02*
X7302500Y-8454390D01*
X7103110Y-8255000D02*
X7501890Y-8255000D01*
X7778750Y-6150610D02*
X7778750Y-6549390D01*
X7579360Y-6350000D02*
X7978140Y-6350000D01*
X8255000Y-2340610D02*
X8255000Y-2739390D01*
X8055610Y-2540000D02*
X8454390Y-2540000D01*
X8731250Y-4245610D02*
X8731250Y-4644390D01*
X8531860Y-4445000D02*
X8930640Y-4445000D01*
X9683750Y-6150610D02*
X9683750Y-6549390D01*
X9484360Y-6350000D02*
X9883140Y-6350000D01*
X9683750Y-7230110D02*
X9683750Y-7628890D01*
X9484360Y-7429500D02*
X9883140Y-7429500D01*
X10160000Y-2340610D02*
X10160000Y-2739390D01*
X9960610Y-2540000D02*
X10359390Y-2540000D01*
X10636250Y-4245610D02*
X10636250Y-4644390D01*
X10436860Y-4445000D02*
X10835640Y-4445000D01*
X10874375Y-8055610D02*
X10874375Y-8454390D01*
X10674985Y-8255000D02*
X11073765Y-8255000D01*
X11588750Y-6150610D02*
X11588750Y-6549390D01*
X11389360Y-6350000D02*
X11788140Y-6350000D01*
X12065000Y-2340610D02*
X12065000Y-2739390D01*
X11865610Y-2540000D02*
X12264390Y-2540000D01*
X12065000Y-7230110D02*
X12065000Y-7628890D01*
X11865610Y-7429500D02*
X12264390Y-7429500D01*
X12541250Y-4245610D02*
X12541250Y-4644390D01*
X12341860Y-4445000D02*
X12740640Y-4445000D01*
X13017500Y-8055610D02*
X13017500Y-8454390D01*
X12818110Y-8255000D02*
X13216890Y-8255000D01*
X13493750Y-6150610D02*
X13493750Y-6549390D01*
X13294360Y-6350000D02*
X13693140Y-6350000D01*
X13970000Y-2340610D02*
X13970000Y-2739390D01*
X13770610Y-2540000D02*
X14169390Y-2540000D01*
X14446250Y-4245610D02*
X14446250Y-4644390D01*
X14246860Y-4445000D02*
X14645640Y-4445000D01*
X14446250Y-7230110D02*
X14446250Y-7628890D01*
X14246860Y-7429500D02*
X14645640Y-7429500D01*
X15398750Y-6150610D02*
X15398750Y-6549390D01*
X15199360Y-6350000D02*
X15598140Y-6350000D01*
X15636875Y-8055610D02*
X15636875Y-8454390D01*
X15437485Y-8255000D02*
X15836265Y-8255000D01*
X15875000Y-2340610D02*
X15875000Y-2739390D01*
X15675610Y-2540000D02*
X16074390Y-2540000D01*
X16351250Y-4245610D02*
X16351250Y-4644390D01*
X16151860Y-4445000D02*
X16550640Y-4445000D01*
X16827500Y-7230110D02*
X16827500Y-7628890D01*
X16628110Y-7429500D02*
X17026890Y-7429500D01*
X17303750Y-6150610D02*
X17303750Y-6549390D01*
X17104360Y-6350000D02*
X17503140Y-6350000D01*
X17780000Y-2340610D02*
X17780000Y-2739390D01*
X17580610Y-2540000D02*
X17979390Y-2540000D01*
X18256250Y-4245610D02*
X18256250Y-4644390D01*
X18056860Y-4445000D02*
X18455640Y-4445000D01*
X18732500Y-7230110D02*
X18732500Y-7628890D01*
X18533110Y-7429500D02*
X18931890Y-7429500D01*
X18732500Y-8055610D02*
X18732500Y-8454390D01*
X18533110Y-8255000D02*
X18931890Y-8255000D01*
X19208750Y-6150610D02*
X19208750Y-6549390D01*
X19009360Y-6350000D02*
X19408140Y-6350000D01*
X19685000Y-2340610D02*
X19685000Y-2739390D01*
X19485610Y-2540000D02*
X19884390Y-2540000D01*
X20161250Y-4245610D02*
X20161250Y-4644390D01*
X19961860Y-4445000D02*
X20360640Y-4445000D01*
X20875625Y-8055610D02*
X20875625Y-8454390D01*
X20676235Y-8255000D02*
X21075015Y-8255000D01*
X21113750Y-6150610D02*
X21113750Y-6549390D01*
X20914360Y-6350000D02*
X21313140Y-6350000D01*
X21590000Y-2340610D02*
X21590000Y-2739390D01*
X21390610Y-2540000D02*
X21789390Y-2540000D01*
X22066250Y-4245610D02*
X22066250Y-4644390D01*
X21866860Y-4445000D02*
X22265640Y-4445000D01*
X23018750Y-6150610D02*
X23018750Y-6549390D01*
X22819360Y-6350000D02*
X23218140Y-6350000D01*
X23256875Y-8055610D02*
X23256875Y-8454390D01*
X23057485Y-8255000D02*
X23456265Y-8255000D01*
X23495000Y-2340610D02*
X23495000Y-2739390D01*
X23295610Y-2540000D02*
X23694390Y-2540000D01*
X23971250Y-4245610D02*
X23971250Y-4644390D01*
X23771860Y-4445000D02*
X24170640Y-4445000D01*
X25161875Y-6150610D02*
X25161875Y-6549390D01*
X24962485Y-6350000D02*
X25361265Y-6350000D01*
X25638125Y-8293735D02*
X25638125Y-8692515D01*
X25438735Y-8493125D02*
X25837515Y-8493125D01*
X26114375Y-3293110D02*
X26114375Y-3691890D01*
X25914985Y-3492500D02*
X26313765Y-3492500D01*
X27543125Y-6388735D02*
X27543125Y-6787515D01*
X27343735Y-6588125D02*
X27742515Y-6588125D01*
X27543125Y-8293735D02*
X27543125Y-8692515D01*
X27343735Y-8493125D02*
X27742515Y-8493125D01*
X29448125Y-8293735D02*
X29448125Y-8692515D01*
X29248735Y-8493125D02*
X29647515Y-8493125D01*
X29686250Y-2340610D02*
X29686250Y-2739390D01*
X29486860Y-2540000D02*
X29885640Y-2540000D01*
X29686250Y-4245610D02*
X29686250Y-4644390D01*
X29486860Y-4445000D02*
X29885640Y-4445000D01*
X29686250Y-6150610D02*
X29686250Y-6549390D01*
X29486860Y-6350000D02*
X29885640Y-6350000D01*
X31341695Y-7227570D02*
X31341695Y-7626350D01*
X31142305Y-7426960D02*
X31541085Y-7426960D01*
X31591250Y-2340610D02*
X31591250Y-2739390D01*
X31391860Y-2540000D02*
X31790640Y-2540000D01*
X31591250Y-4245610D02*
X31591250Y-4644390D01*
X31391860Y-4445000D02*
X31790640Y-4445000D01*
X31591250Y-6150610D02*
X31591250Y-6549390D01*
X31391860Y-6350000D02*
X31790640Y-6350000D01*
X31591250Y-8055610D02*
X31591250Y-8454390D01*
X31391860Y-8255000D02*
X31790640Y-8255000D01*
X32532320Y-8053070D02*
X32532320Y-8451850D01*
X32332930Y-8252460D02*
X32731710Y-8252460D01*
X33496250Y-2340610D02*
X33496250Y-2739390D01*
X33296860Y-2540000D02*
X33695640Y-2540000D01*
X33496250Y-4245610D02*
X33496250Y-4644390D01*
X33296860Y-4445000D02*
X33695640Y-4445000D01*
X33496250Y-6150610D02*
X33496250Y-6549390D01*
X33296860Y-6350000D02*
X33695640Y-6350000D01*
X33496250Y-8055610D02*
X33496250Y-8454390D01*
X33296860Y-8255000D02*
X33695640Y-8255000D01*
X33722945Y-7227570D02*
X33722945Y-7626350D01*
X33523555Y-7426960D02*
X33922335Y-7426960D01*
X34575750Y-5912485D02*
X34575750Y-6311265D01*
X34376360Y-6111875D02*
X34775140Y-6111875D01*
X34575750Y-8293735D02*
X34575750Y-8692515D01*
X34376360Y-8493125D02*
X34775140Y-8493125D01*
X35401250Y-2340610D02*
X35401250Y-2739390D01*
X35201860Y-2540000D02*
X35600640Y-2540000D01*
X35401250Y-4245610D02*
X35401250Y-4644390D01*
X35201860Y-4445000D02*
X35600640Y-4445000D01*
X35401250Y-6150610D02*
X35401250Y-6549390D01*
X35201860Y-6350000D02*
X35600640Y-6350000D01*
X35401250Y-7103110D02*
X35401250Y-7501890D01*
X35201860Y-7302500D02*
X35600640Y-7302500D01*
X35401250Y-8055610D02*
X35401250Y-8454390D01*
X35201860Y-8255000D02*
X35600640Y-8255000D01*
D10*
X1687619Y-9672524D02*
X1687619Y-9472524D01*
X1687619Y-9472524D02*
X1735238Y-9472524D01*
X1735238Y-9472524D02*
X1763809Y-9482048D01*
X1763809Y-9482048D02*
X1782857Y-9501095D01*
X1782857Y-9501095D02*
X1792381Y-9520143D01*
X1792381Y-9520143D02*
X1801905Y-9558238D01*
X1801905Y-9558238D02*
X1801905Y-9586810D01*
X1801905Y-9586810D02*
X1792381Y-9624905D01*
X1792381Y-9624905D02*
X1782857Y-9643952D01*
X1782857Y-9643952D02*
X1763809Y-9663000D01*
X1763809Y-9663000D02*
X1735238Y-9672524D01*
X1735238Y-9672524D02*
X1687619Y-9672524D01*
X1887619Y-9672524D02*
X1887619Y-9539190D01*
X1887619Y-9577286D02*
X1897143Y-9558238D01*
X1897143Y-9558238D02*
X1906667Y-9548714D01*
X1906667Y-9548714D02*
X1925714Y-9539190D01*
X1925714Y-9539190D02*
X1944762Y-9539190D01*
X2011428Y-9672524D02*
X2011428Y-9539190D01*
X2011428Y-9472524D02*
X2001905Y-9482048D01*
X2001905Y-9482048D02*
X2011428Y-9491571D01*
X2011428Y-9491571D02*
X2020952Y-9482048D01*
X2020952Y-9482048D02*
X2011428Y-9472524D01*
X2011428Y-9472524D02*
X2011428Y-9491571D01*
X2135238Y-9672524D02*
X2116190Y-9663000D01*
X2116190Y-9663000D02*
X2106667Y-9643952D01*
X2106667Y-9643952D02*
X2106667Y-9472524D01*
X2240000Y-9672524D02*
X2220952Y-9663000D01*
X2220952Y-9663000D02*
X2211429Y-9643952D01*
X2211429Y-9643952D02*
X2211429Y-9472524D01*
X2468571Y-9672524D02*
X2468571Y-9472524D01*
X2468571Y-9472524D02*
X2535238Y-9615381D01*
X2535238Y-9615381D02*
X2601905Y-9472524D01*
X2601905Y-9472524D02*
X2601905Y-9672524D01*
X2782857Y-9672524D02*
X2782857Y-9567762D01*
X2782857Y-9567762D02*
X2773333Y-9548714D01*
X2773333Y-9548714D02*
X2754286Y-9539190D01*
X2754286Y-9539190D02*
X2716190Y-9539190D01*
X2716190Y-9539190D02*
X2697143Y-9548714D01*
X2782857Y-9663000D02*
X2763810Y-9672524D01*
X2763810Y-9672524D02*
X2716190Y-9672524D01*
X2716190Y-9672524D02*
X2697143Y-9663000D01*
X2697143Y-9663000D02*
X2687619Y-9643952D01*
X2687619Y-9643952D02*
X2687619Y-9624905D01*
X2687619Y-9624905D02*
X2697143Y-9605857D01*
X2697143Y-9605857D02*
X2716190Y-9596333D01*
X2716190Y-9596333D02*
X2763810Y-9596333D01*
X2763810Y-9596333D02*
X2782857Y-9586810D01*
X2878095Y-9539190D02*
X2878095Y-9739190D01*
X2878095Y-9548714D02*
X2897143Y-9539190D01*
X2897143Y-9539190D02*
X2935238Y-9539190D01*
X2935238Y-9539190D02*
X2954286Y-9548714D01*
X2954286Y-9548714D02*
X2963809Y-9558238D01*
X2963809Y-9558238D02*
X2973333Y-9577286D01*
X2973333Y-9577286D02*
X2973333Y-9634429D01*
X2973333Y-9634429D02*
X2963809Y-9653476D01*
X2963809Y-9653476D02*
X2954286Y-9663000D01*
X2954286Y-9663000D02*
X2935238Y-9672524D01*
X2935238Y-9672524D02*
X2897143Y-9672524D01*
X2897143Y-9672524D02*
X2878095Y-9663000D01*
X3059048Y-9653476D02*
X3068571Y-9663000D01*
X3068571Y-9663000D02*
X3059048Y-9672524D01*
X3059048Y-9672524D02*
X3049524Y-9663000D01*
X3049524Y-9663000D02*
X3059048Y-9653476D01*
X3059048Y-9653476D02*
X3059048Y-9672524D01*
X3059048Y-9548714D02*
X3068571Y-9558238D01*
X3068571Y-9558238D02*
X3059048Y-9567762D01*
X3059048Y-9567762D02*
X3049524Y-9558238D01*
X3049524Y-9558238D02*
X3059048Y-9548714D01*
X3059048Y-9548714D02*
X3059048Y-9567762D01*
D11*
X1265000Y-9912500D02*
X1440000Y-10087500D01*
X1440000Y-9912500D02*
X1265000Y-10087500D01*
D10*
X1792381Y-10092524D02*
X1678095Y-10092524D01*
X1735238Y-10092524D02*
X1735238Y-9892524D01*
X1735238Y-9892524D02*
X1716190Y-9921095D01*
X1716190Y-9921095D02*
X1697143Y-9940143D01*
X1697143Y-9940143D02*
X1678095Y-9949667D01*
X1878095Y-10073476D02*
X1887619Y-10083000D01*
X1887619Y-10083000D02*
X1878095Y-10092524D01*
X1878095Y-10092524D02*
X1868571Y-10083000D01*
X1868571Y-10083000D02*
X1878095Y-10073476D01*
X1878095Y-10073476D02*
X1878095Y-10092524D01*
X1954286Y-9892524D02*
X2087619Y-9892524D01*
X2087619Y-9892524D02*
X2001905Y-10092524D01*
X2259048Y-9892524D02*
X2163810Y-9892524D01*
X2163810Y-9892524D02*
X2154286Y-9987762D01*
X2154286Y-9987762D02*
X2163810Y-9978238D01*
X2163810Y-9978238D02*
X2182857Y-9968714D01*
X2182857Y-9968714D02*
X2230476Y-9968714D01*
X2230476Y-9968714D02*
X2249524Y-9978238D01*
X2249524Y-9978238D02*
X2259048Y-9987762D01*
X2259048Y-9987762D02*
X2268571Y-10006810D01*
X2268571Y-10006810D02*
X2268571Y-10054429D01*
X2268571Y-10054429D02*
X2259048Y-10073476D01*
X2259048Y-10073476D02*
X2249524Y-10083000D01*
X2249524Y-10083000D02*
X2230476Y-10092524D01*
X2230476Y-10092524D02*
X2182857Y-10092524D01*
X2182857Y-10092524D02*
X2163810Y-10083000D01*
X2163810Y-10083000D02*
X2154286Y-10073476D01*
X2392381Y-9892524D02*
X2411429Y-9892524D01*
X2411429Y-9892524D02*
X2430476Y-9902048D01*
X2430476Y-9902048D02*
X2440000Y-9911571D01*
X2440000Y-9911571D02*
X2449524Y-9930619D01*
X2449524Y-9930619D02*
X2459048Y-9968714D01*
X2459048Y-9968714D02*
X2459048Y-10016333D01*
X2459048Y-10016333D02*
X2449524Y-10054429D01*
X2449524Y-10054429D02*
X2440000Y-10073476D01*
X2440000Y-10073476D02*
X2430476Y-10083000D01*
X2430476Y-10083000D02*
X2411429Y-10092524D01*
X2411429Y-10092524D02*
X2392381Y-10092524D01*
X2392381Y-10092524D02*
X2373333Y-10083000D01*
X2373333Y-10083000D02*
X2363810Y-10073476D01*
X2363810Y-10073476D02*
X2354286Y-10054429D01*
X2354286Y-10054429D02*
X2344762Y-10016333D01*
X2344762Y-10016333D02*
X2344762Y-9968714D01*
X2344762Y-9968714D02*
X2354286Y-9930619D01*
X2354286Y-9930619D02*
X2363810Y-9911571D01*
X2363810Y-9911571D02*
X2373333Y-9902048D01*
X2373333Y-9902048D02*
X2392381Y-9892524D01*
X2544762Y-10092524D02*
X2544762Y-9959190D01*
X2544762Y-9978238D02*
X2554286Y-9968714D01*
X2554286Y-9968714D02*
X2573333Y-9959190D01*
X2573333Y-9959190D02*
X2601905Y-9959190D01*
X2601905Y-9959190D02*
X2620952Y-9968714D01*
X2620952Y-9968714D02*
X2630476Y-9987762D01*
X2630476Y-9987762D02*
X2630476Y-10092524D01*
X2630476Y-9987762D02*
X2640000Y-9968714D01*
X2640000Y-9968714D02*
X2659048Y-9959190D01*
X2659048Y-9959190D02*
X2687619Y-9959190D01*
X2687619Y-9959190D02*
X2706667Y-9968714D01*
X2706667Y-9968714D02*
X2716191Y-9987762D01*
X2716191Y-9987762D02*
X2716191Y-10092524D01*
X2811429Y-10092524D02*
X2811429Y-9959190D01*
X2811429Y-9978238D02*
X2820952Y-9968714D01*
X2820952Y-9968714D02*
X2840000Y-9959190D01*
X2840000Y-9959190D02*
X2868571Y-9959190D01*
X2868571Y-9959190D02*
X2887619Y-9968714D01*
X2887619Y-9968714D02*
X2897143Y-9987762D01*
X2897143Y-9987762D02*
X2897143Y-10092524D01*
X2897143Y-9987762D02*
X2906667Y-9968714D01*
X2906667Y-9968714D02*
X2925714Y-9959190D01*
X2925714Y-9959190D02*
X2954286Y-9959190D01*
X2954286Y-9959190D02*
X2973333Y-9968714D01*
X2973333Y-9968714D02*
X2982857Y-9987762D01*
X2982857Y-9987762D02*
X2982857Y-10092524D01*
X3373333Y-9883000D02*
X3201905Y-10140143D01*
X3630476Y-9892524D02*
X3649524Y-9892524D01*
X3649524Y-9892524D02*
X3668572Y-9902048D01*
X3668572Y-9902048D02*
X3678095Y-9911571D01*
X3678095Y-9911571D02*
X3687619Y-9930619D01*
X3687619Y-9930619D02*
X3697143Y-9968714D01*
X3697143Y-9968714D02*
X3697143Y-10016333D01*
X3697143Y-10016333D02*
X3687619Y-10054429D01*
X3687619Y-10054429D02*
X3678095Y-10073476D01*
X3678095Y-10073476D02*
X3668572Y-10083000D01*
X3668572Y-10083000D02*
X3649524Y-10092524D01*
X3649524Y-10092524D02*
X3630476Y-10092524D01*
X3630476Y-10092524D02*
X3611429Y-10083000D01*
X3611429Y-10083000D02*
X3601905Y-10073476D01*
X3601905Y-10073476D02*
X3592381Y-10054429D01*
X3592381Y-10054429D02*
X3582857Y-10016333D01*
X3582857Y-10016333D02*
X3582857Y-9968714D01*
X3582857Y-9968714D02*
X3592381Y-9930619D01*
X3592381Y-9930619D02*
X3601905Y-9911571D01*
X3601905Y-9911571D02*
X3611429Y-9902048D01*
X3611429Y-9902048D02*
X3630476Y-9892524D01*
X3782857Y-10073476D02*
X3792381Y-10083000D01*
X3792381Y-10083000D02*
X3782857Y-10092524D01*
X3782857Y-10092524D02*
X3773333Y-10083000D01*
X3773333Y-10083000D02*
X3782857Y-10073476D01*
X3782857Y-10073476D02*
X3782857Y-10092524D01*
X3916191Y-9892524D02*
X3935238Y-9892524D01*
X3935238Y-9892524D02*
X3954286Y-9902048D01*
X3954286Y-9902048D02*
X3963810Y-9911571D01*
X3963810Y-9911571D02*
X3973333Y-9930619D01*
X3973333Y-9930619D02*
X3982857Y-9968714D01*
X3982857Y-9968714D02*
X3982857Y-10016333D01*
X3982857Y-10016333D02*
X3973333Y-10054429D01*
X3973333Y-10054429D02*
X3963810Y-10073476D01*
X3963810Y-10073476D02*
X3954286Y-10083000D01*
X3954286Y-10083000D02*
X3935238Y-10092524D01*
X3935238Y-10092524D02*
X3916191Y-10092524D01*
X3916191Y-10092524D02*
X3897143Y-10083000D01*
X3897143Y-10083000D02*
X3887619Y-10073476D01*
X3887619Y-10073476D02*
X3878095Y-10054429D01*
X3878095Y-10054429D02*
X3868572Y-10016333D01*
X3868572Y-10016333D02*
X3868572Y-9968714D01*
X3868572Y-9968714D02*
X3878095Y-9930619D01*
X3878095Y-9930619D02*
X3887619Y-9911571D01*
X3887619Y-9911571D02*
X3897143Y-9902048D01*
X3897143Y-9902048D02*
X3916191Y-9892524D01*
X4154286Y-9892524D02*
X4116191Y-9892524D01*
X4116191Y-9892524D02*
X4097143Y-9902048D01*
X4097143Y-9902048D02*
X4087619Y-9911571D01*
X4087619Y-9911571D02*
X4068572Y-9940143D01*
X4068572Y-9940143D02*
X4059048Y-9978238D01*
X4059048Y-9978238D02*
X4059048Y-10054429D01*
X4059048Y-10054429D02*
X4068572Y-10073476D01*
X4068572Y-10073476D02*
X4078095Y-10083000D01*
X4078095Y-10083000D02*
X4097143Y-10092524D01*
X4097143Y-10092524D02*
X4135238Y-10092524D01*
X4135238Y-10092524D02*
X4154286Y-10083000D01*
X4154286Y-10083000D02*
X4163810Y-10073476D01*
X4163810Y-10073476D02*
X4173333Y-10054429D01*
X4173333Y-10054429D02*
X4173333Y-10006810D01*
X4173333Y-10006810D02*
X4163810Y-9987762D01*
X4163810Y-9987762D02*
X4154286Y-9978238D01*
X4154286Y-9978238D02*
X4135238Y-9968714D01*
X4135238Y-9968714D02*
X4097143Y-9968714D01*
X4097143Y-9968714D02*
X4078095Y-9978238D01*
X4078095Y-9978238D02*
X4068572Y-9987762D01*
X4068572Y-9987762D02*
X4059048Y-10006810D01*
X4287619Y-9978238D02*
X4268572Y-9968714D01*
X4268572Y-9968714D02*
X4259048Y-9959190D01*
X4259048Y-9959190D02*
X4249524Y-9940143D01*
X4249524Y-9940143D02*
X4249524Y-9930619D01*
X4249524Y-9930619D02*
X4259048Y-9911571D01*
X4259048Y-9911571D02*
X4268572Y-9902048D01*
X4268572Y-9902048D02*
X4287619Y-9892524D01*
X4287619Y-9892524D02*
X4325715Y-9892524D01*
X4325715Y-9892524D02*
X4344762Y-9902048D01*
X4344762Y-9902048D02*
X4354286Y-9911571D01*
X4354286Y-9911571D02*
X4363810Y-9930619D01*
X4363810Y-9930619D02*
X4363810Y-9940143D01*
X4363810Y-9940143D02*
X4354286Y-9959190D01*
X4354286Y-9959190D02*
X4344762Y-9968714D01*
X4344762Y-9968714D02*
X4325715Y-9978238D01*
X4325715Y-9978238D02*
X4287619Y-9978238D01*
X4287619Y-9978238D02*
X4268572Y-9987762D01*
X4268572Y-9987762D02*
X4259048Y-9997286D01*
X4259048Y-9997286D02*
X4249524Y-10016333D01*
X4249524Y-10016333D02*
X4249524Y-10054429D01*
X4249524Y-10054429D02*
X4259048Y-10073476D01*
X4259048Y-10073476D02*
X4268572Y-10083000D01*
X4268572Y-10083000D02*
X4287619Y-10092524D01*
X4287619Y-10092524D02*
X4325715Y-10092524D01*
X4325715Y-10092524D02*
X4344762Y-10083000D01*
X4344762Y-10083000D02*
X4354286Y-10073476D01*
X4354286Y-10073476D02*
X4363810Y-10054429D01*
X4363810Y-10054429D02*
X4363810Y-10016333D01*
X4363810Y-10016333D02*
X4354286Y-9997286D01*
X4354286Y-9997286D02*
X4344762Y-9987762D01*
X4344762Y-9987762D02*
X4325715Y-9978238D01*
X4459048Y-10092524D02*
X4497143Y-10092524D01*
X4497143Y-10092524D02*
X4516191Y-10083000D01*
X4516191Y-10083000D02*
X4525715Y-10073476D01*
X4525715Y-10073476D02*
X4544762Y-10044905D01*
X4544762Y-10044905D02*
X4554286Y-10006810D01*
X4554286Y-10006810D02*
X4554286Y-9930619D01*
X4554286Y-9930619D02*
X4544762Y-9911571D01*
X4544762Y-9911571D02*
X4535238Y-9902048D01*
X4535238Y-9902048D02*
X4516191Y-9892524D01*
X4516191Y-9892524D02*
X4478095Y-9892524D01*
X4478095Y-9892524D02*
X4459048Y-9902048D01*
X4459048Y-9902048D02*
X4449524Y-9911571D01*
X4449524Y-9911571D02*
X4440000Y-9930619D01*
X4440000Y-9930619D02*
X4440000Y-9978238D01*
X4440000Y-9978238D02*
X4449524Y-9997286D01*
X4449524Y-9997286D02*
X4459048Y-10006810D01*
X4459048Y-10006810D02*
X4478095Y-10016333D01*
X4478095Y-10016333D02*
X4516191Y-10016333D01*
X4516191Y-10016333D02*
X4535238Y-10006810D01*
X4535238Y-10006810D02*
X4544762Y-9997286D01*
X4544762Y-9997286D02*
X4554286Y-9978238D01*
X4630476Y-9892524D02*
X4630476Y-9930619D01*
X4706667Y-9892524D02*
X4706667Y-9930619D01*
X5001905Y-10168714D02*
X4992381Y-10159190D01*
X4992381Y-10159190D02*
X4973334Y-10130619D01*
X4973334Y-10130619D02*
X4963810Y-10111571D01*
X4963810Y-10111571D02*
X4954286Y-10083000D01*
X4954286Y-10083000D02*
X4944762Y-10035381D01*
X4944762Y-10035381D02*
X4944762Y-9997286D01*
X4944762Y-9997286D02*
X4954286Y-9949667D01*
X4954286Y-9949667D02*
X4963810Y-9921095D01*
X4963810Y-9921095D02*
X4973334Y-9902048D01*
X4973334Y-9902048D02*
X4992381Y-9873476D01*
X4992381Y-9873476D02*
X5001905Y-9863952D01*
X5182857Y-10092524D02*
X5068572Y-10092524D01*
X5125715Y-10092524D02*
X5125715Y-9892524D01*
X5125715Y-9892524D02*
X5106667Y-9921095D01*
X5106667Y-9921095D02*
X5087619Y-9940143D01*
X5087619Y-9940143D02*
X5068572Y-9949667D01*
X5249524Y-9892524D02*
X5373334Y-9892524D01*
X5373334Y-9892524D02*
X5306667Y-9968714D01*
X5306667Y-9968714D02*
X5335238Y-9968714D01*
X5335238Y-9968714D02*
X5354286Y-9978238D01*
X5354286Y-9978238D02*
X5363810Y-9987762D01*
X5363810Y-9987762D02*
X5373334Y-10006810D01*
X5373334Y-10006810D02*
X5373334Y-10054429D01*
X5373334Y-10054429D02*
X5363810Y-10073476D01*
X5363810Y-10073476D02*
X5354286Y-10083000D01*
X5354286Y-10083000D02*
X5335238Y-10092524D01*
X5335238Y-10092524D02*
X5278096Y-10092524D01*
X5278096Y-10092524D02*
X5259048Y-10083000D01*
X5259048Y-10083000D02*
X5249524Y-10073476D01*
X5544762Y-9959190D02*
X5544762Y-10092524D01*
X5497143Y-9883000D02*
X5449524Y-10025857D01*
X5449524Y-10025857D02*
X5573334Y-10025857D01*
X5801905Y-10092524D02*
X5801905Y-9892524D01*
X5887619Y-10092524D02*
X5887619Y-9987762D01*
X5887619Y-9987762D02*
X5878096Y-9968714D01*
X5878096Y-9968714D02*
X5859048Y-9959190D01*
X5859048Y-9959190D02*
X5830476Y-9959190D01*
X5830476Y-9959190D02*
X5811429Y-9968714D01*
X5811429Y-9968714D02*
X5801905Y-9978238D01*
X6011429Y-10092524D02*
X5992381Y-10083000D01*
X5992381Y-10083000D02*
X5982857Y-10073476D01*
X5982857Y-10073476D02*
X5973334Y-10054429D01*
X5973334Y-10054429D02*
X5973334Y-9997286D01*
X5973334Y-9997286D02*
X5982857Y-9978238D01*
X5982857Y-9978238D02*
X5992381Y-9968714D01*
X5992381Y-9968714D02*
X6011429Y-9959190D01*
X6011429Y-9959190D02*
X6040000Y-9959190D01*
X6040000Y-9959190D02*
X6059048Y-9968714D01*
X6059048Y-9968714D02*
X6068572Y-9978238D01*
X6068572Y-9978238D02*
X6078096Y-9997286D01*
X6078096Y-9997286D02*
X6078096Y-10054429D01*
X6078096Y-10054429D02*
X6068572Y-10073476D01*
X6068572Y-10073476D02*
X6059048Y-10083000D01*
X6059048Y-10083000D02*
X6040000Y-10092524D01*
X6040000Y-10092524D02*
X6011429Y-10092524D01*
X6192381Y-10092524D02*
X6173334Y-10083000D01*
X6173334Y-10083000D02*
X6163810Y-10063952D01*
X6163810Y-10063952D02*
X6163810Y-9892524D01*
X6344762Y-10083000D02*
X6325715Y-10092524D01*
X6325715Y-10092524D02*
X6287619Y-10092524D01*
X6287619Y-10092524D02*
X6268572Y-10083000D01*
X6268572Y-10083000D02*
X6259048Y-10063952D01*
X6259048Y-10063952D02*
X6259048Y-9987762D01*
X6259048Y-9987762D02*
X6268572Y-9968714D01*
X6268572Y-9968714D02*
X6287619Y-9959190D01*
X6287619Y-9959190D02*
X6325715Y-9959190D01*
X6325715Y-9959190D02*
X6344762Y-9968714D01*
X6344762Y-9968714D02*
X6354286Y-9987762D01*
X6354286Y-9987762D02*
X6354286Y-10006810D01*
X6354286Y-10006810D02*
X6259048Y-10025857D01*
X6430477Y-10083000D02*
X6449524Y-10092524D01*
X6449524Y-10092524D02*
X6487619Y-10092524D01*
X6487619Y-10092524D02*
X6506667Y-10083000D01*
X6506667Y-10083000D02*
X6516191Y-10063952D01*
X6516191Y-10063952D02*
X6516191Y-10054429D01*
X6516191Y-10054429D02*
X6506667Y-10035381D01*
X6506667Y-10035381D02*
X6487619Y-10025857D01*
X6487619Y-10025857D02*
X6459048Y-10025857D01*
X6459048Y-10025857D02*
X6440000Y-10016333D01*
X6440000Y-10016333D02*
X6430477Y-9997286D01*
X6430477Y-9997286D02*
X6430477Y-9987762D01*
X6430477Y-9987762D02*
X6440000Y-9968714D01*
X6440000Y-9968714D02*
X6459048Y-9959190D01*
X6459048Y-9959190D02*
X6487619Y-9959190D01*
X6487619Y-9959190D02*
X6506667Y-9968714D01*
X6582858Y-10168714D02*
X6592381Y-10159190D01*
X6592381Y-10159190D02*
X6611429Y-10130619D01*
X6611429Y-10130619D02*
X6620953Y-10111571D01*
X6620953Y-10111571D02*
X6630477Y-10083000D01*
X6630477Y-10083000D02*
X6640000Y-10035381D01*
X6640000Y-10035381D02*
X6640000Y-9997286D01*
X6640000Y-9997286D02*
X6630477Y-9949667D01*
X6630477Y-9949667D02*
X6620953Y-9921095D01*
X6620953Y-9921095D02*
X6611429Y-9902048D01*
X6611429Y-9902048D02*
X6592381Y-9873476D01*
X6592381Y-9873476D02*
X6582858Y-9863952D01*
X6944762Y-10168714D02*
X6935238Y-10159190D01*
X6935238Y-10159190D02*
X6916191Y-10130619D01*
X6916191Y-10130619D02*
X6906667Y-10111571D01*
X6906667Y-10111571D02*
X6897143Y-10083000D01*
X6897143Y-10083000D02*
X6887619Y-10035381D01*
X6887619Y-10035381D02*
X6887619Y-9997286D01*
X6887619Y-9997286D02*
X6897143Y-9949667D01*
X6897143Y-9949667D02*
X6906667Y-9921095D01*
X6906667Y-9921095D02*
X6916191Y-9902048D01*
X6916191Y-9902048D02*
X6935238Y-9873476D01*
X6935238Y-9873476D02*
X6944762Y-9863952D01*
X7020953Y-9959190D02*
X7020953Y-10092524D01*
X7020953Y-9978238D02*
X7030477Y-9968714D01*
X7030477Y-9968714D02*
X7049524Y-9959190D01*
X7049524Y-9959190D02*
X7078096Y-9959190D01*
X7078096Y-9959190D02*
X7097143Y-9968714D01*
X7097143Y-9968714D02*
X7106667Y-9987762D01*
X7106667Y-9987762D02*
X7106667Y-10092524D01*
X7230477Y-10092524D02*
X7211429Y-10083000D01*
X7211429Y-10083000D02*
X7201905Y-10073476D01*
X7201905Y-10073476D02*
X7192381Y-10054429D01*
X7192381Y-10054429D02*
X7192381Y-9997286D01*
X7192381Y-9997286D02*
X7201905Y-9978238D01*
X7201905Y-9978238D02*
X7211429Y-9968714D01*
X7211429Y-9968714D02*
X7230477Y-9959190D01*
X7230477Y-9959190D02*
X7259048Y-9959190D01*
X7259048Y-9959190D02*
X7278096Y-9968714D01*
X7278096Y-9968714D02*
X7287619Y-9978238D01*
X7287619Y-9978238D02*
X7297143Y-9997286D01*
X7297143Y-9997286D02*
X7297143Y-10054429D01*
X7297143Y-10054429D02*
X7287619Y-10073476D01*
X7287619Y-10073476D02*
X7278096Y-10083000D01*
X7278096Y-10083000D02*
X7259048Y-10092524D01*
X7259048Y-10092524D02*
X7230477Y-10092524D01*
X7354286Y-9959190D02*
X7430477Y-9959190D01*
X7382858Y-9892524D02*
X7382858Y-10063952D01*
X7382858Y-10063952D02*
X7392381Y-10083000D01*
X7392381Y-10083000D02*
X7411429Y-10092524D01*
X7411429Y-10092524D02*
X7430477Y-10092524D01*
X7649524Y-9959190D02*
X7649524Y-10159190D01*
X7649524Y-9968714D02*
X7668572Y-9959190D01*
X7668572Y-9959190D02*
X7706667Y-9959190D01*
X7706667Y-9959190D02*
X7725715Y-9968714D01*
X7725715Y-9968714D02*
X7735239Y-9978238D01*
X7735239Y-9978238D02*
X7744762Y-9997286D01*
X7744762Y-9997286D02*
X7744762Y-10054429D01*
X7744762Y-10054429D02*
X7735239Y-10073476D01*
X7735239Y-10073476D02*
X7725715Y-10083000D01*
X7725715Y-10083000D02*
X7706667Y-10092524D01*
X7706667Y-10092524D02*
X7668572Y-10092524D01*
X7668572Y-10092524D02*
X7649524Y-10083000D01*
X7859048Y-10092524D02*
X7840000Y-10083000D01*
X7840000Y-10083000D02*
X7830477Y-10063952D01*
X7830477Y-10063952D02*
X7830477Y-9892524D01*
X8020953Y-10092524D02*
X8020953Y-9987762D01*
X8020953Y-9987762D02*
X8011429Y-9968714D01*
X8011429Y-9968714D02*
X7992381Y-9959190D01*
X7992381Y-9959190D02*
X7954286Y-9959190D01*
X7954286Y-9959190D02*
X7935239Y-9968714D01*
X8020953Y-10083000D02*
X8001905Y-10092524D01*
X8001905Y-10092524D02*
X7954286Y-10092524D01*
X7954286Y-10092524D02*
X7935239Y-10083000D01*
X7935239Y-10083000D02*
X7925715Y-10063952D01*
X7925715Y-10063952D02*
X7925715Y-10044905D01*
X7925715Y-10044905D02*
X7935239Y-10025857D01*
X7935239Y-10025857D02*
X7954286Y-10016333D01*
X7954286Y-10016333D02*
X8001905Y-10016333D01*
X8001905Y-10016333D02*
X8020953Y-10006810D01*
X8087620Y-9959190D02*
X8163810Y-9959190D01*
X8116191Y-9892524D02*
X8116191Y-10063952D01*
X8116191Y-10063952D02*
X8125715Y-10083000D01*
X8125715Y-10083000D02*
X8144762Y-10092524D01*
X8144762Y-10092524D02*
X8163810Y-10092524D01*
X8306667Y-10083000D02*
X8287620Y-10092524D01*
X8287620Y-10092524D02*
X8249524Y-10092524D01*
X8249524Y-10092524D02*
X8230477Y-10083000D01*
X8230477Y-10083000D02*
X8220953Y-10063952D01*
X8220953Y-10063952D02*
X8220953Y-9987762D01*
X8220953Y-9987762D02*
X8230477Y-9968714D01*
X8230477Y-9968714D02*
X8249524Y-9959190D01*
X8249524Y-9959190D02*
X8287620Y-9959190D01*
X8287620Y-9959190D02*
X8306667Y-9968714D01*
X8306667Y-9968714D02*
X8316191Y-9987762D01*
X8316191Y-9987762D02*
X8316191Y-10006810D01*
X8316191Y-10006810D02*
X8220953Y-10025857D01*
X8487620Y-10092524D02*
X8487620Y-9892524D01*
X8487620Y-10083000D02*
X8468572Y-10092524D01*
X8468572Y-10092524D02*
X8430477Y-10092524D01*
X8430477Y-10092524D02*
X8411429Y-10083000D01*
X8411429Y-10083000D02*
X8401905Y-10073476D01*
X8401905Y-10073476D02*
X8392382Y-10054429D01*
X8392382Y-10054429D02*
X8392382Y-9997286D01*
X8392382Y-9997286D02*
X8401905Y-9978238D01*
X8401905Y-9978238D02*
X8411429Y-9968714D01*
X8411429Y-9968714D02*
X8430477Y-9959190D01*
X8430477Y-9959190D02*
X8468572Y-9959190D01*
X8468572Y-9959190D02*
X8487620Y-9968714D01*
X8563810Y-10168714D02*
X8573334Y-10159190D01*
X8573334Y-10159190D02*
X8592382Y-10130619D01*
X8592382Y-10130619D02*
X8601905Y-10111571D01*
X8601905Y-10111571D02*
X8611429Y-10083000D01*
X8611429Y-10083000D02*
X8620953Y-10035381D01*
X8620953Y-10035381D02*
X8620953Y-9997286D01*
X8620953Y-9997286D02*
X8611429Y-9949667D01*
X8611429Y-9949667D02*
X8601905Y-9921095D01*
X8601905Y-9921095D02*
X8592382Y-9902048D01*
X8592382Y-9902048D02*
X8573334Y-9873476D01*
X8573334Y-9873476D02*
X8563810Y-9863952D01*
X1440000Y-10295000D02*
G75*
G03*
X1440000Y-10295000I-100000J0D01*
G01*
X1668571Y-10187524D02*
X1792381Y-10187524D01*
X1792381Y-10187524D02*
X1725714Y-10263714D01*
X1725714Y-10263714D02*
X1754286Y-10263714D01*
X1754286Y-10263714D02*
X1773333Y-10273238D01*
X1773333Y-10273238D02*
X1782857Y-10282762D01*
X1782857Y-10282762D02*
X1792381Y-10301810D01*
X1792381Y-10301810D02*
X1792381Y-10349429D01*
X1792381Y-10349429D02*
X1782857Y-10368476D01*
X1782857Y-10368476D02*
X1773333Y-10378000D01*
X1773333Y-10378000D02*
X1754286Y-10387524D01*
X1754286Y-10387524D02*
X1697143Y-10387524D01*
X1697143Y-10387524D02*
X1678095Y-10378000D01*
X1678095Y-10378000D02*
X1668571Y-10368476D01*
X1878095Y-10368476D02*
X1887619Y-10378000D01*
X1887619Y-10378000D02*
X1878095Y-10387524D01*
X1878095Y-10387524D02*
X1868571Y-10378000D01*
X1868571Y-10378000D02*
X1878095Y-10368476D01*
X1878095Y-10368476D02*
X1878095Y-10387524D01*
X2011428Y-10187524D02*
X2030476Y-10187524D01*
X2030476Y-10187524D02*
X2049524Y-10197048D01*
X2049524Y-10197048D02*
X2059048Y-10206571D01*
X2059048Y-10206571D02*
X2068571Y-10225619D01*
X2068571Y-10225619D02*
X2078095Y-10263714D01*
X2078095Y-10263714D02*
X2078095Y-10311333D01*
X2078095Y-10311333D02*
X2068571Y-10349429D01*
X2068571Y-10349429D02*
X2059048Y-10368476D01*
X2059048Y-10368476D02*
X2049524Y-10378000D01*
X2049524Y-10378000D02*
X2030476Y-10387524D01*
X2030476Y-10387524D02*
X2011428Y-10387524D01*
X2011428Y-10387524D02*
X1992381Y-10378000D01*
X1992381Y-10378000D02*
X1982857Y-10368476D01*
X1982857Y-10368476D02*
X1973333Y-10349429D01*
X1973333Y-10349429D02*
X1963809Y-10311333D01*
X1963809Y-10311333D02*
X1963809Y-10263714D01*
X1963809Y-10263714D02*
X1973333Y-10225619D01*
X1973333Y-10225619D02*
X1982857Y-10206571D01*
X1982857Y-10206571D02*
X1992381Y-10197048D01*
X1992381Y-10197048D02*
X2011428Y-10187524D01*
X2249524Y-10254190D02*
X2249524Y-10387524D01*
X2201905Y-10178000D02*
X2154286Y-10320857D01*
X2154286Y-10320857D02*
X2278095Y-10320857D01*
X2382857Y-10273238D02*
X2363810Y-10263714D01*
X2363810Y-10263714D02*
X2354286Y-10254190D01*
X2354286Y-10254190D02*
X2344762Y-10235143D01*
X2344762Y-10235143D02*
X2344762Y-10225619D01*
X2344762Y-10225619D02*
X2354286Y-10206571D01*
X2354286Y-10206571D02*
X2363810Y-10197048D01*
X2363810Y-10197048D02*
X2382857Y-10187524D01*
X2382857Y-10187524D02*
X2420952Y-10187524D01*
X2420952Y-10187524D02*
X2440000Y-10197048D01*
X2440000Y-10197048D02*
X2449524Y-10206571D01*
X2449524Y-10206571D02*
X2459048Y-10225619D01*
X2459048Y-10225619D02*
X2459048Y-10235143D01*
X2459048Y-10235143D02*
X2449524Y-10254190D01*
X2449524Y-10254190D02*
X2440000Y-10263714D01*
X2440000Y-10263714D02*
X2420952Y-10273238D01*
X2420952Y-10273238D02*
X2382857Y-10273238D01*
X2382857Y-10273238D02*
X2363810Y-10282762D01*
X2363810Y-10282762D02*
X2354286Y-10292286D01*
X2354286Y-10292286D02*
X2344762Y-10311333D01*
X2344762Y-10311333D02*
X2344762Y-10349429D01*
X2344762Y-10349429D02*
X2354286Y-10368476D01*
X2354286Y-10368476D02*
X2363810Y-10378000D01*
X2363810Y-10378000D02*
X2382857Y-10387524D01*
X2382857Y-10387524D02*
X2420952Y-10387524D01*
X2420952Y-10387524D02*
X2440000Y-10378000D01*
X2440000Y-10378000D02*
X2449524Y-10368476D01*
X2449524Y-10368476D02*
X2459048Y-10349429D01*
X2459048Y-10349429D02*
X2459048Y-10311333D01*
X2459048Y-10311333D02*
X2449524Y-10292286D01*
X2449524Y-10292286D02*
X2440000Y-10282762D01*
X2440000Y-10282762D02*
X2420952Y-10273238D01*
X2544762Y-10387524D02*
X2544762Y-10254190D01*
X2544762Y-10273238D02*
X2554286Y-10263714D01*
X2554286Y-10263714D02*
X2573333Y-10254190D01*
X2573333Y-10254190D02*
X2601905Y-10254190D01*
X2601905Y-10254190D02*
X2620952Y-10263714D01*
X2620952Y-10263714D02*
X2630476Y-10282762D01*
X2630476Y-10282762D02*
X2630476Y-10387524D01*
X2630476Y-10282762D02*
X2640000Y-10263714D01*
X2640000Y-10263714D02*
X2659048Y-10254190D01*
X2659048Y-10254190D02*
X2687619Y-10254190D01*
X2687619Y-10254190D02*
X2706667Y-10263714D01*
X2706667Y-10263714D02*
X2716191Y-10282762D01*
X2716191Y-10282762D02*
X2716191Y-10387524D01*
X2811429Y-10387524D02*
X2811429Y-10254190D01*
X2811429Y-10273238D02*
X2820952Y-10263714D01*
X2820952Y-10263714D02*
X2840000Y-10254190D01*
X2840000Y-10254190D02*
X2868571Y-10254190D01*
X2868571Y-10254190D02*
X2887619Y-10263714D01*
X2887619Y-10263714D02*
X2897143Y-10282762D01*
X2897143Y-10282762D02*
X2897143Y-10387524D01*
X2897143Y-10282762D02*
X2906667Y-10263714D01*
X2906667Y-10263714D02*
X2925714Y-10254190D01*
X2925714Y-10254190D02*
X2954286Y-10254190D01*
X2954286Y-10254190D02*
X2973333Y-10263714D01*
X2973333Y-10263714D02*
X2982857Y-10282762D01*
X2982857Y-10282762D02*
X2982857Y-10387524D01*
X3373333Y-10178000D02*
X3201905Y-10435143D01*
X3630476Y-10187524D02*
X3649524Y-10187524D01*
X3649524Y-10187524D02*
X3668572Y-10197048D01*
X3668572Y-10197048D02*
X3678095Y-10206571D01*
X3678095Y-10206571D02*
X3687619Y-10225619D01*
X3687619Y-10225619D02*
X3697143Y-10263714D01*
X3697143Y-10263714D02*
X3697143Y-10311333D01*
X3697143Y-10311333D02*
X3687619Y-10349429D01*
X3687619Y-10349429D02*
X3678095Y-10368476D01*
X3678095Y-10368476D02*
X3668572Y-10378000D01*
X3668572Y-10378000D02*
X3649524Y-10387524D01*
X3649524Y-10387524D02*
X3630476Y-10387524D01*
X3630476Y-10387524D02*
X3611429Y-10378000D01*
X3611429Y-10378000D02*
X3601905Y-10368476D01*
X3601905Y-10368476D02*
X3592381Y-10349429D01*
X3592381Y-10349429D02*
X3582857Y-10311333D01*
X3582857Y-10311333D02*
X3582857Y-10263714D01*
X3582857Y-10263714D02*
X3592381Y-10225619D01*
X3592381Y-10225619D02*
X3601905Y-10206571D01*
X3601905Y-10206571D02*
X3611429Y-10197048D01*
X3611429Y-10197048D02*
X3630476Y-10187524D01*
X3782857Y-10368476D02*
X3792381Y-10378000D01*
X3792381Y-10378000D02*
X3782857Y-10387524D01*
X3782857Y-10387524D02*
X3773333Y-10378000D01*
X3773333Y-10378000D02*
X3782857Y-10368476D01*
X3782857Y-10368476D02*
X3782857Y-10387524D01*
X3982857Y-10387524D02*
X3868572Y-10387524D01*
X3925714Y-10387524D02*
X3925714Y-10187524D01*
X3925714Y-10187524D02*
X3906667Y-10216095D01*
X3906667Y-10216095D02*
X3887619Y-10235143D01*
X3887619Y-10235143D02*
X3868572Y-10244667D01*
X4059048Y-10206571D02*
X4068572Y-10197048D01*
X4068572Y-10197048D02*
X4087619Y-10187524D01*
X4087619Y-10187524D02*
X4135238Y-10187524D01*
X4135238Y-10187524D02*
X4154286Y-10197048D01*
X4154286Y-10197048D02*
X4163810Y-10206571D01*
X4163810Y-10206571D02*
X4173333Y-10225619D01*
X4173333Y-10225619D02*
X4173333Y-10244667D01*
X4173333Y-10244667D02*
X4163810Y-10273238D01*
X4163810Y-10273238D02*
X4049524Y-10387524D01*
X4049524Y-10387524D02*
X4173333Y-10387524D01*
X4297143Y-10187524D02*
X4316191Y-10187524D01*
X4316191Y-10187524D02*
X4335238Y-10197048D01*
X4335238Y-10197048D02*
X4344762Y-10206571D01*
X4344762Y-10206571D02*
X4354286Y-10225619D01*
X4354286Y-10225619D02*
X4363810Y-10263714D01*
X4363810Y-10263714D02*
X4363810Y-10311333D01*
X4363810Y-10311333D02*
X4354286Y-10349429D01*
X4354286Y-10349429D02*
X4344762Y-10368476D01*
X4344762Y-10368476D02*
X4335238Y-10378000D01*
X4335238Y-10378000D02*
X4316191Y-10387524D01*
X4316191Y-10387524D02*
X4297143Y-10387524D01*
X4297143Y-10387524D02*
X4278095Y-10378000D01*
X4278095Y-10378000D02*
X4268572Y-10368476D01*
X4268572Y-10368476D02*
X4259048Y-10349429D01*
X4259048Y-10349429D02*
X4249524Y-10311333D01*
X4249524Y-10311333D02*
X4249524Y-10263714D01*
X4249524Y-10263714D02*
X4259048Y-10225619D01*
X4259048Y-10225619D02*
X4268572Y-10206571D01*
X4268572Y-10206571D02*
X4278095Y-10197048D01*
X4278095Y-10197048D02*
X4297143Y-10187524D01*
X4487619Y-10187524D02*
X4506667Y-10187524D01*
X4506667Y-10187524D02*
X4525715Y-10197048D01*
X4525715Y-10197048D02*
X4535238Y-10206571D01*
X4535238Y-10206571D02*
X4544762Y-10225619D01*
X4544762Y-10225619D02*
X4554286Y-10263714D01*
X4554286Y-10263714D02*
X4554286Y-10311333D01*
X4554286Y-10311333D02*
X4544762Y-10349429D01*
X4544762Y-10349429D02*
X4535238Y-10368476D01*
X4535238Y-10368476D02*
X4525715Y-10378000D01*
X4525715Y-10378000D02*
X4506667Y-10387524D01*
X4506667Y-10387524D02*
X4487619Y-10387524D01*
X4487619Y-10387524D02*
X4468572Y-10378000D01*
X4468572Y-10378000D02*
X4459048Y-10368476D01*
X4459048Y-10368476D02*
X4449524Y-10349429D01*
X4449524Y-10349429D02*
X4440000Y-10311333D01*
X4440000Y-10311333D02*
X4440000Y-10263714D01*
X4440000Y-10263714D02*
X4449524Y-10225619D01*
X4449524Y-10225619D02*
X4459048Y-10206571D01*
X4459048Y-10206571D02*
X4468572Y-10197048D01*
X4468572Y-10197048D02*
X4487619Y-10187524D01*
X4630476Y-10187524D02*
X4630476Y-10225619D01*
X4706667Y-10187524D02*
X4706667Y-10225619D01*
X5001905Y-10463714D02*
X4992381Y-10454190D01*
X4992381Y-10454190D02*
X4973334Y-10425619D01*
X4973334Y-10425619D02*
X4963810Y-10406571D01*
X4963810Y-10406571D02*
X4954286Y-10378000D01*
X4954286Y-10378000D02*
X4944762Y-10330381D01*
X4944762Y-10330381D02*
X4944762Y-10292286D01*
X4944762Y-10292286D02*
X4954286Y-10244667D01*
X4954286Y-10244667D02*
X4963810Y-10216095D01*
X4963810Y-10216095D02*
X4973334Y-10197048D01*
X4973334Y-10197048D02*
X4992381Y-10168476D01*
X4992381Y-10168476D02*
X5001905Y-10158952D01*
X5182857Y-10387524D02*
X5068572Y-10387524D01*
X5125715Y-10387524D02*
X5125715Y-10187524D01*
X5125715Y-10187524D02*
X5106667Y-10216095D01*
X5106667Y-10216095D02*
X5087619Y-10235143D01*
X5087619Y-10235143D02*
X5068572Y-10244667D01*
X5306667Y-10187524D02*
X5325715Y-10187524D01*
X5325715Y-10187524D02*
X5344762Y-10197048D01*
X5344762Y-10197048D02*
X5354286Y-10206571D01*
X5354286Y-10206571D02*
X5363810Y-10225619D01*
X5363810Y-10225619D02*
X5373334Y-10263714D01*
X5373334Y-10263714D02*
X5373334Y-10311333D01*
X5373334Y-10311333D02*
X5363810Y-10349429D01*
X5363810Y-10349429D02*
X5354286Y-10368476D01*
X5354286Y-10368476D02*
X5344762Y-10378000D01*
X5344762Y-10378000D02*
X5325715Y-10387524D01*
X5325715Y-10387524D02*
X5306667Y-10387524D01*
X5306667Y-10387524D02*
X5287619Y-10378000D01*
X5287619Y-10378000D02*
X5278096Y-10368476D01*
X5278096Y-10368476D02*
X5268572Y-10349429D01*
X5268572Y-10349429D02*
X5259048Y-10311333D01*
X5259048Y-10311333D02*
X5259048Y-10263714D01*
X5259048Y-10263714D02*
X5268572Y-10225619D01*
X5268572Y-10225619D02*
X5278096Y-10206571D01*
X5278096Y-10206571D02*
X5287619Y-10197048D01*
X5287619Y-10197048D02*
X5306667Y-10187524D01*
X5611429Y-10387524D02*
X5611429Y-10187524D01*
X5697143Y-10387524D02*
X5697143Y-10282762D01*
X5697143Y-10282762D02*
X5687619Y-10263714D01*
X5687619Y-10263714D02*
X5668572Y-10254190D01*
X5668572Y-10254190D02*
X5640000Y-10254190D01*
X5640000Y-10254190D02*
X5620953Y-10263714D01*
X5620953Y-10263714D02*
X5611429Y-10273238D01*
X5820953Y-10387524D02*
X5801905Y-10378000D01*
X5801905Y-10378000D02*
X5792381Y-10368476D01*
X5792381Y-10368476D02*
X5782857Y-10349429D01*
X5782857Y-10349429D02*
X5782857Y-10292286D01*
X5782857Y-10292286D02*
X5792381Y-10273238D01*
X5792381Y-10273238D02*
X5801905Y-10263714D01*
X5801905Y-10263714D02*
X5820953Y-10254190D01*
X5820953Y-10254190D02*
X5849524Y-10254190D01*
X5849524Y-10254190D02*
X5868572Y-10263714D01*
X5868572Y-10263714D02*
X5878096Y-10273238D01*
X5878096Y-10273238D02*
X5887619Y-10292286D01*
X5887619Y-10292286D02*
X5887619Y-10349429D01*
X5887619Y-10349429D02*
X5878096Y-10368476D01*
X5878096Y-10368476D02*
X5868572Y-10378000D01*
X5868572Y-10378000D02*
X5849524Y-10387524D01*
X5849524Y-10387524D02*
X5820953Y-10387524D01*
X6001905Y-10387524D02*
X5982857Y-10378000D01*
X5982857Y-10378000D02*
X5973334Y-10358952D01*
X5973334Y-10358952D02*
X5973334Y-10187524D01*
X6154286Y-10378000D02*
X6135238Y-10387524D01*
X6135238Y-10387524D02*
X6097143Y-10387524D01*
X6097143Y-10387524D02*
X6078096Y-10378000D01*
X6078096Y-10378000D02*
X6068572Y-10358952D01*
X6068572Y-10358952D02*
X6068572Y-10282762D01*
X6068572Y-10282762D02*
X6078096Y-10263714D01*
X6078096Y-10263714D02*
X6097143Y-10254190D01*
X6097143Y-10254190D02*
X6135238Y-10254190D01*
X6135238Y-10254190D02*
X6154286Y-10263714D01*
X6154286Y-10263714D02*
X6163810Y-10282762D01*
X6163810Y-10282762D02*
X6163810Y-10301810D01*
X6163810Y-10301810D02*
X6068572Y-10320857D01*
X6240000Y-10378000D02*
X6259048Y-10387524D01*
X6259048Y-10387524D02*
X6297143Y-10387524D01*
X6297143Y-10387524D02*
X6316191Y-10378000D01*
X6316191Y-10378000D02*
X6325715Y-10358952D01*
X6325715Y-10358952D02*
X6325715Y-10349429D01*
X6325715Y-10349429D02*
X6316191Y-10330381D01*
X6316191Y-10330381D02*
X6297143Y-10320857D01*
X6297143Y-10320857D02*
X6268572Y-10320857D01*
X6268572Y-10320857D02*
X6249524Y-10311333D01*
X6249524Y-10311333D02*
X6240000Y-10292286D01*
X6240000Y-10292286D02*
X6240000Y-10282762D01*
X6240000Y-10282762D02*
X6249524Y-10263714D01*
X6249524Y-10263714D02*
X6268572Y-10254190D01*
X6268572Y-10254190D02*
X6297143Y-10254190D01*
X6297143Y-10254190D02*
X6316191Y-10263714D01*
X6392381Y-10463714D02*
X6401905Y-10454190D01*
X6401905Y-10454190D02*
X6420953Y-10425619D01*
X6420953Y-10425619D02*
X6430477Y-10406571D01*
X6430477Y-10406571D02*
X6440000Y-10378000D01*
X6440000Y-10378000D02*
X6449524Y-10330381D01*
X6449524Y-10330381D02*
X6449524Y-10292286D01*
X6449524Y-10292286D02*
X6440000Y-10244667D01*
X6440000Y-10244667D02*
X6430477Y-10216095D01*
X6430477Y-10216095D02*
X6420953Y-10197048D01*
X6420953Y-10197048D02*
X6401905Y-10168476D01*
X6401905Y-10168476D02*
X6392381Y-10158952D01*
X6754286Y-10463714D02*
X6744762Y-10454190D01*
X6744762Y-10454190D02*
X6725715Y-10425619D01*
X6725715Y-10425619D02*
X6716191Y-10406571D01*
X6716191Y-10406571D02*
X6706667Y-10378000D01*
X6706667Y-10378000D02*
X6697143Y-10330381D01*
X6697143Y-10330381D02*
X6697143Y-10292286D01*
X6697143Y-10292286D02*
X6706667Y-10244667D01*
X6706667Y-10244667D02*
X6716191Y-10216095D01*
X6716191Y-10216095D02*
X6725715Y-10197048D01*
X6725715Y-10197048D02*
X6744762Y-10168476D01*
X6744762Y-10168476D02*
X6754286Y-10158952D01*
X6830477Y-10254190D02*
X6830477Y-10387524D01*
X6830477Y-10273238D02*
X6840000Y-10263714D01*
X6840000Y-10263714D02*
X6859048Y-10254190D01*
X6859048Y-10254190D02*
X6887619Y-10254190D01*
X6887619Y-10254190D02*
X6906667Y-10263714D01*
X6906667Y-10263714D02*
X6916191Y-10282762D01*
X6916191Y-10282762D02*
X6916191Y-10387524D01*
X7040000Y-10387524D02*
X7020953Y-10378000D01*
X7020953Y-10378000D02*
X7011429Y-10368476D01*
X7011429Y-10368476D02*
X7001905Y-10349429D01*
X7001905Y-10349429D02*
X7001905Y-10292286D01*
X7001905Y-10292286D02*
X7011429Y-10273238D01*
X7011429Y-10273238D02*
X7020953Y-10263714D01*
X7020953Y-10263714D02*
X7040000Y-10254190D01*
X7040000Y-10254190D02*
X7068572Y-10254190D01*
X7068572Y-10254190D02*
X7087619Y-10263714D01*
X7087619Y-10263714D02*
X7097143Y-10273238D01*
X7097143Y-10273238D02*
X7106667Y-10292286D01*
X7106667Y-10292286D02*
X7106667Y-10349429D01*
X7106667Y-10349429D02*
X7097143Y-10368476D01*
X7097143Y-10368476D02*
X7087619Y-10378000D01*
X7087619Y-10378000D02*
X7068572Y-10387524D01*
X7068572Y-10387524D02*
X7040000Y-10387524D01*
X7163810Y-10254190D02*
X7240000Y-10254190D01*
X7192381Y-10187524D02*
X7192381Y-10358952D01*
X7192381Y-10358952D02*
X7201905Y-10378000D01*
X7201905Y-10378000D02*
X7220953Y-10387524D01*
X7220953Y-10387524D02*
X7240000Y-10387524D01*
X7459048Y-10254190D02*
X7459048Y-10454190D01*
X7459048Y-10263714D02*
X7478096Y-10254190D01*
X7478096Y-10254190D02*
X7516191Y-10254190D01*
X7516191Y-10254190D02*
X7535239Y-10263714D01*
X7535239Y-10263714D02*
X7544762Y-10273238D01*
X7544762Y-10273238D02*
X7554286Y-10292286D01*
X7554286Y-10292286D02*
X7554286Y-10349429D01*
X7554286Y-10349429D02*
X7544762Y-10368476D01*
X7544762Y-10368476D02*
X7535239Y-10378000D01*
X7535239Y-10378000D02*
X7516191Y-10387524D01*
X7516191Y-10387524D02*
X7478096Y-10387524D01*
X7478096Y-10387524D02*
X7459048Y-10378000D01*
X7668572Y-10387524D02*
X7649524Y-10378000D01*
X7649524Y-10378000D02*
X7640000Y-10358952D01*
X7640000Y-10358952D02*
X7640000Y-10187524D01*
X7830477Y-10387524D02*
X7830477Y-10282762D01*
X7830477Y-10282762D02*
X7820953Y-10263714D01*
X7820953Y-10263714D02*
X7801905Y-10254190D01*
X7801905Y-10254190D02*
X7763810Y-10254190D01*
X7763810Y-10254190D02*
X7744762Y-10263714D01*
X7830477Y-10378000D02*
X7811429Y-10387524D01*
X7811429Y-10387524D02*
X7763810Y-10387524D01*
X7763810Y-10387524D02*
X7744762Y-10378000D01*
X7744762Y-10378000D02*
X7735239Y-10358952D01*
X7735239Y-10358952D02*
X7735239Y-10339905D01*
X7735239Y-10339905D02*
X7744762Y-10320857D01*
X7744762Y-10320857D02*
X7763810Y-10311333D01*
X7763810Y-10311333D02*
X7811429Y-10311333D01*
X7811429Y-10311333D02*
X7830477Y-10301810D01*
X7897143Y-10254190D02*
X7973334Y-10254190D01*
X7925715Y-10187524D02*
X7925715Y-10358952D01*
X7925715Y-10358952D02*
X7935239Y-10378000D01*
X7935239Y-10378000D02*
X7954286Y-10387524D01*
X7954286Y-10387524D02*
X7973334Y-10387524D01*
X8116191Y-10378000D02*
X8097143Y-10387524D01*
X8097143Y-10387524D02*
X8059048Y-10387524D01*
X8059048Y-10387524D02*
X8040000Y-10378000D01*
X8040000Y-10378000D02*
X8030477Y-10358952D01*
X8030477Y-10358952D02*
X8030477Y-10282762D01*
X8030477Y-10282762D02*
X8040000Y-10263714D01*
X8040000Y-10263714D02*
X8059048Y-10254190D01*
X8059048Y-10254190D02*
X8097143Y-10254190D01*
X8097143Y-10254190D02*
X8116191Y-10263714D01*
X8116191Y-10263714D02*
X8125715Y-10282762D01*
X8125715Y-10282762D02*
X8125715Y-10301810D01*
X8125715Y-10301810D02*
X8030477Y-10320857D01*
X8297143Y-10387524D02*
X8297143Y-10187524D01*
X8297143Y-10378000D02*
X8278096Y-10387524D01*
X8278096Y-10387524D02*
X8240000Y-10387524D01*
X8240000Y-10387524D02*
X8220953Y-10378000D01*
X8220953Y-10378000D02*
X8211429Y-10368476D01*
X8211429Y-10368476D02*
X8201905Y-10349429D01*
X8201905Y-10349429D02*
X8201905Y-10292286D01*
X8201905Y-10292286D02*
X8211429Y-10273238D01*
X8211429Y-10273238D02*
X8220953Y-10263714D01*
X8220953Y-10263714D02*
X8240000Y-10254190D01*
X8240000Y-10254190D02*
X8278096Y-10254190D01*
X8278096Y-10254190D02*
X8297143Y-10263714D01*
X8373334Y-10463714D02*
X8382858Y-10454190D01*
X8382858Y-10454190D02*
X8401905Y-10425619D01*
X8401905Y-10425619D02*
X8411429Y-10406571D01*
X8411429Y-10406571D02*
X8420953Y-10378000D01*
X8420953Y-10378000D02*
X8430477Y-10330381D01*
X8430477Y-10330381D02*
X8430477Y-10292286D01*
X8430477Y-10292286D02*
X8420953Y-10244667D01*
X8420953Y-10244667D02*
X8411429Y-10216095D01*
X8411429Y-10216095D02*
X8401905Y-10197048D01*
X8401905Y-10197048D02*
X8382858Y-10168476D01*
X8382858Y-10168476D02*
X8373334Y-10158952D01*
X1340000Y-10515000D02*
X1340000Y-10715000D01*
X1240000Y-10615000D02*
X1440000Y-10615000D01*
X1668571Y-10507524D02*
X1792381Y-10507524D01*
X1792381Y-10507524D02*
X1725714Y-10583714D01*
X1725714Y-10583714D02*
X1754286Y-10583714D01*
X1754286Y-10583714D02*
X1773333Y-10593238D01*
X1773333Y-10593238D02*
X1782857Y-10602762D01*
X1782857Y-10602762D02*
X1792381Y-10621810D01*
X1792381Y-10621810D02*
X1792381Y-10669429D01*
X1792381Y-10669429D02*
X1782857Y-10688476D01*
X1782857Y-10688476D02*
X1773333Y-10698000D01*
X1773333Y-10698000D02*
X1754286Y-10707524D01*
X1754286Y-10707524D02*
X1697143Y-10707524D01*
X1697143Y-10707524D02*
X1678095Y-10698000D01*
X1678095Y-10698000D02*
X1668571Y-10688476D01*
X1878095Y-10688476D02*
X1887619Y-10698000D01*
X1887619Y-10698000D02*
X1878095Y-10707524D01*
X1878095Y-10707524D02*
X1868571Y-10698000D01*
X1868571Y-10698000D02*
X1878095Y-10688476D01*
X1878095Y-10688476D02*
X1878095Y-10707524D01*
X1982857Y-10707524D02*
X2020952Y-10707524D01*
X2020952Y-10707524D02*
X2040000Y-10698000D01*
X2040000Y-10698000D02*
X2049524Y-10688476D01*
X2049524Y-10688476D02*
X2068571Y-10659905D01*
X2068571Y-10659905D02*
X2078095Y-10621810D01*
X2078095Y-10621810D02*
X2078095Y-10545619D01*
X2078095Y-10545619D02*
X2068571Y-10526571D01*
X2068571Y-10526571D02*
X2059048Y-10517048D01*
X2059048Y-10517048D02*
X2040000Y-10507524D01*
X2040000Y-10507524D02*
X2001905Y-10507524D01*
X2001905Y-10507524D02*
X1982857Y-10517048D01*
X1982857Y-10517048D02*
X1973333Y-10526571D01*
X1973333Y-10526571D02*
X1963809Y-10545619D01*
X1963809Y-10545619D02*
X1963809Y-10593238D01*
X1963809Y-10593238D02*
X1973333Y-10612286D01*
X1973333Y-10612286D02*
X1982857Y-10621810D01*
X1982857Y-10621810D02*
X2001905Y-10631333D01*
X2001905Y-10631333D02*
X2040000Y-10631333D01*
X2040000Y-10631333D02*
X2059048Y-10621810D01*
X2059048Y-10621810D02*
X2068571Y-10612286D01*
X2068571Y-10612286D02*
X2078095Y-10593238D01*
X2192381Y-10593238D02*
X2173333Y-10583714D01*
X2173333Y-10583714D02*
X2163810Y-10574190D01*
X2163810Y-10574190D02*
X2154286Y-10555143D01*
X2154286Y-10555143D02*
X2154286Y-10545619D01*
X2154286Y-10545619D02*
X2163810Y-10526571D01*
X2163810Y-10526571D02*
X2173333Y-10517048D01*
X2173333Y-10517048D02*
X2192381Y-10507524D01*
X2192381Y-10507524D02*
X2230476Y-10507524D01*
X2230476Y-10507524D02*
X2249524Y-10517048D01*
X2249524Y-10517048D02*
X2259048Y-10526571D01*
X2259048Y-10526571D02*
X2268571Y-10545619D01*
X2268571Y-10545619D02*
X2268571Y-10555143D01*
X2268571Y-10555143D02*
X2259048Y-10574190D01*
X2259048Y-10574190D02*
X2249524Y-10583714D01*
X2249524Y-10583714D02*
X2230476Y-10593238D01*
X2230476Y-10593238D02*
X2192381Y-10593238D01*
X2192381Y-10593238D02*
X2173333Y-10602762D01*
X2173333Y-10602762D02*
X2163810Y-10612286D01*
X2163810Y-10612286D02*
X2154286Y-10631333D01*
X2154286Y-10631333D02*
X2154286Y-10669429D01*
X2154286Y-10669429D02*
X2163810Y-10688476D01*
X2163810Y-10688476D02*
X2173333Y-10698000D01*
X2173333Y-10698000D02*
X2192381Y-10707524D01*
X2192381Y-10707524D02*
X2230476Y-10707524D01*
X2230476Y-10707524D02*
X2249524Y-10698000D01*
X2249524Y-10698000D02*
X2259048Y-10688476D01*
X2259048Y-10688476D02*
X2268571Y-10669429D01*
X2268571Y-10669429D02*
X2268571Y-10631333D01*
X2268571Y-10631333D02*
X2259048Y-10612286D01*
X2259048Y-10612286D02*
X2249524Y-10602762D01*
X2249524Y-10602762D02*
X2230476Y-10593238D01*
X2382857Y-10593238D02*
X2363810Y-10583714D01*
X2363810Y-10583714D02*
X2354286Y-10574190D01*
X2354286Y-10574190D02*
X2344762Y-10555143D01*
X2344762Y-10555143D02*
X2344762Y-10545619D01*
X2344762Y-10545619D02*
X2354286Y-10526571D01*
X2354286Y-10526571D02*
X2363810Y-10517048D01*
X2363810Y-10517048D02*
X2382857Y-10507524D01*
X2382857Y-10507524D02*
X2420952Y-10507524D01*
X2420952Y-10507524D02*
X2440000Y-10517048D01*
X2440000Y-10517048D02*
X2449524Y-10526571D01*
X2449524Y-10526571D02*
X2459048Y-10545619D01*
X2459048Y-10545619D02*
X2459048Y-10555143D01*
X2459048Y-10555143D02*
X2449524Y-10574190D01*
X2449524Y-10574190D02*
X2440000Y-10583714D01*
X2440000Y-10583714D02*
X2420952Y-10593238D01*
X2420952Y-10593238D02*
X2382857Y-10593238D01*
X2382857Y-10593238D02*
X2363810Y-10602762D01*
X2363810Y-10602762D02*
X2354286Y-10612286D01*
X2354286Y-10612286D02*
X2344762Y-10631333D01*
X2344762Y-10631333D02*
X2344762Y-10669429D01*
X2344762Y-10669429D02*
X2354286Y-10688476D01*
X2354286Y-10688476D02*
X2363810Y-10698000D01*
X2363810Y-10698000D02*
X2382857Y-10707524D01*
X2382857Y-10707524D02*
X2420952Y-10707524D01*
X2420952Y-10707524D02*
X2440000Y-10698000D01*
X2440000Y-10698000D02*
X2449524Y-10688476D01*
X2449524Y-10688476D02*
X2459048Y-10669429D01*
X2459048Y-10669429D02*
X2459048Y-10631333D01*
X2459048Y-10631333D02*
X2449524Y-10612286D01*
X2449524Y-10612286D02*
X2440000Y-10602762D01*
X2440000Y-10602762D02*
X2420952Y-10593238D01*
X2544762Y-10707524D02*
X2544762Y-10574190D01*
X2544762Y-10593238D02*
X2554286Y-10583714D01*
X2554286Y-10583714D02*
X2573333Y-10574190D01*
X2573333Y-10574190D02*
X2601905Y-10574190D01*
X2601905Y-10574190D02*
X2620952Y-10583714D01*
X2620952Y-10583714D02*
X2630476Y-10602762D01*
X2630476Y-10602762D02*
X2630476Y-10707524D01*
X2630476Y-10602762D02*
X2640000Y-10583714D01*
X2640000Y-10583714D02*
X2659048Y-10574190D01*
X2659048Y-10574190D02*
X2687619Y-10574190D01*
X2687619Y-10574190D02*
X2706667Y-10583714D01*
X2706667Y-10583714D02*
X2716191Y-10602762D01*
X2716191Y-10602762D02*
X2716191Y-10707524D01*
X2811429Y-10707524D02*
X2811429Y-10574190D01*
X2811429Y-10593238D02*
X2820952Y-10583714D01*
X2820952Y-10583714D02*
X2840000Y-10574190D01*
X2840000Y-10574190D02*
X2868571Y-10574190D01*
X2868571Y-10574190D02*
X2887619Y-10583714D01*
X2887619Y-10583714D02*
X2897143Y-10602762D01*
X2897143Y-10602762D02*
X2897143Y-10707524D01*
X2897143Y-10602762D02*
X2906667Y-10583714D01*
X2906667Y-10583714D02*
X2925714Y-10574190D01*
X2925714Y-10574190D02*
X2954286Y-10574190D01*
X2954286Y-10574190D02*
X2973333Y-10583714D01*
X2973333Y-10583714D02*
X2982857Y-10602762D01*
X2982857Y-10602762D02*
X2982857Y-10707524D01*
X3373333Y-10498000D02*
X3201905Y-10755143D01*
X3630476Y-10507524D02*
X3649524Y-10507524D01*
X3649524Y-10507524D02*
X3668572Y-10517048D01*
X3668572Y-10517048D02*
X3678095Y-10526571D01*
X3678095Y-10526571D02*
X3687619Y-10545619D01*
X3687619Y-10545619D02*
X3697143Y-10583714D01*
X3697143Y-10583714D02*
X3697143Y-10631333D01*
X3697143Y-10631333D02*
X3687619Y-10669429D01*
X3687619Y-10669429D02*
X3678095Y-10688476D01*
X3678095Y-10688476D02*
X3668572Y-10698000D01*
X3668572Y-10698000D02*
X3649524Y-10707524D01*
X3649524Y-10707524D02*
X3630476Y-10707524D01*
X3630476Y-10707524D02*
X3611429Y-10698000D01*
X3611429Y-10698000D02*
X3601905Y-10688476D01*
X3601905Y-10688476D02*
X3592381Y-10669429D01*
X3592381Y-10669429D02*
X3582857Y-10631333D01*
X3582857Y-10631333D02*
X3582857Y-10583714D01*
X3582857Y-10583714D02*
X3592381Y-10545619D01*
X3592381Y-10545619D02*
X3601905Y-10526571D01*
X3601905Y-10526571D02*
X3611429Y-10517048D01*
X3611429Y-10517048D02*
X3630476Y-10507524D01*
X3782857Y-10688476D02*
X3792381Y-10698000D01*
X3792381Y-10698000D02*
X3782857Y-10707524D01*
X3782857Y-10707524D02*
X3773333Y-10698000D01*
X3773333Y-10698000D02*
X3782857Y-10688476D01*
X3782857Y-10688476D02*
X3782857Y-10707524D01*
X3982857Y-10707524D02*
X3868572Y-10707524D01*
X3925714Y-10707524D02*
X3925714Y-10507524D01*
X3925714Y-10507524D02*
X3906667Y-10536095D01*
X3906667Y-10536095D02*
X3887619Y-10555143D01*
X3887619Y-10555143D02*
X3868572Y-10564667D01*
X4163810Y-10507524D02*
X4068572Y-10507524D01*
X4068572Y-10507524D02*
X4059048Y-10602762D01*
X4059048Y-10602762D02*
X4068572Y-10593238D01*
X4068572Y-10593238D02*
X4087619Y-10583714D01*
X4087619Y-10583714D02*
X4135238Y-10583714D01*
X4135238Y-10583714D02*
X4154286Y-10593238D01*
X4154286Y-10593238D02*
X4163810Y-10602762D01*
X4163810Y-10602762D02*
X4173333Y-10621810D01*
X4173333Y-10621810D02*
X4173333Y-10669429D01*
X4173333Y-10669429D02*
X4163810Y-10688476D01*
X4163810Y-10688476D02*
X4154286Y-10698000D01*
X4154286Y-10698000D02*
X4135238Y-10707524D01*
X4135238Y-10707524D02*
X4087619Y-10707524D01*
X4087619Y-10707524D02*
X4068572Y-10698000D01*
X4068572Y-10698000D02*
X4059048Y-10688476D01*
X4240000Y-10507524D02*
X4373334Y-10507524D01*
X4373334Y-10507524D02*
X4287619Y-10707524D01*
X4487619Y-10507524D02*
X4506667Y-10507524D01*
X4506667Y-10507524D02*
X4525715Y-10517048D01*
X4525715Y-10517048D02*
X4535238Y-10526571D01*
X4535238Y-10526571D02*
X4544762Y-10545619D01*
X4544762Y-10545619D02*
X4554286Y-10583714D01*
X4554286Y-10583714D02*
X4554286Y-10631333D01*
X4554286Y-10631333D02*
X4544762Y-10669429D01*
X4544762Y-10669429D02*
X4535238Y-10688476D01*
X4535238Y-10688476D02*
X4525715Y-10698000D01*
X4525715Y-10698000D02*
X4506667Y-10707524D01*
X4506667Y-10707524D02*
X4487619Y-10707524D01*
X4487619Y-10707524D02*
X4468572Y-10698000D01*
X4468572Y-10698000D02*
X4459048Y-10688476D01*
X4459048Y-10688476D02*
X4449524Y-10669429D01*
X4449524Y-10669429D02*
X4440000Y-10631333D01*
X4440000Y-10631333D02*
X4440000Y-10583714D01*
X4440000Y-10583714D02*
X4449524Y-10545619D01*
X4449524Y-10545619D02*
X4459048Y-10526571D01*
X4459048Y-10526571D02*
X4468572Y-10517048D01*
X4468572Y-10517048D02*
X4487619Y-10507524D01*
X4630476Y-10507524D02*
X4630476Y-10545619D01*
X4706667Y-10507524D02*
X4706667Y-10545619D01*
X5001905Y-10783714D02*
X4992381Y-10774190D01*
X4992381Y-10774190D02*
X4973334Y-10745619D01*
X4973334Y-10745619D02*
X4963810Y-10726571D01*
X4963810Y-10726571D02*
X4954286Y-10698000D01*
X4954286Y-10698000D02*
X4944762Y-10650381D01*
X4944762Y-10650381D02*
X4944762Y-10612286D01*
X4944762Y-10612286D02*
X4954286Y-10564667D01*
X4954286Y-10564667D02*
X4963810Y-10536095D01*
X4963810Y-10536095D02*
X4973334Y-10517048D01*
X4973334Y-10517048D02*
X4992381Y-10488476D01*
X4992381Y-10488476D02*
X5001905Y-10478952D01*
X5059048Y-10507524D02*
X5192381Y-10507524D01*
X5192381Y-10507524D02*
X5106667Y-10707524D01*
X5249524Y-10507524D02*
X5382857Y-10507524D01*
X5382857Y-10507524D02*
X5297143Y-10707524D01*
X5611429Y-10707524D02*
X5611429Y-10507524D01*
X5697143Y-10707524D02*
X5697143Y-10602762D01*
X5697143Y-10602762D02*
X5687619Y-10583714D01*
X5687619Y-10583714D02*
X5668572Y-10574190D01*
X5668572Y-10574190D02*
X5640000Y-10574190D01*
X5640000Y-10574190D02*
X5620953Y-10583714D01*
X5620953Y-10583714D02*
X5611429Y-10593238D01*
X5820953Y-10707524D02*
X5801905Y-10698000D01*
X5801905Y-10698000D02*
X5792381Y-10688476D01*
X5792381Y-10688476D02*
X5782857Y-10669429D01*
X5782857Y-10669429D02*
X5782857Y-10612286D01*
X5782857Y-10612286D02*
X5792381Y-10593238D01*
X5792381Y-10593238D02*
X5801905Y-10583714D01*
X5801905Y-10583714D02*
X5820953Y-10574190D01*
X5820953Y-10574190D02*
X5849524Y-10574190D01*
X5849524Y-10574190D02*
X5868572Y-10583714D01*
X5868572Y-10583714D02*
X5878096Y-10593238D01*
X5878096Y-10593238D02*
X5887619Y-10612286D01*
X5887619Y-10612286D02*
X5887619Y-10669429D01*
X5887619Y-10669429D02*
X5878096Y-10688476D01*
X5878096Y-10688476D02*
X5868572Y-10698000D01*
X5868572Y-10698000D02*
X5849524Y-10707524D01*
X5849524Y-10707524D02*
X5820953Y-10707524D01*
X6001905Y-10707524D02*
X5982857Y-10698000D01*
X5982857Y-10698000D02*
X5973334Y-10678952D01*
X5973334Y-10678952D02*
X5973334Y-10507524D01*
X6154286Y-10698000D02*
X6135238Y-10707524D01*
X6135238Y-10707524D02*
X6097143Y-10707524D01*
X6097143Y-10707524D02*
X6078096Y-10698000D01*
X6078096Y-10698000D02*
X6068572Y-10678952D01*
X6068572Y-10678952D02*
X6068572Y-10602762D01*
X6068572Y-10602762D02*
X6078096Y-10583714D01*
X6078096Y-10583714D02*
X6097143Y-10574190D01*
X6097143Y-10574190D02*
X6135238Y-10574190D01*
X6135238Y-10574190D02*
X6154286Y-10583714D01*
X6154286Y-10583714D02*
X6163810Y-10602762D01*
X6163810Y-10602762D02*
X6163810Y-10621810D01*
X6163810Y-10621810D02*
X6068572Y-10640857D01*
X6240000Y-10698000D02*
X6259048Y-10707524D01*
X6259048Y-10707524D02*
X6297143Y-10707524D01*
X6297143Y-10707524D02*
X6316191Y-10698000D01*
X6316191Y-10698000D02*
X6325715Y-10678952D01*
X6325715Y-10678952D02*
X6325715Y-10669429D01*
X6325715Y-10669429D02*
X6316191Y-10650381D01*
X6316191Y-10650381D02*
X6297143Y-10640857D01*
X6297143Y-10640857D02*
X6268572Y-10640857D01*
X6268572Y-10640857D02*
X6249524Y-10631333D01*
X6249524Y-10631333D02*
X6240000Y-10612286D01*
X6240000Y-10612286D02*
X6240000Y-10602762D01*
X6240000Y-10602762D02*
X6249524Y-10583714D01*
X6249524Y-10583714D02*
X6268572Y-10574190D01*
X6268572Y-10574190D02*
X6297143Y-10574190D01*
X6297143Y-10574190D02*
X6316191Y-10583714D01*
X6392381Y-10783714D02*
X6401905Y-10774190D01*
X6401905Y-10774190D02*
X6420953Y-10745619D01*
X6420953Y-10745619D02*
X6430477Y-10726571D01*
X6430477Y-10726571D02*
X6440000Y-10698000D01*
X6440000Y-10698000D02*
X6449524Y-10650381D01*
X6449524Y-10650381D02*
X6449524Y-10612286D01*
X6449524Y-10612286D02*
X6440000Y-10564667D01*
X6440000Y-10564667D02*
X6430477Y-10536095D01*
X6430477Y-10536095D02*
X6420953Y-10517048D01*
X6420953Y-10517048D02*
X6401905Y-10488476D01*
X6401905Y-10488476D02*
X6392381Y-10478952D01*
X6754286Y-10783714D02*
X6744762Y-10774190D01*
X6744762Y-10774190D02*
X6725715Y-10745619D01*
X6725715Y-10745619D02*
X6716191Y-10726571D01*
X6716191Y-10726571D02*
X6706667Y-10698000D01*
X6706667Y-10698000D02*
X6697143Y-10650381D01*
X6697143Y-10650381D02*
X6697143Y-10612286D01*
X6697143Y-10612286D02*
X6706667Y-10564667D01*
X6706667Y-10564667D02*
X6716191Y-10536095D01*
X6716191Y-10536095D02*
X6725715Y-10517048D01*
X6725715Y-10517048D02*
X6744762Y-10488476D01*
X6744762Y-10488476D02*
X6754286Y-10478952D01*
X6830477Y-10574190D02*
X6830477Y-10707524D01*
X6830477Y-10593238D02*
X6840000Y-10583714D01*
X6840000Y-10583714D02*
X6859048Y-10574190D01*
X6859048Y-10574190D02*
X6887619Y-10574190D01*
X6887619Y-10574190D02*
X6906667Y-10583714D01*
X6906667Y-10583714D02*
X6916191Y-10602762D01*
X6916191Y-10602762D02*
X6916191Y-10707524D01*
X7040000Y-10707524D02*
X7020953Y-10698000D01*
X7020953Y-10698000D02*
X7011429Y-10688476D01*
X7011429Y-10688476D02*
X7001905Y-10669429D01*
X7001905Y-10669429D02*
X7001905Y-10612286D01*
X7001905Y-10612286D02*
X7011429Y-10593238D01*
X7011429Y-10593238D02*
X7020953Y-10583714D01*
X7020953Y-10583714D02*
X7040000Y-10574190D01*
X7040000Y-10574190D02*
X7068572Y-10574190D01*
X7068572Y-10574190D02*
X7087619Y-10583714D01*
X7087619Y-10583714D02*
X7097143Y-10593238D01*
X7097143Y-10593238D02*
X7106667Y-10612286D01*
X7106667Y-10612286D02*
X7106667Y-10669429D01*
X7106667Y-10669429D02*
X7097143Y-10688476D01*
X7097143Y-10688476D02*
X7087619Y-10698000D01*
X7087619Y-10698000D02*
X7068572Y-10707524D01*
X7068572Y-10707524D02*
X7040000Y-10707524D01*
X7163810Y-10574190D02*
X7240000Y-10574190D01*
X7192381Y-10507524D02*
X7192381Y-10678952D01*
X7192381Y-10678952D02*
X7201905Y-10698000D01*
X7201905Y-10698000D02*
X7220953Y-10707524D01*
X7220953Y-10707524D02*
X7240000Y-10707524D01*
X7459048Y-10574190D02*
X7459048Y-10774190D01*
X7459048Y-10583714D02*
X7478096Y-10574190D01*
X7478096Y-10574190D02*
X7516191Y-10574190D01*
X7516191Y-10574190D02*
X7535239Y-10583714D01*
X7535239Y-10583714D02*
X7544762Y-10593238D01*
X7544762Y-10593238D02*
X7554286Y-10612286D01*
X7554286Y-10612286D02*
X7554286Y-10669429D01*
X7554286Y-10669429D02*
X7544762Y-10688476D01*
X7544762Y-10688476D02*
X7535239Y-10698000D01*
X7535239Y-10698000D02*
X7516191Y-10707524D01*
X7516191Y-10707524D02*
X7478096Y-10707524D01*
X7478096Y-10707524D02*
X7459048Y-10698000D01*
X7668572Y-10707524D02*
X7649524Y-10698000D01*
X7649524Y-10698000D02*
X7640000Y-10678952D01*
X7640000Y-10678952D02*
X7640000Y-10507524D01*
X7830477Y-10707524D02*
X7830477Y-10602762D01*
X7830477Y-10602762D02*
X7820953Y-10583714D01*
X7820953Y-10583714D02*
X7801905Y-10574190D01*
X7801905Y-10574190D02*
X7763810Y-10574190D01*
X7763810Y-10574190D02*
X7744762Y-10583714D01*
X7830477Y-10698000D02*
X7811429Y-10707524D01*
X7811429Y-10707524D02*
X7763810Y-10707524D01*
X7763810Y-10707524D02*
X7744762Y-10698000D01*
X7744762Y-10698000D02*
X7735239Y-10678952D01*
X7735239Y-10678952D02*
X7735239Y-10659905D01*
X7735239Y-10659905D02*
X7744762Y-10640857D01*
X7744762Y-10640857D02*
X7763810Y-10631333D01*
X7763810Y-10631333D02*
X7811429Y-10631333D01*
X7811429Y-10631333D02*
X7830477Y-10621810D01*
X7897143Y-10574190D02*
X7973334Y-10574190D01*
X7925715Y-10507524D02*
X7925715Y-10678952D01*
X7925715Y-10678952D02*
X7935239Y-10698000D01*
X7935239Y-10698000D02*
X7954286Y-10707524D01*
X7954286Y-10707524D02*
X7973334Y-10707524D01*
X8116191Y-10698000D02*
X8097143Y-10707524D01*
X8097143Y-10707524D02*
X8059048Y-10707524D01*
X8059048Y-10707524D02*
X8040000Y-10698000D01*
X8040000Y-10698000D02*
X8030477Y-10678952D01*
X8030477Y-10678952D02*
X8030477Y-10602762D01*
X8030477Y-10602762D02*
X8040000Y-10583714D01*
X8040000Y-10583714D02*
X8059048Y-10574190D01*
X8059048Y-10574190D02*
X8097143Y-10574190D01*
X8097143Y-10574190D02*
X8116191Y-10583714D01*
X8116191Y-10583714D02*
X8125715Y-10602762D01*
X8125715Y-10602762D02*
X8125715Y-10621810D01*
X8125715Y-10621810D02*
X8030477Y-10640857D01*
X8297143Y-10707524D02*
X8297143Y-10507524D01*
X8297143Y-10698000D02*
X8278096Y-10707524D01*
X8278096Y-10707524D02*
X8240000Y-10707524D01*
X8240000Y-10707524D02*
X8220953Y-10698000D01*
X8220953Y-10698000D02*
X8211429Y-10688476D01*
X8211429Y-10688476D02*
X8201905Y-10669429D01*
X8201905Y-10669429D02*
X8201905Y-10612286D01*
X8201905Y-10612286D02*
X8211429Y-10593238D01*
X8211429Y-10593238D02*
X8220953Y-10583714D01*
X8220953Y-10583714D02*
X8240000Y-10574190D01*
X8240000Y-10574190D02*
X8278096Y-10574190D01*
X8278096Y-10574190D02*
X8297143Y-10583714D01*
X8373334Y-10783714D02*
X8382858Y-10774190D01*
X8382858Y-10774190D02*
X8401905Y-10745619D01*
X8401905Y-10745619D02*
X8411429Y-10726571D01*
X8411429Y-10726571D02*
X8420953Y-10698000D01*
X8420953Y-10698000D02*
X8430477Y-10650381D01*
X8430477Y-10650381D02*
X8430477Y-10612286D01*
X8430477Y-10612286D02*
X8420953Y-10564667D01*
X8420953Y-10564667D02*
X8411429Y-10536095D01*
X8411429Y-10536095D02*
X8401905Y-10517048D01*
X8401905Y-10517048D02*
X8382858Y-10488476D01*
X8382858Y-10488476D02*
X8373334Y-10478952D01*
M02*
