G04 #@! TF.GenerationSoftware,KiCad,Pcbnew,7.0.1*
G04 #@! TF.CreationDate,2023-04-12T10:33:03-04:00*
G04 #@! TF.ProjectId,kastenwagen-1840-chunky,6b617374-656e-4776-9167-656e2d313834,rev?*
G04 #@! TF.SameCoordinates,Original*
G04 #@! TF.FileFunction,Legend,Top*
G04 #@! TF.FilePolarity,Positive*
%FSLAX46Y46*%
G04 Gerber Fmt 4.6, Leading zero omitted, Abs format (unit mm)*
G04 Created by KiCad (PCBNEW 7.0.1) date 2023-04-12 10:33:03*
%MOMM*%
%LPD*%
G01*
G04 APERTURE LIST*
G04 Aperture macros list*
%AMRoundRect*
0 Rectangle with rounded corners*
0 $1 Rounding radius*
0 $2 $3 $4 $5 $6 $7 $8 $9 X,Y pos of 4 corners*
0 Add a 4 corners polygon primitive as box body*
4,1,4,$2,$3,$4,$5,$6,$7,$8,$9,$2,$3,0*
0 Add four circle primitives for the rounded corners*
1,1,$1+$1,$2,$3*
1,1,$1+$1,$4,$5*
1,1,$1+$1,$6,$7*
1,1,$1+$1,$8,$9*
0 Add four rect primitives between the rounded corners*
20,1,$1+$1,$2,$3,$4,$5,0*
20,1,$1+$1,$4,$5,$6,$7,0*
20,1,$1+$1,$6,$7,$8,$9,0*
20,1,$1+$1,$8,$9,$2,$3,0*%
G04 Aperture macros list end*
%ADD10C,0.150000*%
%ADD11C,0.120000*%
%ADD12C,0.381000*%
%ADD13R,1.752600X1.752600*%
%ADD14C,1.752600*%
%ADD15RoundRect,0.250001X0.462499X0.624999X-0.462499X0.624999X-0.462499X-0.624999X0.462499X-0.624999X0*%
%ADD16C,1.750000*%
%ADD17C,3.987800*%
%ADD18C,3.048000*%
%ADD19R,2.000000X2.000000*%
%ADD20C,2.000000*%
G04 APERTURE END LIST*
D10*
X280619048Y-36995952D02*
X281380953Y-37281666D01*
X281380953Y-37281666D02*
X280619048Y-37567380D01*
X280669048Y-18065952D02*
X281430953Y-18351666D01*
X281430953Y-18351666D02*
X280669048Y-18637380D01*
X229631845Y-88536369D02*
X229631845Y-87536369D01*
X230203273Y-88536369D02*
X229774702Y-87964940D01*
X230203273Y-87536369D02*
X229631845Y-88107797D01*
X231060416Y-88536369D02*
X231060416Y-88012559D01*
X231060416Y-88012559D02*
X231012797Y-87917321D01*
X231012797Y-87917321D02*
X230917559Y-87869702D01*
X230917559Y-87869702D02*
X230727083Y-87869702D01*
X230727083Y-87869702D02*
X230631845Y-87917321D01*
X231060416Y-88488750D02*
X230965178Y-88536369D01*
X230965178Y-88536369D02*
X230727083Y-88536369D01*
X230727083Y-88536369D02*
X230631845Y-88488750D01*
X230631845Y-88488750D02*
X230584226Y-88393511D01*
X230584226Y-88393511D02*
X230584226Y-88298273D01*
X230584226Y-88298273D02*
X230631845Y-88203035D01*
X230631845Y-88203035D02*
X230727083Y-88155416D01*
X230727083Y-88155416D02*
X230965178Y-88155416D01*
X230965178Y-88155416D02*
X231060416Y-88107797D01*
X231488988Y-88488750D02*
X231584226Y-88536369D01*
X231584226Y-88536369D02*
X231774702Y-88536369D01*
X231774702Y-88536369D02*
X231869940Y-88488750D01*
X231869940Y-88488750D02*
X231917559Y-88393511D01*
X231917559Y-88393511D02*
X231917559Y-88345892D01*
X231917559Y-88345892D02*
X231869940Y-88250654D01*
X231869940Y-88250654D02*
X231774702Y-88203035D01*
X231774702Y-88203035D02*
X231631845Y-88203035D01*
X231631845Y-88203035D02*
X231536607Y-88155416D01*
X231536607Y-88155416D02*
X231488988Y-88060178D01*
X231488988Y-88060178D02*
X231488988Y-88012559D01*
X231488988Y-88012559D02*
X231536607Y-87917321D01*
X231536607Y-87917321D02*
X231631845Y-87869702D01*
X231631845Y-87869702D02*
X231774702Y-87869702D01*
X231774702Y-87869702D02*
X231869940Y-87917321D01*
X232203274Y-87869702D02*
X232584226Y-87869702D01*
X232346131Y-87536369D02*
X232346131Y-88393511D01*
X232346131Y-88393511D02*
X232393750Y-88488750D01*
X232393750Y-88488750D02*
X232488988Y-88536369D01*
X232488988Y-88536369D02*
X232584226Y-88536369D01*
X233298512Y-88488750D02*
X233203274Y-88536369D01*
X233203274Y-88536369D02*
X233012798Y-88536369D01*
X233012798Y-88536369D02*
X232917560Y-88488750D01*
X232917560Y-88488750D02*
X232869941Y-88393511D01*
X232869941Y-88393511D02*
X232869941Y-88012559D01*
X232869941Y-88012559D02*
X232917560Y-87917321D01*
X232917560Y-87917321D02*
X233012798Y-87869702D01*
X233012798Y-87869702D02*
X233203274Y-87869702D01*
X233203274Y-87869702D02*
X233298512Y-87917321D01*
X233298512Y-87917321D02*
X233346131Y-88012559D01*
X233346131Y-88012559D02*
X233346131Y-88107797D01*
X233346131Y-88107797D02*
X232869941Y-88203035D01*
X233774703Y-87869702D02*
X233774703Y-88536369D01*
X233774703Y-87964940D02*
X233822322Y-87917321D01*
X233822322Y-87917321D02*
X233917560Y-87869702D01*
X233917560Y-87869702D02*
X234060417Y-87869702D01*
X234060417Y-87869702D02*
X234155655Y-87917321D01*
X234155655Y-87917321D02*
X234203274Y-88012559D01*
X234203274Y-88012559D02*
X234203274Y-88536369D01*
X234584227Y-87869702D02*
X234774703Y-88536369D01*
X234774703Y-88536369D02*
X234965179Y-88060178D01*
X234965179Y-88060178D02*
X235155655Y-88536369D01*
X235155655Y-88536369D02*
X235346131Y-87869702D01*
X236155655Y-88536369D02*
X236155655Y-88012559D01*
X236155655Y-88012559D02*
X236108036Y-87917321D01*
X236108036Y-87917321D02*
X236012798Y-87869702D01*
X236012798Y-87869702D02*
X235822322Y-87869702D01*
X235822322Y-87869702D02*
X235727084Y-87917321D01*
X236155655Y-88488750D02*
X236060417Y-88536369D01*
X236060417Y-88536369D02*
X235822322Y-88536369D01*
X235822322Y-88536369D02*
X235727084Y-88488750D01*
X235727084Y-88488750D02*
X235679465Y-88393511D01*
X235679465Y-88393511D02*
X235679465Y-88298273D01*
X235679465Y-88298273D02*
X235727084Y-88203035D01*
X235727084Y-88203035D02*
X235822322Y-88155416D01*
X235822322Y-88155416D02*
X236060417Y-88155416D01*
X236060417Y-88155416D02*
X236155655Y-88107797D01*
X237060417Y-87869702D02*
X237060417Y-88679226D01*
X237060417Y-88679226D02*
X237012798Y-88774464D01*
X237012798Y-88774464D02*
X236965179Y-88822083D01*
X236965179Y-88822083D02*
X236869941Y-88869702D01*
X236869941Y-88869702D02*
X236727084Y-88869702D01*
X236727084Y-88869702D02*
X236631846Y-88822083D01*
X237060417Y-88488750D02*
X236965179Y-88536369D01*
X236965179Y-88536369D02*
X236774703Y-88536369D01*
X236774703Y-88536369D02*
X236679465Y-88488750D01*
X236679465Y-88488750D02*
X236631846Y-88441130D01*
X236631846Y-88441130D02*
X236584227Y-88345892D01*
X236584227Y-88345892D02*
X236584227Y-88060178D01*
X236584227Y-88060178D02*
X236631846Y-87964940D01*
X236631846Y-87964940D02*
X236679465Y-87917321D01*
X236679465Y-87917321D02*
X236774703Y-87869702D01*
X236774703Y-87869702D02*
X236965179Y-87869702D01*
X236965179Y-87869702D02*
X237060417Y-87917321D01*
X237917560Y-88488750D02*
X237822322Y-88536369D01*
X237822322Y-88536369D02*
X237631846Y-88536369D01*
X237631846Y-88536369D02*
X237536608Y-88488750D01*
X237536608Y-88488750D02*
X237488989Y-88393511D01*
X237488989Y-88393511D02*
X237488989Y-88012559D01*
X237488989Y-88012559D02*
X237536608Y-87917321D01*
X237536608Y-87917321D02*
X237631846Y-87869702D01*
X237631846Y-87869702D02*
X237822322Y-87869702D01*
X237822322Y-87869702D02*
X237917560Y-87917321D01*
X237917560Y-87917321D02*
X237965179Y-88012559D01*
X237965179Y-88012559D02*
X237965179Y-88107797D01*
X237965179Y-88107797D02*
X237488989Y-88203035D01*
X238393751Y-87869702D02*
X238393751Y-88536369D01*
X238393751Y-87964940D02*
X238441370Y-87917321D01*
X238441370Y-87917321D02*
X238536608Y-87869702D01*
X238536608Y-87869702D02*
X238679465Y-87869702D01*
X238679465Y-87869702D02*
X238774703Y-87917321D01*
X238774703Y-87917321D02*
X238822322Y-88012559D01*
X238822322Y-88012559D02*
X238822322Y-88536369D01*
X240060418Y-88536369D02*
X240060418Y-87536369D01*
X240060418Y-87536369D02*
X240441370Y-87536369D01*
X240441370Y-87536369D02*
X240536608Y-87583988D01*
X240536608Y-87583988D02*
X240584227Y-87631607D01*
X240584227Y-87631607D02*
X240631846Y-87726845D01*
X240631846Y-87726845D02*
X240631846Y-87869702D01*
X240631846Y-87869702D02*
X240584227Y-87964940D01*
X240584227Y-87964940D02*
X240536608Y-88012559D01*
X240536608Y-88012559D02*
X240441370Y-88060178D01*
X240441370Y-88060178D02*
X240060418Y-88060178D01*
X241631846Y-88441130D02*
X241584227Y-88488750D01*
X241584227Y-88488750D02*
X241441370Y-88536369D01*
X241441370Y-88536369D02*
X241346132Y-88536369D01*
X241346132Y-88536369D02*
X241203275Y-88488750D01*
X241203275Y-88488750D02*
X241108037Y-88393511D01*
X241108037Y-88393511D02*
X241060418Y-88298273D01*
X241060418Y-88298273D02*
X241012799Y-88107797D01*
X241012799Y-88107797D02*
X241012799Y-87964940D01*
X241012799Y-87964940D02*
X241060418Y-87774464D01*
X241060418Y-87774464D02*
X241108037Y-87679226D01*
X241108037Y-87679226D02*
X241203275Y-87583988D01*
X241203275Y-87583988D02*
X241346132Y-87536369D01*
X241346132Y-87536369D02*
X241441370Y-87536369D01*
X241441370Y-87536369D02*
X241584227Y-87583988D01*
X241584227Y-87583988D02*
X241631846Y-87631607D01*
X242393751Y-88012559D02*
X242536608Y-88060178D01*
X242536608Y-88060178D02*
X242584227Y-88107797D01*
X242584227Y-88107797D02*
X242631846Y-88203035D01*
X242631846Y-88203035D02*
X242631846Y-88345892D01*
X242631846Y-88345892D02*
X242584227Y-88441130D01*
X242584227Y-88441130D02*
X242536608Y-88488750D01*
X242536608Y-88488750D02*
X242441370Y-88536369D01*
X242441370Y-88536369D02*
X242060418Y-88536369D01*
X242060418Y-88536369D02*
X242060418Y-87536369D01*
X242060418Y-87536369D02*
X242393751Y-87536369D01*
X242393751Y-87536369D02*
X242488989Y-87583988D01*
X242488989Y-87583988D02*
X242536608Y-87631607D01*
X242536608Y-87631607D02*
X242584227Y-87726845D01*
X242584227Y-87726845D02*
X242584227Y-87822083D01*
X242584227Y-87822083D02*
X242536608Y-87917321D01*
X242536608Y-87917321D02*
X242488989Y-87964940D01*
X242488989Y-87964940D02*
X242393751Y-88012559D01*
X242393751Y-88012559D02*
X242060418Y-88012559D01*
X244393751Y-88441130D02*
X244346132Y-88488750D01*
X244346132Y-88488750D02*
X244203275Y-88536369D01*
X244203275Y-88536369D02*
X244108037Y-88536369D01*
X244108037Y-88536369D02*
X243965180Y-88488750D01*
X243965180Y-88488750D02*
X243869942Y-88393511D01*
X243869942Y-88393511D02*
X243822323Y-88298273D01*
X243822323Y-88298273D02*
X243774704Y-88107797D01*
X243774704Y-88107797D02*
X243774704Y-87964940D01*
X243774704Y-87964940D02*
X243822323Y-87774464D01*
X243822323Y-87774464D02*
X243869942Y-87679226D01*
X243869942Y-87679226D02*
X243965180Y-87583988D01*
X243965180Y-87583988D02*
X244108037Y-87536369D01*
X244108037Y-87536369D02*
X244203275Y-87536369D01*
X244203275Y-87536369D02*
X244346132Y-87583988D01*
X244346132Y-87583988D02*
X244393751Y-87631607D01*
X244822323Y-88536369D02*
X244822323Y-87536369D01*
X245250894Y-88536369D02*
X245250894Y-88012559D01*
X245250894Y-88012559D02*
X245203275Y-87917321D01*
X245203275Y-87917321D02*
X245108037Y-87869702D01*
X245108037Y-87869702D02*
X244965180Y-87869702D01*
X244965180Y-87869702D02*
X244869942Y-87917321D01*
X244869942Y-87917321D02*
X244822323Y-87964940D01*
X246155656Y-87869702D02*
X246155656Y-88536369D01*
X245727085Y-87869702D02*
X245727085Y-88393511D01*
X245727085Y-88393511D02*
X245774704Y-88488750D01*
X245774704Y-88488750D02*
X245869942Y-88536369D01*
X245869942Y-88536369D02*
X246012799Y-88536369D01*
X246012799Y-88536369D02*
X246108037Y-88488750D01*
X246108037Y-88488750D02*
X246155656Y-88441130D01*
X246631847Y-87869702D02*
X246631847Y-88536369D01*
X246631847Y-87964940D02*
X246679466Y-87917321D01*
X246679466Y-87917321D02*
X246774704Y-87869702D01*
X246774704Y-87869702D02*
X246917561Y-87869702D01*
X246917561Y-87869702D02*
X247012799Y-87917321D01*
X247012799Y-87917321D02*
X247060418Y-88012559D01*
X247060418Y-88012559D02*
X247060418Y-88536369D01*
X247536609Y-88536369D02*
X247536609Y-87536369D01*
X247631847Y-88155416D02*
X247917561Y-88536369D01*
X247917561Y-87869702D02*
X247536609Y-88250654D01*
X248250895Y-87869702D02*
X248488990Y-88536369D01*
X248727085Y-87869702D02*
X248488990Y-88536369D01*
X248488990Y-88536369D02*
X248393752Y-88774464D01*
X248393752Y-88774464D02*
X248346133Y-88822083D01*
X248346133Y-88822083D02*
X248250895Y-88869702D01*
X229631845Y-90156369D02*
X229631845Y-89156369D01*
X229631845Y-89156369D02*
X230203273Y-90156369D01*
X230203273Y-90156369D02*
X230203273Y-89156369D01*
X230822321Y-90156369D02*
X230727083Y-90108750D01*
X230727083Y-90108750D02*
X230679464Y-90061130D01*
X230679464Y-90061130D02*
X230631845Y-89965892D01*
X230631845Y-89965892D02*
X230631845Y-89680178D01*
X230631845Y-89680178D02*
X230679464Y-89584940D01*
X230679464Y-89584940D02*
X230727083Y-89537321D01*
X230727083Y-89537321D02*
X230822321Y-89489702D01*
X230822321Y-89489702D02*
X230965178Y-89489702D01*
X230965178Y-89489702D02*
X231060416Y-89537321D01*
X231060416Y-89537321D02*
X231108035Y-89584940D01*
X231108035Y-89584940D02*
X231155654Y-89680178D01*
X231155654Y-89680178D02*
X231155654Y-89965892D01*
X231155654Y-89965892D02*
X231108035Y-90061130D01*
X231108035Y-90061130D02*
X231060416Y-90108750D01*
X231060416Y-90108750D02*
X230965178Y-90156369D01*
X230965178Y-90156369D02*
X230822321Y-90156369D01*
X231584226Y-90156369D02*
X231584226Y-89156369D01*
X231584226Y-89156369D02*
X231965178Y-89156369D01*
X231965178Y-89156369D02*
X232060416Y-89203988D01*
X232060416Y-89203988D02*
X232108035Y-89251607D01*
X232108035Y-89251607D02*
X232155654Y-89346845D01*
X232155654Y-89346845D02*
X232155654Y-89489702D01*
X232155654Y-89489702D02*
X232108035Y-89584940D01*
X232108035Y-89584940D02*
X232060416Y-89632559D01*
X232060416Y-89632559D02*
X231965178Y-89680178D01*
X231965178Y-89680178D02*
X231584226Y-89680178D01*
X233012797Y-89489702D02*
X233012797Y-90156369D01*
X232584226Y-89489702D02*
X232584226Y-90013511D01*
X232584226Y-90013511D02*
X232631845Y-90108750D01*
X232631845Y-90108750D02*
X232727083Y-90156369D01*
X232727083Y-90156369D02*
X232869940Y-90156369D01*
X232869940Y-90156369D02*
X232965178Y-90108750D01*
X232965178Y-90108750D02*
X233012797Y-90061130D01*
X233488988Y-89489702D02*
X233488988Y-90156369D01*
X233488988Y-89584940D02*
X233536607Y-89537321D01*
X233536607Y-89537321D02*
X233631845Y-89489702D01*
X233631845Y-89489702D02*
X233774702Y-89489702D01*
X233774702Y-89489702D02*
X233869940Y-89537321D01*
X233869940Y-89537321D02*
X233917559Y-89632559D01*
X233917559Y-89632559D02*
X233917559Y-90156369D01*
X234393750Y-90156369D02*
X234393750Y-89156369D01*
X234869940Y-89489702D02*
X234869940Y-90156369D01*
X234869940Y-89584940D02*
X234917559Y-89537321D01*
X234917559Y-89537321D02*
X235012797Y-89489702D01*
X235012797Y-89489702D02*
X235155654Y-89489702D01*
X235155654Y-89489702D02*
X235250892Y-89537321D01*
X235250892Y-89537321D02*
X235298511Y-89632559D01*
X235298511Y-89632559D02*
X235298511Y-90156369D01*
X236298511Y-90156369D02*
X235727083Y-90156369D01*
X236012797Y-90156369D02*
X236012797Y-89156369D01*
X236012797Y-89156369D02*
X235917559Y-89299226D01*
X235917559Y-89299226D02*
X235822321Y-89394464D01*
X235822321Y-89394464D02*
X235727083Y-89442083D01*
X236917559Y-89156369D02*
X237012797Y-89156369D01*
X237012797Y-89156369D02*
X237108035Y-89203988D01*
X237108035Y-89203988D02*
X237155654Y-89251607D01*
X237155654Y-89251607D02*
X237203273Y-89346845D01*
X237203273Y-89346845D02*
X237250892Y-89537321D01*
X237250892Y-89537321D02*
X237250892Y-89775416D01*
X237250892Y-89775416D02*
X237203273Y-89965892D01*
X237203273Y-89965892D02*
X237155654Y-90061130D01*
X237155654Y-90061130D02*
X237108035Y-90108750D01*
X237108035Y-90108750D02*
X237012797Y-90156369D01*
X237012797Y-90156369D02*
X236917559Y-90156369D01*
X236917559Y-90156369D02*
X236822321Y-90108750D01*
X236822321Y-90108750D02*
X236774702Y-90061130D01*
X236774702Y-90061130D02*
X236727083Y-89965892D01*
X236727083Y-89965892D02*
X236679464Y-89775416D01*
X236679464Y-89775416D02*
X236679464Y-89537321D01*
X236679464Y-89537321D02*
X236727083Y-89346845D01*
X236727083Y-89346845D02*
X236774702Y-89251607D01*
X236774702Y-89251607D02*
X236822321Y-89203988D01*
X236822321Y-89203988D02*
X236917559Y-89156369D01*
X237679464Y-90156369D02*
X237679464Y-89156369D01*
X237679464Y-89156369D02*
X237917559Y-89156369D01*
X237917559Y-89156369D02*
X238060416Y-89203988D01*
X238060416Y-89203988D02*
X238155654Y-89299226D01*
X238155654Y-89299226D02*
X238203273Y-89394464D01*
X238203273Y-89394464D02*
X238250892Y-89584940D01*
X238250892Y-89584940D02*
X238250892Y-89727797D01*
X238250892Y-89727797D02*
X238203273Y-89918273D01*
X238203273Y-89918273D02*
X238155654Y-90013511D01*
X238155654Y-90013511D02*
X238060416Y-90108750D01*
X238060416Y-90108750D02*
X237917559Y-90156369D01*
X237917559Y-90156369D02*
X237679464Y-90156369D01*
X238679464Y-90156369D02*
X238679464Y-89489702D01*
X238679464Y-89156369D02*
X238631845Y-89203988D01*
X238631845Y-89203988D02*
X238679464Y-89251607D01*
X238679464Y-89251607D02*
X238727083Y-89203988D01*
X238727083Y-89203988D02*
X238679464Y-89156369D01*
X238679464Y-89156369D02*
X238679464Y-89251607D01*
X239584225Y-90156369D02*
X239584225Y-89156369D01*
X239584225Y-90108750D02*
X239488987Y-90156369D01*
X239488987Y-90156369D02*
X239298511Y-90156369D01*
X239298511Y-90156369D02*
X239203273Y-90108750D01*
X239203273Y-90108750D02*
X239155654Y-90061130D01*
X239155654Y-90061130D02*
X239108035Y-89965892D01*
X239108035Y-89965892D02*
X239108035Y-89680178D01*
X239108035Y-89680178D02*
X239155654Y-89584940D01*
X239155654Y-89584940D02*
X239203273Y-89537321D01*
X239203273Y-89537321D02*
X239298511Y-89489702D01*
X239298511Y-89489702D02*
X239488987Y-89489702D01*
X239488987Y-89489702D02*
X239584225Y-89537321D01*
X229631845Y-91776369D02*
X229631845Y-90776369D01*
X229631845Y-90776369D02*
X230012797Y-90776369D01*
X230012797Y-90776369D02*
X230108035Y-90823988D01*
X230108035Y-90823988D02*
X230155654Y-90871607D01*
X230155654Y-90871607D02*
X230203273Y-90966845D01*
X230203273Y-90966845D02*
X230203273Y-91109702D01*
X230203273Y-91109702D02*
X230155654Y-91204940D01*
X230155654Y-91204940D02*
X230108035Y-91252559D01*
X230108035Y-91252559D02*
X230012797Y-91300178D01*
X230012797Y-91300178D02*
X229631845Y-91300178D01*
X230631845Y-91776369D02*
X230631845Y-91109702D01*
X230631845Y-91300178D02*
X230679464Y-91204940D01*
X230679464Y-91204940D02*
X230727083Y-91157321D01*
X230727083Y-91157321D02*
X230822321Y-91109702D01*
X230822321Y-91109702D02*
X230917559Y-91109702D01*
X231393750Y-91776369D02*
X231298512Y-91728750D01*
X231298512Y-91728750D02*
X231250893Y-91681130D01*
X231250893Y-91681130D02*
X231203274Y-91585892D01*
X231203274Y-91585892D02*
X231203274Y-91300178D01*
X231203274Y-91300178D02*
X231250893Y-91204940D01*
X231250893Y-91204940D02*
X231298512Y-91157321D01*
X231298512Y-91157321D02*
X231393750Y-91109702D01*
X231393750Y-91109702D02*
X231536607Y-91109702D01*
X231536607Y-91109702D02*
X231631845Y-91157321D01*
X231631845Y-91157321D02*
X231679464Y-91204940D01*
X231679464Y-91204940D02*
X231727083Y-91300178D01*
X231727083Y-91300178D02*
X231727083Y-91585892D01*
X231727083Y-91585892D02*
X231679464Y-91681130D01*
X231679464Y-91681130D02*
X231631845Y-91728750D01*
X231631845Y-91728750D02*
X231536607Y-91776369D01*
X231536607Y-91776369D02*
X231393750Y-91776369D01*
X232012798Y-91109702D02*
X232393750Y-91109702D01*
X232155655Y-90776369D02*
X232155655Y-91633511D01*
X232155655Y-91633511D02*
X232203274Y-91728750D01*
X232203274Y-91728750D02*
X232298512Y-91776369D01*
X232298512Y-91776369D02*
X232393750Y-91776369D01*
X232869941Y-91776369D02*
X232774703Y-91728750D01*
X232774703Y-91728750D02*
X232727084Y-91681130D01*
X232727084Y-91681130D02*
X232679465Y-91585892D01*
X232679465Y-91585892D02*
X232679465Y-91300178D01*
X232679465Y-91300178D02*
X232727084Y-91204940D01*
X232727084Y-91204940D02*
X232774703Y-91157321D01*
X232774703Y-91157321D02*
X232869941Y-91109702D01*
X232869941Y-91109702D02*
X233012798Y-91109702D01*
X233012798Y-91109702D02*
X233108036Y-91157321D01*
X233108036Y-91157321D02*
X233155655Y-91204940D01*
X233155655Y-91204940D02*
X233203274Y-91300178D01*
X233203274Y-91300178D02*
X233203274Y-91585892D01*
X233203274Y-91585892D02*
X233155655Y-91681130D01*
X233155655Y-91681130D02*
X233108036Y-91728750D01*
X233108036Y-91728750D02*
X233012798Y-91776369D01*
X233012798Y-91776369D02*
X232869941Y-91776369D01*
X233488989Y-91109702D02*
X233869941Y-91109702D01*
X233631846Y-90776369D02*
X233631846Y-91633511D01*
X233631846Y-91633511D02*
X233679465Y-91728750D01*
X233679465Y-91728750D02*
X233774703Y-91776369D01*
X233774703Y-91776369D02*
X233869941Y-91776369D01*
X234108037Y-91109702D02*
X234346132Y-91776369D01*
X234584227Y-91109702D02*
X234346132Y-91776369D01*
X234346132Y-91776369D02*
X234250894Y-92014464D01*
X234250894Y-92014464D02*
X234203275Y-92062083D01*
X234203275Y-92062083D02*
X234108037Y-92109702D01*
X234965180Y-91109702D02*
X234965180Y-92109702D01*
X234965180Y-91157321D02*
X235060418Y-91109702D01*
X235060418Y-91109702D02*
X235250894Y-91109702D01*
X235250894Y-91109702D02*
X235346132Y-91157321D01*
X235346132Y-91157321D02*
X235393751Y-91204940D01*
X235393751Y-91204940D02*
X235441370Y-91300178D01*
X235441370Y-91300178D02*
X235441370Y-91585892D01*
X235441370Y-91585892D02*
X235393751Y-91681130D01*
X235393751Y-91681130D02*
X235346132Y-91728750D01*
X235346132Y-91728750D02*
X235250894Y-91776369D01*
X235250894Y-91776369D02*
X235060418Y-91776369D01*
X235060418Y-91776369D02*
X234965180Y-91728750D01*
X236250894Y-91728750D02*
X236155656Y-91776369D01*
X236155656Y-91776369D02*
X235965180Y-91776369D01*
X235965180Y-91776369D02*
X235869942Y-91728750D01*
X235869942Y-91728750D02*
X235822323Y-91633511D01*
X235822323Y-91633511D02*
X235822323Y-91252559D01*
X235822323Y-91252559D02*
X235869942Y-91157321D01*
X235869942Y-91157321D02*
X235965180Y-91109702D01*
X235965180Y-91109702D02*
X236155656Y-91109702D01*
X236155656Y-91109702D02*
X236250894Y-91157321D01*
X236250894Y-91157321D02*
X236298513Y-91252559D01*
X236298513Y-91252559D02*
X236298513Y-91347797D01*
X236298513Y-91347797D02*
X235822323Y-91443035D01*
X237441371Y-90871607D02*
X237488990Y-90823988D01*
X237488990Y-90823988D02*
X237584228Y-90776369D01*
X237584228Y-90776369D02*
X237822323Y-90776369D01*
X237822323Y-90776369D02*
X237917561Y-90823988D01*
X237917561Y-90823988D02*
X237965180Y-90871607D01*
X237965180Y-90871607D02*
X238012799Y-90966845D01*
X238012799Y-90966845D02*
X238012799Y-91062083D01*
X238012799Y-91062083D02*
X237965180Y-91204940D01*
X237965180Y-91204940D02*
X237393752Y-91776369D01*
X237393752Y-91776369D02*
X238012799Y-91776369D01*
X238631847Y-90776369D02*
X238727085Y-90776369D01*
X238727085Y-90776369D02*
X238822323Y-90823988D01*
X238822323Y-90823988D02*
X238869942Y-90871607D01*
X238869942Y-90871607D02*
X238917561Y-90966845D01*
X238917561Y-90966845D02*
X238965180Y-91157321D01*
X238965180Y-91157321D02*
X238965180Y-91395416D01*
X238965180Y-91395416D02*
X238917561Y-91585892D01*
X238917561Y-91585892D02*
X238869942Y-91681130D01*
X238869942Y-91681130D02*
X238822323Y-91728750D01*
X238822323Y-91728750D02*
X238727085Y-91776369D01*
X238727085Y-91776369D02*
X238631847Y-91776369D01*
X238631847Y-91776369D02*
X238536609Y-91728750D01*
X238536609Y-91728750D02*
X238488990Y-91681130D01*
X238488990Y-91681130D02*
X238441371Y-91585892D01*
X238441371Y-91585892D02*
X238393752Y-91395416D01*
X238393752Y-91395416D02*
X238393752Y-91157321D01*
X238393752Y-91157321D02*
X238441371Y-90966845D01*
X238441371Y-90966845D02*
X238488990Y-90871607D01*
X238488990Y-90871607D02*
X238536609Y-90823988D01*
X238536609Y-90823988D02*
X238631847Y-90776369D01*
X239346133Y-90871607D02*
X239393752Y-90823988D01*
X239393752Y-90823988D02*
X239488990Y-90776369D01*
X239488990Y-90776369D02*
X239727085Y-90776369D01*
X239727085Y-90776369D02*
X239822323Y-90823988D01*
X239822323Y-90823988D02*
X239869942Y-90871607D01*
X239869942Y-90871607D02*
X239917561Y-90966845D01*
X239917561Y-90966845D02*
X239917561Y-91062083D01*
X239917561Y-91062083D02*
X239869942Y-91204940D01*
X239869942Y-91204940D02*
X239298514Y-91776369D01*
X239298514Y-91776369D02*
X239917561Y-91776369D01*
X240250895Y-90776369D02*
X240869942Y-90776369D01*
X240869942Y-90776369D02*
X240536609Y-91157321D01*
X240536609Y-91157321D02*
X240679466Y-91157321D01*
X240679466Y-91157321D02*
X240774704Y-91204940D01*
X240774704Y-91204940D02*
X240822323Y-91252559D01*
X240822323Y-91252559D02*
X240869942Y-91347797D01*
X240869942Y-91347797D02*
X240869942Y-91585892D01*
X240869942Y-91585892D02*
X240822323Y-91681130D01*
X240822323Y-91681130D02*
X240774704Y-91728750D01*
X240774704Y-91728750D02*
X240679466Y-91776369D01*
X240679466Y-91776369D02*
X240393752Y-91776369D01*
X240393752Y-91776369D02*
X240298514Y-91728750D01*
X240298514Y-91728750D02*
X240250895Y-91681130D01*
X241298514Y-91395416D02*
X242060419Y-91395416D01*
X242727085Y-90776369D02*
X242822323Y-90776369D01*
X242822323Y-90776369D02*
X242917561Y-90823988D01*
X242917561Y-90823988D02*
X242965180Y-90871607D01*
X242965180Y-90871607D02*
X243012799Y-90966845D01*
X243012799Y-90966845D02*
X243060418Y-91157321D01*
X243060418Y-91157321D02*
X243060418Y-91395416D01*
X243060418Y-91395416D02*
X243012799Y-91585892D01*
X243012799Y-91585892D02*
X242965180Y-91681130D01*
X242965180Y-91681130D02*
X242917561Y-91728750D01*
X242917561Y-91728750D02*
X242822323Y-91776369D01*
X242822323Y-91776369D02*
X242727085Y-91776369D01*
X242727085Y-91776369D02*
X242631847Y-91728750D01*
X242631847Y-91728750D02*
X242584228Y-91681130D01*
X242584228Y-91681130D02*
X242536609Y-91585892D01*
X242536609Y-91585892D02*
X242488990Y-91395416D01*
X242488990Y-91395416D02*
X242488990Y-91157321D01*
X242488990Y-91157321D02*
X242536609Y-90966845D01*
X242536609Y-90966845D02*
X242584228Y-90871607D01*
X242584228Y-90871607D02*
X242631847Y-90823988D01*
X242631847Y-90823988D02*
X242727085Y-90776369D01*
X243917561Y-91109702D02*
X243917561Y-91776369D01*
X243679466Y-90728750D02*
X243441371Y-91443035D01*
X243441371Y-91443035D02*
X244060418Y-91443035D01*
X280669048Y-27465952D02*
X281430953Y-27751666D01*
X281430953Y-27751666D02*
X280669048Y-28037380D01*
X275466513Y-31859819D02*
X274990323Y-31859819D01*
X274990323Y-31859819D02*
X274990323Y-30859819D01*
X275799847Y-31336009D02*
X276133180Y-31336009D01*
X276276037Y-31859819D02*
X275799847Y-31859819D01*
X275799847Y-31859819D02*
X275799847Y-30859819D01*
X275799847Y-30859819D02*
X276276037Y-30859819D01*
X276704609Y-31859819D02*
X276704609Y-30859819D01*
X276704609Y-30859819D02*
X276942704Y-30859819D01*
X276942704Y-30859819D02*
X277085561Y-30907438D01*
X277085561Y-30907438D02*
X277180799Y-31002676D01*
X277180799Y-31002676D02*
X277228418Y-31097914D01*
X277228418Y-31097914D02*
X277276037Y-31288390D01*
X277276037Y-31288390D02*
X277276037Y-31431247D01*
X277276037Y-31431247D02*
X277228418Y-31621723D01*
X277228418Y-31621723D02*
X277180799Y-31716961D01*
X277180799Y-31716961D02*
X277085561Y-31812200D01*
X277085561Y-31812200D02*
X276942704Y-31859819D01*
X276942704Y-31859819D02*
X276704609Y-31859819D01*
X277656990Y-31812200D02*
X277752228Y-31859819D01*
X277752228Y-31859819D02*
X277942704Y-31859819D01*
X277942704Y-31859819D02*
X278037942Y-31812200D01*
X278037942Y-31812200D02*
X278085561Y-31716961D01*
X278085561Y-31716961D02*
X278085561Y-31669342D01*
X278085561Y-31669342D02*
X278037942Y-31574104D01*
X278037942Y-31574104D02*
X277942704Y-31526485D01*
X277942704Y-31526485D02*
X277799847Y-31526485D01*
X277799847Y-31526485D02*
X277704609Y-31478866D01*
X277704609Y-31478866D02*
X277656990Y-31383628D01*
X277656990Y-31383628D02*
X277656990Y-31336009D01*
X277656990Y-31336009D02*
X277704609Y-31240771D01*
X277704609Y-31240771D02*
X277799847Y-31193152D01*
X277799847Y-31193152D02*
X277942704Y-31193152D01*
X277942704Y-31193152D02*
X278037942Y-31240771D01*
X279418895Y-31859819D02*
X279323657Y-31812200D01*
X279323657Y-31812200D02*
X279276038Y-31764580D01*
X279276038Y-31764580D02*
X279228419Y-31669342D01*
X279228419Y-31669342D02*
X279228419Y-31383628D01*
X279228419Y-31383628D02*
X279276038Y-31288390D01*
X279276038Y-31288390D02*
X279323657Y-31240771D01*
X279323657Y-31240771D02*
X279418895Y-31193152D01*
X279418895Y-31193152D02*
X279561752Y-31193152D01*
X279561752Y-31193152D02*
X279656990Y-31240771D01*
X279656990Y-31240771D02*
X279704609Y-31288390D01*
X279704609Y-31288390D02*
X279752228Y-31383628D01*
X279752228Y-31383628D02*
X279752228Y-31669342D01*
X279752228Y-31669342D02*
X279704609Y-31764580D01*
X279704609Y-31764580D02*
X279656990Y-31812200D01*
X279656990Y-31812200D02*
X279561752Y-31859819D01*
X279561752Y-31859819D02*
X279418895Y-31859819D01*
X280180800Y-31193152D02*
X280180800Y-31859819D01*
X280180800Y-31288390D02*
X280228419Y-31240771D01*
X280228419Y-31240771D02*
X280323657Y-31193152D01*
X280323657Y-31193152D02*
X280466514Y-31193152D01*
X280466514Y-31193152D02*
X280561752Y-31240771D01*
X280561752Y-31240771D02*
X280609371Y-31336009D01*
X280609371Y-31336009D02*
X280609371Y-31859819D01*
X274990324Y-32813152D02*
X275371276Y-32813152D01*
X275133181Y-32479819D02*
X275133181Y-33336961D01*
X275133181Y-33336961D02*
X275180800Y-33432200D01*
X275180800Y-33432200D02*
X275276038Y-33479819D01*
X275276038Y-33479819D02*
X275371276Y-33479819D01*
X275704610Y-33479819D02*
X275704610Y-32479819D01*
X276133181Y-33479819D02*
X276133181Y-32956009D01*
X276133181Y-32956009D02*
X276085562Y-32860771D01*
X276085562Y-32860771D02*
X275990324Y-32813152D01*
X275990324Y-32813152D02*
X275847467Y-32813152D01*
X275847467Y-32813152D02*
X275752229Y-32860771D01*
X275752229Y-32860771D02*
X275704610Y-32908390D01*
X276609372Y-33479819D02*
X276609372Y-32813152D01*
X276609372Y-32479819D02*
X276561753Y-32527438D01*
X276561753Y-32527438D02*
X276609372Y-32575057D01*
X276609372Y-32575057D02*
X276656991Y-32527438D01*
X276656991Y-32527438D02*
X276609372Y-32479819D01*
X276609372Y-32479819D02*
X276609372Y-32575057D01*
X277037943Y-33432200D02*
X277133181Y-33479819D01*
X277133181Y-33479819D02*
X277323657Y-33479819D01*
X277323657Y-33479819D02*
X277418895Y-33432200D01*
X277418895Y-33432200D02*
X277466514Y-33336961D01*
X277466514Y-33336961D02*
X277466514Y-33289342D01*
X277466514Y-33289342D02*
X277418895Y-33194104D01*
X277418895Y-33194104D02*
X277323657Y-33146485D01*
X277323657Y-33146485D02*
X277180800Y-33146485D01*
X277180800Y-33146485D02*
X277085562Y-33098866D01*
X277085562Y-33098866D02*
X277037943Y-33003628D01*
X277037943Y-33003628D02*
X277037943Y-32956009D01*
X277037943Y-32956009D02*
X277085562Y-32860771D01*
X277085562Y-32860771D02*
X277180800Y-32813152D01*
X277180800Y-32813152D02*
X277323657Y-32813152D01*
X277323657Y-32813152D02*
X277418895Y-32860771D01*
X278609372Y-33432200D02*
X278704610Y-33479819D01*
X278704610Y-33479819D02*
X278895086Y-33479819D01*
X278895086Y-33479819D02*
X278990324Y-33432200D01*
X278990324Y-33432200D02*
X279037943Y-33336961D01*
X279037943Y-33336961D02*
X279037943Y-33289342D01*
X279037943Y-33289342D02*
X278990324Y-33194104D01*
X278990324Y-33194104D02*
X278895086Y-33146485D01*
X278895086Y-33146485D02*
X278752229Y-33146485D01*
X278752229Y-33146485D02*
X278656991Y-33098866D01*
X278656991Y-33098866D02*
X278609372Y-33003628D01*
X278609372Y-33003628D02*
X278609372Y-32956009D01*
X278609372Y-32956009D02*
X278656991Y-32860771D01*
X278656991Y-32860771D02*
X278752229Y-32813152D01*
X278752229Y-32813152D02*
X278895086Y-32813152D01*
X278895086Y-32813152D02*
X278990324Y-32860771D01*
X279466515Y-33479819D02*
X279466515Y-32813152D01*
X279466515Y-32479819D02*
X279418896Y-32527438D01*
X279418896Y-32527438D02*
X279466515Y-32575057D01*
X279466515Y-32575057D02*
X279514134Y-32527438D01*
X279514134Y-32527438D02*
X279466515Y-32479819D01*
X279466515Y-32479819D02*
X279466515Y-32575057D01*
X280371276Y-33479819D02*
X280371276Y-32479819D01*
X280371276Y-33432200D02*
X280276038Y-33479819D01*
X280276038Y-33479819D02*
X280085562Y-33479819D01*
X280085562Y-33479819D02*
X279990324Y-33432200D01*
X279990324Y-33432200D02*
X279942705Y-33384580D01*
X279942705Y-33384580D02*
X279895086Y-33289342D01*
X279895086Y-33289342D02*
X279895086Y-33003628D01*
X279895086Y-33003628D02*
X279942705Y-32908390D01*
X279942705Y-32908390D02*
X279990324Y-32860771D01*
X279990324Y-32860771D02*
X280085562Y-32813152D01*
X280085562Y-32813152D02*
X280276038Y-32813152D01*
X280276038Y-32813152D02*
X280371276Y-32860771D01*
X281228419Y-33432200D02*
X281133181Y-33479819D01*
X281133181Y-33479819D02*
X280942705Y-33479819D01*
X280942705Y-33479819D02*
X280847467Y-33432200D01*
X280847467Y-33432200D02*
X280799848Y-33336961D01*
X280799848Y-33336961D02*
X280799848Y-32956009D01*
X280799848Y-32956009D02*
X280847467Y-32860771D01*
X280847467Y-32860771D02*
X280942705Y-32813152D01*
X280942705Y-32813152D02*
X281133181Y-32813152D01*
X281133181Y-32813152D02*
X281228419Y-32860771D01*
X281228419Y-32860771D02*
X281276038Y-32956009D01*
X281276038Y-32956009D02*
X281276038Y-33051247D01*
X281276038Y-33051247D02*
X280799848Y-33146485D01*
G04 #@! TO.C,D2*
X279449405Y-30030119D02*
X279449405Y-29030119D01*
X279449405Y-29030119D02*
X279687500Y-29030119D01*
X279687500Y-29030119D02*
X279830357Y-29077738D01*
X279830357Y-29077738D02*
X279925595Y-29172976D01*
X279925595Y-29172976D02*
X279973214Y-29268214D01*
X279973214Y-29268214D02*
X280020833Y-29458690D01*
X280020833Y-29458690D02*
X280020833Y-29601547D01*
X280020833Y-29601547D02*
X279973214Y-29792023D01*
X279973214Y-29792023D02*
X279925595Y-29887261D01*
X279925595Y-29887261D02*
X279830357Y-29982500D01*
X279830357Y-29982500D02*
X279687500Y-30030119D01*
X279687500Y-30030119D02*
X279449405Y-30030119D01*
X280401786Y-29125357D02*
X280449405Y-29077738D01*
X280449405Y-29077738D02*
X280544643Y-29030119D01*
X280544643Y-29030119D02*
X280782738Y-29030119D01*
X280782738Y-29030119D02*
X280877976Y-29077738D01*
X280877976Y-29077738D02*
X280925595Y-29125357D01*
X280925595Y-29125357D02*
X280973214Y-29220595D01*
X280973214Y-29220595D02*
X280973214Y-29315833D01*
X280973214Y-29315833D02*
X280925595Y-29458690D01*
X280925595Y-29458690D02*
X280354167Y-30030119D01*
X280354167Y-30030119D02*
X280973214Y-30030119D01*
G04 #@! TO.C,D3*
X279449405Y-39532619D02*
X279449405Y-38532619D01*
X279449405Y-38532619D02*
X279687500Y-38532619D01*
X279687500Y-38532619D02*
X279830357Y-38580238D01*
X279830357Y-38580238D02*
X279925595Y-38675476D01*
X279925595Y-38675476D02*
X279973214Y-38770714D01*
X279973214Y-38770714D02*
X280020833Y-38961190D01*
X280020833Y-38961190D02*
X280020833Y-39104047D01*
X280020833Y-39104047D02*
X279973214Y-39294523D01*
X279973214Y-39294523D02*
X279925595Y-39389761D01*
X279925595Y-39389761D02*
X279830357Y-39485000D01*
X279830357Y-39485000D02*
X279687500Y-39532619D01*
X279687500Y-39532619D02*
X279449405Y-39532619D01*
X280354167Y-38532619D02*
X280973214Y-38532619D01*
X280973214Y-38532619D02*
X280639881Y-38913571D01*
X280639881Y-38913571D02*
X280782738Y-38913571D01*
X280782738Y-38913571D02*
X280877976Y-38961190D01*
X280877976Y-38961190D02*
X280925595Y-39008809D01*
X280925595Y-39008809D02*
X280973214Y-39104047D01*
X280973214Y-39104047D02*
X280973214Y-39342142D01*
X280973214Y-39342142D02*
X280925595Y-39437380D01*
X280925595Y-39437380D02*
X280877976Y-39485000D01*
X280877976Y-39485000D02*
X280782738Y-39532619D01*
X280782738Y-39532619D02*
X280497024Y-39532619D01*
X280497024Y-39532619D02*
X280401786Y-39485000D01*
X280401786Y-39485000D02*
X280354167Y-39437380D01*
G04 #@! TO.C,D1*
X279449405Y-20532619D02*
X279449405Y-19532619D01*
X279449405Y-19532619D02*
X279687500Y-19532619D01*
X279687500Y-19532619D02*
X279830357Y-19580238D01*
X279830357Y-19580238D02*
X279925595Y-19675476D01*
X279925595Y-19675476D02*
X279973214Y-19770714D01*
X279973214Y-19770714D02*
X280020833Y-19961190D01*
X280020833Y-19961190D02*
X280020833Y-20104047D01*
X280020833Y-20104047D02*
X279973214Y-20294523D01*
X279973214Y-20294523D02*
X279925595Y-20389761D01*
X279925595Y-20389761D02*
X279830357Y-20485000D01*
X279830357Y-20485000D02*
X279687500Y-20532619D01*
X279687500Y-20532619D02*
X279449405Y-20532619D01*
X280973214Y-20532619D02*
X280401786Y-20532619D01*
X280687500Y-20532619D02*
X280687500Y-19532619D01*
X280687500Y-19532619D02*
X280592262Y-19675476D01*
X280592262Y-19675476D02*
X280497024Y-19770714D01*
X280497024Y-19770714D02*
X280401786Y-19818333D01*
G04 #@! TO.C,U1*
X283750524Y-24370095D02*
X283750524Y-23570095D01*
X283750524Y-23570095D02*
X283941000Y-23570095D01*
X283941000Y-23570095D02*
X284055286Y-23608190D01*
X284055286Y-23608190D02*
X284131476Y-23684380D01*
X284131476Y-23684380D02*
X284169571Y-23760571D01*
X284169571Y-23760571D02*
X284207667Y-23912952D01*
X284207667Y-23912952D02*
X284207667Y-24027238D01*
X284207667Y-24027238D02*
X284169571Y-24179619D01*
X284169571Y-24179619D02*
X284131476Y-24255809D01*
X284131476Y-24255809D02*
X284055286Y-24332000D01*
X284055286Y-24332000D02*
X283941000Y-24370095D01*
X283941000Y-24370095D02*
X283750524Y-24370095D01*
X284969571Y-24370095D02*
X284512428Y-24370095D01*
X284741000Y-24370095D02*
X284741000Y-23570095D01*
X284741000Y-23570095D02*
X284664809Y-23684380D01*
X284664809Y-23684380D02*
X284588619Y-23760571D01*
X284588619Y-23760571D02*
X284512428Y-23798666D01*
X280829524Y-40580095D02*
X280829524Y-39780095D01*
X280829524Y-39780095D02*
X281020000Y-39780095D01*
X281020000Y-39780095D02*
X281134286Y-39818190D01*
X281134286Y-39818190D02*
X281210476Y-39894380D01*
X281210476Y-39894380D02*
X281248571Y-39970571D01*
X281248571Y-39970571D02*
X281286667Y-40122952D01*
X281286667Y-40122952D02*
X281286667Y-40237238D01*
X281286667Y-40237238D02*
X281248571Y-40389619D01*
X281248571Y-40389619D02*
X281210476Y-40465809D01*
X281210476Y-40465809D02*
X281134286Y-40542000D01*
X281134286Y-40542000D02*
X281020000Y-40580095D01*
X281020000Y-40580095D02*
X280829524Y-40580095D01*
X282010476Y-39780095D02*
X281629524Y-39780095D01*
X281629524Y-39780095D02*
X281591428Y-40161047D01*
X281591428Y-40161047D02*
X281629524Y-40122952D01*
X281629524Y-40122952D02*
X281705714Y-40084857D01*
X281705714Y-40084857D02*
X281896190Y-40084857D01*
X281896190Y-40084857D02*
X281972381Y-40122952D01*
X281972381Y-40122952D02*
X282010476Y-40161047D01*
X282010476Y-40161047D02*
X282048571Y-40237238D01*
X282048571Y-40237238D02*
X282048571Y-40427714D01*
X282048571Y-40427714D02*
X282010476Y-40503904D01*
X282010476Y-40503904D02*
X281972381Y-40542000D01*
X281972381Y-40542000D02*
X281896190Y-40580095D01*
X281896190Y-40580095D02*
X281705714Y-40580095D01*
X281705714Y-40580095D02*
X281629524Y-40542000D01*
X281629524Y-40542000D02*
X281591428Y-40503904D01*
X273095190Y-34111047D02*
X273209476Y-34149142D01*
X273209476Y-34149142D02*
X273247571Y-34187238D01*
X273247571Y-34187238D02*
X273285667Y-34263428D01*
X273285667Y-34263428D02*
X273285667Y-34377714D01*
X273285667Y-34377714D02*
X273247571Y-34453904D01*
X273247571Y-34453904D02*
X273209476Y-34492000D01*
X273209476Y-34492000D02*
X273133286Y-34530095D01*
X273133286Y-34530095D02*
X272828524Y-34530095D01*
X272828524Y-34530095D02*
X272828524Y-33730095D01*
X272828524Y-33730095D02*
X273095190Y-33730095D01*
X273095190Y-33730095D02*
X273171381Y-33768190D01*
X273171381Y-33768190D02*
X273209476Y-33806285D01*
X273209476Y-33806285D02*
X273247571Y-33882476D01*
X273247571Y-33882476D02*
X273247571Y-33958666D01*
X273247571Y-33958666D02*
X273209476Y-34034857D01*
X273209476Y-34034857D02*
X273171381Y-34072952D01*
X273171381Y-34072952D02*
X273095190Y-34111047D01*
X273095190Y-34111047D02*
X272828524Y-34111047D01*
X274047571Y-34530095D02*
X273590428Y-34530095D01*
X273819000Y-34530095D02*
X273819000Y-33730095D01*
X273819000Y-33730095D02*
X273742809Y-33844380D01*
X273742809Y-33844380D02*
X273666619Y-33920571D01*
X273666619Y-33920571D02*
X273590428Y-33958666D01*
X284347619Y-35451047D02*
X284614285Y-35451047D01*
X284728571Y-35870095D02*
X284347619Y-35870095D01*
X284347619Y-35870095D02*
X284347619Y-35070095D01*
X284347619Y-35070095D02*
X284728571Y-35070095D01*
X285414286Y-35070095D02*
X285261905Y-35070095D01*
X285261905Y-35070095D02*
X285185714Y-35108190D01*
X285185714Y-35108190D02*
X285147619Y-35146285D01*
X285147619Y-35146285D02*
X285071429Y-35260571D01*
X285071429Y-35260571D02*
X285033333Y-35412952D01*
X285033333Y-35412952D02*
X285033333Y-35717714D01*
X285033333Y-35717714D02*
X285071429Y-35793904D01*
X285071429Y-35793904D02*
X285109524Y-35832000D01*
X285109524Y-35832000D02*
X285185714Y-35870095D01*
X285185714Y-35870095D02*
X285338095Y-35870095D01*
X285338095Y-35870095D02*
X285414286Y-35832000D01*
X285414286Y-35832000D02*
X285452381Y-35793904D01*
X285452381Y-35793904D02*
X285490476Y-35717714D01*
X285490476Y-35717714D02*
X285490476Y-35527238D01*
X285490476Y-35527238D02*
X285452381Y-35451047D01*
X285452381Y-35451047D02*
X285414286Y-35412952D01*
X285414286Y-35412952D02*
X285338095Y-35374857D01*
X285338095Y-35374857D02*
X285185714Y-35374857D01*
X285185714Y-35374857D02*
X285109524Y-35412952D01*
X285109524Y-35412952D02*
X285071429Y-35451047D01*
X285071429Y-35451047D02*
X285033333Y-35527238D01*
X284017190Y-39191047D02*
X284131476Y-39229142D01*
X284131476Y-39229142D02*
X284169571Y-39267238D01*
X284169571Y-39267238D02*
X284207667Y-39343428D01*
X284207667Y-39343428D02*
X284207667Y-39457714D01*
X284207667Y-39457714D02*
X284169571Y-39533904D01*
X284169571Y-39533904D02*
X284131476Y-39572000D01*
X284131476Y-39572000D02*
X284055286Y-39610095D01*
X284055286Y-39610095D02*
X283750524Y-39610095D01*
X283750524Y-39610095D02*
X283750524Y-38810095D01*
X283750524Y-38810095D02*
X284017190Y-38810095D01*
X284017190Y-38810095D02*
X284093381Y-38848190D01*
X284093381Y-38848190D02*
X284131476Y-38886285D01*
X284131476Y-38886285D02*
X284169571Y-38962476D01*
X284169571Y-38962476D02*
X284169571Y-39038666D01*
X284169571Y-39038666D02*
X284131476Y-39114857D01*
X284131476Y-39114857D02*
X284093381Y-39152952D01*
X284093381Y-39152952D02*
X284017190Y-39191047D01*
X284017190Y-39191047D02*
X283750524Y-39191047D01*
X284893381Y-39076761D02*
X284893381Y-39610095D01*
X284702905Y-38772000D02*
X284512428Y-39343428D01*
X284512428Y-39343428D02*
X285007667Y-39343428D01*
X273152333Y-31571047D02*
X272885667Y-31571047D01*
X272885667Y-31990095D02*
X272885667Y-31190095D01*
X272885667Y-31190095D02*
X273266619Y-31190095D01*
X273495190Y-31190095D02*
X274028524Y-31190095D01*
X274028524Y-31190095D02*
X273685666Y-31990095D01*
X272352333Y-21030095D02*
X272619000Y-21830095D01*
X272619000Y-21830095D02*
X272885666Y-21030095D01*
X273609476Y-21753904D02*
X273571380Y-21792000D01*
X273571380Y-21792000D02*
X273457095Y-21830095D01*
X273457095Y-21830095D02*
X273380904Y-21830095D01*
X273380904Y-21830095D02*
X273266618Y-21792000D01*
X273266618Y-21792000D02*
X273190428Y-21715809D01*
X273190428Y-21715809D02*
X273152333Y-21639619D01*
X273152333Y-21639619D02*
X273114237Y-21487238D01*
X273114237Y-21487238D02*
X273114237Y-21372952D01*
X273114237Y-21372952D02*
X273152333Y-21220571D01*
X273152333Y-21220571D02*
X273190428Y-21144380D01*
X273190428Y-21144380D02*
X273266618Y-21068190D01*
X273266618Y-21068190D02*
X273380904Y-21030095D01*
X273380904Y-21030095D02*
X273457095Y-21030095D01*
X273457095Y-21030095D02*
X273571380Y-21068190D01*
X273571380Y-21068190D02*
X273609476Y-21106285D01*
X274409476Y-21753904D02*
X274371380Y-21792000D01*
X274371380Y-21792000D02*
X274257095Y-21830095D01*
X274257095Y-21830095D02*
X274180904Y-21830095D01*
X274180904Y-21830095D02*
X274066618Y-21792000D01*
X274066618Y-21792000D02*
X273990428Y-21715809D01*
X273990428Y-21715809D02*
X273952333Y-21639619D01*
X273952333Y-21639619D02*
X273914237Y-21487238D01*
X273914237Y-21487238D02*
X273914237Y-21372952D01*
X273914237Y-21372952D02*
X273952333Y-21220571D01*
X273952333Y-21220571D02*
X273990428Y-21144380D01*
X273990428Y-21144380D02*
X274066618Y-21068190D01*
X274066618Y-21068190D02*
X274180904Y-21030095D01*
X274180904Y-21030095D02*
X274257095Y-21030095D01*
X274257095Y-21030095D02*
X274371380Y-21068190D01*
X274371380Y-21068190D02*
X274409476Y-21106285D01*
X283731476Y-18528190D02*
X283655286Y-18490095D01*
X283655286Y-18490095D02*
X283541000Y-18490095D01*
X283541000Y-18490095D02*
X283426714Y-18528190D01*
X283426714Y-18528190D02*
X283350524Y-18604380D01*
X283350524Y-18604380D02*
X283312429Y-18680571D01*
X283312429Y-18680571D02*
X283274333Y-18832952D01*
X283274333Y-18832952D02*
X283274333Y-18947238D01*
X283274333Y-18947238D02*
X283312429Y-19099619D01*
X283312429Y-19099619D02*
X283350524Y-19175809D01*
X283350524Y-19175809D02*
X283426714Y-19252000D01*
X283426714Y-19252000D02*
X283541000Y-19290095D01*
X283541000Y-19290095D02*
X283617191Y-19290095D01*
X283617191Y-19290095D02*
X283731476Y-19252000D01*
X283731476Y-19252000D02*
X283769572Y-19213904D01*
X283769572Y-19213904D02*
X283769572Y-18947238D01*
X283769572Y-18947238D02*
X283617191Y-18947238D01*
X284112429Y-19290095D02*
X284112429Y-18490095D01*
X284112429Y-18490095D02*
X284569572Y-19290095D01*
X284569572Y-19290095D02*
X284569572Y-18490095D01*
X284950524Y-19290095D02*
X284950524Y-18490095D01*
X284950524Y-18490095D02*
X285141000Y-18490095D01*
X285141000Y-18490095D02*
X285255286Y-18528190D01*
X285255286Y-18528190D02*
X285331476Y-18604380D01*
X285331476Y-18604380D02*
X285369571Y-18680571D01*
X285369571Y-18680571D02*
X285407667Y-18832952D01*
X285407667Y-18832952D02*
X285407667Y-18947238D01*
X285407667Y-18947238D02*
X285369571Y-19099619D01*
X285369571Y-19099619D02*
X285331476Y-19175809D01*
X285331476Y-19175809D02*
X285255286Y-19252000D01*
X285255286Y-19252000D02*
X285141000Y-19290095D01*
X285141000Y-19290095D02*
X284950524Y-19290095D01*
X284207667Y-31913904D02*
X284169571Y-31952000D01*
X284169571Y-31952000D02*
X284055286Y-31990095D01*
X284055286Y-31990095D02*
X283979095Y-31990095D01*
X283979095Y-31990095D02*
X283864809Y-31952000D01*
X283864809Y-31952000D02*
X283788619Y-31875809D01*
X283788619Y-31875809D02*
X283750524Y-31799619D01*
X283750524Y-31799619D02*
X283712428Y-31647238D01*
X283712428Y-31647238D02*
X283712428Y-31532952D01*
X283712428Y-31532952D02*
X283750524Y-31380571D01*
X283750524Y-31380571D02*
X283788619Y-31304380D01*
X283788619Y-31304380D02*
X283864809Y-31228190D01*
X283864809Y-31228190D02*
X283979095Y-31190095D01*
X283979095Y-31190095D02*
X284055286Y-31190095D01*
X284055286Y-31190095D02*
X284169571Y-31228190D01*
X284169571Y-31228190D02*
X284207667Y-31266285D01*
X284893381Y-31190095D02*
X284741000Y-31190095D01*
X284741000Y-31190095D02*
X284664809Y-31228190D01*
X284664809Y-31228190D02*
X284626714Y-31266285D01*
X284626714Y-31266285D02*
X284550524Y-31380571D01*
X284550524Y-31380571D02*
X284512428Y-31532952D01*
X284512428Y-31532952D02*
X284512428Y-31837714D01*
X284512428Y-31837714D02*
X284550524Y-31913904D01*
X284550524Y-31913904D02*
X284588619Y-31952000D01*
X284588619Y-31952000D02*
X284664809Y-31990095D01*
X284664809Y-31990095D02*
X284817190Y-31990095D01*
X284817190Y-31990095D02*
X284893381Y-31952000D01*
X284893381Y-31952000D02*
X284931476Y-31913904D01*
X284931476Y-31913904D02*
X284969571Y-31837714D01*
X284969571Y-31837714D02*
X284969571Y-31647238D01*
X284969571Y-31647238D02*
X284931476Y-31571047D01*
X284931476Y-31571047D02*
X284893381Y-31532952D01*
X284893381Y-31532952D02*
X284817190Y-31494857D01*
X284817190Y-31494857D02*
X284664809Y-31494857D01*
X284664809Y-31494857D02*
X284588619Y-31532952D01*
X284588619Y-31532952D02*
X284550524Y-31571047D01*
X284550524Y-31571047D02*
X284512428Y-31647238D01*
X280261395Y-13410095D02*
X280718538Y-13410095D01*
X280489966Y-14210095D02*
X280489966Y-13410095D01*
X280909014Y-13410095D02*
X281442348Y-14210095D01*
X281442348Y-13410095D02*
X280909014Y-14210095D01*
X281899491Y-13410095D02*
X281975681Y-13410095D01*
X281975681Y-13410095D02*
X282051872Y-13448190D01*
X282051872Y-13448190D02*
X282089967Y-13486285D01*
X282089967Y-13486285D02*
X282128062Y-13562476D01*
X282128062Y-13562476D02*
X282166157Y-13714857D01*
X282166157Y-13714857D02*
X282166157Y-13905333D01*
X282166157Y-13905333D02*
X282128062Y-14057714D01*
X282128062Y-14057714D02*
X282089967Y-14133904D01*
X282089967Y-14133904D02*
X282051872Y-14172000D01*
X282051872Y-14172000D02*
X281975681Y-14210095D01*
X281975681Y-14210095D02*
X281899491Y-14210095D01*
X281899491Y-14210095D02*
X281823300Y-14172000D01*
X281823300Y-14172000D02*
X281785205Y-14133904D01*
X281785205Y-14133904D02*
X281747110Y-14057714D01*
X281747110Y-14057714D02*
X281709014Y-13905333D01*
X281709014Y-13905333D02*
X281709014Y-13714857D01*
X281709014Y-13714857D02*
X281747110Y-13562476D01*
X281747110Y-13562476D02*
X281785205Y-13486285D01*
X281785205Y-13486285D02*
X281823300Y-13448190D01*
X281823300Y-13448190D02*
X281899491Y-13410095D01*
X283080443Y-13372000D02*
X282394729Y-14400571D01*
X283347110Y-14210095D02*
X283347110Y-13410095D01*
X283347110Y-13410095D02*
X283537586Y-13410095D01*
X283537586Y-13410095D02*
X283651872Y-13448190D01*
X283651872Y-13448190D02*
X283728062Y-13524380D01*
X283728062Y-13524380D02*
X283766157Y-13600571D01*
X283766157Y-13600571D02*
X283804253Y-13752952D01*
X283804253Y-13752952D02*
X283804253Y-13867238D01*
X283804253Y-13867238D02*
X283766157Y-14019619D01*
X283766157Y-14019619D02*
X283728062Y-14095809D01*
X283728062Y-14095809D02*
X283651872Y-14172000D01*
X283651872Y-14172000D02*
X283537586Y-14210095D01*
X283537586Y-14210095D02*
X283347110Y-14210095D01*
X284070919Y-13410095D02*
X284566157Y-13410095D01*
X284566157Y-13410095D02*
X284299491Y-13714857D01*
X284299491Y-13714857D02*
X284413776Y-13714857D01*
X284413776Y-13714857D02*
X284489967Y-13752952D01*
X284489967Y-13752952D02*
X284528062Y-13791047D01*
X284528062Y-13791047D02*
X284566157Y-13867238D01*
X284566157Y-13867238D02*
X284566157Y-14057714D01*
X284566157Y-14057714D02*
X284528062Y-14133904D01*
X284528062Y-14133904D02*
X284489967Y-14172000D01*
X284489967Y-14172000D02*
X284413776Y-14210095D01*
X284413776Y-14210095D02*
X284185205Y-14210095D01*
X284185205Y-14210095D02*
X284109014Y-14172000D01*
X284109014Y-14172000D02*
X284070919Y-14133904D01*
X273306666Y-19232000D02*
X273420952Y-19270095D01*
X273420952Y-19270095D02*
X273611428Y-19270095D01*
X273611428Y-19270095D02*
X273687619Y-19232000D01*
X273687619Y-19232000D02*
X273725714Y-19193904D01*
X273725714Y-19193904D02*
X273763809Y-19117714D01*
X273763809Y-19117714D02*
X273763809Y-19041523D01*
X273763809Y-19041523D02*
X273725714Y-18965333D01*
X273725714Y-18965333D02*
X273687619Y-18927238D01*
X273687619Y-18927238D02*
X273611428Y-18889142D01*
X273611428Y-18889142D02*
X273459047Y-18851047D01*
X273459047Y-18851047D02*
X273382857Y-18812952D01*
X273382857Y-18812952D02*
X273344762Y-18774857D01*
X273344762Y-18774857D02*
X273306666Y-18698666D01*
X273306666Y-18698666D02*
X273306666Y-18622476D01*
X273306666Y-18622476D02*
X273344762Y-18546285D01*
X273344762Y-18546285D02*
X273382857Y-18508190D01*
X273382857Y-18508190D02*
X273459047Y-18470095D01*
X273459047Y-18470095D02*
X273649524Y-18470095D01*
X273649524Y-18470095D02*
X273763809Y-18508190D01*
X273992381Y-18470095D02*
X274449524Y-18470095D01*
X274220952Y-19270095D02*
X274220952Y-18470095D01*
X285049365Y-40680058D02*
X285143646Y-40632918D01*
X285143646Y-40632918D02*
X285190786Y-40632918D01*
X285190786Y-40632918D02*
X285261497Y-40656488D01*
X285261497Y-40656488D02*
X285332208Y-40727199D01*
X285332208Y-40727199D02*
X285355778Y-40797910D01*
X285355778Y-40797910D02*
X285355778Y-40845050D01*
X285355778Y-40845050D02*
X285332208Y-40915761D01*
X285332208Y-40915761D02*
X285143646Y-41104323D01*
X285143646Y-41104323D02*
X284648671Y-40609348D01*
X284648671Y-40609348D02*
X284813663Y-40444356D01*
X284813663Y-40444356D02*
X284884373Y-40420786D01*
X284884373Y-40420786D02*
X284931514Y-40420786D01*
X284931514Y-40420786D02*
X285002225Y-40444356D01*
X285002225Y-40444356D02*
X285049365Y-40491497D01*
X285049365Y-40491497D02*
X285072935Y-40562207D01*
X285072935Y-40562207D02*
X285072935Y-40609348D01*
X285072935Y-40609348D02*
X285049365Y-40680058D01*
X285049365Y-40680058D02*
X284884373Y-40845050D01*
X285379348Y-39878671D02*
X285143646Y-40114373D01*
X285143646Y-40114373D02*
X285355778Y-40373646D01*
X285355778Y-40373646D02*
X285355778Y-40326505D01*
X285355778Y-40326505D02*
X285379348Y-40255794D01*
X285379348Y-40255794D02*
X285497199Y-40137943D01*
X285497199Y-40137943D02*
X285567910Y-40114373D01*
X285567910Y-40114373D02*
X285615050Y-40114373D01*
X285615050Y-40114373D02*
X285685761Y-40137943D01*
X285685761Y-40137943D02*
X285803612Y-40255794D01*
X285803612Y-40255794D02*
X285827183Y-40326505D01*
X285827183Y-40326505D02*
X285827183Y-40373646D01*
X285827183Y-40373646D02*
X285803612Y-40444356D01*
X285803612Y-40444356D02*
X285685761Y-40562207D01*
X285685761Y-40562207D02*
X285615050Y-40585778D01*
X285615050Y-40585778D02*
X285567910Y-40585778D01*
X283750524Y-34530095D02*
X283750524Y-33730095D01*
X283750524Y-33730095D02*
X283941000Y-33730095D01*
X283941000Y-33730095D02*
X284055286Y-33768190D01*
X284055286Y-33768190D02*
X284131476Y-33844380D01*
X284131476Y-33844380D02*
X284169571Y-33920571D01*
X284169571Y-33920571D02*
X284207667Y-34072952D01*
X284207667Y-34072952D02*
X284207667Y-34187238D01*
X284207667Y-34187238D02*
X284169571Y-34339619D01*
X284169571Y-34339619D02*
X284131476Y-34415809D01*
X284131476Y-34415809D02*
X284055286Y-34492000D01*
X284055286Y-34492000D02*
X283941000Y-34530095D01*
X283941000Y-34530095D02*
X283750524Y-34530095D01*
X284474333Y-33730095D02*
X285007667Y-33730095D01*
X285007667Y-33730095D02*
X284664809Y-34530095D01*
X278746667Y-40503904D02*
X278708571Y-40542000D01*
X278708571Y-40542000D02*
X278594286Y-40580095D01*
X278594286Y-40580095D02*
X278518095Y-40580095D01*
X278518095Y-40580095D02*
X278403809Y-40542000D01*
X278403809Y-40542000D02*
X278327619Y-40465809D01*
X278327619Y-40465809D02*
X278289524Y-40389619D01*
X278289524Y-40389619D02*
X278251428Y-40237238D01*
X278251428Y-40237238D02*
X278251428Y-40122952D01*
X278251428Y-40122952D02*
X278289524Y-39970571D01*
X278289524Y-39970571D02*
X278327619Y-39894380D01*
X278327619Y-39894380D02*
X278403809Y-39818190D01*
X278403809Y-39818190D02*
X278518095Y-39780095D01*
X278518095Y-39780095D02*
X278594286Y-39780095D01*
X278594286Y-39780095D02*
X278708571Y-39818190D01*
X278708571Y-39818190D02*
X278746667Y-39856285D01*
X279013333Y-39780095D02*
X279546667Y-39780095D01*
X279546667Y-39780095D02*
X279203809Y-40580095D01*
X273152333Y-23951047D02*
X272885667Y-23951047D01*
X272885667Y-24370095D02*
X272885667Y-23570095D01*
X272885667Y-23570095D02*
X273266619Y-23570095D01*
X273914238Y-23836761D02*
X273914238Y-24370095D01*
X273723762Y-23532000D02*
X273533285Y-24103428D01*
X273533285Y-24103428D02*
X274028524Y-24103428D01*
X273095190Y-39191047D02*
X273209476Y-39229142D01*
X273209476Y-39229142D02*
X273247571Y-39267238D01*
X273247571Y-39267238D02*
X273285667Y-39343428D01*
X273285667Y-39343428D02*
X273285667Y-39457714D01*
X273285667Y-39457714D02*
X273247571Y-39533904D01*
X273247571Y-39533904D02*
X273209476Y-39572000D01*
X273209476Y-39572000D02*
X273133286Y-39610095D01*
X273133286Y-39610095D02*
X272828524Y-39610095D01*
X272828524Y-39610095D02*
X272828524Y-38810095D01*
X272828524Y-38810095D02*
X273095190Y-38810095D01*
X273095190Y-38810095D02*
X273171381Y-38848190D01*
X273171381Y-38848190D02*
X273209476Y-38886285D01*
X273209476Y-38886285D02*
X273247571Y-38962476D01*
X273247571Y-38962476D02*
X273247571Y-39038666D01*
X273247571Y-39038666D02*
X273209476Y-39114857D01*
X273209476Y-39114857D02*
X273171381Y-39152952D01*
X273171381Y-39152952D02*
X273095190Y-39191047D01*
X273095190Y-39191047D02*
X272828524Y-39191047D01*
X273590428Y-38886285D02*
X273628524Y-38848190D01*
X273628524Y-38848190D02*
X273704714Y-38810095D01*
X273704714Y-38810095D02*
X273895190Y-38810095D01*
X273895190Y-38810095D02*
X273971381Y-38848190D01*
X273971381Y-38848190D02*
X274009476Y-38886285D01*
X274009476Y-38886285D02*
X274047571Y-38962476D01*
X274047571Y-38962476D02*
X274047571Y-39038666D01*
X274047571Y-39038666D02*
X274009476Y-39152952D01*
X274009476Y-39152952D02*
X273552333Y-39610095D01*
X273552333Y-39610095D02*
X274047571Y-39610095D01*
X273152333Y-26491047D02*
X272885667Y-26491047D01*
X272885667Y-26910095D02*
X272885667Y-26110095D01*
X272885667Y-26110095D02*
X273266619Y-26110095D01*
X273952333Y-26110095D02*
X273571381Y-26110095D01*
X273571381Y-26110095D02*
X273533285Y-26491047D01*
X273533285Y-26491047D02*
X273571381Y-26452952D01*
X273571381Y-26452952D02*
X273647571Y-26414857D01*
X273647571Y-26414857D02*
X273838047Y-26414857D01*
X273838047Y-26414857D02*
X273914238Y-26452952D01*
X273914238Y-26452952D02*
X273952333Y-26491047D01*
X273952333Y-26491047D02*
X273990428Y-26567238D01*
X273990428Y-26567238D02*
X273990428Y-26757714D01*
X273990428Y-26757714D02*
X273952333Y-26833904D01*
X273952333Y-26833904D02*
X273914238Y-26872000D01*
X273914238Y-26872000D02*
X273838047Y-26910095D01*
X273838047Y-26910095D02*
X273647571Y-26910095D01*
X273647571Y-26910095D02*
X273571381Y-26872000D01*
X273571381Y-26872000D02*
X273533285Y-26833904D01*
X272809476Y-15988190D02*
X272733286Y-15950095D01*
X272733286Y-15950095D02*
X272619000Y-15950095D01*
X272619000Y-15950095D02*
X272504714Y-15988190D01*
X272504714Y-15988190D02*
X272428524Y-16064380D01*
X272428524Y-16064380D02*
X272390429Y-16140571D01*
X272390429Y-16140571D02*
X272352333Y-16292952D01*
X272352333Y-16292952D02*
X272352333Y-16407238D01*
X272352333Y-16407238D02*
X272390429Y-16559619D01*
X272390429Y-16559619D02*
X272428524Y-16635809D01*
X272428524Y-16635809D02*
X272504714Y-16712000D01*
X272504714Y-16712000D02*
X272619000Y-16750095D01*
X272619000Y-16750095D02*
X272695191Y-16750095D01*
X272695191Y-16750095D02*
X272809476Y-16712000D01*
X272809476Y-16712000D02*
X272847572Y-16673904D01*
X272847572Y-16673904D02*
X272847572Y-16407238D01*
X272847572Y-16407238D02*
X272695191Y-16407238D01*
X273190429Y-16750095D02*
X273190429Y-15950095D01*
X273190429Y-15950095D02*
X273647572Y-16750095D01*
X273647572Y-16750095D02*
X273647572Y-15950095D01*
X274028524Y-16750095D02*
X274028524Y-15950095D01*
X274028524Y-15950095D02*
X274219000Y-15950095D01*
X274219000Y-15950095D02*
X274333286Y-15988190D01*
X274333286Y-15988190D02*
X274409476Y-16064380D01*
X274409476Y-16064380D02*
X274447571Y-16140571D01*
X274447571Y-16140571D02*
X274485667Y-16292952D01*
X274485667Y-16292952D02*
X274485667Y-16407238D01*
X274485667Y-16407238D02*
X274447571Y-16559619D01*
X274447571Y-16559619D02*
X274409476Y-16635809D01*
X274409476Y-16635809D02*
X274333286Y-16712000D01*
X274333286Y-16712000D02*
X274219000Y-16750095D01*
X274219000Y-16750095D02*
X274028524Y-16750095D01*
X273152333Y-29031047D02*
X272885667Y-29031047D01*
X272885667Y-29450095D02*
X272885667Y-28650095D01*
X272885667Y-28650095D02*
X273266619Y-28650095D01*
X273914238Y-28650095D02*
X273761857Y-28650095D01*
X273761857Y-28650095D02*
X273685666Y-28688190D01*
X273685666Y-28688190D02*
X273647571Y-28726285D01*
X273647571Y-28726285D02*
X273571381Y-28840571D01*
X273571381Y-28840571D02*
X273533285Y-28992952D01*
X273533285Y-28992952D02*
X273533285Y-29297714D01*
X273533285Y-29297714D02*
X273571381Y-29373904D01*
X273571381Y-29373904D02*
X273609476Y-29412000D01*
X273609476Y-29412000D02*
X273685666Y-29450095D01*
X273685666Y-29450095D02*
X273838047Y-29450095D01*
X273838047Y-29450095D02*
X273914238Y-29412000D01*
X273914238Y-29412000D02*
X273952333Y-29373904D01*
X273952333Y-29373904D02*
X273990428Y-29297714D01*
X273990428Y-29297714D02*
X273990428Y-29107238D01*
X273990428Y-29107238D02*
X273952333Y-29031047D01*
X273952333Y-29031047D02*
X273914238Y-28992952D01*
X273914238Y-28992952D02*
X273838047Y-28954857D01*
X273838047Y-28954857D02*
X273685666Y-28954857D01*
X273685666Y-28954857D02*
X273609476Y-28992952D01*
X273609476Y-28992952D02*
X273571381Y-29031047D01*
X273571381Y-29031047D02*
X273533285Y-29107238D01*
X276073333Y-40161047D02*
X275806667Y-40161047D01*
X275806667Y-40580095D02*
X275806667Y-39780095D01*
X275806667Y-39780095D02*
X276187619Y-39780095D01*
X276911428Y-40580095D02*
X276454285Y-40580095D01*
X276682857Y-40580095D02*
X276682857Y-39780095D01*
X276682857Y-39780095D02*
X276606666Y-39894380D01*
X276606666Y-39894380D02*
X276530476Y-39970571D01*
X276530476Y-39970571D02*
X276454285Y-40008666D01*
X283731476Y-21068190D02*
X283655286Y-21030095D01*
X283655286Y-21030095D02*
X283541000Y-21030095D01*
X283541000Y-21030095D02*
X283426714Y-21068190D01*
X283426714Y-21068190D02*
X283350524Y-21144380D01*
X283350524Y-21144380D02*
X283312429Y-21220571D01*
X283312429Y-21220571D02*
X283274333Y-21372952D01*
X283274333Y-21372952D02*
X283274333Y-21487238D01*
X283274333Y-21487238D02*
X283312429Y-21639619D01*
X283312429Y-21639619D02*
X283350524Y-21715809D01*
X283350524Y-21715809D02*
X283426714Y-21792000D01*
X283426714Y-21792000D02*
X283541000Y-21830095D01*
X283541000Y-21830095D02*
X283617191Y-21830095D01*
X283617191Y-21830095D02*
X283731476Y-21792000D01*
X283731476Y-21792000D02*
X283769572Y-21753904D01*
X283769572Y-21753904D02*
X283769572Y-21487238D01*
X283769572Y-21487238D02*
X283617191Y-21487238D01*
X284112429Y-21830095D02*
X284112429Y-21030095D01*
X284112429Y-21030095D02*
X284569572Y-21830095D01*
X284569572Y-21830095D02*
X284569572Y-21030095D01*
X284950524Y-21830095D02*
X284950524Y-21030095D01*
X284950524Y-21030095D02*
X285141000Y-21030095D01*
X285141000Y-21030095D02*
X285255286Y-21068190D01*
X285255286Y-21068190D02*
X285331476Y-21144380D01*
X285331476Y-21144380D02*
X285369571Y-21220571D01*
X285369571Y-21220571D02*
X285407667Y-21372952D01*
X285407667Y-21372952D02*
X285407667Y-21487238D01*
X285407667Y-21487238D02*
X285369571Y-21639619D01*
X285369571Y-21639619D02*
X285331476Y-21715809D01*
X285331476Y-21715809D02*
X285255286Y-21792000D01*
X285255286Y-21792000D02*
X285141000Y-21830095D01*
X285141000Y-21830095D02*
X284950524Y-21830095D01*
X283750524Y-16750095D02*
X283750524Y-15950095D01*
X283750524Y-15950095D02*
X283941000Y-15950095D01*
X283941000Y-15950095D02*
X284055286Y-15988190D01*
X284055286Y-15988190D02*
X284131476Y-16064380D01*
X284131476Y-16064380D02*
X284169571Y-16140571D01*
X284169571Y-16140571D02*
X284207667Y-16292952D01*
X284207667Y-16292952D02*
X284207667Y-16407238D01*
X284207667Y-16407238D02*
X284169571Y-16559619D01*
X284169571Y-16559619D02*
X284131476Y-16635809D01*
X284131476Y-16635809D02*
X284055286Y-16712000D01*
X284055286Y-16712000D02*
X283941000Y-16750095D01*
X283941000Y-16750095D02*
X283750524Y-16750095D01*
X284512428Y-16026285D02*
X284550524Y-15988190D01*
X284550524Y-15988190D02*
X284626714Y-15950095D01*
X284626714Y-15950095D02*
X284817190Y-15950095D01*
X284817190Y-15950095D02*
X284893381Y-15988190D01*
X284893381Y-15988190D02*
X284931476Y-16026285D01*
X284931476Y-16026285D02*
X284969571Y-16102476D01*
X284969571Y-16102476D02*
X284969571Y-16178666D01*
X284969571Y-16178666D02*
X284931476Y-16292952D01*
X284931476Y-16292952D02*
X284474333Y-16750095D01*
X284474333Y-16750095D02*
X284969571Y-16750095D01*
X284309524Y-26270095D02*
X284309524Y-25470095D01*
X284309524Y-25470095D02*
X284500000Y-25470095D01*
X284500000Y-25470095D02*
X284614286Y-25508190D01*
X284614286Y-25508190D02*
X284690476Y-25584380D01*
X284690476Y-25584380D02*
X284728571Y-25660571D01*
X284728571Y-25660571D02*
X284766667Y-25812952D01*
X284766667Y-25812952D02*
X284766667Y-25927238D01*
X284766667Y-25927238D02*
X284728571Y-26079619D01*
X284728571Y-26079619D02*
X284690476Y-26155809D01*
X284690476Y-26155809D02*
X284614286Y-26232000D01*
X284614286Y-26232000D02*
X284500000Y-26270095D01*
X284500000Y-26270095D02*
X284309524Y-26270095D01*
X285261905Y-25470095D02*
X285338095Y-25470095D01*
X285338095Y-25470095D02*
X285414286Y-25508190D01*
X285414286Y-25508190D02*
X285452381Y-25546285D01*
X285452381Y-25546285D02*
X285490476Y-25622476D01*
X285490476Y-25622476D02*
X285528571Y-25774857D01*
X285528571Y-25774857D02*
X285528571Y-25965333D01*
X285528571Y-25965333D02*
X285490476Y-26117714D01*
X285490476Y-26117714D02*
X285452381Y-26193904D01*
X285452381Y-26193904D02*
X285414286Y-26232000D01*
X285414286Y-26232000D02*
X285338095Y-26270095D01*
X285338095Y-26270095D02*
X285261905Y-26270095D01*
X285261905Y-26270095D02*
X285185714Y-26232000D01*
X285185714Y-26232000D02*
X285147619Y-26193904D01*
X285147619Y-26193904D02*
X285109524Y-26117714D01*
X285109524Y-26117714D02*
X285071428Y-25965333D01*
X285071428Y-25965333D02*
X285071428Y-25774857D01*
X285071428Y-25774857D02*
X285109524Y-25622476D01*
X285109524Y-25622476D02*
X285147619Y-25546285D01*
X285147619Y-25546285D02*
X285185714Y-25508190D01*
X285185714Y-25508190D02*
X285261905Y-25470095D01*
X274146667Y-40367166D02*
X273913333Y-40367166D01*
X273913333Y-40733833D02*
X273913333Y-40033833D01*
X273913333Y-40033833D02*
X274246667Y-40033833D01*
X274646667Y-40033833D02*
X274713333Y-40033833D01*
X274713333Y-40033833D02*
X274780000Y-40067166D01*
X274780000Y-40067166D02*
X274813333Y-40100500D01*
X274813333Y-40100500D02*
X274846667Y-40167166D01*
X274846667Y-40167166D02*
X274880000Y-40300500D01*
X274880000Y-40300500D02*
X274880000Y-40467166D01*
X274880000Y-40467166D02*
X274846667Y-40600500D01*
X274846667Y-40600500D02*
X274813333Y-40667166D01*
X274813333Y-40667166D02*
X274780000Y-40700500D01*
X274780000Y-40700500D02*
X274713333Y-40733833D01*
X274713333Y-40733833D02*
X274646667Y-40733833D01*
X274646667Y-40733833D02*
X274580000Y-40700500D01*
X274580000Y-40700500D02*
X274546667Y-40667166D01*
X274546667Y-40667166D02*
X274513333Y-40600500D01*
X274513333Y-40600500D02*
X274480000Y-40467166D01*
X274480000Y-40467166D02*
X274480000Y-40300500D01*
X274480000Y-40300500D02*
X274513333Y-40167166D01*
X274513333Y-40167166D02*
X274546667Y-40100500D01*
X274546667Y-40100500D02*
X274580000Y-40067166D01*
X274580000Y-40067166D02*
X274646667Y-40033833D01*
X283096667Y-40367166D02*
X283196667Y-40400500D01*
X283196667Y-40400500D02*
X283230000Y-40433833D01*
X283230000Y-40433833D02*
X283263333Y-40500500D01*
X283263333Y-40500500D02*
X283263333Y-40600500D01*
X283263333Y-40600500D02*
X283230000Y-40667166D01*
X283230000Y-40667166D02*
X283196667Y-40700500D01*
X283196667Y-40700500D02*
X283130000Y-40733833D01*
X283130000Y-40733833D02*
X282863333Y-40733833D01*
X282863333Y-40733833D02*
X282863333Y-40033833D01*
X282863333Y-40033833D02*
X283096667Y-40033833D01*
X283096667Y-40033833D02*
X283163333Y-40067166D01*
X283163333Y-40067166D02*
X283196667Y-40100500D01*
X283196667Y-40100500D02*
X283230000Y-40167166D01*
X283230000Y-40167166D02*
X283230000Y-40233833D01*
X283230000Y-40233833D02*
X283196667Y-40300500D01*
X283196667Y-40300500D02*
X283163333Y-40333833D01*
X283163333Y-40333833D02*
X283096667Y-40367166D01*
X283096667Y-40367166D02*
X282863333Y-40367166D01*
X283496667Y-40033833D02*
X283963333Y-40033833D01*
X283963333Y-40033833D02*
X283663333Y-40733833D01*
X272650058Y-40740634D02*
X272602918Y-40646353D01*
X272602918Y-40646353D02*
X272602918Y-40599213D01*
X272602918Y-40599213D02*
X272626488Y-40528502D01*
X272626488Y-40528502D02*
X272697199Y-40457791D01*
X272697199Y-40457791D02*
X272767910Y-40434221D01*
X272767910Y-40434221D02*
X272815050Y-40434221D01*
X272815050Y-40434221D02*
X272885761Y-40457791D01*
X272885761Y-40457791D02*
X273074323Y-40646353D01*
X273074323Y-40646353D02*
X272579348Y-41141328D01*
X272579348Y-41141328D02*
X272414356Y-40976336D01*
X272414356Y-40976336D02*
X272390786Y-40905626D01*
X272390786Y-40905626D02*
X272390786Y-40858485D01*
X272390786Y-40858485D02*
X272414356Y-40787774D01*
X272414356Y-40787774D02*
X272461497Y-40740634D01*
X272461497Y-40740634D02*
X272532207Y-40717064D01*
X272532207Y-40717064D02*
X272579348Y-40717064D01*
X272579348Y-40717064D02*
X272650058Y-40740634D01*
X272650058Y-40740634D02*
X272815050Y-40905626D01*
X271872241Y-40434221D02*
X271966522Y-40528502D01*
X271966522Y-40528502D02*
X272037233Y-40552072D01*
X272037233Y-40552072D02*
X272084373Y-40552072D01*
X272084373Y-40552072D02*
X272202224Y-40528502D01*
X272202224Y-40528502D02*
X272320075Y-40457791D01*
X272320075Y-40457791D02*
X272508637Y-40269229D01*
X272508637Y-40269229D02*
X272532207Y-40198519D01*
X272532207Y-40198519D02*
X272532207Y-40151378D01*
X272532207Y-40151378D02*
X272508637Y-40080668D01*
X272508637Y-40080668D02*
X272414356Y-39986387D01*
X272414356Y-39986387D02*
X272343646Y-39962816D01*
X272343646Y-39962816D02*
X272296505Y-39962816D01*
X272296505Y-39962816D02*
X272225794Y-39986387D01*
X272225794Y-39986387D02*
X272107943Y-40104238D01*
X272107943Y-40104238D02*
X272084373Y-40174949D01*
X272084373Y-40174949D02*
X272084373Y-40222089D01*
X272084373Y-40222089D02*
X272107943Y-40292800D01*
X272107943Y-40292800D02*
X272202224Y-40387081D01*
X272202224Y-40387081D02*
X272272935Y-40410651D01*
X272272935Y-40410651D02*
X272320075Y-40410651D01*
X272320075Y-40410651D02*
X272390786Y-40387081D01*
X284309524Y-30170095D02*
X284309524Y-29370095D01*
X284309524Y-29370095D02*
X284500000Y-29370095D01*
X284500000Y-29370095D02*
X284614286Y-29408190D01*
X284614286Y-29408190D02*
X284690476Y-29484380D01*
X284690476Y-29484380D02*
X284728571Y-29560571D01*
X284728571Y-29560571D02*
X284766667Y-29712952D01*
X284766667Y-29712952D02*
X284766667Y-29827238D01*
X284766667Y-29827238D02*
X284728571Y-29979619D01*
X284728571Y-29979619D02*
X284690476Y-30055809D01*
X284690476Y-30055809D02*
X284614286Y-30132000D01*
X284614286Y-30132000D02*
X284500000Y-30170095D01*
X284500000Y-30170095D02*
X284309524Y-30170095D01*
X285452381Y-29636761D02*
X285452381Y-30170095D01*
X285261905Y-29332000D02*
X285071428Y-29903428D01*
X285071428Y-29903428D02*
X285566667Y-29903428D01*
X273095190Y-13791047D02*
X273209476Y-13829142D01*
X273209476Y-13829142D02*
X273247571Y-13867238D01*
X273247571Y-13867238D02*
X273285667Y-13943428D01*
X273285667Y-13943428D02*
X273285667Y-14057714D01*
X273285667Y-14057714D02*
X273247571Y-14133904D01*
X273247571Y-14133904D02*
X273209476Y-14172000D01*
X273209476Y-14172000D02*
X273133286Y-14210095D01*
X273133286Y-14210095D02*
X272828524Y-14210095D01*
X272828524Y-14210095D02*
X272828524Y-13410095D01*
X272828524Y-13410095D02*
X273095190Y-13410095D01*
X273095190Y-13410095D02*
X273171381Y-13448190D01*
X273171381Y-13448190D02*
X273209476Y-13486285D01*
X273209476Y-13486285D02*
X273247571Y-13562476D01*
X273247571Y-13562476D02*
X273247571Y-13638666D01*
X273247571Y-13638666D02*
X273209476Y-13714857D01*
X273209476Y-13714857D02*
X273171381Y-13752952D01*
X273171381Y-13752952D02*
X273095190Y-13791047D01*
X273095190Y-13791047D02*
X272828524Y-13791047D01*
X273780905Y-13410095D02*
X273857095Y-13410095D01*
X273857095Y-13410095D02*
X273933286Y-13448190D01*
X273933286Y-13448190D02*
X273971381Y-13486285D01*
X273971381Y-13486285D02*
X274009476Y-13562476D01*
X274009476Y-13562476D02*
X274047571Y-13714857D01*
X274047571Y-13714857D02*
X274047571Y-13905333D01*
X274047571Y-13905333D02*
X274009476Y-14057714D01*
X274009476Y-14057714D02*
X273971381Y-14133904D01*
X273971381Y-14133904D02*
X273933286Y-14172000D01*
X273933286Y-14172000D02*
X273857095Y-14210095D01*
X273857095Y-14210095D02*
X273780905Y-14210095D01*
X273780905Y-14210095D02*
X273704714Y-14172000D01*
X273704714Y-14172000D02*
X273666619Y-14133904D01*
X273666619Y-14133904D02*
X273628524Y-14057714D01*
X273628524Y-14057714D02*
X273590428Y-13905333D01*
X273590428Y-13905333D02*
X273590428Y-13714857D01*
X273590428Y-13714857D02*
X273628524Y-13562476D01*
X273628524Y-13562476D02*
X273666619Y-13486285D01*
X273666619Y-13486285D02*
X273704714Y-13448190D01*
X273704714Y-13448190D02*
X273780905Y-13410095D01*
X273095190Y-36651047D02*
X273209476Y-36689142D01*
X273209476Y-36689142D02*
X273247571Y-36727238D01*
X273247571Y-36727238D02*
X273285667Y-36803428D01*
X273285667Y-36803428D02*
X273285667Y-36917714D01*
X273285667Y-36917714D02*
X273247571Y-36993904D01*
X273247571Y-36993904D02*
X273209476Y-37032000D01*
X273209476Y-37032000D02*
X273133286Y-37070095D01*
X273133286Y-37070095D02*
X272828524Y-37070095D01*
X272828524Y-37070095D02*
X272828524Y-36270095D01*
X272828524Y-36270095D02*
X273095190Y-36270095D01*
X273095190Y-36270095D02*
X273171381Y-36308190D01*
X273171381Y-36308190D02*
X273209476Y-36346285D01*
X273209476Y-36346285D02*
X273247571Y-36422476D01*
X273247571Y-36422476D02*
X273247571Y-36498666D01*
X273247571Y-36498666D02*
X273209476Y-36574857D01*
X273209476Y-36574857D02*
X273171381Y-36612952D01*
X273171381Y-36612952D02*
X273095190Y-36651047D01*
X273095190Y-36651047D02*
X272828524Y-36651047D01*
X273552333Y-36270095D02*
X274047571Y-36270095D01*
X274047571Y-36270095D02*
X273780905Y-36574857D01*
X273780905Y-36574857D02*
X273895190Y-36574857D01*
X273895190Y-36574857D02*
X273971381Y-36612952D01*
X273971381Y-36612952D02*
X274009476Y-36651047D01*
X274009476Y-36651047D02*
X274047571Y-36727238D01*
X274047571Y-36727238D02*
X274047571Y-36917714D01*
X274047571Y-36917714D02*
X274009476Y-36993904D01*
X274009476Y-36993904D02*
X273971381Y-37032000D01*
X273971381Y-37032000D02*
X273895190Y-37070095D01*
X273895190Y-37070095D02*
X273666619Y-37070095D01*
X273666619Y-37070095D02*
X273590428Y-37032000D01*
X273590428Y-37032000D02*
X273552333Y-36993904D01*
D11*
G04 #@! TO.C,D2*
X282647500Y-28882500D02*
X282647500Y-26612500D01*
X282647500Y-26612500D02*
X278587500Y-26612500D01*
X278587500Y-28882500D02*
X282647500Y-28882500D01*
G04 #@! TO.C,D3*
X282647500Y-38385000D02*
X282647500Y-36115000D01*
X282647500Y-36115000D02*
X278587500Y-36115000D01*
X278587500Y-38385000D02*
X282647500Y-38385000D01*
G04 #@! TO.C,RSW100*
X33200000Y-29456250D02*
X32600000Y-29456250D01*
X32900000Y-29156250D02*
X33200000Y-29456250D01*
X32600000Y-29456250D02*
X32900000Y-29156250D01*
X31500000Y-31256250D02*
X31500000Y-19456250D01*
X27400000Y-31256250D02*
X31500000Y-31256250D01*
X27400000Y-19456250D02*
X31500000Y-19456250D01*
X25900000Y-25356250D02*
X24900000Y-25356250D01*
X25400000Y-25856250D02*
X25400000Y-24856250D01*
X23400000Y-31256250D02*
X19300000Y-31256250D01*
X19300000Y-31256250D02*
X19300000Y-28856250D01*
X19300000Y-26656250D02*
X19300000Y-24056250D01*
X19300000Y-21856250D02*
X19300000Y-19456250D01*
X19300000Y-19456250D02*
X23400000Y-19456250D01*
X28400000Y-25356250D02*
G75*
G03*
X28400000Y-25356250I-3000000J0D01*
G01*
G04 #@! TO.C,RSW181*
X361812500Y-29500000D02*
X361212500Y-29500000D01*
X361512500Y-29200000D02*
X361812500Y-29500000D01*
X361212500Y-29500000D02*
X361512500Y-29200000D01*
X360112500Y-31300000D02*
X360112500Y-19500000D01*
X356012500Y-31300000D02*
X360112500Y-31300000D01*
X356012500Y-19500000D02*
X360112500Y-19500000D01*
X354512500Y-25400000D02*
X353512500Y-25400000D01*
X354012500Y-25900000D02*
X354012500Y-24900000D01*
X352012500Y-31300000D02*
X347912500Y-31300000D01*
X347912500Y-31300000D02*
X347912500Y-28900000D01*
X347912500Y-26700000D02*
X347912500Y-24100000D01*
X347912500Y-21900000D02*
X347912500Y-19500000D01*
X347912500Y-19500000D02*
X352012500Y-19500000D01*
X357012500Y-25400000D02*
G75*
G03*
X357012500Y-25400000I-3000000J0D01*
G01*
G04 #@! TO.C,D1*
X282647500Y-19385000D02*
X282647500Y-17115000D01*
X282647500Y-17115000D02*
X278587500Y-17115000D01*
X278587500Y-19385000D02*
X282647500Y-19385000D01*
D12*
G04 #@! TO.C,U1*
X287770000Y-10030000D02*
X287770000Y-43050000D01*
X269990000Y-10030000D02*
X287770000Y-10030000D01*
X285230000Y-12570000D02*
X287770000Y-12570000D01*
X285230000Y-12570000D02*
X285230000Y-15110000D01*
X285230000Y-15110000D02*
X287770000Y-15110000D01*
X287770000Y-43050000D02*
X269990000Y-43050000D01*
X269990000Y-43050000D02*
X269990000Y-10030000D01*
D10*
X273035365Y-18559030D02*
X272535365Y-18559030D01*
X272535365Y-18459030D01*
X273035365Y-18459030D01*
X273035365Y-18559030D01*
G36*
X273035365Y-18559030D02*
G01*
X272535365Y-18559030D01*
X272535365Y-18459030D01*
X273035365Y-18459030D01*
X273035365Y-18559030D01*
G37*
X273035365Y-18759030D02*
X272935365Y-18759030D01*
X272935365Y-18459030D01*
X273035365Y-18459030D01*
X273035365Y-18759030D01*
G36*
X273035365Y-18759030D02*
G01*
X272935365Y-18759030D01*
X272935365Y-18459030D01*
X273035365Y-18459030D01*
X273035365Y-18759030D01*
G37*
X272635365Y-19259030D02*
X272535365Y-19259030D01*
X272535365Y-18459030D01*
X272635365Y-18459030D01*
X272635365Y-19259030D01*
G36*
X272635365Y-19259030D02*
G01*
X272535365Y-19259030D01*
X272535365Y-18459030D01*
X272635365Y-18459030D01*
X272635365Y-19259030D01*
G37*
X272835365Y-18959030D02*
X272735365Y-18959030D01*
X272735365Y-18859030D01*
X272835365Y-18859030D01*
X272835365Y-18959030D01*
G36*
X272835365Y-18959030D02*
G01*
X272735365Y-18959030D01*
X272735365Y-18859030D01*
X272835365Y-18859030D01*
X272835365Y-18959030D01*
G37*
X273035365Y-19259030D02*
X272935365Y-19259030D01*
X272935365Y-19059030D01*
X273035365Y-19059030D01*
X273035365Y-19259030D01*
G36*
X273035365Y-19259030D02*
G01*
X272935365Y-19259030D01*
X272935365Y-19059030D01*
X273035365Y-19059030D01*
X273035365Y-19259030D01*
G37*
G04 #@! TD*
D13*
G04 #@! TO.C,U1*
X286500000Y-13840000D03*
D14*
X286500000Y-16380000D03*
X286500000Y-18920000D03*
X286500000Y-21460000D03*
X286500000Y-24000000D03*
X286500000Y-26540000D03*
X286500000Y-29080000D03*
X286500000Y-31620000D03*
X286500000Y-34160000D03*
X286500000Y-36700000D03*
X286500000Y-39240000D03*
X286271400Y-41780000D03*
X271260000Y-41780000D03*
X271260000Y-39240000D03*
X271260000Y-36700000D03*
X271260000Y-34160000D03*
X271260000Y-31620000D03*
X271260000Y-29080000D03*
X271260000Y-26540000D03*
X271260000Y-24000000D03*
X271260000Y-21460000D03*
X271260000Y-18920000D03*
X271260000Y-16380000D03*
X271260000Y-13840000D03*
X283960000Y-41780000D03*
X281420000Y-41780000D03*
X278880000Y-41780000D03*
X276340000Y-41780000D03*
X273800000Y-41780000D03*
G04 #@! TD*
%LPC*%
D15*
G04 #@! TO.C,D2*
X281675000Y-27747500D03*
X278700000Y-27747500D03*
G04 #@! TD*
G04 #@! TO.C,D3*
X281675000Y-37250000D03*
X278700000Y-37250000D03*
G04 #@! TD*
D16*
G04 #@! TO.C,MX101*
X39370000Y-25400000D03*
D17*
X44450000Y-25400000D03*
D16*
X49530000Y-25400000D03*
G04 #@! TD*
G04 #@! TO.C,MX110*
X58420000Y-25400000D03*
D17*
X63500000Y-25400000D03*
D16*
X68580000Y-25400000D03*
G04 #@! TD*
G04 #@! TO.C,MX111*
X77470000Y-25400000D03*
D17*
X82550000Y-25400000D03*
D16*
X87630000Y-25400000D03*
G04 #@! TD*
G04 #@! TO.C,MX120*
X96520000Y-25400000D03*
D17*
X101600000Y-25400000D03*
D16*
X106680000Y-25400000D03*
G04 #@! TD*
G04 #@! TO.C,MX121*
X115570000Y-25400000D03*
D17*
X120650000Y-25400000D03*
D16*
X125730000Y-25400000D03*
G04 #@! TD*
G04 #@! TO.C,MX130*
X134620000Y-25400000D03*
D17*
X139700000Y-25400000D03*
D16*
X144780000Y-25400000D03*
G04 #@! TD*
G04 #@! TO.C,MX131*
X153670000Y-25400000D03*
D17*
X158750000Y-25400000D03*
D16*
X163830000Y-25400000D03*
G04 #@! TD*
G04 #@! TO.C,MX140*
X172720000Y-25400000D03*
D17*
X177800000Y-25400000D03*
D16*
X182880000Y-25400000D03*
G04 #@! TD*
G04 #@! TO.C,MX141*
X191770000Y-25400000D03*
D17*
X196850000Y-25400000D03*
D16*
X201930000Y-25400000D03*
G04 #@! TD*
G04 #@! TO.C,MX150*
X210820000Y-25400000D03*
D17*
X215900000Y-25400000D03*
D16*
X220980000Y-25400000D03*
G04 #@! TD*
G04 #@! TO.C,MX151*
X229870000Y-25400000D03*
D17*
X234950000Y-25400000D03*
D16*
X240030000Y-25400000D03*
G04 #@! TD*
G04 #@! TO.C,MX170*
X291782500Y-25400000D03*
D17*
X296862500Y-25400000D03*
D16*
X301942500Y-25400000D03*
G04 #@! TD*
G04 #@! TO.C,MX171*
X310832500Y-25400000D03*
D17*
X315912500Y-25400000D03*
D16*
X320992500Y-25400000D03*
G04 #@! TD*
G04 #@! TO.C,MX180*
X329882500Y-25400000D03*
D17*
X334962500Y-25400000D03*
D16*
X340042500Y-25400000D03*
G04 #@! TD*
G04 #@! TO.C,MX181*
X348932500Y-25400000D03*
D17*
X354012500Y-25400000D03*
D16*
X359092500Y-25400000D03*
G04 #@! TD*
G04 #@! TO.C,MX202*
X22701250Y-44450000D03*
D17*
X27781250Y-44450000D03*
D16*
X32861250Y-44450000D03*
G04 #@! TD*
G04 #@! TO.C,MX203*
X44132500Y-44450000D03*
D17*
X49212500Y-44450000D03*
D16*
X54292500Y-44450000D03*
G04 #@! TD*
G04 #@! TO.C,MX212*
X63182500Y-44450000D03*
D17*
X68262500Y-44450000D03*
D16*
X73342500Y-44450000D03*
G04 #@! TD*
G04 #@! TO.C,MX213*
X82232500Y-44450000D03*
D17*
X87312500Y-44450000D03*
D16*
X92392500Y-44450000D03*
G04 #@! TD*
G04 #@! TO.C,MX222*
X101282500Y-44450000D03*
D17*
X106362500Y-44450000D03*
D16*
X111442500Y-44450000D03*
G04 #@! TD*
G04 #@! TO.C,MX223*
X120332500Y-44450000D03*
D17*
X125412500Y-44450000D03*
D16*
X130492500Y-44450000D03*
G04 #@! TD*
G04 #@! TO.C,MX232*
X139382500Y-44450000D03*
D17*
X144462500Y-44450000D03*
D16*
X149542500Y-44450000D03*
G04 #@! TD*
G04 #@! TO.C,MX233*
X158432500Y-44450000D03*
D17*
X163512500Y-44450000D03*
D16*
X168592500Y-44450000D03*
G04 #@! TD*
G04 #@! TO.C,MX242*
X177482500Y-44450000D03*
D17*
X182562500Y-44450000D03*
D16*
X187642500Y-44450000D03*
G04 #@! TD*
G04 #@! TO.C,MX243*
X196532500Y-44450000D03*
D17*
X201612500Y-44450000D03*
D16*
X206692500Y-44450000D03*
G04 #@! TD*
G04 #@! TO.C,MX252*
X215582500Y-44450000D03*
D17*
X220662500Y-44450000D03*
D16*
X225742500Y-44450000D03*
G04 #@! TD*
G04 #@! TO.C,MX253*
X234632500Y-44450000D03*
D17*
X239712500Y-44450000D03*
D16*
X244792500Y-44450000D03*
G04 #@! TD*
G04 #@! TO.C,MX262*
X261143750Y-40005000D03*
D17*
X261143750Y-34925000D03*
D16*
X261143750Y-29845000D03*
G04 #@! TD*
G04 #@! TO.C,MX272*
X291782500Y-44450000D03*
D17*
X296862500Y-44450000D03*
D16*
X301942500Y-44450000D03*
G04 #@! TD*
G04 #@! TO.C,MX273*
X310832500Y-44450000D03*
D17*
X315912500Y-44450000D03*
D16*
X320992500Y-44450000D03*
G04 #@! TD*
G04 #@! TO.C,MX282*
X329882500Y-44450000D03*
D17*
X334962500Y-44450000D03*
D16*
X340042500Y-44450000D03*
G04 #@! TD*
G04 #@! TO.C,MX283*
X348932500Y-44450000D03*
D17*
X354012500Y-44450000D03*
D16*
X359092500Y-44450000D03*
G04 #@! TD*
G04 #@! TO.C,MX304*
X27463750Y-63500000D03*
D17*
X32543750Y-63500000D03*
D16*
X37623750Y-63500000D03*
G04 #@! TD*
G04 #@! TO.C,MX305*
X53657500Y-63500000D03*
D17*
X58737500Y-63500000D03*
D16*
X63817500Y-63500000D03*
G04 #@! TD*
G04 #@! TO.C,MX314*
X72707500Y-63500000D03*
D17*
X77787500Y-63500000D03*
D16*
X82867500Y-63500000D03*
G04 #@! TD*
G04 #@! TO.C,MX315*
X91757500Y-63500000D03*
D17*
X96837500Y-63500000D03*
D16*
X101917500Y-63500000D03*
G04 #@! TD*
G04 #@! TO.C,MX324*
X110807500Y-63500000D03*
D17*
X115887500Y-63500000D03*
D16*
X120967500Y-63500000D03*
G04 #@! TD*
G04 #@! TO.C,MX325*
X129857500Y-63500000D03*
D17*
X134937500Y-63500000D03*
D16*
X140017500Y-63500000D03*
G04 #@! TD*
G04 #@! TO.C,MX334*
X148907500Y-63500000D03*
D17*
X153987500Y-63500000D03*
D16*
X159067500Y-63500000D03*
G04 #@! TD*
G04 #@! TO.C,MX335*
X167957500Y-63500000D03*
D17*
X173037500Y-63500000D03*
D16*
X178117500Y-63500000D03*
G04 #@! TD*
G04 #@! TO.C,MX344*
X187007500Y-63500000D03*
D17*
X192087500Y-63500000D03*
D16*
X197167500Y-63500000D03*
G04 #@! TD*
G04 #@! TO.C,MX345*
X206057500Y-63500000D03*
D17*
X211137500Y-63500000D03*
D16*
X216217500Y-63500000D03*
G04 #@! TD*
G04 #@! TO.C,MX354*
X225107500Y-63500000D03*
D17*
X230187500Y-63500000D03*
D16*
X235267500Y-63500000D03*
G04 #@! TD*
G04 #@! TO.C,MX355*
X246538750Y-63500000D03*
D17*
X251618750Y-63500000D03*
D16*
X256698750Y-63500000D03*
G04 #@! TD*
G04 #@! TO.C,MX364*
X270351250Y-65881250D03*
D17*
X275431250Y-65881250D03*
D16*
X280511250Y-65881250D03*
G04 #@! TD*
G04 #@! TO.C,MX374*
X291782500Y-63500000D03*
D17*
X296862500Y-63500000D03*
D16*
X301942500Y-63500000D03*
G04 #@! TD*
G04 #@! TO.C,MX375*
X310832500Y-63500000D03*
D17*
X315912500Y-63500000D03*
D16*
X320992500Y-63500000D03*
G04 #@! TD*
G04 #@! TO.C,MX384*
X329882500Y-63500000D03*
D17*
X334962500Y-63500000D03*
D16*
X340042500Y-63500000D03*
G04 #@! TD*
G04 #@! TO.C,MX385*
X348932500Y-63500000D03*
D17*
X354012500Y-63500000D03*
D16*
X359092500Y-63500000D03*
G04 #@! TD*
G04 #@! TO.C,MX406*
X22701250Y-82550000D03*
D17*
X27781250Y-82550000D03*
D16*
X32861250Y-82550000D03*
G04 #@! TD*
G04 #@! TO.C,MX416*
X67945000Y-82550000D03*
D17*
X73025000Y-82550000D03*
D16*
X78105000Y-82550000D03*
G04 #@! TD*
D17*
G04 #@! TO.C,MX417*
X96837500Y-74295000D03*
D18*
X96837500Y-89535000D03*
D16*
X103663750Y-82550000D03*
D17*
X108743750Y-82550000D03*
D16*
X113823750Y-82550000D03*
D17*
X120650000Y-74295000D03*
D18*
X120650000Y-89535000D03*
G04 #@! TD*
D17*
G04 #@! TO.C,MX417.700*
X73025000Y-74295000D03*
D18*
X73025000Y-89535000D03*
D16*
X125095000Y-82550000D03*
D17*
X130175000Y-82550000D03*
D16*
X135255000Y-82550000D03*
D17*
X187325000Y-74295000D03*
D18*
X187325000Y-89535000D03*
G04 #@! TD*
D17*
G04 #@! TO.C,MX437*
X144462500Y-74295000D03*
D18*
X144462500Y-89535000D03*
D16*
X151288750Y-82550000D03*
D17*
X156368750Y-82550000D03*
D16*
X161448750Y-82550000D03*
D17*
X168275000Y-74295000D03*
D18*
X168275000Y-89535000D03*
G04 #@! TD*
D16*
G04 #@! TO.C,MX446*
X182245000Y-82550000D03*
D17*
X187325000Y-82550000D03*
D16*
X192405000Y-82550000D03*
G04 #@! TD*
G04 #@! TO.C,MX447*
X203676250Y-82550000D03*
D17*
X208756250Y-82550000D03*
D16*
X213836250Y-82550000D03*
G04 #@! TD*
G04 #@! TO.C,MX456*
X227488750Y-82550000D03*
D17*
X232568750Y-82550000D03*
D16*
X237648750Y-82550000D03*
G04 #@! TD*
G04 #@! TO.C,MX457*
X251301250Y-84931250D03*
D17*
X256381250Y-84931250D03*
D16*
X261461250Y-84931250D03*
G04 #@! TD*
G04 #@! TO.C,MX467*
X270351250Y-84931250D03*
D17*
X275431250Y-84931250D03*
D16*
X280511250Y-84931250D03*
G04 #@! TD*
G04 #@! TO.C,MX476*
X289401250Y-84931250D03*
D17*
X294481250Y-84931250D03*
D16*
X299561250Y-84931250D03*
G04 #@! TD*
G04 #@! TO.C,MX477*
X310832500Y-82550000D03*
D17*
X315912500Y-82550000D03*
D16*
X320992500Y-82550000D03*
G04 #@! TD*
D17*
G04 #@! TO.C,MX477.200*
X313416950Y-74269600D03*
D18*
X313416950Y-89509600D03*
D16*
X320243200Y-82524600D03*
D17*
X325323200Y-82524600D03*
D16*
X330403200Y-82524600D03*
D17*
X337229450Y-74269600D03*
D18*
X337229450Y-89509600D03*
G04 #@! TD*
D16*
G04 #@! TO.C,MX486*
X329882500Y-82550000D03*
D17*
X334962500Y-82550000D03*
D16*
X340042500Y-82550000D03*
G04 #@! TD*
G04 #@! TO.C,MX487*
X348932500Y-82550000D03*
D17*
X354012500Y-82550000D03*
D16*
X359092500Y-82550000D03*
G04 #@! TD*
D18*
G04 #@! TO.C,MX487.200*
X360997500Y-61118750D03*
D17*
X345757500Y-61118750D03*
D16*
X354012500Y-67945000D03*
D17*
X354012500Y-73025000D03*
D16*
X354012500Y-78105000D03*
D18*
X360997500Y-84931250D03*
D17*
X345757500Y-84931250D03*
G04 #@! TD*
D19*
G04 #@! TO.C,RSW100*
X32900000Y-27856250D03*
D20*
X32900000Y-22856250D03*
X32900000Y-25356250D03*
X18400000Y-22856250D03*
X18400000Y-27856250D03*
G04 #@! TD*
D19*
G04 #@! TO.C,RSW181*
X361512500Y-27900000D03*
D20*
X361512500Y-22900000D03*
X361512500Y-25400000D03*
X347012500Y-22900000D03*
X347012500Y-27900000D03*
G04 #@! TD*
D16*
G04 #@! TO.C,MX100*
X20320000Y-25400000D03*
D17*
X25400000Y-25400000D03*
D16*
X30480000Y-25400000D03*
G04 #@! TD*
D15*
G04 #@! TO.C,D1*
X281675000Y-18250000D03*
X278700000Y-18250000D03*
G04 #@! TD*
D16*
G04 #@! TO.C,MX407*
X46513750Y-82550000D03*
D17*
X51593750Y-82550000D03*
D16*
X56673750Y-82550000D03*
G04 #@! TD*
D13*
G04 #@! TO.C,U1*
X286500000Y-13840000D03*
D14*
X286500000Y-16380000D03*
X286500000Y-18920000D03*
X286500000Y-21460000D03*
X286500000Y-24000000D03*
X286500000Y-26540000D03*
X286500000Y-29080000D03*
X286500000Y-31620000D03*
X286500000Y-34160000D03*
X286500000Y-36700000D03*
X286500000Y-39240000D03*
X286271400Y-41780000D03*
X271260000Y-41780000D03*
X271260000Y-39240000D03*
X271260000Y-36700000D03*
X271260000Y-34160000D03*
X271260000Y-31620000D03*
X271260000Y-29080000D03*
X271260000Y-26540000D03*
X271260000Y-24000000D03*
X271260000Y-21460000D03*
X271260000Y-18920000D03*
X271260000Y-16380000D03*
X271260000Y-13840000D03*
X283960000Y-41780000D03*
X281420000Y-41780000D03*
X278880000Y-41780000D03*
X276340000Y-41780000D03*
X273800000Y-41780000D03*
G04 #@! TD*
M02*
