M48
; DRILL file {KiCad 7.0.1} date Wed Apr 12 10:33:07 2023
; FORMAT={-:-/ absolute / inch / decimal}
; #@! TF.CreationDate,2023-04-12T10:33:07-04:00
; #@! TF.GenerationSoftware,Kicad,Pcbnew,7.0.1
; #@! TF.FileFunction,Plated,1,2,PTH
FMAT,2
INCH
; #@! TA.AperFunction,Plated,PTH,ViaDrill
T1C0.0118
; #@! TA.AperFunction,Plated,PTH,ComponentDrill
T2C0.0394
; #@! TA.AperFunction,Plated,PTH,ComponentDrill
T3C0.0430
; #@! TA.AperFunction,Plated,PTH,ComponentDrill
T4C0.0579
%
G90
G05
T1
X0.7244Y-0.7992
X0.8661Y-1.0984
X0.8661Y-1.1732
X0.8661Y-1.6496
X0.937Y-2.0118
X0.937Y-2.9646
X0.9646Y-1.9843
X0.9646Y-2.4016
X0.9646Y-2.6772
X1.3543Y-0.4803
X1.3543Y-1.0945
X1.3819Y-0.4528
X1.3819Y-0.9016
X1.4094Y-0.4252
X1.4094Y-0.9961
X1.4094Y-1.1457
X1.4094Y-1.874
X1.4094Y-1.9567
X1.4094Y-2.0118
X1.437Y-0.7992
X1.437Y-1.2008
X1.4921Y-0.9173
X1.4921Y-1.1181
X1.563Y-1.5472
X1.563Y-1.9016
X1.563Y-2.7323
X1.563Y-3.0472
X1.5906Y-2.7598
X1.5906Y-2.9646
X1.6181Y-1.1732
X1.6181Y-1.6654
X1.6181Y-1.8465
X1.6181Y-2.7874
X1.6181Y-3.1654
X1.7874Y-1.1732
X1.8583Y-2.2953
X1.8583Y-2.6496
X1.8858Y-2.6772
X1.9134Y-2.4134
X1.9134Y-2.7047
X2.0787Y-0.4252
X2.0787Y-1.0906
X2.0787Y-1.1457
X2.1063Y-0.7992
X2.1063Y-1.1732
X2.1614Y-0.9173
X2.1614Y-1.1457
X2.1654Y-2.6772
X2.2205Y-2.622
X2.2205Y-2.6772
X2.2874Y-1.8189
X2.2874Y-1.874
X2.315Y-1.5472
X2.315Y-1.9291
X2.3425Y-1.8189
X2.3425Y-1.9567
X2.3701Y-1.6654
X2.3701Y-1.874
X2.374Y-2.622
X2.374Y-2.6772
X2.374Y-2.7598
X2.3976Y-1.0906
X2.3976Y-1.8189
X2.4291Y-2.6772
X2.4291Y-3.0472
X2.4843Y-2.815
X2.4843Y-3.1654
X2.6024Y-1.2008
X2.6299Y-2.7598
X2.6299Y-2.8425
X2.6575Y-1.9567
X2.6575Y-2.622
X2.6575Y-2.7323
X2.6575Y-3.0472
X2.685Y-2.2953
X2.685Y-2.7598
X2.7126Y-2.622
X2.7402Y-2.4134
X2.7402Y-2.7323
X2.7874Y-1.9016
X2.8425Y-1.9016
X2.8425Y-1.9567
X2.9173Y-2.622
X3.1142Y-1.6496
X3.1614Y-2.6496
X3.2795Y-1.9016
X3.2795Y-1.9567
X3.3071Y-2.4016
X3.3504Y-1.1732
X3.5394Y-1.9291
X3.7008Y-0.4252
X3.7008Y-1.9016
X3.7008Y-1.9567
X3.7008Y-2.0118
X3.8583Y-1.1732
X3.9134Y-2.7598
X3.9685Y-2.6496
X3.9685Y-2.7598
X4.0354Y-1.1732
X4.185Y-2.0118
X4.185Y-2.6496
X4.3504Y-2.7598
X4.3504Y-2.8425
X4.3622Y-0.7992
X4.3622Y-1.2008
X4.378Y-2.6772
X4.4055Y-2.6496
X4.4055Y-2.8425
X4.4173Y-0.9173
X4.4173Y-1.1181
X4.4331Y-2.7598
X4.563Y-1.5472
X4.563Y-1.9016
X4.6181Y-1.1732
X4.622Y-1.6654
X4.622Y-1.8465
X4.7874Y-1.1732
X4.7913Y-1.9291
X4.9094Y-2.6496
X4.937Y-2.2953
X4.937Y-2.6772
X4.9646Y-2.0118
X4.9921Y-2.4134
X4.9921Y-2.7047
X5.1299Y-0.7992
X5.1299Y-1.1732
X5.1535Y-2.6496
X5.1614Y-1.9291
X5.1614Y-2.0394
X5.1811Y-2.7598
X5.185Y-0.9173
X5.185Y-1.1457
X5.189Y-1.8189
X5.189Y-1.9567
X5.2362Y-2.6496
X5.2362Y-2.7598
X5.2362Y-2.8425
X5.311Y-1.5472
X5.311Y-1.9291
X5.3386Y-1.2283
X5.3386Y-1.8189
X5.3386Y-1.9567
X5.3661Y-1.6654
X5.3661Y-1.874
X5.5984Y-1.2008
X5.626Y-1.0906
X5.626Y-1.2283
X5.6299Y-1.9567
X5.6299Y-2.0669
X5.6299Y-2.7598
X5.685Y-2.2953
X5.685Y-2.7598
X5.7402Y-2.4134
X5.7402Y-2.7323
X5.7874Y-1.9016
X5.874Y-0.4252
X5.874Y-1.0906
X5.9213Y-3.1496
X6.0906Y-1.0906
X6.0906Y-1.2008
X6.1181Y-1.2283
X6.1181Y-1.6457
X6.1614Y-2.6772
X6.2165Y-2.6772
X6.2165Y-2.8425
X6.2756Y-1.9567
X6.2756Y-2.0669
X6.3031Y-2.3976
X6.3307Y-1.9567
X6.3307Y-2.0669
X6.3307Y-2.6772
X6.3307Y-2.8425
X6.3307Y-3.1024
X6.3504Y-1.1732
X6.5394Y-1.9291
X6.7323Y-0.4252
X6.7323Y-1.2008
X6.7323Y-1.9291
X6.7323Y-2.0669
X6.8583Y-1.1732
X6.9213Y-2.7598
X6.9764Y-2.7598
X6.9764Y-3.0472
X6.9921Y-1.9567
X6.9921Y-2.0669
X7.0315Y-2.815
X7.0315Y-3.1654
X7.0394Y-1.1732
X7.0472Y-1.9567
X7.1969Y-2.6772
X7.2244Y-2.4016
X7.3071Y-0.4252
X7.3071Y-1.0906
X7.3071Y-1.2008
X7.3622Y-0.7992
X7.3622Y-1.2008
X7.4134Y-1.9567
X7.4173Y-0.9173
X7.4173Y-1.1181
X7.563Y-1.5472
X7.563Y-1.9016
X7.6142Y-1.1732
X7.626Y-1.6654
X7.626Y-1.8465
X7.6929Y-2.6772
X7.6929Y-2.8425
X7.748Y-2.6772
X7.748Y-3.0472
X7.7638Y-1.9291
X7.7638Y-2.0669
X7.7756Y-2.8425
X7.7874Y-1.1732
X7.7913Y-1.9567
X7.8031Y-2.7874
X7.8031Y-3.1654
X7.937Y-2.2953
X7.937Y-2.6496
X7.9921Y-2.4134
X7.9921Y-2.7047
X8.122Y-0.7992
X8.122Y-1.1732
X8.1417Y-2.8425
X8.1614Y-1.9567
X8.1693Y-3.1496
X8.1772Y-0.9173
X8.1772Y-1.1457
X8.2559Y-1.9291
X8.2559Y-2.0669
X8.2913Y-2.8425
X8.311Y-1.5472
X8.311Y-1.9291
X8.3189Y-2.7598
X8.3661Y-1.6654
X8.3661Y-1.874
X8.374Y-2.7598
X8.374Y-2.8425
X8.6024Y-1.2008
X8.6299Y-2.0669
X8.6299Y-2.622
X8.6299Y-2.7598
X8.6299Y-2.8425
X8.6575Y-1.0906
X8.6575Y-1.2008
X8.685Y-2.2953
X8.685Y-2.7598
X8.7402Y-2.4134
X8.7402Y-2.7323
X8.7874Y-1.9016
X8.8425Y-1.9016
X8.8425Y-1.9567
X8.874Y-0.4252
X8.874Y-1.0906
X9.0866Y-1.0906
X9.0866Y-1.2008
X9.1142Y-1.6496
X9.1417Y-1.2008
X9.1614Y-2.6496
X9.2559Y-2.6772
X9.3031Y-1.9567
X9.3031Y-2.4016
X9.3504Y-1.1732
X9.5394Y-1.9291
X9.7638Y-1.1181
X9.7638Y-1.8189
X9.7717Y-3.1496
X9.7717Y-3.2402
X9.9291Y-1.7362
X9.9291Y-1.9016
X9.9567Y-0.4252
X9.9567Y-1.2008
X9.9567Y-1.6654
X9.9567Y-1.8465
X9.9843Y-1.1457
X9.9843Y-1.9291
X10.0039Y-2.7598
X10.0118Y-1.0945
X10.0118Y-1.2283
X10.0118Y-1.8189
X10.0118Y-1.9016
X10.0394Y-1.7638
X10.0394Y-2.0118
X10.0591Y-2.7598
X10.0591Y-2.8425
X10.0669Y-1.7913
X10.0669Y-2.0394
X10.0787Y-1.5472
X10.0945Y-1.8189
X10.0945Y-1.9843
X10.1811Y-1.9843
X10.4173Y-1.0945
X10.4173Y-1.2441
X10.4173Y-1.3465
X10.4173Y-1.7362
X10.4449Y-1.1457
X10.4449Y-1.7913
X10.4724Y-1.0433
X10.4724Y-1.7638
X10.5Y-0.9449
X10.5Y-1.8189
X10.5236Y-2.0118
X10.5236Y-2.815
X10.5236Y-3.2598
X10.5512Y-2.0394
X10.5512Y-2.7874
X10.7047Y-1.9843
X10.8307Y-1.4449
X10.8425Y-2.0118
X10.8701Y-2.0394
X10.8976Y-1.9567
X10.9252Y-2.0118
X10.9291Y-1.5472
X10.9488Y-0.4252
X10.9488Y-0.6457
X10.9488Y-0.8465
X10.9528Y-1.9843
X10.9724Y-0.5433
X10.9724Y-1.1457
X10.9724Y-1.2441
X10.9803Y-2.0394
X11.0079Y-1.9016
X11.0236Y-0.4803
X11.0236Y-1.0276
X11.0315Y-1.5472
X11.0354Y-1.874
X11.0472Y-0.4528
X11.0472Y-0.9449
X11.0906Y-1.8465
X11.0906Y-1.9016
X11.0906Y-1.9567
X11.0906Y-2.0669
X11.0925Y-0.4646
X11.0945Y-0.8465
X11.0984Y-0.4252
X11.1181Y-1.9291
X11.1417Y-0.4685
X11.1693Y-0.4921
X11.2441Y-2.0118
X11.2441Y-2.7323
X11.2717Y-2.0394
X11.2717Y-2.5118
X11.2717Y-2.7047
X11.3268Y-1.9291
X11.3543Y-1.9016
X11.3543Y-2.7598
X11.4409Y-0.5197
X11.4409Y-0.5787
X11.4409Y-0.7441
X11.4409Y-0.8268
X11.4449Y-2.8425
X11.4646Y-1.3031
X11.4646Y-1.6417
X11.4685Y-0.4449
X11.4685Y-0.6693
X11.4921Y-1.2756
X11.4921Y-1.5433
X11.5236Y-0.5787
X11.5472Y-1.3307
X11.5472Y-1.4449
X11.5472Y-2.8425
X11.5512Y-0.4685
X11.5512Y-0.7087
X11.5512Y-0.7835
X11.5512Y-0.8268
X11.6102Y-0.5787
X11.6378Y-0.4921
X11.6378Y-0.748
X11.6654Y-0.4252
X11.6654Y-0.5197
X11.6654Y-0.5787
X11.6654Y-0.6969
X11.6654Y-0.7874
X11.6929Y-0.5472
X11.6929Y-0.6142
X11.9803Y-3.1417
X11.9803Y-3.4016
X12.0039Y-1.8189
X12.0039Y-1.9016
X12.0079Y-2.6772
X12.0079Y-2.7598
X12.0354Y-2.7874
X12.0354Y-3.2598
X12.0591Y-1.5472
X12.0591Y-1.9016
X12.063Y-0.6693
X12.063Y-0.7992
X12.063Y-2.2953
X12.063Y-2.7598
X12.063Y-2.8425
X12.063Y-3.1496
X12.0866Y-1.248
X12.0866Y-1.3583
X12.0866Y-1.8189
X12.0906Y-0.6969
X12.0906Y-2.6772
X12.0906Y-2.7874
X12.1142Y-1.6654
X12.1142Y-1.8465
X12.1181Y-0.9173
X12.1181Y-1.2756
X12.1181Y-2.4134
X12.1181Y-2.7047
X12.1457Y-2.3858
X12.1457Y-2.8425
X12.3031Y-1.3307
X12.811Y-0.5866
X12.811Y-0.7992
X12.811Y-1.5472
X12.811Y-1.8465
X12.811Y-2.185
X12.811Y-2.2953
X12.8661Y-0.9173
X12.8661Y-1.3031
X12.8661Y-1.6654
X12.8661Y-1.874
X12.8661Y-2.4134
X12.8661Y-2.7323
X12.9094Y-2.7323
X13.0551Y-1.0984
X13.0551Y-1.9291
X13.2874Y-0.6693
X13.2874Y-2.7598
X13.2874Y-3.4016
X13.2913Y-1.9016
X13.4764Y-0.4252
X13.4764Y-0.6969
X13.4764Y-1.126
X13.4764Y-1.248
X13.4764Y-1.8189
X13.4764Y-1.874
X13.4764Y-2.1575
X13.4764Y-2.2126
X13.4764Y-2.7047
X13.4764Y-2.7874
X13.5039Y-2.815
X13.5039Y-3.0945
X13.5591Y-2.7323
X13.5591Y-2.9764
X13.6614Y-0.5866
X13.6614Y-0.7992
X13.7992Y-1.0984
X13.7992Y-2.7283
X14.0354Y-2.185
X14.0394Y-1.8465
X14.0394Y-2.9764
X14.1772Y-0.4331
X14.1772Y-0.5866
X14.2638Y-0.6417
X14.2913Y-0.6142
X14.2913Y-1.0984
X14.3189Y-0.5866
X14.3189Y-1.0
T2
X0.7244Y-0.8999
X0.7244Y-1.0967
X1.2953Y-0.8999
X1.2953Y-0.9983
X1.2953Y-1.0967
X13.6619Y-0.9016
X13.6619Y-1.0984
X14.2328Y-0.9016
X14.2328Y-1.0
X14.2328Y-1.0984
T3
X10.6795Y-0.5449
X10.6795Y-0.6449
X10.6795Y-0.7449
X10.6795Y-0.8449
X10.6795Y-0.9449
X10.6795Y-1.0449
X10.6795Y-1.1449
X10.6795Y-1.2449
X10.6795Y-1.3449
X10.6795Y-1.4449
X10.6795Y-1.5449
X10.6795Y-1.6449
X10.7795Y-1.6449
X10.8795Y-1.6449
X10.9795Y-1.6449
X11.0795Y-1.6449
X11.1795Y-1.6449
X11.2705Y-1.6449
X11.2795Y-0.5449
X11.2795Y-0.6449
X11.2795Y-0.7449
X11.2795Y-0.8449
X11.2795Y-0.9449
X11.2795Y-1.0449
X11.2795Y-1.1449
X11.2795Y-1.2449
X11.2795Y-1.3449
X11.2795Y-1.4449
X11.2795Y-1.5449
T4
X0.85Y-0.9
X0.9437Y-1.65
X0.9437Y-3.15
X1.1Y-0.8
X1.1312Y-2.4
X1.1937Y-1.55
X1.1937Y-3.05
X1.3812Y-2.3
X1.6Y-0.9
X1.7875Y-1.65
X1.85Y-0.8
X1.8812Y-3.15
X2.0375Y-1.55
X2.1313Y-3.05
X2.1625Y-2.4
X2.35Y-0.9
X2.4125Y-2.3
X2.5375Y-1.65
X2.6Y-0.8
X2.725Y-3.15
X2.7875Y-1.55
X2.9125Y-2.4
X2.975Y-3.05
X3.1Y-0.9
X3.1625Y-2.3
X3.2875Y-1.65
X3.35Y-0.8
X3.5375Y-1.55
X3.6625Y-2.4
X3.85Y-0.9
X3.9125Y-2.3
X4.0375Y-1.65
X4.1Y-0.8
X4.1312Y-3.15
X4.2875Y-1.55
X4.3812Y-3.05
X4.4125Y-2.4
X4.6Y-0.9
X4.6625Y-2.3
X4.7875Y-1.65
X4.85Y-0.8
X4.975Y-3.15
X5.0375Y-1.55
X5.1625Y-2.4
X5.225Y-3.05
X5.35Y-0.9
X5.4125Y-2.3
X5.5375Y-1.65
X5.6Y-0.8
X5.7875Y-1.55
X5.9125Y-2.4
X6.0062Y-3.15
X6.1Y-0.9
X6.1625Y-2.3
X6.2562Y-3.05
X6.2875Y-1.65
X6.35Y-0.8
X6.5375Y-1.55
X6.6625Y-2.4
X6.85Y-0.9
X6.9125Y-2.3
X7.0375Y-1.65
X7.1Y-0.8
X7.225Y-3.15
X7.2875Y-1.55
X7.4125Y-2.4
X7.475Y-3.05
X7.6Y-0.9
X7.6625Y-2.3
X7.7875Y-1.65
X7.85Y-0.8
X8.0375Y-1.55
X8.0687Y-3.15
X8.1625Y-2.4
X8.3187Y-3.05
X8.35Y-0.9
X8.4125Y-2.3
X8.5375Y-1.65
X8.6Y-0.8
X8.7875Y-1.55
X8.9125Y-2.4
X9.0062Y-3.15
X9.1Y-0.9
X9.1625Y-2.3
X9.2562Y-3.05
X9.2875Y-1.65
X9.35Y-0.8
X9.5375Y-1.55
X9.7562Y-2.4
X9.9437Y-3.2437
X10.0062Y-2.3
X10.0812Y-1.275
X10.1813Y-1.525
X10.1937Y-3.1437
X10.6937Y-2.4937
X10.6937Y-3.2437
X10.9437Y-2.3937
X10.9437Y-3.1437
X11.4437Y-3.2437
X11.5375Y-0.9
X11.5375Y-1.65
X11.5375Y-2.4
X11.6937Y-3.1437
X11.7875Y-0.8
X11.7875Y-1.55
X11.7875Y-2.3
X12.2875Y-0.9
X12.2875Y-1.65
X12.2875Y-2.4
X12.2875Y-3.15
X12.5375Y-0.8
X12.5375Y-1.55
X12.5375Y-2.3
X12.5375Y-3.05
X12.658Y-3.149
X12.908Y-3.049
X13.0375Y-0.9
X13.0375Y-1.65
X13.0375Y-2.4
X13.0375Y-3.15
X13.2875Y-0.8
X13.2875Y-1.55
X13.2875Y-2.3
X13.2875Y-3.05
X13.7875Y-0.9
X13.7875Y-1.65
X13.7875Y-2.4
X13.7875Y-3.15
X14.0375Y-0.8
X14.0375Y-1.55
X14.0375Y-2.3
X14.0375Y-2.725
X14.0375Y-3.05
X14.1375Y-2.975
T0
M30
