M48
; DRILL file {KiCad 7.0.1} date Wed Apr 12 10:33:07 2023
; FORMAT={-:-/ absolute / inch / decimal}
; #@! TF.CreationDate,2023-04-12T10:33:07-04:00
; #@! TF.GenerationSoftware,Kicad,Pcbnew,7.0.1
; #@! TF.FileFunction,NonPlated,1,2,NPTH
FMAT,2
INCH
; #@! TA.AperFunction,NonPlated,NPTH,ComponentDrill
T1C0.0689
; #@! TA.AperFunction,NonPlated,NPTH,ComponentDrill
T2C0.1200
; #@! TA.AperFunction,NonPlated,NPTH,ComponentDrill
T3C0.1570
%
G90
G05
T1
X0.8Y-1.0
X0.8937Y-1.75
X0.8937Y-3.25
X1.0813Y-2.5
X1.2Y-1.0
X1.2937Y-1.75
X1.2937Y-3.25
X1.4812Y-2.5
X1.55Y-1.0
X1.7375Y-1.75
X1.8313Y-3.25
X1.95Y-1.0
X2.1125Y-2.5
X2.1375Y-1.75
X2.2312Y-3.25
X2.3Y-1.0
X2.4875Y-1.75
X2.5125Y-2.5
X2.675Y-3.25
X2.7Y-1.0
X2.8625Y-2.5
X2.8875Y-1.75
X3.05Y-1.0
X3.075Y-3.25
X3.2375Y-1.75
X3.2625Y-2.5
X3.45Y-1.0
X3.6125Y-2.5
X3.6375Y-1.75
X3.8Y-1.0
X3.9875Y-1.75
X4.0125Y-2.5
X4.0812Y-3.25
X4.2Y-1.0
X4.3625Y-2.5
X4.3875Y-1.75
X4.4813Y-3.25
X4.55Y-1.0
X4.7375Y-1.75
X4.7625Y-2.5
X4.925Y-3.25
X4.95Y-1.0
X5.1125Y-2.5
X5.1375Y-1.75
X5.3Y-1.0
X5.325Y-3.25
X5.4875Y-1.75
X5.5125Y-2.5
X5.7Y-1.0
X5.8625Y-2.5
X5.8875Y-1.75
X5.9562Y-3.25
X6.05Y-1.0
X6.2375Y-1.75
X6.2625Y-2.5
X6.3563Y-3.25
X6.45Y-1.0
X6.6125Y-2.5
X6.6375Y-1.75
X6.8Y-1.0
X6.9875Y-1.75
X7.0125Y-2.5
X7.175Y-3.25
X7.2Y-1.0
X7.3625Y-2.5
X7.3875Y-1.75
X7.55Y-1.0
X7.575Y-3.25
X7.7375Y-1.75
X7.7625Y-2.5
X7.95Y-1.0
X8.0187Y-3.25
X8.1125Y-2.5
X8.1375Y-1.75
X8.3Y-1.0
X8.4187Y-3.25
X8.4875Y-1.75
X8.5125Y-2.5
X8.7Y-1.0
X8.8625Y-2.5
X8.8875Y-1.75
X8.9562Y-3.25
X9.05Y-1.0
X9.2375Y-1.75
X9.2625Y-2.5
X9.3562Y-3.25
X9.45Y-1.0
X9.6375Y-1.75
X9.7062Y-2.5
X9.8937Y-3.3438
X10.1062Y-2.5
X10.2812Y-1.175
X10.2812Y-1.575
X10.2937Y-3.3438
X10.6437Y-2.5938
X10.6437Y-3.3438
X11.0437Y-2.5938
X11.0437Y-3.3438
X11.3937Y-3.3438
X11.4875Y-1.0
X11.4875Y-1.75
X11.4875Y-2.5
X11.7937Y-3.3438
X11.8875Y-1.0
X11.8875Y-1.75
X11.8875Y-2.5
X12.2375Y-1.0
X12.2375Y-1.75
X12.2375Y-2.5
X12.2375Y-3.25
X12.608Y-3.249
X12.6375Y-1.0
X12.6375Y-1.75
X12.6375Y-2.5
X12.6375Y-3.25
X12.9875Y-1.0
X12.9875Y-1.75
X12.9875Y-2.5
X12.9875Y-3.25
X13.008Y-3.249
X13.3875Y-1.0
X13.3875Y-1.75
X13.3875Y-2.5
X13.3875Y-3.25
X13.7375Y-1.0
X13.7375Y-1.75
X13.7375Y-2.5
X13.7375Y-3.25
X13.9375Y-2.675
X13.9375Y-3.075
X14.1375Y-1.0
X14.1375Y-1.75
X14.1375Y-2.5
X14.1375Y-3.25
T2
X2.875Y-3.525
X3.8125Y-3.525
X4.75Y-3.525
X5.6875Y-3.525
X6.625Y-3.525
X7.375Y-3.525
X12.3392Y-3.524
X13.2767Y-3.524
X14.2125Y-2.4062
X14.2125Y-3.3438
T3
X1.0Y-1.0
X1.0938Y-1.75
X1.0938Y-3.25
X1.2812Y-2.5
X1.75Y-1.0
X1.9375Y-1.75
X2.0312Y-3.25
X2.3125Y-2.5
X2.5Y-1.0
X2.6875Y-1.75
X2.875Y-2.925
X2.875Y-3.25
X3.0625Y-2.5
X3.25Y-1.0
X3.4375Y-1.75
X3.8125Y-2.5
X3.8125Y-2.925
X4.0Y-1.0
X4.1875Y-1.75
X4.2812Y-3.25
X4.5625Y-2.5
X4.75Y-1.0
X4.75Y-2.925
X4.9375Y-1.75
X5.125Y-3.25
X5.3125Y-2.5
X5.5Y-1.0
X5.6875Y-1.75
X5.6875Y-2.925
X6.0625Y-2.5
X6.1562Y-3.25
X6.25Y-1.0
X6.4375Y-1.75
X6.625Y-2.925
X6.8125Y-2.5
X7.0Y-1.0
X7.1875Y-1.75
X7.375Y-2.925
X7.375Y-3.25
X7.5625Y-2.5
X7.75Y-1.0
X7.9375Y-1.75
X8.2188Y-3.25
X8.3125Y-2.5
X8.5Y-1.0
X8.6875Y-1.75
X9.0625Y-2.5
X9.1562Y-3.25
X9.25Y-1.0
X9.4375Y-1.75
X9.9062Y-2.5
X10.0938Y-3.3438
X10.2812Y-1.375
X10.8438Y-2.5938
X10.8438Y-3.3438
X11.5938Y-3.3438
X11.6875Y-1.0
X11.6875Y-1.75
X11.6875Y-2.5
X12.3392Y-2.924
X12.4375Y-1.0
X12.4375Y-1.75
X12.4375Y-2.5
X12.4375Y-3.25
X12.808Y-3.249
X13.1875Y-1.0
X13.1875Y-1.75
X13.1875Y-2.5
X13.1875Y-3.25
X13.2767Y-2.924
X13.6125Y-2.4062
X13.6125Y-3.3438
X13.9375Y-1.0
X13.9375Y-1.75
X13.9375Y-2.5
X13.9375Y-2.875
X13.9375Y-3.25
T0
M30
