G04 #@! TF.GenerationSoftware,KiCad,Pcbnew,7.0.1*
G04 #@! TF.CreationDate,2023-04-12T10:33:03-04:00*
G04 #@! TF.ProjectId,kastenwagen-1840-chunky,6b617374-656e-4776-9167-656e2d313834,rev?*
G04 #@! TF.SameCoordinates,Original*
G04 #@! TF.FileFunction,Soldermask,Top*
G04 #@! TF.FilePolarity,Negative*
%FSLAX46Y46*%
G04 Gerber Fmt 4.6, Leading zero omitted, Abs format (unit mm)*
G04 Created by KiCad (PCBNEW 7.0.1) date 2023-04-12 10:33:03*
%MOMM*%
%LPD*%
G01*
G04 APERTURE LIST*
G04 Aperture macros list*
%AMRoundRect*
0 Rectangle with rounded corners*
0 $1 Rounding radius*
0 $2 $3 $4 $5 $6 $7 $8 $9 X,Y pos of 4 corners*
0 Add a 4 corners polygon primitive as box body*
4,1,4,$2,$3,$4,$5,$6,$7,$8,$9,$2,$3,0*
0 Add four circle primitives for the rounded corners*
1,1,$1+$1,$2,$3*
1,1,$1+$1,$4,$5*
1,1,$1+$1,$6,$7*
1,1,$1+$1,$8,$9*
0 Add four rect primitives between the rounded corners*
20,1,$1+$1,$2,$3,$4,$5,0*
20,1,$1+$1,$4,$5,$6,$7,0*
20,1,$1+$1,$6,$7,$8,$9,0*
20,1,$1+$1,$8,$9,$2,$3,0*%
G04 Aperture macros list end*
%ADD10RoundRect,0.250001X0.462499X0.624999X-0.462499X0.624999X-0.462499X-0.624999X0.462499X-0.624999X0*%
%ADD11C,1.750000*%
%ADD12C,3.987800*%
%ADD13C,3.048000*%
%ADD14R,2.000000X2.000000*%
%ADD15C,2.000000*%
%ADD16R,1.752600X1.752600*%
%ADD17C,1.752600*%
G04 APERTURE END LIST*
D10*
G04 #@! TO.C,D2*
X281675000Y-27747500D03*
X278700000Y-27747500D03*
G04 #@! TD*
G04 #@! TO.C,D3*
X281675000Y-37250000D03*
X278700000Y-37250000D03*
G04 #@! TD*
D11*
G04 #@! TO.C,MX101*
X39370000Y-25400000D03*
D12*
X44450000Y-25400000D03*
D11*
X49530000Y-25400000D03*
G04 #@! TD*
G04 #@! TO.C,MX110*
X58420000Y-25400000D03*
D12*
X63500000Y-25400000D03*
D11*
X68580000Y-25400000D03*
G04 #@! TD*
G04 #@! TO.C,MX111*
X77470000Y-25400000D03*
D12*
X82550000Y-25400000D03*
D11*
X87630000Y-25400000D03*
G04 #@! TD*
G04 #@! TO.C,MX120*
X96520000Y-25400000D03*
D12*
X101600000Y-25400000D03*
D11*
X106680000Y-25400000D03*
G04 #@! TD*
G04 #@! TO.C,MX121*
X115570000Y-25400000D03*
D12*
X120650000Y-25400000D03*
D11*
X125730000Y-25400000D03*
G04 #@! TD*
G04 #@! TO.C,MX130*
X134620000Y-25400000D03*
D12*
X139700000Y-25400000D03*
D11*
X144780000Y-25400000D03*
G04 #@! TD*
G04 #@! TO.C,MX131*
X153670000Y-25400000D03*
D12*
X158750000Y-25400000D03*
D11*
X163830000Y-25400000D03*
G04 #@! TD*
G04 #@! TO.C,MX140*
X172720000Y-25400000D03*
D12*
X177800000Y-25400000D03*
D11*
X182880000Y-25400000D03*
G04 #@! TD*
G04 #@! TO.C,MX141*
X191770000Y-25400000D03*
D12*
X196850000Y-25400000D03*
D11*
X201930000Y-25400000D03*
G04 #@! TD*
G04 #@! TO.C,MX150*
X210820000Y-25400000D03*
D12*
X215900000Y-25400000D03*
D11*
X220980000Y-25400000D03*
G04 #@! TD*
G04 #@! TO.C,MX151*
X229870000Y-25400000D03*
D12*
X234950000Y-25400000D03*
D11*
X240030000Y-25400000D03*
G04 #@! TD*
G04 #@! TO.C,MX170*
X291782500Y-25400000D03*
D12*
X296862500Y-25400000D03*
D11*
X301942500Y-25400000D03*
G04 #@! TD*
G04 #@! TO.C,MX171*
X310832500Y-25400000D03*
D12*
X315912500Y-25400000D03*
D11*
X320992500Y-25400000D03*
G04 #@! TD*
G04 #@! TO.C,MX180*
X329882500Y-25400000D03*
D12*
X334962500Y-25400000D03*
D11*
X340042500Y-25400000D03*
G04 #@! TD*
G04 #@! TO.C,MX181*
X348932500Y-25400000D03*
D12*
X354012500Y-25400000D03*
D11*
X359092500Y-25400000D03*
G04 #@! TD*
G04 #@! TO.C,MX202*
X22701250Y-44450000D03*
D12*
X27781250Y-44450000D03*
D11*
X32861250Y-44450000D03*
G04 #@! TD*
G04 #@! TO.C,MX203*
X44132500Y-44450000D03*
D12*
X49212500Y-44450000D03*
D11*
X54292500Y-44450000D03*
G04 #@! TD*
G04 #@! TO.C,MX212*
X63182500Y-44450000D03*
D12*
X68262500Y-44450000D03*
D11*
X73342500Y-44450000D03*
G04 #@! TD*
G04 #@! TO.C,MX213*
X82232500Y-44450000D03*
D12*
X87312500Y-44450000D03*
D11*
X92392500Y-44450000D03*
G04 #@! TD*
G04 #@! TO.C,MX222*
X101282500Y-44450000D03*
D12*
X106362500Y-44450000D03*
D11*
X111442500Y-44450000D03*
G04 #@! TD*
G04 #@! TO.C,MX223*
X120332500Y-44450000D03*
D12*
X125412500Y-44450000D03*
D11*
X130492500Y-44450000D03*
G04 #@! TD*
G04 #@! TO.C,MX232*
X139382500Y-44450000D03*
D12*
X144462500Y-44450000D03*
D11*
X149542500Y-44450000D03*
G04 #@! TD*
G04 #@! TO.C,MX233*
X158432500Y-44450000D03*
D12*
X163512500Y-44450000D03*
D11*
X168592500Y-44450000D03*
G04 #@! TD*
G04 #@! TO.C,MX242*
X177482500Y-44450000D03*
D12*
X182562500Y-44450000D03*
D11*
X187642500Y-44450000D03*
G04 #@! TD*
G04 #@! TO.C,MX243*
X196532500Y-44450000D03*
D12*
X201612500Y-44450000D03*
D11*
X206692500Y-44450000D03*
G04 #@! TD*
G04 #@! TO.C,MX252*
X215582500Y-44450000D03*
D12*
X220662500Y-44450000D03*
D11*
X225742500Y-44450000D03*
G04 #@! TD*
G04 #@! TO.C,MX253*
X234632500Y-44450000D03*
D12*
X239712500Y-44450000D03*
D11*
X244792500Y-44450000D03*
G04 #@! TD*
G04 #@! TO.C,MX262*
X261143750Y-40005000D03*
D12*
X261143750Y-34925000D03*
D11*
X261143750Y-29845000D03*
G04 #@! TD*
G04 #@! TO.C,MX272*
X291782500Y-44450000D03*
D12*
X296862500Y-44450000D03*
D11*
X301942500Y-44450000D03*
G04 #@! TD*
G04 #@! TO.C,MX273*
X310832500Y-44450000D03*
D12*
X315912500Y-44450000D03*
D11*
X320992500Y-44450000D03*
G04 #@! TD*
G04 #@! TO.C,MX282*
X329882500Y-44450000D03*
D12*
X334962500Y-44450000D03*
D11*
X340042500Y-44450000D03*
G04 #@! TD*
G04 #@! TO.C,MX283*
X348932500Y-44450000D03*
D12*
X354012500Y-44450000D03*
D11*
X359092500Y-44450000D03*
G04 #@! TD*
G04 #@! TO.C,MX304*
X27463750Y-63500000D03*
D12*
X32543750Y-63500000D03*
D11*
X37623750Y-63500000D03*
G04 #@! TD*
G04 #@! TO.C,MX305*
X53657500Y-63500000D03*
D12*
X58737500Y-63500000D03*
D11*
X63817500Y-63500000D03*
G04 #@! TD*
G04 #@! TO.C,MX314*
X72707500Y-63500000D03*
D12*
X77787500Y-63500000D03*
D11*
X82867500Y-63500000D03*
G04 #@! TD*
G04 #@! TO.C,MX315*
X91757500Y-63500000D03*
D12*
X96837500Y-63500000D03*
D11*
X101917500Y-63500000D03*
G04 #@! TD*
G04 #@! TO.C,MX324*
X110807500Y-63500000D03*
D12*
X115887500Y-63500000D03*
D11*
X120967500Y-63500000D03*
G04 #@! TD*
G04 #@! TO.C,MX325*
X129857500Y-63500000D03*
D12*
X134937500Y-63500000D03*
D11*
X140017500Y-63500000D03*
G04 #@! TD*
G04 #@! TO.C,MX334*
X148907500Y-63500000D03*
D12*
X153987500Y-63500000D03*
D11*
X159067500Y-63500000D03*
G04 #@! TD*
G04 #@! TO.C,MX335*
X167957500Y-63500000D03*
D12*
X173037500Y-63500000D03*
D11*
X178117500Y-63500000D03*
G04 #@! TD*
G04 #@! TO.C,MX344*
X187007500Y-63500000D03*
D12*
X192087500Y-63500000D03*
D11*
X197167500Y-63500000D03*
G04 #@! TD*
G04 #@! TO.C,MX345*
X206057500Y-63500000D03*
D12*
X211137500Y-63500000D03*
D11*
X216217500Y-63500000D03*
G04 #@! TD*
G04 #@! TO.C,MX354*
X225107500Y-63500000D03*
D12*
X230187500Y-63500000D03*
D11*
X235267500Y-63500000D03*
G04 #@! TD*
G04 #@! TO.C,MX355*
X246538750Y-63500000D03*
D12*
X251618750Y-63500000D03*
D11*
X256698750Y-63500000D03*
G04 #@! TD*
G04 #@! TO.C,MX364*
X270351250Y-65881250D03*
D12*
X275431250Y-65881250D03*
D11*
X280511250Y-65881250D03*
G04 #@! TD*
G04 #@! TO.C,MX374*
X291782500Y-63500000D03*
D12*
X296862500Y-63500000D03*
D11*
X301942500Y-63500000D03*
G04 #@! TD*
G04 #@! TO.C,MX375*
X310832500Y-63500000D03*
D12*
X315912500Y-63500000D03*
D11*
X320992500Y-63500000D03*
G04 #@! TD*
G04 #@! TO.C,MX384*
X329882500Y-63500000D03*
D12*
X334962500Y-63500000D03*
D11*
X340042500Y-63500000D03*
G04 #@! TD*
G04 #@! TO.C,MX385*
X348932500Y-63500000D03*
D12*
X354012500Y-63500000D03*
D11*
X359092500Y-63500000D03*
G04 #@! TD*
G04 #@! TO.C,MX406*
X22701250Y-82550000D03*
D12*
X27781250Y-82550000D03*
D11*
X32861250Y-82550000D03*
G04 #@! TD*
G04 #@! TO.C,MX416*
X67945000Y-82550000D03*
D12*
X73025000Y-82550000D03*
D11*
X78105000Y-82550000D03*
G04 #@! TD*
D12*
G04 #@! TO.C,MX417*
X96837500Y-74295000D03*
D13*
X96837500Y-89535000D03*
D11*
X103663750Y-82550000D03*
D12*
X108743750Y-82550000D03*
D11*
X113823750Y-82550000D03*
D12*
X120650000Y-74295000D03*
D13*
X120650000Y-89535000D03*
G04 #@! TD*
D12*
G04 #@! TO.C,MX417.700*
X73025000Y-74295000D03*
D13*
X73025000Y-89535000D03*
D11*
X125095000Y-82550000D03*
D12*
X130175000Y-82550000D03*
D11*
X135255000Y-82550000D03*
D12*
X187325000Y-74295000D03*
D13*
X187325000Y-89535000D03*
G04 #@! TD*
D12*
G04 #@! TO.C,MX437*
X144462500Y-74295000D03*
D13*
X144462500Y-89535000D03*
D11*
X151288750Y-82550000D03*
D12*
X156368750Y-82550000D03*
D11*
X161448750Y-82550000D03*
D12*
X168275000Y-74295000D03*
D13*
X168275000Y-89535000D03*
G04 #@! TD*
D11*
G04 #@! TO.C,MX446*
X182245000Y-82550000D03*
D12*
X187325000Y-82550000D03*
D11*
X192405000Y-82550000D03*
G04 #@! TD*
G04 #@! TO.C,MX447*
X203676250Y-82550000D03*
D12*
X208756250Y-82550000D03*
D11*
X213836250Y-82550000D03*
G04 #@! TD*
G04 #@! TO.C,MX456*
X227488750Y-82550000D03*
D12*
X232568750Y-82550000D03*
D11*
X237648750Y-82550000D03*
G04 #@! TD*
G04 #@! TO.C,MX457*
X251301250Y-84931250D03*
D12*
X256381250Y-84931250D03*
D11*
X261461250Y-84931250D03*
G04 #@! TD*
G04 #@! TO.C,MX467*
X270351250Y-84931250D03*
D12*
X275431250Y-84931250D03*
D11*
X280511250Y-84931250D03*
G04 #@! TD*
G04 #@! TO.C,MX476*
X289401250Y-84931250D03*
D12*
X294481250Y-84931250D03*
D11*
X299561250Y-84931250D03*
G04 #@! TD*
G04 #@! TO.C,MX477*
X310832500Y-82550000D03*
D12*
X315912500Y-82550000D03*
D11*
X320992500Y-82550000D03*
G04 #@! TD*
D12*
G04 #@! TO.C,MX477.200*
X313416950Y-74269600D03*
D13*
X313416950Y-89509600D03*
D11*
X320243200Y-82524600D03*
D12*
X325323200Y-82524600D03*
D11*
X330403200Y-82524600D03*
D12*
X337229450Y-74269600D03*
D13*
X337229450Y-89509600D03*
G04 #@! TD*
D11*
G04 #@! TO.C,MX486*
X329882500Y-82550000D03*
D12*
X334962500Y-82550000D03*
D11*
X340042500Y-82550000D03*
G04 #@! TD*
G04 #@! TO.C,MX487*
X348932500Y-82550000D03*
D12*
X354012500Y-82550000D03*
D11*
X359092500Y-82550000D03*
G04 #@! TD*
D13*
G04 #@! TO.C,MX487.200*
X360997500Y-61118750D03*
D12*
X345757500Y-61118750D03*
D11*
X354012500Y-67945000D03*
D12*
X354012500Y-73025000D03*
D11*
X354012500Y-78105000D03*
D13*
X360997500Y-84931250D03*
D12*
X345757500Y-84931250D03*
G04 #@! TD*
D14*
G04 #@! TO.C,RSW100*
X32900000Y-27856250D03*
D15*
X32900000Y-22856250D03*
X32900000Y-25356250D03*
X18400000Y-22856250D03*
X18400000Y-27856250D03*
G04 #@! TD*
D14*
G04 #@! TO.C,RSW181*
X361512500Y-27900000D03*
D15*
X361512500Y-22900000D03*
X361512500Y-25400000D03*
X347012500Y-22900000D03*
X347012500Y-27900000D03*
G04 #@! TD*
D11*
G04 #@! TO.C,MX100*
X20320000Y-25400000D03*
D12*
X25400000Y-25400000D03*
D11*
X30480000Y-25400000D03*
G04 #@! TD*
D10*
G04 #@! TO.C,D1*
X281675000Y-18250000D03*
X278700000Y-18250000D03*
G04 #@! TD*
D11*
G04 #@! TO.C,MX407*
X46513750Y-82550000D03*
D12*
X51593750Y-82550000D03*
D11*
X56673750Y-82550000D03*
G04 #@! TD*
D16*
G04 #@! TO.C,U1*
X286500000Y-13840000D03*
D17*
X286500000Y-16380000D03*
X286500000Y-18920000D03*
X286500000Y-21460000D03*
X286500000Y-24000000D03*
X286500000Y-26540000D03*
X286500000Y-29080000D03*
X286500000Y-31620000D03*
X286500000Y-34160000D03*
X286500000Y-36700000D03*
X286500000Y-39240000D03*
X286271400Y-41780000D03*
X271260000Y-41780000D03*
X271260000Y-39240000D03*
X271260000Y-36700000D03*
X271260000Y-34160000D03*
X271260000Y-31620000D03*
X271260000Y-29080000D03*
X271260000Y-26540000D03*
X271260000Y-24000000D03*
X271260000Y-21460000D03*
X271260000Y-18920000D03*
X271260000Y-16380000D03*
X271260000Y-13840000D03*
X283960000Y-41780000D03*
X281420000Y-41780000D03*
X278880000Y-41780000D03*
X276340000Y-41780000D03*
X273800000Y-41780000D03*
G04 #@! TD*
M02*
