G04 #@! TF.GenerationSoftware,KiCad,Pcbnew,(5.1.9)-1*
G04 #@! TF.CreationDate,2021-06-18T13:11:12-04:00*
G04 #@! TF.ProjectId,kastenwagen-plate,6b617374-656e-4776-9167-656e2d706c61,rev?*
G04 #@! TF.SameCoordinates,Original*
G04 #@! TF.FileFunction,Legend,Bot*
G04 #@! TF.FilePolarity,Positive*
%FSLAX46Y46*%
G04 Gerber Fmt 4.6, Leading zero omitted, Abs format (unit mm)*
G04 Created by KiCad (PCBNEW (5.1.9)-1) date 2021-06-18 13:11:12*
%MOMM*%
%LPD*%
G01*
G04 APERTURE LIST*
%ADD10C,0.200000*%
%ADD11C,0.150000*%
G04 APERTURE END LIST*
D10*
X91373571Y-11628571D02*
X91230714Y-11676190D01*
X91183095Y-11723809D01*
X91135476Y-11819047D01*
X91135476Y-11961904D01*
X91183095Y-12057142D01*
X91230714Y-12104761D01*
X91325952Y-12152380D01*
X91706904Y-12152380D01*
X91706904Y-11152380D01*
X91373571Y-11152380D01*
X91278333Y-11200000D01*
X91230714Y-11247619D01*
X91183095Y-11342857D01*
X91183095Y-11438095D01*
X91230714Y-11533333D01*
X91278333Y-11580952D01*
X91373571Y-11628571D01*
X91706904Y-11628571D01*
X90278333Y-11485714D02*
X90278333Y-12152380D01*
X90706904Y-11485714D02*
X90706904Y-12009523D01*
X90659285Y-12104761D01*
X90564047Y-12152380D01*
X90421190Y-12152380D01*
X90325952Y-12104761D01*
X90278333Y-12057142D01*
X89802142Y-12152380D02*
X89802142Y-11485714D01*
X89802142Y-11152380D02*
X89849761Y-11200000D01*
X89802142Y-11247619D01*
X89754523Y-11200000D01*
X89802142Y-11152380D01*
X89802142Y-11247619D01*
X89183095Y-12152380D02*
X89278333Y-12104761D01*
X89325952Y-12009523D01*
X89325952Y-11152380D01*
X88373571Y-12152380D02*
X88373571Y-11152380D01*
X88373571Y-12104761D02*
X88468809Y-12152380D01*
X88659285Y-12152380D01*
X88754523Y-12104761D01*
X88802142Y-12057142D01*
X88849761Y-11961904D01*
X88849761Y-11676190D01*
X88802142Y-11580952D01*
X88754523Y-11533333D01*
X88659285Y-11485714D01*
X88468809Y-11485714D01*
X88373571Y-11533333D01*
X87135476Y-12152380D02*
X87135476Y-11152380D01*
X86564047Y-12152380D01*
X86564047Y-11152380D01*
X85945000Y-12152380D02*
X86040238Y-12104761D01*
X86087857Y-12057142D01*
X86135476Y-11961904D01*
X86135476Y-11676190D01*
X86087857Y-11580952D01*
X86040238Y-11533333D01*
X85945000Y-11485714D01*
X85802142Y-11485714D01*
X85706904Y-11533333D01*
X85659285Y-11580952D01*
X85611666Y-11676190D01*
X85611666Y-11961904D01*
X85659285Y-12057142D01*
X85706904Y-12104761D01*
X85802142Y-12152380D01*
X85945000Y-12152380D01*
X85325952Y-11485714D02*
X84945000Y-11485714D01*
X85183095Y-11152380D02*
X85183095Y-12009523D01*
X85135476Y-12104761D01*
X85040238Y-12152380D01*
X84945000Y-12152380D01*
X84230714Y-12104761D02*
X84325952Y-12152380D01*
X84516428Y-12152380D01*
X84611666Y-12104761D01*
X84659285Y-12009523D01*
X84659285Y-11628571D01*
X84611666Y-11533333D01*
X84516428Y-11485714D01*
X84325952Y-11485714D01*
X84230714Y-11533333D01*
X84183095Y-11628571D01*
X84183095Y-11723809D01*
X84659285Y-11819047D01*
X83802142Y-12104761D02*
X83706904Y-12152380D01*
X83516428Y-12152380D01*
X83421190Y-12104761D01*
X83373571Y-12009523D01*
X83373571Y-11961904D01*
X83421190Y-11866666D01*
X83516428Y-11819047D01*
X83659285Y-11819047D01*
X83754523Y-11771428D01*
X83802142Y-11676190D01*
X83802142Y-11628571D01*
X83754523Y-11533333D01*
X83659285Y-11485714D01*
X83516428Y-11485714D01*
X83421190Y-11533333D01*
X82945000Y-12057142D02*
X82897380Y-12104761D01*
X82945000Y-12152380D01*
X82992619Y-12104761D01*
X82945000Y-12057142D01*
X82945000Y-12152380D01*
X82945000Y-11533333D02*
X82897380Y-11580952D01*
X82945000Y-11628571D01*
X82992619Y-11580952D01*
X82945000Y-11533333D01*
X82945000Y-11628571D01*
X91706904Y-13852380D02*
X91706904Y-12852380D01*
X91468809Y-12852380D01*
X91325952Y-12900000D01*
X91230714Y-12995238D01*
X91183095Y-13090476D01*
X91135476Y-13280952D01*
X91135476Y-13423809D01*
X91183095Y-13614285D01*
X91230714Y-13709523D01*
X91325952Y-13804761D01*
X91468809Y-13852380D01*
X91706904Y-13852380D01*
X90706904Y-13852380D02*
X90706904Y-13185714D01*
X90706904Y-12852380D02*
X90754523Y-12900000D01*
X90706904Y-12947619D01*
X90659285Y-12900000D01*
X90706904Y-12852380D01*
X90706904Y-12947619D01*
X90087857Y-13852380D02*
X90183095Y-13804761D01*
X90230714Y-13757142D01*
X90278333Y-13661904D01*
X90278333Y-13376190D01*
X90230714Y-13280952D01*
X90183095Y-13233333D01*
X90087857Y-13185714D01*
X89945000Y-13185714D01*
X89849761Y-13233333D01*
X89802142Y-13280952D01*
X89754523Y-13376190D01*
X89754523Y-13661904D01*
X89802142Y-13757142D01*
X89849761Y-13804761D01*
X89945000Y-13852380D01*
X90087857Y-13852380D01*
X88897380Y-13852380D02*
X88897380Y-12852380D01*
X88897380Y-13804761D02*
X88992619Y-13852380D01*
X89183095Y-13852380D01*
X89278333Y-13804761D01*
X89325952Y-13757142D01*
X89373571Y-13661904D01*
X89373571Y-13376190D01*
X89325952Y-13280952D01*
X89278333Y-13233333D01*
X89183095Y-13185714D01*
X88992619Y-13185714D01*
X88897380Y-13233333D01*
X88040238Y-13804761D02*
X88135476Y-13852380D01*
X88325952Y-13852380D01*
X88421190Y-13804761D01*
X88468809Y-13709523D01*
X88468809Y-13328571D01*
X88421190Y-13233333D01*
X88325952Y-13185714D01*
X88135476Y-13185714D01*
X88040238Y-13233333D01*
X87992619Y-13328571D01*
X87992619Y-13423809D01*
X88468809Y-13519047D01*
X87611666Y-13804761D02*
X87516428Y-13852380D01*
X87325952Y-13852380D01*
X87230714Y-13804761D01*
X87183095Y-13709523D01*
X87183095Y-13661904D01*
X87230714Y-13566666D01*
X87325952Y-13519047D01*
X87468809Y-13519047D01*
X87564047Y-13471428D01*
X87611666Y-13376190D01*
X87611666Y-13328571D01*
X87564047Y-13233333D01*
X87468809Y-13185714D01*
X87325952Y-13185714D01*
X87230714Y-13233333D01*
X86706904Y-13804761D02*
X86706904Y-13852380D01*
X86754523Y-13947619D01*
X86802142Y-13995238D01*
X85516428Y-13328571D02*
X85183095Y-13328571D01*
X85040238Y-13852380D02*
X85516428Y-13852380D01*
X85516428Y-12852380D01*
X85040238Y-12852380D01*
X84468809Y-13852380D02*
X84564047Y-13804761D01*
X84611666Y-13709523D01*
X84611666Y-12852380D01*
X84087857Y-13852380D02*
X84087857Y-13185714D01*
X84087857Y-12852380D02*
X84135476Y-12900000D01*
X84087857Y-12947619D01*
X84040238Y-12900000D01*
X84087857Y-12852380D01*
X84087857Y-12947619D01*
X83754523Y-13185714D02*
X83373571Y-13185714D01*
X83611666Y-12852380D02*
X83611666Y-13709523D01*
X83564047Y-13804761D01*
X83468809Y-13852380D01*
X83373571Y-13852380D01*
X82659285Y-13804761D02*
X82754523Y-13852380D01*
X82945000Y-13852380D01*
X83040238Y-13804761D01*
X83087857Y-13709523D01*
X83087857Y-13328571D01*
X83040238Y-13233333D01*
X82945000Y-13185714D01*
X82754523Y-13185714D01*
X82659285Y-13233333D01*
X82611666Y-13328571D01*
X82611666Y-13423809D01*
X83087857Y-13519047D01*
X80849761Y-13757142D02*
X80897380Y-13804761D01*
X81040238Y-13852380D01*
X81135476Y-13852380D01*
X81278333Y-13804761D01*
X81373571Y-13709523D01*
X81421190Y-13614285D01*
X81468809Y-13423809D01*
X81468809Y-13280952D01*
X81421190Y-13090476D01*
X81373571Y-12995238D01*
X81278333Y-12900000D01*
X81135476Y-12852380D01*
X81040238Y-12852380D01*
X80897380Y-12900000D01*
X80849761Y-12947619D01*
X80373571Y-13804761D02*
X80373571Y-13852380D01*
X80421190Y-13947619D01*
X80468809Y-13995238D01*
X78373571Y-13852380D02*
X78421190Y-13852380D01*
X78516428Y-13804761D01*
X78659285Y-13661904D01*
X78897380Y-13376190D01*
X78992619Y-13233333D01*
X79040238Y-13090476D01*
X79040238Y-12995238D01*
X78992619Y-12900000D01*
X78897380Y-12852380D01*
X78849761Y-12852380D01*
X78754523Y-12900000D01*
X78706904Y-12995238D01*
X78706904Y-13042857D01*
X78754523Y-13138095D01*
X78802142Y-13185714D01*
X79087857Y-13376190D01*
X79135476Y-13423809D01*
X79183095Y-13519047D01*
X79183095Y-13661904D01*
X79135476Y-13757142D01*
X79087857Y-13804761D01*
X78992619Y-13852380D01*
X78849761Y-13852380D01*
X78754523Y-13804761D01*
X78706904Y-13757142D01*
X78564047Y-13566666D01*
X78516428Y-13423809D01*
X78516428Y-13328571D01*
X76611666Y-13852380D02*
X76945000Y-13376190D01*
X77183095Y-13852380D02*
X77183095Y-12852380D01*
X76802142Y-12852380D01*
X76706904Y-12900000D01*
X76659285Y-12947619D01*
X76611666Y-13042857D01*
X76611666Y-13185714D01*
X76659285Y-13280952D01*
X76706904Y-13328571D01*
X76802142Y-13376190D01*
X77183095Y-13376190D01*
X75802142Y-13804761D02*
X75897380Y-13852380D01*
X76087857Y-13852380D01*
X76183095Y-13804761D01*
X76230714Y-13709523D01*
X76230714Y-13328571D01*
X76183095Y-13233333D01*
X76087857Y-13185714D01*
X75897380Y-13185714D01*
X75802142Y-13233333D01*
X75754523Y-13328571D01*
X75754523Y-13423809D01*
X76230714Y-13519047D01*
X75373571Y-13804761D02*
X75278333Y-13852380D01*
X75087857Y-13852380D01*
X74992619Y-13804761D01*
X74945000Y-13709523D01*
X74945000Y-13661904D01*
X74992619Y-13566666D01*
X75087857Y-13519047D01*
X75230714Y-13519047D01*
X75325952Y-13471428D01*
X75373571Y-13376190D01*
X75373571Y-13328571D01*
X75325952Y-13233333D01*
X75230714Y-13185714D01*
X75087857Y-13185714D01*
X74992619Y-13233333D01*
X74516428Y-13852380D02*
X74516428Y-13185714D01*
X74516428Y-12852380D02*
X74564047Y-12900000D01*
X74516428Y-12947619D01*
X74468809Y-12900000D01*
X74516428Y-12852380D01*
X74516428Y-12947619D01*
X74087857Y-13804761D02*
X73992619Y-13852380D01*
X73802142Y-13852380D01*
X73706904Y-13804761D01*
X73659285Y-13709523D01*
X73659285Y-13661904D01*
X73706904Y-13566666D01*
X73802142Y-13519047D01*
X73945000Y-13519047D01*
X74040238Y-13471428D01*
X74087857Y-13376190D01*
X74087857Y-13328571D01*
X74040238Y-13233333D01*
X73945000Y-13185714D01*
X73802142Y-13185714D01*
X73706904Y-13233333D01*
X73373571Y-13185714D02*
X72992619Y-13185714D01*
X73230714Y-12852380D02*
X73230714Y-13709523D01*
X73183095Y-13804761D01*
X73087857Y-13852380D01*
X72992619Y-13852380D01*
X72516428Y-13852380D02*
X72611666Y-13804761D01*
X72659285Y-13757142D01*
X72706904Y-13661904D01*
X72706904Y-13376190D01*
X72659285Y-13280952D01*
X72611666Y-13233333D01*
X72516428Y-13185714D01*
X72373571Y-13185714D01*
X72278333Y-13233333D01*
X72230714Y-13280952D01*
X72183095Y-13376190D01*
X72183095Y-13661904D01*
X72230714Y-13757142D01*
X72278333Y-13804761D01*
X72373571Y-13852380D01*
X72516428Y-13852380D01*
X71754523Y-13852380D02*
X71754523Y-13185714D01*
X71754523Y-13376190D02*
X71706904Y-13280952D01*
X71659285Y-13233333D01*
X71564047Y-13185714D01*
X71468809Y-13185714D01*
X71183095Y-13804761D02*
X71087857Y-13852380D01*
X70897380Y-13852380D01*
X70802142Y-13804761D01*
X70754523Y-13709523D01*
X70754523Y-13661904D01*
X70802142Y-13566666D01*
X70897380Y-13519047D01*
X71040238Y-13519047D01*
X71135476Y-13471428D01*
X71183095Y-13376190D01*
X71183095Y-13328571D01*
X71135476Y-13233333D01*
X71040238Y-13185714D01*
X70897380Y-13185714D01*
X70802142Y-13233333D01*
X69135476Y-13852380D02*
X69135476Y-13328571D01*
X69183095Y-13233333D01*
X69278333Y-13185714D01*
X69468809Y-13185714D01*
X69564047Y-13233333D01*
X69135476Y-13804761D02*
X69230714Y-13852380D01*
X69468809Y-13852380D01*
X69564047Y-13804761D01*
X69611666Y-13709523D01*
X69611666Y-13614285D01*
X69564047Y-13519047D01*
X69468809Y-13471428D01*
X69230714Y-13471428D01*
X69135476Y-13423809D01*
X68516428Y-13852380D02*
X68611666Y-13804761D01*
X68659285Y-13709523D01*
X68659285Y-12852380D01*
X67992619Y-13852380D02*
X68087857Y-13804761D01*
X68135476Y-13709523D01*
X68135476Y-12852380D01*
X66897380Y-13804761D02*
X66802142Y-13852380D01*
X66611666Y-13852380D01*
X66516428Y-13804761D01*
X66468809Y-13709523D01*
X66468809Y-13661904D01*
X66516428Y-13566666D01*
X66611666Y-13519047D01*
X66754523Y-13519047D01*
X66849761Y-13471428D01*
X66897380Y-13376190D01*
X66897380Y-13328571D01*
X66849761Y-13233333D01*
X66754523Y-13185714D01*
X66611666Y-13185714D01*
X66516428Y-13233333D01*
X65611666Y-13185714D02*
X65611666Y-13852380D01*
X66040238Y-13185714D02*
X66040238Y-13709523D01*
X65992619Y-13804761D01*
X65897380Y-13852380D01*
X65754523Y-13852380D01*
X65659285Y-13804761D01*
X65611666Y-13757142D01*
X65135476Y-13852380D02*
X65135476Y-13185714D01*
X65135476Y-13376190D02*
X65087857Y-13280952D01*
X65040238Y-13233333D01*
X64945000Y-13185714D01*
X64849761Y-13185714D01*
X64659285Y-13185714D02*
X64278333Y-13185714D01*
X64516428Y-13852380D02*
X64516428Y-12995238D01*
X64468809Y-12900000D01*
X64373571Y-12852380D01*
X64278333Y-12852380D01*
X63516428Y-13852380D02*
X63516428Y-13328571D01*
X63564047Y-13233333D01*
X63659285Y-13185714D01*
X63849761Y-13185714D01*
X63945000Y-13233333D01*
X63516428Y-13804761D02*
X63611666Y-13852380D01*
X63849761Y-13852380D01*
X63945000Y-13804761D01*
X63992619Y-13709523D01*
X63992619Y-13614285D01*
X63945000Y-13519047D01*
X63849761Y-13471428D01*
X63611666Y-13471428D01*
X63516428Y-13423809D01*
X62611666Y-13804761D02*
X62706904Y-13852380D01*
X62897380Y-13852380D01*
X62992619Y-13804761D01*
X63040238Y-13757142D01*
X63087857Y-13661904D01*
X63087857Y-13376190D01*
X63040238Y-13280952D01*
X62992619Y-13233333D01*
X62897380Y-13185714D01*
X62706904Y-13185714D01*
X62611666Y-13233333D01*
X61802142Y-13804761D02*
X61897380Y-13852380D01*
X62087857Y-13852380D01*
X62183095Y-13804761D01*
X62230714Y-13709523D01*
X62230714Y-13328571D01*
X62183095Y-13233333D01*
X62087857Y-13185714D01*
X61897380Y-13185714D01*
X61802142Y-13233333D01*
X61754523Y-13328571D01*
X61754523Y-13423809D01*
X62230714Y-13519047D01*
X61325952Y-13471428D02*
X60564047Y-13471428D01*
X60087857Y-13852380D02*
X60087857Y-13185714D01*
X60087857Y-13280952D02*
X60040238Y-13233333D01*
X59945000Y-13185714D01*
X59802142Y-13185714D01*
X59706904Y-13233333D01*
X59659285Y-13328571D01*
X59659285Y-13852380D01*
X59659285Y-13328571D02*
X59611666Y-13233333D01*
X59516428Y-13185714D01*
X59373571Y-13185714D01*
X59278333Y-13233333D01*
X59230714Y-13328571D01*
X59230714Y-13852380D01*
X58611666Y-13852380D02*
X58706904Y-13804761D01*
X58754523Y-13757142D01*
X58802142Y-13661904D01*
X58802142Y-13376190D01*
X58754523Y-13280952D01*
X58706904Y-13233333D01*
X58611666Y-13185714D01*
X58468809Y-13185714D01*
X58373571Y-13233333D01*
X58325952Y-13280952D01*
X58278333Y-13376190D01*
X58278333Y-13661904D01*
X58325952Y-13757142D01*
X58373571Y-13804761D01*
X58468809Y-13852380D01*
X58611666Y-13852380D01*
X57421190Y-13185714D02*
X57421190Y-13852380D01*
X57849761Y-13185714D02*
X57849761Y-13709523D01*
X57802142Y-13804761D01*
X57706904Y-13852380D01*
X57564047Y-13852380D01*
X57468809Y-13804761D01*
X57421190Y-13757142D01*
X56945000Y-13185714D02*
X56945000Y-13852380D01*
X56945000Y-13280952D02*
X56897380Y-13233333D01*
X56802142Y-13185714D01*
X56659285Y-13185714D01*
X56564047Y-13233333D01*
X56516428Y-13328571D01*
X56516428Y-13852380D01*
X56183095Y-13185714D02*
X55802142Y-13185714D01*
X56040238Y-12852380D02*
X56040238Y-13709523D01*
X55992619Y-13804761D01*
X55897380Y-13852380D01*
X55802142Y-13852380D01*
X54849761Y-13185714D02*
X54468809Y-13185714D01*
X54706904Y-12852380D02*
X54706904Y-13709523D01*
X54659285Y-13804761D01*
X54564047Y-13852380D01*
X54468809Y-13852380D01*
X53992619Y-13852380D02*
X54087857Y-13804761D01*
X54135476Y-13757142D01*
X54183095Y-13661904D01*
X54183095Y-13376190D01*
X54135476Y-13280952D01*
X54087857Y-13233333D01*
X53992619Y-13185714D01*
X53849761Y-13185714D01*
X53754523Y-13233333D01*
X53706904Y-13280952D01*
X53659285Y-13376190D01*
X53659285Y-13661904D01*
X53706904Y-13757142D01*
X53754523Y-13804761D01*
X53849761Y-13852380D01*
X53992619Y-13852380D01*
X52611666Y-13185714D02*
X52230714Y-13185714D01*
X52468809Y-12852380D02*
X52468809Y-13709523D01*
X52421190Y-13804761D01*
X52325952Y-13852380D01*
X52230714Y-13852380D01*
X51897380Y-13852380D02*
X51897380Y-12852380D01*
X51468809Y-13852380D02*
X51468809Y-13328571D01*
X51516428Y-13233333D01*
X51611666Y-13185714D01*
X51754523Y-13185714D01*
X51849761Y-13233333D01*
X51897380Y-13280952D01*
X50992619Y-13852380D02*
X50992619Y-13185714D01*
X50992619Y-12852380D02*
X51040238Y-12900000D01*
X50992619Y-12947619D01*
X50945000Y-12900000D01*
X50992619Y-12852380D01*
X50992619Y-12947619D01*
X50564047Y-13804761D02*
X50468809Y-13852380D01*
X50278333Y-13852380D01*
X50183095Y-13804761D01*
X50135476Y-13709523D01*
X50135476Y-13661904D01*
X50183095Y-13566666D01*
X50278333Y-13519047D01*
X50421190Y-13519047D01*
X50516428Y-13471428D01*
X50564047Y-13376190D01*
X50564047Y-13328571D01*
X50516428Y-13233333D01*
X50421190Y-13185714D01*
X50278333Y-13185714D01*
X50183095Y-13233333D01*
X48992619Y-13804761D02*
X48897380Y-13852380D01*
X48706904Y-13852380D01*
X48611666Y-13804761D01*
X48564047Y-13709523D01*
X48564047Y-13661904D01*
X48611666Y-13566666D01*
X48706904Y-13519047D01*
X48849761Y-13519047D01*
X48945000Y-13471428D01*
X48992619Y-13376190D01*
X48992619Y-13328571D01*
X48945000Y-13233333D01*
X48849761Y-13185714D01*
X48706904Y-13185714D01*
X48611666Y-13233333D01*
X48135476Y-13852380D02*
X48135476Y-13185714D01*
X48135476Y-12852380D02*
X48183095Y-12900000D01*
X48135476Y-12947619D01*
X48087857Y-12900000D01*
X48135476Y-12852380D01*
X48135476Y-12947619D01*
X47230714Y-13852380D02*
X47230714Y-12852380D01*
X47230714Y-13804761D02*
X47325952Y-13852380D01*
X47516428Y-13852380D01*
X47611666Y-13804761D01*
X47659285Y-13757142D01*
X47706904Y-13661904D01*
X47706904Y-13376190D01*
X47659285Y-13280952D01*
X47611666Y-13233333D01*
X47516428Y-13185714D01*
X47325952Y-13185714D01*
X47230714Y-13233333D01*
X46373571Y-13804761D02*
X46468809Y-13852380D01*
X46659285Y-13852380D01*
X46754523Y-13804761D01*
X46802142Y-13709523D01*
X46802142Y-13328571D01*
X46754523Y-13233333D01*
X46659285Y-13185714D01*
X46468809Y-13185714D01*
X46373571Y-13233333D01*
X46325952Y-13328571D01*
X46325952Y-13423809D01*
X46802142Y-13519047D01*
X44992619Y-13852380D02*
X45087857Y-13804761D01*
X45135476Y-13757142D01*
X45183095Y-13661904D01*
X45183095Y-13376190D01*
X45135476Y-13280952D01*
X45087857Y-13233333D01*
X44992619Y-13185714D01*
X44849761Y-13185714D01*
X44754523Y-13233333D01*
X44706904Y-13280952D01*
X44659285Y-13376190D01*
X44659285Y-13661904D01*
X44706904Y-13757142D01*
X44754523Y-13804761D01*
X44849761Y-13852380D01*
X44992619Y-13852380D01*
X44373571Y-13185714D02*
X43992619Y-13185714D01*
X44230714Y-13852380D02*
X44230714Y-12995238D01*
X44183095Y-12900000D01*
X44087857Y-12852380D01*
X43992619Y-12852380D01*
X43040238Y-13185714D02*
X42659285Y-13185714D01*
X42897380Y-12852380D02*
X42897380Y-13709523D01*
X42849761Y-13804761D01*
X42754523Y-13852380D01*
X42659285Y-13852380D01*
X42325952Y-13852380D02*
X42325952Y-12852380D01*
X41897380Y-13852380D02*
X41897380Y-13328571D01*
X41945000Y-13233333D01*
X42040238Y-13185714D01*
X42183095Y-13185714D01*
X42278333Y-13233333D01*
X42325952Y-13280952D01*
X41040238Y-13804761D02*
X41135476Y-13852380D01*
X41325952Y-13852380D01*
X41421190Y-13804761D01*
X41468809Y-13709523D01*
X41468809Y-13328571D01*
X41421190Y-13233333D01*
X41325952Y-13185714D01*
X41135476Y-13185714D01*
X41040238Y-13233333D01*
X40992619Y-13328571D01*
X40992619Y-13423809D01*
X41468809Y-13519047D01*
X39802142Y-13852380D02*
X39802142Y-12852380D01*
X39421190Y-12852380D01*
X39325952Y-12900000D01*
X39278333Y-12947619D01*
X39230714Y-13042857D01*
X39230714Y-13185714D01*
X39278333Y-13280952D01*
X39325952Y-13328571D01*
X39421190Y-13376190D01*
X39802142Y-13376190D01*
X38230714Y-13757142D02*
X38278333Y-13804761D01*
X38421190Y-13852380D01*
X38516428Y-13852380D01*
X38659285Y-13804761D01*
X38754523Y-13709523D01*
X38802142Y-13614285D01*
X38849761Y-13423809D01*
X38849761Y-13280952D01*
X38802142Y-13090476D01*
X38754523Y-12995238D01*
X38659285Y-12900000D01*
X38516428Y-12852380D01*
X38421190Y-12852380D01*
X38278333Y-12900000D01*
X38230714Y-12947619D01*
X37468809Y-13328571D02*
X37325952Y-13376190D01*
X37278333Y-13423809D01*
X37230714Y-13519047D01*
X37230714Y-13661904D01*
X37278333Y-13757142D01*
X37325952Y-13804761D01*
X37421190Y-13852380D01*
X37802142Y-13852380D01*
X37802142Y-12852380D01*
X37468809Y-12852380D01*
X37373571Y-12900000D01*
X37325952Y-12947619D01*
X37278333Y-13042857D01*
X37278333Y-13138095D01*
X37325952Y-13233333D01*
X37373571Y-13280952D01*
X37468809Y-13328571D01*
X37802142Y-13328571D01*
X35754523Y-14233333D02*
X35802142Y-14185714D01*
X35897380Y-14042857D01*
X35945000Y-13947619D01*
X35992619Y-13804761D01*
X36040238Y-13566666D01*
X36040238Y-13376190D01*
X35992619Y-13138095D01*
X35945000Y-12995238D01*
X35897380Y-12900000D01*
X35802142Y-12757142D01*
X35754523Y-12709523D01*
X35373571Y-13852380D02*
X35373571Y-12852380D01*
X35373571Y-13233333D02*
X35278333Y-13185714D01*
X35087857Y-13185714D01*
X34992619Y-13233333D01*
X34945000Y-13280952D01*
X34897380Y-13376190D01*
X34897380Y-13661904D01*
X34945000Y-13757142D01*
X34992619Y-13804761D01*
X35087857Y-13852380D01*
X35278333Y-13852380D01*
X35373571Y-13804761D01*
X34325952Y-13852380D02*
X34421190Y-13804761D01*
X34468809Y-13757142D01*
X34516428Y-13661904D01*
X34516428Y-13376190D01*
X34468809Y-13280952D01*
X34421190Y-13233333D01*
X34325952Y-13185714D01*
X34183095Y-13185714D01*
X34087857Y-13233333D01*
X34040238Y-13280952D01*
X33992619Y-13376190D01*
X33992619Y-13661904D01*
X34040238Y-13757142D01*
X34087857Y-13804761D01*
X34183095Y-13852380D01*
X34325952Y-13852380D01*
X33706904Y-13185714D02*
X33325952Y-13185714D01*
X33564047Y-12852380D02*
X33564047Y-13709523D01*
X33516428Y-13804761D01*
X33421190Y-13852380D01*
X33325952Y-13852380D01*
X33135476Y-13185714D02*
X32754523Y-13185714D01*
X32992619Y-12852380D02*
X32992619Y-13709523D01*
X32945000Y-13804761D01*
X32849761Y-13852380D01*
X32754523Y-13852380D01*
X32278333Y-13852380D02*
X32373571Y-13804761D01*
X32421190Y-13757142D01*
X32468809Y-13661904D01*
X32468809Y-13376190D01*
X32421190Y-13280952D01*
X32373571Y-13233333D01*
X32278333Y-13185714D01*
X32135476Y-13185714D01*
X32040238Y-13233333D01*
X31992619Y-13280952D01*
X31945000Y-13376190D01*
X31945000Y-13661904D01*
X31992619Y-13757142D01*
X32040238Y-13804761D01*
X32135476Y-13852380D01*
X32278333Y-13852380D01*
X31516428Y-13852380D02*
X31516428Y-13185714D01*
X31516428Y-13280952D02*
X31468809Y-13233333D01*
X31373571Y-13185714D01*
X31230714Y-13185714D01*
X31135476Y-13233333D01*
X31087857Y-13328571D01*
X31087857Y-13852380D01*
X31087857Y-13328571D02*
X31040238Y-13233333D01*
X30945000Y-13185714D01*
X30802142Y-13185714D01*
X30706904Y-13233333D01*
X30659285Y-13328571D01*
X30659285Y-13852380D01*
X30278333Y-14233333D02*
X30230714Y-14185714D01*
X30135476Y-14042857D01*
X30087857Y-13947619D01*
X30040238Y-13804761D01*
X29992619Y-13566666D01*
X29992619Y-13376190D01*
X30040238Y-13138095D01*
X30087857Y-12995238D01*
X30135476Y-12900000D01*
X30230714Y-12757142D01*
X30278333Y-12709523D01*
X29516428Y-13757142D02*
X29468809Y-13804761D01*
X29516428Y-13852380D01*
X29564047Y-13804761D01*
X29516428Y-13757142D01*
X29516428Y-13852380D01*
X91230714Y-15552380D02*
X91706904Y-15552380D01*
X91706904Y-14552380D01*
X90897380Y-15028571D02*
X90564047Y-15028571D01*
X90421190Y-15552380D02*
X90897380Y-15552380D01*
X90897380Y-14552380D01*
X90421190Y-14552380D01*
X89992619Y-15552380D02*
X89992619Y-14552380D01*
X89754523Y-14552380D01*
X89611666Y-14600000D01*
X89516428Y-14695238D01*
X89468809Y-14790476D01*
X89421190Y-14980952D01*
X89421190Y-15123809D01*
X89468809Y-15314285D01*
X89516428Y-15409523D01*
X89611666Y-15504761D01*
X89754523Y-15552380D01*
X89992619Y-15552380D01*
X89040238Y-15504761D02*
X88945000Y-15552380D01*
X88754523Y-15552380D01*
X88659285Y-15504761D01*
X88611666Y-15409523D01*
X88611666Y-15361904D01*
X88659285Y-15266666D01*
X88754523Y-15219047D01*
X88897380Y-15219047D01*
X88992619Y-15171428D01*
X89040238Y-15076190D01*
X89040238Y-15028571D01*
X88992619Y-14933333D01*
X88897380Y-14885714D01*
X88754523Y-14885714D01*
X88659285Y-14933333D01*
X87468809Y-15504761D02*
X87373571Y-15552380D01*
X87183095Y-15552380D01*
X87087857Y-15504761D01*
X87040238Y-15409523D01*
X87040238Y-15361904D01*
X87087857Y-15266666D01*
X87183095Y-15219047D01*
X87325952Y-15219047D01*
X87421190Y-15171428D01*
X87468809Y-15076190D01*
X87468809Y-15028571D01*
X87421190Y-14933333D01*
X87325952Y-14885714D01*
X87183095Y-14885714D01*
X87087857Y-14933333D01*
X86611666Y-15552380D02*
X86611666Y-14552380D01*
X86183095Y-15552380D02*
X86183095Y-15028571D01*
X86230714Y-14933333D01*
X86325952Y-14885714D01*
X86468809Y-14885714D01*
X86564047Y-14933333D01*
X86611666Y-14980952D01*
X85564047Y-15552380D02*
X85659285Y-15504761D01*
X85706904Y-15457142D01*
X85754523Y-15361904D01*
X85754523Y-15076190D01*
X85706904Y-14980952D01*
X85659285Y-14933333D01*
X85564047Y-14885714D01*
X85421190Y-14885714D01*
X85325952Y-14933333D01*
X85278333Y-14980952D01*
X85230714Y-15076190D01*
X85230714Y-15361904D01*
X85278333Y-15457142D01*
X85325952Y-15504761D01*
X85421190Y-15552380D01*
X85564047Y-15552380D01*
X84373571Y-14885714D02*
X84373571Y-15552380D01*
X84802142Y-14885714D02*
X84802142Y-15409523D01*
X84754523Y-15504761D01*
X84659285Y-15552380D01*
X84516428Y-15552380D01*
X84421190Y-15504761D01*
X84373571Y-15457142D01*
X83754523Y-15552380D02*
X83849761Y-15504761D01*
X83897380Y-15409523D01*
X83897380Y-14552380D01*
X82945000Y-15552380D02*
X82945000Y-14552380D01*
X82945000Y-15504761D02*
X83040238Y-15552380D01*
X83230714Y-15552380D01*
X83325952Y-15504761D01*
X83373571Y-15457142D01*
X83421190Y-15361904D01*
X83421190Y-15076190D01*
X83373571Y-14980952D01*
X83325952Y-14933333D01*
X83230714Y-14885714D01*
X83040238Y-14885714D01*
X82945000Y-14933333D01*
X81706904Y-15552380D02*
X81706904Y-14552380D01*
X81706904Y-14933333D02*
X81611666Y-14885714D01*
X81421190Y-14885714D01*
X81325952Y-14933333D01*
X81278333Y-14980952D01*
X81230714Y-15076190D01*
X81230714Y-15361904D01*
X81278333Y-15457142D01*
X81325952Y-15504761D01*
X81421190Y-15552380D01*
X81611666Y-15552380D01*
X81706904Y-15504761D01*
X80421190Y-15504761D02*
X80516428Y-15552380D01*
X80706904Y-15552380D01*
X80802142Y-15504761D01*
X80849761Y-15409523D01*
X80849761Y-15028571D01*
X80802142Y-14933333D01*
X80706904Y-14885714D01*
X80516428Y-14885714D01*
X80421190Y-14933333D01*
X80373571Y-15028571D01*
X80373571Y-15123809D01*
X80849761Y-15219047D01*
X79230714Y-15504761D02*
X79135476Y-15552380D01*
X78945000Y-15552380D01*
X78849761Y-15504761D01*
X78802142Y-15409523D01*
X78802142Y-15361904D01*
X78849761Y-15266666D01*
X78945000Y-15219047D01*
X79087857Y-15219047D01*
X79183095Y-15171428D01*
X79230714Y-15076190D01*
X79230714Y-15028571D01*
X79183095Y-14933333D01*
X79087857Y-14885714D01*
X78945000Y-14885714D01*
X78849761Y-14933333D01*
X77945000Y-14885714D02*
X77945000Y-15552380D01*
X78373571Y-14885714D02*
X78373571Y-15409523D01*
X78325952Y-15504761D01*
X78230714Y-15552380D01*
X78087857Y-15552380D01*
X77992619Y-15504761D01*
X77945000Y-15457142D01*
X77468809Y-15552380D02*
X77468809Y-14885714D01*
X77468809Y-15076190D02*
X77421190Y-14980952D01*
X77373571Y-14933333D01*
X77278333Y-14885714D01*
X77183095Y-14885714D01*
X76992619Y-14885714D02*
X76611666Y-14885714D01*
X76849761Y-15552380D02*
X76849761Y-14695238D01*
X76802142Y-14600000D01*
X76706904Y-14552380D01*
X76611666Y-14552380D01*
X75849761Y-15552380D02*
X75849761Y-15028571D01*
X75897380Y-14933333D01*
X75992619Y-14885714D01*
X76183095Y-14885714D01*
X76278333Y-14933333D01*
X75849761Y-15504761D02*
X75945000Y-15552380D01*
X76183095Y-15552380D01*
X76278333Y-15504761D01*
X76325952Y-15409523D01*
X76325952Y-15314285D01*
X76278333Y-15219047D01*
X76183095Y-15171428D01*
X75945000Y-15171428D01*
X75849761Y-15123809D01*
X74945000Y-15504761D02*
X75040238Y-15552380D01*
X75230714Y-15552380D01*
X75325952Y-15504761D01*
X75373571Y-15457142D01*
X75421190Y-15361904D01*
X75421190Y-15076190D01*
X75373571Y-14980952D01*
X75325952Y-14933333D01*
X75230714Y-14885714D01*
X75040238Y-14885714D01*
X74945000Y-14933333D01*
X74135476Y-15504761D02*
X74230714Y-15552380D01*
X74421190Y-15552380D01*
X74516428Y-15504761D01*
X74564047Y-15409523D01*
X74564047Y-15028571D01*
X74516428Y-14933333D01*
X74421190Y-14885714D01*
X74230714Y-14885714D01*
X74135476Y-14933333D01*
X74087857Y-15028571D01*
X74087857Y-15123809D01*
X74564047Y-15219047D01*
X73659285Y-15171428D02*
X72897380Y-15171428D01*
X72421190Y-15552380D02*
X72421190Y-14885714D01*
X72421190Y-14980952D02*
X72373571Y-14933333D01*
X72278333Y-14885714D01*
X72135476Y-14885714D01*
X72040238Y-14933333D01*
X71992619Y-15028571D01*
X71992619Y-15552380D01*
X71992619Y-15028571D02*
X71945000Y-14933333D01*
X71849761Y-14885714D01*
X71706904Y-14885714D01*
X71611666Y-14933333D01*
X71564047Y-15028571D01*
X71564047Y-15552380D01*
X70945000Y-15552380D02*
X71040238Y-15504761D01*
X71087857Y-15457142D01*
X71135476Y-15361904D01*
X71135476Y-15076190D01*
X71087857Y-14980952D01*
X71040238Y-14933333D01*
X70945000Y-14885714D01*
X70802142Y-14885714D01*
X70706904Y-14933333D01*
X70659285Y-14980952D01*
X70611666Y-15076190D01*
X70611666Y-15361904D01*
X70659285Y-15457142D01*
X70706904Y-15504761D01*
X70802142Y-15552380D01*
X70945000Y-15552380D01*
X69754523Y-14885714D02*
X69754523Y-15552380D01*
X70183095Y-14885714D02*
X70183095Y-15409523D01*
X70135476Y-15504761D01*
X70040238Y-15552380D01*
X69897380Y-15552380D01*
X69802142Y-15504761D01*
X69754523Y-15457142D01*
X69278333Y-14885714D02*
X69278333Y-15552380D01*
X69278333Y-14980952D02*
X69230714Y-14933333D01*
X69135476Y-14885714D01*
X68992619Y-14885714D01*
X68897380Y-14933333D01*
X68849761Y-15028571D01*
X68849761Y-15552380D01*
X68516428Y-14885714D02*
X68135476Y-14885714D01*
X68373571Y-14552380D02*
X68373571Y-15409523D01*
X68325952Y-15504761D01*
X68230714Y-15552380D01*
X68135476Y-15552380D01*
X67421190Y-15504761D02*
X67516428Y-15552380D01*
X67706904Y-15552380D01*
X67802142Y-15504761D01*
X67849761Y-15409523D01*
X67849761Y-15028571D01*
X67802142Y-14933333D01*
X67706904Y-14885714D01*
X67516428Y-14885714D01*
X67421190Y-14933333D01*
X67373571Y-15028571D01*
X67373571Y-15123809D01*
X67849761Y-15219047D01*
X66516428Y-15552380D02*
X66516428Y-14552380D01*
X66516428Y-15504761D02*
X66611666Y-15552380D01*
X66802142Y-15552380D01*
X66897380Y-15504761D01*
X66945000Y-15457142D01*
X66992619Y-15361904D01*
X66992619Y-15076190D01*
X66945000Y-14980952D01*
X66897380Y-14933333D01*
X66802142Y-14885714D01*
X66611666Y-14885714D01*
X66516428Y-14933333D01*
X65421190Y-14885714D02*
X65040238Y-14885714D01*
X65278333Y-14552380D02*
X65278333Y-15409523D01*
X65230714Y-15504761D01*
X65135476Y-15552380D01*
X65040238Y-15552380D01*
X64564047Y-15552380D02*
X64659285Y-15504761D01*
X64706904Y-15457142D01*
X64754523Y-15361904D01*
X64754523Y-15076190D01*
X64706904Y-14980952D01*
X64659285Y-14933333D01*
X64564047Y-14885714D01*
X64421190Y-14885714D01*
X64325952Y-14933333D01*
X64278333Y-14980952D01*
X64230714Y-15076190D01*
X64230714Y-15361904D01*
X64278333Y-15457142D01*
X64325952Y-15504761D01*
X64421190Y-15552380D01*
X64564047Y-15552380D01*
X63183095Y-14885714D02*
X62802142Y-14885714D01*
X63040238Y-14552380D02*
X63040238Y-15409523D01*
X62992619Y-15504761D01*
X62897380Y-15552380D01*
X62802142Y-15552380D01*
X62468809Y-15552380D02*
X62468809Y-14552380D01*
X62040238Y-15552380D02*
X62040238Y-15028571D01*
X62087857Y-14933333D01*
X62183095Y-14885714D01*
X62325952Y-14885714D01*
X62421190Y-14933333D01*
X62468809Y-14980952D01*
X61183095Y-15504761D02*
X61278333Y-15552380D01*
X61468809Y-15552380D01*
X61564047Y-15504761D01*
X61611666Y-15409523D01*
X61611666Y-15028571D01*
X61564047Y-14933333D01*
X61468809Y-14885714D01*
X61278333Y-14885714D01*
X61183095Y-14933333D01*
X61135476Y-15028571D01*
X61135476Y-15123809D01*
X61611666Y-15219047D01*
X60087857Y-14885714D02*
X59706904Y-14885714D01*
X59945000Y-14552380D02*
X59945000Y-15409523D01*
X59897380Y-15504761D01*
X59802142Y-15552380D01*
X59706904Y-15552380D01*
X59230714Y-15552380D02*
X59325952Y-15504761D01*
X59373571Y-15457142D01*
X59421190Y-15361904D01*
X59421190Y-15076190D01*
X59373571Y-14980952D01*
X59325952Y-14933333D01*
X59230714Y-14885714D01*
X59087857Y-14885714D01*
X58992619Y-14933333D01*
X58945000Y-14980952D01*
X58897380Y-15076190D01*
X58897380Y-15361904D01*
X58945000Y-15457142D01*
X58992619Y-15504761D01*
X59087857Y-15552380D01*
X59230714Y-15552380D01*
X58468809Y-14885714D02*
X58468809Y-15885714D01*
X58468809Y-14933333D02*
X58373571Y-14885714D01*
X58183095Y-14885714D01*
X58087857Y-14933333D01*
X58040238Y-14980952D01*
X57992619Y-15076190D01*
X57992619Y-15361904D01*
X58040238Y-15457142D01*
X58087857Y-15504761D01*
X58183095Y-15552380D01*
X58373571Y-15552380D01*
X58468809Y-15504761D01*
X56849761Y-15504761D02*
X56754523Y-15552380D01*
X56564047Y-15552380D01*
X56468809Y-15504761D01*
X56421190Y-15409523D01*
X56421190Y-15361904D01*
X56468809Y-15266666D01*
X56564047Y-15219047D01*
X56706904Y-15219047D01*
X56802142Y-15171428D01*
X56849761Y-15076190D01*
X56849761Y-15028571D01*
X56802142Y-14933333D01*
X56706904Y-14885714D01*
X56564047Y-14885714D01*
X56468809Y-14933333D01*
X55992619Y-15552380D02*
X55992619Y-14885714D01*
X55992619Y-14552380D02*
X56040238Y-14600000D01*
X55992619Y-14647619D01*
X55945000Y-14600000D01*
X55992619Y-14552380D01*
X55992619Y-14647619D01*
X55087857Y-15552380D02*
X55087857Y-14552380D01*
X55087857Y-15504761D02*
X55183095Y-15552380D01*
X55373571Y-15552380D01*
X55468809Y-15504761D01*
X55516428Y-15457142D01*
X55564047Y-15361904D01*
X55564047Y-15076190D01*
X55516428Y-14980952D01*
X55468809Y-14933333D01*
X55373571Y-14885714D01*
X55183095Y-14885714D01*
X55087857Y-14933333D01*
X54230714Y-15504761D02*
X54325952Y-15552380D01*
X54516428Y-15552380D01*
X54611666Y-15504761D01*
X54659285Y-15409523D01*
X54659285Y-15028571D01*
X54611666Y-14933333D01*
X54516428Y-14885714D01*
X54325952Y-14885714D01*
X54230714Y-14933333D01*
X54183095Y-15028571D01*
X54183095Y-15123809D01*
X54659285Y-15219047D01*
X53754523Y-15457142D02*
X53706904Y-15504761D01*
X53754523Y-15552380D01*
X53802142Y-15504761D01*
X53754523Y-15457142D01*
X53754523Y-15552380D01*
X52516428Y-15552380D02*
X52516428Y-14552380D01*
X52040238Y-14885714D02*
X52040238Y-15552380D01*
X52040238Y-14980952D02*
X51992619Y-14933333D01*
X51897380Y-14885714D01*
X51754523Y-14885714D01*
X51659285Y-14933333D01*
X51611666Y-15028571D01*
X51611666Y-15552380D01*
X51183095Y-15504761D02*
X51087857Y-15552380D01*
X50897380Y-15552380D01*
X50802142Y-15504761D01*
X50754523Y-15409523D01*
X50754523Y-15361904D01*
X50802142Y-15266666D01*
X50897380Y-15219047D01*
X51040238Y-15219047D01*
X51135476Y-15171428D01*
X51183095Y-15076190D01*
X51183095Y-15028571D01*
X51135476Y-14933333D01*
X51040238Y-14885714D01*
X50897380Y-14885714D01*
X50802142Y-14933333D01*
X50468809Y-14885714D02*
X50087857Y-14885714D01*
X50325952Y-14552380D02*
X50325952Y-15409523D01*
X50278333Y-15504761D01*
X50183095Y-15552380D01*
X50087857Y-15552380D01*
X49325952Y-15552380D02*
X49325952Y-15028571D01*
X49373571Y-14933333D01*
X49468809Y-14885714D01*
X49659285Y-14885714D01*
X49754523Y-14933333D01*
X49325952Y-15504761D02*
X49421190Y-15552380D01*
X49659285Y-15552380D01*
X49754523Y-15504761D01*
X49802142Y-15409523D01*
X49802142Y-15314285D01*
X49754523Y-15219047D01*
X49659285Y-15171428D01*
X49421190Y-15171428D01*
X49325952Y-15123809D01*
X48706904Y-15552380D02*
X48802142Y-15504761D01*
X48849761Y-15409523D01*
X48849761Y-14552380D01*
X48183095Y-15552380D02*
X48278333Y-15504761D01*
X48325952Y-15409523D01*
X48325952Y-14552380D01*
X46564047Y-15552380D02*
X47040238Y-15552380D01*
X47040238Y-14552380D01*
X46230714Y-15028571D02*
X45897380Y-15028571D01*
X45754523Y-15552380D02*
X46230714Y-15552380D01*
X46230714Y-14552380D01*
X45754523Y-14552380D01*
X45325952Y-15552380D02*
X45325952Y-14552380D01*
X45087857Y-14552380D01*
X44945000Y-14600000D01*
X44849761Y-14695238D01*
X44802142Y-14790476D01*
X44754523Y-14980952D01*
X44754523Y-15123809D01*
X44802142Y-15314285D01*
X44849761Y-15409523D01*
X44945000Y-15504761D01*
X45087857Y-15552380D01*
X45325952Y-15552380D01*
X44373571Y-15504761D02*
X44278333Y-15552380D01*
X44087857Y-15552380D01*
X43992619Y-15504761D01*
X43945000Y-15409523D01*
X43945000Y-15361904D01*
X43992619Y-15266666D01*
X44087857Y-15219047D01*
X44230714Y-15219047D01*
X44325952Y-15171428D01*
X44373571Y-15076190D01*
X44373571Y-15028571D01*
X44325952Y-14933333D01*
X44230714Y-14885714D01*
X44087857Y-14885714D01*
X43992619Y-14933333D01*
X42754523Y-15552380D02*
X42754523Y-14552380D01*
X42754523Y-14933333D02*
X42659285Y-14885714D01*
X42468809Y-14885714D01*
X42373571Y-14933333D01*
X42325952Y-14980952D01*
X42278333Y-15076190D01*
X42278333Y-15361904D01*
X42325952Y-15457142D01*
X42373571Y-15504761D01*
X42468809Y-15552380D01*
X42659285Y-15552380D01*
X42754523Y-15504761D01*
X41468809Y-15504761D02*
X41564047Y-15552380D01*
X41754523Y-15552380D01*
X41849761Y-15504761D01*
X41897380Y-15409523D01*
X41897380Y-15028571D01*
X41849761Y-14933333D01*
X41754523Y-14885714D01*
X41564047Y-14885714D01*
X41468809Y-14933333D01*
X41421190Y-15028571D01*
X41421190Y-15123809D01*
X41897380Y-15219047D01*
X41135476Y-14885714D02*
X40754523Y-14885714D01*
X40992619Y-15552380D02*
X40992619Y-14695238D01*
X40945000Y-14600000D01*
X40849761Y-14552380D01*
X40754523Y-14552380D01*
X40278333Y-15552380D02*
X40373571Y-15504761D01*
X40421190Y-15457142D01*
X40468809Y-15361904D01*
X40468809Y-15076190D01*
X40421190Y-14980952D01*
X40373571Y-14933333D01*
X40278333Y-14885714D01*
X40135476Y-14885714D01*
X40040238Y-14933333D01*
X39992619Y-14980952D01*
X39945000Y-15076190D01*
X39945000Y-15361904D01*
X39992619Y-15457142D01*
X40040238Y-15504761D01*
X40135476Y-15552380D01*
X40278333Y-15552380D01*
X39516428Y-15552380D02*
X39516428Y-14885714D01*
X39516428Y-15076190D02*
X39468809Y-14980952D01*
X39421190Y-14933333D01*
X39325952Y-14885714D01*
X39230714Y-14885714D01*
X38516428Y-15504761D02*
X38611666Y-15552380D01*
X38802142Y-15552380D01*
X38897380Y-15504761D01*
X38945000Y-15409523D01*
X38945000Y-15028571D01*
X38897380Y-14933333D01*
X38802142Y-14885714D01*
X38611666Y-14885714D01*
X38516428Y-14933333D01*
X38468809Y-15028571D01*
X38468809Y-15123809D01*
X38945000Y-15219047D01*
X36849761Y-15552380D02*
X36849761Y-15028571D01*
X36897380Y-14933333D01*
X36992619Y-14885714D01*
X37183095Y-14885714D01*
X37278333Y-14933333D01*
X36849761Y-15504761D02*
X36945000Y-15552380D01*
X37183095Y-15552380D01*
X37278333Y-15504761D01*
X37325952Y-15409523D01*
X37325952Y-15314285D01*
X37278333Y-15219047D01*
X37183095Y-15171428D01*
X36945000Y-15171428D01*
X36849761Y-15123809D01*
X35945000Y-15552380D02*
X35945000Y-14552380D01*
X35945000Y-15504761D02*
X36040238Y-15552380D01*
X36230714Y-15552380D01*
X36325952Y-15504761D01*
X36373571Y-15457142D01*
X36421190Y-15361904D01*
X36421190Y-15076190D01*
X36373571Y-14980952D01*
X36325952Y-14933333D01*
X36230714Y-14885714D01*
X36040238Y-14885714D01*
X35945000Y-14933333D01*
X35040238Y-15552380D02*
X35040238Y-14552380D01*
X35040238Y-15504761D02*
X35135476Y-15552380D01*
X35325952Y-15552380D01*
X35421190Y-15504761D01*
X35468809Y-15457142D01*
X35516428Y-15361904D01*
X35516428Y-15076190D01*
X35468809Y-14980952D01*
X35421190Y-14933333D01*
X35325952Y-14885714D01*
X35135476Y-14885714D01*
X35040238Y-14933333D01*
X34564047Y-15552380D02*
X34564047Y-14885714D01*
X34564047Y-14552380D02*
X34611666Y-14600000D01*
X34564047Y-14647619D01*
X34516428Y-14600000D01*
X34564047Y-14552380D01*
X34564047Y-14647619D01*
X34087857Y-14885714D02*
X34087857Y-15552380D01*
X34087857Y-14980952D02*
X34040238Y-14933333D01*
X33945000Y-14885714D01*
X33802142Y-14885714D01*
X33706904Y-14933333D01*
X33659285Y-15028571D01*
X33659285Y-15552380D01*
X32754523Y-14885714D02*
X32754523Y-15695238D01*
X32802142Y-15790476D01*
X32849761Y-15838095D01*
X32945000Y-15885714D01*
X33087857Y-15885714D01*
X33183095Y-15838095D01*
X32754523Y-15504761D02*
X32849761Y-15552380D01*
X33040238Y-15552380D01*
X33135476Y-15504761D01*
X33183095Y-15457142D01*
X33230714Y-15361904D01*
X33230714Y-15076190D01*
X33183095Y-14980952D01*
X33135476Y-14933333D01*
X33040238Y-14885714D01*
X32849761Y-14885714D01*
X32754523Y-14933333D01*
X31564047Y-15504761D02*
X31468809Y-15552380D01*
X31278333Y-15552380D01*
X31183095Y-15504761D01*
X31135476Y-15409523D01*
X31135476Y-15361904D01*
X31183095Y-15266666D01*
X31278333Y-15219047D01*
X31421190Y-15219047D01*
X31516428Y-15171428D01*
X31564047Y-15076190D01*
X31564047Y-15028571D01*
X31516428Y-14933333D01*
X31421190Y-14885714D01*
X31278333Y-14885714D01*
X31183095Y-14933333D01*
X30802142Y-14885714D02*
X30611666Y-15552380D01*
X30421190Y-15076190D01*
X30230714Y-15552380D01*
X30040238Y-14885714D01*
X29659285Y-15552380D02*
X29659285Y-14885714D01*
X29659285Y-14552380D02*
X29706904Y-14600000D01*
X29659285Y-14647619D01*
X29611666Y-14600000D01*
X29659285Y-14552380D01*
X29659285Y-14647619D01*
X29325952Y-14885714D02*
X28945000Y-14885714D01*
X29183095Y-14552380D02*
X29183095Y-15409523D01*
X29135476Y-15504761D01*
X29040238Y-15552380D01*
X28945000Y-15552380D01*
X28183095Y-15504761D02*
X28278333Y-15552380D01*
X28468809Y-15552380D01*
X28564047Y-15504761D01*
X28611666Y-15457142D01*
X28659285Y-15361904D01*
X28659285Y-15076190D01*
X28611666Y-14980952D01*
X28564047Y-14933333D01*
X28468809Y-14885714D01*
X28278333Y-14885714D01*
X28183095Y-14933333D01*
X27754523Y-15552380D02*
X27754523Y-14552380D01*
X27325952Y-15552380D02*
X27325952Y-15028571D01*
X27373571Y-14933333D01*
X27468809Y-14885714D01*
X27611666Y-14885714D01*
X27706904Y-14933333D01*
X27754523Y-14980952D01*
X26468809Y-15504761D02*
X26564047Y-15552380D01*
X26754523Y-15552380D01*
X26849761Y-15504761D01*
X26897380Y-15409523D01*
X26897380Y-15028571D01*
X26849761Y-14933333D01*
X26754523Y-14885714D01*
X26564047Y-14885714D01*
X26468809Y-14933333D01*
X26421190Y-15028571D01*
X26421190Y-15123809D01*
X26897380Y-15219047D01*
X26040238Y-15504761D02*
X25945000Y-15552380D01*
X25754523Y-15552380D01*
X25659285Y-15504761D01*
X25611666Y-15409523D01*
X25611666Y-15361904D01*
X25659285Y-15266666D01*
X25754523Y-15219047D01*
X25897380Y-15219047D01*
X25992619Y-15171428D01*
X26040238Y-15076190D01*
X26040238Y-15028571D01*
X25992619Y-14933333D01*
X25897380Y-14885714D01*
X25754523Y-14885714D01*
X25659285Y-14933333D01*
X25183095Y-15457142D02*
X25135476Y-15504761D01*
X25183095Y-15552380D01*
X25230714Y-15504761D01*
X25183095Y-15457142D01*
X25183095Y-15552380D01*
D11*
X302876904Y-12327380D02*
X302876904Y-11327380D01*
X302305476Y-12327380D02*
X302734047Y-11755952D01*
X302305476Y-11327380D02*
X302876904Y-11898809D01*
X301448333Y-12327380D02*
X301448333Y-11803571D01*
X301495952Y-11708333D01*
X301591190Y-11660714D01*
X301781666Y-11660714D01*
X301876904Y-11708333D01*
X301448333Y-12279761D02*
X301543571Y-12327380D01*
X301781666Y-12327380D01*
X301876904Y-12279761D01*
X301924523Y-12184523D01*
X301924523Y-12089285D01*
X301876904Y-11994047D01*
X301781666Y-11946428D01*
X301543571Y-11946428D01*
X301448333Y-11898809D01*
X301019761Y-12279761D02*
X300924523Y-12327380D01*
X300734047Y-12327380D01*
X300638809Y-12279761D01*
X300591190Y-12184523D01*
X300591190Y-12136904D01*
X300638809Y-12041666D01*
X300734047Y-11994047D01*
X300876904Y-11994047D01*
X300972142Y-11946428D01*
X301019761Y-11851190D01*
X301019761Y-11803571D01*
X300972142Y-11708333D01*
X300876904Y-11660714D01*
X300734047Y-11660714D01*
X300638809Y-11708333D01*
X300305476Y-11660714D02*
X299924523Y-11660714D01*
X300162619Y-11327380D02*
X300162619Y-12184523D01*
X300115000Y-12279761D01*
X300019761Y-12327380D01*
X299924523Y-12327380D01*
X299210238Y-12279761D02*
X299305476Y-12327380D01*
X299495952Y-12327380D01*
X299591190Y-12279761D01*
X299638809Y-12184523D01*
X299638809Y-11803571D01*
X299591190Y-11708333D01*
X299495952Y-11660714D01*
X299305476Y-11660714D01*
X299210238Y-11708333D01*
X299162619Y-11803571D01*
X299162619Y-11898809D01*
X299638809Y-11994047D01*
X298734047Y-11660714D02*
X298734047Y-12327380D01*
X298734047Y-11755952D02*
X298686428Y-11708333D01*
X298591190Y-11660714D01*
X298448333Y-11660714D01*
X298353095Y-11708333D01*
X298305476Y-11803571D01*
X298305476Y-12327380D01*
X297924523Y-11660714D02*
X297734047Y-12327380D01*
X297543571Y-11851190D01*
X297353095Y-12327380D01*
X297162619Y-11660714D01*
X296353095Y-12327380D02*
X296353095Y-11803571D01*
X296400714Y-11708333D01*
X296495952Y-11660714D01*
X296686428Y-11660714D01*
X296781666Y-11708333D01*
X296353095Y-12279761D02*
X296448333Y-12327380D01*
X296686428Y-12327380D01*
X296781666Y-12279761D01*
X296829285Y-12184523D01*
X296829285Y-12089285D01*
X296781666Y-11994047D01*
X296686428Y-11946428D01*
X296448333Y-11946428D01*
X296353095Y-11898809D01*
X295448333Y-11660714D02*
X295448333Y-12470238D01*
X295495952Y-12565476D01*
X295543571Y-12613095D01*
X295638809Y-12660714D01*
X295781666Y-12660714D01*
X295876904Y-12613095D01*
X295448333Y-12279761D02*
X295543571Y-12327380D01*
X295734047Y-12327380D01*
X295829285Y-12279761D01*
X295876904Y-12232142D01*
X295924523Y-12136904D01*
X295924523Y-11851190D01*
X295876904Y-11755952D01*
X295829285Y-11708333D01*
X295734047Y-11660714D01*
X295543571Y-11660714D01*
X295448333Y-11708333D01*
X294591190Y-12279761D02*
X294686428Y-12327380D01*
X294876904Y-12327380D01*
X294972142Y-12279761D01*
X295019761Y-12184523D01*
X295019761Y-11803571D01*
X294972142Y-11708333D01*
X294876904Y-11660714D01*
X294686428Y-11660714D01*
X294591190Y-11708333D01*
X294543571Y-11803571D01*
X294543571Y-11898809D01*
X295019761Y-11994047D01*
X294115000Y-11660714D02*
X294115000Y-12327380D01*
X294115000Y-11755952D02*
X294067380Y-11708333D01*
X293972142Y-11660714D01*
X293829285Y-11660714D01*
X293734047Y-11708333D01*
X293686428Y-11803571D01*
X293686428Y-12327380D01*
X292019761Y-11660714D02*
X292019761Y-12327380D01*
X292257857Y-11279761D02*
X292495952Y-11994047D01*
X291876904Y-11994047D01*
X291353095Y-11755952D02*
X291448333Y-11708333D01*
X291495952Y-11660714D01*
X291543571Y-11565476D01*
X291543571Y-11517857D01*
X291495952Y-11422619D01*
X291448333Y-11375000D01*
X291353095Y-11327380D01*
X291162619Y-11327380D01*
X291067380Y-11375000D01*
X291019761Y-11422619D01*
X290972142Y-11517857D01*
X290972142Y-11565476D01*
X291019761Y-11660714D01*
X291067380Y-11708333D01*
X291162619Y-11755952D01*
X291353095Y-11755952D01*
X291448333Y-11803571D01*
X291495952Y-11851190D01*
X291543571Y-11946428D01*
X291543571Y-12136904D01*
X291495952Y-12232142D01*
X291448333Y-12279761D01*
X291353095Y-12327380D01*
X291162619Y-12327380D01*
X291067380Y-12279761D01*
X291019761Y-12232142D01*
X290972142Y-12136904D01*
X290972142Y-11946428D01*
X291019761Y-11851190D01*
X291067380Y-11803571D01*
X291162619Y-11755952D01*
X290543571Y-12232142D02*
X290495952Y-12279761D01*
X290543571Y-12327380D01*
X290591190Y-12279761D01*
X290543571Y-12232142D01*
X290543571Y-12327380D01*
X290543571Y-11708333D02*
X290495952Y-11755952D01*
X290543571Y-11803571D01*
X290591190Y-11755952D01*
X290543571Y-11708333D01*
X290543571Y-11803571D01*
X289305476Y-12327380D02*
X289305476Y-11327380D01*
X288924523Y-11327380D01*
X288829285Y-11375000D01*
X288781666Y-11422619D01*
X288734047Y-11517857D01*
X288734047Y-11660714D01*
X288781666Y-11755952D01*
X288829285Y-11803571D01*
X288924523Y-11851190D01*
X289305476Y-11851190D01*
X288305476Y-12327380D02*
X288305476Y-11660714D01*
X288305476Y-11851190D02*
X288257857Y-11755952D01*
X288210238Y-11708333D01*
X288115000Y-11660714D01*
X288019761Y-11660714D01*
X287543571Y-12327380D02*
X287638809Y-12279761D01*
X287686428Y-12232142D01*
X287734047Y-12136904D01*
X287734047Y-11851190D01*
X287686428Y-11755952D01*
X287638809Y-11708333D01*
X287543571Y-11660714D01*
X287400714Y-11660714D01*
X287305476Y-11708333D01*
X287257857Y-11755952D01*
X287210238Y-11851190D01*
X287210238Y-12136904D01*
X287257857Y-12232142D01*
X287305476Y-12279761D01*
X287400714Y-12327380D01*
X287543571Y-12327380D01*
X286924523Y-11660714D02*
X286543571Y-11660714D01*
X286781666Y-11327380D02*
X286781666Y-12184523D01*
X286734047Y-12279761D01*
X286638809Y-12327380D01*
X286543571Y-12327380D01*
X286067380Y-12327380D02*
X286162619Y-12279761D01*
X286210238Y-12232142D01*
X286257857Y-12136904D01*
X286257857Y-11851190D01*
X286210238Y-11755952D01*
X286162619Y-11708333D01*
X286067380Y-11660714D01*
X285924523Y-11660714D01*
X285829285Y-11708333D01*
X285781666Y-11755952D01*
X285734047Y-11851190D01*
X285734047Y-12136904D01*
X285781666Y-12232142D01*
X285829285Y-12279761D01*
X285924523Y-12327380D01*
X286067380Y-12327380D01*
X285448333Y-11660714D02*
X285067380Y-11660714D01*
X285305476Y-11327380D02*
X285305476Y-12184523D01*
X285257857Y-12279761D01*
X285162619Y-12327380D01*
X285067380Y-12327380D01*
X284829285Y-11660714D02*
X284591190Y-12327380D01*
X284353095Y-11660714D02*
X284591190Y-12327380D01*
X284686428Y-12565476D01*
X284734047Y-12613095D01*
X284829285Y-12660714D01*
X283972142Y-11660714D02*
X283972142Y-12660714D01*
X283972142Y-11708333D02*
X283876904Y-11660714D01*
X283686428Y-11660714D01*
X283591190Y-11708333D01*
X283543571Y-11755952D01*
X283495952Y-11851190D01*
X283495952Y-12136904D01*
X283543571Y-12232142D01*
X283591190Y-12279761D01*
X283686428Y-12327380D01*
X283876904Y-12327380D01*
X283972142Y-12279761D01*
X282686428Y-12279761D02*
X282781666Y-12327380D01*
X282972142Y-12327380D01*
X283067380Y-12279761D01*
X283115000Y-12184523D01*
X283115000Y-11803571D01*
X283067380Y-11708333D01*
X282972142Y-11660714D01*
X282781666Y-11660714D01*
X282686428Y-11708333D01*
X282638809Y-11803571D01*
X282638809Y-11898809D01*
X283115000Y-11994047D01*
X281495952Y-11422619D02*
X281448333Y-11375000D01*
X281353095Y-11327380D01*
X281115000Y-11327380D01*
X281019761Y-11375000D01*
X280972142Y-11422619D01*
X280924523Y-11517857D01*
X280924523Y-11613095D01*
X280972142Y-11755952D01*
X281543571Y-12327380D01*
X280924523Y-12327380D01*
X280305476Y-11327380D02*
X280210238Y-11327380D01*
X280115000Y-11375000D01*
X280067380Y-11422619D01*
X280019761Y-11517857D01*
X279972142Y-11708333D01*
X279972142Y-11946428D01*
X280019761Y-12136904D01*
X280067380Y-12232142D01*
X280115000Y-12279761D01*
X280210238Y-12327380D01*
X280305476Y-12327380D01*
X280400714Y-12279761D01*
X280448333Y-12232142D01*
X280495952Y-12136904D01*
X280543571Y-11946428D01*
X280543571Y-11708333D01*
X280495952Y-11517857D01*
X280448333Y-11422619D01*
X280400714Y-11375000D01*
X280305476Y-11327380D01*
X279591190Y-11422619D02*
X279543571Y-11375000D01*
X279448333Y-11327380D01*
X279210238Y-11327380D01*
X279115000Y-11375000D01*
X279067380Y-11422619D01*
X279019761Y-11517857D01*
X279019761Y-11613095D01*
X279067380Y-11755952D01*
X279638809Y-12327380D01*
X279019761Y-12327380D01*
X278067380Y-12327380D02*
X278638809Y-12327380D01*
X278353095Y-12327380D02*
X278353095Y-11327380D01*
X278448333Y-11470238D01*
X278543571Y-11565476D01*
X278638809Y-11613095D01*
X277638809Y-11946428D02*
X276876904Y-11946428D01*
X276210238Y-11327380D02*
X276115000Y-11327380D01*
X276019761Y-11375000D01*
X275972142Y-11422619D01*
X275924523Y-11517857D01*
X275876904Y-11708333D01*
X275876904Y-11946428D01*
X275924523Y-12136904D01*
X275972142Y-12232142D01*
X276019761Y-12279761D01*
X276115000Y-12327380D01*
X276210238Y-12327380D01*
X276305476Y-12279761D01*
X276353095Y-12232142D01*
X276400714Y-12136904D01*
X276448333Y-11946428D01*
X276448333Y-11708333D01*
X276400714Y-11517857D01*
X276353095Y-11422619D01*
X276305476Y-11375000D01*
X276210238Y-11327380D01*
X275019761Y-11327380D02*
X275210238Y-11327380D01*
X275305476Y-11375000D01*
X275353095Y-11422619D01*
X275448333Y-11565476D01*
X275495952Y-11755952D01*
X275495952Y-12136904D01*
X275448333Y-12232142D01*
X275400714Y-12279761D01*
X275305476Y-12327380D01*
X275115000Y-12327380D01*
X275019761Y-12279761D01*
X274972142Y-12232142D01*
X274924523Y-12136904D01*
X274924523Y-11898809D01*
X274972142Y-11803571D01*
X275019761Y-11755952D01*
X275115000Y-11708333D01*
X275305476Y-11708333D01*
X275400714Y-11755952D01*
X275448333Y-11803571D01*
X275495952Y-11898809D01*
X302876904Y-13977380D02*
X302876904Y-12977380D01*
X302638809Y-12977380D01*
X302495952Y-13025000D01*
X302400714Y-13120238D01*
X302353095Y-13215476D01*
X302305476Y-13405952D01*
X302305476Y-13548809D01*
X302353095Y-13739285D01*
X302400714Y-13834523D01*
X302495952Y-13929761D01*
X302638809Y-13977380D01*
X302876904Y-13977380D01*
X301495952Y-13929761D02*
X301591190Y-13977380D01*
X301781666Y-13977380D01*
X301876904Y-13929761D01*
X301924523Y-13834523D01*
X301924523Y-13453571D01*
X301876904Y-13358333D01*
X301781666Y-13310714D01*
X301591190Y-13310714D01*
X301495952Y-13358333D01*
X301448333Y-13453571D01*
X301448333Y-13548809D01*
X301924523Y-13644047D01*
X301115000Y-13310714D02*
X300876904Y-13977380D01*
X300638809Y-13310714D01*
X299876904Y-13929761D02*
X299972142Y-13977380D01*
X300162619Y-13977380D01*
X300257857Y-13929761D01*
X300305476Y-13834523D01*
X300305476Y-13453571D01*
X300257857Y-13358333D01*
X300162619Y-13310714D01*
X299972142Y-13310714D01*
X299876904Y-13358333D01*
X299829285Y-13453571D01*
X299829285Y-13548809D01*
X300305476Y-13644047D01*
X299257857Y-13977380D02*
X299353095Y-13929761D01*
X299400714Y-13834523D01*
X299400714Y-12977380D01*
X298734047Y-13977380D02*
X298829285Y-13929761D01*
X298876904Y-13882142D01*
X298924523Y-13786904D01*
X298924523Y-13501190D01*
X298876904Y-13405952D01*
X298829285Y-13358333D01*
X298734047Y-13310714D01*
X298591190Y-13310714D01*
X298495952Y-13358333D01*
X298448333Y-13405952D01*
X298400714Y-13501190D01*
X298400714Y-13786904D01*
X298448333Y-13882142D01*
X298495952Y-13929761D01*
X298591190Y-13977380D01*
X298734047Y-13977380D01*
X297972142Y-13310714D02*
X297972142Y-14310714D01*
X297972142Y-13358333D02*
X297876904Y-13310714D01*
X297686428Y-13310714D01*
X297591190Y-13358333D01*
X297543571Y-13405952D01*
X297495952Y-13501190D01*
X297495952Y-13786904D01*
X297543571Y-13882142D01*
X297591190Y-13929761D01*
X297686428Y-13977380D01*
X297876904Y-13977380D01*
X297972142Y-13929761D01*
X296686428Y-13929761D02*
X296781666Y-13977380D01*
X296972142Y-13977380D01*
X297067380Y-13929761D01*
X297115000Y-13834523D01*
X297115000Y-13453571D01*
X297067380Y-13358333D01*
X296972142Y-13310714D01*
X296781666Y-13310714D01*
X296686428Y-13358333D01*
X296638809Y-13453571D01*
X296638809Y-13548809D01*
X297115000Y-13644047D01*
X295781666Y-13977380D02*
X295781666Y-12977380D01*
X295781666Y-13929761D02*
X295876904Y-13977380D01*
X296067380Y-13977380D01*
X296162619Y-13929761D01*
X296210238Y-13882142D01*
X296257857Y-13786904D01*
X296257857Y-13501190D01*
X296210238Y-13405952D01*
X296162619Y-13358333D01*
X296067380Y-13310714D01*
X295876904Y-13310714D01*
X295781666Y-13358333D01*
X294543571Y-13977380D02*
X294543571Y-12977380D01*
X294543571Y-13358333D02*
X294448333Y-13310714D01*
X294257857Y-13310714D01*
X294162619Y-13358333D01*
X294115000Y-13405952D01*
X294067380Y-13501190D01*
X294067380Y-13786904D01*
X294115000Y-13882142D01*
X294162619Y-13929761D01*
X294257857Y-13977380D01*
X294448333Y-13977380D01*
X294543571Y-13929761D01*
X293734047Y-13310714D02*
X293495952Y-13977380D01*
X293257857Y-13310714D02*
X293495952Y-13977380D01*
X293591190Y-14215476D01*
X293638809Y-14263095D01*
X293734047Y-14310714D01*
X292115000Y-13977380D02*
X292115000Y-12977380D01*
X291543571Y-13977380D01*
X291543571Y-12977380D01*
X290924523Y-13977380D02*
X291019761Y-13929761D01*
X291067380Y-13882142D01*
X291115000Y-13786904D01*
X291115000Y-13501190D01*
X291067380Y-13405952D01*
X291019761Y-13358333D01*
X290924523Y-13310714D01*
X290781666Y-13310714D01*
X290686428Y-13358333D01*
X290638809Y-13405952D01*
X290591190Y-13501190D01*
X290591190Y-13786904D01*
X290638809Y-13882142D01*
X290686428Y-13929761D01*
X290781666Y-13977380D01*
X290924523Y-13977380D01*
X290162619Y-13977380D02*
X290162619Y-12977380D01*
X289781666Y-12977380D01*
X289686428Y-13025000D01*
X289638809Y-13072619D01*
X289591190Y-13167857D01*
X289591190Y-13310714D01*
X289638809Y-13405952D01*
X289686428Y-13453571D01*
X289781666Y-13501190D01*
X290162619Y-13501190D01*
X288734047Y-13310714D02*
X288734047Y-13977380D01*
X289162619Y-13310714D02*
X289162619Y-13834523D01*
X289115000Y-13929761D01*
X289019761Y-13977380D01*
X288876904Y-13977380D01*
X288781666Y-13929761D01*
X288734047Y-13882142D01*
X288257857Y-13310714D02*
X288257857Y-13977380D01*
X288257857Y-13405952D02*
X288210238Y-13358333D01*
X288115000Y-13310714D01*
X287972142Y-13310714D01*
X287876904Y-13358333D01*
X287829285Y-13453571D01*
X287829285Y-13977380D01*
X287353095Y-13977380D02*
X287353095Y-12977380D01*
X286876904Y-13310714D02*
X286876904Y-13977380D01*
X286876904Y-13405952D02*
X286829285Y-13358333D01*
X286734047Y-13310714D01*
X286591190Y-13310714D01*
X286495952Y-13358333D01*
X286448333Y-13453571D01*
X286448333Y-13977380D01*
X285448333Y-13977380D02*
X286019761Y-13977380D01*
X285734047Y-13977380D02*
X285734047Y-12977380D01*
X285829285Y-13120238D01*
X285924523Y-13215476D01*
X286019761Y-13263095D01*
X284829285Y-12977380D02*
X284734047Y-12977380D01*
X284638809Y-13025000D01*
X284591190Y-13072619D01*
X284543571Y-13167857D01*
X284495952Y-13358333D01*
X284495952Y-13596428D01*
X284543571Y-13786904D01*
X284591190Y-13882142D01*
X284638809Y-13929761D01*
X284734047Y-13977380D01*
X284829285Y-13977380D01*
X284924523Y-13929761D01*
X284972142Y-13882142D01*
X285019761Y-13786904D01*
X285067380Y-13596428D01*
X285067380Y-13358333D01*
X285019761Y-13167857D01*
X284972142Y-13072619D01*
X284924523Y-13025000D01*
X284829285Y-12977380D01*
X284067380Y-13977380D02*
X284067380Y-12977380D01*
X283829285Y-12977380D01*
X283686428Y-13025000D01*
X283591190Y-13120238D01*
X283543571Y-13215476D01*
X283495952Y-13405952D01*
X283495952Y-13548809D01*
X283543571Y-13739285D01*
X283591190Y-13834523D01*
X283686428Y-13929761D01*
X283829285Y-13977380D01*
X284067380Y-13977380D01*
X283067380Y-13977380D02*
X283067380Y-13310714D01*
X283067380Y-12977380D02*
X283115000Y-13025000D01*
X283067380Y-13072619D01*
X283019761Y-13025000D01*
X283067380Y-12977380D01*
X283067380Y-13072619D01*
X282162619Y-13977380D02*
X282162619Y-12977380D01*
X282162619Y-13929761D02*
X282257857Y-13977380D01*
X282448333Y-13977380D01*
X282543571Y-13929761D01*
X282591190Y-13882142D01*
X282638809Y-13786904D01*
X282638809Y-13501190D01*
X282591190Y-13405952D01*
X282543571Y-13358333D01*
X282448333Y-13310714D01*
X282257857Y-13310714D01*
X282162619Y-13358333D01*
%LPC*%
M02*
