G04 #@! TF.GenerationSoftware,KiCad,Pcbnew,(5.1.9)-1*
G04 #@! TF.CreationDate,2021-06-08T15:14:57-04:00*
G04 #@! TF.ProjectId,kastenwagen-48-bottom,6b617374-656e-4776-9167-656e2d34382d,rev?*
G04 #@! TF.SameCoordinates,Original*
G04 #@! TF.FileFunction,Copper,L1,Top*
G04 #@! TF.FilePolarity,Positive*
%FSLAX46Y46*%
G04 Gerber Fmt 4.6, Leading zero omitted, Abs format (unit mm)*
G04 Created by KiCad (PCBNEW (5.1.9)-1) date 2021-06-08 15:14:57*
%MOMM*%
%LPD*%
G01*
G04 APERTURE LIST*
G04 #@! TA.AperFunction,NonConductor*
%ADD10C,0.254000*%
G04 #@! TD*
G04 #@! TA.AperFunction,NonConductor*
%ADD11C,0.020000*%
G04 #@! TD*
G04 APERTURE END LIST*
D10*
X173950952Y-7954265D02*
X173879053Y-8315728D01*
X173879053Y-8684272D01*
X173950952Y-9045735D01*
X174091988Y-9386226D01*
X174296740Y-9692659D01*
X174557341Y-9953260D01*
X174863774Y-10158012D01*
X175204265Y-10299048D01*
X175565728Y-10370947D01*
X175934272Y-10370947D01*
X176295735Y-10299048D01*
X176636226Y-10158012D01*
X176942659Y-9953260D01*
X177203260Y-9692659D01*
X177408012Y-9386226D01*
X177549048Y-9045735D01*
X177620947Y-8684272D01*
X177620947Y-8315728D01*
X177549048Y-7954265D01*
X177458225Y-7735000D01*
X305817269Y-7735000D01*
X306604747Y-7805281D01*
X307335643Y-8005231D01*
X307615985Y-8138947D01*
X307304265Y-8200952D01*
X306963774Y-8341988D01*
X306657341Y-8546740D01*
X306396740Y-8807341D01*
X306191988Y-9113774D01*
X306050952Y-9454265D01*
X305979053Y-9815728D01*
X305979053Y-10184272D01*
X306050952Y-10545735D01*
X306191988Y-10886226D01*
X306396740Y-11192659D01*
X306657341Y-11453260D01*
X306963774Y-11658012D01*
X307304265Y-11799048D01*
X307665728Y-11870947D01*
X308034272Y-11870947D01*
X308395735Y-11799048D01*
X308736226Y-11658012D01*
X309042659Y-11453260D01*
X309303260Y-11192659D01*
X309508012Y-10886226D01*
X309649048Y-10545735D01*
X309711035Y-10234101D01*
X309889463Y-10640570D01*
X310067715Y-11383039D01*
X310115001Y-12026963D01*
X310115000Y-91467269D01*
X310044719Y-92254748D01*
X309844769Y-92985643D01*
X309711053Y-93265985D01*
X309649048Y-92954265D01*
X309508012Y-92613774D01*
X309303260Y-92307341D01*
X309042659Y-92046740D01*
X308736226Y-91841988D01*
X308395735Y-91700952D01*
X308034272Y-91629053D01*
X307665728Y-91629053D01*
X307304265Y-91700952D01*
X306963774Y-91841988D01*
X306657341Y-92046740D01*
X306396740Y-92307341D01*
X306191988Y-92613774D01*
X306050952Y-92954265D01*
X305979053Y-93315728D01*
X305979053Y-93684272D01*
X306050952Y-94045735D01*
X306191988Y-94386226D01*
X306396740Y-94692659D01*
X306657341Y-94953260D01*
X306963774Y-95158012D01*
X307304265Y-95299048D01*
X307615899Y-95361035D01*
X307209429Y-95539464D01*
X306466961Y-95717714D01*
X305823051Y-95765000D01*
X177458225Y-95765000D01*
X177549048Y-95545735D01*
X177620947Y-95184272D01*
X177620947Y-94815728D01*
X177549048Y-94454265D01*
X177408012Y-94113774D01*
X177203260Y-93807341D01*
X176942659Y-93546740D01*
X176636226Y-93341988D01*
X176295735Y-93200952D01*
X175934272Y-93129053D01*
X175565728Y-93129053D01*
X175204265Y-93200952D01*
X174863774Y-93341988D01*
X174557341Y-93546740D01*
X174296740Y-93807341D01*
X174091988Y-94113774D01*
X173950952Y-94454265D01*
X173879053Y-94815728D01*
X173879053Y-95184272D01*
X173950952Y-95545735D01*
X174041775Y-95765000D01*
X16532731Y-95765000D01*
X15745252Y-95694719D01*
X15014357Y-95494769D01*
X14734015Y-95361053D01*
X15045735Y-95299048D01*
X15386226Y-95158012D01*
X15692659Y-94953260D01*
X15953260Y-94692659D01*
X16158012Y-94386226D01*
X16299048Y-94045735D01*
X16370947Y-93684272D01*
X16370947Y-93315728D01*
X16299048Y-92954265D01*
X16158012Y-92613774D01*
X15953260Y-92307341D01*
X15692659Y-92046740D01*
X15386226Y-91841988D01*
X15045735Y-91700952D01*
X14684272Y-91629053D01*
X14315728Y-91629053D01*
X13954265Y-91700952D01*
X13613774Y-91841988D01*
X13307341Y-92046740D01*
X13046740Y-92307341D01*
X12841988Y-92613774D01*
X12700952Y-92954265D01*
X12638965Y-93265899D01*
X12460536Y-92859429D01*
X12282286Y-92116961D01*
X12235000Y-91473051D01*
X12235000Y-37113388D01*
X281351443Y-37113388D01*
X281351443Y-37359412D01*
X281399440Y-37600707D01*
X281493589Y-37828003D01*
X281630272Y-38032564D01*
X281804236Y-38206528D01*
X282008797Y-38343211D01*
X282236093Y-38437360D01*
X282477388Y-38485357D01*
X282723412Y-38485357D01*
X282964707Y-38437360D01*
X283192003Y-38343211D01*
X283396564Y-38206528D01*
X283570528Y-38032564D01*
X283707211Y-37828003D01*
X283801360Y-37600707D01*
X283849357Y-37359412D01*
X283849357Y-37113388D01*
X283801360Y-36872093D01*
X283707211Y-36644797D01*
X283570528Y-36440236D01*
X283396564Y-36266272D01*
X283192003Y-36129589D01*
X282964707Y-36035440D01*
X282723412Y-35987443D01*
X282477388Y-35987443D01*
X282236093Y-36035440D01*
X282008797Y-36129589D01*
X281804236Y-36266272D01*
X281630272Y-36440236D01*
X281493589Y-36644797D01*
X281399440Y-36872093D01*
X281351443Y-37113388D01*
X12235000Y-37113388D01*
X12235000Y-27613388D01*
X281351443Y-27613388D01*
X281351443Y-27859412D01*
X281399440Y-28100707D01*
X281493589Y-28328003D01*
X281630272Y-28532564D01*
X281804236Y-28706528D01*
X282008797Y-28843211D01*
X282236093Y-28937360D01*
X282477388Y-28985357D01*
X282723412Y-28985357D01*
X282964707Y-28937360D01*
X283192003Y-28843211D01*
X283396564Y-28706528D01*
X283570528Y-28532564D01*
X283707211Y-28328003D01*
X283801360Y-28100707D01*
X283849357Y-27859412D01*
X283849357Y-27613388D01*
X283801360Y-27372093D01*
X283707211Y-27144797D01*
X283570528Y-26940236D01*
X283396564Y-26766272D01*
X283192003Y-26629589D01*
X282964707Y-26535440D01*
X282723412Y-26487443D01*
X282477388Y-26487443D01*
X282236093Y-26535440D01*
X282008797Y-26629589D01*
X281804236Y-26766272D01*
X281630272Y-26940236D01*
X281493589Y-27144797D01*
X281399440Y-27372093D01*
X281351443Y-27613388D01*
X12235000Y-27613388D01*
X12235000Y-18113388D01*
X281351443Y-18113388D01*
X281351443Y-18359412D01*
X281399440Y-18600707D01*
X281493589Y-18828003D01*
X281630272Y-19032564D01*
X281804236Y-19206528D01*
X282008797Y-19343211D01*
X282236093Y-19437360D01*
X282477388Y-19485357D01*
X282723412Y-19485357D01*
X282964707Y-19437360D01*
X283192003Y-19343211D01*
X283396564Y-19206528D01*
X283570528Y-19032564D01*
X283707211Y-18828003D01*
X283801360Y-18600707D01*
X283849357Y-18359412D01*
X283849357Y-18113388D01*
X283801360Y-17872093D01*
X283707211Y-17644797D01*
X283570528Y-17440236D01*
X283396564Y-17266272D01*
X283192003Y-17129589D01*
X282964707Y-17035440D01*
X282723412Y-16987443D01*
X282477388Y-16987443D01*
X282236093Y-17035440D01*
X282008797Y-17129589D01*
X281804236Y-17266272D01*
X281630272Y-17440236D01*
X281493589Y-17644797D01*
X281399440Y-17872093D01*
X281351443Y-18113388D01*
X12235000Y-18113388D01*
X12235000Y-12032731D01*
X12305281Y-11245253D01*
X12505231Y-10514357D01*
X12638947Y-10234015D01*
X12700952Y-10545735D01*
X12841988Y-10886226D01*
X13046740Y-11192659D01*
X13307341Y-11453260D01*
X13613774Y-11658012D01*
X13954265Y-11799048D01*
X14315728Y-11870947D01*
X14684272Y-11870947D01*
X15045735Y-11799048D01*
X15386226Y-11658012D01*
X15692659Y-11453260D01*
X15953260Y-11192659D01*
X16158012Y-10886226D01*
X16299048Y-10545735D01*
X16370947Y-10184272D01*
X16370947Y-9815728D01*
X16299048Y-9454265D01*
X16158012Y-9113774D01*
X15953260Y-8807341D01*
X15692659Y-8546740D01*
X15386226Y-8341988D01*
X15045735Y-8200952D01*
X14734101Y-8138965D01*
X15140570Y-7960537D01*
X15883039Y-7782285D01*
X16526949Y-7735000D01*
X174041775Y-7735000D01*
X173950952Y-7954265D01*
G04 #@! TA.AperFunction,NonConductor*
D11*
G36*
X173950952Y-7954265D02*
G01*
X173879053Y-8315728D01*
X173879053Y-8684272D01*
X173950952Y-9045735D01*
X174091988Y-9386226D01*
X174296740Y-9692659D01*
X174557341Y-9953260D01*
X174863774Y-10158012D01*
X175204265Y-10299048D01*
X175565728Y-10370947D01*
X175934272Y-10370947D01*
X176295735Y-10299048D01*
X176636226Y-10158012D01*
X176942659Y-9953260D01*
X177203260Y-9692659D01*
X177408012Y-9386226D01*
X177549048Y-9045735D01*
X177620947Y-8684272D01*
X177620947Y-8315728D01*
X177549048Y-7954265D01*
X177458225Y-7735000D01*
X305817269Y-7735000D01*
X306604747Y-7805281D01*
X307335643Y-8005231D01*
X307615985Y-8138947D01*
X307304265Y-8200952D01*
X306963774Y-8341988D01*
X306657341Y-8546740D01*
X306396740Y-8807341D01*
X306191988Y-9113774D01*
X306050952Y-9454265D01*
X305979053Y-9815728D01*
X305979053Y-10184272D01*
X306050952Y-10545735D01*
X306191988Y-10886226D01*
X306396740Y-11192659D01*
X306657341Y-11453260D01*
X306963774Y-11658012D01*
X307304265Y-11799048D01*
X307665728Y-11870947D01*
X308034272Y-11870947D01*
X308395735Y-11799048D01*
X308736226Y-11658012D01*
X309042659Y-11453260D01*
X309303260Y-11192659D01*
X309508012Y-10886226D01*
X309649048Y-10545735D01*
X309711035Y-10234101D01*
X309889463Y-10640570D01*
X310067715Y-11383039D01*
X310115001Y-12026963D01*
X310115000Y-91467269D01*
X310044719Y-92254748D01*
X309844769Y-92985643D01*
X309711053Y-93265985D01*
X309649048Y-92954265D01*
X309508012Y-92613774D01*
X309303260Y-92307341D01*
X309042659Y-92046740D01*
X308736226Y-91841988D01*
X308395735Y-91700952D01*
X308034272Y-91629053D01*
X307665728Y-91629053D01*
X307304265Y-91700952D01*
X306963774Y-91841988D01*
X306657341Y-92046740D01*
X306396740Y-92307341D01*
X306191988Y-92613774D01*
X306050952Y-92954265D01*
X305979053Y-93315728D01*
X305979053Y-93684272D01*
X306050952Y-94045735D01*
X306191988Y-94386226D01*
X306396740Y-94692659D01*
X306657341Y-94953260D01*
X306963774Y-95158012D01*
X307304265Y-95299048D01*
X307615899Y-95361035D01*
X307209429Y-95539464D01*
X306466961Y-95717714D01*
X305823051Y-95765000D01*
X177458225Y-95765000D01*
X177549048Y-95545735D01*
X177620947Y-95184272D01*
X177620947Y-94815728D01*
X177549048Y-94454265D01*
X177408012Y-94113774D01*
X177203260Y-93807341D01*
X176942659Y-93546740D01*
X176636226Y-93341988D01*
X176295735Y-93200952D01*
X175934272Y-93129053D01*
X175565728Y-93129053D01*
X175204265Y-93200952D01*
X174863774Y-93341988D01*
X174557341Y-93546740D01*
X174296740Y-93807341D01*
X174091988Y-94113774D01*
X173950952Y-94454265D01*
X173879053Y-94815728D01*
X173879053Y-95184272D01*
X173950952Y-95545735D01*
X174041775Y-95765000D01*
X16532731Y-95765000D01*
X15745252Y-95694719D01*
X15014357Y-95494769D01*
X14734015Y-95361053D01*
X15045735Y-95299048D01*
X15386226Y-95158012D01*
X15692659Y-94953260D01*
X15953260Y-94692659D01*
X16158012Y-94386226D01*
X16299048Y-94045735D01*
X16370947Y-93684272D01*
X16370947Y-93315728D01*
X16299048Y-92954265D01*
X16158012Y-92613774D01*
X15953260Y-92307341D01*
X15692659Y-92046740D01*
X15386226Y-91841988D01*
X15045735Y-91700952D01*
X14684272Y-91629053D01*
X14315728Y-91629053D01*
X13954265Y-91700952D01*
X13613774Y-91841988D01*
X13307341Y-92046740D01*
X13046740Y-92307341D01*
X12841988Y-92613774D01*
X12700952Y-92954265D01*
X12638965Y-93265899D01*
X12460536Y-92859429D01*
X12282286Y-92116961D01*
X12235000Y-91473051D01*
X12235000Y-37113388D01*
X281351443Y-37113388D01*
X281351443Y-37359412D01*
X281399440Y-37600707D01*
X281493589Y-37828003D01*
X281630272Y-38032564D01*
X281804236Y-38206528D01*
X282008797Y-38343211D01*
X282236093Y-38437360D01*
X282477388Y-38485357D01*
X282723412Y-38485357D01*
X282964707Y-38437360D01*
X283192003Y-38343211D01*
X283396564Y-38206528D01*
X283570528Y-38032564D01*
X283707211Y-37828003D01*
X283801360Y-37600707D01*
X283849357Y-37359412D01*
X283849357Y-37113388D01*
X283801360Y-36872093D01*
X283707211Y-36644797D01*
X283570528Y-36440236D01*
X283396564Y-36266272D01*
X283192003Y-36129589D01*
X282964707Y-36035440D01*
X282723412Y-35987443D01*
X282477388Y-35987443D01*
X282236093Y-36035440D01*
X282008797Y-36129589D01*
X281804236Y-36266272D01*
X281630272Y-36440236D01*
X281493589Y-36644797D01*
X281399440Y-36872093D01*
X281351443Y-37113388D01*
X12235000Y-37113388D01*
X12235000Y-27613388D01*
X281351443Y-27613388D01*
X281351443Y-27859412D01*
X281399440Y-28100707D01*
X281493589Y-28328003D01*
X281630272Y-28532564D01*
X281804236Y-28706528D01*
X282008797Y-28843211D01*
X282236093Y-28937360D01*
X282477388Y-28985357D01*
X282723412Y-28985357D01*
X282964707Y-28937360D01*
X283192003Y-28843211D01*
X283396564Y-28706528D01*
X283570528Y-28532564D01*
X283707211Y-28328003D01*
X283801360Y-28100707D01*
X283849357Y-27859412D01*
X283849357Y-27613388D01*
X283801360Y-27372093D01*
X283707211Y-27144797D01*
X283570528Y-26940236D01*
X283396564Y-26766272D01*
X283192003Y-26629589D01*
X282964707Y-26535440D01*
X282723412Y-26487443D01*
X282477388Y-26487443D01*
X282236093Y-26535440D01*
X282008797Y-26629589D01*
X281804236Y-26766272D01*
X281630272Y-26940236D01*
X281493589Y-27144797D01*
X281399440Y-27372093D01*
X281351443Y-27613388D01*
X12235000Y-27613388D01*
X12235000Y-18113388D01*
X281351443Y-18113388D01*
X281351443Y-18359412D01*
X281399440Y-18600707D01*
X281493589Y-18828003D01*
X281630272Y-19032564D01*
X281804236Y-19206528D01*
X282008797Y-19343211D01*
X282236093Y-19437360D01*
X282477388Y-19485357D01*
X282723412Y-19485357D01*
X282964707Y-19437360D01*
X283192003Y-19343211D01*
X283396564Y-19206528D01*
X283570528Y-19032564D01*
X283707211Y-18828003D01*
X283801360Y-18600707D01*
X283849357Y-18359412D01*
X283849357Y-18113388D01*
X283801360Y-17872093D01*
X283707211Y-17644797D01*
X283570528Y-17440236D01*
X283396564Y-17266272D01*
X283192003Y-17129589D01*
X282964707Y-17035440D01*
X282723412Y-16987443D01*
X282477388Y-16987443D01*
X282236093Y-17035440D01*
X282008797Y-17129589D01*
X281804236Y-17266272D01*
X281630272Y-17440236D01*
X281493589Y-17644797D01*
X281399440Y-17872093D01*
X281351443Y-18113388D01*
X12235000Y-18113388D01*
X12235000Y-12032731D01*
X12305281Y-11245253D01*
X12505231Y-10514357D01*
X12638947Y-10234015D01*
X12700952Y-10545735D01*
X12841988Y-10886226D01*
X13046740Y-11192659D01*
X13307341Y-11453260D01*
X13613774Y-11658012D01*
X13954265Y-11799048D01*
X14315728Y-11870947D01*
X14684272Y-11870947D01*
X15045735Y-11799048D01*
X15386226Y-11658012D01*
X15692659Y-11453260D01*
X15953260Y-11192659D01*
X16158012Y-10886226D01*
X16299048Y-10545735D01*
X16370947Y-10184272D01*
X16370947Y-9815728D01*
X16299048Y-9454265D01*
X16158012Y-9113774D01*
X15953260Y-8807341D01*
X15692659Y-8546740D01*
X15386226Y-8341988D01*
X15045735Y-8200952D01*
X14734101Y-8138965D01*
X15140570Y-7960537D01*
X15883039Y-7782285D01*
X16526949Y-7735000D01*
X174041775Y-7735000D01*
X173950952Y-7954265D01*
G37*
G04 #@! TD.AperFunction*
M02*
