G04 #@! TF.GenerationSoftware,KiCad,Pcbnew,(5.1.9)-1*
G04 #@! TF.CreationDate,2021-06-08T15:14:57-04:00*
G04 #@! TF.ProjectId,kastenwagen-48-bottom,6b617374-656e-4776-9167-656e2d34382d,rev?*
G04 #@! TF.SameCoordinates,Original*
G04 #@! TF.FileFunction,Legend,Top*
G04 #@! TF.FilePolarity,Positive*
%FSLAX46Y46*%
G04 Gerber Fmt 4.6, Leading zero omitted, Abs format (unit mm)*
G04 Created by KiCad (PCBNEW (5.1.9)-1) date 2021-06-08 15:14:57*
%MOMM*%
%LPD*%
G01*
G04 APERTURE LIST*
%ADD10C,0.300000*%
G04 APERTURE END LIST*
D10*
X258470892Y-81472321D02*
X258470892Y-79972321D01*
X259328035Y-81472321D02*
X258685178Y-80615178D01*
X259328035Y-79972321D02*
X258470892Y-80829464D01*
X260613750Y-81472321D02*
X260613750Y-80686607D01*
X260542321Y-80543750D01*
X260399464Y-80472321D01*
X260113750Y-80472321D01*
X259970892Y-80543750D01*
X260613750Y-81400892D02*
X260470892Y-81472321D01*
X260113750Y-81472321D01*
X259970892Y-81400892D01*
X259899464Y-81258035D01*
X259899464Y-81115178D01*
X259970892Y-80972321D01*
X260113750Y-80900892D01*
X260470892Y-80900892D01*
X260613750Y-80829464D01*
X261256607Y-81400892D02*
X261399464Y-81472321D01*
X261685178Y-81472321D01*
X261828035Y-81400892D01*
X261899464Y-81258035D01*
X261899464Y-81186607D01*
X261828035Y-81043750D01*
X261685178Y-80972321D01*
X261470892Y-80972321D01*
X261328035Y-80900892D01*
X261256607Y-80758035D01*
X261256607Y-80686607D01*
X261328035Y-80543750D01*
X261470892Y-80472321D01*
X261685178Y-80472321D01*
X261828035Y-80543750D01*
X262328035Y-80472321D02*
X262899464Y-80472321D01*
X262542321Y-79972321D02*
X262542321Y-81258035D01*
X262613750Y-81400892D01*
X262756607Y-81472321D01*
X262899464Y-81472321D01*
X263970892Y-81400892D02*
X263828035Y-81472321D01*
X263542321Y-81472321D01*
X263399464Y-81400892D01*
X263328035Y-81258035D01*
X263328035Y-80686607D01*
X263399464Y-80543750D01*
X263542321Y-80472321D01*
X263828035Y-80472321D01*
X263970892Y-80543750D01*
X264042321Y-80686607D01*
X264042321Y-80829464D01*
X263328035Y-80972321D01*
X264685178Y-80472321D02*
X264685178Y-81472321D01*
X264685178Y-80615178D02*
X264756607Y-80543750D01*
X264899464Y-80472321D01*
X265113750Y-80472321D01*
X265256607Y-80543750D01*
X265328035Y-80686607D01*
X265328035Y-81472321D01*
X265899464Y-80472321D02*
X266185178Y-81472321D01*
X266470892Y-80758035D01*
X266756607Y-81472321D01*
X267042321Y-80472321D01*
X268256607Y-81472321D02*
X268256607Y-80686607D01*
X268185178Y-80543750D01*
X268042321Y-80472321D01*
X267756607Y-80472321D01*
X267613750Y-80543750D01*
X268256607Y-81400892D02*
X268113750Y-81472321D01*
X267756607Y-81472321D01*
X267613750Y-81400892D01*
X267542321Y-81258035D01*
X267542321Y-81115178D01*
X267613750Y-80972321D01*
X267756607Y-80900892D01*
X268113750Y-80900892D01*
X268256607Y-80829464D01*
X269613750Y-80472321D02*
X269613750Y-81686607D01*
X269542321Y-81829464D01*
X269470892Y-81900892D01*
X269328035Y-81972321D01*
X269113750Y-81972321D01*
X268970892Y-81900892D01*
X269613750Y-81400892D02*
X269470892Y-81472321D01*
X269185178Y-81472321D01*
X269042321Y-81400892D01*
X268970892Y-81329464D01*
X268899464Y-81186607D01*
X268899464Y-80758035D01*
X268970892Y-80615178D01*
X269042321Y-80543750D01*
X269185178Y-80472321D01*
X269470892Y-80472321D01*
X269613750Y-80543750D01*
X270899464Y-81400892D02*
X270756607Y-81472321D01*
X270470892Y-81472321D01*
X270328035Y-81400892D01*
X270256607Y-81258035D01*
X270256607Y-80686607D01*
X270328035Y-80543750D01*
X270470892Y-80472321D01*
X270756607Y-80472321D01*
X270899464Y-80543750D01*
X270970892Y-80686607D01*
X270970892Y-80829464D01*
X270256607Y-80972321D01*
X271613750Y-80472321D02*
X271613750Y-81472321D01*
X271613750Y-80615178D02*
X271685178Y-80543750D01*
X271828035Y-80472321D01*
X272042321Y-80472321D01*
X272185178Y-80543750D01*
X272256607Y-80686607D01*
X272256607Y-81472321D01*
X274756607Y-80472321D02*
X274756607Y-81472321D01*
X274399464Y-79900892D02*
X274042321Y-80972321D01*
X274970892Y-80972321D01*
X275756607Y-80615178D02*
X275613750Y-80543750D01*
X275542321Y-80472321D01*
X275470892Y-80329464D01*
X275470892Y-80258035D01*
X275542321Y-80115178D01*
X275613750Y-80043750D01*
X275756607Y-79972321D01*
X276042321Y-79972321D01*
X276185178Y-80043750D01*
X276256607Y-80115178D01*
X276328035Y-80258035D01*
X276328035Y-80329464D01*
X276256607Y-80472321D01*
X276185178Y-80543750D01*
X276042321Y-80615178D01*
X275756607Y-80615178D01*
X275613750Y-80686607D01*
X275542321Y-80758035D01*
X275470892Y-80900892D01*
X275470892Y-81186607D01*
X275542321Y-81329464D01*
X275613750Y-81400892D01*
X275756607Y-81472321D01*
X276042321Y-81472321D01*
X276185178Y-81400892D01*
X276256607Y-81329464D01*
X276328035Y-81186607D01*
X276328035Y-80900892D01*
X276256607Y-80758035D01*
X276185178Y-80686607D01*
X276042321Y-80615178D01*
X276970892Y-81329464D02*
X277042321Y-81400892D01*
X276970892Y-81472321D01*
X276899464Y-81400892D01*
X276970892Y-81329464D01*
X276970892Y-81472321D01*
X276970892Y-80543750D02*
X277042321Y-80615178D01*
X276970892Y-80686607D01*
X276899464Y-80615178D01*
X276970892Y-80543750D01*
X276970892Y-80686607D01*
X278828035Y-81472321D02*
X278828035Y-79972321D01*
X279399464Y-79972321D01*
X279542321Y-80043750D01*
X279613750Y-80115178D01*
X279685178Y-80258035D01*
X279685178Y-80472321D01*
X279613750Y-80615178D01*
X279542321Y-80686607D01*
X279399464Y-80758035D01*
X278828035Y-80758035D01*
X280328035Y-81472321D02*
X280328035Y-80472321D01*
X280328035Y-80758035D02*
X280399464Y-80615178D01*
X280470892Y-80543750D01*
X280613750Y-80472321D01*
X280756607Y-80472321D01*
X281470892Y-81472321D02*
X281328035Y-81400892D01*
X281256607Y-81329464D01*
X281185178Y-81186607D01*
X281185178Y-80758035D01*
X281256607Y-80615178D01*
X281328035Y-80543750D01*
X281470892Y-80472321D01*
X281685178Y-80472321D01*
X281828035Y-80543750D01*
X281899464Y-80615178D01*
X281970892Y-80758035D01*
X281970892Y-81186607D01*
X281899464Y-81329464D01*
X281828035Y-81400892D01*
X281685178Y-81472321D01*
X281470892Y-81472321D01*
X282399464Y-80472321D02*
X282970892Y-80472321D01*
X282613750Y-79972321D02*
X282613750Y-81258035D01*
X282685178Y-81400892D01*
X282828035Y-81472321D01*
X282970892Y-81472321D01*
X283685178Y-81472321D02*
X283542321Y-81400892D01*
X283470892Y-81329464D01*
X283399464Y-81186607D01*
X283399464Y-80758035D01*
X283470892Y-80615178D01*
X283542321Y-80543750D01*
X283685178Y-80472321D01*
X283899464Y-80472321D01*
X284042321Y-80543750D01*
X284113750Y-80615178D01*
X284185178Y-80758035D01*
X284185178Y-81186607D01*
X284113750Y-81329464D01*
X284042321Y-81400892D01*
X283899464Y-81472321D01*
X283685178Y-81472321D01*
X284613750Y-80472321D02*
X285185178Y-80472321D01*
X284828035Y-79972321D02*
X284828035Y-81258035D01*
X284899464Y-81400892D01*
X285042321Y-81472321D01*
X285185178Y-81472321D01*
X285542321Y-80472321D02*
X285899464Y-81472321D01*
X286256607Y-80472321D02*
X285899464Y-81472321D01*
X285756607Y-81829464D01*
X285685178Y-81900892D01*
X285542321Y-81972321D01*
X286828035Y-80472321D02*
X286828035Y-81972321D01*
X286828035Y-80543750D02*
X286970892Y-80472321D01*
X287256607Y-80472321D01*
X287399464Y-80543750D01*
X287470892Y-80615178D01*
X287542321Y-80758035D01*
X287542321Y-81186607D01*
X287470892Y-81329464D01*
X287399464Y-81400892D01*
X287256607Y-81472321D01*
X286970892Y-81472321D01*
X286828035Y-81400892D01*
X288756607Y-81400892D02*
X288613750Y-81472321D01*
X288328035Y-81472321D01*
X288185178Y-81400892D01*
X288113750Y-81258035D01*
X288113750Y-80686607D01*
X288185178Y-80543750D01*
X288328035Y-80472321D01*
X288613750Y-80472321D01*
X288756607Y-80543750D01*
X288828035Y-80686607D01*
X288828035Y-80829464D01*
X288113750Y-80972321D01*
X290542321Y-80115178D02*
X290613750Y-80043750D01*
X290756607Y-79972321D01*
X291113750Y-79972321D01*
X291256607Y-80043750D01*
X291328035Y-80115178D01*
X291399464Y-80258035D01*
X291399464Y-80400892D01*
X291328035Y-80615178D01*
X290470892Y-81472321D01*
X291399464Y-81472321D01*
X292328035Y-79972321D02*
X292470892Y-79972321D01*
X292613750Y-80043750D01*
X292685178Y-80115178D01*
X292756607Y-80258035D01*
X292828035Y-80543750D01*
X292828035Y-80900892D01*
X292756607Y-81186607D01*
X292685178Y-81329464D01*
X292613750Y-81400892D01*
X292470892Y-81472321D01*
X292328035Y-81472321D01*
X292185178Y-81400892D01*
X292113750Y-81329464D01*
X292042321Y-81186607D01*
X291970892Y-80900892D01*
X291970892Y-80543750D01*
X292042321Y-80258035D01*
X292113750Y-80115178D01*
X292185178Y-80043750D01*
X292328035Y-79972321D01*
X293399464Y-80115178D02*
X293470892Y-80043750D01*
X293613750Y-79972321D01*
X293970892Y-79972321D01*
X294113750Y-80043750D01*
X294185178Y-80115178D01*
X294256607Y-80258035D01*
X294256607Y-80400892D01*
X294185178Y-80615178D01*
X293328035Y-81472321D01*
X294256607Y-81472321D01*
X295685178Y-81472321D02*
X294828035Y-81472321D01*
X295256607Y-81472321D02*
X295256607Y-79972321D01*
X295113750Y-80186607D01*
X294970892Y-80329464D01*
X294828035Y-80400892D01*
X296328035Y-80900892D02*
X297470892Y-80900892D01*
X298470892Y-79972321D02*
X298613750Y-79972321D01*
X298756607Y-80043750D01*
X298828035Y-80115178D01*
X298899464Y-80258035D01*
X298970892Y-80543750D01*
X298970892Y-80900892D01*
X298899464Y-81186607D01*
X298828035Y-81329464D01*
X298756607Y-81400892D01*
X298613750Y-81472321D01*
X298470892Y-81472321D01*
X298328035Y-81400892D01*
X298256607Y-81329464D01*
X298185178Y-81186607D01*
X298113750Y-80900892D01*
X298113750Y-80543750D01*
X298185178Y-80258035D01*
X298256607Y-80115178D01*
X298328035Y-80043750D01*
X298470892Y-79972321D01*
X300256607Y-79972321D02*
X299970892Y-79972321D01*
X299828035Y-80043750D01*
X299756607Y-80115178D01*
X299613750Y-80329464D01*
X299542321Y-80615178D01*
X299542321Y-81186607D01*
X299613750Y-81329464D01*
X299685178Y-81400892D01*
X299828035Y-81472321D01*
X300113750Y-81472321D01*
X300256607Y-81400892D01*
X300328035Y-81329464D01*
X300399464Y-81186607D01*
X300399464Y-80829464D01*
X300328035Y-80686607D01*
X300256607Y-80615178D01*
X300113750Y-80543750D01*
X299828035Y-80543750D01*
X299685178Y-80615178D01*
X299613750Y-80686607D01*
X299542321Y-80829464D01*
X258470892Y-84022321D02*
X258470892Y-82522321D01*
X258828035Y-82522321D01*
X259042321Y-82593750D01*
X259185178Y-82736607D01*
X259256607Y-82879464D01*
X259328035Y-83165178D01*
X259328035Y-83379464D01*
X259256607Y-83665178D01*
X259185178Y-83808035D01*
X259042321Y-83950892D01*
X258828035Y-84022321D01*
X258470892Y-84022321D01*
X260542321Y-83950892D02*
X260399464Y-84022321D01*
X260113750Y-84022321D01*
X259970892Y-83950892D01*
X259899464Y-83808035D01*
X259899464Y-83236607D01*
X259970892Y-83093750D01*
X260113750Y-83022321D01*
X260399464Y-83022321D01*
X260542321Y-83093750D01*
X260613750Y-83236607D01*
X260613750Y-83379464D01*
X259899464Y-83522321D01*
X261113750Y-83022321D02*
X261470892Y-84022321D01*
X261828035Y-83022321D01*
X262970892Y-83950892D02*
X262828035Y-84022321D01*
X262542321Y-84022321D01*
X262399464Y-83950892D01*
X262328035Y-83808035D01*
X262328035Y-83236607D01*
X262399464Y-83093750D01*
X262542321Y-83022321D01*
X262828035Y-83022321D01*
X262970892Y-83093750D01*
X263042321Y-83236607D01*
X263042321Y-83379464D01*
X262328035Y-83522321D01*
X263899464Y-84022321D02*
X263756607Y-83950892D01*
X263685178Y-83808035D01*
X263685178Y-82522321D01*
X264685178Y-84022321D02*
X264542321Y-83950892D01*
X264470892Y-83879464D01*
X264399464Y-83736607D01*
X264399464Y-83308035D01*
X264470892Y-83165178D01*
X264542321Y-83093750D01*
X264685178Y-83022321D01*
X264899464Y-83022321D01*
X265042321Y-83093750D01*
X265113750Y-83165178D01*
X265185178Y-83308035D01*
X265185178Y-83736607D01*
X265113750Y-83879464D01*
X265042321Y-83950892D01*
X264899464Y-84022321D01*
X264685178Y-84022321D01*
X265828035Y-83022321D02*
X265828035Y-84522321D01*
X265828035Y-83093750D02*
X265970892Y-83022321D01*
X266256607Y-83022321D01*
X266399464Y-83093750D01*
X266470892Y-83165178D01*
X266542321Y-83308035D01*
X266542321Y-83736607D01*
X266470892Y-83879464D01*
X266399464Y-83950892D01*
X266256607Y-84022321D01*
X265970892Y-84022321D01*
X265828035Y-83950892D01*
X267756607Y-83950892D02*
X267613750Y-84022321D01*
X267328035Y-84022321D01*
X267185178Y-83950892D01*
X267113750Y-83808035D01*
X267113750Y-83236607D01*
X267185178Y-83093750D01*
X267328035Y-83022321D01*
X267613750Y-83022321D01*
X267756607Y-83093750D01*
X267828035Y-83236607D01*
X267828035Y-83379464D01*
X267113750Y-83522321D01*
X269113750Y-84022321D02*
X269113750Y-82522321D01*
X269113750Y-83950892D02*
X268970892Y-84022321D01*
X268685178Y-84022321D01*
X268542321Y-83950892D01*
X268470892Y-83879464D01*
X268399464Y-83736607D01*
X268399464Y-83308035D01*
X268470892Y-83165178D01*
X268542321Y-83093750D01*
X268685178Y-83022321D01*
X268970892Y-83022321D01*
X269113750Y-83093750D01*
X270970892Y-84022321D02*
X270970892Y-82522321D01*
X270970892Y-83093750D02*
X271113750Y-83022321D01*
X271399464Y-83022321D01*
X271542321Y-83093750D01*
X271613750Y-83165178D01*
X271685178Y-83308035D01*
X271685178Y-83736607D01*
X271613750Y-83879464D01*
X271542321Y-83950892D01*
X271399464Y-84022321D01*
X271113750Y-84022321D01*
X270970892Y-83950892D01*
X272185178Y-83022321D02*
X272542321Y-84022321D01*
X272899464Y-83022321D02*
X272542321Y-84022321D01*
X272399464Y-84379464D01*
X272328035Y-84450892D01*
X272185178Y-84522321D01*
X274613750Y-84022321D02*
X274613750Y-82522321D01*
X275470892Y-84022321D01*
X275470892Y-82522321D01*
X276399464Y-84022321D02*
X276256607Y-83950892D01*
X276185178Y-83879464D01*
X276113750Y-83736607D01*
X276113750Y-83308035D01*
X276185178Y-83165178D01*
X276256607Y-83093750D01*
X276399464Y-83022321D01*
X276613750Y-83022321D01*
X276756607Y-83093750D01*
X276828035Y-83165178D01*
X276899464Y-83308035D01*
X276899464Y-83736607D01*
X276828035Y-83879464D01*
X276756607Y-83950892D01*
X276613750Y-84022321D01*
X276399464Y-84022321D01*
X277542321Y-84022321D02*
X277542321Y-82522321D01*
X278113750Y-82522321D01*
X278256607Y-82593750D01*
X278328035Y-82665178D01*
X278399464Y-82808035D01*
X278399464Y-83022321D01*
X278328035Y-83165178D01*
X278256607Y-83236607D01*
X278113750Y-83308035D01*
X277542321Y-83308035D01*
X279685178Y-83022321D02*
X279685178Y-84022321D01*
X279042321Y-83022321D02*
X279042321Y-83808035D01*
X279113750Y-83950892D01*
X279256607Y-84022321D01*
X279470892Y-84022321D01*
X279613750Y-83950892D01*
X279685178Y-83879464D01*
X280399464Y-83022321D02*
X280399464Y-84022321D01*
X280399464Y-83165178D02*
X280470892Y-83093750D01*
X280613750Y-83022321D01*
X280828035Y-83022321D01*
X280970892Y-83093750D01*
X281042321Y-83236607D01*
X281042321Y-84022321D01*
X281756607Y-84022321D02*
X281756607Y-82522321D01*
X282470892Y-83022321D02*
X282470892Y-84022321D01*
X282470892Y-83165178D02*
X282542321Y-83093750D01*
X282685178Y-83022321D01*
X282899464Y-83022321D01*
X283042321Y-83093750D01*
X283113750Y-83236607D01*
X283113750Y-84022321D01*
X284613750Y-84022321D02*
X283756607Y-84022321D01*
X284185178Y-84022321D02*
X284185178Y-82522321D01*
X284042321Y-82736607D01*
X283899464Y-82879464D01*
X283756607Y-82950892D01*
X285542321Y-82522321D02*
X285685178Y-82522321D01*
X285828035Y-82593750D01*
X285899464Y-82665178D01*
X285970892Y-82808035D01*
X286042321Y-83093750D01*
X286042321Y-83450892D01*
X285970892Y-83736607D01*
X285899464Y-83879464D01*
X285828035Y-83950892D01*
X285685178Y-84022321D01*
X285542321Y-84022321D01*
X285399464Y-83950892D01*
X285328035Y-83879464D01*
X285256607Y-83736607D01*
X285185178Y-83450892D01*
X285185178Y-83093750D01*
X285256607Y-82808035D01*
X285328035Y-82665178D01*
X285399464Y-82593750D01*
X285542321Y-82522321D01*
X286685178Y-84022321D02*
X286685178Y-82522321D01*
X287042321Y-82522321D01*
X287256607Y-82593750D01*
X287399464Y-82736607D01*
X287470892Y-82879464D01*
X287542321Y-83165178D01*
X287542321Y-83379464D01*
X287470892Y-83665178D01*
X287399464Y-83808035D01*
X287256607Y-83950892D01*
X287042321Y-84022321D01*
X286685178Y-84022321D01*
X288185178Y-84022321D02*
X288185178Y-83022321D01*
X288185178Y-82522321D02*
X288113750Y-82593750D01*
X288185178Y-82665178D01*
X288256607Y-82593750D01*
X288185178Y-82522321D01*
X288185178Y-82665178D01*
X289542321Y-84022321D02*
X289542321Y-82522321D01*
X289542321Y-83950892D02*
X289399464Y-84022321D01*
X289113750Y-84022321D01*
X288970892Y-83950892D01*
X288899464Y-83879464D01*
X288828035Y-83736607D01*
X288828035Y-83308035D01*
X288899464Y-83165178D01*
X288970892Y-83093750D01*
X289113750Y-83022321D01*
X289399464Y-83022321D01*
X289542321Y-83093750D01*
X258256607Y-85072321D02*
X259113750Y-85072321D01*
X258685178Y-86572321D02*
X258685178Y-85072321D01*
X259613750Y-86572321D02*
X259613750Y-85072321D01*
X260256607Y-86572321D02*
X260256607Y-85786607D01*
X260185178Y-85643750D01*
X260042321Y-85572321D01*
X259828035Y-85572321D01*
X259685178Y-85643750D01*
X259613750Y-85715178D01*
X260970892Y-86572321D02*
X260970892Y-85572321D01*
X260970892Y-85072321D02*
X260899464Y-85143750D01*
X260970892Y-85215178D01*
X261042321Y-85143750D01*
X260970892Y-85072321D01*
X260970892Y-85215178D01*
X261613750Y-86500892D02*
X261756607Y-86572321D01*
X262042321Y-86572321D01*
X262185178Y-86500892D01*
X262256607Y-86358035D01*
X262256607Y-86286607D01*
X262185178Y-86143750D01*
X262042321Y-86072321D01*
X261828035Y-86072321D01*
X261685178Y-86000892D01*
X261613750Y-85858035D01*
X261613750Y-85786607D01*
X261685178Y-85643750D01*
X261828035Y-85572321D01*
X262042321Y-85572321D01*
X262185178Y-85643750D01*
X263970892Y-86500892D02*
X264113750Y-86572321D01*
X264399464Y-86572321D01*
X264542321Y-86500892D01*
X264613750Y-86358035D01*
X264613750Y-86286607D01*
X264542321Y-86143750D01*
X264399464Y-86072321D01*
X264185178Y-86072321D01*
X264042321Y-86000892D01*
X263970892Y-85858035D01*
X263970892Y-85786607D01*
X264042321Y-85643750D01*
X264185178Y-85572321D01*
X264399464Y-85572321D01*
X264542321Y-85643750D01*
X265256607Y-86572321D02*
X265256607Y-85572321D01*
X265256607Y-85072321D02*
X265185178Y-85143750D01*
X265256607Y-85215178D01*
X265328035Y-85143750D01*
X265256607Y-85072321D01*
X265256607Y-85215178D01*
X266613750Y-86572321D02*
X266613750Y-85072321D01*
X266613750Y-86500892D02*
X266470892Y-86572321D01*
X266185178Y-86572321D01*
X266042321Y-86500892D01*
X265970892Y-86429464D01*
X265899464Y-86286607D01*
X265899464Y-85858035D01*
X265970892Y-85715178D01*
X266042321Y-85643750D01*
X266185178Y-85572321D01*
X266470892Y-85572321D01*
X266613750Y-85643750D01*
X267899464Y-86500892D02*
X267756607Y-86572321D01*
X267470892Y-86572321D01*
X267328035Y-86500892D01*
X267256607Y-86358035D01*
X267256607Y-85786607D01*
X267328035Y-85643750D01*
X267470892Y-85572321D01*
X267756607Y-85572321D01*
X267899464Y-85643750D01*
X267970892Y-85786607D01*
X267970892Y-85929464D01*
X267256607Y-86072321D01*
X269542321Y-85572321D02*
X270113750Y-85572321D01*
X269756607Y-85072321D02*
X269756607Y-86358035D01*
X269828035Y-86500892D01*
X269970892Y-86572321D01*
X270113750Y-86572321D01*
X270828035Y-86572321D02*
X270685178Y-86500892D01*
X270613750Y-86429464D01*
X270542321Y-86286607D01*
X270542321Y-85858035D01*
X270613750Y-85715178D01*
X270685178Y-85643750D01*
X270828035Y-85572321D01*
X271042321Y-85572321D01*
X271185178Y-85643750D01*
X271256607Y-85715178D01*
X271328035Y-85858035D01*
X271328035Y-86286607D01*
X271256607Y-86429464D01*
X271185178Y-86500892D01*
X271042321Y-86572321D01*
X270828035Y-86572321D01*
X271828035Y-85572321D02*
X272113750Y-86572321D01*
X272399464Y-85858035D01*
X272685178Y-86572321D01*
X272970892Y-85572321D01*
X274185178Y-86572321D02*
X274185178Y-85786607D01*
X274113750Y-85643750D01*
X273970892Y-85572321D01*
X273685178Y-85572321D01*
X273542321Y-85643750D01*
X274185178Y-86500892D02*
X274042321Y-86572321D01*
X273685178Y-86572321D01*
X273542321Y-86500892D01*
X273470892Y-86358035D01*
X273470892Y-86215178D01*
X273542321Y-86072321D01*
X273685178Y-86000892D01*
X274042321Y-86000892D01*
X274185178Y-85929464D01*
X274899464Y-86572321D02*
X274899464Y-85572321D01*
X274899464Y-85858035D02*
X274970892Y-85715178D01*
X275042321Y-85643750D01*
X275185178Y-85572321D01*
X275328035Y-85572321D01*
X276470892Y-86572321D02*
X276470892Y-85072321D01*
X276470892Y-86500892D02*
X276328035Y-86572321D01*
X276042321Y-86572321D01*
X275899464Y-86500892D01*
X275828035Y-86429464D01*
X275756607Y-86286607D01*
X275756607Y-85858035D01*
X275828035Y-85715178D01*
X275899464Y-85643750D01*
X276042321Y-85572321D01*
X276328035Y-85572321D01*
X276470892Y-85643750D01*
X278328035Y-86572321D02*
X278328035Y-85072321D01*
X278899464Y-85072321D01*
X279042321Y-85143750D01*
X279113750Y-85215178D01*
X279185178Y-85358035D01*
X279185178Y-85572321D01*
X279113750Y-85715178D01*
X279042321Y-85786607D01*
X278899464Y-85858035D01*
X278328035Y-85858035D01*
X280685178Y-86429464D02*
X280613750Y-86500892D01*
X280399464Y-86572321D01*
X280256607Y-86572321D01*
X280042321Y-86500892D01*
X279899464Y-86358035D01*
X279828035Y-86215178D01*
X279756607Y-85929464D01*
X279756607Y-85715178D01*
X279828035Y-85429464D01*
X279899464Y-85286607D01*
X280042321Y-85143750D01*
X280256607Y-85072321D01*
X280399464Y-85072321D01*
X280613750Y-85143750D01*
X280685178Y-85215178D01*
X281828035Y-85786607D02*
X282042321Y-85858035D01*
X282113750Y-85929464D01*
X282185178Y-86072321D01*
X282185178Y-86286607D01*
X282113750Y-86429464D01*
X282042321Y-86500892D01*
X281899464Y-86572321D01*
X281328035Y-86572321D01*
X281328035Y-85072321D01*
X281828035Y-85072321D01*
X281970892Y-85143750D01*
X282042321Y-85215178D01*
X282113750Y-85358035D01*
X282113750Y-85500892D01*
X282042321Y-85643750D01*
X281970892Y-85715178D01*
X281828035Y-85786607D01*
X281328035Y-85786607D01*
X282828035Y-86429464D02*
X282899464Y-86500892D01*
X282828035Y-86572321D01*
X282756607Y-86500892D01*
X282828035Y-86429464D01*
X282828035Y-86572321D01*
%LPC*%
M02*
