G04 #@! TF.GenerationSoftware,KiCad,Pcbnew,(5.1.9)-1*
G04 #@! TF.CreationDate,2021-06-14T10:12:32-04:00*
G04 #@! TF.ProjectId,kastenwagen-48-bottom,6b617374-656e-4776-9167-656e2d34382d,rev?*
G04 #@! TF.SameCoordinates,Original*
G04 #@! TF.FileFunction,Legend,Bot*
G04 #@! TF.FilePolarity,Positive*
%FSLAX46Y46*%
G04 Gerber Fmt 4.6, Leading zero omitted, Abs format (unit mm)*
G04 Created by KiCad (PCBNEW (5.1.9)-1) date 2021-06-14 10:12:32*
%MOMM*%
%LPD*%
G01*
G04 APERTURE LIST*
%ADD10C,0.200000*%
%ADD11C,0.300000*%
G04 APERTURE END LIST*
D10*
X289141250Y-87986270D02*
X288882500Y-86928770D01*
X289872500Y-88908770D02*
X289141250Y-87986270D01*
X295092500Y-88908770D02*
X293956250Y-89561270D01*
X295823750Y-87986270D02*
X295092500Y-88908770D01*
X291008750Y-70376270D02*
X292482500Y-70128770D01*
X268272500Y-72468770D02*
X269408750Y-71816270D01*
X293956250Y-89561270D02*
X292482500Y-89808770D01*
X271602500Y-74448770D02*
X270162500Y-74448770D01*
X274223750Y-73391270D02*
X274482500Y-74448770D01*
X288882500Y-73008770D02*
X289141250Y-71951270D01*
X274482500Y-86928770D02*
X271602500Y-86928770D01*
X270162500Y-89808770D02*
X267282500Y-89808770D01*
X272356250Y-71816270D02*
X273492500Y-72468770D01*
X267282500Y-89808770D02*
X267282500Y-74448770D01*
X269408750Y-71816270D02*
X270882500Y-71568770D01*
X291762500Y-73008770D02*
X291762500Y-86928770D01*
X291762500Y-86928770D02*
X293202500Y-86928770D01*
X291008750Y-89561270D02*
X289872500Y-88908770D01*
X292482500Y-70128770D02*
X292482500Y-70128770D01*
X270882500Y-71568770D02*
X272356250Y-71816270D01*
X289141250Y-71951270D02*
X289872500Y-71028770D01*
X289872500Y-71028770D02*
X291008750Y-70376270D01*
X288882500Y-86928770D02*
X288882500Y-73008770D01*
X275922500Y-86928770D02*
X276181250Y-87986270D01*
X279522500Y-89808770D02*
X280996250Y-89561270D01*
X276912500Y-88908770D02*
X278048750Y-89561270D01*
X282132500Y-88908770D02*
X282863750Y-87986270D01*
X280242500Y-86928770D02*
X278802500Y-86928770D01*
X283122500Y-74448770D02*
X280242500Y-74448770D01*
X276181250Y-87986270D02*
X276912500Y-88908770D01*
X274422500Y-72018770D02*
X273770000Y-70882520D01*
X284562500Y-73008770D02*
X276402500Y-73008770D01*
X276402500Y-65808770D02*
X296082500Y-65808770D01*
X273770000Y-70882520D02*
X273522500Y-69408770D01*
X302596250Y-66056270D02*
X303732500Y-66708770D01*
X276402500Y-73008770D02*
X275345000Y-72750020D01*
X273522500Y-69408770D02*
X273770000Y-67935020D01*
X301122500Y-65808770D02*
X302596250Y-66056270D01*
X303732500Y-66708770D02*
X304463750Y-67631270D01*
X292482500Y-89808770D02*
X291008750Y-89561270D01*
X293956250Y-70376270D02*
X295092500Y-71028770D01*
X284562500Y-86928770D02*
X284562500Y-73008770D01*
X274422500Y-66798770D02*
X275345000Y-66067520D01*
X283122500Y-86928770D02*
X283122500Y-74448770D01*
X287442500Y-86928770D02*
X284562500Y-86928770D01*
X293202500Y-73008770D02*
X291762500Y-73008770D01*
X287442500Y-73008770D02*
X287442500Y-86928770D01*
X280242500Y-74448770D02*
X280242500Y-86928770D01*
X295823750Y-71951270D02*
X296082500Y-73008770D01*
X293202500Y-86928770D02*
X293202500Y-73008770D01*
X275345000Y-66067520D02*
X276402500Y-65808770D01*
X304463750Y-67631270D02*
X304722500Y-68688770D01*
X275345000Y-72750020D02*
X274422500Y-72018770D01*
X295092500Y-71028770D02*
X295823750Y-71951270D01*
X296082500Y-86928770D02*
X295823750Y-87986270D01*
X282863750Y-87986270D02*
X283122500Y-86928770D01*
X296082500Y-73008770D02*
X296082500Y-86928770D01*
X300402500Y-86928750D02*
X297522560Y-86928750D01*
X304722500Y-68688770D02*
X304722500Y-89808770D01*
X300402500Y-68688750D02*
X300402500Y-86928750D01*
X297522560Y-86928750D02*
X297522500Y-68688750D01*
X301842500Y-89808770D02*
X301842500Y-68688670D01*
X276402500Y-68688770D02*
X276402500Y-70128770D01*
X285620000Y-70376270D02*
X286542500Y-71028770D01*
X287195000Y-71951270D02*
X287442500Y-73008770D01*
X270162500Y-74448770D02*
X270162500Y-89808770D01*
X296082500Y-65808770D02*
X296082500Y-68688770D01*
X276402500Y-70128770D02*
X284562500Y-70128770D01*
X286542500Y-71028770D02*
X287195000Y-71951270D01*
X284562500Y-70128770D02*
X285620000Y-70376270D01*
X271602500Y-86928770D02*
X271602500Y-74448770D01*
X273492500Y-72468770D02*
X274223750Y-73391270D01*
X304722500Y-89808770D02*
X301842500Y-89808770D01*
X301122500Y-65808750D02*
X301122500Y-65808770D01*
X301842500Y-68688670D02*
X300402500Y-68688750D01*
X297522500Y-68688750D02*
X297781250Y-67631250D01*
X296082500Y-68688770D02*
X276402500Y-68688770D01*
X274482500Y-74448770D02*
X274482500Y-86928770D01*
X299648750Y-66056250D02*
X301122500Y-65808750D01*
X267541249Y-73391270D02*
X268272500Y-72468770D01*
X298512500Y-66708750D02*
X299648750Y-66056250D01*
X297781250Y-67631250D02*
X298512500Y-66708750D01*
X267282500Y-74448770D02*
X267541249Y-73391270D01*
X292482500Y-70128770D02*
X293956250Y-70376270D01*
X278802500Y-86928770D02*
X278802500Y-74448770D01*
X280996250Y-89561270D02*
X282132500Y-88908770D01*
X278802500Y-74448770D02*
X275922500Y-74448770D01*
X275922500Y-74448770D02*
X275922500Y-86928770D01*
X273770000Y-67935020D02*
X274422500Y-66798770D01*
X278048750Y-89561270D02*
X279522500Y-89808770D01*
D11*
X65116607Y-83703571D02*
X65116607Y-82203571D01*
X64259464Y-83703571D02*
X64902321Y-82846428D01*
X64259464Y-82203571D02*
X65116607Y-83060714D01*
X62973750Y-83703571D02*
X62973750Y-82917857D01*
X63045178Y-82775000D01*
X63188035Y-82703571D01*
X63473750Y-82703571D01*
X63616607Y-82775000D01*
X62973750Y-83632142D02*
X63116607Y-83703571D01*
X63473750Y-83703571D01*
X63616607Y-83632142D01*
X63688035Y-83489285D01*
X63688035Y-83346428D01*
X63616607Y-83203571D01*
X63473750Y-83132142D01*
X63116607Y-83132142D01*
X62973750Y-83060714D01*
X62330892Y-83632142D02*
X62188035Y-83703571D01*
X61902321Y-83703571D01*
X61759464Y-83632142D01*
X61688035Y-83489285D01*
X61688035Y-83417857D01*
X61759464Y-83275000D01*
X61902321Y-83203571D01*
X62116607Y-83203571D01*
X62259464Y-83132142D01*
X62330892Y-82989285D01*
X62330892Y-82917857D01*
X62259464Y-82775000D01*
X62116607Y-82703571D01*
X61902321Y-82703571D01*
X61759464Y-82775000D01*
X61259464Y-82703571D02*
X60688035Y-82703571D01*
X61045178Y-82203571D02*
X61045178Y-83489285D01*
X60973750Y-83632142D01*
X60830892Y-83703571D01*
X60688035Y-83703571D01*
X59616607Y-83632142D02*
X59759464Y-83703571D01*
X60045178Y-83703571D01*
X60188035Y-83632142D01*
X60259464Y-83489285D01*
X60259464Y-82917857D01*
X60188035Y-82775000D01*
X60045178Y-82703571D01*
X59759464Y-82703571D01*
X59616607Y-82775000D01*
X59545178Y-82917857D01*
X59545178Y-83060714D01*
X60259464Y-83203571D01*
X58902321Y-82703571D02*
X58902321Y-83703571D01*
X58902321Y-82846428D02*
X58830892Y-82775000D01*
X58688035Y-82703571D01*
X58473750Y-82703571D01*
X58330892Y-82775000D01*
X58259464Y-82917857D01*
X58259464Y-83703571D01*
X57688035Y-82703571D02*
X57402321Y-83703571D01*
X57116607Y-82989285D01*
X56830892Y-83703571D01*
X56545178Y-82703571D01*
X55330892Y-83703571D02*
X55330892Y-82917857D01*
X55402321Y-82775000D01*
X55545178Y-82703571D01*
X55830892Y-82703571D01*
X55973750Y-82775000D01*
X55330892Y-83632142D02*
X55473750Y-83703571D01*
X55830892Y-83703571D01*
X55973750Y-83632142D01*
X56045178Y-83489285D01*
X56045178Y-83346428D01*
X55973750Y-83203571D01*
X55830892Y-83132142D01*
X55473750Y-83132142D01*
X55330892Y-83060714D01*
X53973750Y-82703571D02*
X53973750Y-83917857D01*
X54045178Y-84060714D01*
X54116607Y-84132142D01*
X54259464Y-84203571D01*
X54473750Y-84203571D01*
X54616607Y-84132142D01*
X53973750Y-83632142D02*
X54116607Y-83703571D01*
X54402321Y-83703571D01*
X54545178Y-83632142D01*
X54616607Y-83560714D01*
X54688035Y-83417857D01*
X54688035Y-82989285D01*
X54616607Y-82846428D01*
X54545178Y-82775000D01*
X54402321Y-82703571D01*
X54116607Y-82703571D01*
X53973750Y-82775000D01*
X52688035Y-83632142D02*
X52830892Y-83703571D01*
X53116607Y-83703571D01*
X53259464Y-83632142D01*
X53330892Y-83489285D01*
X53330892Y-82917857D01*
X53259464Y-82775000D01*
X53116607Y-82703571D01*
X52830892Y-82703571D01*
X52688035Y-82775000D01*
X52616607Y-82917857D01*
X52616607Y-83060714D01*
X53330892Y-83203571D01*
X51973749Y-82703571D02*
X51973749Y-83703571D01*
X51973749Y-82846428D02*
X51902321Y-82775000D01*
X51759464Y-82703571D01*
X51545178Y-82703571D01*
X51402321Y-82775000D01*
X51330892Y-82917857D01*
X51330892Y-83703571D01*
X48830892Y-82703571D02*
X48830892Y-83703571D01*
X49188035Y-82132142D02*
X49545178Y-83203571D01*
X48616607Y-83203571D01*
X47830892Y-82846428D02*
X47973749Y-82775000D01*
X48045178Y-82703571D01*
X48116607Y-82560714D01*
X48116607Y-82489285D01*
X48045178Y-82346428D01*
X47973749Y-82275000D01*
X47830892Y-82203571D01*
X47545178Y-82203571D01*
X47402321Y-82275000D01*
X47330892Y-82346428D01*
X47259464Y-82489285D01*
X47259464Y-82560714D01*
X47330892Y-82703571D01*
X47402321Y-82775000D01*
X47545178Y-82846428D01*
X47830892Y-82846428D01*
X47973749Y-82917857D01*
X48045178Y-82989285D01*
X48116607Y-83132142D01*
X48116607Y-83417857D01*
X48045178Y-83560714D01*
X47973749Y-83632142D01*
X47830892Y-83703571D01*
X47545178Y-83703571D01*
X47402321Y-83632142D01*
X47330892Y-83560714D01*
X47259464Y-83417857D01*
X47259464Y-83132142D01*
X47330892Y-82989285D01*
X47402321Y-82917857D01*
X47545178Y-82846428D01*
X46616607Y-83560714D02*
X46545178Y-83632142D01*
X46616607Y-83703571D01*
X46688035Y-83632142D01*
X46616607Y-83560714D01*
X46616607Y-83703571D01*
X46616607Y-82775000D02*
X46545178Y-82846428D01*
X46616607Y-82917857D01*
X46688035Y-82846428D01*
X46616607Y-82775000D01*
X46616607Y-82917857D01*
X44759464Y-83703571D02*
X44759464Y-82203571D01*
X44188035Y-82203571D01*
X44045178Y-82275000D01*
X43973750Y-82346428D01*
X43902321Y-82489285D01*
X43902321Y-82703571D01*
X43973750Y-82846428D01*
X44045178Y-82917857D01*
X44188035Y-82989285D01*
X44759464Y-82989285D01*
X43259464Y-83703571D02*
X43259464Y-82703571D01*
X43259464Y-82989285D02*
X43188035Y-82846428D01*
X43116607Y-82775000D01*
X42973750Y-82703571D01*
X42830892Y-82703571D01*
X42116607Y-83703571D02*
X42259464Y-83632142D01*
X42330892Y-83560714D01*
X42402321Y-83417857D01*
X42402321Y-82989285D01*
X42330892Y-82846428D01*
X42259464Y-82775000D01*
X42116607Y-82703571D01*
X41902321Y-82703571D01*
X41759464Y-82775000D01*
X41688035Y-82846428D01*
X41616607Y-82989285D01*
X41616607Y-83417857D01*
X41688035Y-83560714D01*
X41759464Y-83632142D01*
X41902321Y-83703571D01*
X42116607Y-83703571D01*
X41188035Y-82703571D02*
X40616607Y-82703571D01*
X40973749Y-82203571D02*
X40973749Y-83489285D01*
X40902321Y-83632142D01*
X40759464Y-83703571D01*
X40616607Y-83703571D01*
X39902321Y-83703571D02*
X40045178Y-83632142D01*
X40116607Y-83560714D01*
X40188035Y-83417857D01*
X40188035Y-82989285D01*
X40116607Y-82846428D01*
X40045178Y-82775000D01*
X39902321Y-82703571D01*
X39688035Y-82703571D01*
X39545178Y-82775000D01*
X39473749Y-82846428D01*
X39402321Y-82989285D01*
X39402321Y-83417857D01*
X39473749Y-83560714D01*
X39545178Y-83632142D01*
X39688035Y-83703571D01*
X39902321Y-83703571D01*
X38973749Y-82703571D02*
X38402321Y-82703571D01*
X38759464Y-82203571D02*
X38759464Y-83489285D01*
X38688035Y-83632142D01*
X38545178Y-83703571D01*
X38402321Y-83703571D01*
X38045178Y-82703571D02*
X37688035Y-83703571D01*
X37330892Y-82703571D02*
X37688035Y-83703571D01*
X37830892Y-84060714D01*
X37902321Y-84132142D01*
X38045178Y-84203571D01*
X36759464Y-82703571D02*
X36759464Y-84203571D01*
X36759464Y-82775000D02*
X36616607Y-82703571D01*
X36330892Y-82703571D01*
X36188035Y-82775000D01*
X36116607Y-82846428D01*
X36045178Y-82989285D01*
X36045178Y-83417857D01*
X36116607Y-83560714D01*
X36188035Y-83632142D01*
X36330892Y-83703571D01*
X36616607Y-83703571D01*
X36759464Y-83632142D01*
X34830892Y-83632142D02*
X34973750Y-83703571D01*
X35259464Y-83703571D01*
X35402321Y-83632142D01*
X35473750Y-83489285D01*
X35473750Y-82917857D01*
X35402321Y-82775000D01*
X35259464Y-82703571D01*
X34973750Y-82703571D01*
X34830892Y-82775000D01*
X34759464Y-82917857D01*
X34759464Y-83060714D01*
X35473750Y-83203571D01*
X33045178Y-82346428D02*
X32973750Y-82275000D01*
X32830892Y-82203571D01*
X32473750Y-82203571D01*
X32330892Y-82275000D01*
X32259464Y-82346428D01*
X32188035Y-82489285D01*
X32188035Y-82632142D01*
X32259464Y-82846428D01*
X33116607Y-83703571D01*
X32188035Y-83703571D01*
X31259464Y-82203571D02*
X31116607Y-82203571D01*
X30973750Y-82275000D01*
X30902321Y-82346428D01*
X30830892Y-82489285D01*
X30759464Y-82775000D01*
X30759464Y-83132142D01*
X30830892Y-83417857D01*
X30902321Y-83560714D01*
X30973750Y-83632142D01*
X31116607Y-83703571D01*
X31259464Y-83703571D01*
X31402321Y-83632142D01*
X31473750Y-83560714D01*
X31545178Y-83417857D01*
X31616607Y-83132142D01*
X31616607Y-82775000D01*
X31545178Y-82489285D01*
X31473750Y-82346428D01*
X31402321Y-82275000D01*
X31259464Y-82203571D01*
X30188035Y-82346428D02*
X30116607Y-82275000D01*
X29973750Y-82203571D01*
X29616607Y-82203571D01*
X29473750Y-82275000D01*
X29402321Y-82346428D01*
X29330892Y-82489285D01*
X29330892Y-82632142D01*
X29402321Y-82846428D01*
X30259464Y-83703571D01*
X29330892Y-83703571D01*
X27902321Y-83703571D02*
X28759464Y-83703571D01*
X28330892Y-83703571D02*
X28330892Y-82203571D01*
X28473750Y-82417857D01*
X28616607Y-82560714D01*
X28759464Y-82632142D01*
X27259464Y-83132142D02*
X26116607Y-83132142D01*
X25116607Y-82203571D02*
X24973750Y-82203571D01*
X24830892Y-82275000D01*
X24759464Y-82346428D01*
X24688035Y-82489285D01*
X24616607Y-82775000D01*
X24616607Y-83132142D01*
X24688035Y-83417857D01*
X24759464Y-83560714D01*
X24830892Y-83632142D01*
X24973750Y-83703571D01*
X25116607Y-83703571D01*
X25259464Y-83632142D01*
X25330892Y-83560714D01*
X25402321Y-83417857D01*
X25473750Y-83132142D01*
X25473750Y-82775000D01*
X25402321Y-82489285D01*
X25330892Y-82346428D01*
X25259464Y-82275000D01*
X25116607Y-82203571D01*
X23330892Y-82203571D02*
X23616607Y-82203571D01*
X23759464Y-82275000D01*
X23830892Y-82346428D01*
X23973750Y-82560714D01*
X24045178Y-82846428D01*
X24045178Y-83417857D01*
X23973750Y-83560714D01*
X23902321Y-83632142D01*
X23759464Y-83703571D01*
X23473750Y-83703571D01*
X23330892Y-83632142D01*
X23259464Y-83560714D01*
X23188035Y-83417857D01*
X23188035Y-83060714D01*
X23259464Y-82917857D01*
X23330892Y-82846428D01*
X23473750Y-82775000D01*
X23759464Y-82775000D01*
X23902321Y-82846428D01*
X23973750Y-82917857D01*
X24045178Y-83060714D01*
X65116607Y-86253571D02*
X65116607Y-84753571D01*
X64759464Y-84753571D01*
X64545178Y-84825000D01*
X64402321Y-84967857D01*
X64330892Y-85110714D01*
X64259464Y-85396428D01*
X64259464Y-85610714D01*
X64330892Y-85896428D01*
X64402321Y-86039285D01*
X64545178Y-86182142D01*
X64759464Y-86253571D01*
X65116607Y-86253571D01*
X63045178Y-86182142D02*
X63188035Y-86253571D01*
X63473750Y-86253571D01*
X63616607Y-86182142D01*
X63688035Y-86039285D01*
X63688035Y-85467857D01*
X63616607Y-85325000D01*
X63473750Y-85253571D01*
X63188035Y-85253571D01*
X63045178Y-85325000D01*
X62973750Y-85467857D01*
X62973750Y-85610714D01*
X63688035Y-85753571D01*
X62473750Y-85253571D02*
X62116607Y-86253571D01*
X61759464Y-85253571D01*
X60616607Y-86182142D02*
X60759464Y-86253571D01*
X61045178Y-86253571D01*
X61188035Y-86182142D01*
X61259464Y-86039285D01*
X61259464Y-85467857D01*
X61188035Y-85325000D01*
X61045178Y-85253571D01*
X60759464Y-85253571D01*
X60616607Y-85325000D01*
X60545178Y-85467857D01*
X60545178Y-85610714D01*
X61259464Y-85753571D01*
X59688035Y-86253571D02*
X59830892Y-86182142D01*
X59902321Y-86039285D01*
X59902321Y-84753571D01*
X58902321Y-86253571D02*
X59045178Y-86182142D01*
X59116607Y-86110714D01*
X59188035Y-85967857D01*
X59188035Y-85539285D01*
X59116607Y-85396428D01*
X59045178Y-85325000D01*
X58902321Y-85253571D01*
X58688035Y-85253571D01*
X58545178Y-85325000D01*
X58473750Y-85396428D01*
X58402321Y-85539285D01*
X58402321Y-85967857D01*
X58473750Y-86110714D01*
X58545178Y-86182142D01*
X58688035Y-86253571D01*
X58902321Y-86253571D01*
X57759464Y-85253571D02*
X57759464Y-86753571D01*
X57759464Y-85325000D02*
X57616607Y-85253571D01*
X57330892Y-85253571D01*
X57188035Y-85325000D01*
X57116607Y-85396428D01*
X57045178Y-85539285D01*
X57045178Y-85967857D01*
X57116607Y-86110714D01*
X57188035Y-86182142D01*
X57330892Y-86253571D01*
X57616607Y-86253571D01*
X57759464Y-86182142D01*
X55830892Y-86182142D02*
X55973749Y-86253571D01*
X56259464Y-86253571D01*
X56402321Y-86182142D01*
X56473749Y-86039285D01*
X56473749Y-85467857D01*
X56402321Y-85325000D01*
X56259464Y-85253571D01*
X55973749Y-85253571D01*
X55830892Y-85325000D01*
X55759464Y-85467857D01*
X55759464Y-85610714D01*
X56473749Y-85753571D01*
X54473749Y-86253571D02*
X54473749Y-84753571D01*
X54473749Y-86182142D02*
X54616607Y-86253571D01*
X54902321Y-86253571D01*
X55045178Y-86182142D01*
X55116607Y-86110714D01*
X55188035Y-85967857D01*
X55188035Y-85539285D01*
X55116607Y-85396428D01*
X55045178Y-85325000D01*
X54902321Y-85253571D01*
X54616607Y-85253571D01*
X54473749Y-85325000D01*
X52616607Y-86253571D02*
X52616607Y-84753571D01*
X52616607Y-85325000D02*
X52473749Y-85253571D01*
X52188035Y-85253571D01*
X52045178Y-85325000D01*
X51973749Y-85396428D01*
X51902321Y-85539285D01*
X51902321Y-85967857D01*
X51973749Y-86110714D01*
X52045178Y-86182142D01*
X52188035Y-86253571D01*
X52473749Y-86253571D01*
X52616607Y-86182142D01*
X51402321Y-85253571D02*
X51045178Y-86253571D01*
X50688035Y-85253571D02*
X51045178Y-86253571D01*
X51188035Y-86610714D01*
X51259464Y-86682142D01*
X51402321Y-86753571D01*
X48973749Y-86253571D02*
X48973749Y-84753571D01*
X48116607Y-86253571D01*
X48116607Y-84753571D01*
X47188035Y-86253571D02*
X47330892Y-86182142D01*
X47402321Y-86110714D01*
X47473749Y-85967857D01*
X47473749Y-85539285D01*
X47402321Y-85396428D01*
X47330892Y-85325000D01*
X47188035Y-85253571D01*
X46973749Y-85253571D01*
X46830892Y-85325000D01*
X46759464Y-85396428D01*
X46688035Y-85539285D01*
X46688035Y-85967857D01*
X46759464Y-86110714D01*
X46830892Y-86182142D01*
X46973749Y-86253571D01*
X47188035Y-86253571D01*
X46045178Y-86253571D02*
X46045178Y-84753571D01*
X45473749Y-84753571D01*
X45330892Y-84825000D01*
X45259464Y-84896428D01*
X45188035Y-85039285D01*
X45188035Y-85253571D01*
X45259464Y-85396428D01*
X45330892Y-85467857D01*
X45473749Y-85539285D01*
X46045178Y-85539285D01*
X43902321Y-85253571D02*
X43902321Y-86253571D01*
X44545178Y-85253571D02*
X44545178Y-86039285D01*
X44473749Y-86182142D01*
X44330892Y-86253571D01*
X44116607Y-86253571D01*
X43973749Y-86182142D01*
X43902321Y-86110714D01*
X43188035Y-85253571D02*
X43188035Y-86253571D01*
X43188035Y-85396428D02*
X43116607Y-85325000D01*
X42973750Y-85253571D01*
X42759464Y-85253571D01*
X42616607Y-85325000D01*
X42545178Y-85467857D01*
X42545178Y-86253571D01*
X41830892Y-86253571D02*
X41830892Y-84753571D01*
X41116607Y-85253571D02*
X41116607Y-86253571D01*
X41116607Y-85396428D02*
X41045178Y-85325000D01*
X40902321Y-85253571D01*
X40688035Y-85253571D01*
X40545178Y-85325000D01*
X40473750Y-85467857D01*
X40473750Y-86253571D01*
X38973750Y-86253571D02*
X39830892Y-86253571D01*
X39402321Y-86253571D02*
X39402321Y-84753571D01*
X39545178Y-84967857D01*
X39688035Y-85110714D01*
X39830892Y-85182142D01*
X38045178Y-84753571D02*
X37902321Y-84753571D01*
X37759464Y-84825000D01*
X37688035Y-84896428D01*
X37616607Y-85039285D01*
X37545178Y-85325000D01*
X37545178Y-85682142D01*
X37616607Y-85967857D01*
X37688035Y-86110714D01*
X37759464Y-86182142D01*
X37902321Y-86253571D01*
X38045178Y-86253571D01*
X38188035Y-86182142D01*
X38259464Y-86110714D01*
X38330892Y-85967857D01*
X38402321Y-85682142D01*
X38402321Y-85325000D01*
X38330892Y-85039285D01*
X38259464Y-84896428D01*
X38188035Y-84825000D01*
X38045178Y-84753571D01*
X36902321Y-86253571D02*
X36902321Y-84753571D01*
X36545178Y-84753571D01*
X36330892Y-84825000D01*
X36188035Y-84967857D01*
X36116607Y-85110714D01*
X36045178Y-85396428D01*
X36045178Y-85610714D01*
X36116607Y-85896428D01*
X36188035Y-86039285D01*
X36330892Y-86182142D01*
X36545178Y-86253571D01*
X36902321Y-86253571D01*
X35402321Y-86253571D02*
X35402321Y-85253571D01*
X35402321Y-84753571D02*
X35473750Y-84825000D01*
X35402321Y-84896428D01*
X35330892Y-84825000D01*
X35402321Y-84753571D01*
X35402321Y-84896428D01*
X34045178Y-86253571D02*
X34045178Y-84753571D01*
X34045178Y-86182142D02*
X34188035Y-86253571D01*
X34473750Y-86253571D01*
X34616607Y-86182142D01*
X34688035Y-86110714D01*
X34759464Y-85967857D01*
X34759464Y-85539285D01*
X34688035Y-85396428D01*
X34616607Y-85325000D01*
X34473750Y-85253571D01*
X34188035Y-85253571D01*
X34045178Y-85325000D01*
%LPC*%
M02*
