G04 #@! TF.GenerationSoftware,KiCad,Pcbnew,(5.1.9)-1*
G04 #@! TF.CreationDate,2021-06-14T10:16:08-04:00*
G04 #@! TF.ProjectId,kastenwagen-bottom-plate,6b617374-656e-4776-9167-656e2d626f74,rev?*
G04 #@! TF.SameCoordinates,Original*
G04 #@! TF.FileFunction,Copper,L2,Bot*
G04 #@! TF.FilePolarity,Positive*
%FSLAX46Y46*%
G04 Gerber Fmt 4.6, Leading zero omitted, Abs format (unit mm)*
G04 Created by KiCad (PCBNEW (5.1.9)-1) date 2021-06-14 10:16:08*
%MOMM*%
%LPD*%
G01*
G04 APERTURE LIST*
G04 #@! TA.AperFunction,NonConductor*
%ADD10C,0.254000*%
G04 #@! TD*
G04 #@! TA.AperFunction,NonConductor*
%ADD11C,0.020000*%
G04 #@! TD*
G04 APERTURE END LIST*
D10*
X366254747Y-5305281D02*
X366985643Y-5505231D01*
X367669575Y-5831450D01*
X368284928Y-6273626D01*
X368812259Y-6817789D01*
X369234886Y-7446726D01*
X369539463Y-8140570D01*
X369717715Y-8883039D01*
X369765001Y-9526963D01*
X369765000Y-93967269D01*
X369694719Y-94754748D01*
X369494769Y-95485643D01*
X369168550Y-96169575D01*
X368726374Y-96784928D01*
X368182211Y-97312259D01*
X367553274Y-97734886D01*
X366859429Y-98039464D01*
X366116961Y-98217714D01*
X365473051Y-98265000D01*
X14032731Y-98265000D01*
X13245252Y-98194719D01*
X12514357Y-97994769D01*
X11830425Y-97668550D01*
X11215072Y-97226374D01*
X10687741Y-96682211D01*
X10265114Y-96053274D01*
X9960536Y-95359429D01*
X9782286Y-94616961D01*
X9735000Y-93973051D01*
X9735000Y-93815728D01*
X12129053Y-93815728D01*
X12129053Y-94184272D01*
X12200952Y-94545735D01*
X12341988Y-94886226D01*
X12546740Y-95192659D01*
X12807341Y-95453260D01*
X13113774Y-95658012D01*
X13454265Y-95799048D01*
X13815728Y-95870947D01*
X14184272Y-95870947D01*
X14545735Y-95799048D01*
X14886226Y-95658012D01*
X15192659Y-95453260D01*
X15330191Y-95315728D01*
X173879053Y-95315728D01*
X173879053Y-95684272D01*
X173950952Y-96045735D01*
X174091988Y-96386226D01*
X174296740Y-96692659D01*
X174557341Y-96953260D01*
X174863774Y-97158012D01*
X175204265Y-97299048D01*
X175565728Y-97370947D01*
X175934272Y-97370947D01*
X176295735Y-97299048D01*
X176636226Y-97158012D01*
X176942659Y-96953260D01*
X177203260Y-96692659D01*
X177408012Y-96386226D01*
X177549048Y-96045735D01*
X177620947Y-95684272D01*
X177620947Y-95315728D01*
X177549048Y-94954265D01*
X177408012Y-94613774D01*
X177203260Y-94307341D01*
X176942659Y-94046740D01*
X176636226Y-93841988D01*
X176572829Y-93815728D01*
X363629053Y-93815728D01*
X363629053Y-94184272D01*
X363700952Y-94545735D01*
X363841988Y-94886226D01*
X364046740Y-95192659D01*
X364307341Y-95453260D01*
X364613774Y-95658012D01*
X364954265Y-95799048D01*
X365315728Y-95870947D01*
X365684272Y-95870947D01*
X366045735Y-95799048D01*
X366386226Y-95658012D01*
X366692659Y-95453260D01*
X366953260Y-95192659D01*
X367158012Y-94886226D01*
X367299048Y-94545735D01*
X367370947Y-94184272D01*
X367370947Y-93815728D01*
X367299048Y-93454265D01*
X367158012Y-93113774D01*
X366953260Y-92807341D01*
X366692659Y-92546740D01*
X366386226Y-92341988D01*
X366045735Y-92200952D01*
X365684272Y-92129053D01*
X365315728Y-92129053D01*
X364954265Y-92200952D01*
X364613774Y-92341988D01*
X364307341Y-92546740D01*
X364046740Y-92807341D01*
X363841988Y-93113774D01*
X363700952Y-93454265D01*
X363629053Y-93815728D01*
X176572829Y-93815728D01*
X176295735Y-93700952D01*
X175934272Y-93629053D01*
X175565728Y-93629053D01*
X175204265Y-93700952D01*
X174863774Y-93841988D01*
X174557341Y-94046740D01*
X174296740Y-94307341D01*
X174091988Y-94613774D01*
X173950952Y-94954265D01*
X173879053Y-95315728D01*
X15330191Y-95315728D01*
X15453260Y-95192659D01*
X15658012Y-94886226D01*
X15799048Y-94545735D01*
X15870947Y-94184272D01*
X15870947Y-93815728D01*
X15799048Y-93454265D01*
X15658012Y-93113774D01*
X15453260Y-92807341D01*
X15192659Y-92546740D01*
X14886226Y-92341988D01*
X14545735Y-92200952D01*
X14184272Y-92129053D01*
X13815728Y-92129053D01*
X13454265Y-92200952D01*
X13113774Y-92341988D01*
X12807341Y-92546740D01*
X12546740Y-92807341D01*
X12341988Y-93113774D01*
X12200952Y-93454265D01*
X12129053Y-93815728D01*
X9735000Y-93815728D01*
X9735000Y-9532731D01*
X9754367Y-9315728D01*
X12129053Y-9315728D01*
X12129053Y-9684272D01*
X12200952Y-10045735D01*
X12341988Y-10386226D01*
X12546740Y-10692659D01*
X12807341Y-10953260D01*
X13113774Y-11158012D01*
X13454265Y-11299048D01*
X13815728Y-11370947D01*
X14184272Y-11370947D01*
X14545735Y-11299048D01*
X14886226Y-11158012D01*
X15192659Y-10953260D01*
X15453260Y-10692659D01*
X15658012Y-10386226D01*
X15799048Y-10045735D01*
X15870947Y-9684272D01*
X15870947Y-9315728D01*
X15799048Y-8954265D01*
X15658012Y-8613774D01*
X15453260Y-8307341D01*
X15192659Y-8046740D01*
X14886226Y-7841988D01*
X14822829Y-7815728D01*
X173879053Y-7815728D01*
X173879053Y-8184272D01*
X173950952Y-8545735D01*
X174091988Y-8886226D01*
X174296740Y-9192659D01*
X174557341Y-9453260D01*
X174863774Y-9658012D01*
X175204265Y-9799048D01*
X175565728Y-9870947D01*
X175934272Y-9870947D01*
X176295735Y-9799048D01*
X176636226Y-9658012D01*
X176942659Y-9453260D01*
X177080191Y-9315728D01*
X363629053Y-9315728D01*
X363629053Y-9684272D01*
X363700952Y-10045735D01*
X363841988Y-10386226D01*
X364046740Y-10692659D01*
X364307341Y-10953260D01*
X364613774Y-11158012D01*
X364954265Y-11299048D01*
X365315728Y-11370947D01*
X365684272Y-11370947D01*
X366045735Y-11299048D01*
X366386226Y-11158012D01*
X366692659Y-10953260D01*
X366953260Y-10692659D01*
X367158012Y-10386226D01*
X367299048Y-10045735D01*
X367370947Y-9684272D01*
X367370947Y-9315728D01*
X367299048Y-8954265D01*
X367158012Y-8613774D01*
X366953260Y-8307341D01*
X366692659Y-8046740D01*
X366386226Y-7841988D01*
X366045735Y-7700952D01*
X365684272Y-7629053D01*
X365315728Y-7629053D01*
X364954265Y-7700952D01*
X364613774Y-7841988D01*
X364307341Y-8046740D01*
X364046740Y-8307341D01*
X363841988Y-8613774D01*
X363700952Y-8954265D01*
X363629053Y-9315728D01*
X177080191Y-9315728D01*
X177203260Y-9192659D01*
X177408012Y-8886226D01*
X177549048Y-8545735D01*
X177620947Y-8184272D01*
X177620947Y-7815728D01*
X177549048Y-7454265D01*
X177408012Y-7113774D01*
X177203260Y-6807341D01*
X176942659Y-6546740D01*
X176636226Y-6341988D01*
X176295735Y-6200952D01*
X175934272Y-6129053D01*
X175565728Y-6129053D01*
X175204265Y-6200952D01*
X174863774Y-6341988D01*
X174557341Y-6546740D01*
X174296740Y-6807341D01*
X174091988Y-7113774D01*
X173950952Y-7454265D01*
X173879053Y-7815728D01*
X14822829Y-7815728D01*
X14545735Y-7700952D01*
X14184272Y-7629053D01*
X13815728Y-7629053D01*
X13454265Y-7700952D01*
X13113774Y-7841988D01*
X12807341Y-8046740D01*
X12546740Y-8307341D01*
X12341988Y-8613774D01*
X12200952Y-8954265D01*
X12129053Y-9315728D01*
X9754367Y-9315728D01*
X9805281Y-8745253D01*
X10005231Y-8014357D01*
X10331450Y-7330425D01*
X10773626Y-6715072D01*
X11317789Y-6187741D01*
X11946726Y-5765114D01*
X12640570Y-5460537D01*
X13383039Y-5282285D01*
X14026949Y-5235000D01*
X365467269Y-5235000D01*
X366254747Y-5305281D01*
G04 #@! TA.AperFunction,NonConductor*
D11*
G36*
X366254747Y-5305281D02*
G01*
X366985643Y-5505231D01*
X367669575Y-5831450D01*
X368284928Y-6273626D01*
X368812259Y-6817789D01*
X369234886Y-7446726D01*
X369539463Y-8140570D01*
X369717715Y-8883039D01*
X369765001Y-9526963D01*
X369765000Y-93967269D01*
X369694719Y-94754748D01*
X369494769Y-95485643D01*
X369168550Y-96169575D01*
X368726374Y-96784928D01*
X368182211Y-97312259D01*
X367553274Y-97734886D01*
X366859429Y-98039464D01*
X366116961Y-98217714D01*
X365473051Y-98265000D01*
X14032731Y-98265000D01*
X13245252Y-98194719D01*
X12514357Y-97994769D01*
X11830425Y-97668550D01*
X11215072Y-97226374D01*
X10687741Y-96682211D01*
X10265114Y-96053274D01*
X9960536Y-95359429D01*
X9782286Y-94616961D01*
X9735000Y-93973051D01*
X9735000Y-93815728D01*
X12129053Y-93815728D01*
X12129053Y-94184272D01*
X12200952Y-94545735D01*
X12341988Y-94886226D01*
X12546740Y-95192659D01*
X12807341Y-95453260D01*
X13113774Y-95658012D01*
X13454265Y-95799048D01*
X13815728Y-95870947D01*
X14184272Y-95870947D01*
X14545735Y-95799048D01*
X14886226Y-95658012D01*
X15192659Y-95453260D01*
X15330191Y-95315728D01*
X173879053Y-95315728D01*
X173879053Y-95684272D01*
X173950952Y-96045735D01*
X174091988Y-96386226D01*
X174296740Y-96692659D01*
X174557341Y-96953260D01*
X174863774Y-97158012D01*
X175204265Y-97299048D01*
X175565728Y-97370947D01*
X175934272Y-97370947D01*
X176295735Y-97299048D01*
X176636226Y-97158012D01*
X176942659Y-96953260D01*
X177203260Y-96692659D01*
X177408012Y-96386226D01*
X177549048Y-96045735D01*
X177620947Y-95684272D01*
X177620947Y-95315728D01*
X177549048Y-94954265D01*
X177408012Y-94613774D01*
X177203260Y-94307341D01*
X176942659Y-94046740D01*
X176636226Y-93841988D01*
X176572829Y-93815728D01*
X363629053Y-93815728D01*
X363629053Y-94184272D01*
X363700952Y-94545735D01*
X363841988Y-94886226D01*
X364046740Y-95192659D01*
X364307341Y-95453260D01*
X364613774Y-95658012D01*
X364954265Y-95799048D01*
X365315728Y-95870947D01*
X365684272Y-95870947D01*
X366045735Y-95799048D01*
X366386226Y-95658012D01*
X366692659Y-95453260D01*
X366953260Y-95192659D01*
X367158012Y-94886226D01*
X367299048Y-94545735D01*
X367370947Y-94184272D01*
X367370947Y-93815728D01*
X367299048Y-93454265D01*
X367158012Y-93113774D01*
X366953260Y-92807341D01*
X366692659Y-92546740D01*
X366386226Y-92341988D01*
X366045735Y-92200952D01*
X365684272Y-92129053D01*
X365315728Y-92129053D01*
X364954265Y-92200952D01*
X364613774Y-92341988D01*
X364307341Y-92546740D01*
X364046740Y-92807341D01*
X363841988Y-93113774D01*
X363700952Y-93454265D01*
X363629053Y-93815728D01*
X176572829Y-93815728D01*
X176295735Y-93700952D01*
X175934272Y-93629053D01*
X175565728Y-93629053D01*
X175204265Y-93700952D01*
X174863774Y-93841988D01*
X174557341Y-94046740D01*
X174296740Y-94307341D01*
X174091988Y-94613774D01*
X173950952Y-94954265D01*
X173879053Y-95315728D01*
X15330191Y-95315728D01*
X15453260Y-95192659D01*
X15658012Y-94886226D01*
X15799048Y-94545735D01*
X15870947Y-94184272D01*
X15870947Y-93815728D01*
X15799048Y-93454265D01*
X15658012Y-93113774D01*
X15453260Y-92807341D01*
X15192659Y-92546740D01*
X14886226Y-92341988D01*
X14545735Y-92200952D01*
X14184272Y-92129053D01*
X13815728Y-92129053D01*
X13454265Y-92200952D01*
X13113774Y-92341988D01*
X12807341Y-92546740D01*
X12546740Y-92807341D01*
X12341988Y-93113774D01*
X12200952Y-93454265D01*
X12129053Y-93815728D01*
X9735000Y-93815728D01*
X9735000Y-9532731D01*
X9754367Y-9315728D01*
X12129053Y-9315728D01*
X12129053Y-9684272D01*
X12200952Y-10045735D01*
X12341988Y-10386226D01*
X12546740Y-10692659D01*
X12807341Y-10953260D01*
X13113774Y-11158012D01*
X13454265Y-11299048D01*
X13815728Y-11370947D01*
X14184272Y-11370947D01*
X14545735Y-11299048D01*
X14886226Y-11158012D01*
X15192659Y-10953260D01*
X15453260Y-10692659D01*
X15658012Y-10386226D01*
X15799048Y-10045735D01*
X15870947Y-9684272D01*
X15870947Y-9315728D01*
X15799048Y-8954265D01*
X15658012Y-8613774D01*
X15453260Y-8307341D01*
X15192659Y-8046740D01*
X14886226Y-7841988D01*
X14822829Y-7815728D01*
X173879053Y-7815728D01*
X173879053Y-8184272D01*
X173950952Y-8545735D01*
X174091988Y-8886226D01*
X174296740Y-9192659D01*
X174557341Y-9453260D01*
X174863774Y-9658012D01*
X175204265Y-9799048D01*
X175565728Y-9870947D01*
X175934272Y-9870947D01*
X176295735Y-9799048D01*
X176636226Y-9658012D01*
X176942659Y-9453260D01*
X177080191Y-9315728D01*
X363629053Y-9315728D01*
X363629053Y-9684272D01*
X363700952Y-10045735D01*
X363841988Y-10386226D01*
X364046740Y-10692659D01*
X364307341Y-10953260D01*
X364613774Y-11158012D01*
X364954265Y-11299048D01*
X365315728Y-11370947D01*
X365684272Y-11370947D01*
X366045735Y-11299048D01*
X366386226Y-11158012D01*
X366692659Y-10953260D01*
X366953260Y-10692659D01*
X367158012Y-10386226D01*
X367299048Y-10045735D01*
X367370947Y-9684272D01*
X367370947Y-9315728D01*
X367299048Y-8954265D01*
X367158012Y-8613774D01*
X366953260Y-8307341D01*
X366692659Y-8046740D01*
X366386226Y-7841988D01*
X366045735Y-7700952D01*
X365684272Y-7629053D01*
X365315728Y-7629053D01*
X364954265Y-7700952D01*
X364613774Y-7841988D01*
X364307341Y-8046740D01*
X364046740Y-8307341D01*
X363841988Y-8613774D01*
X363700952Y-8954265D01*
X363629053Y-9315728D01*
X177080191Y-9315728D01*
X177203260Y-9192659D01*
X177408012Y-8886226D01*
X177549048Y-8545735D01*
X177620947Y-8184272D01*
X177620947Y-7815728D01*
X177549048Y-7454265D01*
X177408012Y-7113774D01*
X177203260Y-6807341D01*
X176942659Y-6546740D01*
X176636226Y-6341988D01*
X176295735Y-6200952D01*
X175934272Y-6129053D01*
X175565728Y-6129053D01*
X175204265Y-6200952D01*
X174863774Y-6341988D01*
X174557341Y-6546740D01*
X174296740Y-6807341D01*
X174091988Y-7113774D01*
X173950952Y-7454265D01*
X173879053Y-7815728D01*
X14822829Y-7815728D01*
X14545735Y-7700952D01*
X14184272Y-7629053D01*
X13815728Y-7629053D01*
X13454265Y-7700952D01*
X13113774Y-7841988D01*
X12807341Y-8046740D01*
X12546740Y-8307341D01*
X12341988Y-8613774D01*
X12200952Y-8954265D01*
X12129053Y-9315728D01*
X9754367Y-9315728D01*
X9805281Y-8745253D01*
X10005231Y-8014357D01*
X10331450Y-7330425D01*
X10773626Y-6715072D01*
X11317789Y-6187741D01*
X11946726Y-5765114D01*
X12640570Y-5460537D01*
X13383039Y-5282285D01*
X14026949Y-5235000D01*
X365467269Y-5235000D01*
X366254747Y-5305281D01*
G37*
G04 #@! TD.AperFunction*
M02*
