M48
; DRILL file {KiCad (5.1.9)-1} date 06/08/21 14:52:36
; FORMAT={-:-/ absolute / inch / decimal}
; #@! TF.CreationDate,2021-06-08T14:52:36-04:00
; #@! TF.GenerationSoftware,Kicad,Pcbnew,(5.1.9)-1
; #@! TF.FileFunction,Plated,1,2,PTH
FMAT,2
INCH
T1C0.0157
T2C0.0394
T3C0.0430
T4C0.0579
%
G90
G05
T1
X1.308Y-0.762
X1.33Y-0.666
X1.47Y-0.826
X1.5945Y-1.8602
X1.624Y-2.3327
X1.626Y-0.674
X1.6929Y-2.6673
X1.7126Y-3.3563
X1.7126Y-3.1004
X1.7323Y-0.876
X2.096Y-1.266
X2.0965Y-0.876
X2.2736Y-1.6437
X2.3031Y-2.1457
X2.304Y-2.026
X2.313Y-2.3622
X2.3819Y-3.1791
X2.4213Y-0.8268
X2.4705Y-3.5236
X3.1Y-1.4625
X3.404Y-3.528
X3.5433Y-0.8366
X3.544Y-1.264
X3.63Y-2.772
X3.6319Y-3.061
X3.6516Y-2.6476
X3.6811Y-1.4665
X3.7795Y-2.3622
X3.78Y-2.022
X3.9469Y-3.3465
X4.2618Y-0.8366
X4.304Y-3.53
X4.344Y-1.002
X4.476Y-1.264
X4.478Y-1.52
X4.6Y-1.4625
X4.646Y-1.866
X4.646Y-2.0295
X4.7244Y-0.8465
X4.734Y-3.282
X4.87Y-2.318
X5.05Y-2.63
X5.114Y-2.77
X5.218Y-3.532
X5.612Y-3.272
X5.7283Y-0.8563
X5.826Y-0.962
X5.826Y-3.484
X5.998Y-1.554
X6.0Y-1.266
X6.0Y-1.33
X6.108Y-1.89
X6.108Y-3.568
X6.246Y-2.026
X6.2875Y-1.4135
X6.33Y-2.324
X6.33Y-2.774
X6.4862Y-0.8563
X6.508Y-3.482
X6.67Y-3.154
X6.764Y-1.26
X6.764Y-1.328
X6.764Y-1.78
X7.008Y-3.322
X7.054Y-2.77
X7.114Y-2.368
X7.2Y-3.512
X7.2343Y-0.8169
X7.392Y-1.168
X7.394Y-1.266
X7.396Y-1.3304
X7.498Y-1.596
X7.6Y-1.4625
X7.62Y-1.884
X7.6476Y-0.8169
X7.854Y-2.322
X7.866Y-2.468
X7.89Y-3.418
X7.928Y-3.048
X7.972Y-2.63
X7.98Y-2.772
X8.106Y-3.536
X8.118Y-1.21
X8.1299Y-0.8268
X8.156Y-1.33
X8.23Y-1.466
X8.256Y-1.668
X8.37Y-2.02
X8.498Y-2.15
X8.594Y-2.8465
X8.66Y-2.748
X8.684Y-2.44
X8.74Y-3.522
X8.768Y-3.004
X8.86Y-3.346
X9.04Y-1.622
X9.168Y-1.874
X9.29Y-1.49
X9.3996Y-0.8858
X9.616Y-1.876
X9.802Y-2.192
X9.842Y-1.522
X9.866Y-1.334
X9.896Y-1.202
X9.9234Y-0.7456
X10.05Y-2.72
X10.114Y-2.938
X10.172Y-1.3
X10.174Y-1.232
X10.22Y-1.382
X10.25Y-1.528
X10.326Y-1.35
X10.336Y-1.92
X10.372Y-1.614
X10.402Y-1.096
X10.442Y-0.896
X10.4823Y-1.3976
X10.502Y-1.108
X10.508Y-3.444
X10.57Y-3.57
X10.736Y-1.914
X10.772Y-3.644
X10.834Y-2.022
X10.9646Y-1.8898
X11.06Y-0.546
X11.062Y-2.434
X11.063Y-1.8701
X11.1156Y-3.6024
X11.1417Y-1.8602
X11.156Y-1.356
X11.174Y-3.522
X11.216Y-2.888
X11.2205Y-1.8307
X11.2442Y-2.8248
X11.2598Y-1.7815
X11.2718Y-2.0571
X11.2994Y-1.9783
X11.316Y-3.562
X11.334Y-3.132
X11.374Y-2.604
X11.416Y-2.766
X11.446Y-2.016
X11.472Y-1.866
X11.512Y-1.294
X11.524Y-1.152
X11.676Y-2.018
X11.811Y-1.107
X11.866Y-0.67
X11.948Y-1.434
X12.057Y-1.606
X12.076Y-0.956
X12.078Y-3.072
X12.088Y-3.29
X12.1Y-2.276
X12.102Y-3.478
X12.112Y-1.514
X12.12Y-2.666
X12.126Y-3.562
X12.148Y-1.638
X12.154Y-1.948
X12.175Y-1.548
X12.18Y-3.644
X12.3031Y-0.5807
X12.3033Y-0.6693
X12.378Y-1.256
X12.418Y-1.132
X12.42Y-1.944
X12.42Y-2.672
X12.424Y-2.156
X12.432Y-2.344
X12.452Y-0.87
X12.4587Y-0.6693
X12.4606Y-0.5807
X12.486Y-3.548
X12.51Y-2.94
X12.66Y-3.496
X12.692Y-3.366
X12.734Y-1.056
X12.784Y-2.416
X12.796Y-3.118
X12.938Y-1.852
X12.942Y-1.254
X12.942Y-2.138
X12.9921Y-0.5807
X12.9927Y-0.6693
X13.106Y-3.512
X13.126Y-1.566
X13.184Y-3.644
X13.192Y-1.346
X13.346Y-2.398
X13.352Y-2.106
X13.366Y-3.136
X13.51Y-2.532
X13.626Y-2.82
X13.826Y-3.352
X14.09Y-3.55
X14.118Y-1.98
X14.132Y-1.386
T2
X0.7244Y-0.8999
X0.7244Y-1.0967
X1.2953Y-0.8999
X1.2953Y-0.9983
X1.2953Y-1.0967
X13.6619Y-0.9016
X13.6619Y-1.0984
X14.2328Y-0.9016
X14.2328Y-1.0
X14.2328Y-1.0984
T3
X10.6795Y-0.5449
X10.6795Y-0.6449
X10.6795Y-0.7449
X10.6795Y-0.8449
X10.6795Y-0.9449
X10.6795Y-1.0449
X10.6795Y-1.1449
X10.6795Y-1.2449
X10.6795Y-1.3449
X10.6795Y-1.4449
X10.6795Y-1.5449
X10.6795Y-1.6449
X10.7795Y-1.6449
X10.8795Y-1.6449
X10.9795Y-1.6449
X11.0795Y-1.6449
X11.1795Y-1.6449
X11.2705Y-1.6449
X11.2795Y-0.5449
X11.2795Y-0.6449
X11.2795Y-0.7449
X11.2795Y-0.8449
X11.2795Y-0.9449
X11.2795Y-1.0449
X11.2795Y-1.1449
X11.2795Y-1.2449
X11.2795Y-1.3449
X11.2795Y-1.4449
X11.2795Y-1.5449
T4
X0.85Y-0.9
X0.9437Y-1.65
X0.9437Y-3.15
X1.1Y-0.8
X1.1312Y-2.4
X1.1937Y-1.55
X1.1937Y-3.05
X1.3812Y-2.3
X1.6Y-0.9
X1.7875Y-1.65
X1.85Y-0.8
X1.8812Y-3.15
X2.0375Y-1.55
X2.1313Y-3.05
X2.1625Y-2.4
X2.35Y-0.9
X2.4125Y-2.3
X2.5375Y-1.65
X2.6Y-0.8
X2.725Y-3.15
X2.7875Y-1.55
X2.9125Y-2.4
X2.975Y-3.05
X3.1Y-0.9
X3.1625Y-2.3
X3.2875Y-1.65
X3.35Y-0.8
X3.5375Y-1.55
X3.6625Y-2.4
X3.85Y-0.9
X3.9125Y-2.3
X4.0375Y-1.65
X4.1Y-0.8
X4.1312Y-3.15
X4.2875Y-1.55
X4.3812Y-3.05
X4.4125Y-2.4
X4.6Y-0.9
X4.6625Y-2.3
X4.7875Y-1.65
X4.85Y-0.8
X4.975Y-3.15
X5.0375Y-1.55
X5.1625Y-2.4
X5.225Y-3.05
X5.35Y-0.9
X5.4125Y-2.3
X5.5375Y-1.65
X5.6Y-0.8
X5.7875Y-1.55
X5.9125Y-2.4
X6.0062Y-3.15
X6.1Y-0.9
X6.1625Y-2.3
X6.2562Y-3.05
X6.2875Y-1.65
X6.35Y-0.8
X6.5375Y-1.55
X6.6625Y-2.4
X6.85Y-0.9
X6.9125Y-2.3
X7.0375Y-1.65
X7.1Y-0.8
X7.225Y-3.15
X7.2875Y-1.55
X7.4125Y-2.4
X7.475Y-3.05
X7.6Y-0.9
X7.6625Y-2.3
X7.7875Y-1.65
X7.85Y-0.8
X8.0375Y-1.55
X8.0687Y-3.15
X8.1625Y-2.4
X8.3187Y-3.05
X8.35Y-0.9
X8.4125Y-2.3
X8.5375Y-1.65
X8.6Y-0.8
X8.7875Y-1.55
X8.9125Y-2.4
X9.0062Y-3.15
X9.1Y-0.9
X9.1625Y-2.3
X9.2562Y-3.05
X9.2875Y-1.65
X9.35Y-0.8
X9.5375Y-1.55
X9.7562Y-2.4
X9.9437Y-3.2437
X10.0062Y-2.3
X10.1312Y-0.9
X10.1937Y-3.1437
X10.225Y-1.65
X10.3812Y-0.8
X10.475Y-1.55
X10.6937Y-2.4937
X10.6937Y-3.2437
X10.9437Y-2.3937
X10.9437Y-3.1437
X11.4437Y-3.2437
X11.5375Y-0.9
X11.5375Y-1.65
X11.5375Y-2.4
X11.6937Y-3.1437
X11.7875Y-0.8
X11.7875Y-1.55
X11.7875Y-2.3
X12.2875Y-0.9
X12.2875Y-1.65
X12.2875Y-2.4
X12.2875Y-3.15
X12.5375Y-0.8
X12.5375Y-1.55
X12.5375Y-2.3
X12.5375Y-3.05
X12.658Y-3.149
X12.908Y-3.049
X13.0375Y-0.9
X13.0375Y-1.65
X13.0375Y-2.4
X13.0375Y-3.15
X13.2875Y-0.8
X13.2875Y-1.55
X13.2875Y-2.3
X13.2875Y-3.05
X13.7875Y-0.9
X13.7875Y-1.65
X13.7875Y-2.4
X13.7875Y-3.15
X14.0375Y-0.8
X14.0375Y-1.55
X14.0375Y-2.3
X14.0375Y-2.725
X14.0375Y-3.05
X14.1375Y-2.975
T0
M30
