G04 #@! TF.GenerationSoftware,KiCad,Pcbnew,(5.1.9)-1*
G04 #@! TF.CreationDate,2021-06-08T14:56:48-04:00*
G04 #@! TF.ProjectId,kastenwagen-pcb,6b617374-656e-4776-9167-656e2d706362,rev?*
G04 #@! TF.SameCoordinates,Original*
G04 #@! TF.FileFunction,Legend,Top*
G04 #@! TF.FilePolarity,Positive*
%FSLAX46Y46*%
G04 Gerber Fmt 4.6, Leading zero omitted, Abs format (unit mm)*
G04 Created by KiCad (PCBNEW (5.1.9)-1) date 2021-06-08 14:56:48*
%MOMM*%
%LPD*%
G01*
G04 APERTURE LIST*
%ADD10C,0.150000*%
%ADD11C,0.120000*%
%ADD12C,0.381000*%
%ADD13C,3.987800*%
%ADD14C,1.750000*%
%ADD15C,3.048000*%
%ADD16R,2.000000X2.000000*%
%ADD17C,2.000000*%
%ADD18C,1.752600*%
%ADD19R,1.752600X1.752600*%
G04 APERTURE END LIST*
D10*
X235387195Y-86686380D02*
X235387195Y-85686380D01*
X235958623Y-86686380D02*
X235530052Y-86114952D01*
X235958623Y-85686380D02*
X235387195Y-86257809D01*
X236815766Y-86686380D02*
X236815766Y-86162571D01*
X236768147Y-86067333D01*
X236672909Y-86019714D01*
X236482433Y-86019714D01*
X236387195Y-86067333D01*
X236815766Y-86638761D02*
X236720528Y-86686380D01*
X236482433Y-86686380D01*
X236387195Y-86638761D01*
X236339576Y-86543523D01*
X236339576Y-86448285D01*
X236387195Y-86353047D01*
X236482433Y-86305428D01*
X236720528Y-86305428D01*
X236815766Y-86257809D01*
X237244338Y-86638761D02*
X237339576Y-86686380D01*
X237530052Y-86686380D01*
X237625290Y-86638761D01*
X237672909Y-86543523D01*
X237672909Y-86495904D01*
X237625290Y-86400666D01*
X237530052Y-86353047D01*
X237387195Y-86353047D01*
X237291957Y-86305428D01*
X237244338Y-86210190D01*
X237244338Y-86162571D01*
X237291957Y-86067333D01*
X237387195Y-86019714D01*
X237530052Y-86019714D01*
X237625290Y-86067333D01*
X237958623Y-86019714D02*
X238339576Y-86019714D01*
X238101480Y-85686380D02*
X238101480Y-86543523D01*
X238149100Y-86638761D01*
X238244338Y-86686380D01*
X238339576Y-86686380D01*
X239053861Y-86638761D02*
X238958623Y-86686380D01*
X238768147Y-86686380D01*
X238672909Y-86638761D01*
X238625290Y-86543523D01*
X238625290Y-86162571D01*
X238672909Y-86067333D01*
X238768147Y-86019714D01*
X238958623Y-86019714D01*
X239053861Y-86067333D01*
X239101480Y-86162571D01*
X239101480Y-86257809D01*
X238625290Y-86353047D01*
X239530052Y-86019714D02*
X239530052Y-86686380D01*
X239530052Y-86114952D02*
X239577671Y-86067333D01*
X239672909Y-86019714D01*
X239815766Y-86019714D01*
X239911004Y-86067333D01*
X239958623Y-86162571D01*
X239958623Y-86686380D01*
X240339576Y-86019714D02*
X240530052Y-86686380D01*
X240720528Y-86210190D01*
X240911004Y-86686380D01*
X241101480Y-86019714D01*
X241911004Y-86686380D02*
X241911004Y-86162571D01*
X241863385Y-86067333D01*
X241768147Y-86019714D01*
X241577671Y-86019714D01*
X241482433Y-86067333D01*
X241911004Y-86638761D02*
X241815766Y-86686380D01*
X241577671Y-86686380D01*
X241482433Y-86638761D01*
X241434814Y-86543523D01*
X241434814Y-86448285D01*
X241482433Y-86353047D01*
X241577671Y-86305428D01*
X241815766Y-86305428D01*
X241911004Y-86257809D01*
X242815766Y-86019714D02*
X242815766Y-86829238D01*
X242768147Y-86924476D01*
X242720528Y-86972095D01*
X242625290Y-87019714D01*
X242482433Y-87019714D01*
X242387195Y-86972095D01*
X242815766Y-86638761D02*
X242720528Y-86686380D01*
X242530052Y-86686380D01*
X242434814Y-86638761D01*
X242387195Y-86591142D01*
X242339576Y-86495904D01*
X242339576Y-86210190D01*
X242387195Y-86114952D01*
X242434814Y-86067333D01*
X242530052Y-86019714D01*
X242720528Y-86019714D01*
X242815766Y-86067333D01*
X243672909Y-86638761D02*
X243577671Y-86686380D01*
X243387195Y-86686380D01*
X243291957Y-86638761D01*
X243244338Y-86543523D01*
X243244338Y-86162571D01*
X243291957Y-86067333D01*
X243387195Y-86019714D01*
X243577671Y-86019714D01*
X243672909Y-86067333D01*
X243720528Y-86162571D01*
X243720528Y-86257809D01*
X243244338Y-86353047D01*
X244149100Y-86019714D02*
X244149100Y-86686380D01*
X244149100Y-86114952D02*
X244196719Y-86067333D01*
X244291957Y-86019714D01*
X244434814Y-86019714D01*
X244530052Y-86067333D01*
X244577671Y-86162571D01*
X244577671Y-86686380D01*
X245815766Y-86686380D02*
X245815766Y-85686380D01*
X246196719Y-85686380D01*
X246291957Y-85734000D01*
X246339576Y-85781619D01*
X246387195Y-85876857D01*
X246387195Y-86019714D01*
X246339576Y-86114952D01*
X246291957Y-86162571D01*
X246196719Y-86210190D01*
X245815766Y-86210190D01*
X247387195Y-86591142D02*
X247339576Y-86638761D01*
X247196719Y-86686380D01*
X247101480Y-86686380D01*
X246958623Y-86638761D01*
X246863385Y-86543523D01*
X246815766Y-86448285D01*
X246768147Y-86257809D01*
X246768147Y-86114952D01*
X246815766Y-85924476D01*
X246863385Y-85829238D01*
X246958623Y-85734000D01*
X247101480Y-85686380D01*
X247196719Y-85686380D01*
X247339576Y-85734000D01*
X247387195Y-85781619D01*
X248149100Y-86162571D02*
X248291957Y-86210190D01*
X248339576Y-86257809D01*
X248387195Y-86353047D01*
X248387195Y-86495904D01*
X248339576Y-86591142D01*
X248291957Y-86638761D01*
X248196719Y-86686380D01*
X247815766Y-86686380D01*
X247815766Y-85686380D01*
X248149100Y-85686380D01*
X248244338Y-85734000D01*
X248291957Y-85781619D01*
X248339576Y-85876857D01*
X248339576Y-85972095D01*
X248291957Y-86067333D01*
X248244338Y-86114952D01*
X248149100Y-86162571D01*
X247815766Y-86162571D01*
X235387195Y-88336380D02*
X235387195Y-87336380D01*
X235958623Y-88336380D01*
X235958623Y-87336380D01*
X236577671Y-88336380D02*
X236482433Y-88288761D01*
X236434814Y-88241142D01*
X236387195Y-88145904D01*
X236387195Y-87860190D01*
X236434814Y-87764952D01*
X236482433Y-87717333D01*
X236577671Y-87669714D01*
X236720528Y-87669714D01*
X236815766Y-87717333D01*
X236863385Y-87764952D01*
X236911004Y-87860190D01*
X236911004Y-88145904D01*
X236863385Y-88241142D01*
X236815766Y-88288761D01*
X236720528Y-88336380D01*
X236577671Y-88336380D01*
X237339576Y-88336380D02*
X237339576Y-87336380D01*
X237720528Y-87336380D01*
X237815766Y-87384000D01*
X237863385Y-87431619D01*
X237911004Y-87526857D01*
X237911004Y-87669714D01*
X237863385Y-87764952D01*
X237815766Y-87812571D01*
X237720528Y-87860190D01*
X237339576Y-87860190D01*
X238768147Y-87669714D02*
X238768147Y-88336380D01*
X238339576Y-87669714D02*
X238339576Y-88193523D01*
X238387195Y-88288761D01*
X238482433Y-88336380D01*
X238625290Y-88336380D01*
X238720528Y-88288761D01*
X238768147Y-88241142D01*
X239244338Y-87669714D02*
X239244338Y-88336380D01*
X239244338Y-87764952D02*
X239291957Y-87717333D01*
X239387195Y-87669714D01*
X239530052Y-87669714D01*
X239625290Y-87717333D01*
X239672909Y-87812571D01*
X239672909Y-88336380D01*
X240149100Y-88336380D02*
X240149100Y-87336380D01*
X240625290Y-87669714D02*
X240625290Y-88336380D01*
X240625290Y-87764952D02*
X240672909Y-87717333D01*
X240768147Y-87669714D01*
X240911004Y-87669714D01*
X241006242Y-87717333D01*
X241053861Y-87812571D01*
X241053861Y-88336380D01*
X242053861Y-88336380D02*
X241482433Y-88336380D01*
X241768147Y-88336380D02*
X241768147Y-87336380D01*
X241672909Y-87479238D01*
X241577671Y-87574476D01*
X241482433Y-87622095D01*
X242672909Y-87336380D02*
X242768147Y-87336380D01*
X242863385Y-87384000D01*
X242911004Y-87431619D01*
X242958623Y-87526857D01*
X243006242Y-87717333D01*
X243006242Y-87955428D01*
X242958623Y-88145904D01*
X242911004Y-88241142D01*
X242863385Y-88288761D01*
X242768147Y-88336380D01*
X242672909Y-88336380D01*
X242577671Y-88288761D01*
X242530052Y-88241142D01*
X242482433Y-88145904D01*
X242434814Y-87955428D01*
X242434814Y-87717333D01*
X242482433Y-87526857D01*
X242530052Y-87431619D01*
X242577671Y-87384000D01*
X242672909Y-87336380D01*
X243434814Y-88336380D02*
X243434814Y-87336380D01*
X243672909Y-87336380D01*
X243815766Y-87384000D01*
X243911004Y-87479238D01*
X243958623Y-87574476D01*
X244006242Y-87764952D01*
X244006242Y-87907809D01*
X243958623Y-88098285D01*
X243911004Y-88193523D01*
X243815766Y-88288761D01*
X243672909Y-88336380D01*
X243434814Y-88336380D01*
X244434814Y-88336380D02*
X244434814Y-87669714D01*
X244434814Y-87336380D02*
X244387195Y-87384000D01*
X244434814Y-87431619D01*
X244482433Y-87384000D01*
X244434814Y-87336380D01*
X244434814Y-87431619D01*
X245339576Y-88336380D02*
X245339576Y-87336380D01*
X245339576Y-88288761D02*
X245244338Y-88336380D01*
X245053861Y-88336380D01*
X244958623Y-88288761D01*
X244911004Y-88241142D01*
X244863385Y-88145904D01*
X244863385Y-87860190D01*
X244911004Y-87764952D01*
X244958623Y-87717333D01*
X245053861Y-87669714D01*
X245244338Y-87669714D01*
X245339576Y-87717333D01*
X235387195Y-89986380D02*
X235387195Y-88986380D01*
X235768147Y-88986380D01*
X235863385Y-89034000D01*
X235911004Y-89081619D01*
X235958623Y-89176857D01*
X235958623Y-89319714D01*
X235911004Y-89414952D01*
X235863385Y-89462571D01*
X235768147Y-89510190D01*
X235387195Y-89510190D01*
X236387195Y-89986380D02*
X236387195Y-89319714D01*
X236387195Y-89510190D02*
X236434814Y-89414952D01*
X236482433Y-89367333D01*
X236577671Y-89319714D01*
X236672909Y-89319714D01*
X237149100Y-89986380D02*
X237053861Y-89938761D01*
X237006242Y-89891142D01*
X236958623Y-89795904D01*
X236958623Y-89510190D01*
X237006242Y-89414952D01*
X237053861Y-89367333D01*
X237149100Y-89319714D01*
X237291957Y-89319714D01*
X237387195Y-89367333D01*
X237434814Y-89414952D01*
X237482433Y-89510190D01*
X237482433Y-89795904D01*
X237434814Y-89891142D01*
X237387195Y-89938761D01*
X237291957Y-89986380D01*
X237149100Y-89986380D01*
X237768147Y-89319714D02*
X238149100Y-89319714D01*
X237911004Y-88986380D02*
X237911004Y-89843523D01*
X237958623Y-89938761D01*
X238053861Y-89986380D01*
X238149100Y-89986380D01*
X238625290Y-89986380D02*
X238530052Y-89938761D01*
X238482433Y-89891142D01*
X238434814Y-89795904D01*
X238434814Y-89510190D01*
X238482433Y-89414952D01*
X238530052Y-89367333D01*
X238625290Y-89319714D01*
X238768147Y-89319714D01*
X238863385Y-89367333D01*
X238911004Y-89414952D01*
X238958623Y-89510190D01*
X238958623Y-89795904D01*
X238911004Y-89891142D01*
X238863385Y-89938761D01*
X238768147Y-89986380D01*
X238625290Y-89986380D01*
X239244338Y-89319714D02*
X239625290Y-89319714D01*
X239387195Y-88986380D02*
X239387195Y-89843523D01*
X239434814Y-89938761D01*
X239530052Y-89986380D01*
X239625290Y-89986380D01*
X239863385Y-89319714D02*
X240101480Y-89986380D01*
X240339576Y-89319714D02*
X240101480Y-89986380D01*
X240006242Y-90224476D01*
X239958623Y-90272095D01*
X239863385Y-90319714D01*
X240720528Y-89319714D02*
X240720528Y-90319714D01*
X240720528Y-89367333D02*
X240815766Y-89319714D01*
X241006242Y-89319714D01*
X241101480Y-89367333D01*
X241149100Y-89414952D01*
X241196719Y-89510190D01*
X241196719Y-89795904D01*
X241149100Y-89891142D01*
X241101480Y-89938761D01*
X241006242Y-89986380D01*
X240815766Y-89986380D01*
X240720528Y-89938761D01*
X242006242Y-89938761D02*
X241911004Y-89986380D01*
X241720528Y-89986380D01*
X241625290Y-89938761D01*
X241577671Y-89843523D01*
X241577671Y-89462571D01*
X241625290Y-89367333D01*
X241720528Y-89319714D01*
X241911004Y-89319714D01*
X242006242Y-89367333D01*
X242053861Y-89462571D01*
X242053861Y-89557809D01*
X241577671Y-89653047D01*
X243196719Y-89081619D02*
X243244338Y-89034000D01*
X243339576Y-88986380D01*
X243577671Y-88986380D01*
X243672909Y-89034000D01*
X243720528Y-89081619D01*
X243768147Y-89176857D01*
X243768147Y-89272095D01*
X243720528Y-89414952D01*
X243149100Y-89986380D01*
X243768147Y-89986380D01*
X244387195Y-88986380D02*
X244482433Y-88986380D01*
X244577671Y-89034000D01*
X244625290Y-89081619D01*
X244672909Y-89176857D01*
X244720528Y-89367333D01*
X244720528Y-89605428D01*
X244672909Y-89795904D01*
X244625290Y-89891142D01*
X244577671Y-89938761D01*
X244482433Y-89986380D01*
X244387195Y-89986380D01*
X244291957Y-89938761D01*
X244244338Y-89891142D01*
X244196719Y-89795904D01*
X244149100Y-89605428D01*
X244149100Y-89367333D01*
X244196719Y-89176857D01*
X244244338Y-89081619D01*
X244291957Y-89034000D01*
X244387195Y-88986380D01*
X245101480Y-89081619D02*
X245149100Y-89034000D01*
X245244338Y-88986380D01*
X245482433Y-88986380D01*
X245577671Y-89034000D01*
X245625290Y-89081619D01*
X245672909Y-89176857D01*
X245672909Y-89272095D01*
X245625290Y-89414952D01*
X245053861Y-89986380D01*
X245672909Y-89986380D01*
X246625290Y-89986380D02*
X246053861Y-89986380D01*
X246339576Y-89986380D02*
X246339576Y-88986380D01*
X246244338Y-89129238D01*
X246149100Y-89224476D01*
X246053861Y-89272095D01*
X247053861Y-89605428D02*
X247815766Y-89605428D01*
X248482433Y-88986380D02*
X248577671Y-88986380D01*
X248672909Y-89034000D01*
X248720528Y-89081619D01*
X248768147Y-89176857D01*
X248815766Y-89367333D01*
X248815766Y-89605428D01*
X248768147Y-89795904D01*
X248720528Y-89891142D01*
X248672909Y-89938761D01*
X248577671Y-89986380D01*
X248482433Y-89986380D01*
X248387195Y-89938761D01*
X248339576Y-89891142D01*
X248291957Y-89795904D01*
X248244338Y-89605428D01*
X248244338Y-89367333D01*
X248291957Y-89176857D01*
X248339576Y-89081619D01*
X248387195Y-89034000D01*
X248482433Y-88986380D01*
X249672909Y-88986380D02*
X249482433Y-88986380D01*
X249387195Y-89034000D01*
X249339576Y-89081619D01*
X249244338Y-89224476D01*
X249196719Y-89414952D01*
X249196719Y-89795904D01*
X249244338Y-89891142D01*
X249291957Y-89938761D01*
X249387195Y-89986380D01*
X249577671Y-89986380D01*
X249672909Y-89938761D01*
X249720528Y-89891142D01*
X249768147Y-89795904D01*
X249768147Y-89557809D01*
X249720528Y-89462571D01*
X249672909Y-89414952D01*
X249577671Y-89367333D01*
X249387195Y-89367333D01*
X249291957Y-89414952D01*
X249244338Y-89462571D01*
X249196719Y-89557809D01*
X275466514Y-31834580D02*
X274990323Y-31834580D01*
X274990323Y-30834580D01*
X275799847Y-31310771D02*
X276133180Y-31310771D01*
X276276038Y-31834580D02*
X275799847Y-31834580D01*
X275799847Y-30834580D01*
X276276038Y-30834580D01*
X276704609Y-31834580D02*
X276704609Y-30834580D01*
X276942704Y-30834580D01*
X277085561Y-30882200D01*
X277180800Y-30977438D01*
X277228419Y-31072676D01*
X277276038Y-31263152D01*
X277276038Y-31406009D01*
X277228419Y-31596485D01*
X277180800Y-31691723D01*
X277085561Y-31786961D01*
X276942704Y-31834580D01*
X276704609Y-31834580D01*
X277656990Y-31786961D02*
X277752228Y-31834580D01*
X277942704Y-31834580D01*
X278037942Y-31786961D01*
X278085561Y-31691723D01*
X278085561Y-31644104D01*
X278037942Y-31548866D01*
X277942704Y-31501247D01*
X277799847Y-31501247D01*
X277704609Y-31453628D01*
X277656990Y-31358390D01*
X277656990Y-31310771D01*
X277704609Y-31215533D01*
X277799847Y-31167914D01*
X277942704Y-31167914D01*
X278037942Y-31215533D01*
X279418895Y-31834580D02*
X279323657Y-31786961D01*
X279276038Y-31739342D01*
X279228419Y-31644104D01*
X279228419Y-31358390D01*
X279276038Y-31263152D01*
X279323657Y-31215533D01*
X279418895Y-31167914D01*
X279561752Y-31167914D01*
X279656990Y-31215533D01*
X279704609Y-31263152D01*
X279752228Y-31358390D01*
X279752228Y-31644104D01*
X279704609Y-31739342D01*
X279656990Y-31786961D01*
X279561752Y-31834580D01*
X279418895Y-31834580D01*
X280180800Y-31167914D02*
X280180800Y-31834580D01*
X280180800Y-31263152D02*
X280228419Y-31215533D01*
X280323657Y-31167914D01*
X280466514Y-31167914D01*
X280561752Y-31215533D01*
X280609371Y-31310771D01*
X280609371Y-31834580D01*
X274990323Y-32817914D02*
X275371276Y-32817914D01*
X275133180Y-32484580D02*
X275133180Y-33341723D01*
X275180800Y-33436961D01*
X275276038Y-33484580D01*
X275371276Y-33484580D01*
X275704609Y-33484580D02*
X275704609Y-32484580D01*
X276133180Y-33484580D02*
X276133180Y-32960771D01*
X276085561Y-32865533D01*
X275990323Y-32817914D01*
X275847466Y-32817914D01*
X275752228Y-32865533D01*
X275704609Y-32913152D01*
X276609371Y-33484580D02*
X276609371Y-32817914D01*
X276609371Y-32484580D02*
X276561752Y-32532200D01*
X276609371Y-32579819D01*
X276656990Y-32532200D01*
X276609371Y-32484580D01*
X276609371Y-32579819D01*
X277037942Y-33436961D02*
X277133180Y-33484580D01*
X277323657Y-33484580D01*
X277418895Y-33436961D01*
X277466514Y-33341723D01*
X277466514Y-33294104D01*
X277418895Y-33198866D01*
X277323657Y-33151247D01*
X277180800Y-33151247D01*
X277085561Y-33103628D01*
X277037942Y-33008390D01*
X277037942Y-32960771D01*
X277085561Y-32865533D01*
X277180800Y-32817914D01*
X277323657Y-32817914D01*
X277418895Y-32865533D01*
X278609371Y-33436961D02*
X278704609Y-33484580D01*
X278895085Y-33484580D01*
X278990323Y-33436961D01*
X279037942Y-33341723D01*
X279037942Y-33294104D01*
X278990323Y-33198866D01*
X278895085Y-33151247D01*
X278752228Y-33151247D01*
X278656990Y-33103628D01*
X278609371Y-33008390D01*
X278609371Y-32960771D01*
X278656990Y-32865533D01*
X278752228Y-32817914D01*
X278895085Y-32817914D01*
X278990323Y-32865533D01*
X279466514Y-33484580D02*
X279466514Y-32817914D01*
X279466514Y-32484580D02*
X279418895Y-32532200D01*
X279466514Y-32579819D01*
X279514133Y-32532200D01*
X279466514Y-32484580D01*
X279466514Y-32579819D01*
X280371276Y-33484580D02*
X280371276Y-32484580D01*
X280371276Y-33436961D02*
X280276038Y-33484580D01*
X280085561Y-33484580D01*
X279990323Y-33436961D01*
X279942704Y-33389342D01*
X279895085Y-33294104D01*
X279895085Y-33008390D01*
X279942704Y-32913152D01*
X279990323Y-32865533D01*
X280085561Y-32817914D01*
X280276038Y-32817914D01*
X280371276Y-32865533D01*
X281228419Y-33436961D02*
X281133180Y-33484580D01*
X280942704Y-33484580D01*
X280847466Y-33436961D01*
X280799847Y-33341723D01*
X280799847Y-32960771D01*
X280847466Y-32865533D01*
X280942704Y-32817914D01*
X281133180Y-32817914D01*
X281228419Y-32865533D01*
X281276038Y-32960771D01*
X281276038Y-33056009D01*
X280799847Y-33151247D01*
X280669047Y-18055714D02*
X281430952Y-18341428D01*
X280669047Y-18627142D01*
X280669047Y-27455714D02*
X281430952Y-27741428D01*
X280669047Y-28027142D01*
X280619047Y-36985714D02*
X281380952Y-37271428D01*
X280619047Y-37557142D01*
D11*
G04 #@! TO.C,D3*
X280987500Y-38385000D02*
X285047500Y-38385000D01*
X285047500Y-38385000D02*
X285047500Y-36115000D01*
X285047500Y-36115000D02*
X280987500Y-36115000D01*
G04 #@! TO.C,D2*
X280987500Y-28882500D02*
X285047500Y-28882500D01*
X285047500Y-28882500D02*
X285047500Y-26612500D01*
X285047500Y-26612500D02*
X280987500Y-26612500D01*
G04 #@! TO.C,D1*
X280987500Y-19385000D02*
X285047500Y-19385000D01*
X285047500Y-19385000D02*
X285047500Y-17115000D01*
X285047500Y-17115000D02*
X280987500Y-17115000D01*
G04 #@! TO.C,RSW181*
X357012500Y-25400000D02*
G75*
G03*
X357012500Y-25400000I-3000000J0D01*
G01*
X352012500Y-31300000D02*
X347912500Y-31300000D01*
X347912500Y-19500000D02*
X352012500Y-19500000D01*
X356012500Y-19500000D02*
X360112500Y-19500000D01*
X356012500Y-31300000D02*
X360112500Y-31300000D01*
X360112500Y-31300000D02*
X360112500Y-19500000D01*
X361512500Y-29200000D02*
X361812500Y-29500000D01*
X361812500Y-29500000D02*
X361212500Y-29500000D01*
X361212500Y-29500000D02*
X361512500Y-29200000D01*
X347912500Y-31300000D02*
X347912500Y-28900000D01*
X347912500Y-26700000D02*
X347912500Y-24100000D01*
X347912500Y-21900000D02*
X347912500Y-19500000D01*
X354012500Y-25900000D02*
X354012500Y-24900000D01*
X354512500Y-25400000D02*
X353512500Y-25400000D01*
G04 #@! TO.C,RSW100*
X28400000Y-25356250D02*
G75*
G03*
X28400000Y-25356250I-3000000J0D01*
G01*
X23400000Y-31256250D02*
X19300000Y-31256250D01*
X19300000Y-19456250D02*
X23400000Y-19456250D01*
X27400000Y-19456250D02*
X31500000Y-19456250D01*
X27400000Y-31256250D02*
X31500000Y-31256250D01*
X31500000Y-31256250D02*
X31500000Y-19456250D01*
X32900000Y-29156250D02*
X33200000Y-29456250D01*
X33200000Y-29456250D02*
X32600000Y-29456250D01*
X32600000Y-29456250D02*
X32900000Y-29156250D01*
X19300000Y-31256250D02*
X19300000Y-28856250D01*
X19300000Y-26656250D02*
X19300000Y-24056250D01*
X19300000Y-21856250D02*
X19300000Y-19456250D01*
X25400000Y-25856250D02*
X25400000Y-24856250D01*
X25900000Y-25356250D02*
X24900000Y-25356250D01*
D12*
G04 #@! TO.C,U1*
X285230000Y-15110000D02*
X287770000Y-15110000D01*
X285230000Y-12570000D02*
X285230000Y-15110000D01*
D10*
G36*
X272835365Y-18859030D02*
G01*
X272835365Y-18959030D01*
X272735365Y-18959030D01*
X272735365Y-18859030D01*
X272835365Y-18859030D01*
G37*
X272835365Y-18859030D02*
X272835365Y-18959030D01*
X272735365Y-18959030D01*
X272735365Y-18859030D01*
X272835365Y-18859030D01*
G36*
X272635365Y-18459030D02*
G01*
X272635365Y-19259030D01*
X272535365Y-19259030D01*
X272535365Y-18459030D01*
X272635365Y-18459030D01*
G37*
X272635365Y-18459030D02*
X272635365Y-19259030D01*
X272535365Y-19259030D01*
X272535365Y-18459030D01*
X272635365Y-18459030D01*
G36*
X273035365Y-19059030D02*
G01*
X273035365Y-19259030D01*
X272935365Y-19259030D01*
X272935365Y-19059030D01*
X273035365Y-19059030D01*
G37*
X273035365Y-19059030D02*
X273035365Y-19259030D01*
X272935365Y-19259030D01*
X272935365Y-19059030D01*
X273035365Y-19059030D01*
G36*
X273035365Y-18459030D02*
G01*
X273035365Y-18759030D01*
X272935365Y-18759030D01*
X272935365Y-18459030D01*
X273035365Y-18459030D01*
G37*
X273035365Y-18459030D02*
X273035365Y-18759030D01*
X272935365Y-18759030D01*
X272935365Y-18459030D01*
X273035365Y-18459030D01*
G36*
X273035365Y-18459030D02*
G01*
X273035365Y-18559030D01*
X272535365Y-18559030D01*
X272535365Y-18459030D01*
X273035365Y-18459030D01*
G37*
X273035365Y-18459030D02*
X273035365Y-18559030D01*
X272535365Y-18559030D01*
X272535365Y-18459030D01*
X273035365Y-18459030D01*
D12*
X269990000Y-43050000D02*
X269990000Y-10030000D01*
X287770000Y-43050000D02*
X269990000Y-43050000D01*
X287770000Y-10030000D02*
X287770000Y-43050000D01*
X269990000Y-10030000D02*
X287770000Y-10030000D01*
X285230000Y-12570000D02*
X287770000Y-12570000D01*
G04 #@! TO.C,D3*
D10*
X281849404Y-39522380D02*
X281849404Y-38522380D01*
X282087500Y-38522380D01*
X282230357Y-38570000D01*
X282325595Y-38665238D01*
X282373214Y-38760476D01*
X282420833Y-38950952D01*
X282420833Y-39093809D01*
X282373214Y-39284285D01*
X282325595Y-39379523D01*
X282230357Y-39474761D01*
X282087500Y-39522380D01*
X281849404Y-39522380D01*
X282754166Y-38522380D02*
X283373214Y-38522380D01*
X283039880Y-38903333D01*
X283182738Y-38903333D01*
X283277976Y-38950952D01*
X283325595Y-38998571D01*
X283373214Y-39093809D01*
X283373214Y-39331904D01*
X283325595Y-39427142D01*
X283277976Y-39474761D01*
X283182738Y-39522380D01*
X282897023Y-39522380D01*
X282801785Y-39474761D01*
X282754166Y-39427142D01*
G04 #@! TO.C,D2*
X281849404Y-30019880D02*
X281849404Y-29019880D01*
X282087500Y-29019880D01*
X282230357Y-29067500D01*
X282325595Y-29162738D01*
X282373214Y-29257976D01*
X282420833Y-29448452D01*
X282420833Y-29591309D01*
X282373214Y-29781785D01*
X282325595Y-29877023D01*
X282230357Y-29972261D01*
X282087500Y-30019880D01*
X281849404Y-30019880D01*
X282801785Y-29115119D02*
X282849404Y-29067500D01*
X282944642Y-29019880D01*
X283182738Y-29019880D01*
X283277976Y-29067500D01*
X283325595Y-29115119D01*
X283373214Y-29210357D01*
X283373214Y-29305595D01*
X283325595Y-29448452D01*
X282754166Y-30019880D01*
X283373214Y-30019880D01*
G04 #@! TO.C,D1*
X281849404Y-20522380D02*
X281849404Y-19522380D01*
X282087500Y-19522380D01*
X282230357Y-19570000D01*
X282325595Y-19665238D01*
X282373214Y-19760476D01*
X282420833Y-19950952D01*
X282420833Y-20093809D01*
X282373214Y-20284285D01*
X282325595Y-20379523D01*
X282230357Y-20474761D01*
X282087500Y-20522380D01*
X281849404Y-20522380D01*
X283373214Y-20522380D02*
X282801785Y-20522380D01*
X283087500Y-20522380D02*
X283087500Y-19522380D01*
X282992261Y-19665238D01*
X282897023Y-19760476D01*
X282801785Y-19808095D01*
G04 #@! TO.C,U1*
X283750523Y-16741904D02*
X283750523Y-15941904D01*
X283941000Y-15941904D01*
X284055285Y-15980000D01*
X284131476Y-16056190D01*
X284169571Y-16132380D01*
X284207666Y-16284761D01*
X284207666Y-16399047D01*
X284169571Y-16551428D01*
X284131476Y-16627619D01*
X284055285Y-16703809D01*
X283941000Y-16741904D01*
X283750523Y-16741904D01*
X284512428Y-16018095D02*
X284550523Y-15980000D01*
X284626714Y-15941904D01*
X284817190Y-15941904D01*
X284893380Y-15980000D01*
X284931476Y-16018095D01*
X284969571Y-16094285D01*
X284969571Y-16170476D01*
X284931476Y-16284761D01*
X284474333Y-16741904D01*
X284969571Y-16741904D01*
X283750523Y-26901904D02*
X283750523Y-26101904D01*
X283941000Y-26101904D01*
X284055285Y-26140000D01*
X284131476Y-26216190D01*
X284169571Y-26292380D01*
X284207666Y-26444761D01*
X284207666Y-26559047D01*
X284169571Y-26711428D01*
X284131476Y-26787619D01*
X284055285Y-26863809D01*
X283941000Y-26901904D01*
X283750523Y-26901904D01*
X284702904Y-26101904D02*
X284779095Y-26101904D01*
X284855285Y-26140000D01*
X284893380Y-26178095D01*
X284931476Y-26254285D01*
X284969571Y-26406666D01*
X284969571Y-26597142D01*
X284931476Y-26749523D01*
X284893380Y-26825714D01*
X284855285Y-26863809D01*
X284779095Y-26901904D01*
X284702904Y-26901904D01*
X284626714Y-26863809D01*
X284588619Y-26825714D01*
X284550523Y-26749523D01*
X284512428Y-26597142D01*
X284512428Y-26406666D01*
X284550523Y-26254285D01*
X284588619Y-26178095D01*
X284626714Y-26140000D01*
X284702904Y-26101904D01*
X283750523Y-24361904D02*
X283750523Y-23561904D01*
X283941000Y-23561904D01*
X284055285Y-23600000D01*
X284131476Y-23676190D01*
X284169571Y-23752380D01*
X284207666Y-23904761D01*
X284207666Y-24019047D01*
X284169571Y-24171428D01*
X284131476Y-24247619D01*
X284055285Y-24323809D01*
X283941000Y-24361904D01*
X283750523Y-24361904D01*
X284969571Y-24361904D02*
X284512428Y-24361904D01*
X284741000Y-24361904D02*
X284741000Y-23561904D01*
X284664809Y-23676190D01*
X284588619Y-23752380D01*
X284512428Y-23790476D01*
X283731476Y-21060000D02*
X283655285Y-21021904D01*
X283541000Y-21021904D01*
X283426714Y-21060000D01*
X283350523Y-21136190D01*
X283312428Y-21212380D01*
X283274333Y-21364761D01*
X283274333Y-21479047D01*
X283312428Y-21631428D01*
X283350523Y-21707619D01*
X283426714Y-21783809D01*
X283541000Y-21821904D01*
X283617190Y-21821904D01*
X283731476Y-21783809D01*
X283769571Y-21745714D01*
X283769571Y-21479047D01*
X283617190Y-21479047D01*
X284112428Y-21821904D02*
X284112428Y-21021904D01*
X284569571Y-21821904D01*
X284569571Y-21021904D01*
X284950523Y-21821904D02*
X284950523Y-21021904D01*
X285141000Y-21021904D01*
X285255285Y-21060000D01*
X285331476Y-21136190D01*
X285369571Y-21212380D01*
X285407666Y-21364761D01*
X285407666Y-21479047D01*
X285369571Y-21631428D01*
X285331476Y-21707619D01*
X285255285Y-21783809D01*
X285141000Y-21821904D01*
X284950523Y-21821904D01*
X283731476Y-18520000D02*
X283655285Y-18481904D01*
X283541000Y-18481904D01*
X283426714Y-18520000D01*
X283350523Y-18596190D01*
X283312428Y-18672380D01*
X283274333Y-18824761D01*
X283274333Y-18939047D01*
X283312428Y-19091428D01*
X283350523Y-19167619D01*
X283426714Y-19243809D01*
X283541000Y-19281904D01*
X283617190Y-19281904D01*
X283731476Y-19243809D01*
X283769571Y-19205714D01*
X283769571Y-18939047D01*
X283617190Y-18939047D01*
X284112428Y-19281904D02*
X284112428Y-18481904D01*
X284569571Y-19281904D01*
X284569571Y-18481904D01*
X284950523Y-19281904D02*
X284950523Y-18481904D01*
X285141000Y-18481904D01*
X285255285Y-18520000D01*
X285331476Y-18596190D01*
X285369571Y-18672380D01*
X285407666Y-18824761D01*
X285407666Y-18939047D01*
X285369571Y-19091428D01*
X285331476Y-19167619D01*
X285255285Y-19243809D01*
X285141000Y-19281904D01*
X284950523Y-19281904D01*
X283750523Y-29441904D02*
X283750523Y-28641904D01*
X283941000Y-28641904D01*
X284055285Y-28680000D01*
X284131476Y-28756190D01*
X284169571Y-28832380D01*
X284207666Y-28984761D01*
X284207666Y-29099047D01*
X284169571Y-29251428D01*
X284131476Y-29327619D01*
X284055285Y-29403809D01*
X283941000Y-29441904D01*
X283750523Y-29441904D01*
X284893380Y-28908571D02*
X284893380Y-29441904D01*
X284702904Y-28603809D02*
X284512428Y-29175238D01*
X285007666Y-29175238D01*
X284207666Y-31905714D02*
X284169571Y-31943809D01*
X284055285Y-31981904D01*
X283979095Y-31981904D01*
X283864809Y-31943809D01*
X283788619Y-31867619D01*
X283750523Y-31791428D01*
X283712428Y-31639047D01*
X283712428Y-31524761D01*
X283750523Y-31372380D01*
X283788619Y-31296190D01*
X283864809Y-31220000D01*
X283979095Y-31181904D01*
X284055285Y-31181904D01*
X284169571Y-31220000D01*
X284207666Y-31258095D01*
X284893380Y-31181904D02*
X284741000Y-31181904D01*
X284664809Y-31220000D01*
X284626714Y-31258095D01*
X284550523Y-31372380D01*
X284512428Y-31524761D01*
X284512428Y-31829523D01*
X284550523Y-31905714D01*
X284588619Y-31943809D01*
X284664809Y-31981904D01*
X284817190Y-31981904D01*
X284893380Y-31943809D01*
X284931476Y-31905714D01*
X284969571Y-31829523D01*
X284969571Y-31639047D01*
X284931476Y-31562857D01*
X284893380Y-31524761D01*
X284817190Y-31486666D01*
X284664809Y-31486666D01*
X284588619Y-31524761D01*
X284550523Y-31562857D01*
X284512428Y-31639047D01*
X283750523Y-34521904D02*
X283750523Y-33721904D01*
X283941000Y-33721904D01*
X284055285Y-33760000D01*
X284131476Y-33836190D01*
X284169571Y-33912380D01*
X284207666Y-34064761D01*
X284207666Y-34179047D01*
X284169571Y-34331428D01*
X284131476Y-34407619D01*
X284055285Y-34483809D01*
X283941000Y-34521904D01*
X283750523Y-34521904D01*
X284474333Y-33721904D02*
X285007666Y-33721904D01*
X284664809Y-34521904D01*
X283788619Y-36642857D02*
X284055285Y-36642857D01*
X284169571Y-37061904D02*
X283788619Y-37061904D01*
X283788619Y-36261904D01*
X284169571Y-36261904D01*
X284855285Y-36261904D02*
X284702904Y-36261904D01*
X284626714Y-36300000D01*
X284588619Y-36338095D01*
X284512428Y-36452380D01*
X284474333Y-36604761D01*
X284474333Y-36909523D01*
X284512428Y-36985714D01*
X284550523Y-37023809D01*
X284626714Y-37061904D01*
X284779095Y-37061904D01*
X284855285Y-37023809D01*
X284893380Y-36985714D01*
X284931476Y-36909523D01*
X284931476Y-36719047D01*
X284893380Y-36642857D01*
X284855285Y-36604761D01*
X284779095Y-36566666D01*
X284626714Y-36566666D01*
X284550523Y-36604761D01*
X284512428Y-36642857D01*
X284474333Y-36719047D01*
X284017190Y-39182857D02*
X284131476Y-39220952D01*
X284169571Y-39259047D01*
X284207666Y-39335238D01*
X284207666Y-39449523D01*
X284169571Y-39525714D01*
X284131476Y-39563809D01*
X284055285Y-39601904D01*
X283750523Y-39601904D01*
X283750523Y-38801904D01*
X284017190Y-38801904D01*
X284093380Y-38840000D01*
X284131476Y-38878095D01*
X284169571Y-38954285D01*
X284169571Y-39030476D01*
X284131476Y-39106666D01*
X284093380Y-39144761D01*
X284017190Y-39182857D01*
X283750523Y-39182857D01*
X284893380Y-39068571D02*
X284893380Y-39601904D01*
X284702904Y-38763809D02*
X284512428Y-39335238D01*
X285007666Y-39335238D01*
X285044297Y-40674991D02*
X285138578Y-40627851D01*
X285185719Y-40627851D01*
X285256429Y-40651421D01*
X285327140Y-40722132D01*
X285350710Y-40792842D01*
X285350710Y-40839983D01*
X285327140Y-40910693D01*
X285138578Y-41099255D01*
X284643603Y-40604280D01*
X284808595Y-40439289D01*
X284879306Y-40415719D01*
X284926446Y-40415719D01*
X284997157Y-40439289D01*
X285044297Y-40486429D01*
X285067867Y-40557140D01*
X285067867Y-40604280D01*
X285044297Y-40674991D01*
X284879306Y-40839983D01*
X285374280Y-39873603D02*
X285138578Y-40109306D01*
X285350710Y-40368578D01*
X285350710Y-40321438D01*
X285374280Y-40250727D01*
X285492132Y-40132876D01*
X285562842Y-40109306D01*
X285609983Y-40109306D01*
X285680693Y-40132876D01*
X285798544Y-40250727D01*
X285822115Y-40321438D01*
X285822115Y-40368578D01*
X285798544Y-40439289D01*
X285680693Y-40557140D01*
X285609983Y-40580710D01*
X285562842Y-40580710D01*
X273095190Y-36642857D02*
X273209476Y-36680952D01*
X273247571Y-36719047D01*
X273285666Y-36795238D01*
X273285666Y-36909523D01*
X273247571Y-36985714D01*
X273209476Y-37023809D01*
X273133285Y-37061904D01*
X272828523Y-37061904D01*
X272828523Y-36261904D01*
X273095190Y-36261904D01*
X273171380Y-36300000D01*
X273209476Y-36338095D01*
X273247571Y-36414285D01*
X273247571Y-36490476D01*
X273209476Y-36566666D01*
X273171380Y-36604761D01*
X273095190Y-36642857D01*
X272828523Y-36642857D01*
X273552333Y-36261904D02*
X274047571Y-36261904D01*
X273780904Y-36566666D01*
X273895190Y-36566666D01*
X273971380Y-36604761D01*
X274009476Y-36642857D01*
X274047571Y-36719047D01*
X274047571Y-36909523D01*
X274009476Y-36985714D01*
X273971380Y-37023809D01*
X273895190Y-37061904D01*
X273666619Y-37061904D01*
X273590428Y-37023809D01*
X273552333Y-36985714D01*
X273095190Y-34102857D02*
X273209476Y-34140952D01*
X273247571Y-34179047D01*
X273285666Y-34255238D01*
X273285666Y-34369523D01*
X273247571Y-34445714D01*
X273209476Y-34483809D01*
X273133285Y-34521904D01*
X272828523Y-34521904D01*
X272828523Y-33721904D01*
X273095190Y-33721904D01*
X273171380Y-33760000D01*
X273209476Y-33798095D01*
X273247571Y-33874285D01*
X273247571Y-33950476D01*
X273209476Y-34026666D01*
X273171380Y-34064761D01*
X273095190Y-34102857D01*
X272828523Y-34102857D01*
X274047571Y-34521904D02*
X273590428Y-34521904D01*
X273819000Y-34521904D02*
X273819000Y-33721904D01*
X273742809Y-33836190D01*
X273666619Y-33912380D01*
X273590428Y-33950476D01*
X273152333Y-23942857D02*
X272885666Y-23942857D01*
X272885666Y-24361904D02*
X272885666Y-23561904D01*
X273266619Y-23561904D01*
X273914238Y-23828571D02*
X273914238Y-24361904D01*
X273723761Y-23523809D02*
X273533285Y-24095238D01*
X274028523Y-24095238D01*
X272352333Y-21021904D02*
X272619000Y-21821904D01*
X272885666Y-21021904D01*
X273609476Y-21745714D02*
X273571380Y-21783809D01*
X273457095Y-21821904D01*
X273380904Y-21821904D01*
X273266619Y-21783809D01*
X273190428Y-21707619D01*
X273152333Y-21631428D01*
X273114238Y-21479047D01*
X273114238Y-21364761D01*
X273152333Y-21212380D01*
X273190428Y-21136190D01*
X273266619Y-21060000D01*
X273380904Y-21021904D01*
X273457095Y-21021904D01*
X273571380Y-21060000D01*
X273609476Y-21098095D01*
X274409476Y-21745714D02*
X274371380Y-21783809D01*
X274257095Y-21821904D01*
X274180904Y-21821904D01*
X274066619Y-21783809D01*
X273990428Y-21707619D01*
X273952333Y-21631428D01*
X273914238Y-21479047D01*
X273914238Y-21364761D01*
X273952333Y-21212380D01*
X273990428Y-21136190D01*
X274066619Y-21060000D01*
X274180904Y-21021904D01*
X274257095Y-21021904D01*
X274371380Y-21060000D01*
X274409476Y-21098095D01*
X272809476Y-15980000D02*
X272733285Y-15941904D01*
X272619000Y-15941904D01*
X272504714Y-15980000D01*
X272428523Y-16056190D01*
X272390428Y-16132380D01*
X272352333Y-16284761D01*
X272352333Y-16399047D01*
X272390428Y-16551428D01*
X272428523Y-16627619D01*
X272504714Y-16703809D01*
X272619000Y-16741904D01*
X272695190Y-16741904D01*
X272809476Y-16703809D01*
X272847571Y-16665714D01*
X272847571Y-16399047D01*
X272695190Y-16399047D01*
X273190428Y-16741904D02*
X273190428Y-15941904D01*
X273647571Y-16741904D01*
X273647571Y-15941904D01*
X274028523Y-16741904D02*
X274028523Y-15941904D01*
X274219000Y-15941904D01*
X274333285Y-15980000D01*
X274409476Y-16056190D01*
X274447571Y-16132380D01*
X274485666Y-16284761D01*
X274485666Y-16399047D01*
X274447571Y-16551428D01*
X274409476Y-16627619D01*
X274333285Y-16703809D01*
X274219000Y-16741904D01*
X274028523Y-16741904D01*
X273095190Y-13782857D02*
X273209476Y-13820952D01*
X273247571Y-13859047D01*
X273285666Y-13935238D01*
X273285666Y-14049523D01*
X273247571Y-14125714D01*
X273209476Y-14163809D01*
X273133285Y-14201904D01*
X272828523Y-14201904D01*
X272828523Y-13401904D01*
X273095190Y-13401904D01*
X273171380Y-13440000D01*
X273209476Y-13478095D01*
X273247571Y-13554285D01*
X273247571Y-13630476D01*
X273209476Y-13706666D01*
X273171380Y-13744761D01*
X273095190Y-13782857D01*
X272828523Y-13782857D01*
X273780904Y-13401904D02*
X273857095Y-13401904D01*
X273933285Y-13440000D01*
X273971380Y-13478095D01*
X274009476Y-13554285D01*
X274047571Y-13706666D01*
X274047571Y-13897142D01*
X274009476Y-14049523D01*
X273971380Y-14125714D01*
X273933285Y-14163809D01*
X273857095Y-14201904D01*
X273780904Y-14201904D01*
X273704714Y-14163809D01*
X273666619Y-14125714D01*
X273628523Y-14049523D01*
X273590428Y-13897142D01*
X273590428Y-13706666D01*
X273628523Y-13554285D01*
X273666619Y-13478095D01*
X273704714Y-13440000D01*
X273780904Y-13401904D01*
X273152333Y-26482857D02*
X272885666Y-26482857D01*
X272885666Y-26901904D02*
X272885666Y-26101904D01*
X273266619Y-26101904D01*
X273952333Y-26101904D02*
X273571380Y-26101904D01*
X273533285Y-26482857D01*
X273571380Y-26444761D01*
X273647571Y-26406666D01*
X273838047Y-26406666D01*
X273914238Y-26444761D01*
X273952333Y-26482857D01*
X273990428Y-26559047D01*
X273990428Y-26749523D01*
X273952333Y-26825714D01*
X273914238Y-26863809D01*
X273838047Y-26901904D01*
X273647571Y-26901904D01*
X273571380Y-26863809D01*
X273533285Y-26825714D01*
X273152333Y-29022857D02*
X272885666Y-29022857D01*
X272885666Y-29441904D02*
X272885666Y-28641904D01*
X273266619Y-28641904D01*
X273914238Y-28641904D02*
X273761857Y-28641904D01*
X273685666Y-28680000D01*
X273647571Y-28718095D01*
X273571380Y-28832380D01*
X273533285Y-28984761D01*
X273533285Y-29289523D01*
X273571380Y-29365714D01*
X273609476Y-29403809D01*
X273685666Y-29441904D01*
X273838047Y-29441904D01*
X273914238Y-29403809D01*
X273952333Y-29365714D01*
X273990428Y-29289523D01*
X273990428Y-29099047D01*
X273952333Y-29022857D01*
X273914238Y-28984761D01*
X273838047Y-28946666D01*
X273685666Y-28946666D01*
X273609476Y-28984761D01*
X273571380Y-29022857D01*
X273533285Y-29099047D01*
X273152333Y-31562857D02*
X272885666Y-31562857D01*
X272885666Y-31981904D02*
X272885666Y-31181904D01*
X273266619Y-31181904D01*
X273495190Y-31181904D02*
X274028523Y-31181904D01*
X273685666Y-31981904D01*
X273095190Y-39182857D02*
X273209476Y-39220952D01*
X273247571Y-39259047D01*
X273285666Y-39335238D01*
X273285666Y-39449523D01*
X273247571Y-39525714D01*
X273209476Y-39563809D01*
X273133285Y-39601904D01*
X272828523Y-39601904D01*
X272828523Y-38801904D01*
X273095190Y-38801904D01*
X273171380Y-38840000D01*
X273209476Y-38878095D01*
X273247571Y-38954285D01*
X273247571Y-39030476D01*
X273209476Y-39106666D01*
X273171380Y-39144761D01*
X273095190Y-39182857D01*
X272828523Y-39182857D01*
X273590428Y-38878095D02*
X273628523Y-38840000D01*
X273704714Y-38801904D01*
X273895190Y-38801904D01*
X273971380Y-38840000D01*
X274009476Y-38878095D01*
X274047571Y-38954285D01*
X274047571Y-39030476D01*
X274009476Y-39144761D01*
X273552333Y-39601904D01*
X274047571Y-39601904D01*
X280261395Y-13401904D02*
X280718538Y-13401904D01*
X280489967Y-14201904D02*
X280489967Y-13401904D01*
X280909014Y-13401904D02*
X281442348Y-14201904D01*
X281442348Y-13401904D02*
X280909014Y-14201904D01*
X281899491Y-13401904D02*
X281975681Y-13401904D01*
X282051872Y-13440000D01*
X282089967Y-13478095D01*
X282128062Y-13554285D01*
X282166157Y-13706666D01*
X282166157Y-13897142D01*
X282128062Y-14049523D01*
X282089967Y-14125714D01*
X282051872Y-14163809D01*
X281975681Y-14201904D01*
X281899491Y-14201904D01*
X281823300Y-14163809D01*
X281785205Y-14125714D01*
X281747110Y-14049523D01*
X281709014Y-13897142D01*
X281709014Y-13706666D01*
X281747110Y-13554285D01*
X281785205Y-13478095D01*
X281823300Y-13440000D01*
X281899491Y-13401904D01*
X283080443Y-13363809D02*
X282394729Y-14392380D01*
X283347110Y-14201904D02*
X283347110Y-13401904D01*
X283537586Y-13401904D01*
X283651872Y-13440000D01*
X283728062Y-13516190D01*
X283766157Y-13592380D01*
X283804252Y-13744761D01*
X283804252Y-13859047D01*
X283766157Y-14011428D01*
X283728062Y-14087619D01*
X283651872Y-14163809D01*
X283537586Y-14201904D01*
X283347110Y-14201904D01*
X284070919Y-13401904D02*
X284566157Y-13401904D01*
X284299491Y-13706666D01*
X284413776Y-13706666D01*
X284489967Y-13744761D01*
X284528062Y-13782857D01*
X284566157Y-13859047D01*
X284566157Y-14049523D01*
X284528062Y-14125714D01*
X284489967Y-14163809D01*
X284413776Y-14201904D01*
X284185205Y-14201904D01*
X284109014Y-14163809D01*
X284070919Y-14125714D01*
X273306666Y-19223809D02*
X273420952Y-19261904D01*
X273611428Y-19261904D01*
X273687619Y-19223809D01*
X273725714Y-19185714D01*
X273763809Y-19109523D01*
X273763809Y-19033333D01*
X273725714Y-18957142D01*
X273687619Y-18919047D01*
X273611428Y-18880952D01*
X273459047Y-18842857D01*
X273382857Y-18804761D01*
X273344761Y-18766666D01*
X273306666Y-18690476D01*
X273306666Y-18614285D01*
X273344761Y-18538095D01*
X273382857Y-18500000D01*
X273459047Y-18461904D01*
X273649523Y-18461904D01*
X273763809Y-18500000D01*
X273992380Y-18461904D02*
X274449523Y-18461904D01*
X274220952Y-19261904D02*
X274220952Y-18461904D01*
X283096666Y-40360000D02*
X283196666Y-40393333D01*
X283230000Y-40426666D01*
X283263333Y-40493333D01*
X283263333Y-40593333D01*
X283230000Y-40660000D01*
X283196666Y-40693333D01*
X283130000Y-40726666D01*
X282863333Y-40726666D01*
X282863333Y-40026666D01*
X283096666Y-40026666D01*
X283163333Y-40060000D01*
X283196666Y-40093333D01*
X283230000Y-40160000D01*
X283230000Y-40226666D01*
X283196666Y-40293333D01*
X283163333Y-40326666D01*
X283096666Y-40360000D01*
X282863333Y-40360000D01*
X283496666Y-40026666D02*
X283963333Y-40026666D01*
X283663333Y-40726666D01*
X274146666Y-40360000D02*
X273913333Y-40360000D01*
X273913333Y-40726666D02*
X273913333Y-40026666D01*
X274246666Y-40026666D01*
X274646666Y-40026666D02*
X274713333Y-40026666D01*
X274780000Y-40060000D01*
X274813333Y-40093333D01*
X274846666Y-40160000D01*
X274880000Y-40293333D01*
X274880000Y-40460000D01*
X274846666Y-40593333D01*
X274813333Y-40660000D01*
X274780000Y-40693333D01*
X274713333Y-40726666D01*
X274646666Y-40726666D01*
X274580000Y-40693333D01*
X274546666Y-40660000D01*
X274513333Y-40593333D01*
X274480000Y-40460000D01*
X274480000Y-40293333D01*
X274513333Y-40160000D01*
X274546666Y-40093333D01*
X274580000Y-40060000D01*
X274646666Y-40026666D01*
X272644991Y-40745702D02*
X272597851Y-40651421D01*
X272597851Y-40604280D01*
X272621421Y-40533570D01*
X272692132Y-40462859D01*
X272762842Y-40439289D01*
X272809983Y-40439289D01*
X272880693Y-40462859D01*
X273069255Y-40651421D01*
X272574280Y-41146396D01*
X272409289Y-40981404D01*
X272385719Y-40910693D01*
X272385719Y-40863553D01*
X272409289Y-40792842D01*
X272456429Y-40745702D01*
X272527140Y-40722132D01*
X272574280Y-40722132D01*
X272644991Y-40745702D01*
X272809983Y-40910693D01*
X271867174Y-40439289D02*
X271961455Y-40533570D01*
X272032165Y-40557140D01*
X272079306Y-40557140D01*
X272197157Y-40533570D01*
X272315008Y-40462859D01*
X272503570Y-40274297D01*
X272527140Y-40203587D01*
X272527140Y-40156446D01*
X272503570Y-40085735D01*
X272409289Y-39991455D01*
X272338578Y-39967884D01*
X272291438Y-39967884D01*
X272220727Y-39991455D01*
X272102876Y-40109306D01*
X272079306Y-40180016D01*
X272079306Y-40227157D01*
X272102876Y-40297867D01*
X272197157Y-40392148D01*
X272267867Y-40415719D01*
X272315008Y-40415719D01*
X272385719Y-40392148D01*
X278746666Y-40495714D02*
X278708571Y-40533809D01*
X278594285Y-40571904D01*
X278518095Y-40571904D01*
X278403809Y-40533809D01*
X278327619Y-40457619D01*
X278289523Y-40381428D01*
X278251428Y-40229047D01*
X278251428Y-40114761D01*
X278289523Y-39962380D01*
X278327619Y-39886190D01*
X278403809Y-39810000D01*
X278518095Y-39771904D01*
X278594285Y-39771904D01*
X278708571Y-39810000D01*
X278746666Y-39848095D01*
X279013333Y-39771904D02*
X279546666Y-39771904D01*
X279203809Y-40571904D01*
X276073333Y-40152857D02*
X275806666Y-40152857D01*
X275806666Y-40571904D02*
X275806666Y-39771904D01*
X276187619Y-39771904D01*
X276911428Y-40571904D02*
X276454285Y-40571904D01*
X276682857Y-40571904D02*
X276682857Y-39771904D01*
X276606666Y-39886190D01*
X276530476Y-39962380D01*
X276454285Y-40000476D01*
X280829523Y-40571904D02*
X280829523Y-39771904D01*
X281020000Y-39771904D01*
X281134285Y-39810000D01*
X281210476Y-39886190D01*
X281248571Y-39962380D01*
X281286666Y-40114761D01*
X281286666Y-40229047D01*
X281248571Y-40381428D01*
X281210476Y-40457619D01*
X281134285Y-40533809D01*
X281020000Y-40571904D01*
X280829523Y-40571904D01*
X282010476Y-39771904D02*
X281629523Y-39771904D01*
X281591428Y-40152857D01*
X281629523Y-40114761D01*
X281705714Y-40076666D01*
X281896190Y-40076666D01*
X281972380Y-40114761D01*
X282010476Y-40152857D01*
X282048571Y-40229047D01*
X282048571Y-40419523D01*
X282010476Y-40495714D01*
X281972380Y-40533809D01*
X281896190Y-40571904D01*
X281705714Y-40571904D01*
X281629523Y-40533809D01*
X281591428Y-40495714D01*
G04 #@! TD*
%LPC*%
G04 #@! TO.C,D3*
G36*
G01*
X281812500Y-36625000D02*
X281812500Y-37875000D01*
G75*
G02*
X281562500Y-38125000I-250000J0D01*
G01*
X280637500Y-38125000D01*
G75*
G02*
X280387500Y-37875000I0J250000D01*
G01*
X280387500Y-36625000D01*
G75*
G02*
X280637500Y-36375000I250000J0D01*
G01*
X281562500Y-36375000D01*
G75*
G02*
X281812500Y-36625000I0J-250000D01*
G01*
G37*
G36*
G01*
X284787500Y-36625000D02*
X284787500Y-37875000D01*
G75*
G02*
X284537500Y-38125000I-250000J0D01*
G01*
X283612500Y-38125000D01*
G75*
G02*
X283362500Y-37875000I0J250000D01*
G01*
X283362500Y-36625000D01*
G75*
G02*
X283612500Y-36375000I250000J0D01*
G01*
X284537500Y-36375000D01*
G75*
G02*
X284787500Y-36625000I0J-250000D01*
G01*
G37*
G04 #@! TD*
G04 #@! TO.C,D2*
G36*
G01*
X281812500Y-27122500D02*
X281812500Y-28372500D01*
G75*
G02*
X281562500Y-28622500I-250000J0D01*
G01*
X280637500Y-28622500D01*
G75*
G02*
X280387500Y-28372500I0J250000D01*
G01*
X280387500Y-27122500D01*
G75*
G02*
X280637500Y-26872500I250000J0D01*
G01*
X281562500Y-26872500D01*
G75*
G02*
X281812500Y-27122500I0J-250000D01*
G01*
G37*
G36*
G01*
X284787500Y-27122500D02*
X284787500Y-28372500D01*
G75*
G02*
X284537500Y-28622500I-250000J0D01*
G01*
X283612500Y-28622500D01*
G75*
G02*
X283362500Y-28372500I0J250000D01*
G01*
X283362500Y-27122500D01*
G75*
G02*
X283612500Y-26872500I250000J0D01*
G01*
X284537500Y-26872500D01*
G75*
G02*
X284787500Y-27122500I0J-250000D01*
G01*
G37*
G04 #@! TD*
G04 #@! TO.C,D1*
G36*
G01*
X281812500Y-17625000D02*
X281812500Y-18875000D01*
G75*
G02*
X281562500Y-19125000I-250000J0D01*
G01*
X280637500Y-19125000D01*
G75*
G02*
X280387500Y-18875000I0J250000D01*
G01*
X280387500Y-17625000D01*
G75*
G02*
X280637500Y-17375000I250000J0D01*
G01*
X281562500Y-17375000D01*
G75*
G02*
X281812500Y-17625000I0J-250000D01*
G01*
G37*
G36*
G01*
X284787500Y-17625000D02*
X284787500Y-18875000D01*
G75*
G02*
X284537500Y-19125000I-250000J0D01*
G01*
X283612500Y-19125000D01*
G75*
G02*
X283362500Y-18875000I0J250000D01*
G01*
X283362500Y-17625000D01*
G75*
G02*
X283612500Y-17375000I250000J0D01*
G01*
X284537500Y-17375000D01*
G75*
G02*
X284787500Y-17625000I0J-250000D01*
G01*
G37*
G04 #@! TD*
D13*
G04 #@! TO.C,MX437*
X156368750Y-82550000D03*
D14*
X151288750Y-82550000D03*
X161448750Y-82550000D03*
D15*
X144462500Y-89535000D03*
X168275000Y-89535000D03*
D13*
X144462500Y-74295000D03*
X168275000Y-74295000D03*
G04 #@! TD*
G04 #@! TO.C,MX417*
X108743750Y-82550000D03*
D14*
X103663750Y-82550000D03*
X113823750Y-82550000D03*
D15*
X96837500Y-89535000D03*
X120650000Y-89535000D03*
D13*
X96837500Y-74295000D03*
X120650000Y-74295000D03*
G04 #@! TD*
G04 #@! TO.C,MX417.700*
X130175000Y-82550000D03*
D14*
X125095000Y-82550000D03*
X135255000Y-82550000D03*
D15*
X73025000Y-89535000D03*
X187325000Y-89535000D03*
D13*
X73025000Y-74295000D03*
X187325000Y-74295000D03*
G04 #@! TD*
G04 #@! TO.C,MX477.200*
X325323200Y-82524600D03*
D14*
X320243200Y-82524600D03*
X330403200Y-82524600D03*
D15*
X313416950Y-89509600D03*
X337229450Y-89509600D03*
D13*
X313416950Y-74269600D03*
X337229450Y-74269600D03*
G04 #@! TD*
G04 #@! TO.C,MX487.200*
X354012500Y-73025000D03*
D14*
X354012500Y-67945000D03*
X354012500Y-78105000D03*
D15*
X360997500Y-61118750D03*
X360997500Y-84931250D03*
D13*
X345757500Y-61118750D03*
X345757500Y-84931250D03*
G04 #@! TD*
G04 #@! TO.C,MX253*
X239712500Y-44450000D03*
D14*
X234632500Y-44450000D03*
X244792500Y-44450000D03*
G04 #@! TD*
D16*
G04 #@! TO.C,RSW181*
X361512500Y-27900000D03*
D17*
X361512500Y-25400000D03*
X361512500Y-22900000D03*
X347012500Y-27900000D03*
X347012500Y-22900000D03*
G04 #@! TD*
D16*
G04 #@! TO.C,RSW100*
X32900000Y-27856250D03*
D17*
X32900000Y-25356250D03*
X32900000Y-22856250D03*
X18400000Y-27856250D03*
X18400000Y-22856250D03*
G04 #@! TD*
D18*
G04 #@! TO.C,U1*
X283960000Y-41780000D03*
X281420000Y-41780000D03*
X278880000Y-41780000D03*
X276340000Y-41780000D03*
X273800000Y-41780000D03*
X271260000Y-13840000D03*
X286271400Y-41780000D03*
X271260000Y-16380000D03*
X271260000Y-18920000D03*
X271260000Y-21460000D03*
X271260000Y-24000000D03*
X271260000Y-26540000D03*
X271260000Y-29080000D03*
X271260000Y-31620000D03*
X271260000Y-34160000D03*
X271260000Y-36700000D03*
X271260000Y-39240000D03*
X271260000Y-41780000D03*
X286500000Y-39240000D03*
X286500000Y-36700000D03*
X286500000Y-34160000D03*
X286500000Y-31620000D03*
X286500000Y-29080000D03*
X286500000Y-26540000D03*
X286500000Y-24000000D03*
X286500000Y-21460000D03*
X286500000Y-18920000D03*
X286500000Y-16380000D03*
D19*
X286500000Y-13840000D03*
G04 #@! TD*
D13*
G04 #@! TO.C,MX487*
X354012500Y-82550000D03*
D14*
X348932500Y-82550000D03*
X359092500Y-82550000D03*
G04 #@! TD*
D13*
G04 #@! TO.C,MX486*
X334962500Y-82550000D03*
D14*
X329882500Y-82550000D03*
X340042500Y-82550000D03*
G04 #@! TD*
D13*
G04 #@! TO.C,MX477*
X315912500Y-82550000D03*
D14*
X310832500Y-82550000D03*
X320992500Y-82550000D03*
G04 #@! TD*
D13*
G04 #@! TO.C,MX476*
X294481250Y-84931250D03*
D14*
X289401250Y-84931250D03*
X299561250Y-84931250D03*
G04 #@! TD*
D13*
G04 #@! TO.C,MX467*
X275431250Y-84931250D03*
D14*
X270351250Y-84931250D03*
X280511250Y-84931250D03*
G04 #@! TD*
D13*
G04 #@! TO.C,MX457*
X256381250Y-84931250D03*
D14*
X251301250Y-84931250D03*
X261461250Y-84931250D03*
G04 #@! TD*
D13*
G04 #@! TO.C,MX456*
X232568750Y-82550000D03*
D14*
X227488750Y-82550000D03*
X237648750Y-82550000D03*
G04 #@! TD*
D13*
G04 #@! TO.C,MX447*
X208756250Y-82550000D03*
D14*
X203676250Y-82550000D03*
X213836250Y-82550000D03*
G04 #@! TD*
D13*
G04 #@! TO.C,MX446*
X187325000Y-82550000D03*
D14*
X182245000Y-82550000D03*
X192405000Y-82550000D03*
G04 #@! TD*
D13*
G04 #@! TO.C,MX416*
X73025000Y-82550000D03*
D14*
X67945000Y-82550000D03*
X78105000Y-82550000D03*
G04 #@! TD*
D13*
G04 #@! TO.C,MX407*
X51593750Y-82550000D03*
D14*
X46513750Y-82550000D03*
X56673750Y-82550000D03*
G04 #@! TD*
D13*
G04 #@! TO.C,MX406*
X27781250Y-82550000D03*
D14*
X22701250Y-82550000D03*
X32861250Y-82550000D03*
G04 #@! TD*
D13*
G04 #@! TO.C,MX385*
X354012500Y-63500000D03*
D14*
X348932500Y-63500000D03*
X359092500Y-63500000D03*
G04 #@! TD*
D13*
G04 #@! TO.C,MX384*
X334962500Y-63500000D03*
D14*
X329882500Y-63500000D03*
X340042500Y-63500000D03*
G04 #@! TD*
D13*
G04 #@! TO.C,MX375*
X315912500Y-63500000D03*
D14*
X310832500Y-63500000D03*
X320992500Y-63500000D03*
G04 #@! TD*
D13*
G04 #@! TO.C,MX374*
X296862500Y-63500000D03*
D14*
X291782500Y-63500000D03*
X301942500Y-63500000D03*
G04 #@! TD*
D13*
G04 #@! TO.C,MX364*
X275431250Y-65881250D03*
D14*
X270351250Y-65881250D03*
X280511250Y-65881250D03*
G04 #@! TD*
D13*
G04 #@! TO.C,MX355*
X251618750Y-63500000D03*
D14*
X246538750Y-63500000D03*
X256698750Y-63500000D03*
G04 #@! TD*
D13*
G04 #@! TO.C,MX354*
X230187500Y-63500000D03*
D14*
X225107500Y-63500000D03*
X235267500Y-63500000D03*
G04 #@! TD*
D13*
G04 #@! TO.C,MX345*
X211137500Y-63500000D03*
D14*
X206057500Y-63500000D03*
X216217500Y-63500000D03*
G04 #@! TD*
D13*
G04 #@! TO.C,MX344*
X192087500Y-63500000D03*
D14*
X187007500Y-63500000D03*
X197167500Y-63500000D03*
G04 #@! TD*
D13*
G04 #@! TO.C,MX335*
X173037500Y-63500000D03*
D14*
X167957500Y-63500000D03*
X178117500Y-63500000D03*
G04 #@! TD*
D13*
G04 #@! TO.C,MX334*
X153987500Y-63500000D03*
D14*
X148907500Y-63500000D03*
X159067500Y-63500000D03*
G04 #@! TD*
D13*
G04 #@! TO.C,MX325*
X134937500Y-63500000D03*
D14*
X129857500Y-63500000D03*
X140017500Y-63500000D03*
G04 #@! TD*
D13*
G04 #@! TO.C,MX324*
X115887500Y-63500000D03*
D14*
X110807500Y-63500000D03*
X120967500Y-63500000D03*
G04 #@! TD*
D13*
G04 #@! TO.C,MX315*
X96837500Y-63500000D03*
D14*
X91757500Y-63500000D03*
X101917500Y-63500000D03*
G04 #@! TD*
D13*
G04 #@! TO.C,MX314*
X77787500Y-63500000D03*
D14*
X72707500Y-63500000D03*
X82867500Y-63500000D03*
G04 #@! TD*
D13*
G04 #@! TO.C,MX305*
X58737500Y-63500000D03*
D14*
X53657500Y-63500000D03*
X63817500Y-63500000D03*
G04 #@! TD*
D13*
G04 #@! TO.C,MX304*
X32543750Y-63500000D03*
D14*
X27463750Y-63500000D03*
X37623750Y-63500000D03*
G04 #@! TD*
D13*
G04 #@! TO.C,MX283*
X354012500Y-44450000D03*
D14*
X348932500Y-44450000D03*
X359092500Y-44450000D03*
G04 #@! TD*
D13*
G04 #@! TO.C,MX282*
X334962500Y-44450000D03*
D14*
X329882500Y-44450000D03*
X340042500Y-44450000D03*
G04 #@! TD*
D13*
G04 #@! TO.C,MX273*
X315912500Y-44450000D03*
D14*
X310832500Y-44450000D03*
X320992500Y-44450000D03*
G04 #@! TD*
D13*
G04 #@! TO.C,MX272*
X296862500Y-44450000D03*
D14*
X291782500Y-44450000D03*
X301942500Y-44450000D03*
G04 #@! TD*
D13*
G04 #@! TO.C,MX262*
X263525000Y-44450000D03*
D14*
X258445000Y-44450000D03*
X268605000Y-44450000D03*
G04 #@! TD*
D13*
G04 #@! TO.C,MX252*
X220662500Y-44450000D03*
D14*
X215582500Y-44450000D03*
X225742500Y-44450000D03*
G04 #@! TD*
D13*
G04 #@! TO.C,MX243*
X201612500Y-44450000D03*
D14*
X196532500Y-44450000D03*
X206692500Y-44450000D03*
G04 #@! TD*
D13*
G04 #@! TO.C,MX242*
X182562500Y-44450000D03*
D14*
X177482500Y-44450000D03*
X187642500Y-44450000D03*
G04 #@! TD*
D13*
G04 #@! TO.C,MX233*
X163512500Y-44450000D03*
D14*
X158432500Y-44450000D03*
X168592500Y-44450000D03*
G04 #@! TD*
D13*
G04 #@! TO.C,MX232*
X144462500Y-44450000D03*
D14*
X139382500Y-44450000D03*
X149542500Y-44450000D03*
G04 #@! TD*
D13*
G04 #@! TO.C,MX223*
X125412500Y-44450000D03*
D14*
X120332500Y-44450000D03*
X130492500Y-44450000D03*
G04 #@! TD*
D13*
G04 #@! TO.C,MX222*
X106362500Y-44450000D03*
D14*
X101282500Y-44450000D03*
X111442500Y-44450000D03*
G04 #@! TD*
D13*
G04 #@! TO.C,MX213*
X87312500Y-44450000D03*
D14*
X82232500Y-44450000D03*
X92392500Y-44450000D03*
G04 #@! TD*
D13*
G04 #@! TO.C,MX212*
X68262500Y-44450000D03*
D14*
X63182500Y-44450000D03*
X73342500Y-44450000D03*
G04 #@! TD*
D13*
G04 #@! TO.C,MX203*
X49212500Y-44450000D03*
D14*
X44132500Y-44450000D03*
X54292500Y-44450000D03*
G04 #@! TD*
D13*
G04 #@! TO.C,MX202*
X27781250Y-44450000D03*
D14*
X22701250Y-44450000D03*
X32861250Y-44450000D03*
G04 #@! TD*
D13*
G04 #@! TO.C,MX181*
X354012500Y-25400000D03*
D14*
X348932500Y-25400000D03*
X359092500Y-25400000D03*
G04 #@! TD*
D13*
G04 #@! TO.C,MX180*
X334962500Y-25400000D03*
D14*
X329882500Y-25400000D03*
X340042500Y-25400000D03*
G04 #@! TD*
D13*
G04 #@! TO.C,MX171*
X315912500Y-25400000D03*
D14*
X310832500Y-25400000D03*
X320992500Y-25400000D03*
G04 #@! TD*
D13*
G04 #@! TO.C,MX170*
X296862500Y-25400000D03*
D14*
X291782500Y-25400000D03*
X301942500Y-25400000D03*
G04 #@! TD*
D13*
G04 #@! TO.C,MX160*
X261143750Y-25400000D03*
D14*
X256063750Y-25400000D03*
X266223750Y-25400000D03*
G04 #@! TD*
D13*
G04 #@! TO.C,MX151*
X234950000Y-25400000D03*
D14*
X229870000Y-25400000D03*
X240030000Y-25400000D03*
G04 #@! TD*
D13*
G04 #@! TO.C,MX150*
X215900000Y-25400000D03*
D14*
X210820000Y-25400000D03*
X220980000Y-25400000D03*
G04 #@! TD*
D13*
G04 #@! TO.C,MX141*
X196850000Y-25400000D03*
D14*
X191770000Y-25400000D03*
X201930000Y-25400000D03*
G04 #@! TD*
D13*
G04 #@! TO.C,MX140*
X177800000Y-25400000D03*
D14*
X172720000Y-25400000D03*
X182880000Y-25400000D03*
G04 #@! TD*
D13*
G04 #@! TO.C,MX131*
X158750000Y-25400000D03*
D14*
X153670000Y-25400000D03*
X163830000Y-25400000D03*
G04 #@! TD*
D13*
G04 #@! TO.C,MX130*
X139700000Y-25400000D03*
D14*
X134620000Y-25400000D03*
X144780000Y-25400000D03*
G04 #@! TD*
D13*
G04 #@! TO.C,MX121*
X120650000Y-25400000D03*
D14*
X115570000Y-25400000D03*
X125730000Y-25400000D03*
G04 #@! TD*
D13*
G04 #@! TO.C,MX120*
X101600000Y-25400000D03*
D14*
X96520000Y-25400000D03*
X106680000Y-25400000D03*
G04 #@! TD*
D13*
G04 #@! TO.C,MX111*
X82550000Y-25400000D03*
D14*
X77470000Y-25400000D03*
X87630000Y-25400000D03*
G04 #@! TD*
D13*
G04 #@! TO.C,MX110*
X63500000Y-25400000D03*
D14*
X58420000Y-25400000D03*
X68580000Y-25400000D03*
G04 #@! TD*
D13*
G04 #@! TO.C,MX101*
X44450000Y-25400000D03*
D14*
X39370000Y-25400000D03*
X49530000Y-25400000D03*
G04 #@! TD*
D13*
G04 #@! TO.C,MX100*
X25400000Y-25400000D03*
D14*
X20320000Y-25400000D03*
X30480000Y-25400000D03*
G04 #@! TD*
M02*
