G04 #@! TF.GenerationSoftware,KiCad,Pcbnew,7.0.1*
G04 #@! TF.CreationDate,2023-04-12T11:01:51-04:00*
G04 #@! TF.ProjectId,kastenwagen-1840-chunky-plate,6b617374-656e-4776-9167-656e2d313834,rev?*
G04 #@! TF.SameCoordinates,Original*
G04 #@! TF.FileFunction,Profile,NP*
%FSLAX46Y46*%
G04 Gerber Fmt 4.6, Leading zero omitted, Abs format (unit mm)*
G04 Created by KiCad (PCBNEW 7.0.1) date 2023-04-12 11:01:51*
%MOMM*%
%LPD*%
G01*
G04 APERTURE LIST*
G04 #@! TA.AperFunction,Profile*
%ADD10C,0.200000*%
G04 #@! TD*
G04 #@! TA.AperFunction,Profile*
%ADD11C,0.150000*%
G04 #@! TD*
G04 APERTURE END LIST*
D10*
X280700400Y-37236400D02*
G75*
G03*
X280700400Y-37236400I-500000J0D01*
G01*
X280700400Y-27736400D02*
G75*
G03*
X280700400Y-27736400I-500000J0D01*
G01*
X280700400Y-18236400D02*
G75*
G03*
X280700400Y-18236400I-500000J0D01*
G01*
D11*
X366650000Y-9500000D02*
G75*
G03*
X366650000Y-9500000I-1150000J0D01*
G01*
X366650000Y-94000000D02*
G75*
G03*
X366650000Y-94000000I-1150000J0D01*
G01*
X15150000Y-94000000D02*
G75*
G03*
X15150000Y-94000000I-1150000J0D01*
G01*
X176900000Y-95500000D02*
G75*
G03*
X176900000Y-95500000I-1150000J0D01*
G01*
D10*
X9000000Y-94000000D02*
G75*
G03*
X14000000Y-99000000I5000000J0D01*
G01*
X14000000Y-4500000D02*
G75*
G03*
X9000000Y-9500000I0J-5000000D01*
G01*
X14000000Y-99000000D02*
X365500000Y-99000000D01*
X370500000Y-9500000D02*
G75*
G03*
X365500000Y-4500000I-5000000J0D01*
G01*
X365500000Y-99000000D02*
G75*
G03*
X370500000Y-94000000I0J5000000D01*
G01*
D11*
X15150000Y-9500000D02*
G75*
G03*
X15150000Y-9500000I-1150000J0D01*
G01*
D10*
X14000000Y-4500000D02*
X365500000Y-4500000D01*
D11*
X176900000Y-8000000D02*
G75*
G03*
X176900000Y-8000000I-1150000J0D01*
G01*
D10*
X9000000Y-94000000D02*
X9000000Y-9500000D01*
X370500000Y-94000000D02*
X370500000Y-9500000D01*
G04 #@! TO.C,REF\u002A\u002A*
X268143750Y-28425000D02*
X268143750Y-41425000D01*
X267643750Y-41925000D02*
X263943750Y-41925000D01*
X267643750Y-27925000D02*
X263943750Y-27925000D01*
X266843750Y-43988000D02*
X266843750Y-49738000D01*
X266843750Y-25862000D02*
X266843750Y-20112000D01*
X266343750Y-43488000D02*
X263943750Y-43488000D01*
X266343750Y-26362000D02*
X263943750Y-26362000D01*
X263543750Y-50238000D02*
X266343750Y-50238000D01*
X263543750Y-19612000D02*
X266343750Y-19612000D01*
X263443750Y-50575000D02*
X263443750Y-50338000D01*
X263443750Y-42988000D02*
X263443750Y-42425000D01*
X263443750Y-26862000D02*
X263443750Y-27425000D01*
X263443750Y-19512000D02*
X263443750Y-19275000D01*
X260643750Y-51075000D02*
X262943750Y-51075000D01*
X260643750Y-18775000D02*
X262943750Y-18775000D01*
X260143750Y-50338000D02*
X260143750Y-50575000D01*
X260143750Y-19275000D02*
X260143750Y-19512000D01*
X258843750Y-42988000D02*
X258843750Y-42425000D01*
X258843750Y-26862000D02*
X258843750Y-27425000D01*
X258343750Y-43488000D02*
X255043750Y-43488000D01*
X258343750Y-41925000D02*
X254643750Y-41925000D01*
X258343750Y-27925000D02*
X254643750Y-27925000D01*
X258343750Y-26362000D02*
X255043750Y-26362000D01*
X255043750Y-50238000D02*
X260043750Y-50238000D01*
X255043750Y-19612000D02*
X260043750Y-19612000D01*
X254543750Y-49738000D02*
X254543750Y-48900000D01*
X254543750Y-44825000D02*
X254543750Y-43988000D01*
X254543750Y-25862000D02*
X254543750Y-25025000D01*
X254543750Y-20950000D02*
X254543750Y-20112000D01*
X254143750Y-41425000D02*
X254143750Y-28425000D01*
X253868750Y-48400000D02*
X254043750Y-48400000D01*
X253868750Y-45325000D02*
X254043750Y-45325000D01*
X253868750Y-24525000D02*
X254043750Y-24525000D01*
X253868750Y-21450000D02*
X254043750Y-21450000D01*
X253368750Y-47900000D02*
X253368750Y-45825000D01*
X253368750Y-24025000D02*
X253368750Y-21950000D01*
X267643750Y-41925000D02*
G75*
G03*
X268143750Y-41425000I-1J500001D01*
G01*
X268143750Y-28425000D02*
G75*
G03*
X267643750Y-27925000I-500001J-1D01*
G01*
X266343750Y-50238000D02*
G75*
G03*
X266843750Y-49738000I-1J500001D01*
G01*
X266343750Y-26362000D02*
G75*
G03*
X266843750Y-25862000I-1J500001D01*
G01*
X266843750Y-43988000D02*
G75*
G03*
X266343750Y-43488000I-500001J-1D01*
G01*
X266843750Y-20112000D02*
G75*
G03*
X266343750Y-19612000I-500001J-1D01*
G01*
X263443750Y-42988000D02*
G75*
G03*
X263943750Y-43488000I500001J1D01*
G01*
X263443750Y-27425000D02*
G75*
G03*
X263943750Y-27925000I500001J1D01*
G01*
X263443750Y-19512000D02*
G75*
G03*
X263543750Y-19612000I99999J-1D01*
G01*
X262943750Y-51075000D02*
G75*
G03*
X263443750Y-50575000I-1J500001D01*
G01*
X263543750Y-50238000D02*
G75*
G03*
X263443750Y-50338000I-1J-99999D01*
G01*
X263943750Y-41925000D02*
G75*
G03*
X263443750Y-42425000I1J-500001D01*
G01*
X263943750Y-26362000D02*
G75*
G03*
X263443750Y-26862000I1J-500001D01*
G01*
X263443750Y-19275000D02*
G75*
G03*
X262943750Y-18775000I-500001J-1D01*
G01*
X260143750Y-50575000D02*
G75*
G03*
X260643750Y-51075000I500000J0D01*
G01*
X260043750Y-19612000D02*
G75*
G03*
X260143750Y-19512000I0J100000D01*
G01*
X260643750Y-18775000D02*
G75*
G03*
X260143750Y-19275000I0J-500000D01*
G01*
X260143750Y-50338000D02*
G75*
G03*
X260043750Y-50238000I-100000J0D01*
G01*
X258343750Y-43488000D02*
G75*
G03*
X258843750Y-42988000I0J500000D01*
G01*
X258343750Y-27925000D02*
G75*
G03*
X258843750Y-27425000I0J500000D01*
G01*
X258843750Y-42425000D02*
G75*
G03*
X258343750Y-41925000I-500000J0D01*
G01*
X258843750Y-26862000D02*
G75*
G03*
X258343750Y-26362000I-500000J0D01*
G01*
X254543750Y-49738000D02*
G75*
G03*
X255043750Y-50238000I500000J0D01*
G01*
X254543750Y-25862000D02*
G75*
G03*
X255043750Y-26362000I500000J0D01*
G01*
X254143750Y-41425000D02*
G75*
G03*
X254643750Y-41925000I500000J0D01*
G01*
X254043750Y-45325000D02*
G75*
G03*
X254543750Y-44825000I0J500000D01*
G01*
X255043750Y-43488000D02*
G75*
G03*
X254543750Y-43988000I0J-500000D01*
G01*
X254043750Y-21450000D02*
G75*
G03*
X254543750Y-20950000I0J500000D01*
G01*
X255043750Y-19612000D02*
G75*
G03*
X254543750Y-20112000I0J-500000D01*
G01*
X254643750Y-27925000D02*
G75*
G03*
X254143750Y-28425000I0J-500000D01*
G01*
X254543750Y-48900000D02*
G75*
G03*
X254043750Y-48400000I-500000J0D01*
G01*
X254543750Y-25025000D02*
G75*
G03*
X254043750Y-24525000I-500000J0D01*
G01*
X253368750Y-47900000D02*
G75*
G03*
X253868750Y-48400000I500000J0D01*
G01*
X253368750Y-24025000D02*
G75*
G03*
X253868750Y-24525000I500000J0D01*
G01*
X253868750Y-45325000D02*
G75*
G03*
X253368750Y-45825000I0J-500000D01*
G01*
X253868750Y-21450000D02*
G75*
G03*
X253368750Y-21950000I0J-500000D01*
G01*
X18400000Y-18900000D02*
X18400000Y-31900000D01*
X18900000Y-18400000D02*
X31900000Y-18400000D01*
X31900000Y-32400000D02*
X18900000Y-32400000D01*
X32400000Y-31900000D02*
X32400000Y-18900000D01*
X18900000Y-18400000D02*
G75*
G03*
X18400000Y-18900000I1J-500001D01*
G01*
X18400000Y-31900000D02*
G75*
G03*
X18900000Y-32400000I500001J1D01*
G01*
X32400000Y-18900000D02*
G75*
G03*
X31900000Y-18400000I-500000J0D01*
G01*
X31900000Y-32400000D02*
G75*
G03*
X32400000Y-31900000I0J500000D01*
G01*
X37450000Y-18900000D02*
X37450000Y-31900000D01*
X37950000Y-18400000D02*
X50950000Y-18400000D01*
X50950000Y-32400000D02*
X37950000Y-32400000D01*
X51450000Y-31900000D02*
X51450000Y-18900000D01*
X37950000Y-18400000D02*
G75*
G03*
X37450000Y-18900000I1J-500001D01*
G01*
X37450000Y-31900000D02*
G75*
G03*
X37950000Y-32400000I500001J1D01*
G01*
X51450000Y-18900000D02*
G75*
G03*
X50950000Y-18400000I-500000J0D01*
G01*
X50950000Y-32400000D02*
G75*
G03*
X51450000Y-31900000I0J500000D01*
G01*
X56500000Y-18900000D02*
X56500000Y-31900000D01*
X57000000Y-18400000D02*
X70000000Y-18400000D01*
X70000000Y-32400000D02*
X57000000Y-32400000D01*
X70500000Y-31900000D02*
X70500000Y-18900000D01*
X57000000Y-18400000D02*
G75*
G03*
X56500000Y-18900000I1J-500001D01*
G01*
X56500000Y-31900000D02*
G75*
G03*
X57000000Y-32400000I500001J1D01*
G01*
X70500000Y-18900000D02*
G75*
G03*
X70000000Y-18400000I-500000J0D01*
G01*
X70000000Y-32400000D02*
G75*
G03*
X70500000Y-31900000I0J500000D01*
G01*
X75550000Y-18900000D02*
X75550000Y-31900000D01*
X76050000Y-18400000D02*
X89050000Y-18400000D01*
X89050000Y-32400000D02*
X76050000Y-32400000D01*
X89550000Y-31900000D02*
X89550000Y-18900000D01*
X76050000Y-18400000D02*
G75*
G03*
X75550000Y-18900000I1J-500001D01*
G01*
X75550000Y-31900000D02*
G75*
G03*
X76050000Y-32400000I500001J1D01*
G01*
X89550000Y-18900000D02*
G75*
G03*
X89050000Y-18400000I-500000J0D01*
G01*
X89050000Y-32400000D02*
G75*
G03*
X89550000Y-31900000I0J500000D01*
G01*
X170800000Y-18900000D02*
X170800000Y-31900000D01*
X171300000Y-18400000D02*
X184300000Y-18400000D01*
X184300000Y-32400000D02*
X171300000Y-32400000D01*
X184800000Y-31900000D02*
X184800000Y-18900000D01*
X171300000Y-18400000D02*
G75*
G03*
X170800000Y-18900000I1J-500001D01*
G01*
X170800000Y-31900000D02*
G75*
G03*
X171300000Y-32400000I500001J1D01*
G01*
X184800000Y-18900000D02*
G75*
G03*
X184300000Y-18400000I-500000J0D01*
G01*
X184300000Y-32400000D02*
G75*
G03*
X184800000Y-31900000I0J500000D01*
G01*
X208900000Y-18900000D02*
X208900000Y-31900000D01*
X209400000Y-18400000D02*
X222400000Y-18400000D01*
X222400000Y-32400000D02*
X209400000Y-32400000D01*
X222900000Y-31900000D02*
X222900000Y-18900000D01*
X209400000Y-18400000D02*
G75*
G03*
X208900000Y-18900000I1J-500001D01*
G01*
X208900000Y-31900000D02*
G75*
G03*
X209400000Y-32400000I500001J1D01*
G01*
X222900000Y-18900000D02*
G75*
G03*
X222400000Y-18400000I-500000J0D01*
G01*
X222400000Y-32400000D02*
G75*
G03*
X222900000Y-31900000I0J500000D01*
G01*
X227950000Y-18900000D02*
X227950000Y-31900000D01*
X228450000Y-18400000D02*
X241450000Y-18400000D01*
X241450000Y-32400000D02*
X228450000Y-32400000D01*
X241950000Y-31900000D02*
X241950000Y-18900000D01*
X228450000Y-18400000D02*
G75*
G03*
X227950000Y-18900000I1J-500001D01*
G01*
X227950000Y-31900000D02*
G75*
G03*
X228450000Y-32400000I500001J1D01*
G01*
X241950000Y-18900000D02*
G75*
G03*
X241450000Y-18400000I-500000J0D01*
G01*
X241450000Y-32400000D02*
G75*
G03*
X241950000Y-31900000I0J500000D01*
G01*
X189850000Y-18900000D02*
X189850000Y-31900000D01*
X190350000Y-18400000D02*
X203350000Y-18400000D01*
X203350000Y-32400000D02*
X190350000Y-32400000D01*
X203850000Y-31900000D02*
X203850000Y-18900000D01*
X190350000Y-18400000D02*
G75*
G03*
X189850000Y-18900000I1J-500001D01*
G01*
X189850000Y-31900000D02*
G75*
G03*
X190350000Y-32400000I500001J1D01*
G01*
X203850000Y-18900000D02*
G75*
G03*
X203350000Y-18400000I-500000J0D01*
G01*
X203350000Y-32400000D02*
G75*
G03*
X203850000Y-31900000I0J500000D01*
G01*
X61262500Y-37950000D02*
X61262500Y-50950000D01*
X61762500Y-37450000D02*
X74762500Y-37450000D01*
X74762500Y-51450000D02*
X61762500Y-51450000D01*
X75262500Y-50950000D02*
X75262500Y-37950000D01*
X61762500Y-37450000D02*
G75*
G03*
X61262500Y-37950000I1J-500001D01*
G01*
X61262500Y-50950000D02*
G75*
G03*
X61762500Y-51450000I500001J1D01*
G01*
X75262500Y-37950000D02*
G75*
G03*
X74762500Y-37450000I-500000J0D01*
G01*
X74762500Y-51450000D02*
G75*
G03*
X75262500Y-50950000I0J500000D01*
G01*
X80312500Y-37950000D02*
X80312500Y-50950000D01*
X80812500Y-37450000D02*
X93812500Y-37450000D01*
X93812500Y-51450000D02*
X80812500Y-51450000D01*
X94312500Y-50950000D02*
X94312500Y-37950000D01*
X80812500Y-37450000D02*
G75*
G03*
X80312500Y-37950000I1J-500001D01*
G01*
X80312500Y-50950000D02*
G75*
G03*
X80812500Y-51450000I500001J1D01*
G01*
X94312500Y-37950000D02*
G75*
G03*
X93812500Y-37450000I-500000J0D01*
G01*
X93812500Y-51450000D02*
G75*
G03*
X94312500Y-50950000I0J500000D01*
G01*
X99362500Y-37950000D02*
X99362500Y-50950000D01*
X99862500Y-37450000D02*
X112862500Y-37450000D01*
X112862500Y-51450000D02*
X99862500Y-51450000D01*
X113362500Y-50950000D02*
X113362500Y-37950000D01*
X99862500Y-37450000D02*
G75*
G03*
X99362500Y-37950000I1J-500001D01*
G01*
X99362500Y-50950000D02*
G75*
G03*
X99862500Y-51450000I500001J1D01*
G01*
X113362500Y-37950000D02*
G75*
G03*
X112862500Y-37450000I-500000J0D01*
G01*
X112862500Y-51450000D02*
G75*
G03*
X113362500Y-50950000I0J500000D01*
G01*
X137462500Y-37950000D02*
X137462500Y-50950000D01*
X137962500Y-37450000D02*
X150962500Y-37450000D01*
X150962500Y-51450000D02*
X137962500Y-51450000D01*
X151462500Y-50950000D02*
X151462500Y-37950000D01*
X137962500Y-37450000D02*
G75*
G03*
X137462500Y-37950000I1J-500001D01*
G01*
X137462500Y-50950000D02*
G75*
G03*
X137962500Y-51450000I500001J1D01*
G01*
X151462500Y-37950000D02*
G75*
G03*
X150962500Y-37450000I-500000J0D01*
G01*
X150962500Y-51450000D02*
G75*
G03*
X151462500Y-50950000I0J500000D01*
G01*
X118412500Y-37950000D02*
X118412500Y-50950000D01*
X118912500Y-37450000D02*
X131912500Y-37450000D01*
X131912500Y-51450000D02*
X118912500Y-51450000D01*
X132412500Y-50950000D02*
X132412500Y-37950000D01*
X118912500Y-37450000D02*
G75*
G03*
X118412500Y-37950000I1J-500001D01*
G01*
X118412500Y-50950000D02*
G75*
G03*
X118912500Y-51450000I500001J1D01*
G01*
X132412500Y-37950000D02*
G75*
G03*
X131912500Y-37450000I-500000J0D01*
G01*
X131912500Y-51450000D02*
G75*
G03*
X132412500Y-50950000I0J500000D01*
G01*
X42212500Y-37950000D02*
X42212500Y-50950000D01*
X42712500Y-37450000D02*
X55712500Y-37450000D01*
X55712500Y-51450000D02*
X42712500Y-51450000D01*
X56212500Y-50950000D02*
X56212500Y-37950000D01*
X42712500Y-37450000D02*
G75*
G03*
X42212500Y-37950000I1J-500001D01*
G01*
X42212500Y-50950000D02*
G75*
G03*
X42712500Y-51450000I500001J1D01*
G01*
X56212500Y-37950000D02*
G75*
G03*
X55712500Y-37450000I-500000J0D01*
G01*
X55712500Y-51450000D02*
G75*
G03*
X56212500Y-50950000I0J500000D01*
G01*
X156512500Y-37950000D02*
X156512500Y-50950000D01*
X157012500Y-37450000D02*
X170012500Y-37450000D01*
X170012500Y-51450000D02*
X157012500Y-51450000D01*
X170512500Y-50950000D02*
X170512500Y-37950000D01*
X157012500Y-37450000D02*
G75*
G03*
X156512500Y-37950000I1J-500001D01*
G01*
X156512500Y-50950000D02*
G75*
G03*
X157012500Y-51450000I500001J1D01*
G01*
X170512500Y-37950000D02*
G75*
G03*
X170012500Y-37450000I-500000J0D01*
G01*
X170012500Y-51450000D02*
G75*
G03*
X170512500Y-50950000I0J500000D01*
G01*
X232712500Y-37950000D02*
X232712500Y-50950000D01*
X233212500Y-37450000D02*
X246212500Y-37450000D01*
X246212500Y-51450000D02*
X233212500Y-51450000D01*
X246712500Y-50950000D02*
X246712500Y-37950000D01*
X233212500Y-37450000D02*
G75*
G03*
X232712500Y-37950000I1J-500001D01*
G01*
X232712500Y-50950000D02*
G75*
G03*
X233212500Y-51450000I500001J1D01*
G01*
X246712500Y-37950000D02*
G75*
G03*
X246212500Y-37450000I-500000J0D01*
G01*
X246212500Y-51450000D02*
G75*
G03*
X246712500Y-50950000I0J500000D01*
G01*
X194612500Y-37950000D02*
X194612500Y-50950000D01*
X195112500Y-37450000D02*
X208112500Y-37450000D01*
X208112500Y-51450000D02*
X195112500Y-51450000D01*
X208612500Y-50950000D02*
X208612500Y-37950000D01*
X195112500Y-37450000D02*
G75*
G03*
X194612500Y-37950000I1J-500001D01*
G01*
X194612500Y-50950000D02*
G75*
G03*
X195112500Y-51450000I500001J1D01*
G01*
X208612500Y-37950000D02*
G75*
G03*
X208112500Y-37450000I-500000J0D01*
G01*
X208112500Y-51450000D02*
G75*
G03*
X208612500Y-50950000I0J500000D01*
G01*
X175562500Y-37950000D02*
X175562500Y-50950000D01*
X176062500Y-37450000D02*
X189062500Y-37450000D01*
X189062500Y-51450000D02*
X176062500Y-51450000D01*
X189562500Y-50950000D02*
X189562500Y-37950000D01*
X176062500Y-37450000D02*
G75*
G03*
X175562500Y-37950000I1J-500001D01*
G01*
X175562500Y-50950000D02*
G75*
G03*
X176062500Y-51450000I500001J1D01*
G01*
X189562500Y-37950000D02*
G75*
G03*
X189062500Y-37450000I-500000J0D01*
G01*
X189062500Y-51450000D02*
G75*
G03*
X189562500Y-50950000I0J500000D01*
G01*
X213662500Y-37950000D02*
X213662500Y-50950000D01*
X214162500Y-37450000D02*
X227162500Y-37450000D01*
X227162500Y-51450000D02*
X214162500Y-51450000D01*
X227662500Y-50950000D02*
X227662500Y-37950000D01*
X214162500Y-37450000D02*
G75*
G03*
X213662500Y-37950000I1J-500001D01*
G01*
X213662500Y-50950000D02*
G75*
G03*
X214162500Y-51450000I500001J1D01*
G01*
X227662500Y-37950000D02*
G75*
G03*
X227162500Y-37450000I-500000J0D01*
G01*
X227162500Y-51450000D02*
G75*
G03*
X227662500Y-50950000I0J500000D01*
G01*
X223187500Y-57000000D02*
X223187500Y-70000000D01*
X223687500Y-56500000D02*
X236687500Y-56500000D01*
X236687500Y-70500000D02*
X223687500Y-70500000D01*
X237187500Y-70000000D02*
X237187500Y-57000000D01*
X223687500Y-56500000D02*
G75*
G03*
X223187500Y-57000000I1J-500001D01*
G01*
X223187500Y-70000000D02*
G75*
G03*
X223687500Y-70500000I500001J1D01*
G01*
X237187500Y-57000000D02*
G75*
G03*
X236687500Y-56500000I-500000J0D01*
G01*
X236687500Y-70500000D02*
G75*
G03*
X237187500Y-70000000I0J500000D01*
G01*
X51737500Y-57000000D02*
X51737500Y-70000000D01*
X52237500Y-56500000D02*
X65237500Y-56500000D01*
X65237500Y-70500000D02*
X52237500Y-70500000D01*
X65737500Y-70000000D02*
X65737500Y-57000000D01*
X52237500Y-56500000D02*
G75*
G03*
X51737500Y-57000000I1J-500001D01*
G01*
X51737500Y-70000000D02*
G75*
G03*
X52237500Y-70500000I500001J1D01*
G01*
X65737500Y-57000000D02*
G75*
G03*
X65237500Y-56500000I-500000J0D01*
G01*
X65237500Y-70500000D02*
G75*
G03*
X65737500Y-70000000I0J500000D01*
G01*
X185087500Y-57000000D02*
X185087500Y-70000000D01*
X185587500Y-56500000D02*
X198587500Y-56500000D01*
X198587500Y-70500000D02*
X185587500Y-70500000D01*
X199087500Y-70000000D02*
X199087500Y-57000000D01*
X185587500Y-56500000D02*
G75*
G03*
X185087500Y-57000000I1J-500001D01*
G01*
X185087500Y-70000000D02*
G75*
G03*
X185587500Y-70500000I500001J1D01*
G01*
X199087500Y-57000000D02*
G75*
G03*
X198587500Y-56500000I-500000J0D01*
G01*
X198587500Y-70500000D02*
G75*
G03*
X199087500Y-70000000I0J500000D01*
G01*
X204137500Y-57000000D02*
X204137500Y-70000000D01*
X204637500Y-56500000D02*
X217637500Y-56500000D01*
X217637500Y-70500000D02*
X204637500Y-70500000D01*
X218137500Y-70000000D02*
X218137500Y-57000000D01*
X204637500Y-56500000D02*
G75*
G03*
X204137500Y-57000000I1J-500001D01*
G01*
X204137500Y-70000000D02*
G75*
G03*
X204637500Y-70500000I500001J1D01*
G01*
X218137500Y-57000000D02*
G75*
G03*
X217637500Y-56500000I-500000J0D01*
G01*
X217637500Y-70500000D02*
G75*
G03*
X218137500Y-70000000I0J500000D01*
G01*
X166037500Y-57000000D02*
X166037500Y-70000000D01*
X166537500Y-56500000D02*
X179537500Y-56500000D01*
X179537500Y-70500000D02*
X166537500Y-70500000D01*
X180037500Y-70000000D02*
X180037500Y-57000000D01*
X166537500Y-56500000D02*
G75*
G03*
X166037500Y-57000000I1J-500001D01*
G01*
X166037500Y-70000000D02*
G75*
G03*
X166537500Y-70500000I500001J1D01*
G01*
X180037500Y-57000000D02*
G75*
G03*
X179537500Y-56500000I-500000J0D01*
G01*
X179537500Y-70500000D02*
G75*
G03*
X180037500Y-70000000I0J500000D01*
G01*
X127937500Y-57000000D02*
X127937500Y-70000000D01*
X128437500Y-56500000D02*
X141437500Y-56500000D01*
X141437500Y-70500000D02*
X128437500Y-70500000D01*
X141937500Y-70000000D02*
X141937500Y-57000000D01*
X128437500Y-56500000D02*
G75*
G03*
X127937500Y-57000000I1J-500001D01*
G01*
X127937500Y-70000000D02*
G75*
G03*
X128437500Y-70500000I500001J1D01*
G01*
X141937500Y-57000000D02*
G75*
G03*
X141437500Y-56500000I-500000J0D01*
G01*
X141437500Y-70500000D02*
G75*
G03*
X141937500Y-70000000I0J500000D01*
G01*
X108887500Y-57000000D02*
X108887500Y-70000000D01*
X109387500Y-56500000D02*
X122387500Y-56500000D01*
X122387500Y-70500000D02*
X109387500Y-70500000D01*
X122887500Y-70000000D02*
X122887500Y-57000000D01*
X109387500Y-56500000D02*
G75*
G03*
X108887500Y-57000000I1J-500001D01*
G01*
X108887500Y-70000000D02*
G75*
G03*
X109387500Y-70500000I500001J1D01*
G01*
X122887500Y-57000000D02*
G75*
G03*
X122387500Y-56500000I-500000J0D01*
G01*
X122387500Y-70500000D02*
G75*
G03*
X122887500Y-70000000I0J500000D01*
G01*
X146987500Y-57000000D02*
X146987500Y-70000000D01*
X147487500Y-56500000D02*
X160487500Y-56500000D01*
X160487500Y-70500000D02*
X147487500Y-70500000D01*
X160987500Y-70000000D02*
X160987500Y-57000000D01*
X147487500Y-56500000D02*
G75*
G03*
X146987500Y-57000000I1J-500001D01*
G01*
X146987500Y-70000000D02*
G75*
G03*
X147487500Y-70500000I500001J1D01*
G01*
X160987500Y-57000000D02*
G75*
G03*
X160487500Y-56500000I-500000J0D01*
G01*
X160487500Y-70500000D02*
G75*
G03*
X160987500Y-70000000I0J500000D01*
G01*
X70787500Y-57000000D02*
X70787500Y-70000000D01*
X71287500Y-56500000D02*
X84287500Y-56500000D01*
X84287500Y-70500000D02*
X71287500Y-70500000D01*
X84787500Y-70000000D02*
X84787500Y-57000000D01*
X71287500Y-56500000D02*
G75*
G03*
X70787500Y-57000000I1J-500001D01*
G01*
X70787500Y-70000000D02*
G75*
G03*
X71287500Y-70500000I500001J1D01*
G01*
X84787500Y-57000000D02*
G75*
G03*
X84287500Y-56500000I-500000J0D01*
G01*
X84287500Y-70500000D02*
G75*
G03*
X84787500Y-70000000I0J500000D01*
G01*
X89837500Y-57000000D02*
X89837500Y-70000000D01*
X90337500Y-56500000D02*
X103337500Y-56500000D01*
X103337500Y-70500000D02*
X90337500Y-70500000D01*
X103837500Y-70000000D02*
X103837500Y-57000000D01*
X90337500Y-56500000D02*
G75*
G03*
X89837500Y-57000000I1J-500001D01*
G01*
X89837500Y-70000000D02*
G75*
G03*
X90337500Y-70500000I500001J1D01*
G01*
X103837500Y-57000000D02*
G75*
G03*
X103337500Y-56500000I-500000J0D01*
G01*
X103337500Y-70500000D02*
G75*
G03*
X103837500Y-70000000I0J500000D01*
G01*
X19943750Y-57000000D02*
X19943750Y-70000000D01*
X20443750Y-56500000D02*
X21443750Y-56500000D01*
X20443750Y-70500000D02*
X21443750Y-70500000D01*
X21943750Y-57000000D02*
X21943750Y-70000000D01*
X25543750Y-57000000D02*
X25543750Y-70000000D01*
X26043750Y-56500000D02*
X39043750Y-56500000D01*
X39043750Y-70500000D02*
X26043750Y-70500000D01*
X39543750Y-70000000D02*
X39543750Y-57000000D01*
X43143750Y-70000000D02*
X43143750Y-57000000D01*
X44643750Y-56500000D02*
X43643750Y-56500000D01*
X44643750Y-70500000D02*
X43643750Y-70500000D01*
X45143750Y-70000000D02*
X45143750Y-57000000D01*
X20443750Y-56500000D02*
G75*
G03*
X19943750Y-57000000I1J-500001D01*
G01*
X19943750Y-70000000D02*
G75*
G03*
X20443750Y-70500000I500001J1D01*
G01*
X21943750Y-57000000D02*
G75*
G03*
X21443750Y-56500000I-500001J-1D01*
G01*
X21443750Y-70500000D02*
G75*
G03*
X21943750Y-70000000I-1J500001D01*
G01*
X26043750Y-56500000D02*
G75*
G03*
X25543750Y-57000000I1J-500001D01*
G01*
X25543750Y-70000000D02*
G75*
G03*
X26043750Y-70500000I500001J1D01*
G01*
X39543750Y-57000000D02*
G75*
G03*
X39043750Y-56500000I-500000J0D01*
G01*
X39043750Y-70500000D02*
G75*
G03*
X39543750Y-70000000I0J500000D01*
G01*
X43643750Y-56500000D02*
G75*
G03*
X43143750Y-57000000I0J-500000D01*
G01*
X43143750Y-70000000D02*
G75*
G03*
X43643750Y-70500000I500000J0D01*
G01*
X45143750Y-57000000D02*
G75*
G03*
X44643750Y-56500000I-500000J0D01*
G01*
X44643750Y-70500000D02*
G75*
G03*
X45143750Y-70000000I0J500000D01*
G01*
X244618750Y-57000000D02*
X244618750Y-70000000D01*
X245118750Y-56500000D02*
X258118750Y-56500000D01*
X258118750Y-70500000D02*
X245118750Y-70500000D01*
X258618750Y-70000000D02*
X258618750Y-57000000D01*
X245118750Y-56500000D02*
G75*
G03*
X244618750Y-57000000I1J-500001D01*
G01*
X244618750Y-70000000D02*
G75*
G03*
X245118750Y-70500000I500001J1D01*
G01*
X258618750Y-57000000D02*
G75*
G03*
X258118750Y-56500000I-500000J0D01*
G01*
X258118750Y-70500000D02*
G75*
G03*
X258618750Y-70000000I0J500000D01*
G01*
X44593750Y-76050000D02*
X44593750Y-89050000D01*
X45093750Y-75550000D02*
X58093750Y-75550000D01*
X58093750Y-89550000D02*
X45093750Y-89550000D01*
X58593750Y-89050000D02*
X58593750Y-76050000D01*
X45093750Y-75550000D02*
G75*
G03*
X44593750Y-76050000I1J-500001D01*
G01*
X44593750Y-89050000D02*
G75*
G03*
X45093750Y-89550000I500001J1D01*
G01*
X58593750Y-76050000D02*
G75*
G03*
X58093750Y-75550000I-500000J0D01*
G01*
X58093750Y-89550000D02*
G75*
G03*
X58593750Y-89050000I0J500000D01*
G01*
X225568750Y-76050000D02*
X225568750Y-89050000D01*
X226068750Y-75550000D02*
X239068750Y-75550000D01*
X239068750Y-89550000D02*
X226068750Y-89550000D01*
X239568750Y-89050000D02*
X239568750Y-76050000D01*
X226068750Y-75550000D02*
G75*
G03*
X225568750Y-76050000I1J-500001D01*
G01*
X225568750Y-89050000D02*
G75*
G03*
X226068750Y-89550000I500001J1D01*
G01*
X239568750Y-76050000D02*
G75*
G03*
X239068750Y-75550000I-500000J0D01*
G01*
X239068750Y-89550000D02*
G75*
G03*
X239568750Y-89050000I0J500000D01*
G01*
X201756250Y-76050000D02*
X201756250Y-89050000D01*
X202256250Y-75550000D02*
X215256250Y-75550000D01*
X215256250Y-89550000D02*
X202256250Y-89550000D01*
X215756250Y-89050000D02*
X215756250Y-76050000D01*
X202256250Y-75550000D02*
G75*
G03*
X201756250Y-76050000I1J-500001D01*
G01*
X201756250Y-89050000D02*
G75*
G03*
X202256250Y-89550000I500001J1D01*
G01*
X215756250Y-76050000D02*
G75*
G03*
X215256250Y-75550000I-500000J0D01*
G01*
X215256250Y-89550000D02*
G75*
G03*
X215756250Y-89050000I0J500000D01*
G01*
X327962500Y-57000000D02*
X327962500Y-70000000D01*
X328462500Y-56500000D02*
X341462500Y-56500000D01*
X341462500Y-70500000D02*
X328462500Y-70500000D01*
X341962500Y-70000000D02*
X341962500Y-57000000D01*
X328462500Y-56500000D02*
G75*
G03*
X327962500Y-57000000I1J-500001D01*
G01*
X327962500Y-70000000D02*
G75*
G03*
X328462500Y-70500000I500001J1D01*
G01*
X341962500Y-57000000D02*
G75*
G03*
X341462500Y-56500000I-500000J0D01*
G01*
X341462500Y-70500000D02*
G75*
G03*
X341962500Y-70000000I0J500000D01*
G01*
X341962500Y-89050000D02*
X341962500Y-76050000D01*
X341462500Y-89550000D02*
X309412500Y-89550000D01*
X341250500Y-75550000D02*
X341462500Y-75550000D01*
X340250500Y-74550000D02*
X334500500Y-74550000D01*
X317374500Y-75550000D02*
X333500500Y-75550000D01*
X316374500Y-74550000D02*
X310624500Y-74550000D01*
X309412500Y-75550000D02*
X309624500Y-75550000D01*
X308912500Y-76050000D02*
X308912500Y-89050000D01*
X341462500Y-89550000D02*
G75*
G03*
X341962500Y-89050000I-1J500001D01*
G01*
X341962500Y-76050000D02*
G75*
G03*
X341462500Y-75550000I-500001J-1D01*
G01*
X340750500Y-75050000D02*
G75*
G03*
X341250500Y-75550000I500001J1D01*
G01*
X340750500Y-75050000D02*
G75*
G03*
X340250500Y-74550000I-500001J-1D01*
G01*
X334500500Y-74550000D02*
G75*
G03*
X334000500Y-75050000I1J-500001D01*
G01*
X333500500Y-75550000D02*
G75*
G03*
X334000500Y-75050000I-1J500001D01*
G01*
X316874500Y-75050000D02*
G75*
G03*
X317374500Y-75550000I500000J0D01*
G01*
X316874500Y-75050000D02*
G75*
G03*
X316374500Y-74550000I-500000J0D01*
G01*
X310624500Y-74550000D02*
G75*
G03*
X310124500Y-75050000I0J-500000D01*
G01*
X309624500Y-75550000D02*
G75*
G03*
X310124500Y-75050000I0J500000D01*
G01*
X308912500Y-89050000D02*
G75*
G03*
X309412500Y-89550000I500000J0D01*
G01*
X309412500Y-75550000D02*
G75*
G03*
X308912500Y-76050000I0J-500000D01*
G01*
X360512500Y-56500000D02*
X347512500Y-56500000D01*
X361012500Y-57000000D02*
X361012500Y-89050000D01*
X347012500Y-57212000D02*
X347012500Y-57000000D01*
X346012500Y-58212000D02*
X346012500Y-63962000D01*
X347012500Y-81088000D02*
X347012500Y-64962000D01*
X346012500Y-82088000D02*
X346012500Y-87838000D01*
X347012500Y-89050000D02*
X347012500Y-88838000D01*
X347512500Y-89550000D02*
X360512500Y-89550000D01*
X361012500Y-57000000D02*
G75*
G03*
X360512500Y-56500000I-500001J-1D01*
G01*
X347512500Y-56500000D02*
G75*
G03*
X347012500Y-57000000I1J-500001D01*
G01*
X346512500Y-57712000D02*
G75*
G03*
X347012500Y-57212000I-1J500001D01*
G01*
X346512500Y-57712000D02*
G75*
G03*
X346012500Y-58212000I1J-500001D01*
G01*
X346012500Y-63962000D02*
G75*
G03*
X346512500Y-64462000I500001J1D01*
G01*
X347012500Y-64962000D02*
G75*
G03*
X346512500Y-64462000I-500001J-1D01*
G01*
X346512500Y-81588000D02*
G75*
G03*
X347012500Y-81088000I0J500000D01*
G01*
X346512500Y-81588000D02*
G75*
G03*
X346012500Y-82088000I0J-500000D01*
G01*
X346012500Y-87838000D02*
G75*
G03*
X346512500Y-88338000I500000J0D01*
G01*
X347012500Y-88838000D02*
G75*
G03*
X346512500Y-88338000I-500000J0D01*
G01*
X360512500Y-89550000D02*
G75*
G03*
X361012500Y-89050000I0J500000D01*
G01*
X347012500Y-89050000D02*
G75*
G03*
X347512500Y-89550000I500000J0D01*
G01*
X66025000Y-76050000D02*
X66025000Y-89050000D01*
X66525000Y-75550000D02*
X69125000Y-75550000D01*
X75875000Y-74550000D02*
X70125000Y-74550000D01*
X76875000Y-75550000D02*
X79525000Y-75550000D01*
X79525000Y-89550000D02*
X66525000Y-89550000D01*
X80025000Y-89050000D02*
X80025000Y-76050000D01*
X93430750Y-75050000D02*
X93430750Y-88050000D01*
X93930750Y-74550000D02*
X99680750Y-74550000D01*
X93930750Y-88550000D02*
X101243750Y-88550000D01*
X100680750Y-75550000D02*
X116806750Y-75550000D01*
X115243750Y-89550000D02*
X102243750Y-89550000D01*
X116243750Y-88550000D02*
X122675000Y-88550000D01*
X117806750Y-74550000D02*
X123556750Y-74550000D01*
X124556750Y-75550000D02*
X136675000Y-75550000D01*
X136675000Y-89550000D02*
X123675000Y-89550000D01*
X137175000Y-89050000D02*
X137175000Y-76050000D01*
X141055750Y-75050000D02*
X141055750Y-88050000D01*
X141555750Y-74550000D02*
X147305750Y-74550000D01*
X141555750Y-88550000D02*
X148868750Y-88550000D01*
X148305750Y-75550000D02*
X164431750Y-75550000D01*
X162868750Y-89550000D02*
X149868750Y-89550000D01*
X163868750Y-88550000D02*
X171181750Y-88550000D01*
X165431750Y-74550000D02*
X171181750Y-74550000D01*
X171681750Y-75050000D02*
X171681750Y-88050000D01*
X180325000Y-76050000D02*
X180325000Y-89050000D01*
X180825000Y-75550000D02*
X183450000Y-75550000D01*
X184450000Y-74550000D02*
X190200000Y-74550000D01*
X191200000Y-75550000D02*
X193825000Y-75550000D01*
X193825000Y-89550000D02*
X180825000Y-89550000D01*
X194325000Y-89050000D02*
X194325000Y-76050000D01*
X66525000Y-75550000D02*
G75*
G03*
X66025000Y-76050000I1J-500001D01*
G01*
X66025000Y-89050000D02*
G75*
G03*
X66525000Y-89550000I500001J1D01*
G01*
X69125000Y-75550000D02*
G75*
G03*
X69625000Y-75050000I-1J500001D01*
G01*
X70125000Y-74550000D02*
G75*
G03*
X69625000Y-75050000I1J-500001D01*
G01*
X76375000Y-75050000D02*
G75*
G03*
X75875000Y-74550000I-500001J-1D01*
G01*
X76375000Y-75050000D02*
G75*
G03*
X76875000Y-75550000I500001J1D01*
G01*
X80025000Y-76050000D02*
G75*
G03*
X79525000Y-75550000I-500001J-1D01*
G01*
X79525000Y-89550000D02*
G75*
G03*
X80025000Y-89050000I-1J500001D01*
G01*
X93930750Y-74550000D02*
G75*
G03*
X93430750Y-75050000I1J-500001D01*
G01*
X93430750Y-88050000D02*
G75*
G03*
X93930750Y-88550000I500001J1D01*
G01*
X100180750Y-75050000D02*
G75*
G03*
X99680750Y-74550000I-500001J-1D01*
G01*
X100180750Y-75050000D02*
G75*
G03*
X100680750Y-75550000I500001J1D01*
G01*
X101743750Y-89050000D02*
G75*
G03*
X101243750Y-88550000I-500001J-1D01*
G01*
X101743750Y-89050000D02*
G75*
G03*
X102243750Y-89550000I500001J1D01*
G01*
X115243750Y-89550000D02*
G75*
G03*
X115743750Y-89050000I-1J500001D01*
G01*
X116243750Y-88550000D02*
G75*
G03*
X115743750Y-89050000I1J-500001D01*
G01*
X116806750Y-75550000D02*
G75*
G03*
X117306750Y-75050000I-1J500001D01*
G01*
X117806750Y-74550000D02*
G75*
G03*
X117306750Y-75050000I1J-500001D01*
G01*
X123175000Y-89050000D02*
G75*
G03*
X122675000Y-88550000I-500001J-1D01*
G01*
X124056750Y-75050000D02*
G75*
G03*
X123556750Y-74550000I-500001J-1D01*
G01*
X123175000Y-89050000D02*
G75*
G03*
X123675000Y-89550000I500001J1D01*
G01*
X124056750Y-75050000D02*
G75*
G03*
X124556750Y-75550000I500001J1D01*
G01*
X137175000Y-76050000D02*
G75*
G03*
X136675000Y-75550000I-500000J0D01*
G01*
X136675000Y-89550000D02*
G75*
G03*
X137175000Y-89050000I0J500000D01*
G01*
X141555750Y-74549950D02*
G75*
G03*
X141055750Y-75050000I50J-500050D01*
G01*
X141055800Y-88050000D02*
G75*
G03*
X141555750Y-88550000I500000J0D01*
G01*
X147805700Y-75050000D02*
G75*
G03*
X147305750Y-74550000I-500000J0D01*
G01*
X147805800Y-75050000D02*
G75*
G03*
X148305750Y-75550000I500000J0D01*
G01*
X149368700Y-89050000D02*
G75*
G03*
X148868750Y-88550000I-500000J0D01*
G01*
X149368800Y-89050000D02*
G75*
G03*
X149868750Y-89550000I500000J0D01*
G01*
X162868750Y-89550050D02*
G75*
G03*
X163368750Y-89050000I-50J500050D01*
G01*
X163868750Y-88549950D02*
G75*
G03*
X163368750Y-89050000I50J-500050D01*
G01*
X164431750Y-75550050D02*
G75*
G03*
X164931750Y-75050000I-50J500050D01*
G01*
X165431750Y-74549950D02*
G75*
G03*
X164931750Y-75050000I50J-500050D01*
G01*
X171681700Y-75050000D02*
G75*
G03*
X171181750Y-74550000I-500000J0D01*
G01*
X171181750Y-88550050D02*
G75*
G03*
X171681750Y-88050000I-50J500050D01*
G01*
X180825000Y-75550000D02*
G75*
G03*
X180325000Y-76050000I0J-500000D01*
G01*
X180325000Y-89050000D02*
G75*
G03*
X180825000Y-89550000I500000J0D01*
G01*
X183450000Y-75550000D02*
G75*
G03*
X183950000Y-75050000I0J500000D01*
G01*
X184450000Y-74550000D02*
G75*
G03*
X183950000Y-75050000I0J-500000D01*
G01*
X190700000Y-75050000D02*
G75*
G03*
X190200000Y-74550000I-500000J0D01*
G01*
X190700000Y-75050000D02*
G75*
G03*
X191200000Y-75550000I500000J0D01*
G01*
X194325000Y-76050000D02*
G75*
G03*
X193825000Y-75550000I-500000J0D01*
G01*
X193825000Y-89550000D02*
G75*
G03*
X194325000Y-89050000I0J500000D01*
G01*
X308912500Y-57000000D02*
X308912500Y-70000000D01*
X309412500Y-56500000D02*
X322412500Y-56500000D01*
X322412500Y-70500000D02*
X309412500Y-70500000D01*
X322912500Y-70000000D02*
X322912500Y-57000000D01*
X309412500Y-56500000D02*
G75*
G03*
X308912500Y-57000000I1J-500001D01*
G01*
X308912500Y-70000000D02*
G75*
G03*
X309412500Y-70500000I500001J1D01*
G01*
X322912500Y-57000000D02*
G75*
G03*
X322412500Y-56500000I-500000J0D01*
G01*
X322412500Y-70500000D02*
G75*
G03*
X322912500Y-70000000I0J500000D01*
G01*
X113650000Y-18900000D02*
X113650000Y-31900000D01*
X114150000Y-18400000D02*
X127150000Y-18400000D01*
X127150000Y-32400000D02*
X114150000Y-32400000D01*
X127650000Y-31900000D02*
X127650000Y-18900000D01*
X114150000Y-18400000D02*
G75*
G03*
X113650000Y-18900000I1J-500001D01*
G01*
X113650000Y-31900000D02*
G75*
G03*
X114150000Y-32400000I500001J1D01*
G01*
X127650000Y-18900000D02*
G75*
G03*
X127150000Y-18400000I-500000J0D01*
G01*
X127150000Y-32400000D02*
G75*
G03*
X127650000Y-31900000I0J500000D01*
G01*
X94600000Y-18900000D02*
X94600000Y-31900000D01*
X95100000Y-18400000D02*
X108100000Y-18400000D01*
X108100000Y-32400000D02*
X95100000Y-32400000D01*
X108600000Y-31900000D02*
X108600000Y-18900000D01*
X95100000Y-18400000D02*
G75*
G03*
X94600000Y-18900000I1J-500001D01*
G01*
X94600000Y-31900000D02*
G75*
G03*
X95100000Y-32400000I500001J1D01*
G01*
X108600000Y-18900000D02*
G75*
G03*
X108100000Y-18400000I-500000J0D01*
G01*
X108100000Y-32400000D02*
G75*
G03*
X108600000Y-31900000I0J500000D01*
G01*
X347012500Y-18900000D02*
X347012500Y-31900000D01*
X347512500Y-18400000D02*
X360512500Y-18400000D01*
X360512500Y-32400000D02*
X347512500Y-32400000D01*
X361012500Y-31900000D02*
X361012500Y-18900000D01*
X347512500Y-18400000D02*
G75*
G03*
X347012500Y-18900000I1J-500001D01*
G01*
X347012500Y-31900000D02*
G75*
G03*
X347512500Y-32400000I500001J1D01*
G01*
X361012500Y-18900000D02*
G75*
G03*
X360512500Y-18400000I-500000J0D01*
G01*
X360512500Y-32400000D02*
G75*
G03*
X361012500Y-31900000I0J500000D01*
G01*
X151750000Y-18900000D02*
X151750000Y-31900000D01*
X152250000Y-18400000D02*
X165250000Y-18400000D01*
X165250000Y-32400000D02*
X152250000Y-32400000D01*
X165750000Y-31900000D02*
X165750000Y-18900000D01*
X152250000Y-18400000D02*
G75*
G03*
X151750000Y-18900000I1J-500001D01*
G01*
X151750000Y-31900000D02*
G75*
G03*
X152250000Y-32400000I500001J1D01*
G01*
X165750000Y-18900000D02*
G75*
G03*
X165250000Y-18400000I-500000J0D01*
G01*
X165250000Y-32400000D02*
G75*
G03*
X165750000Y-31900000I0J500000D01*
G01*
X20781250Y-76050000D02*
X20781250Y-89050000D01*
X21281250Y-75550000D02*
X34281250Y-75550000D01*
X34281250Y-89550000D02*
X21281250Y-89550000D01*
X34781250Y-89050000D02*
X34781250Y-76050000D01*
X21281250Y-75550000D02*
G75*
G03*
X20781250Y-76050000I1J-500001D01*
G01*
X20781250Y-89050000D02*
G75*
G03*
X21281250Y-89550000I500001J1D01*
G01*
X34781250Y-76050000D02*
G75*
G03*
X34281250Y-75550000I-500000J0D01*
G01*
X34281250Y-89550000D02*
G75*
G03*
X34781250Y-89050000I0J500000D01*
G01*
X287481250Y-78431250D02*
X287481250Y-91431250D01*
X287981250Y-77931250D02*
X300981250Y-77931250D01*
X300981250Y-91931250D02*
X287981250Y-91931250D01*
X301481250Y-91431250D02*
X301481250Y-78431250D01*
X287981250Y-77931250D02*
G75*
G03*
X287481250Y-78431250I1J-500001D01*
G01*
X287481250Y-91431250D02*
G75*
G03*
X287981250Y-91931250I500001J1D01*
G01*
X301481250Y-78431250D02*
G75*
G03*
X300981250Y-77931250I-500000J0D01*
G01*
X300981250Y-91931250D02*
G75*
G03*
X301481250Y-91431250I0J500000D01*
G01*
X308912500Y-37950000D02*
X308912500Y-50950000D01*
X309412500Y-37450000D02*
X322412500Y-37450000D01*
X322412500Y-51450000D02*
X309412500Y-51450000D01*
X322912500Y-50950000D02*
X322912500Y-37950000D01*
X309412500Y-37450000D02*
G75*
G03*
X308912500Y-37950000I1J-500001D01*
G01*
X308912500Y-50950000D02*
G75*
G03*
X309412500Y-51450000I500001J1D01*
G01*
X322912500Y-37950000D02*
G75*
G03*
X322412500Y-37450000I-500000J0D01*
G01*
X322412500Y-51450000D02*
G75*
G03*
X322912500Y-50950000I0J500000D01*
G01*
X249381250Y-78431250D02*
X249381250Y-91431250D01*
X249881250Y-77931250D02*
X262881250Y-77931250D01*
X262881250Y-91931250D02*
X249881250Y-91931250D01*
X263381250Y-91431250D02*
X263381250Y-78431250D01*
X249881250Y-77931250D02*
G75*
G03*
X249381250Y-78431250I1J-500001D01*
G01*
X249381250Y-91431250D02*
G75*
G03*
X249881250Y-91931250I500001J1D01*
G01*
X263381250Y-78431250D02*
G75*
G03*
X262881250Y-77931250I-500000J0D01*
G01*
X262881250Y-91931250D02*
G75*
G03*
X263381250Y-91431250I0J500000D01*
G01*
X308912500Y-18900000D02*
X308912500Y-31900000D01*
X309412500Y-18400000D02*
X322412500Y-18400000D01*
X322412500Y-32400000D02*
X309412500Y-32400000D01*
X322912500Y-31900000D02*
X322912500Y-18900000D01*
X309412500Y-18400000D02*
G75*
G03*
X308912500Y-18900000I1J-500001D01*
G01*
X308912500Y-31900000D02*
G75*
G03*
X309412500Y-32400000I500001J1D01*
G01*
X322912500Y-18900000D02*
G75*
G03*
X322412500Y-18400000I-500000J0D01*
G01*
X322412500Y-32400000D02*
G75*
G03*
X322912500Y-31900000I0J500000D01*
G01*
X268431250Y-78431250D02*
X268431250Y-91431250D01*
X268931250Y-77931250D02*
X281931250Y-77931250D01*
X281931250Y-91931250D02*
X268931250Y-91931250D01*
X282431250Y-91431250D02*
X282431250Y-78431250D01*
X268931250Y-77931250D02*
G75*
G03*
X268431250Y-78431250I1J-500001D01*
G01*
X268431250Y-91431250D02*
G75*
G03*
X268931250Y-91931250I500001J1D01*
G01*
X282431250Y-78431250D02*
G75*
G03*
X281931250Y-77931250I-500000J0D01*
G01*
X281931250Y-91931250D02*
G75*
G03*
X282431250Y-91431250I0J500000D01*
G01*
X268431250Y-59381250D02*
X268431250Y-72381250D01*
X268931250Y-58881250D02*
X281931250Y-58881250D01*
X281931250Y-72881250D02*
X268931250Y-72881250D01*
X282431250Y-72381250D02*
X282431250Y-59381250D01*
X268931250Y-58881250D02*
G75*
G03*
X268431250Y-59381250I1J-500001D01*
G01*
X268431250Y-72381250D02*
G75*
G03*
X268931250Y-72881250I500001J1D01*
G01*
X282431250Y-59381250D02*
G75*
G03*
X281931250Y-58881250I-500000J0D01*
G01*
X281931250Y-72881250D02*
G75*
G03*
X282431250Y-72381250I0J500000D01*
G01*
X347012500Y-37950000D02*
X347012500Y-50950000D01*
X347512500Y-37450000D02*
X360512500Y-37450000D01*
X360512500Y-51450000D02*
X347512500Y-51450000D01*
X361012500Y-50950000D02*
X361012500Y-37950000D01*
X347512500Y-37450000D02*
G75*
G03*
X347012500Y-37950000I1J-500001D01*
G01*
X347012500Y-50950000D02*
G75*
G03*
X347512500Y-51450000I500001J1D01*
G01*
X361012500Y-37950000D02*
G75*
G03*
X360512500Y-37450000I-500000J0D01*
G01*
X360512500Y-51450000D02*
G75*
G03*
X361012500Y-50950000I0J500000D01*
G01*
X327962500Y-18900000D02*
X327962500Y-31900000D01*
X328462500Y-18400000D02*
X341462500Y-18400000D01*
X341462500Y-32400000D02*
X328462500Y-32400000D01*
X341962500Y-31900000D02*
X341962500Y-18900000D01*
X328462500Y-18400000D02*
G75*
G03*
X327962500Y-18900000I1J-500001D01*
G01*
X327962500Y-31900000D02*
G75*
G03*
X328462500Y-32400000I500001J1D01*
G01*
X341962500Y-18900000D02*
G75*
G03*
X341462500Y-18400000I-500000J0D01*
G01*
X341462500Y-32400000D02*
G75*
G03*
X341962500Y-31900000I0J500000D01*
G01*
X327962500Y-37950000D02*
X327962500Y-50950000D01*
X328462500Y-37450000D02*
X341462500Y-37450000D01*
X341462500Y-51450000D02*
X328462500Y-51450000D01*
X341962500Y-50950000D02*
X341962500Y-37950000D01*
X328462500Y-37450000D02*
G75*
G03*
X327962500Y-37950000I1J-500001D01*
G01*
X327962500Y-50950000D02*
G75*
G03*
X328462500Y-51450000I500001J1D01*
G01*
X341962500Y-37950000D02*
G75*
G03*
X341462500Y-37450000I-500000J0D01*
G01*
X341462500Y-51450000D02*
G75*
G03*
X341962500Y-50950000I0J500000D01*
G01*
X289862500Y-57000000D02*
X289862500Y-70000000D01*
X290362500Y-56500000D02*
X303362500Y-56500000D01*
X303362500Y-70500000D02*
X290362500Y-70500000D01*
X303862500Y-70000000D02*
X303862500Y-57000000D01*
X290362500Y-56500000D02*
G75*
G03*
X289862500Y-57000000I1J-500001D01*
G01*
X289862500Y-70000000D02*
G75*
G03*
X290362500Y-70500000I500001J1D01*
G01*
X303862500Y-57000000D02*
G75*
G03*
X303362500Y-56500000I-500000J0D01*
G01*
X303362500Y-70500000D02*
G75*
G03*
X303862500Y-70000000I0J500000D01*
G01*
X289862500Y-37950000D02*
X289862500Y-50950000D01*
X290362500Y-37450000D02*
X303362500Y-37450000D01*
X303362500Y-51450000D02*
X290362500Y-51450000D01*
X303862500Y-50950000D02*
X303862500Y-37950000D01*
X290362500Y-37450000D02*
G75*
G03*
X289862500Y-37950000I1J-500001D01*
G01*
X289862500Y-50950000D02*
G75*
G03*
X290362500Y-51450000I500001J1D01*
G01*
X303862500Y-37950000D02*
G75*
G03*
X303362500Y-37450000I-500000J0D01*
G01*
X303362500Y-51450000D02*
G75*
G03*
X303862500Y-50950000I0J500000D01*
G01*
X20781250Y-37950000D02*
X20781250Y-50950000D01*
X21281250Y-37450000D02*
X34281250Y-37450000D01*
X34281250Y-51450000D02*
X21281250Y-51450000D01*
X34781250Y-50950000D02*
X34781250Y-37950000D01*
X21281250Y-37450000D02*
G75*
G03*
X20781250Y-37950000I1J-500001D01*
G01*
X20781250Y-50950000D02*
G75*
G03*
X21281250Y-51450000I500001J1D01*
G01*
X34781250Y-37950000D02*
G75*
G03*
X34281250Y-37450000I-500000J0D01*
G01*
X34281250Y-51450000D02*
G75*
G03*
X34781250Y-50950000I0J500000D01*
G01*
X132700000Y-18900000D02*
X132700000Y-31900000D01*
X133200000Y-18400000D02*
X146200000Y-18400000D01*
X146200000Y-32400000D02*
X133200000Y-32400000D01*
X146700000Y-31900000D02*
X146700000Y-18900000D01*
X133200000Y-18400000D02*
G75*
G03*
X132700000Y-18900000I1J-500001D01*
G01*
X132700000Y-31900000D02*
G75*
G03*
X133200000Y-32400000I500001J1D01*
G01*
X146700000Y-18900000D02*
G75*
G03*
X146200000Y-18400000I-500000J0D01*
G01*
X146200000Y-32400000D02*
G75*
G03*
X146700000Y-31900000I0J500000D01*
G01*
X289862500Y-18900000D02*
X289862500Y-31900000D01*
X290362500Y-18400000D02*
X303362500Y-18400000D01*
X303362500Y-32400000D02*
X290362500Y-32400000D01*
X303862500Y-31900000D02*
X303862500Y-18900000D01*
X290362500Y-18400000D02*
G75*
G03*
X289862500Y-18900000I1J-500001D01*
G01*
X289862500Y-31900000D02*
G75*
G03*
X290362500Y-32400000I500001J1D01*
G01*
X303862500Y-18900000D02*
G75*
G03*
X303362500Y-18400000I-500000J0D01*
G01*
X303362500Y-32400000D02*
G75*
G03*
X303862500Y-31900000I0J500000D01*
G01*
G04 #@! TD*
M02*
