G04 #@! TF.GenerationSoftware,KiCad,Pcbnew,7.0.1*
G04 #@! TF.CreationDate,2023-04-12T11:01:51-04:00*
G04 #@! TF.ProjectId,kastenwagen-1840-chunky-plate,6b617374-656e-4776-9167-656e2d313834,rev?*
G04 #@! TF.SameCoordinates,Original*
G04 #@! TF.FileFunction,Copper,L2,Bot*
G04 #@! TF.FilePolarity,Positive*
%FSLAX46Y46*%
G04 Gerber Fmt 4.6, Leading zero omitted, Abs format (unit mm)*
G04 Created by KiCad (PCBNEW 7.0.1) date 2023-04-12 11:01:51*
%MOMM*%
%LPD*%
G01*
G04 APERTURE LIST*
G04 APERTURE END LIST*
G04 #@! TA.AperFunction,NonConductor*
G36*
X365502748Y-4600620D02*
G01*
X365921524Y-4618904D01*
X365932473Y-4619861D01*
X366345342Y-4674216D01*
X366356158Y-4676124D01*
X366559436Y-4721190D01*
X366762711Y-4766255D01*
X366773329Y-4769100D01*
X367170476Y-4894320D01*
X367180805Y-4898079D01*
X367565541Y-5057442D01*
X367575503Y-5062088D01*
X367944875Y-5254371D01*
X367954378Y-5259857D01*
X368088677Y-5345415D01*
X368305593Y-5483606D01*
X368314597Y-5489910D01*
X368644979Y-5743420D01*
X368653399Y-5750486D01*
X368960413Y-6031813D01*
X368968186Y-6039586D01*
X369249513Y-6346600D01*
X369256579Y-6355020D01*
X369510089Y-6685402D01*
X369516393Y-6694406D01*
X369740137Y-7045613D01*
X369745633Y-7055133D01*
X369937911Y-7424496D01*
X369942557Y-7434458D01*
X370101920Y-7819194D01*
X370105679Y-7829523D01*
X370230899Y-8226670D01*
X370233744Y-8237288D01*
X370323874Y-8643837D01*
X370325783Y-8654662D01*
X370380137Y-9067525D01*
X370381095Y-9078475D01*
X370399380Y-9497252D01*
X370399500Y-9502748D01*
X370399500Y-93997252D01*
X370399380Y-94002748D01*
X370381095Y-94421524D01*
X370380137Y-94432474D01*
X370325783Y-94845337D01*
X370323874Y-94856162D01*
X370233744Y-95262711D01*
X370230899Y-95273329D01*
X370105679Y-95670476D01*
X370101920Y-95680805D01*
X369942557Y-96065541D01*
X369937911Y-96075503D01*
X369745633Y-96444866D01*
X369740137Y-96454386D01*
X369516393Y-96805593D01*
X369510089Y-96814597D01*
X369256579Y-97144979D01*
X369249513Y-97153399D01*
X368968186Y-97460413D01*
X368960413Y-97468186D01*
X368653399Y-97749513D01*
X368644979Y-97756579D01*
X368314597Y-98010089D01*
X368305593Y-98016393D01*
X367954386Y-98240137D01*
X367944866Y-98245633D01*
X367575503Y-98437911D01*
X367565541Y-98442557D01*
X367180805Y-98601920D01*
X367170476Y-98605679D01*
X366773329Y-98730899D01*
X366762711Y-98733744D01*
X366356162Y-98823874D01*
X366345337Y-98825783D01*
X365932474Y-98880137D01*
X365921524Y-98881095D01*
X365502748Y-98899380D01*
X365497252Y-98899500D01*
X14002748Y-98899500D01*
X13997252Y-98899380D01*
X13578475Y-98881095D01*
X13567525Y-98880137D01*
X13154662Y-98825783D01*
X13143837Y-98823874D01*
X12737288Y-98733744D01*
X12726670Y-98730899D01*
X12329523Y-98605679D01*
X12319194Y-98601920D01*
X11934458Y-98442557D01*
X11924496Y-98437911D01*
X11555133Y-98245633D01*
X11545613Y-98240137D01*
X11194406Y-98016393D01*
X11185402Y-98010089D01*
X10855020Y-97756579D01*
X10846600Y-97749513D01*
X10539586Y-97468186D01*
X10531813Y-97460413D01*
X10250486Y-97153399D01*
X10243420Y-97144979D01*
X9989910Y-96814597D01*
X9983606Y-96805593D01*
X9903324Y-96679575D01*
X9759857Y-96454378D01*
X9754371Y-96444875D01*
X9562088Y-96075503D01*
X9557442Y-96065541D01*
X9398079Y-95680805D01*
X9394320Y-95670476D01*
X9340569Y-95499999D01*
X174494723Y-95499999D01*
X174513793Y-95717977D01*
X174570424Y-95929329D01*
X174662898Y-96127639D01*
X174788404Y-96306880D01*
X174943119Y-96461595D01*
X174943122Y-96461597D01*
X174943123Y-96461598D01*
X175122361Y-96587102D01*
X175320670Y-96679575D01*
X175532023Y-96736207D01*
X175750000Y-96755277D01*
X175967977Y-96736207D01*
X176179330Y-96679575D01*
X176377639Y-96587102D01*
X176556877Y-96461598D01*
X176711598Y-96306877D01*
X176837102Y-96127639D01*
X176929575Y-95929330D01*
X176986207Y-95717977D01*
X177005277Y-95500000D01*
X176986207Y-95282023D01*
X176929575Y-95070670D01*
X176837102Y-94872362D01*
X176821996Y-94850789D01*
X176711595Y-94693119D01*
X176556880Y-94538404D01*
X176377639Y-94412898D01*
X176179329Y-94320424D01*
X175967977Y-94263793D01*
X175750000Y-94244723D01*
X175532023Y-94263793D01*
X175320670Y-94320425D01*
X175320667Y-94320426D01*
X175320668Y-94320426D01*
X175122360Y-94412898D01*
X174943119Y-94538404D01*
X174788404Y-94693119D01*
X174662898Y-94872360D01*
X174621286Y-94961598D01*
X174570425Y-95070670D01*
X174520960Y-95255276D01*
X174513793Y-95282024D01*
X174494723Y-95499999D01*
X9340569Y-95499999D01*
X9269100Y-95273329D01*
X9266255Y-95262711D01*
X9179775Y-94872627D01*
X9176124Y-94856158D01*
X9174216Y-94845337D01*
X9119862Y-94432474D01*
X9118904Y-94421524D01*
X9100620Y-94002748D01*
X9100560Y-94000000D01*
X12744723Y-94000000D01*
X12763793Y-94217977D01*
X12820424Y-94429329D01*
X12912898Y-94627639D01*
X13038404Y-94806880D01*
X13193119Y-94961595D01*
X13193122Y-94961597D01*
X13193123Y-94961598D01*
X13372361Y-95087102D01*
X13570670Y-95179575D01*
X13782023Y-95236207D01*
X14000000Y-95255277D01*
X14217977Y-95236207D01*
X14429330Y-95179575D01*
X14627639Y-95087102D01*
X14806877Y-94961598D01*
X14961598Y-94806877D01*
X15087102Y-94627639D01*
X15179575Y-94429330D01*
X15236207Y-94217977D01*
X15255277Y-94000000D01*
X15255277Y-93999999D01*
X364244723Y-93999999D01*
X364263793Y-94217977D01*
X364320424Y-94429329D01*
X364412898Y-94627639D01*
X364538404Y-94806880D01*
X364693119Y-94961595D01*
X364693122Y-94961597D01*
X364693123Y-94961598D01*
X364872361Y-95087102D01*
X365070670Y-95179575D01*
X365282023Y-95236207D01*
X365500000Y-95255277D01*
X365717977Y-95236207D01*
X365929330Y-95179575D01*
X366127639Y-95087102D01*
X366306877Y-94961598D01*
X366461598Y-94806877D01*
X366587102Y-94627639D01*
X366679575Y-94429330D01*
X366736207Y-94217977D01*
X366755277Y-94000000D01*
X366736207Y-93782023D01*
X366679575Y-93570670D01*
X366587102Y-93372362D01*
X366461598Y-93193123D01*
X366461597Y-93193122D01*
X366461595Y-93193119D01*
X366306880Y-93038404D01*
X366127639Y-92912898D01*
X365929329Y-92820424D01*
X365717977Y-92763793D01*
X365500000Y-92744723D01*
X365499999Y-92744723D01*
X365391011Y-92754257D01*
X365282023Y-92763793D01*
X365070670Y-92820425D01*
X365070667Y-92820426D01*
X365070668Y-92820426D01*
X364872360Y-92912898D01*
X364693119Y-93038404D01*
X364538404Y-93193119D01*
X364412898Y-93372360D01*
X364320426Y-93570668D01*
X364263793Y-93782024D01*
X364244723Y-93999999D01*
X15255277Y-93999999D01*
X15236207Y-93782023D01*
X15179575Y-93570670D01*
X15087102Y-93372362D01*
X14961598Y-93193123D01*
X14961597Y-93193122D01*
X14961595Y-93193119D01*
X14806880Y-93038404D01*
X14627639Y-92912898D01*
X14429329Y-92820424D01*
X14217977Y-92763793D01*
X14000000Y-92744723D01*
X13999999Y-92744723D01*
X13891011Y-92754257D01*
X13782023Y-92763793D01*
X13570670Y-92820425D01*
X13570667Y-92820426D01*
X13570668Y-92820426D01*
X13372360Y-92912898D01*
X13193119Y-93038404D01*
X13038404Y-93193119D01*
X12912898Y-93372360D01*
X12820426Y-93570668D01*
X12763793Y-93782024D01*
X12744723Y-94000000D01*
X9100560Y-94000000D01*
X9100500Y-93997252D01*
X9100500Y-91385691D01*
X249280747Y-91385691D01*
X249280750Y-91431241D01*
X249280750Y-91462657D01*
X249280752Y-91462675D01*
X249280755Y-91498915D01*
X249301963Y-91591803D01*
X249310876Y-91630837D01*
X249369591Y-91752748D01*
X249453960Y-91858540D01*
X249559752Y-91942909D01*
X249681663Y-92001624D01*
X249813583Y-92031744D01*
X249841067Y-92031746D01*
X249841088Y-92031750D01*
X249865333Y-92031750D01*
X249881239Y-92031750D01*
X249881241Y-92031750D01*
X249908169Y-92031752D01*
X249908170Y-92031751D01*
X249926808Y-92031752D01*
X249926829Y-92031750D01*
X262835671Y-92031750D01*
X262835691Y-92031752D01*
X262854329Y-92031751D01*
X262854331Y-92031752D01*
X262881258Y-92031750D01*
X262881261Y-92031750D01*
X262911817Y-92031750D01*
X262911838Y-92031746D01*
X262948917Y-92031744D01*
X263080837Y-92001624D01*
X263202748Y-91942909D01*
X263308540Y-91858540D01*
X263392909Y-91752748D01*
X263451624Y-91630837D01*
X263481744Y-91498917D01*
X263481746Y-91461838D01*
X263481750Y-91461817D01*
X263481750Y-91431241D01*
X263481750Y-91431238D01*
X263481752Y-91404331D01*
X263481751Y-91404329D01*
X263481752Y-91385691D01*
X268330747Y-91385691D01*
X268330750Y-91431241D01*
X268330750Y-91462657D01*
X268330752Y-91462675D01*
X268330755Y-91498915D01*
X268351963Y-91591803D01*
X268360876Y-91630837D01*
X268419591Y-91752748D01*
X268503960Y-91858540D01*
X268609752Y-91942909D01*
X268731663Y-92001624D01*
X268863583Y-92031744D01*
X268891067Y-92031746D01*
X268891088Y-92031750D01*
X268915333Y-92031750D01*
X268931239Y-92031750D01*
X268931241Y-92031750D01*
X268958169Y-92031752D01*
X268958170Y-92031751D01*
X268976808Y-92031752D01*
X268976829Y-92031750D01*
X281885671Y-92031750D01*
X281885691Y-92031752D01*
X281904329Y-92031751D01*
X281904331Y-92031752D01*
X281931258Y-92031750D01*
X281931261Y-92031750D01*
X281961817Y-92031750D01*
X281961838Y-92031746D01*
X281998917Y-92031744D01*
X282130837Y-92001624D01*
X282252748Y-91942909D01*
X282358540Y-91858540D01*
X282442909Y-91752748D01*
X282501624Y-91630837D01*
X282531744Y-91498917D01*
X282531746Y-91461838D01*
X282531750Y-91461817D01*
X282531750Y-91431241D01*
X282531750Y-91431238D01*
X282531752Y-91404331D01*
X282531751Y-91404329D01*
X282531752Y-91385691D01*
X287380747Y-91385691D01*
X287380750Y-91431241D01*
X287380750Y-91462657D01*
X287380752Y-91462675D01*
X287380755Y-91498915D01*
X287401963Y-91591803D01*
X287410876Y-91630837D01*
X287469591Y-91752748D01*
X287553960Y-91858540D01*
X287659752Y-91942909D01*
X287781663Y-92001624D01*
X287913583Y-92031744D01*
X287941067Y-92031746D01*
X287941088Y-92031750D01*
X287965333Y-92031750D01*
X287981239Y-92031750D01*
X287981241Y-92031750D01*
X288008169Y-92031752D01*
X288008170Y-92031751D01*
X288026808Y-92031752D01*
X288026829Y-92031750D01*
X300935671Y-92031750D01*
X300935691Y-92031752D01*
X300954329Y-92031751D01*
X300954331Y-92031752D01*
X300981258Y-92031750D01*
X300981261Y-92031750D01*
X301011817Y-92031750D01*
X301011838Y-92031746D01*
X301048917Y-92031744D01*
X301180837Y-92001624D01*
X301302748Y-91942909D01*
X301408540Y-91858540D01*
X301492909Y-91752748D01*
X301551624Y-91630837D01*
X301581744Y-91498917D01*
X301581746Y-91461838D01*
X301581750Y-91461817D01*
X301581750Y-91431241D01*
X301581750Y-91431238D01*
X301581752Y-91404331D01*
X301581751Y-91404329D01*
X301581752Y-91385691D01*
X301581750Y-91385671D01*
X301581750Y-89117660D01*
X308812000Y-89117660D01*
X308842110Y-89249587D01*
X308842195Y-89249763D01*
X308900825Y-89371507D01*
X308985195Y-89477305D01*
X309090993Y-89561675D01*
X309212912Y-89620389D01*
X309344840Y-89650500D01*
X309396583Y-89650500D01*
X309412500Y-89650500D01*
X309439429Y-89650500D01*
X341435571Y-89650500D01*
X341478417Y-89650500D01*
X341530160Y-89650500D01*
X341662088Y-89620389D01*
X341784007Y-89561675D01*
X341889805Y-89477305D01*
X341974175Y-89371507D01*
X342032889Y-89249588D01*
X342063000Y-89117660D01*
X342063000Y-89050000D01*
X342063000Y-89023071D01*
X342063000Y-87905660D01*
X345912000Y-87905660D01*
X345942110Y-88037587D01*
X345955827Y-88066070D01*
X346000825Y-88159507D01*
X346085195Y-88265305D01*
X346190993Y-88349675D01*
X346312912Y-88408389D01*
X346444840Y-88438500D01*
X346485571Y-88438500D01*
X346504241Y-88438500D01*
X346520687Y-88439578D01*
X346533815Y-88441306D01*
X346599455Y-88449948D01*
X346631217Y-88458458D01*
X346696929Y-88485677D01*
X346725403Y-88502116D01*
X346781837Y-88545419D01*
X346805080Y-88568662D01*
X346848382Y-88625094D01*
X346864823Y-88653572D01*
X346885708Y-88703993D01*
X346892039Y-88719276D01*
X346900552Y-88751047D01*
X346910922Y-88829812D01*
X346912000Y-88846259D01*
X346912000Y-89117660D01*
X346942110Y-89249587D01*
X346942195Y-89249763D01*
X347000825Y-89371507D01*
X347085195Y-89477305D01*
X347190993Y-89561675D01*
X347312912Y-89620389D01*
X347444840Y-89650500D01*
X347496583Y-89650500D01*
X347512500Y-89650500D01*
X347539429Y-89650500D01*
X360485571Y-89650500D01*
X360528417Y-89650500D01*
X360580160Y-89650500D01*
X360712088Y-89620389D01*
X360834007Y-89561675D01*
X360939805Y-89477305D01*
X361024175Y-89371507D01*
X361082889Y-89249588D01*
X361113000Y-89117660D01*
X361113000Y-89050000D01*
X361113000Y-89023071D01*
X361113000Y-56984083D01*
X361113000Y-56932340D01*
X361082889Y-56800412D01*
X361024175Y-56678493D01*
X360939805Y-56572695D01*
X360834007Y-56488325D01*
X360773047Y-56458967D01*
X360712087Y-56429610D01*
X360580160Y-56399500D01*
X360528417Y-56399500D01*
X347539429Y-56399500D01*
X347512500Y-56399500D01*
X347444840Y-56399500D01*
X347312912Y-56429610D01*
X347190991Y-56488326D01*
X347085195Y-56572695D01*
X347000826Y-56678491D01*
X346942110Y-56800412D01*
X346912000Y-56932340D01*
X346912000Y-57203741D01*
X346910922Y-57220188D01*
X346900552Y-57298952D01*
X346892039Y-57330723D01*
X346864824Y-57396426D01*
X346848379Y-57424908D01*
X346805083Y-57481333D01*
X346781833Y-57504583D01*
X346725408Y-57547879D01*
X346696926Y-57564324D01*
X346631223Y-57591539D01*
X346599452Y-57600052D01*
X346520688Y-57610422D01*
X346504241Y-57611500D01*
X346444840Y-57611500D01*
X346312912Y-57641610D01*
X346190991Y-57700326D01*
X346085195Y-57784695D01*
X346000826Y-57890491D01*
X345942110Y-58012412D01*
X345912000Y-58144340D01*
X345912000Y-64029660D01*
X345942110Y-64161587D01*
X345971468Y-64222547D01*
X346000825Y-64283507D01*
X346085195Y-64389305D01*
X346190993Y-64473675D01*
X346312912Y-64532389D01*
X346444840Y-64562500D01*
X346485571Y-64562500D01*
X346504241Y-64562500D01*
X346520687Y-64563578D01*
X346533815Y-64565306D01*
X346599455Y-64573948D01*
X346631217Y-64582458D01*
X346696929Y-64609677D01*
X346725403Y-64626116D01*
X346781837Y-64669419D01*
X346805080Y-64692662D01*
X346848382Y-64749094D01*
X346864824Y-64777573D01*
X346892039Y-64843276D01*
X346900552Y-64875047D01*
X346910922Y-64953812D01*
X346912000Y-64970259D01*
X346912000Y-81079741D01*
X346910922Y-81096188D01*
X346900552Y-81174952D01*
X346892039Y-81206723D01*
X346864824Y-81272426D01*
X346848379Y-81300908D01*
X346805083Y-81357333D01*
X346781833Y-81380583D01*
X346725408Y-81423879D01*
X346696926Y-81440324D01*
X346631223Y-81467539D01*
X346599452Y-81476052D01*
X346520688Y-81486422D01*
X346504241Y-81487500D01*
X346444840Y-81487500D01*
X346312912Y-81517610D01*
X346190991Y-81576326D01*
X346085195Y-81660695D01*
X346000826Y-81766491D01*
X345942110Y-81888412D01*
X345912000Y-82020340D01*
X345912000Y-87905660D01*
X342063000Y-87905660D01*
X342063000Y-76034083D01*
X342063000Y-75982340D01*
X342032889Y-75850412D01*
X341974175Y-75728493D01*
X341889805Y-75622695D01*
X341784007Y-75538325D01*
X341723047Y-75508967D01*
X341662087Y-75479610D01*
X341530160Y-75449500D01*
X341478417Y-75449500D01*
X341258759Y-75449500D01*
X341242312Y-75448422D01*
X341163547Y-75438052D01*
X341131776Y-75429539D01*
X341066073Y-75402324D01*
X341037594Y-75385882D01*
X340981162Y-75342580D01*
X340957919Y-75319337D01*
X340914613Y-75262899D01*
X340898177Y-75234429D01*
X340870958Y-75168717D01*
X340862448Y-75136955D01*
X340852078Y-75058187D01*
X340851000Y-75041741D01*
X340851000Y-74982340D01*
X340820889Y-74850412D01*
X340780975Y-74767532D01*
X340762175Y-74728493D01*
X340677805Y-74622695D01*
X340572007Y-74538325D01*
X340511047Y-74508968D01*
X340450087Y-74479610D01*
X340318160Y-74449500D01*
X340266417Y-74449500D01*
X334527429Y-74449500D01*
X334500500Y-74449500D01*
X334432840Y-74449500D01*
X334300912Y-74479610D01*
X334178991Y-74538326D01*
X334073195Y-74622695D01*
X333988826Y-74728491D01*
X333930110Y-74850412D01*
X333900000Y-74982340D01*
X333900000Y-75041741D01*
X333898922Y-75058188D01*
X333888552Y-75136952D01*
X333880039Y-75168723D01*
X333852824Y-75234426D01*
X333836379Y-75262908D01*
X333793083Y-75319333D01*
X333769833Y-75342583D01*
X333713408Y-75385879D01*
X333684926Y-75402324D01*
X333619223Y-75429539D01*
X333587452Y-75438052D01*
X333508688Y-75448422D01*
X333492241Y-75449500D01*
X317382759Y-75449500D01*
X317366312Y-75448422D01*
X317287547Y-75438052D01*
X317255776Y-75429539D01*
X317190073Y-75402324D01*
X317161594Y-75385882D01*
X317105162Y-75342580D01*
X317081919Y-75319337D01*
X317038613Y-75262899D01*
X317022177Y-75234429D01*
X316994958Y-75168717D01*
X316986448Y-75136955D01*
X316976078Y-75058187D01*
X316975000Y-75041741D01*
X316975000Y-74982340D01*
X316944889Y-74850412D01*
X316904975Y-74767532D01*
X316886175Y-74728493D01*
X316801805Y-74622695D01*
X316696007Y-74538325D01*
X316635047Y-74508968D01*
X316574087Y-74479610D01*
X316442160Y-74449500D01*
X316390417Y-74449500D01*
X310651429Y-74449500D01*
X310624500Y-74449500D01*
X310556840Y-74449500D01*
X310424912Y-74479610D01*
X310302991Y-74538326D01*
X310197195Y-74622695D01*
X310112826Y-74728491D01*
X310054110Y-74850412D01*
X310024000Y-74982340D01*
X310024000Y-75041741D01*
X310022922Y-75058188D01*
X310012552Y-75136952D01*
X310004039Y-75168723D01*
X309976824Y-75234426D01*
X309960379Y-75262908D01*
X309917083Y-75319333D01*
X309893833Y-75342583D01*
X309837408Y-75385879D01*
X309808926Y-75402324D01*
X309743223Y-75429539D01*
X309711452Y-75438052D01*
X309632688Y-75448422D01*
X309616241Y-75449500D01*
X309344840Y-75449500D01*
X309212912Y-75479610D01*
X309090991Y-75538326D01*
X308985195Y-75622695D01*
X308900826Y-75728491D01*
X308842110Y-75850412D01*
X308812000Y-75982340D01*
X308812000Y-89117660D01*
X301581750Y-89117660D01*
X301581750Y-78476829D01*
X301581752Y-78476808D01*
X301581751Y-78458170D01*
X301581752Y-78458169D01*
X301581750Y-78431240D01*
X301581750Y-78415333D01*
X301581750Y-78391088D01*
X301581746Y-78391067D01*
X301581744Y-78363584D01*
X301573588Y-78327863D01*
X301551624Y-78231663D01*
X301492909Y-78109752D01*
X301408540Y-78003960D01*
X301302748Y-77919591D01*
X301180837Y-77860876D01*
X301141803Y-77851963D01*
X301048915Y-77830755D01*
X301012675Y-77830752D01*
X301012657Y-77830750D01*
X300997167Y-77830750D01*
X300981261Y-77830750D01*
X300981252Y-77830749D01*
X300954330Y-77830748D01*
X300935691Y-77830747D01*
X300935671Y-77830750D01*
X288026829Y-77830750D01*
X288026808Y-77830747D01*
X288008169Y-77830748D01*
X287981247Y-77830749D01*
X287981239Y-77830750D01*
X287952880Y-77830750D01*
X287952858Y-77830752D01*
X287913584Y-77830755D01*
X287781663Y-77860876D01*
X287659752Y-77919591D01*
X287553960Y-78003960D01*
X287469591Y-78109752D01*
X287410876Y-78231663D01*
X287380755Y-78363584D01*
X287380752Y-78402858D01*
X287380750Y-78402880D01*
X287380750Y-78431239D01*
X287380747Y-78476808D01*
X287380750Y-78476829D01*
X287380750Y-91385671D01*
X287380747Y-91385691D01*
X282531752Y-91385691D01*
X282531750Y-91385671D01*
X282531750Y-78476829D01*
X282531752Y-78476808D01*
X282531751Y-78458170D01*
X282531752Y-78458169D01*
X282531750Y-78431240D01*
X282531750Y-78415333D01*
X282531750Y-78391088D01*
X282531746Y-78391067D01*
X282531744Y-78363584D01*
X282523588Y-78327863D01*
X282501624Y-78231663D01*
X282442909Y-78109752D01*
X282358540Y-78003960D01*
X282252748Y-77919591D01*
X282130837Y-77860876D01*
X282091803Y-77851963D01*
X281998915Y-77830755D01*
X281962675Y-77830752D01*
X281962657Y-77830750D01*
X281947167Y-77830750D01*
X281931261Y-77830750D01*
X281931252Y-77830749D01*
X281904330Y-77830748D01*
X281885691Y-77830747D01*
X281885671Y-77830750D01*
X268976829Y-77830750D01*
X268976808Y-77830747D01*
X268958169Y-77830748D01*
X268931247Y-77830749D01*
X268931239Y-77830750D01*
X268902880Y-77830750D01*
X268902858Y-77830752D01*
X268863584Y-77830755D01*
X268731663Y-77860876D01*
X268609752Y-77919591D01*
X268503960Y-78003960D01*
X268419591Y-78109752D01*
X268360876Y-78231663D01*
X268330755Y-78363584D01*
X268330752Y-78402858D01*
X268330750Y-78402880D01*
X268330750Y-78431239D01*
X268330747Y-78476808D01*
X268330750Y-78476829D01*
X268330750Y-91385671D01*
X268330747Y-91385691D01*
X263481752Y-91385691D01*
X263481750Y-91385671D01*
X263481750Y-78476829D01*
X263481752Y-78476808D01*
X263481751Y-78458170D01*
X263481752Y-78458169D01*
X263481750Y-78431240D01*
X263481750Y-78415333D01*
X263481750Y-78391088D01*
X263481746Y-78391067D01*
X263481744Y-78363584D01*
X263473588Y-78327863D01*
X263451624Y-78231663D01*
X263392909Y-78109752D01*
X263308540Y-78003960D01*
X263202748Y-77919591D01*
X263080837Y-77860876D01*
X263041803Y-77851963D01*
X262948915Y-77830755D01*
X262912675Y-77830752D01*
X262912657Y-77830750D01*
X262897167Y-77830750D01*
X262881261Y-77830750D01*
X262881252Y-77830749D01*
X262854330Y-77830748D01*
X262835691Y-77830747D01*
X262835671Y-77830750D01*
X249926829Y-77830750D01*
X249926808Y-77830747D01*
X249908169Y-77830748D01*
X249881247Y-77830749D01*
X249881239Y-77830750D01*
X249852880Y-77830750D01*
X249852858Y-77830752D01*
X249813584Y-77830755D01*
X249681663Y-77860876D01*
X249559752Y-77919591D01*
X249453960Y-78003960D01*
X249369591Y-78109752D01*
X249310876Y-78231663D01*
X249280755Y-78363584D01*
X249280752Y-78402858D01*
X249280750Y-78402880D01*
X249280750Y-78431239D01*
X249280747Y-78476808D01*
X249280750Y-78476829D01*
X249280750Y-91385671D01*
X249280747Y-91385691D01*
X9100500Y-91385691D01*
X9100500Y-89085440D01*
X20680750Y-89085440D01*
X20680799Y-89085754D01*
X20680799Y-89117657D01*
X20710905Y-89249572D01*
X20769614Y-89371491D01*
X20853973Y-89477283D01*
X20959759Y-89561655D01*
X21018477Y-89589936D01*
X21081668Y-89620373D01*
X21164538Y-89639295D01*
X21213582Y-89650494D01*
X21213616Y-89650494D01*
X21241067Y-89650496D01*
X21241088Y-89650500D01*
X21265333Y-89650500D01*
X21281239Y-89650500D01*
X21281241Y-89650500D01*
X21308169Y-89650502D01*
X21308170Y-89650501D01*
X21326808Y-89650502D01*
X21326829Y-89650500D01*
X34229022Y-89650500D01*
X34229298Y-89650554D01*
X34281260Y-89650550D01*
X34348904Y-89650544D01*
X34348922Y-89650544D01*
X34373446Y-89644944D01*
X34480849Y-89620420D01*
X34602766Y-89561697D01*
X34708561Y-89477319D01*
X34792929Y-89371515D01*
X34851640Y-89249592D01*
X34851645Y-89249572D01*
X34881750Y-89117664D01*
X34881750Y-89085440D01*
X44493250Y-89085440D01*
X44493299Y-89085754D01*
X44493299Y-89117657D01*
X44523405Y-89249572D01*
X44582114Y-89371491D01*
X44666473Y-89477283D01*
X44772259Y-89561655D01*
X44830977Y-89589936D01*
X44894168Y-89620373D01*
X44977038Y-89639295D01*
X45026082Y-89650494D01*
X45026116Y-89650494D01*
X45053567Y-89650496D01*
X45053588Y-89650500D01*
X45077833Y-89650500D01*
X45093739Y-89650500D01*
X45093741Y-89650500D01*
X45120669Y-89650502D01*
X45120670Y-89650501D01*
X45139308Y-89650502D01*
X45139329Y-89650500D01*
X58041522Y-89650500D01*
X58041798Y-89650554D01*
X58093760Y-89650550D01*
X58161404Y-89650544D01*
X58161422Y-89650544D01*
X58185946Y-89644944D01*
X58293349Y-89620420D01*
X58415266Y-89561697D01*
X58521061Y-89477319D01*
X58605429Y-89371515D01*
X58664140Y-89249592D01*
X58664145Y-89249572D01*
X58694250Y-89117664D01*
X58694250Y-89117660D01*
X65924500Y-89117660D01*
X65954610Y-89249587D01*
X65954695Y-89249763D01*
X66013325Y-89371507D01*
X66097695Y-89477305D01*
X66203493Y-89561675D01*
X66325412Y-89620389D01*
X66457340Y-89650500D01*
X66509083Y-89650500D01*
X66525000Y-89650500D01*
X66551929Y-89650500D01*
X79498071Y-89650500D01*
X79540917Y-89650500D01*
X79592660Y-89650500D01*
X79724588Y-89620389D01*
X79846507Y-89561675D01*
X79952305Y-89477305D01*
X80036675Y-89371507D01*
X80095389Y-89249588D01*
X80125500Y-89117660D01*
X80125500Y-89050000D01*
X80125500Y-89023071D01*
X80125500Y-88085440D01*
X93330250Y-88085440D01*
X93330299Y-88085754D01*
X93330299Y-88117657D01*
X93360405Y-88249572D01*
X93419114Y-88371491D01*
X93503473Y-88477283D01*
X93609259Y-88561655D01*
X93623824Y-88568670D01*
X93731168Y-88620373D01*
X93814038Y-88639295D01*
X93863082Y-88650494D01*
X93863116Y-88650494D01*
X93890567Y-88650496D01*
X93890588Y-88650500D01*
X93914833Y-88650500D01*
X93930739Y-88650500D01*
X93930741Y-88650500D01*
X93957669Y-88650502D01*
X93957670Y-88650501D01*
X93976308Y-88650502D01*
X93976329Y-88650500D01*
X101235472Y-88650500D01*
X101251928Y-88651579D01*
X101281329Y-88655452D01*
X101330688Y-88661954D01*
X101362453Y-88670469D01*
X101428149Y-88697687D01*
X101456629Y-88714132D01*
X101483302Y-88734602D01*
X101513044Y-88757427D01*
X101536298Y-88780683D01*
X101568063Y-88822083D01*
X101573993Y-88829812D01*
X101579587Y-88837102D01*
X101596030Y-88865584D01*
X101621945Y-88928154D01*
X101623242Y-88931284D01*
X101631753Y-88963052D01*
X101642172Y-89042193D01*
X101643250Y-89058639D01*
X101643250Y-89093307D01*
X101643299Y-89093679D01*
X101643299Y-89117657D01*
X101673405Y-89249572D01*
X101732114Y-89371491D01*
X101816473Y-89477283D01*
X101922259Y-89561655D01*
X101980977Y-89589936D01*
X102044168Y-89620373D01*
X102127038Y-89639295D01*
X102176082Y-89650494D01*
X102176116Y-89650494D01*
X102203567Y-89650496D01*
X102203588Y-89650500D01*
X102227833Y-89650500D01*
X102243739Y-89650500D01*
X102243741Y-89650500D01*
X102270669Y-89650502D01*
X102270670Y-89650501D01*
X102289308Y-89650502D01*
X102289329Y-89650500D01*
X115191522Y-89650500D01*
X115191798Y-89650554D01*
X115243760Y-89650550D01*
X115311404Y-89650544D01*
X115311422Y-89650544D01*
X115335946Y-89644944D01*
X115443349Y-89620420D01*
X115565266Y-89561697D01*
X115671061Y-89477319D01*
X115755429Y-89371515D01*
X115814140Y-89249592D01*
X115814145Y-89249572D01*
X115844250Y-89117664D01*
X115844250Y-89058257D01*
X115845328Y-89041812D01*
X115855698Y-88963040D01*
X115864210Y-88931271D01*
X115891414Y-88865589D01*
X115891427Y-88865558D01*
X115907865Y-88837082D01*
X115951167Y-88780645D01*
X115974413Y-88757396D01*
X116030850Y-88714085D01*
X116059321Y-88697645D01*
X116125034Y-88670420D01*
X116156795Y-88661907D01*
X116223297Y-88653145D01*
X116235191Y-88651579D01*
X116251648Y-88650500D01*
X122648071Y-88650500D01*
X122666741Y-88650500D01*
X122683187Y-88651578D01*
X122696315Y-88653306D01*
X122761955Y-88661948D01*
X122793717Y-88670458D01*
X122859429Y-88697677D01*
X122887903Y-88714116D01*
X122944337Y-88757419D01*
X122967580Y-88780662D01*
X123010882Y-88837094D01*
X123027324Y-88865573D01*
X123054539Y-88931276D01*
X123063052Y-88963047D01*
X123073422Y-89041812D01*
X123074500Y-89058259D01*
X123074500Y-89117660D01*
X123104610Y-89249587D01*
X123104695Y-89249763D01*
X123163325Y-89371507D01*
X123247695Y-89477305D01*
X123353493Y-89561675D01*
X123475412Y-89620389D01*
X123607340Y-89650500D01*
X123659083Y-89650500D01*
X123675000Y-89650500D01*
X123701929Y-89650500D01*
X136648071Y-89650500D01*
X136690917Y-89650500D01*
X136742660Y-89650500D01*
X136874588Y-89620389D01*
X136996507Y-89561675D01*
X137102305Y-89477305D01*
X137186675Y-89371507D01*
X137245389Y-89249588D01*
X137275500Y-89117660D01*
X137275500Y-89050000D01*
X137275500Y-89023071D01*
X137275500Y-87998082D01*
X140955191Y-87998082D01*
X140955200Y-88050020D01*
X140955212Y-88117679D01*
X140970355Y-88183977D01*
X140985344Y-88249600D01*
X141044069Y-88371507D01*
X141128447Y-88477300D01*
X141234241Y-88561661D01*
X141356159Y-88620376D01*
X141488078Y-88650494D01*
X141488129Y-88650494D01*
X141515567Y-88650496D01*
X141515588Y-88650500D01*
X141539833Y-88650500D01*
X141555739Y-88650500D01*
X141555741Y-88650500D01*
X141582669Y-88650502D01*
X141582670Y-88650501D01*
X141601308Y-88650502D01*
X141601329Y-88650500D01*
X148860476Y-88650500D01*
X148876930Y-88651579D01*
X148892068Y-88653573D01*
X148955701Y-88661955D01*
X148987465Y-88670468D01*
X149053181Y-88697691D01*
X149081657Y-88714131D01*
X149138088Y-88757430D01*
X149161340Y-88780680D01*
X149204647Y-88837110D01*
X149221093Y-88865589D01*
X149248319Y-88931296D01*
X149256835Y-88963060D01*
X149267120Y-89041080D01*
X149268201Y-89057524D01*
X149268203Y-89065917D01*
X149268212Y-89117679D01*
X149286291Y-89196830D01*
X149298344Y-89249600D01*
X149357069Y-89371507D01*
X149441447Y-89477300D01*
X149547241Y-89561661D01*
X149669159Y-89620376D01*
X149801078Y-89650494D01*
X149801129Y-89650494D01*
X149828567Y-89650496D01*
X149828588Y-89650500D01*
X149852833Y-89650500D01*
X149868739Y-89650500D01*
X149868741Y-89650500D01*
X149895669Y-89650502D01*
X149895670Y-89650501D01*
X149914308Y-89650502D01*
X149914329Y-89650500D01*
X162904716Y-89650500D01*
X162905004Y-89650452D01*
X162936399Y-89650456D01*
X163068326Y-89620356D01*
X163190247Y-89561653D01*
X163296047Y-89477290D01*
X163380421Y-89371498D01*
X163439136Y-89249583D01*
X163461090Y-89153405D01*
X163469249Y-89117662D01*
X163469249Y-89117660D01*
X180224500Y-89117660D01*
X180254610Y-89249587D01*
X180254695Y-89249763D01*
X180313325Y-89371507D01*
X180397695Y-89477305D01*
X180503493Y-89561675D01*
X180625412Y-89620389D01*
X180757340Y-89650500D01*
X180809083Y-89650500D01*
X180825000Y-89650500D01*
X180851929Y-89650500D01*
X193798071Y-89650500D01*
X193840917Y-89650500D01*
X193892660Y-89650500D01*
X194024588Y-89620389D01*
X194146507Y-89561675D01*
X194252305Y-89477305D01*
X194336675Y-89371507D01*
X194395389Y-89249588D01*
X194425500Y-89117660D01*
X194425500Y-89085440D01*
X201655750Y-89085440D01*
X201655799Y-89085754D01*
X201655799Y-89117657D01*
X201685905Y-89249572D01*
X201744614Y-89371491D01*
X201828973Y-89477283D01*
X201934759Y-89561655D01*
X201993477Y-89589936D01*
X202056668Y-89620373D01*
X202139538Y-89639295D01*
X202188582Y-89650494D01*
X202188616Y-89650494D01*
X202216067Y-89650496D01*
X202216088Y-89650500D01*
X202240333Y-89650500D01*
X202256239Y-89650500D01*
X202256241Y-89650500D01*
X202283169Y-89650502D01*
X202283170Y-89650501D01*
X202301808Y-89650502D01*
X202301829Y-89650500D01*
X215204022Y-89650500D01*
X215204298Y-89650554D01*
X215256260Y-89650550D01*
X215323904Y-89650544D01*
X215323922Y-89650544D01*
X215348446Y-89644944D01*
X215455849Y-89620420D01*
X215577766Y-89561697D01*
X215683561Y-89477319D01*
X215767929Y-89371515D01*
X215826640Y-89249592D01*
X215826645Y-89249572D01*
X215856750Y-89117664D01*
X215856750Y-89085440D01*
X225468250Y-89085440D01*
X225468299Y-89085754D01*
X225468299Y-89117657D01*
X225498405Y-89249572D01*
X225557114Y-89371491D01*
X225641473Y-89477283D01*
X225747259Y-89561655D01*
X225805977Y-89589936D01*
X225869168Y-89620373D01*
X225952038Y-89639295D01*
X226001082Y-89650494D01*
X226001116Y-89650494D01*
X226028567Y-89650496D01*
X226028588Y-89650500D01*
X226052833Y-89650500D01*
X226068739Y-89650500D01*
X226068741Y-89650500D01*
X226095669Y-89650502D01*
X226095670Y-89650501D01*
X226114308Y-89650502D01*
X226114329Y-89650500D01*
X239016522Y-89650500D01*
X239016798Y-89650554D01*
X239068760Y-89650550D01*
X239136404Y-89650544D01*
X239136422Y-89650544D01*
X239160946Y-89644944D01*
X239268349Y-89620420D01*
X239390266Y-89561697D01*
X239496061Y-89477319D01*
X239580429Y-89371515D01*
X239639140Y-89249592D01*
X239639145Y-89249572D01*
X239669250Y-89117664D01*
X239669250Y-76014300D01*
X239669200Y-76013984D01*
X239669201Y-75982344D01*
X239654146Y-75916384D01*
X239639094Y-75850427D01*
X239635433Y-75842826D01*
X239580387Y-75728511D01*
X239580369Y-75728488D01*
X239496026Y-75622716D01*
X239390240Y-75538344D01*
X239268332Y-75479627D01*
X239136416Y-75449505D01*
X239100175Y-75449502D01*
X239100157Y-75449500D01*
X239084667Y-75449500D01*
X239068761Y-75449500D01*
X239068752Y-75449499D01*
X239041830Y-75449498D01*
X239023191Y-75449497D01*
X239023171Y-75449500D01*
X226120978Y-75449500D01*
X226120701Y-75449445D01*
X226001077Y-75449455D01*
X225869150Y-75479580D01*
X225747236Y-75538301D01*
X225641438Y-75622680D01*
X225557068Y-75728488D01*
X225498359Y-75850407D01*
X225468250Y-75982336D01*
X225468250Y-89085440D01*
X215856750Y-89085440D01*
X215856750Y-76014300D01*
X215856700Y-76013984D01*
X215856701Y-75982344D01*
X215841646Y-75916384D01*
X215826594Y-75850427D01*
X215822933Y-75842826D01*
X215767887Y-75728511D01*
X215767869Y-75728488D01*
X215683526Y-75622716D01*
X215577740Y-75538344D01*
X215455832Y-75479627D01*
X215323916Y-75449505D01*
X215287675Y-75449502D01*
X215287657Y-75449500D01*
X215272167Y-75449500D01*
X215256261Y-75449500D01*
X215256252Y-75449499D01*
X215229330Y-75449498D01*
X215210691Y-75449497D01*
X215210671Y-75449500D01*
X202308478Y-75449500D01*
X202308201Y-75449445D01*
X202188577Y-75449455D01*
X202056650Y-75479580D01*
X201934736Y-75538301D01*
X201828938Y-75622680D01*
X201744568Y-75728488D01*
X201685859Y-75850407D01*
X201655750Y-75982336D01*
X201655750Y-89085440D01*
X194425500Y-89085440D01*
X194425500Y-89050000D01*
X194425500Y-89023071D01*
X194425500Y-76034083D01*
X194425500Y-75982340D01*
X194395389Y-75850412D01*
X194336675Y-75728493D01*
X194252305Y-75622695D01*
X194146507Y-75538325D01*
X194085547Y-75508967D01*
X194024587Y-75479610D01*
X193892660Y-75449500D01*
X193840917Y-75449500D01*
X191208259Y-75449500D01*
X191191812Y-75448422D01*
X191113047Y-75438052D01*
X191081276Y-75429539D01*
X191015573Y-75402324D01*
X190987094Y-75385882D01*
X190930662Y-75342580D01*
X190907419Y-75319337D01*
X190864113Y-75262899D01*
X190847677Y-75234429D01*
X190820458Y-75168717D01*
X190811948Y-75136955D01*
X190801578Y-75058187D01*
X190800500Y-75041741D01*
X190800500Y-74982340D01*
X190770389Y-74850412D01*
X190730475Y-74767532D01*
X190711675Y-74728493D01*
X190627305Y-74622695D01*
X190521507Y-74538325D01*
X190460547Y-74508968D01*
X190399587Y-74479610D01*
X190267660Y-74449500D01*
X190215917Y-74449500D01*
X184476929Y-74449500D01*
X184450000Y-74449500D01*
X184382340Y-74449500D01*
X184250412Y-74479610D01*
X184128491Y-74538326D01*
X184022695Y-74622695D01*
X183938326Y-74728491D01*
X183879610Y-74850412D01*
X183849500Y-74982340D01*
X183849500Y-75041741D01*
X183848422Y-75058188D01*
X183838052Y-75136952D01*
X183829539Y-75168723D01*
X183802324Y-75234426D01*
X183785879Y-75262908D01*
X183742583Y-75319333D01*
X183719333Y-75342583D01*
X183662908Y-75385879D01*
X183634426Y-75402324D01*
X183568723Y-75429539D01*
X183536952Y-75438052D01*
X183458188Y-75448422D01*
X183441741Y-75449500D01*
X180757340Y-75449500D01*
X180625412Y-75479610D01*
X180503491Y-75538326D01*
X180397695Y-75622695D01*
X180313326Y-75728491D01*
X180254610Y-75850412D01*
X180224500Y-75982340D01*
X180224500Y-89117660D01*
X163469249Y-89117660D01*
X163469249Y-89085440D01*
X163469249Y-89058247D01*
X163470326Y-89041827D01*
X163480699Y-88963047D01*
X163489209Y-88931286D01*
X163516427Y-88865582D01*
X163532869Y-88837106D01*
X163576164Y-88780687D01*
X163599414Y-88757439D01*
X163655842Y-88714146D01*
X163684315Y-88697709D01*
X163750026Y-88670496D01*
X163781787Y-88661989D01*
X163860947Y-88651575D01*
X163877370Y-88650500D01*
X163895669Y-88650502D01*
X163895670Y-88650500D01*
X163914308Y-88650502D01*
X163914329Y-88650500D01*
X171217716Y-88650500D01*
X171218004Y-88650452D01*
X171249399Y-88650456D01*
X171381326Y-88620356D01*
X171503247Y-88561653D01*
X171609047Y-88477290D01*
X171693421Y-88371498D01*
X171752136Y-88249583D01*
X171781603Y-88120489D01*
X171782249Y-88117660D01*
X171782250Y-88050002D01*
X171782250Y-75102214D01*
X171782308Y-75101917D01*
X171782299Y-75049980D01*
X171782300Y-75049980D01*
X171782288Y-74982321D01*
X171752156Y-74850402D01*
X171693430Y-74728492D01*
X171673890Y-74703993D01*
X171609052Y-74622699D01*
X171503258Y-74538338D01*
X171381341Y-74479623D01*
X171249419Y-74449505D01*
X171213175Y-74449502D01*
X171213157Y-74449500D01*
X171197667Y-74449500D01*
X171181761Y-74449500D01*
X171181752Y-74449499D01*
X171154830Y-74449498D01*
X171136191Y-74449497D01*
X171136171Y-74449500D01*
X165396309Y-74449500D01*
X165396010Y-74449546D01*
X165364101Y-74449543D01*
X165232174Y-74479644D01*
X165110252Y-74538347D01*
X165004452Y-74622709D01*
X164920080Y-74728500D01*
X164861363Y-74850419D01*
X164831250Y-74982339D01*
X164831250Y-75041740D01*
X164830172Y-75058189D01*
X164819802Y-75136945D01*
X164811288Y-75168717D01*
X164784074Y-75234413D01*
X164767626Y-75262899D01*
X164724341Y-75319305D01*
X164701079Y-75342565D01*
X164644663Y-75385849D01*
X164616175Y-75402294D01*
X164583327Y-75415897D01*
X164550481Y-75429500D01*
X164518707Y-75438011D01*
X164439564Y-75448423D01*
X164423122Y-75449499D01*
X164405300Y-75449498D01*
X164404830Y-75449498D01*
X164386191Y-75449497D01*
X164386171Y-75449500D01*
X148314024Y-75449500D01*
X148297569Y-75448421D01*
X148218799Y-75438044D01*
X148187034Y-75429531D01*
X148121318Y-75402308D01*
X148092839Y-75385866D01*
X148092817Y-75385849D01*
X148036411Y-75342569D01*
X148013159Y-75319319D01*
X147969852Y-75262889D01*
X147953406Y-75234410D01*
X147926179Y-75168701D01*
X147917664Y-75136940D01*
X147915122Y-75117661D01*
X147907378Y-75058920D01*
X147906298Y-75042488D01*
X147906288Y-74982321D01*
X147876156Y-74850402D01*
X147817430Y-74728492D01*
X147797890Y-74703993D01*
X147733052Y-74622699D01*
X147627258Y-74538338D01*
X147505341Y-74479623D01*
X147373419Y-74449505D01*
X147337175Y-74449502D01*
X147337157Y-74449500D01*
X147321667Y-74449500D01*
X147305761Y-74449500D01*
X147305752Y-74449499D01*
X147278830Y-74449498D01*
X147260191Y-74449497D01*
X147260171Y-74449500D01*
X141520309Y-74449500D01*
X141520010Y-74449546D01*
X141488101Y-74449543D01*
X141356174Y-74479644D01*
X141234252Y-74538347D01*
X141128452Y-74622709D01*
X141044080Y-74728500D01*
X140985363Y-74850419D01*
X140955250Y-74982339D01*
X140955250Y-87997786D01*
X140955191Y-87998082D01*
X137275500Y-87998082D01*
X137275500Y-76034083D01*
X137275500Y-75982340D01*
X137245389Y-75850412D01*
X137186675Y-75728493D01*
X137102305Y-75622695D01*
X136996507Y-75538325D01*
X136935547Y-75508967D01*
X136874587Y-75479610D01*
X136742660Y-75449500D01*
X136690917Y-75449500D01*
X124565028Y-75449500D01*
X124548570Y-75448421D01*
X124469812Y-75438045D01*
X124438044Y-75429529D01*
X124372352Y-75402313D01*
X124343867Y-75385865D01*
X124343846Y-75385849D01*
X124327936Y-75373639D01*
X124287455Y-75342572D01*
X124264201Y-75319316D01*
X124242556Y-75291106D01*
X124220910Y-75262894D01*
X124204470Y-75234418D01*
X124177256Y-75168711D01*
X124168746Y-75136946D01*
X124158328Y-75057806D01*
X124157250Y-75041361D01*
X124157250Y-75006575D01*
X124157200Y-75006198D01*
X124157201Y-74982344D01*
X124146147Y-74933911D01*
X124127094Y-74850427D01*
X124087174Y-74767526D01*
X124068387Y-74728511D01*
X124068380Y-74728502D01*
X123984026Y-74622716D01*
X123878240Y-74538344D01*
X123756332Y-74479627D01*
X123624416Y-74449505D01*
X123588175Y-74449502D01*
X123588157Y-74449500D01*
X123572667Y-74449500D01*
X123556761Y-74449500D01*
X123556752Y-74449499D01*
X123529830Y-74449498D01*
X123511191Y-74449497D01*
X123511171Y-74449500D01*
X117858978Y-74449500D01*
X117858701Y-74449445D01*
X117739077Y-74449455D01*
X117607150Y-74479580D01*
X117485236Y-74538301D01*
X117379438Y-74622680D01*
X117295068Y-74728488D01*
X117236359Y-74850407D01*
X117206250Y-74982336D01*
X117206250Y-75041743D01*
X117205172Y-75058190D01*
X117194801Y-75136961D01*
X117186289Y-75168728D01*
X117159074Y-75234437D01*
X117142630Y-75262922D01*
X117099337Y-75319348D01*
X117076081Y-75342607D01*
X117019656Y-75385909D01*
X116991172Y-75402356D01*
X116925468Y-75429577D01*
X116893700Y-75438092D01*
X116815310Y-75448420D01*
X116798852Y-75449500D01*
X100689028Y-75449500D01*
X100672570Y-75448421D01*
X100593812Y-75438045D01*
X100562044Y-75429529D01*
X100496352Y-75402313D01*
X100467867Y-75385865D01*
X100467846Y-75385849D01*
X100451936Y-75373639D01*
X100411455Y-75342572D01*
X100388201Y-75319316D01*
X100366556Y-75291106D01*
X100344910Y-75262894D01*
X100328470Y-75234418D01*
X100301256Y-75168711D01*
X100292746Y-75136946D01*
X100282328Y-75057806D01*
X100281250Y-75041361D01*
X100281250Y-75006575D01*
X100281200Y-75006198D01*
X100281201Y-74982344D01*
X100270147Y-74933911D01*
X100251094Y-74850427D01*
X100211174Y-74767526D01*
X100192387Y-74728511D01*
X100192380Y-74728502D01*
X100108026Y-74622716D01*
X100002240Y-74538344D01*
X99880332Y-74479627D01*
X99748416Y-74449505D01*
X99712175Y-74449502D01*
X99712157Y-74449500D01*
X99696667Y-74449500D01*
X99680761Y-74449500D01*
X99680752Y-74449499D01*
X99653830Y-74449498D01*
X99635191Y-74449497D01*
X99635171Y-74449500D01*
X93982978Y-74449500D01*
X93982701Y-74449445D01*
X93863077Y-74449455D01*
X93731150Y-74479580D01*
X93609236Y-74538301D01*
X93503438Y-74622680D01*
X93419068Y-74728488D01*
X93360359Y-74850407D01*
X93330250Y-74982336D01*
X93330250Y-88085440D01*
X80125500Y-88085440D01*
X80125500Y-76034083D01*
X80125500Y-75982340D01*
X80095389Y-75850412D01*
X80036675Y-75728493D01*
X79952305Y-75622695D01*
X79846507Y-75538325D01*
X79785547Y-75508967D01*
X79724587Y-75479610D01*
X79592660Y-75449500D01*
X79540917Y-75449500D01*
X76883259Y-75449500D01*
X76866812Y-75448422D01*
X76788047Y-75438052D01*
X76756276Y-75429539D01*
X76690573Y-75402324D01*
X76662094Y-75385882D01*
X76605662Y-75342580D01*
X76582419Y-75319337D01*
X76539113Y-75262899D01*
X76522677Y-75234429D01*
X76495458Y-75168717D01*
X76486948Y-75136955D01*
X76476578Y-75058187D01*
X76475500Y-75041741D01*
X76475500Y-74982340D01*
X76445389Y-74850412D01*
X76405475Y-74767532D01*
X76386675Y-74728493D01*
X76302305Y-74622695D01*
X76196507Y-74538325D01*
X76135547Y-74508968D01*
X76074587Y-74479610D01*
X75942660Y-74449500D01*
X75890917Y-74449500D01*
X70151929Y-74449500D01*
X70125000Y-74449500D01*
X70057340Y-74449500D01*
X69925412Y-74479610D01*
X69803491Y-74538326D01*
X69697695Y-74622695D01*
X69613326Y-74728491D01*
X69554610Y-74850412D01*
X69524500Y-74982340D01*
X69524500Y-75041741D01*
X69523422Y-75058188D01*
X69513052Y-75136952D01*
X69504539Y-75168723D01*
X69477324Y-75234426D01*
X69460879Y-75262908D01*
X69417583Y-75319333D01*
X69394333Y-75342583D01*
X69337908Y-75385879D01*
X69309426Y-75402324D01*
X69243723Y-75429539D01*
X69211952Y-75438052D01*
X69133188Y-75448422D01*
X69116741Y-75449500D01*
X66457340Y-75449500D01*
X66325412Y-75479610D01*
X66203491Y-75538326D01*
X66097695Y-75622695D01*
X66013326Y-75728491D01*
X65954610Y-75850412D01*
X65924500Y-75982340D01*
X65924500Y-89117660D01*
X58694250Y-89117660D01*
X58694250Y-76014300D01*
X58694200Y-76013984D01*
X58694201Y-75982344D01*
X58679146Y-75916384D01*
X58664094Y-75850427D01*
X58660433Y-75842826D01*
X58605387Y-75728511D01*
X58605369Y-75728488D01*
X58521026Y-75622716D01*
X58415240Y-75538344D01*
X58293332Y-75479627D01*
X58161416Y-75449505D01*
X58125175Y-75449502D01*
X58125157Y-75449500D01*
X58109667Y-75449500D01*
X58093761Y-75449500D01*
X58093752Y-75449499D01*
X58066830Y-75449498D01*
X58048191Y-75449497D01*
X58048171Y-75449500D01*
X45145978Y-75449500D01*
X45145701Y-75449445D01*
X45026077Y-75449455D01*
X44894150Y-75479580D01*
X44772236Y-75538301D01*
X44666438Y-75622680D01*
X44582068Y-75728488D01*
X44523359Y-75850407D01*
X44493250Y-75982336D01*
X44493250Y-89085440D01*
X34881750Y-89085440D01*
X34881750Y-76014300D01*
X34881700Y-76013984D01*
X34881701Y-75982344D01*
X34866647Y-75916384D01*
X34851594Y-75850427D01*
X34847933Y-75842826D01*
X34792887Y-75728511D01*
X34792869Y-75728488D01*
X34708526Y-75622716D01*
X34602740Y-75538344D01*
X34480832Y-75479627D01*
X34348916Y-75449505D01*
X34312675Y-75449502D01*
X34312657Y-75449500D01*
X34297167Y-75449500D01*
X34281261Y-75449500D01*
X34281252Y-75449499D01*
X34254330Y-75449498D01*
X34235691Y-75449497D01*
X34235671Y-75449500D01*
X21333478Y-75449500D01*
X21333201Y-75449445D01*
X21213577Y-75449455D01*
X21081650Y-75479580D01*
X20959736Y-75538301D01*
X20853938Y-75622680D01*
X20769568Y-75728488D01*
X20710859Y-75850407D01*
X20680750Y-75982336D01*
X20680750Y-89085440D01*
X9100500Y-89085440D01*
X9100500Y-72335691D01*
X268330747Y-72335691D01*
X268330750Y-72381241D01*
X268330750Y-72412657D01*
X268330752Y-72412675D01*
X268330755Y-72448915D01*
X268351963Y-72541803D01*
X268360876Y-72580837D01*
X268419591Y-72702748D01*
X268503960Y-72808540D01*
X268609752Y-72892909D01*
X268731663Y-72951624D01*
X268863583Y-72981744D01*
X268891067Y-72981746D01*
X268891088Y-72981750D01*
X268915333Y-72981750D01*
X268931239Y-72981750D01*
X268931241Y-72981750D01*
X268958169Y-72981752D01*
X268958170Y-72981751D01*
X268976808Y-72981752D01*
X268976829Y-72981750D01*
X281885671Y-72981750D01*
X281885691Y-72981752D01*
X281904329Y-72981751D01*
X281904331Y-72981752D01*
X281931258Y-72981750D01*
X281931261Y-72981750D01*
X281961817Y-72981750D01*
X281961838Y-72981746D01*
X281998917Y-72981744D01*
X282130837Y-72951624D01*
X282252748Y-72892909D01*
X282358540Y-72808540D01*
X282442909Y-72702748D01*
X282501624Y-72580837D01*
X282531744Y-72448917D01*
X282531746Y-72411838D01*
X282531750Y-72411817D01*
X282531750Y-72381241D01*
X282531750Y-72381238D01*
X282531752Y-72354331D01*
X282531751Y-72354329D01*
X282531752Y-72335691D01*
X282531750Y-72335671D01*
X282531750Y-70067660D01*
X289762000Y-70067660D01*
X289792110Y-70199587D01*
X289792195Y-70199763D01*
X289850825Y-70321507D01*
X289935195Y-70427305D01*
X290040993Y-70511675D01*
X290162912Y-70570389D01*
X290294840Y-70600500D01*
X290346583Y-70600500D01*
X290362500Y-70600500D01*
X290389429Y-70600500D01*
X303335571Y-70600500D01*
X303378417Y-70600500D01*
X303430160Y-70600500D01*
X303562088Y-70570389D01*
X303684007Y-70511675D01*
X303789805Y-70427305D01*
X303874175Y-70321507D01*
X303932889Y-70199588D01*
X303963000Y-70067660D01*
X308812000Y-70067660D01*
X308842110Y-70199587D01*
X308842195Y-70199763D01*
X308900825Y-70321507D01*
X308985195Y-70427305D01*
X309090993Y-70511675D01*
X309212912Y-70570389D01*
X309344840Y-70600500D01*
X309396583Y-70600500D01*
X309412500Y-70600500D01*
X309439429Y-70600500D01*
X322385571Y-70600500D01*
X322428417Y-70600500D01*
X322480160Y-70600500D01*
X322612088Y-70570389D01*
X322734007Y-70511675D01*
X322839805Y-70427305D01*
X322924175Y-70321507D01*
X322982889Y-70199588D01*
X323013000Y-70067660D01*
X327862000Y-70067660D01*
X327892110Y-70199587D01*
X327892195Y-70199763D01*
X327950825Y-70321507D01*
X328035195Y-70427305D01*
X328140993Y-70511675D01*
X328262912Y-70570389D01*
X328394840Y-70600500D01*
X328446583Y-70600500D01*
X328462500Y-70600500D01*
X328489429Y-70600500D01*
X341435571Y-70600500D01*
X341478417Y-70600500D01*
X341530160Y-70600500D01*
X341662088Y-70570389D01*
X341784007Y-70511675D01*
X341889805Y-70427305D01*
X341974175Y-70321507D01*
X342032889Y-70199588D01*
X342063000Y-70067660D01*
X342063000Y-70000000D01*
X342063000Y-69973071D01*
X342063000Y-56984083D01*
X342063000Y-56932340D01*
X342032889Y-56800412D01*
X341974175Y-56678493D01*
X341889805Y-56572695D01*
X341784007Y-56488325D01*
X341723047Y-56458967D01*
X341662087Y-56429610D01*
X341530160Y-56399500D01*
X341478417Y-56399500D01*
X328489429Y-56399500D01*
X328462500Y-56399500D01*
X328394840Y-56399500D01*
X328262912Y-56429610D01*
X328140991Y-56488326D01*
X328035195Y-56572695D01*
X327950826Y-56678491D01*
X327892110Y-56800412D01*
X327862000Y-56932340D01*
X327862000Y-70067660D01*
X323013000Y-70067660D01*
X323013000Y-70000000D01*
X323013000Y-69973071D01*
X323013000Y-56984083D01*
X323013000Y-56932340D01*
X322982889Y-56800412D01*
X322924175Y-56678493D01*
X322839805Y-56572695D01*
X322734007Y-56488325D01*
X322673047Y-56458967D01*
X322612087Y-56429610D01*
X322480160Y-56399500D01*
X322428417Y-56399500D01*
X309439429Y-56399500D01*
X309412500Y-56399500D01*
X309344840Y-56399500D01*
X309212912Y-56429610D01*
X309090991Y-56488326D01*
X308985195Y-56572695D01*
X308900826Y-56678491D01*
X308842110Y-56800412D01*
X308812000Y-56932340D01*
X308812000Y-70067660D01*
X303963000Y-70067660D01*
X303963000Y-70000000D01*
X303963000Y-69973071D01*
X303963000Y-56984083D01*
X303963000Y-56932340D01*
X303932889Y-56800412D01*
X303874175Y-56678493D01*
X303789805Y-56572695D01*
X303684007Y-56488325D01*
X303623047Y-56458967D01*
X303562087Y-56429610D01*
X303430160Y-56399500D01*
X303378417Y-56399500D01*
X290389429Y-56399500D01*
X290362500Y-56399500D01*
X290294840Y-56399500D01*
X290162912Y-56429610D01*
X290040991Y-56488326D01*
X289935195Y-56572695D01*
X289850826Y-56678491D01*
X289792110Y-56800412D01*
X289762000Y-56932340D01*
X289762000Y-70067660D01*
X282531750Y-70067660D01*
X282531750Y-59426829D01*
X282531752Y-59426808D01*
X282531751Y-59408170D01*
X282531752Y-59408169D01*
X282531750Y-59381240D01*
X282531750Y-59365333D01*
X282531750Y-59341088D01*
X282531746Y-59341067D01*
X282531744Y-59313584D01*
X282523588Y-59277863D01*
X282501624Y-59181663D01*
X282442909Y-59059752D01*
X282358540Y-58953960D01*
X282252748Y-58869591D01*
X282130837Y-58810876D01*
X282091803Y-58801963D01*
X281998915Y-58780755D01*
X281962675Y-58780752D01*
X281962657Y-58780750D01*
X281947167Y-58780750D01*
X281931261Y-58780750D01*
X281931252Y-58780749D01*
X281904330Y-58780748D01*
X281885691Y-58780747D01*
X281885671Y-58780750D01*
X268976829Y-58780750D01*
X268976808Y-58780747D01*
X268958169Y-58780748D01*
X268931247Y-58780749D01*
X268931239Y-58780750D01*
X268902880Y-58780750D01*
X268902858Y-58780752D01*
X268863584Y-58780755D01*
X268731663Y-58810876D01*
X268609752Y-58869591D01*
X268503960Y-58953960D01*
X268419591Y-59059752D01*
X268360876Y-59181663D01*
X268330755Y-59313584D01*
X268330752Y-59352858D01*
X268330750Y-59352880D01*
X268330750Y-59381239D01*
X268330747Y-59426808D01*
X268330750Y-59426829D01*
X268330750Y-72335671D01*
X268330747Y-72335691D01*
X9100500Y-72335691D01*
X9100500Y-70035440D01*
X19843250Y-70035440D01*
X19843299Y-70035754D01*
X19843299Y-70067657D01*
X19873405Y-70199572D01*
X19932114Y-70321491D01*
X20016473Y-70427283D01*
X20122259Y-70511655D01*
X20180976Y-70539936D01*
X20244168Y-70570373D01*
X20327038Y-70589295D01*
X20376082Y-70600494D01*
X20376116Y-70600494D01*
X20403567Y-70600496D01*
X20403588Y-70600500D01*
X20427833Y-70600500D01*
X20443739Y-70600500D01*
X20443741Y-70600500D01*
X20470669Y-70600502D01*
X20470670Y-70600501D01*
X20489308Y-70600502D01*
X20489329Y-70600500D01*
X21391522Y-70600500D01*
X21391798Y-70600554D01*
X21443760Y-70600550D01*
X21511404Y-70600544D01*
X21511422Y-70600544D01*
X21535946Y-70594944D01*
X21643349Y-70570420D01*
X21765266Y-70511697D01*
X21871061Y-70427319D01*
X21955429Y-70321515D01*
X22014140Y-70199592D01*
X22014145Y-70199572D01*
X22044250Y-70067664D01*
X22044250Y-70035440D01*
X25443250Y-70035440D01*
X25443299Y-70035754D01*
X25443299Y-70067657D01*
X25473405Y-70199572D01*
X25532114Y-70321491D01*
X25616473Y-70427283D01*
X25722259Y-70511655D01*
X25780976Y-70539936D01*
X25844168Y-70570373D01*
X25927038Y-70589295D01*
X25976082Y-70600494D01*
X25976116Y-70600494D01*
X26003567Y-70600496D01*
X26003588Y-70600500D01*
X26027833Y-70600500D01*
X26043739Y-70600500D01*
X26043741Y-70600500D01*
X26070669Y-70600502D01*
X26070670Y-70600501D01*
X26089308Y-70600502D01*
X26089329Y-70600500D01*
X38991522Y-70600500D01*
X38991798Y-70600554D01*
X39043760Y-70600550D01*
X39111404Y-70600544D01*
X39111422Y-70600544D01*
X39135946Y-70594944D01*
X39243349Y-70570420D01*
X39365266Y-70511697D01*
X39471061Y-70427319D01*
X39555429Y-70321515D01*
X39614140Y-70199592D01*
X39614145Y-70199572D01*
X39644250Y-70067664D01*
X39644250Y-70035440D01*
X43043250Y-70035440D01*
X43043299Y-70035754D01*
X43043299Y-70067657D01*
X43073405Y-70199572D01*
X43132114Y-70321491D01*
X43216473Y-70427283D01*
X43322259Y-70511655D01*
X43380976Y-70539936D01*
X43444168Y-70570373D01*
X43527038Y-70589295D01*
X43576082Y-70600494D01*
X43576116Y-70600494D01*
X43603567Y-70600496D01*
X43603588Y-70600500D01*
X43627833Y-70600500D01*
X43643739Y-70600500D01*
X43643741Y-70600500D01*
X43670669Y-70600502D01*
X43670670Y-70600501D01*
X43689308Y-70600502D01*
X43689329Y-70600500D01*
X44591522Y-70600500D01*
X44591798Y-70600554D01*
X44643760Y-70600550D01*
X44711404Y-70600544D01*
X44711422Y-70600544D01*
X44735946Y-70594944D01*
X44843349Y-70570420D01*
X44965266Y-70511697D01*
X45071061Y-70427319D01*
X45155429Y-70321515D01*
X45214140Y-70199592D01*
X45214145Y-70199572D01*
X45244250Y-70067664D01*
X45244250Y-70067660D01*
X51637000Y-70067660D01*
X51667110Y-70199587D01*
X51667195Y-70199763D01*
X51725825Y-70321507D01*
X51810195Y-70427305D01*
X51915993Y-70511675D01*
X52037912Y-70570389D01*
X52169840Y-70600500D01*
X52221583Y-70600500D01*
X52237500Y-70600500D01*
X52264429Y-70600500D01*
X65210571Y-70600500D01*
X65253417Y-70600500D01*
X65305160Y-70600500D01*
X65437088Y-70570389D01*
X65559007Y-70511675D01*
X65664805Y-70427305D01*
X65749175Y-70321507D01*
X65807889Y-70199588D01*
X65838000Y-70067660D01*
X70687000Y-70067660D01*
X70717110Y-70199587D01*
X70717195Y-70199763D01*
X70775825Y-70321507D01*
X70860195Y-70427305D01*
X70965993Y-70511675D01*
X71087912Y-70570389D01*
X71219840Y-70600500D01*
X71271583Y-70600500D01*
X71287500Y-70600500D01*
X71314429Y-70600500D01*
X84260571Y-70600500D01*
X84303417Y-70600500D01*
X84355160Y-70600500D01*
X84487088Y-70570389D01*
X84609007Y-70511675D01*
X84714805Y-70427305D01*
X84799175Y-70321507D01*
X84857889Y-70199588D01*
X84888000Y-70067660D01*
X89737000Y-70067660D01*
X89767110Y-70199587D01*
X89767195Y-70199763D01*
X89825825Y-70321507D01*
X89910195Y-70427305D01*
X90015993Y-70511675D01*
X90137912Y-70570389D01*
X90269840Y-70600500D01*
X90321583Y-70600500D01*
X90337500Y-70600500D01*
X90364429Y-70600500D01*
X103310571Y-70600500D01*
X103353417Y-70600500D01*
X103405160Y-70600500D01*
X103537088Y-70570389D01*
X103659007Y-70511675D01*
X103764805Y-70427305D01*
X103849175Y-70321507D01*
X103907889Y-70199588D01*
X103938000Y-70067660D01*
X108787000Y-70067660D01*
X108817110Y-70199587D01*
X108817195Y-70199763D01*
X108875825Y-70321507D01*
X108960195Y-70427305D01*
X109065993Y-70511675D01*
X109187912Y-70570389D01*
X109319840Y-70600500D01*
X109371583Y-70600500D01*
X109387500Y-70600500D01*
X109414429Y-70600500D01*
X122360571Y-70600500D01*
X122403417Y-70600500D01*
X122455160Y-70600500D01*
X122587088Y-70570389D01*
X122709007Y-70511675D01*
X122814805Y-70427305D01*
X122899175Y-70321507D01*
X122957889Y-70199588D01*
X122988000Y-70067660D01*
X127837000Y-70067660D01*
X127867110Y-70199587D01*
X127867195Y-70199763D01*
X127925825Y-70321507D01*
X128010195Y-70427305D01*
X128115993Y-70511675D01*
X128237912Y-70570389D01*
X128369840Y-70600500D01*
X128421583Y-70600500D01*
X128437500Y-70600500D01*
X128464429Y-70600500D01*
X141410571Y-70600500D01*
X141453417Y-70600500D01*
X141505160Y-70600500D01*
X141637088Y-70570389D01*
X141759007Y-70511675D01*
X141864805Y-70427305D01*
X141949175Y-70321507D01*
X142007889Y-70199588D01*
X142038000Y-70067660D01*
X146887000Y-70067660D01*
X146917110Y-70199587D01*
X146917195Y-70199763D01*
X146975825Y-70321507D01*
X147060195Y-70427305D01*
X147165993Y-70511675D01*
X147287912Y-70570389D01*
X147419840Y-70600500D01*
X147471583Y-70600500D01*
X147487500Y-70600500D01*
X147514429Y-70600500D01*
X160460571Y-70600500D01*
X160503417Y-70600500D01*
X160555160Y-70600500D01*
X160687088Y-70570389D01*
X160809007Y-70511675D01*
X160914805Y-70427305D01*
X160999175Y-70321507D01*
X161057889Y-70199588D01*
X161088000Y-70067660D01*
X165937000Y-70067660D01*
X165967110Y-70199587D01*
X165967195Y-70199763D01*
X166025825Y-70321507D01*
X166110195Y-70427305D01*
X166215993Y-70511675D01*
X166337912Y-70570389D01*
X166469840Y-70600500D01*
X166521583Y-70600500D01*
X166537500Y-70600500D01*
X166564429Y-70600500D01*
X179510571Y-70600500D01*
X179553417Y-70600500D01*
X179605160Y-70600500D01*
X179737088Y-70570389D01*
X179859007Y-70511675D01*
X179964805Y-70427305D01*
X180049175Y-70321507D01*
X180107889Y-70199588D01*
X180138000Y-70067660D01*
X184987000Y-70067660D01*
X185017110Y-70199587D01*
X185017195Y-70199763D01*
X185075825Y-70321507D01*
X185160195Y-70427305D01*
X185265993Y-70511675D01*
X185387912Y-70570389D01*
X185519840Y-70600500D01*
X185571583Y-70600500D01*
X185587500Y-70600500D01*
X185614429Y-70600500D01*
X198560571Y-70600500D01*
X198603417Y-70600500D01*
X198655160Y-70600500D01*
X198787088Y-70570389D01*
X198909007Y-70511675D01*
X199014805Y-70427305D01*
X199099175Y-70321507D01*
X199157889Y-70199588D01*
X199188000Y-70067660D01*
X204037000Y-70067660D01*
X204067110Y-70199587D01*
X204067195Y-70199763D01*
X204125825Y-70321507D01*
X204210195Y-70427305D01*
X204315993Y-70511675D01*
X204437912Y-70570389D01*
X204569840Y-70600500D01*
X204621583Y-70600500D01*
X204637500Y-70600500D01*
X204664429Y-70600500D01*
X217610571Y-70600500D01*
X217653417Y-70600500D01*
X217705160Y-70600500D01*
X217837088Y-70570389D01*
X217959007Y-70511675D01*
X218064805Y-70427305D01*
X218149175Y-70321507D01*
X218207889Y-70199588D01*
X218238000Y-70067660D01*
X223087000Y-70067660D01*
X223117110Y-70199587D01*
X223117195Y-70199763D01*
X223175825Y-70321507D01*
X223260195Y-70427305D01*
X223365993Y-70511675D01*
X223487912Y-70570389D01*
X223619840Y-70600500D01*
X223671583Y-70600500D01*
X223687500Y-70600500D01*
X223714429Y-70600500D01*
X236660571Y-70600500D01*
X236703417Y-70600500D01*
X236755160Y-70600500D01*
X236887088Y-70570389D01*
X237009007Y-70511675D01*
X237114805Y-70427305D01*
X237199175Y-70321507D01*
X237257889Y-70199588D01*
X237288000Y-70067660D01*
X237288000Y-70035440D01*
X244518250Y-70035440D01*
X244518299Y-70035754D01*
X244518299Y-70067657D01*
X244548405Y-70199572D01*
X244607114Y-70321491D01*
X244691473Y-70427283D01*
X244797259Y-70511655D01*
X244855976Y-70539936D01*
X244919168Y-70570373D01*
X245002038Y-70589295D01*
X245051082Y-70600494D01*
X245051116Y-70600494D01*
X245078567Y-70600496D01*
X245078588Y-70600500D01*
X245102833Y-70600500D01*
X245118739Y-70600500D01*
X245118741Y-70600500D01*
X245145669Y-70600502D01*
X245145670Y-70600501D01*
X245164308Y-70600502D01*
X245164329Y-70600500D01*
X258066522Y-70600500D01*
X258066798Y-70600554D01*
X258118760Y-70600550D01*
X258186404Y-70600544D01*
X258186422Y-70600544D01*
X258210946Y-70594944D01*
X258318349Y-70570420D01*
X258440266Y-70511697D01*
X258546061Y-70427319D01*
X258630429Y-70321515D01*
X258689140Y-70199592D01*
X258689145Y-70199572D01*
X258719250Y-70067664D01*
X258719250Y-56964300D01*
X258719200Y-56963984D01*
X258719201Y-56932344D01*
X258704147Y-56866384D01*
X258689094Y-56800427D01*
X258685433Y-56792826D01*
X258630387Y-56678511D01*
X258630369Y-56678488D01*
X258546026Y-56572716D01*
X258440240Y-56488344D01*
X258318332Y-56429627D01*
X258186416Y-56399505D01*
X258150175Y-56399502D01*
X258150157Y-56399500D01*
X258134667Y-56399500D01*
X258118761Y-56399500D01*
X258118752Y-56399499D01*
X258091830Y-56399498D01*
X258073191Y-56399497D01*
X258073171Y-56399500D01*
X245170978Y-56399500D01*
X245170701Y-56399445D01*
X245051077Y-56399455D01*
X244919150Y-56429580D01*
X244797236Y-56488301D01*
X244691438Y-56572680D01*
X244607068Y-56678488D01*
X244548359Y-56800407D01*
X244518250Y-56932336D01*
X244518250Y-70035440D01*
X237288000Y-70035440D01*
X237288000Y-70000000D01*
X237288000Y-69973071D01*
X237288000Y-56984083D01*
X237288000Y-56932340D01*
X237257889Y-56800412D01*
X237199175Y-56678493D01*
X237114805Y-56572695D01*
X237009007Y-56488325D01*
X236948047Y-56458967D01*
X236887087Y-56429610D01*
X236755160Y-56399500D01*
X236703417Y-56399500D01*
X223714429Y-56399500D01*
X223687500Y-56399500D01*
X223619840Y-56399500D01*
X223487912Y-56429610D01*
X223365991Y-56488326D01*
X223260195Y-56572695D01*
X223175826Y-56678491D01*
X223117110Y-56800412D01*
X223087000Y-56932340D01*
X223087000Y-70067660D01*
X218238000Y-70067660D01*
X218238000Y-70000000D01*
X218238000Y-69973071D01*
X218238000Y-56984083D01*
X218238000Y-56932340D01*
X218207889Y-56800412D01*
X218149175Y-56678493D01*
X218064805Y-56572695D01*
X217959007Y-56488325D01*
X217898047Y-56458967D01*
X217837087Y-56429610D01*
X217705160Y-56399500D01*
X217653417Y-56399500D01*
X204664429Y-56399500D01*
X204637500Y-56399500D01*
X204569840Y-56399500D01*
X204437912Y-56429610D01*
X204315991Y-56488326D01*
X204210195Y-56572695D01*
X204125826Y-56678491D01*
X204067110Y-56800412D01*
X204037000Y-56932340D01*
X204037000Y-70067660D01*
X199188000Y-70067660D01*
X199188000Y-70000000D01*
X199188000Y-69973071D01*
X199188000Y-56984083D01*
X199188000Y-56932340D01*
X199157889Y-56800412D01*
X199099175Y-56678493D01*
X199014805Y-56572695D01*
X198909007Y-56488325D01*
X198848047Y-56458967D01*
X198787087Y-56429610D01*
X198655160Y-56399500D01*
X198603417Y-56399500D01*
X185614429Y-56399500D01*
X185587500Y-56399500D01*
X185519840Y-56399500D01*
X185387912Y-56429610D01*
X185265991Y-56488326D01*
X185160195Y-56572695D01*
X185075826Y-56678491D01*
X185017110Y-56800412D01*
X184987000Y-56932340D01*
X184987000Y-70067660D01*
X180138000Y-70067660D01*
X180138000Y-70000000D01*
X180138000Y-69973071D01*
X180138000Y-56984083D01*
X180138000Y-56932340D01*
X180107889Y-56800412D01*
X180049175Y-56678493D01*
X179964805Y-56572695D01*
X179859007Y-56488325D01*
X179798047Y-56458967D01*
X179737087Y-56429610D01*
X179605160Y-56399500D01*
X179553417Y-56399500D01*
X166564429Y-56399500D01*
X166537500Y-56399500D01*
X166469840Y-56399500D01*
X166337912Y-56429610D01*
X166215991Y-56488326D01*
X166110195Y-56572695D01*
X166025826Y-56678491D01*
X165967110Y-56800412D01*
X165937000Y-56932340D01*
X165937000Y-70067660D01*
X161088000Y-70067660D01*
X161088000Y-70000000D01*
X161088000Y-69973071D01*
X161088000Y-56984083D01*
X161088000Y-56932340D01*
X161057889Y-56800412D01*
X160999175Y-56678493D01*
X160914805Y-56572695D01*
X160809007Y-56488325D01*
X160748047Y-56458967D01*
X160687087Y-56429610D01*
X160555160Y-56399500D01*
X160503417Y-56399500D01*
X147514429Y-56399500D01*
X147487500Y-56399500D01*
X147419840Y-56399500D01*
X147287912Y-56429610D01*
X147165991Y-56488326D01*
X147060195Y-56572695D01*
X146975826Y-56678491D01*
X146917110Y-56800412D01*
X146887000Y-56932340D01*
X146887000Y-70067660D01*
X142038000Y-70067660D01*
X142038000Y-70000000D01*
X142038000Y-69973071D01*
X142038000Y-56984083D01*
X142038000Y-56932340D01*
X142007889Y-56800412D01*
X141949175Y-56678493D01*
X141864805Y-56572695D01*
X141759007Y-56488325D01*
X141698047Y-56458967D01*
X141637087Y-56429610D01*
X141505160Y-56399500D01*
X141453417Y-56399500D01*
X128464429Y-56399500D01*
X128437500Y-56399500D01*
X128369840Y-56399500D01*
X128237912Y-56429610D01*
X128115991Y-56488326D01*
X128010195Y-56572695D01*
X127925826Y-56678491D01*
X127867110Y-56800412D01*
X127837000Y-56932340D01*
X127837000Y-70067660D01*
X122988000Y-70067660D01*
X122988000Y-70000000D01*
X122988000Y-69973071D01*
X122988000Y-56984083D01*
X122988000Y-56932340D01*
X122957889Y-56800412D01*
X122899175Y-56678493D01*
X122814805Y-56572695D01*
X122709007Y-56488325D01*
X122648047Y-56458967D01*
X122587087Y-56429610D01*
X122455160Y-56399500D01*
X122403417Y-56399500D01*
X109414429Y-56399500D01*
X109387500Y-56399500D01*
X109319840Y-56399500D01*
X109187912Y-56429610D01*
X109065991Y-56488326D01*
X108960195Y-56572695D01*
X108875826Y-56678491D01*
X108817110Y-56800412D01*
X108787000Y-56932340D01*
X108787000Y-70067660D01*
X103938000Y-70067660D01*
X103938000Y-70000000D01*
X103938000Y-69973071D01*
X103938000Y-56984083D01*
X103938000Y-56932340D01*
X103907889Y-56800412D01*
X103849175Y-56678493D01*
X103764805Y-56572695D01*
X103659007Y-56488325D01*
X103598047Y-56458967D01*
X103537087Y-56429610D01*
X103405160Y-56399500D01*
X103353417Y-56399500D01*
X90364429Y-56399500D01*
X90337500Y-56399500D01*
X90269840Y-56399500D01*
X90137912Y-56429610D01*
X90015991Y-56488326D01*
X89910195Y-56572695D01*
X89825826Y-56678491D01*
X89767110Y-56800412D01*
X89737000Y-56932340D01*
X89737000Y-70067660D01*
X84888000Y-70067660D01*
X84888000Y-70000000D01*
X84888000Y-69973071D01*
X84888000Y-56984083D01*
X84888000Y-56932340D01*
X84857889Y-56800412D01*
X84799175Y-56678493D01*
X84714805Y-56572695D01*
X84609007Y-56488325D01*
X84548047Y-56458967D01*
X84487087Y-56429610D01*
X84355160Y-56399500D01*
X84303417Y-56399500D01*
X71314429Y-56399500D01*
X71287500Y-56399500D01*
X71219840Y-56399500D01*
X71087912Y-56429610D01*
X70965991Y-56488326D01*
X70860195Y-56572695D01*
X70775826Y-56678491D01*
X70717110Y-56800412D01*
X70687000Y-56932340D01*
X70687000Y-70067660D01*
X65838000Y-70067660D01*
X65838000Y-70000000D01*
X65838000Y-69973071D01*
X65838000Y-56984083D01*
X65838000Y-56932340D01*
X65807889Y-56800412D01*
X65749175Y-56678493D01*
X65664805Y-56572695D01*
X65559007Y-56488325D01*
X65498047Y-56458967D01*
X65437087Y-56429610D01*
X65305160Y-56399500D01*
X65253417Y-56399500D01*
X52264429Y-56399500D01*
X52237500Y-56399500D01*
X52169840Y-56399500D01*
X52037912Y-56429610D01*
X51915991Y-56488326D01*
X51810195Y-56572695D01*
X51725826Y-56678491D01*
X51667110Y-56800412D01*
X51637000Y-56932340D01*
X51637000Y-70067660D01*
X45244250Y-70067660D01*
X45244250Y-56964300D01*
X45244200Y-56963984D01*
X45244201Y-56932344D01*
X45229146Y-56866384D01*
X45214094Y-56800427D01*
X45210433Y-56792826D01*
X45155387Y-56678511D01*
X45155369Y-56678488D01*
X45071026Y-56572716D01*
X44965240Y-56488344D01*
X44843332Y-56429627D01*
X44711416Y-56399505D01*
X44675175Y-56399502D01*
X44675157Y-56399500D01*
X44659667Y-56399500D01*
X44643761Y-56399500D01*
X44643752Y-56399499D01*
X44616830Y-56399498D01*
X44598191Y-56399497D01*
X44598171Y-56399500D01*
X43695978Y-56399500D01*
X43695701Y-56399445D01*
X43576077Y-56399455D01*
X43444150Y-56429580D01*
X43322236Y-56488301D01*
X43216438Y-56572680D01*
X43132068Y-56678488D01*
X43073359Y-56800407D01*
X43043250Y-56932336D01*
X43043250Y-70035440D01*
X39644250Y-70035440D01*
X39644250Y-56964300D01*
X39644200Y-56963984D01*
X39644201Y-56932344D01*
X39629146Y-56866384D01*
X39614094Y-56800427D01*
X39610433Y-56792826D01*
X39555387Y-56678511D01*
X39555369Y-56678488D01*
X39471026Y-56572716D01*
X39365240Y-56488344D01*
X39243332Y-56429627D01*
X39111416Y-56399505D01*
X39075175Y-56399502D01*
X39075157Y-56399500D01*
X39059667Y-56399500D01*
X39043761Y-56399500D01*
X39043752Y-56399499D01*
X39016830Y-56399498D01*
X38998191Y-56399497D01*
X38998171Y-56399500D01*
X26095978Y-56399500D01*
X26095701Y-56399445D01*
X25976077Y-56399455D01*
X25844150Y-56429580D01*
X25722236Y-56488301D01*
X25616438Y-56572680D01*
X25532068Y-56678488D01*
X25473359Y-56800407D01*
X25443250Y-56932336D01*
X25443250Y-70035440D01*
X22044250Y-70035440D01*
X22044250Y-56964300D01*
X22044200Y-56963984D01*
X22044201Y-56932344D01*
X22029146Y-56866384D01*
X22014094Y-56800427D01*
X22010433Y-56792826D01*
X21955387Y-56678511D01*
X21955369Y-56678488D01*
X21871026Y-56572716D01*
X21765240Y-56488344D01*
X21643332Y-56429627D01*
X21511416Y-56399505D01*
X21475175Y-56399502D01*
X21475157Y-56399500D01*
X21459667Y-56399500D01*
X21443761Y-56399500D01*
X21443752Y-56399499D01*
X21416830Y-56399498D01*
X21398191Y-56399497D01*
X21398171Y-56399500D01*
X20495978Y-56399500D01*
X20495701Y-56399445D01*
X20376077Y-56399455D01*
X20244150Y-56429580D01*
X20122236Y-56488301D01*
X20016438Y-56572680D01*
X19932068Y-56678488D01*
X19873359Y-56800407D01*
X19843250Y-56932336D01*
X19843250Y-70035440D01*
X9100500Y-70035440D01*
X9100500Y-50985440D01*
X20680750Y-50985440D01*
X20680799Y-50985754D01*
X20680799Y-51017657D01*
X20710905Y-51149572D01*
X20769614Y-51271491D01*
X20853973Y-51377283D01*
X20959759Y-51461655D01*
X21018476Y-51489936D01*
X21081668Y-51520373D01*
X21164538Y-51539295D01*
X21213582Y-51550494D01*
X21213616Y-51550494D01*
X21241067Y-51550496D01*
X21241088Y-51550500D01*
X21265333Y-51550500D01*
X21281239Y-51550500D01*
X21281241Y-51550500D01*
X21308169Y-51550502D01*
X21308170Y-51550501D01*
X21326808Y-51550502D01*
X21326829Y-51550500D01*
X34229022Y-51550500D01*
X34229298Y-51550554D01*
X34281260Y-51550550D01*
X34348904Y-51550544D01*
X34348922Y-51550544D01*
X34373446Y-51544944D01*
X34480849Y-51520420D01*
X34602766Y-51461697D01*
X34708561Y-51377319D01*
X34792929Y-51271515D01*
X34851640Y-51149592D01*
X34865994Y-51086698D01*
X34881750Y-51017664D01*
X34881750Y-51017660D01*
X42112000Y-51017660D01*
X42142110Y-51149587D01*
X42171468Y-51210547D01*
X42200825Y-51271507D01*
X42285195Y-51377305D01*
X42390993Y-51461675D01*
X42512912Y-51520389D01*
X42644840Y-51550500D01*
X42696583Y-51550500D01*
X42712500Y-51550500D01*
X42739429Y-51550500D01*
X55685571Y-51550500D01*
X55728417Y-51550500D01*
X55780160Y-51550500D01*
X55912088Y-51520389D01*
X56034007Y-51461675D01*
X56139805Y-51377305D01*
X56224175Y-51271507D01*
X56282889Y-51149588D01*
X56313000Y-51017660D01*
X61162000Y-51017660D01*
X61192110Y-51149587D01*
X61221468Y-51210547D01*
X61250825Y-51271507D01*
X61335195Y-51377305D01*
X61440993Y-51461675D01*
X61562912Y-51520389D01*
X61694840Y-51550500D01*
X61746583Y-51550500D01*
X61762500Y-51550500D01*
X61789429Y-51550500D01*
X74735571Y-51550500D01*
X74778417Y-51550500D01*
X74830160Y-51550500D01*
X74962088Y-51520389D01*
X75084007Y-51461675D01*
X75189805Y-51377305D01*
X75274175Y-51271507D01*
X75332889Y-51149588D01*
X75363000Y-51017660D01*
X80212000Y-51017660D01*
X80242110Y-51149587D01*
X80271468Y-51210547D01*
X80300825Y-51271507D01*
X80385195Y-51377305D01*
X80490993Y-51461675D01*
X80612912Y-51520389D01*
X80744840Y-51550500D01*
X80796583Y-51550500D01*
X80812500Y-51550500D01*
X80839429Y-51550500D01*
X93785571Y-51550500D01*
X93828417Y-51550500D01*
X93880160Y-51550500D01*
X94012088Y-51520389D01*
X94134007Y-51461675D01*
X94239805Y-51377305D01*
X94324175Y-51271507D01*
X94382889Y-51149588D01*
X94413000Y-51017660D01*
X99262000Y-51017660D01*
X99292110Y-51149587D01*
X99321467Y-51210547D01*
X99350825Y-51271507D01*
X99435195Y-51377305D01*
X99540993Y-51461675D01*
X99662912Y-51520389D01*
X99794840Y-51550500D01*
X99846583Y-51550500D01*
X99862500Y-51550500D01*
X99889429Y-51550500D01*
X112835571Y-51550500D01*
X112878417Y-51550500D01*
X112930160Y-51550500D01*
X113062088Y-51520389D01*
X113184007Y-51461675D01*
X113289805Y-51377305D01*
X113374175Y-51271507D01*
X113432889Y-51149588D01*
X113463000Y-51017660D01*
X118312000Y-51017660D01*
X118342110Y-51149587D01*
X118371467Y-51210547D01*
X118400825Y-51271507D01*
X118485195Y-51377305D01*
X118590993Y-51461675D01*
X118712912Y-51520389D01*
X118844840Y-51550500D01*
X118896583Y-51550500D01*
X118912500Y-51550500D01*
X118939429Y-51550500D01*
X131885571Y-51550500D01*
X131928417Y-51550500D01*
X131980160Y-51550500D01*
X132112088Y-51520389D01*
X132234007Y-51461675D01*
X132339805Y-51377305D01*
X132424175Y-51271507D01*
X132482889Y-51149588D01*
X132513000Y-51017660D01*
X137362000Y-51017660D01*
X137392110Y-51149587D01*
X137421467Y-51210547D01*
X137450825Y-51271507D01*
X137535195Y-51377305D01*
X137640993Y-51461675D01*
X137762912Y-51520389D01*
X137894840Y-51550500D01*
X137946583Y-51550500D01*
X137962500Y-51550500D01*
X137989429Y-51550500D01*
X150935571Y-51550500D01*
X150978417Y-51550500D01*
X151030160Y-51550500D01*
X151162088Y-51520389D01*
X151284007Y-51461675D01*
X151389805Y-51377305D01*
X151474175Y-51271507D01*
X151532889Y-51149588D01*
X151563000Y-51017660D01*
X156412000Y-51017660D01*
X156442110Y-51149587D01*
X156471467Y-51210547D01*
X156500825Y-51271507D01*
X156585195Y-51377305D01*
X156690993Y-51461675D01*
X156812912Y-51520389D01*
X156944840Y-51550500D01*
X156996583Y-51550500D01*
X157012500Y-51550500D01*
X157039429Y-51550500D01*
X169985571Y-51550500D01*
X170028417Y-51550500D01*
X170080160Y-51550500D01*
X170212088Y-51520389D01*
X170334007Y-51461675D01*
X170439805Y-51377305D01*
X170524175Y-51271507D01*
X170582889Y-51149588D01*
X170613000Y-51017660D01*
X175462000Y-51017660D01*
X175492110Y-51149587D01*
X175521467Y-51210547D01*
X175550825Y-51271507D01*
X175635195Y-51377305D01*
X175740993Y-51461675D01*
X175862912Y-51520389D01*
X175994840Y-51550500D01*
X176046583Y-51550500D01*
X176062500Y-51550500D01*
X176089429Y-51550500D01*
X189035571Y-51550500D01*
X189078417Y-51550500D01*
X189130160Y-51550500D01*
X189262088Y-51520389D01*
X189384007Y-51461675D01*
X189489805Y-51377305D01*
X189574175Y-51271507D01*
X189632889Y-51149588D01*
X189663000Y-51017660D01*
X194512000Y-51017660D01*
X194542110Y-51149587D01*
X194571467Y-51210547D01*
X194600825Y-51271507D01*
X194685195Y-51377305D01*
X194790993Y-51461675D01*
X194912912Y-51520389D01*
X195044840Y-51550500D01*
X195096583Y-51550500D01*
X195112500Y-51550500D01*
X195139429Y-51550500D01*
X208085571Y-51550500D01*
X208128417Y-51550500D01*
X208180160Y-51550500D01*
X208312088Y-51520389D01*
X208434007Y-51461675D01*
X208539805Y-51377305D01*
X208624175Y-51271507D01*
X208682889Y-51149588D01*
X208713000Y-51017660D01*
X213562000Y-51017660D01*
X213592110Y-51149587D01*
X213621467Y-51210547D01*
X213650825Y-51271507D01*
X213735195Y-51377305D01*
X213840993Y-51461675D01*
X213962912Y-51520389D01*
X214094840Y-51550500D01*
X214146583Y-51550500D01*
X214162500Y-51550500D01*
X214189429Y-51550500D01*
X227135571Y-51550500D01*
X227178417Y-51550500D01*
X227230160Y-51550500D01*
X227362088Y-51520389D01*
X227484007Y-51461675D01*
X227589805Y-51377305D01*
X227674175Y-51271507D01*
X227732889Y-51149588D01*
X227763000Y-51017660D01*
X232612000Y-51017660D01*
X232642110Y-51149587D01*
X232671467Y-51210547D01*
X232700825Y-51271507D01*
X232785195Y-51377305D01*
X232890993Y-51461675D01*
X233012912Y-51520389D01*
X233144840Y-51550500D01*
X233196583Y-51550500D01*
X233212500Y-51550500D01*
X233239429Y-51550500D01*
X246185571Y-51550500D01*
X246228417Y-51550500D01*
X246280160Y-51550500D01*
X246412088Y-51520389D01*
X246534007Y-51461675D01*
X246639805Y-51377305D01*
X246724175Y-51271507D01*
X246782889Y-51149588D01*
X246813000Y-51017660D01*
X246813000Y-50950000D01*
X246813000Y-50923071D01*
X246813000Y-47935440D01*
X253268250Y-47935440D01*
X253268299Y-47935754D01*
X253268299Y-47967657D01*
X253298405Y-48099572D01*
X253357114Y-48221491D01*
X253441473Y-48327283D01*
X253547259Y-48411655D01*
X253605976Y-48439936D01*
X253669168Y-48470373D01*
X253752038Y-48489295D01*
X253801082Y-48500494D01*
X253801116Y-48500494D01*
X253828567Y-48500496D01*
X253828588Y-48500500D01*
X253852833Y-48500500D01*
X253868739Y-48500500D01*
X253868741Y-48500500D01*
X253895669Y-48500502D01*
X253895670Y-48500501D01*
X253914308Y-48500502D01*
X253914329Y-48500500D01*
X254035472Y-48500500D01*
X254051928Y-48501579D01*
X254081329Y-48505452D01*
X254130688Y-48511954D01*
X254162453Y-48520469D01*
X254228149Y-48547687D01*
X254256629Y-48564132D01*
X254284837Y-48585780D01*
X254313044Y-48607427D01*
X254336298Y-48630683D01*
X254379587Y-48687102D01*
X254396030Y-48715584D01*
X254421945Y-48778154D01*
X254423242Y-48781284D01*
X254431753Y-48813052D01*
X254442172Y-48892193D01*
X254443250Y-48908639D01*
X254443250Y-49773440D01*
X254443299Y-49773754D01*
X254443299Y-49805657D01*
X254473405Y-49937572D01*
X254532114Y-50059491D01*
X254616473Y-50165283D01*
X254722259Y-50249655D01*
X254780976Y-50277936D01*
X254844168Y-50308373D01*
X254927038Y-50327295D01*
X254976082Y-50338494D01*
X254976116Y-50338494D01*
X255003567Y-50338496D01*
X255003588Y-50338500D01*
X255027833Y-50338500D01*
X255043739Y-50338500D01*
X255043741Y-50338500D01*
X255070669Y-50338502D01*
X255070670Y-50338501D01*
X255089308Y-50338502D01*
X255089329Y-50338500D01*
X259917250Y-50338500D01*
X259980250Y-50355381D01*
X260026369Y-50401500D01*
X260043250Y-50464500D01*
X260043250Y-50610440D01*
X260043299Y-50610754D01*
X260043299Y-50642657D01*
X260073405Y-50774572D01*
X260132114Y-50896491D01*
X260216473Y-51002283D01*
X260322259Y-51086655D01*
X260380976Y-51114936D01*
X260444168Y-51145373D01*
X260527038Y-51164295D01*
X260576082Y-51175494D01*
X260576116Y-51175494D01*
X260603567Y-51175496D01*
X260603588Y-51175500D01*
X260627833Y-51175500D01*
X260643739Y-51175500D01*
X260643741Y-51175500D01*
X260670669Y-51175502D01*
X260670670Y-51175501D01*
X260689308Y-51175502D01*
X260689329Y-51175500D01*
X262891522Y-51175500D01*
X262891798Y-51175554D01*
X262943760Y-51175550D01*
X263011404Y-51175544D01*
X263011422Y-51175544D01*
X263035946Y-51169944D01*
X263143349Y-51145420D01*
X263265266Y-51086697D01*
X263351826Y-51017660D01*
X289762000Y-51017660D01*
X289792110Y-51149587D01*
X289821467Y-51210547D01*
X289850825Y-51271507D01*
X289935195Y-51377305D01*
X290040993Y-51461675D01*
X290162912Y-51520389D01*
X290294840Y-51550500D01*
X290346583Y-51550500D01*
X290362500Y-51550500D01*
X290389429Y-51550500D01*
X303335571Y-51550500D01*
X303378417Y-51550500D01*
X303430160Y-51550500D01*
X303562088Y-51520389D01*
X303684007Y-51461675D01*
X303789805Y-51377305D01*
X303874175Y-51271507D01*
X303932889Y-51149588D01*
X303963000Y-51017660D01*
X308812000Y-51017660D01*
X308842110Y-51149587D01*
X308871467Y-51210547D01*
X308900825Y-51271507D01*
X308985195Y-51377305D01*
X309090993Y-51461675D01*
X309212912Y-51520389D01*
X309344840Y-51550500D01*
X309396583Y-51550500D01*
X309412500Y-51550500D01*
X309439429Y-51550500D01*
X322385571Y-51550500D01*
X322428417Y-51550500D01*
X322480160Y-51550500D01*
X322612088Y-51520389D01*
X322734007Y-51461675D01*
X322839805Y-51377305D01*
X322924175Y-51271507D01*
X322982889Y-51149588D01*
X323013000Y-51017660D01*
X327862000Y-51017660D01*
X327892110Y-51149587D01*
X327921467Y-51210547D01*
X327950825Y-51271507D01*
X328035195Y-51377305D01*
X328140993Y-51461675D01*
X328262912Y-51520389D01*
X328394840Y-51550500D01*
X328446583Y-51550500D01*
X328462500Y-51550500D01*
X328489429Y-51550500D01*
X341435571Y-51550500D01*
X341478417Y-51550500D01*
X341530160Y-51550500D01*
X341662088Y-51520389D01*
X341784007Y-51461675D01*
X341889805Y-51377305D01*
X341974175Y-51271507D01*
X342032889Y-51149588D01*
X342063000Y-51017660D01*
X346912000Y-51017660D01*
X346942110Y-51149587D01*
X346971467Y-51210547D01*
X347000825Y-51271507D01*
X347085195Y-51377305D01*
X347190993Y-51461675D01*
X347312912Y-51520389D01*
X347444840Y-51550500D01*
X347496583Y-51550500D01*
X347512500Y-51550500D01*
X347539429Y-51550500D01*
X360485571Y-51550500D01*
X360528417Y-51550500D01*
X360580160Y-51550500D01*
X360712088Y-51520389D01*
X360834007Y-51461675D01*
X360939805Y-51377305D01*
X361024175Y-51271507D01*
X361082889Y-51149588D01*
X361113000Y-51017660D01*
X361113000Y-50950000D01*
X361113000Y-50923071D01*
X361113000Y-37934083D01*
X361113000Y-37882340D01*
X361082889Y-37750412D01*
X361024175Y-37628493D01*
X360939805Y-37522695D01*
X360834007Y-37438325D01*
X360740227Y-37393162D01*
X360712087Y-37379610D01*
X360580160Y-37349500D01*
X360528417Y-37349500D01*
X347539429Y-37349500D01*
X347512500Y-37349500D01*
X347444840Y-37349500D01*
X347312912Y-37379610D01*
X347190991Y-37438326D01*
X347085195Y-37522695D01*
X347000826Y-37628491D01*
X346942110Y-37750412D01*
X346912000Y-37882340D01*
X346912000Y-51017660D01*
X342063000Y-51017660D01*
X342063000Y-50950000D01*
X342063000Y-50923071D01*
X342063000Y-37934083D01*
X342063000Y-37882340D01*
X342032889Y-37750412D01*
X341974175Y-37628493D01*
X341889805Y-37522695D01*
X341784007Y-37438325D01*
X341690227Y-37393162D01*
X341662087Y-37379610D01*
X341530160Y-37349500D01*
X341478417Y-37349500D01*
X328489429Y-37349500D01*
X328462500Y-37349500D01*
X328394840Y-37349500D01*
X328262912Y-37379610D01*
X328140991Y-37438326D01*
X328035195Y-37522695D01*
X327950826Y-37628491D01*
X327892110Y-37750412D01*
X327862000Y-37882340D01*
X327862000Y-51017660D01*
X323013000Y-51017660D01*
X323013000Y-50950000D01*
X323013000Y-50923071D01*
X323013000Y-37934083D01*
X323013000Y-37882340D01*
X322982889Y-37750412D01*
X322924175Y-37628493D01*
X322839805Y-37522695D01*
X322734007Y-37438325D01*
X322640227Y-37393162D01*
X322612087Y-37379610D01*
X322480160Y-37349500D01*
X322428417Y-37349500D01*
X309439429Y-37349500D01*
X309412500Y-37349500D01*
X309344840Y-37349500D01*
X309212912Y-37379610D01*
X309090991Y-37438326D01*
X308985195Y-37522695D01*
X308900826Y-37628491D01*
X308842110Y-37750412D01*
X308812000Y-37882340D01*
X308812000Y-51017660D01*
X303963000Y-51017660D01*
X303963000Y-50950000D01*
X303963000Y-50923071D01*
X303963000Y-37934083D01*
X303963000Y-37882340D01*
X303932889Y-37750412D01*
X303874175Y-37628493D01*
X303789805Y-37522695D01*
X303684007Y-37438325D01*
X303590227Y-37393162D01*
X303562087Y-37379610D01*
X303430160Y-37349500D01*
X303378417Y-37349500D01*
X290389429Y-37349500D01*
X290362500Y-37349500D01*
X290294840Y-37349500D01*
X290162912Y-37379610D01*
X290040991Y-37438326D01*
X289935195Y-37522695D01*
X289850826Y-37628491D01*
X289792110Y-37750412D01*
X289762000Y-37882340D01*
X289762000Y-51017660D01*
X263351826Y-51017660D01*
X263371061Y-51002319D01*
X263455429Y-50896515D01*
X263514140Y-50774592D01*
X263514145Y-50774572D01*
X263544250Y-50642664D01*
X263544250Y-50464500D01*
X263561131Y-50401500D01*
X263607250Y-50355381D01*
X263670250Y-50338500D01*
X266291522Y-50338500D01*
X266291798Y-50338554D01*
X266343760Y-50338550D01*
X266411404Y-50338544D01*
X266411422Y-50338544D01*
X266435946Y-50332944D01*
X266543349Y-50308420D01*
X266665266Y-50249697D01*
X266771061Y-50165319D01*
X266855429Y-50059515D01*
X266914140Y-49937592D01*
X266914145Y-49937572D01*
X266944250Y-49805664D01*
X266944250Y-43952300D01*
X266944200Y-43951984D01*
X266944201Y-43920344D01*
X266929147Y-43854384D01*
X266914094Y-43788427D01*
X266910433Y-43780826D01*
X266855387Y-43666511D01*
X266855369Y-43666488D01*
X266771026Y-43560716D01*
X266665240Y-43476344D01*
X266543332Y-43417627D01*
X266411416Y-43387505D01*
X266375175Y-43387502D01*
X266375157Y-43387500D01*
X266359667Y-43387500D01*
X266343761Y-43387500D01*
X266343752Y-43387499D01*
X266316830Y-43387498D01*
X266298191Y-43387497D01*
X266298171Y-43387500D01*
X263952028Y-43387500D01*
X263935570Y-43386421D01*
X263856812Y-43376045D01*
X263825044Y-43367529D01*
X263759352Y-43340313D01*
X263730867Y-43323865D01*
X263674455Y-43280572D01*
X263651201Y-43257316D01*
X263629556Y-43229106D01*
X263607910Y-43200894D01*
X263591470Y-43172418D01*
X263564256Y-43106711D01*
X263555746Y-43074946D01*
X263545328Y-42995806D01*
X263544250Y-42979361D01*
X263544250Y-42433257D01*
X263545328Y-42416812D01*
X263555698Y-42338040D01*
X263564210Y-42306271D01*
X263591414Y-42240589D01*
X263591427Y-42240558D01*
X263607865Y-42212082D01*
X263651167Y-42155645D01*
X263674413Y-42132396D01*
X263730850Y-42089085D01*
X263759321Y-42072645D01*
X263825034Y-42045420D01*
X263856795Y-42036907D01*
X263923297Y-42028145D01*
X263935191Y-42026579D01*
X263951648Y-42025500D01*
X267591522Y-42025500D01*
X267591798Y-42025554D01*
X267643760Y-42025550D01*
X267711404Y-42025544D01*
X267711422Y-42025544D01*
X267735946Y-42019944D01*
X267843349Y-41995420D01*
X267965266Y-41936697D01*
X268071061Y-41852319D01*
X268155429Y-41746515D01*
X268214140Y-41624592D01*
X268214145Y-41624572D01*
X268244250Y-41492664D01*
X268244250Y-37236399D01*
X279594718Y-37236399D01*
X279615355Y-37393161D01*
X279675864Y-37539242D01*
X279772117Y-37664682D01*
X279897557Y-37760935D01*
X279897558Y-37760935D01*
X279897559Y-37760936D01*
X280043638Y-37821444D01*
X280200400Y-37842082D01*
X280357162Y-37821444D01*
X280503241Y-37760936D01*
X280628682Y-37664682D01*
X280724936Y-37539241D01*
X280785444Y-37393162D01*
X280806082Y-37236400D01*
X280785444Y-37079638D01*
X280724936Y-36933559D01*
X280724935Y-36933558D01*
X280724935Y-36933557D01*
X280628682Y-36808117D01*
X280503242Y-36711864D01*
X280357161Y-36651355D01*
X280200400Y-36630718D01*
X280043638Y-36651355D01*
X279897557Y-36711864D01*
X279772117Y-36808117D01*
X279675864Y-36933557D01*
X279615355Y-37079638D01*
X279594718Y-37236399D01*
X268244250Y-37236399D01*
X268244250Y-31967660D01*
X289762000Y-31967660D01*
X289792110Y-32099587D01*
X289821467Y-32160547D01*
X289850825Y-32221507D01*
X289935195Y-32327305D01*
X290040993Y-32411675D01*
X290162912Y-32470389D01*
X290294840Y-32500500D01*
X290346583Y-32500500D01*
X290362500Y-32500500D01*
X290389429Y-32500500D01*
X303335571Y-32500500D01*
X303378417Y-32500500D01*
X303430160Y-32500500D01*
X303562088Y-32470389D01*
X303684007Y-32411675D01*
X303789805Y-32327305D01*
X303874175Y-32221507D01*
X303932889Y-32099588D01*
X303963000Y-31967660D01*
X308812000Y-31967660D01*
X308842110Y-32099587D01*
X308871467Y-32160547D01*
X308900825Y-32221507D01*
X308985195Y-32327305D01*
X309090993Y-32411675D01*
X309212912Y-32470389D01*
X309344840Y-32500500D01*
X309396583Y-32500500D01*
X309412500Y-32500500D01*
X309439429Y-32500500D01*
X322385571Y-32500500D01*
X322428417Y-32500500D01*
X322480160Y-32500500D01*
X322612088Y-32470389D01*
X322734007Y-32411675D01*
X322839805Y-32327305D01*
X322924175Y-32221507D01*
X322982889Y-32099588D01*
X323013000Y-31967660D01*
X327862000Y-31967660D01*
X327892110Y-32099587D01*
X327921467Y-32160547D01*
X327950825Y-32221507D01*
X328035195Y-32327305D01*
X328140993Y-32411675D01*
X328262912Y-32470389D01*
X328394840Y-32500500D01*
X328446583Y-32500500D01*
X328462500Y-32500500D01*
X328489429Y-32500500D01*
X341435571Y-32500500D01*
X341478417Y-32500500D01*
X341530160Y-32500500D01*
X341662088Y-32470389D01*
X341784007Y-32411675D01*
X341889805Y-32327305D01*
X341974175Y-32221507D01*
X342032889Y-32099588D01*
X342063000Y-31967660D01*
X346912000Y-31967660D01*
X346942110Y-32099587D01*
X346971467Y-32160547D01*
X347000825Y-32221507D01*
X347085195Y-32327305D01*
X347190993Y-32411675D01*
X347312912Y-32470389D01*
X347444840Y-32500500D01*
X347496583Y-32500500D01*
X347512500Y-32500500D01*
X347539429Y-32500500D01*
X360485571Y-32500500D01*
X360528417Y-32500500D01*
X360580160Y-32500500D01*
X360712088Y-32470389D01*
X360834007Y-32411675D01*
X360939805Y-32327305D01*
X361024175Y-32221507D01*
X361082889Y-32099588D01*
X361113000Y-31967660D01*
X361113000Y-31900000D01*
X361113000Y-31873071D01*
X361113000Y-18884083D01*
X361113000Y-18832340D01*
X361082889Y-18700412D01*
X361024175Y-18578493D01*
X360939805Y-18472695D01*
X360834007Y-18388325D01*
X360773047Y-18358968D01*
X360712087Y-18329610D01*
X360580160Y-18299500D01*
X360528417Y-18299500D01*
X347539429Y-18299500D01*
X347512500Y-18299500D01*
X347444840Y-18299500D01*
X347312912Y-18329610D01*
X347190991Y-18388326D01*
X347085195Y-18472695D01*
X347000826Y-18578491D01*
X346942110Y-18700412D01*
X346912000Y-18832340D01*
X346912000Y-31967660D01*
X342063000Y-31967660D01*
X342063000Y-31900000D01*
X342063000Y-31873071D01*
X342063000Y-18884083D01*
X342063000Y-18832340D01*
X342032889Y-18700412D01*
X341974175Y-18578493D01*
X341889805Y-18472695D01*
X341784007Y-18388325D01*
X341723047Y-18358968D01*
X341662087Y-18329610D01*
X341530160Y-18299500D01*
X341478417Y-18299500D01*
X328489429Y-18299500D01*
X328462500Y-18299500D01*
X328394840Y-18299500D01*
X328262912Y-18329610D01*
X328140991Y-18388326D01*
X328035195Y-18472695D01*
X327950826Y-18578491D01*
X327892110Y-18700412D01*
X327862000Y-18832340D01*
X327862000Y-31967660D01*
X323013000Y-31967660D01*
X323013000Y-31900000D01*
X323013000Y-31873071D01*
X323013000Y-18884083D01*
X323013000Y-18832340D01*
X322982889Y-18700412D01*
X322924175Y-18578493D01*
X322839805Y-18472695D01*
X322734007Y-18388325D01*
X322673047Y-18358968D01*
X322612087Y-18329610D01*
X322480160Y-18299500D01*
X322428417Y-18299500D01*
X309439429Y-18299500D01*
X309412500Y-18299500D01*
X309344840Y-18299500D01*
X309212912Y-18329610D01*
X309090991Y-18388326D01*
X308985195Y-18472695D01*
X308900826Y-18578491D01*
X308842110Y-18700412D01*
X308812000Y-18832340D01*
X308812000Y-31967660D01*
X303963000Y-31967660D01*
X303963000Y-31900000D01*
X303963000Y-31873071D01*
X303963000Y-18884083D01*
X303963000Y-18832340D01*
X303932889Y-18700412D01*
X303874175Y-18578493D01*
X303789805Y-18472695D01*
X303684007Y-18388325D01*
X303623047Y-18358967D01*
X303562087Y-18329610D01*
X303430160Y-18299500D01*
X303378417Y-18299500D01*
X290389429Y-18299500D01*
X290362500Y-18299500D01*
X290294840Y-18299500D01*
X290162912Y-18329610D01*
X290040991Y-18388326D01*
X289935195Y-18472695D01*
X289850826Y-18578491D01*
X289792110Y-18700412D01*
X289762000Y-18832340D01*
X289762000Y-31967660D01*
X268244250Y-31967660D01*
X268244250Y-28389300D01*
X268244200Y-28388984D01*
X268244201Y-28357344D01*
X268222198Y-28260936D01*
X268214094Y-28225427D01*
X268184843Y-28164682D01*
X268155387Y-28103511D01*
X268155369Y-28103488D01*
X268071026Y-27997716D01*
X267965240Y-27913344D01*
X267843332Y-27854627D01*
X267711416Y-27824505D01*
X267675175Y-27824502D01*
X267675157Y-27824500D01*
X267659667Y-27824500D01*
X267643761Y-27824500D01*
X267643752Y-27824499D01*
X267616830Y-27824498D01*
X267598191Y-27824497D01*
X267598171Y-27824500D01*
X263952028Y-27824500D01*
X263935570Y-27823421D01*
X263856812Y-27813045D01*
X263825044Y-27804529D01*
X263759352Y-27777313D01*
X263730867Y-27760865D01*
X263698988Y-27736400D01*
X279594718Y-27736400D01*
X279615355Y-27893161D01*
X279675864Y-28039242D01*
X279772117Y-28164682D01*
X279897557Y-28260935D01*
X279897558Y-28260935D01*
X279897559Y-28260936D01*
X280043638Y-28321444D01*
X280200400Y-28342082D01*
X280357162Y-28321444D01*
X280503241Y-28260936D01*
X280628682Y-28164682D01*
X280724936Y-28039241D01*
X280785444Y-27893162D01*
X280806082Y-27736400D01*
X280785444Y-27579638D01*
X280724936Y-27433559D01*
X280724935Y-27433558D01*
X280724935Y-27433557D01*
X280628682Y-27308117D01*
X280503242Y-27211864D01*
X280357161Y-27151355D01*
X280200400Y-27130718D01*
X280043638Y-27151355D01*
X279897557Y-27211864D01*
X279772117Y-27308117D01*
X279675864Y-27433557D01*
X279615355Y-27579638D01*
X279594718Y-27736400D01*
X263698988Y-27736400D01*
X263674455Y-27717572D01*
X263651201Y-27694316D01*
X263629556Y-27666106D01*
X263607910Y-27637894D01*
X263591470Y-27609418D01*
X263564256Y-27543711D01*
X263555746Y-27511946D01*
X263545328Y-27432806D01*
X263544250Y-27416361D01*
X263544250Y-26870257D01*
X263545328Y-26853812D01*
X263555698Y-26775040D01*
X263564210Y-26743271D01*
X263591414Y-26677589D01*
X263591427Y-26677558D01*
X263607865Y-26649082D01*
X263651167Y-26592645D01*
X263674413Y-26569396D01*
X263730850Y-26526085D01*
X263759321Y-26509645D01*
X263825034Y-26482420D01*
X263856795Y-26473907D01*
X263923297Y-26465145D01*
X263935191Y-26463579D01*
X263951648Y-26462500D01*
X266291522Y-26462500D01*
X266291798Y-26462554D01*
X266343760Y-26462550D01*
X266411404Y-26462544D01*
X266411422Y-26462544D01*
X266435946Y-26456944D01*
X266543349Y-26432420D01*
X266665266Y-26373697D01*
X266771061Y-26289319D01*
X266855429Y-26183515D01*
X266914140Y-26061592D01*
X266914145Y-26061572D01*
X266944250Y-25929664D01*
X266944250Y-20076300D01*
X266944200Y-20075984D01*
X266944201Y-20044344D01*
X266929147Y-19978384D01*
X266914094Y-19912427D01*
X266910433Y-19904826D01*
X266855387Y-19790511D01*
X266855369Y-19790488D01*
X266771026Y-19684716D01*
X266665240Y-19600344D01*
X266543332Y-19541627D01*
X266411416Y-19511505D01*
X266375175Y-19511502D01*
X266375157Y-19511500D01*
X266359667Y-19511500D01*
X266343761Y-19511500D01*
X266343752Y-19511499D01*
X266316830Y-19511498D01*
X266298191Y-19511497D01*
X266298171Y-19511500D01*
X263670250Y-19511500D01*
X263607250Y-19494619D01*
X263561131Y-19448500D01*
X263544250Y-19385500D01*
X263544250Y-19239300D01*
X263544200Y-19238984D01*
X263544201Y-19207344D01*
X263529147Y-19141384D01*
X263514094Y-19075427D01*
X263510433Y-19067826D01*
X263455387Y-18953511D01*
X263455369Y-18953488D01*
X263371026Y-18847716D01*
X263265240Y-18763344D01*
X263143332Y-18704627D01*
X263011416Y-18674505D01*
X262975175Y-18674502D01*
X262975157Y-18674500D01*
X262959667Y-18674500D01*
X262943761Y-18674500D01*
X262943752Y-18674499D01*
X262916830Y-18674498D01*
X262898191Y-18674497D01*
X262898171Y-18674500D01*
X260695978Y-18674500D01*
X260695701Y-18674445D01*
X260576077Y-18674455D01*
X260444150Y-18704580D01*
X260322236Y-18763301D01*
X260216438Y-18847680D01*
X260132068Y-18953488D01*
X260073359Y-19075407D01*
X260043250Y-19207336D01*
X260043250Y-19385500D01*
X260026369Y-19448500D01*
X259980250Y-19494619D01*
X259917250Y-19511500D01*
X255095978Y-19511500D01*
X255095701Y-19511445D01*
X254976077Y-19511455D01*
X254844150Y-19541580D01*
X254722236Y-19600301D01*
X254616438Y-19684680D01*
X254532068Y-19790488D01*
X254473359Y-19912407D01*
X254443250Y-20044336D01*
X254443250Y-20941743D01*
X254442172Y-20958190D01*
X254431801Y-21036961D01*
X254423289Y-21068728D01*
X254396074Y-21134437D01*
X254379630Y-21162922D01*
X254336337Y-21219348D01*
X254313081Y-21242607D01*
X254256656Y-21285909D01*
X254228172Y-21302356D01*
X254162468Y-21329577D01*
X254130700Y-21338092D01*
X254052310Y-21348420D01*
X254035852Y-21349500D01*
X253920978Y-21349500D01*
X253920701Y-21349445D01*
X253801077Y-21349455D01*
X253669150Y-21379580D01*
X253547236Y-21438301D01*
X253441438Y-21522680D01*
X253357068Y-21628488D01*
X253298359Y-21750407D01*
X253268250Y-21882336D01*
X253268250Y-24060440D01*
X253268299Y-24060754D01*
X253268299Y-24092657D01*
X253298405Y-24224572D01*
X253357114Y-24346491D01*
X253441473Y-24452283D01*
X253547259Y-24536655D01*
X253605976Y-24564936D01*
X253669168Y-24595373D01*
X253752038Y-24614295D01*
X253801082Y-24625494D01*
X253801116Y-24625494D01*
X253828567Y-24625496D01*
X253828588Y-24625500D01*
X253852833Y-24625500D01*
X253868739Y-24625500D01*
X253868741Y-24625500D01*
X253895669Y-24625502D01*
X253895670Y-24625501D01*
X253914308Y-24625502D01*
X253914329Y-24625500D01*
X254035472Y-24625500D01*
X254051928Y-24626579D01*
X254081329Y-24630452D01*
X254130688Y-24636954D01*
X254162453Y-24645469D01*
X254228149Y-24672687D01*
X254256629Y-24689132D01*
X254284837Y-24710780D01*
X254313044Y-24732427D01*
X254336298Y-24755683D01*
X254379587Y-24812102D01*
X254396030Y-24840584D01*
X254421945Y-24903154D01*
X254423242Y-24906284D01*
X254431753Y-24938052D01*
X254442172Y-25017193D01*
X254443250Y-25033639D01*
X254443250Y-25897440D01*
X254443299Y-25897754D01*
X254443299Y-25929657D01*
X254473405Y-26061572D01*
X254532114Y-26183491D01*
X254616473Y-26289283D01*
X254722259Y-26373655D01*
X254780977Y-26401936D01*
X254844168Y-26432373D01*
X254927038Y-26451295D01*
X254976082Y-26462494D01*
X254976116Y-26462494D01*
X255003567Y-26462496D01*
X255003588Y-26462500D01*
X255027833Y-26462500D01*
X255043739Y-26462500D01*
X255043741Y-26462500D01*
X255070669Y-26462502D01*
X255070670Y-26462501D01*
X255089308Y-26462502D01*
X255089329Y-26462500D01*
X258335472Y-26462500D01*
X258351928Y-26463579D01*
X258381329Y-26467452D01*
X258430688Y-26473954D01*
X258462453Y-26482469D01*
X258528149Y-26509687D01*
X258556629Y-26526132D01*
X258584838Y-26547780D01*
X258613044Y-26569427D01*
X258636298Y-26592683D01*
X258679587Y-26649102D01*
X258696030Y-26677584D01*
X258721945Y-26740154D01*
X258723242Y-26743284D01*
X258731753Y-26775052D01*
X258742172Y-26854193D01*
X258743250Y-26870639D01*
X258743250Y-27416743D01*
X258742172Y-27433187D01*
X258740182Y-27448300D01*
X258731801Y-27511961D01*
X258723289Y-27543728D01*
X258696074Y-27609437D01*
X258679630Y-27637922D01*
X258636337Y-27694348D01*
X258613081Y-27717607D01*
X258556656Y-27760909D01*
X258528172Y-27777356D01*
X258462468Y-27804577D01*
X258430700Y-27813092D01*
X258352310Y-27823420D01*
X258335852Y-27824500D01*
X254695978Y-27824500D01*
X254695701Y-27824445D01*
X254576077Y-27824455D01*
X254444150Y-27854580D01*
X254322236Y-27913301D01*
X254216438Y-27997680D01*
X254132068Y-28103488D01*
X254073359Y-28225407D01*
X254043250Y-28357336D01*
X254043250Y-41460440D01*
X254043299Y-41460754D01*
X254043299Y-41492657D01*
X254073405Y-41624572D01*
X254132114Y-41746491D01*
X254216473Y-41852283D01*
X254322259Y-41936655D01*
X254380977Y-41964936D01*
X254444168Y-41995373D01*
X254527038Y-42014295D01*
X254576082Y-42025494D01*
X254576116Y-42025494D01*
X254603567Y-42025496D01*
X254603588Y-42025500D01*
X254627833Y-42025500D01*
X254643739Y-42025500D01*
X254643741Y-42025500D01*
X254670669Y-42025502D01*
X254670670Y-42025501D01*
X254689308Y-42025502D01*
X254689329Y-42025500D01*
X258335472Y-42025500D01*
X258351928Y-42026579D01*
X258381329Y-42030452D01*
X258430688Y-42036954D01*
X258462453Y-42045469D01*
X258528149Y-42072687D01*
X258556629Y-42089132D01*
X258584837Y-42110780D01*
X258613044Y-42132427D01*
X258636298Y-42155683D01*
X258679587Y-42212102D01*
X258696030Y-42240584D01*
X258721945Y-42303154D01*
X258723242Y-42306284D01*
X258731753Y-42338052D01*
X258742172Y-42417193D01*
X258743250Y-42433639D01*
X258743250Y-42979743D01*
X258742172Y-42996187D01*
X258740182Y-43011300D01*
X258731801Y-43074961D01*
X258723289Y-43106728D01*
X258696074Y-43172437D01*
X258679630Y-43200922D01*
X258636337Y-43257348D01*
X258613081Y-43280607D01*
X258556656Y-43323909D01*
X258528172Y-43340356D01*
X258462468Y-43367577D01*
X258430700Y-43376092D01*
X258352310Y-43386420D01*
X258335852Y-43387500D01*
X255095978Y-43387500D01*
X255095701Y-43387445D01*
X254976077Y-43387455D01*
X254844150Y-43417580D01*
X254722236Y-43476301D01*
X254616438Y-43560680D01*
X254532068Y-43666488D01*
X254473359Y-43788407D01*
X254443250Y-43920336D01*
X254443250Y-44816743D01*
X254442172Y-44833190D01*
X254431801Y-44911961D01*
X254423289Y-44943728D01*
X254396074Y-45009437D01*
X254379630Y-45037922D01*
X254336337Y-45094348D01*
X254313081Y-45117607D01*
X254256656Y-45160909D01*
X254228172Y-45177356D01*
X254162468Y-45204577D01*
X254130700Y-45213092D01*
X254052310Y-45223420D01*
X254035852Y-45224500D01*
X253920978Y-45224500D01*
X253920701Y-45224445D01*
X253801077Y-45224455D01*
X253669150Y-45254580D01*
X253547236Y-45313301D01*
X253441438Y-45397680D01*
X253357068Y-45503488D01*
X253298359Y-45625407D01*
X253268250Y-45757336D01*
X253268250Y-47935440D01*
X246813000Y-47935440D01*
X246813000Y-37934083D01*
X246813000Y-37882340D01*
X246782889Y-37750412D01*
X246724175Y-37628493D01*
X246639805Y-37522695D01*
X246534007Y-37438325D01*
X246440227Y-37393162D01*
X246412087Y-37379610D01*
X246280160Y-37349500D01*
X246228417Y-37349500D01*
X233239429Y-37349500D01*
X233212500Y-37349500D01*
X233144840Y-37349500D01*
X233012912Y-37379610D01*
X232890991Y-37438326D01*
X232785195Y-37522695D01*
X232700826Y-37628491D01*
X232642110Y-37750412D01*
X232612000Y-37882340D01*
X232612000Y-51017660D01*
X227763000Y-51017660D01*
X227763000Y-50950000D01*
X227763000Y-50923071D01*
X227763000Y-37934083D01*
X227763000Y-37882340D01*
X227732889Y-37750412D01*
X227674175Y-37628493D01*
X227589805Y-37522695D01*
X227484007Y-37438325D01*
X227390227Y-37393162D01*
X227362087Y-37379610D01*
X227230160Y-37349500D01*
X227178417Y-37349500D01*
X214189429Y-37349500D01*
X214162500Y-37349500D01*
X214094840Y-37349500D01*
X213962912Y-37379610D01*
X213840991Y-37438326D01*
X213735195Y-37522695D01*
X213650826Y-37628491D01*
X213592110Y-37750412D01*
X213562000Y-37882340D01*
X213562000Y-51017660D01*
X208713000Y-51017660D01*
X208713000Y-50950000D01*
X208713000Y-50923071D01*
X208713000Y-37934083D01*
X208713000Y-37882340D01*
X208682889Y-37750412D01*
X208624175Y-37628493D01*
X208539805Y-37522695D01*
X208434007Y-37438325D01*
X208340227Y-37393162D01*
X208312087Y-37379610D01*
X208180160Y-37349500D01*
X208128417Y-37349500D01*
X195139429Y-37349500D01*
X195112500Y-37349500D01*
X195044840Y-37349500D01*
X194912912Y-37379610D01*
X194790991Y-37438326D01*
X194685195Y-37522695D01*
X194600826Y-37628491D01*
X194542110Y-37750412D01*
X194512000Y-37882340D01*
X194512000Y-51017660D01*
X189663000Y-51017660D01*
X189663000Y-50950000D01*
X189663000Y-50923071D01*
X189663000Y-37934083D01*
X189663000Y-37882340D01*
X189632889Y-37750412D01*
X189574175Y-37628493D01*
X189489805Y-37522695D01*
X189384007Y-37438325D01*
X189290227Y-37393162D01*
X189262087Y-37379610D01*
X189130160Y-37349500D01*
X189078417Y-37349500D01*
X176089429Y-37349500D01*
X176062500Y-37349500D01*
X175994840Y-37349500D01*
X175862912Y-37379610D01*
X175740991Y-37438326D01*
X175635195Y-37522695D01*
X175550826Y-37628491D01*
X175492110Y-37750412D01*
X175462000Y-37882340D01*
X175462000Y-51017660D01*
X170613000Y-51017660D01*
X170613000Y-50950000D01*
X170613000Y-50923071D01*
X170613000Y-37934083D01*
X170613000Y-37882340D01*
X170582889Y-37750412D01*
X170524175Y-37628493D01*
X170439805Y-37522695D01*
X170334007Y-37438325D01*
X170240227Y-37393162D01*
X170212087Y-37379610D01*
X170080160Y-37349500D01*
X170028417Y-37349500D01*
X157039429Y-37349500D01*
X157012500Y-37349500D01*
X156944840Y-37349500D01*
X156812912Y-37379610D01*
X156690991Y-37438326D01*
X156585195Y-37522695D01*
X156500826Y-37628491D01*
X156442110Y-37750412D01*
X156412000Y-37882340D01*
X156412000Y-51017660D01*
X151563000Y-51017660D01*
X151563000Y-50950000D01*
X151563000Y-50923071D01*
X151563000Y-37934083D01*
X151563000Y-37882340D01*
X151532889Y-37750412D01*
X151474175Y-37628493D01*
X151389805Y-37522695D01*
X151284007Y-37438325D01*
X151190227Y-37393162D01*
X151162087Y-37379610D01*
X151030160Y-37349500D01*
X150978417Y-37349500D01*
X137989429Y-37349500D01*
X137962500Y-37349500D01*
X137894840Y-37349500D01*
X137762912Y-37379610D01*
X137640991Y-37438326D01*
X137535195Y-37522695D01*
X137450826Y-37628491D01*
X137392110Y-37750412D01*
X137362000Y-37882340D01*
X137362000Y-51017660D01*
X132513000Y-51017660D01*
X132513000Y-50950000D01*
X132513000Y-50923071D01*
X132513000Y-37934083D01*
X132513000Y-37882340D01*
X132482889Y-37750412D01*
X132424175Y-37628493D01*
X132339805Y-37522695D01*
X132234007Y-37438325D01*
X132140227Y-37393162D01*
X132112087Y-37379610D01*
X131980160Y-37349500D01*
X131928417Y-37349500D01*
X118939429Y-37349500D01*
X118912500Y-37349500D01*
X118844840Y-37349500D01*
X118712912Y-37379610D01*
X118590991Y-37438326D01*
X118485195Y-37522695D01*
X118400826Y-37628491D01*
X118342110Y-37750412D01*
X118312000Y-37882340D01*
X118312000Y-51017660D01*
X113463000Y-51017660D01*
X113463000Y-50950000D01*
X113463000Y-50923071D01*
X113463000Y-37934083D01*
X113463000Y-37882340D01*
X113432889Y-37750412D01*
X113374175Y-37628493D01*
X113289805Y-37522695D01*
X113184007Y-37438325D01*
X113090227Y-37393162D01*
X113062087Y-37379610D01*
X112930160Y-37349500D01*
X112878417Y-37349500D01*
X99889429Y-37349500D01*
X99862500Y-37349500D01*
X99794840Y-37349500D01*
X99662912Y-37379610D01*
X99540991Y-37438326D01*
X99435195Y-37522695D01*
X99350826Y-37628491D01*
X99292110Y-37750412D01*
X99262000Y-37882340D01*
X99262000Y-51017660D01*
X94413000Y-51017660D01*
X94413000Y-50950000D01*
X94413000Y-50923071D01*
X94413000Y-37934083D01*
X94413000Y-37882340D01*
X94382889Y-37750412D01*
X94324175Y-37628493D01*
X94239805Y-37522695D01*
X94134007Y-37438325D01*
X94040227Y-37393162D01*
X94012087Y-37379610D01*
X93880160Y-37349500D01*
X93828417Y-37349500D01*
X80839429Y-37349500D01*
X80812500Y-37349500D01*
X80744840Y-37349500D01*
X80612912Y-37379610D01*
X80490991Y-37438326D01*
X80385195Y-37522695D01*
X80300826Y-37628491D01*
X80242110Y-37750412D01*
X80212000Y-37882340D01*
X80212000Y-51017660D01*
X75363000Y-51017660D01*
X75363000Y-50950000D01*
X75363000Y-50923071D01*
X75363000Y-37934083D01*
X75363000Y-37882340D01*
X75332889Y-37750412D01*
X75274175Y-37628493D01*
X75189805Y-37522695D01*
X75084007Y-37438325D01*
X74990227Y-37393162D01*
X74962087Y-37379610D01*
X74830160Y-37349500D01*
X74778417Y-37349500D01*
X61789429Y-37349500D01*
X61762500Y-37349500D01*
X61694840Y-37349500D01*
X61562912Y-37379610D01*
X61440991Y-37438326D01*
X61335195Y-37522695D01*
X61250826Y-37628491D01*
X61192110Y-37750412D01*
X61162000Y-37882340D01*
X61162000Y-51017660D01*
X56313000Y-51017660D01*
X56313000Y-50950000D01*
X56313000Y-50923071D01*
X56313000Y-37934083D01*
X56313000Y-37882340D01*
X56282889Y-37750412D01*
X56224175Y-37628493D01*
X56139805Y-37522695D01*
X56034007Y-37438325D01*
X55940227Y-37393162D01*
X55912087Y-37379610D01*
X55780160Y-37349500D01*
X55728417Y-37349500D01*
X42739429Y-37349500D01*
X42712500Y-37349500D01*
X42644840Y-37349500D01*
X42512912Y-37379610D01*
X42390991Y-37438326D01*
X42285195Y-37522695D01*
X42200826Y-37628491D01*
X42142110Y-37750412D01*
X42112000Y-37882340D01*
X42112000Y-51017660D01*
X34881750Y-51017660D01*
X34881750Y-37914300D01*
X34881700Y-37913984D01*
X34881701Y-37882344D01*
X34853992Y-37760935D01*
X34851594Y-37750427D01*
X34847933Y-37742826D01*
X34792887Y-37628511D01*
X34792869Y-37628488D01*
X34708526Y-37522716D01*
X34602740Y-37438344D01*
X34480832Y-37379627D01*
X34348916Y-37349505D01*
X34312675Y-37349502D01*
X34312657Y-37349500D01*
X34297167Y-37349500D01*
X34281261Y-37349500D01*
X34281252Y-37349499D01*
X34254330Y-37349498D01*
X34235691Y-37349497D01*
X34235671Y-37349500D01*
X21333478Y-37349500D01*
X21333201Y-37349445D01*
X21213577Y-37349455D01*
X21081650Y-37379580D01*
X20959736Y-37438301D01*
X20853938Y-37522680D01*
X20769568Y-37628488D01*
X20710859Y-37750407D01*
X20680750Y-37882336D01*
X20680750Y-50985440D01*
X9100500Y-50985440D01*
X9100500Y-31967660D01*
X18299500Y-31967660D01*
X18329610Y-32099587D01*
X18358967Y-32160547D01*
X18388325Y-32221507D01*
X18472695Y-32327305D01*
X18578493Y-32411675D01*
X18700412Y-32470389D01*
X18832340Y-32500500D01*
X18884083Y-32500500D01*
X18900000Y-32500500D01*
X18926929Y-32500500D01*
X31873071Y-32500500D01*
X31915917Y-32500500D01*
X31967660Y-32500500D01*
X32099588Y-32470389D01*
X32221507Y-32411675D01*
X32327305Y-32327305D01*
X32411675Y-32221507D01*
X32470389Y-32099588D01*
X32500500Y-31967660D01*
X37349500Y-31967660D01*
X37379610Y-32099587D01*
X37408967Y-32160547D01*
X37438325Y-32221507D01*
X37522695Y-32327305D01*
X37628493Y-32411675D01*
X37750412Y-32470389D01*
X37882340Y-32500500D01*
X37934083Y-32500500D01*
X37950000Y-32500500D01*
X37976929Y-32500500D01*
X50923071Y-32500500D01*
X50965917Y-32500500D01*
X51017660Y-32500500D01*
X51149588Y-32470389D01*
X51271507Y-32411675D01*
X51377305Y-32327305D01*
X51461675Y-32221507D01*
X51520389Y-32099588D01*
X51550500Y-31967660D01*
X56399500Y-31967660D01*
X56429610Y-32099587D01*
X56458967Y-32160547D01*
X56488325Y-32221507D01*
X56572695Y-32327305D01*
X56678493Y-32411675D01*
X56800412Y-32470389D01*
X56932340Y-32500500D01*
X56984083Y-32500500D01*
X57000000Y-32500500D01*
X57026929Y-32500500D01*
X69973071Y-32500500D01*
X70015917Y-32500500D01*
X70067660Y-32500500D01*
X70199588Y-32470389D01*
X70321507Y-32411675D01*
X70427305Y-32327305D01*
X70511675Y-32221507D01*
X70570389Y-32099588D01*
X70600500Y-31967660D01*
X75449500Y-31967660D01*
X75479610Y-32099587D01*
X75508967Y-32160547D01*
X75538325Y-32221507D01*
X75622695Y-32327305D01*
X75728493Y-32411675D01*
X75850412Y-32470389D01*
X75982340Y-32500500D01*
X76034083Y-32500500D01*
X76050000Y-32500500D01*
X76076929Y-32500500D01*
X89023071Y-32500500D01*
X89065917Y-32500500D01*
X89117660Y-32500500D01*
X89249588Y-32470389D01*
X89371507Y-32411675D01*
X89477305Y-32327305D01*
X89561675Y-32221507D01*
X89620389Y-32099588D01*
X89650500Y-31967660D01*
X94499500Y-31967660D01*
X94529610Y-32099587D01*
X94558967Y-32160547D01*
X94588325Y-32221507D01*
X94672695Y-32327305D01*
X94778493Y-32411675D01*
X94900412Y-32470389D01*
X95032340Y-32500500D01*
X95084083Y-32500500D01*
X95100000Y-32500500D01*
X95126929Y-32500500D01*
X108073071Y-32500500D01*
X108115917Y-32500500D01*
X108167660Y-32500500D01*
X108299588Y-32470389D01*
X108421507Y-32411675D01*
X108527305Y-32327305D01*
X108611675Y-32221507D01*
X108670389Y-32099588D01*
X108700500Y-31967660D01*
X113549500Y-31967660D01*
X113579610Y-32099587D01*
X113608967Y-32160547D01*
X113638325Y-32221507D01*
X113722695Y-32327305D01*
X113828493Y-32411675D01*
X113950412Y-32470389D01*
X114082340Y-32500500D01*
X114134083Y-32500500D01*
X114150000Y-32500500D01*
X114176929Y-32500500D01*
X127123071Y-32500500D01*
X127165917Y-32500500D01*
X127217660Y-32500500D01*
X127349588Y-32470389D01*
X127471507Y-32411675D01*
X127577305Y-32327305D01*
X127661675Y-32221507D01*
X127720389Y-32099588D01*
X127750500Y-31967660D01*
X132599500Y-31967660D01*
X132629610Y-32099587D01*
X132658967Y-32160547D01*
X132688325Y-32221507D01*
X132772695Y-32327305D01*
X132878493Y-32411675D01*
X133000412Y-32470389D01*
X133132340Y-32500500D01*
X133184083Y-32500500D01*
X133200000Y-32500500D01*
X133226929Y-32500500D01*
X146173071Y-32500500D01*
X146215917Y-32500500D01*
X146267660Y-32500500D01*
X146399588Y-32470389D01*
X146521507Y-32411675D01*
X146627305Y-32327305D01*
X146711675Y-32221507D01*
X146770389Y-32099588D01*
X146800500Y-31967660D01*
X151649500Y-31967660D01*
X151679610Y-32099587D01*
X151708967Y-32160547D01*
X151738325Y-32221507D01*
X151822695Y-32327305D01*
X151928493Y-32411675D01*
X152050412Y-32470389D01*
X152182340Y-32500500D01*
X152234083Y-32500500D01*
X152250000Y-32500500D01*
X152276929Y-32500500D01*
X165223071Y-32500500D01*
X165265917Y-32500500D01*
X165317660Y-32500500D01*
X165449588Y-32470389D01*
X165571507Y-32411675D01*
X165677305Y-32327305D01*
X165761675Y-32221507D01*
X165820389Y-32099588D01*
X165850500Y-31967660D01*
X170699500Y-31967660D01*
X170729610Y-32099587D01*
X170758967Y-32160547D01*
X170788325Y-32221507D01*
X170872695Y-32327305D01*
X170978493Y-32411675D01*
X171100412Y-32470389D01*
X171232340Y-32500500D01*
X171284083Y-32500500D01*
X171300000Y-32500500D01*
X171326929Y-32500500D01*
X184273071Y-32500500D01*
X184315917Y-32500500D01*
X184367660Y-32500500D01*
X184499588Y-32470389D01*
X184621507Y-32411675D01*
X184727305Y-32327305D01*
X184811675Y-32221507D01*
X184870389Y-32099588D01*
X184900500Y-31967660D01*
X189749500Y-31967660D01*
X189779610Y-32099587D01*
X189808967Y-32160547D01*
X189838325Y-32221507D01*
X189922695Y-32327305D01*
X190028493Y-32411675D01*
X190150412Y-32470389D01*
X190282340Y-32500500D01*
X190334083Y-32500500D01*
X190350000Y-32500500D01*
X190376929Y-32500500D01*
X203323071Y-32500500D01*
X203365917Y-32500500D01*
X203417660Y-32500500D01*
X203549588Y-32470389D01*
X203671507Y-32411675D01*
X203777305Y-32327305D01*
X203861675Y-32221507D01*
X203920389Y-32099588D01*
X203950500Y-31967660D01*
X208799500Y-31967660D01*
X208829610Y-32099587D01*
X208858967Y-32160547D01*
X208888325Y-32221507D01*
X208972695Y-32327305D01*
X209078493Y-32411675D01*
X209200412Y-32470389D01*
X209332340Y-32500500D01*
X209384083Y-32500500D01*
X209400000Y-32500500D01*
X209426929Y-32500500D01*
X222373071Y-32500500D01*
X222415917Y-32500500D01*
X222467660Y-32500500D01*
X222599588Y-32470389D01*
X222721507Y-32411675D01*
X222827305Y-32327305D01*
X222911675Y-32221507D01*
X222970389Y-32099588D01*
X223000500Y-31967660D01*
X227849500Y-31967660D01*
X227879610Y-32099587D01*
X227908967Y-32160547D01*
X227938325Y-32221507D01*
X228022695Y-32327305D01*
X228128493Y-32411675D01*
X228250412Y-32470389D01*
X228382340Y-32500500D01*
X228434083Y-32500500D01*
X228450000Y-32500500D01*
X228476929Y-32500500D01*
X241423071Y-32500500D01*
X241465917Y-32500500D01*
X241517660Y-32500500D01*
X241649588Y-32470389D01*
X241771507Y-32411675D01*
X241877305Y-32327305D01*
X241961675Y-32221507D01*
X242020389Y-32099588D01*
X242050500Y-31967660D01*
X242050500Y-31900000D01*
X242050500Y-31873071D01*
X242050500Y-18884083D01*
X242050500Y-18832340D01*
X242020389Y-18700412D01*
X241961675Y-18578493D01*
X241877305Y-18472695D01*
X241771507Y-18388325D01*
X241710547Y-18358967D01*
X241649587Y-18329610D01*
X241517660Y-18299500D01*
X241465917Y-18299500D01*
X228476929Y-18299500D01*
X228450000Y-18299500D01*
X228382340Y-18299500D01*
X228250412Y-18329610D01*
X228128491Y-18388326D01*
X228022695Y-18472695D01*
X227938326Y-18578491D01*
X227879610Y-18700412D01*
X227849500Y-18832340D01*
X227849500Y-31967660D01*
X223000500Y-31967660D01*
X223000500Y-31900000D01*
X223000500Y-31873071D01*
X223000500Y-18884083D01*
X223000500Y-18832340D01*
X222970389Y-18700412D01*
X222911675Y-18578493D01*
X222827305Y-18472695D01*
X222721507Y-18388325D01*
X222660547Y-18358967D01*
X222599587Y-18329610D01*
X222467660Y-18299500D01*
X222415917Y-18299500D01*
X209426929Y-18299500D01*
X209400000Y-18299500D01*
X209332340Y-18299500D01*
X209200412Y-18329610D01*
X209078491Y-18388326D01*
X208972695Y-18472695D01*
X208888326Y-18578491D01*
X208829610Y-18700412D01*
X208799500Y-18832340D01*
X208799500Y-31967660D01*
X203950500Y-31967660D01*
X203950500Y-31900000D01*
X203950500Y-31873071D01*
X203950500Y-18884083D01*
X203950500Y-18832340D01*
X203920389Y-18700412D01*
X203861675Y-18578493D01*
X203777305Y-18472695D01*
X203671507Y-18388325D01*
X203610547Y-18358967D01*
X203549587Y-18329610D01*
X203417660Y-18299500D01*
X203365917Y-18299500D01*
X190376929Y-18299500D01*
X190350000Y-18299500D01*
X190282340Y-18299500D01*
X190150412Y-18329610D01*
X190028491Y-18388326D01*
X189922695Y-18472695D01*
X189838326Y-18578491D01*
X189779610Y-18700412D01*
X189749500Y-18832340D01*
X189749500Y-31967660D01*
X184900500Y-31967660D01*
X184900500Y-31900000D01*
X184900500Y-31873071D01*
X184900500Y-18884083D01*
X184900500Y-18832340D01*
X184870389Y-18700412D01*
X184811675Y-18578493D01*
X184727305Y-18472695D01*
X184621507Y-18388325D01*
X184560547Y-18358967D01*
X184499587Y-18329610D01*
X184367660Y-18299500D01*
X184315917Y-18299500D01*
X171326929Y-18299500D01*
X171300000Y-18299500D01*
X171232340Y-18299500D01*
X171100412Y-18329610D01*
X170978491Y-18388326D01*
X170872695Y-18472695D01*
X170788326Y-18578491D01*
X170729610Y-18700412D01*
X170699500Y-18832340D01*
X170699500Y-31967660D01*
X165850500Y-31967660D01*
X165850500Y-31900000D01*
X165850500Y-31873071D01*
X165850500Y-18884083D01*
X165850500Y-18832340D01*
X165820389Y-18700412D01*
X165761675Y-18578493D01*
X165677305Y-18472695D01*
X165571507Y-18388325D01*
X165510547Y-18358967D01*
X165449587Y-18329610D01*
X165317660Y-18299500D01*
X165265917Y-18299500D01*
X152276929Y-18299500D01*
X152250000Y-18299500D01*
X152182340Y-18299500D01*
X152050412Y-18329610D01*
X151928491Y-18388326D01*
X151822695Y-18472695D01*
X151738326Y-18578491D01*
X151679610Y-18700412D01*
X151649500Y-18832340D01*
X151649500Y-31967660D01*
X146800500Y-31967660D01*
X146800500Y-31900000D01*
X146800500Y-31873071D01*
X146800500Y-18884083D01*
X146800500Y-18832340D01*
X146770389Y-18700412D01*
X146711675Y-18578493D01*
X146627305Y-18472695D01*
X146521507Y-18388325D01*
X146460547Y-18358967D01*
X146399587Y-18329610D01*
X146267660Y-18299500D01*
X146215917Y-18299500D01*
X133226929Y-18299500D01*
X133200000Y-18299500D01*
X133132340Y-18299500D01*
X133000412Y-18329610D01*
X132878491Y-18388326D01*
X132772695Y-18472695D01*
X132688326Y-18578491D01*
X132629610Y-18700412D01*
X132599500Y-18832340D01*
X132599500Y-31967660D01*
X127750500Y-31967660D01*
X127750500Y-31900000D01*
X127750500Y-31873071D01*
X127750500Y-18884083D01*
X127750500Y-18832340D01*
X127720389Y-18700412D01*
X127661675Y-18578493D01*
X127577305Y-18472695D01*
X127471507Y-18388325D01*
X127410547Y-18358967D01*
X127349587Y-18329610D01*
X127217660Y-18299500D01*
X127165917Y-18299500D01*
X114176929Y-18299500D01*
X114150000Y-18299500D01*
X114082340Y-18299500D01*
X113950412Y-18329610D01*
X113828491Y-18388326D01*
X113722695Y-18472695D01*
X113638326Y-18578491D01*
X113579610Y-18700412D01*
X113549500Y-18832340D01*
X113549500Y-31967660D01*
X108700500Y-31967660D01*
X108700500Y-31900000D01*
X108700500Y-31873071D01*
X108700500Y-18884083D01*
X108700500Y-18832340D01*
X108670389Y-18700412D01*
X108611675Y-18578493D01*
X108527305Y-18472695D01*
X108421507Y-18388325D01*
X108360547Y-18358967D01*
X108299587Y-18329610D01*
X108167660Y-18299500D01*
X108115917Y-18299500D01*
X95126929Y-18299500D01*
X95100000Y-18299500D01*
X95032340Y-18299500D01*
X94900412Y-18329610D01*
X94778491Y-18388326D01*
X94672695Y-18472695D01*
X94588326Y-18578491D01*
X94529610Y-18700412D01*
X94499500Y-18832340D01*
X94499500Y-31967660D01*
X89650500Y-31967660D01*
X89650500Y-31900000D01*
X89650500Y-31873071D01*
X89650500Y-18884083D01*
X89650500Y-18832340D01*
X89620389Y-18700412D01*
X89561675Y-18578493D01*
X89477305Y-18472695D01*
X89371507Y-18388325D01*
X89310547Y-18358967D01*
X89249587Y-18329610D01*
X89117660Y-18299500D01*
X89065917Y-18299500D01*
X76076929Y-18299500D01*
X76050000Y-18299500D01*
X75982340Y-18299500D01*
X75850412Y-18329610D01*
X75728491Y-18388326D01*
X75622695Y-18472695D01*
X75538326Y-18578491D01*
X75479610Y-18700412D01*
X75449500Y-18832340D01*
X75449500Y-31967660D01*
X70600500Y-31967660D01*
X70600500Y-31900000D01*
X70600500Y-31873071D01*
X70600500Y-18884083D01*
X70600500Y-18832340D01*
X70570389Y-18700412D01*
X70511675Y-18578493D01*
X70427305Y-18472695D01*
X70321507Y-18388325D01*
X70260547Y-18358967D01*
X70199587Y-18329610D01*
X70067660Y-18299500D01*
X70015917Y-18299500D01*
X57026929Y-18299500D01*
X57000000Y-18299500D01*
X56932340Y-18299500D01*
X56800412Y-18329610D01*
X56678491Y-18388326D01*
X56572695Y-18472695D01*
X56488326Y-18578491D01*
X56429610Y-18700412D01*
X56399500Y-18832340D01*
X56399500Y-31967660D01*
X51550500Y-31967660D01*
X51550500Y-31900000D01*
X51550500Y-31873071D01*
X51550500Y-18884083D01*
X51550500Y-18832340D01*
X51520389Y-18700412D01*
X51461675Y-18578493D01*
X51377305Y-18472695D01*
X51271507Y-18388325D01*
X51210547Y-18358967D01*
X51149587Y-18329610D01*
X51017660Y-18299500D01*
X50965917Y-18299500D01*
X37976929Y-18299500D01*
X37950000Y-18299500D01*
X37882340Y-18299500D01*
X37750412Y-18329610D01*
X37628491Y-18388326D01*
X37522695Y-18472695D01*
X37438326Y-18578491D01*
X37379610Y-18700412D01*
X37349500Y-18832340D01*
X37349500Y-31967660D01*
X32500500Y-31967660D01*
X32500500Y-31900000D01*
X32500500Y-31873071D01*
X32500500Y-18884083D01*
X32500500Y-18832340D01*
X32470389Y-18700412D01*
X32411675Y-18578493D01*
X32327305Y-18472695D01*
X32221507Y-18388325D01*
X32160547Y-18358967D01*
X32099587Y-18329610D01*
X31967660Y-18299500D01*
X31915917Y-18299500D01*
X18926929Y-18299500D01*
X18900000Y-18299500D01*
X18832340Y-18299500D01*
X18700412Y-18329610D01*
X18578491Y-18388326D01*
X18472695Y-18472695D01*
X18388326Y-18578491D01*
X18329610Y-18700412D01*
X18299500Y-18832340D01*
X18299500Y-31967660D01*
X9100500Y-31967660D01*
X9100500Y-18236400D01*
X279594718Y-18236400D01*
X279615355Y-18393161D01*
X279675864Y-18539242D01*
X279772117Y-18664682D01*
X279897557Y-18760935D01*
X279897558Y-18760935D01*
X279897559Y-18760936D01*
X280043638Y-18821444D01*
X280200400Y-18842082D01*
X280357162Y-18821444D01*
X280503241Y-18760936D01*
X280628682Y-18664682D01*
X280724936Y-18539241D01*
X280785444Y-18393162D01*
X280806082Y-18236400D01*
X280785444Y-18079638D01*
X280724936Y-17933559D01*
X280724935Y-17933558D01*
X280724935Y-17933557D01*
X280628682Y-17808117D01*
X280503242Y-17711864D01*
X280357161Y-17651355D01*
X280200400Y-17630718D01*
X280043638Y-17651355D01*
X279897557Y-17711864D01*
X279772117Y-17808117D01*
X279675864Y-17933557D01*
X279615355Y-18079638D01*
X279594718Y-18236400D01*
X9100500Y-18236400D01*
X9100500Y-9502748D01*
X9100560Y-9500000D01*
X12744723Y-9500000D01*
X12763793Y-9717977D01*
X12820424Y-9929329D01*
X12912898Y-10127639D01*
X13038404Y-10306880D01*
X13193119Y-10461595D01*
X13193122Y-10461597D01*
X13193123Y-10461598D01*
X13372361Y-10587102D01*
X13570670Y-10679575D01*
X13782023Y-10736207D01*
X14000000Y-10755277D01*
X14217977Y-10736207D01*
X14429330Y-10679575D01*
X14627639Y-10587102D01*
X14806877Y-10461598D01*
X14961598Y-10306877D01*
X15087102Y-10127639D01*
X15179575Y-9929330D01*
X15236207Y-9717977D01*
X15255277Y-9500000D01*
X364244723Y-9500000D01*
X364263793Y-9717977D01*
X364320424Y-9929329D01*
X364412898Y-10127639D01*
X364538404Y-10306880D01*
X364693119Y-10461595D01*
X364693122Y-10461597D01*
X364693123Y-10461598D01*
X364872361Y-10587102D01*
X365070670Y-10679575D01*
X365282023Y-10736207D01*
X365500000Y-10755277D01*
X365717977Y-10736207D01*
X365929330Y-10679575D01*
X366127639Y-10587102D01*
X366306877Y-10461598D01*
X366461598Y-10306877D01*
X366587102Y-10127639D01*
X366679575Y-9929330D01*
X366736207Y-9717977D01*
X366755277Y-9500000D01*
X366736207Y-9282023D01*
X366679575Y-9070670D01*
X366587102Y-8872362D01*
X366461598Y-8693123D01*
X366461597Y-8693122D01*
X366461595Y-8693119D01*
X366306880Y-8538404D01*
X366127639Y-8412898D01*
X365929329Y-8320424D01*
X365717977Y-8263793D01*
X365500000Y-8244723D01*
X365282023Y-8263793D01*
X365070670Y-8320425D01*
X365070667Y-8320426D01*
X365070668Y-8320426D01*
X364872360Y-8412898D01*
X364693119Y-8538404D01*
X364538404Y-8693119D01*
X364412898Y-8872360D01*
X364371286Y-8961598D01*
X364320425Y-9070670D01*
X364270960Y-9255276D01*
X364263793Y-9282024D01*
X364244723Y-9500000D01*
X15255277Y-9500000D01*
X15236207Y-9282023D01*
X15179575Y-9070670D01*
X15087102Y-8872362D01*
X14961598Y-8693123D01*
X14961597Y-8693122D01*
X14961595Y-8693119D01*
X14806880Y-8538404D01*
X14627639Y-8412898D01*
X14429329Y-8320424D01*
X14217977Y-8263793D01*
X14000000Y-8244723D01*
X13782023Y-8263793D01*
X13570670Y-8320425D01*
X13570667Y-8320426D01*
X13570668Y-8320426D01*
X13372360Y-8412898D01*
X13193119Y-8538404D01*
X13038404Y-8693119D01*
X12912898Y-8872360D01*
X12871286Y-8961598D01*
X12820425Y-9070670D01*
X12770960Y-9255276D01*
X12763793Y-9282024D01*
X12744723Y-9500000D01*
X9100560Y-9500000D01*
X9100620Y-9497252D01*
X9118904Y-9078475D01*
X9119862Y-9067525D01*
X9124890Y-9029334D01*
X9174217Y-8654653D01*
X9176125Y-8643837D01*
X9199500Y-8538402D01*
X9266255Y-8237286D01*
X9269100Y-8226670D01*
X9276012Y-8204747D01*
X9340569Y-7999999D01*
X174494723Y-7999999D01*
X174513793Y-8217977D01*
X174570424Y-8429329D01*
X174662898Y-8627639D01*
X174788404Y-8806880D01*
X174943119Y-8961595D01*
X174943122Y-8961597D01*
X174943123Y-8961598D01*
X175122361Y-9087102D01*
X175320670Y-9179575D01*
X175532023Y-9236207D01*
X175750000Y-9255277D01*
X175967977Y-9236207D01*
X176179330Y-9179575D01*
X176377639Y-9087102D01*
X176556877Y-8961598D01*
X176711598Y-8806877D01*
X176837102Y-8627639D01*
X176929575Y-8429330D01*
X176986207Y-8217977D01*
X177005277Y-8000000D01*
X176986207Y-7782023D01*
X176929575Y-7570670D01*
X176837102Y-7372362D01*
X176711598Y-7193123D01*
X176711597Y-7193122D01*
X176711595Y-7193119D01*
X176556880Y-7038404D01*
X176377639Y-6912898D01*
X176179329Y-6820424D01*
X175967977Y-6763793D01*
X175750000Y-6744723D01*
X175532023Y-6763793D01*
X175320670Y-6820425D01*
X175320667Y-6820426D01*
X175320668Y-6820426D01*
X175122360Y-6912898D01*
X174943119Y-7038404D01*
X174788404Y-7193119D01*
X174662898Y-7372360D01*
X174570426Y-7570668D01*
X174513793Y-7782024D01*
X174494723Y-7999999D01*
X9340569Y-7999999D01*
X9394322Y-7829515D01*
X9398079Y-7819194D01*
X9407996Y-7795253D01*
X9557446Y-7434449D01*
X9562088Y-7424496D01*
X9754376Y-7055114D01*
X9759851Y-7045631D01*
X9983610Y-6694398D01*
X9989904Y-6685410D01*
X10243431Y-6355006D01*
X10250473Y-6346614D01*
X10531817Y-6039581D01*
X10539586Y-6031813D01*
X10846614Y-5750473D01*
X10855006Y-5743431D01*
X11185410Y-5489904D01*
X11194398Y-5483610D01*
X11545631Y-5259851D01*
X11555114Y-5254376D01*
X11924505Y-5062083D01*
X11934449Y-5057446D01*
X12319201Y-4898076D01*
X12329515Y-4894322D01*
X12726671Y-4769099D01*
X12737288Y-4766255D01*
X13143845Y-4676123D01*
X13154653Y-4674217D01*
X13567528Y-4619861D01*
X13578473Y-4618904D01*
X13997251Y-4600620D01*
X14002748Y-4600500D01*
X14026929Y-4600500D01*
X365473071Y-4600500D01*
X365497252Y-4600500D01*
X365502748Y-4600620D01*
G37*
G04 #@! TD.AperFunction*
M02*
