<?xml version="1.0" standalone="no"?>
 <!DOCTYPE svg PUBLIC "-//W3C//DTD SVG 1.1//EN" 
 "http://www.w3.org/Graphics/SVG/1.1/DTD/svg11.dtd"> 
<svg
  xmlns:svg="http://www.w3.org/2000/svg"
  xmlns="http://www.w3.org/2000/svg"
  xmlns:xlink="http://www.w3.org/1999/xlink"
  version="1.1"
  width="376.2248mm" height="102.4890mm" viewBox="0.0000 0.0000 376.2248 102.4890">
<title>SVG Image created as kastenwagen-1840-chunky-plate-brd.svg date 2023/04/12 11:05:32 </title>
  <desc>Image generated by PCBNEW </desc>
<g style="fill:#000000; fill-opacity:1.0000;stroke:#000000; stroke-opacity:1.0000;
stroke-linecap:round; stroke-linejoin:round;"
 transform="translate(0 0) scale(1 1)">
</g>
<g style="fill:#000000; fill-opacity:0.0; 
stroke:#000000; stroke-width:0.0000; stroke-opacity:1; 
stroke-linecap:round; stroke-linejoin:round;">
<g >
</g>
<g >
</g>
<g >
</g>
<g >
</g>
<g >
</g>
<g >
</g>
<g >
</g>
<g >
</g>
<g >
</g>
<g >
</g>
<g >
</g>
<g >
</g>
<g >
</g>
<g >
</g>
<g >
</g>
<g >
</g>
<g >
</g>
<g >
</g>
<g >
</g>
<g >
</g>
<g >
</g>
<g >
</g>
<g >
</g>
<g >
</g>
<g >
</g>
<g >
</g>
<g >
</g>
<g >
</g>
<g >
</g>
<g >
</g>
<g >
</g>
<g >
</g>
<g >
</g>
<g >
</g>
<g >
</g>
<g >
</g>
<g >
</g>
<g >
</g>
<g >
</g>
<g >
</g>
<g >
</g>
<g >
</g>
<g >
</g>
<g >
</g>
<g >
</g>
<g >
</g>
<g >
</g>
<g >
</g>
<g >
</g>
<g >
</g>
<g >
</g>
<g >
</g>
<g >
</g>
<g >
</g>
<g >
</g>
<g >
</g>
<g >
</g>
<g >
</g>
<g >
</g>
<g >
</g>
<g >
</g>
<g >
</g>
</g>
<g style="fill:#000000; fill-opacity:0.0; 
stroke:#000000; stroke-width:0.0000; stroke-opacity:1; 
stroke-linecap:round; stroke-linejoin:round;">
</g>
<g style="fill:#5994DC; fill-opacity:0.0; 
stroke:#5994DC; stroke-width:0.0000; stroke-opacity:1; 
stroke-linecap:round; stroke-linejoin:round;">
</g>
<g style="fill:#5994DC; fill-opacity:0.0; 
stroke:#5994DC; stroke-width:0.2000; stroke-opacity:1; 
stroke-linecap:round; stroke-linejoin:round;">
<path d="M361.2500 91.0000 A5.0000 5.0000 0.0 0 0 366.2500 86.0000" />
<path d="M15.7500 86.0000 A5.0000 5.0000 0.0 0 0 20.7500 91.0000" />
<path d="M20.7500 91.0000
L361.2500 91.0000
" />
<path d="M20.7500 7.5000
L361.2500 7.5000
" />
<path d="M20.7500 7.5000 A5.0000 5.0000 0.0 0 0 15.7500 12.5000" />
<path d="M15.7500 12.5000
L15.7500 86.0000
" />
<path d="M366.2500 12.5000 A5.0000 5.0000 0.0 0 0 361.2500 7.5000" />
<path d="M366.2500 12.5000
L366.2500 86.0000
" />
</g>
<g style="fill:#5994DC; fill-opacity:0.0; 
stroke:#5994DC; stroke-width:0.1500; stroke-opacity:1; 
stroke-linecap:round; stroke-linejoin:round;">
<path d="M276.5990 6.0310
L276.5990 11.1110
" />
<path d="M283.9650 6.0310
L276.5990 6.0310
" />
<path d="M283.9650 11.1110
L283.9650 6.0310
" />
<path d="M276.5990 11.1110
L283.9650 11.1110
" />
<g >
</g>
<g >
</g>
<g >
</g>
<g >
</g>
<g >
</g>
<g >
</g>
<g >
</g>
<g >
</g>
<g >
</g>
<g >
</g>
<g >
</g>
<g >
</g>
<g >
</g>
<g >
</g>
<g >
</g>
<g >
</g>
<g >
</g>
<g >
</g>
<g >
</g>
<g >
</g>
<g >
</g>
<g >
</g>
<g >
</g>
<g >
</g>
<g >
</g>
<g >
</g>
<g >
</g>
<g >
</g>
<g >
</g>
<g >
</g>
<g >
</g>
<g >
</g>
<g >
</g>
<g >
</g>
<g >
</g>
<g >
</g>
<g >
</g>
<g >
</g>
<g >
</g>
<g >
</g>
<g >
</g>
<g >
</g>
<g >
</g>
<g >
</g>
<g >
</g>
<g >
</g>
<g >
</g>
<g >
</g>
<g >
</g>
<g >
</g>
<g >
</g>
<g >
</g>
<g >
</g>
<g >
</g>
<g >
</g>
<g >
</g>
<g >
</g>
<g >
</g>
<g >
</g>
<g >
</g>
<g >
</g>
<g >
</g>
</g>
<g style="fill:#000000; fill-opacity:0.0; 
stroke:#000000; stroke-width:0.1500; stroke-opacity:1; 
stroke-linecap:round; stroke-linejoin:round;">
<g >
</g>
<g >
</g>
<g >
</g>
<g >
</g>
<g >
</g>
<g >
</g>
<g >
</g>
<g >
</g>
<g >
</g>
<g >
</g>
<g >
</g>
<g >
</g>
<g >
</g>
<g >
</g>
<g >
</g>
<g >
</g>
<g >
</g>
<g >
</g>
<g >
</g>
<g >
</g>
<g >
</g>
<g >
</g>
<g >
</g>
<g >
</g>
<g >
</g>
<g >
</g>
<g >
</g>
<g >
</g>
<g >
</g>
<g >
</g>
<g >
</g>
<g >
</g>
<g >
</g>
<g >
</g>
<g >
</g>
<g >
</g>
<g >
</g>
<g >
</g>
<g >
</g>
<g >
</g>
<g >
</g>
<g >
</g>
<g >
</g>
<g >
</g>
<g >
</g>
<g >
</g>
<g >
</g>
<g >
</g>
<g >
</g>
<g >
</g>
<g >
</g>
<g >
</g>
<g >
</g>
<g >
</g>
<g >
</g>
<g >
</g>
<g >
</g>
<g >
</g>
<g >
</g>
<g >
</g>
<g >
</g>
<g >
</g>
</g>
<g style="fill:#000000; fill-opacity:0.0; 
stroke:#000000; stroke-width:0.1500; stroke-opacity:1; 
stroke-linecap:round; stroke-linejoin:round;">
</g>
<g style="fill:#D0D2CD; fill-opacity:0.0; 
stroke:#D0D2CD; stroke-width:0.1500; stroke-opacity:1; 
stroke-linecap:round; stroke-linejoin:round;">
</g>
<g style="fill:#D0D2CD; fill-opacity:0.0; 
stroke:#D0D2CD; stroke-width:0.2000; stroke-opacity:1; 
stroke-linecap:round; stroke-linejoin:round;">
<circle cx="281.4504" cy="34.7364" r="0.5000" /> 
<circle cx="281.4504" cy="25.2364" r="0.5000" /> 
<circle cx="281.4504" cy="15.7364" r="0.5000" /> 
</g>
<g style="fill:#D0D2CD; fill-opacity:0.0; 
stroke:#D0D2CD; stroke-width:0.1500; stroke-opacity:1; 
stroke-linecap:round; stroke-linejoin:round;">
<circle cx="366.7500" cy="7.0000" r="1.1500" /> 
<circle cx="366.7500" cy="91.5000" r="1.1500" /> 
<circle cx="15.2500" cy="91.5000" r="1.1500" /> 
<circle cx="177.0000" cy="93.0000" r="1.1500" /> 
</g>
<g style="fill:#D0D2CD; fill-opacity:0.0; 
stroke:#D0D2CD; stroke-width:0.2000; stroke-opacity:1; 
stroke-linecap:round; stroke-linejoin:round;">
<path d="M10.2500 91.5000 A5.0000 5.0000 0.0 0 0 15.2500 96.5000" />
<path d="M15.2500 2.0000 A5.0000 5.0000 0.0 0 0 10.2500 7.0000" />
<path d="M15.2500 96.5000
L366.7500 96.5000
" />
<path d="M371.7500 7.0000 A5.0000 5.0000 0.0 0 0 366.7500 2.0000" />
<path d="M366.7500 96.5000 A5.0000 5.0000 0.0 0 0 371.7500 91.5000" />
</g>
<g style="fill:#D0D2CD; fill-opacity:0.0; 
stroke:#D0D2CD; stroke-width:0.1500; stroke-opacity:1; 
stroke-linecap:round; stroke-linejoin:round;">
<circle cx="15.2500" cy="7.0000" r="1.1500" /> 
</g>
<g style="fill:#D0D2CD; fill-opacity:0.0; 
stroke:#D0D2CD; stroke-width:0.2000; stroke-opacity:1; 
stroke-linecap:round; stroke-linejoin:round;">
<path d="M15.2500 2.0000
L366.7500 2.0000
" />
</g>
<g style="fill:#D0D2CD; fill-opacity:0.0; 
stroke:#D0D2CD; stroke-width:0.1500; stroke-opacity:1; 
stroke-linecap:round; stroke-linejoin:round;">
<circle cx="177.0000" cy="5.5000" r="1.1500" /> 
</g>
<g style="fill:#D0D2CD; fill-opacity:0.0; 
stroke:#D0D2CD; stroke-width:0.2000; stroke-opacity:1; 
stroke-linecap:round; stroke-linejoin:round;">
<path d="M10.2500 91.5000
L10.2500 7.0000
" />
<path d="M371.7500 91.5000
L371.7500 7.0000
" />
<path d="M269.3938 25.9250
L269.3938 38.9250
" />
<path d="M268.8938 39.4250
L265.1937 39.4250
" />
<path d="M268.8938 25.4250
L265.1937 25.4250
" />
<path d="M268.0938 41.4880
L268.0938 47.2380
" />
<path d="M268.0938 23.3620
L268.0938 17.6120
" />
<path d="M267.5938 40.9880
L265.1937 40.9880
" />
<path d="M267.5938 23.8620
L265.1937 23.8620
" />
<path d="M264.7937 47.7380
L267.5938 47.7380
" />
<path d="M264.7937 17.1120
L267.5938 17.1120
" />
<path d="M264.6937 48.0750
L264.6937 47.8380
" />
<path d="M264.6937 40.4880
L264.6937 39.9250
" />
<path d="M264.6937 24.3620
L264.6937 24.9250
" />
<path d="M264.6937 17.0120
L264.6937 16.7750
" />
<path d="M261.8938 48.5750
L264.1937 48.5750
" />
<path d="M261.8938 16.2750
L264.1937 16.2750
" />
<path d="M261.3938 47.8380
L261.3938 48.0750
" />
<path d="M261.3938 16.7750
L261.3938 17.0120
" />
<path d="M260.0938 40.4880
L260.0938 39.9250
" />
<path d="M260.0938 24.3620
L260.0938 24.9250
" />
<path d="M259.5938 40.9880
L256.2937 40.9880
" />
<path d="M259.5938 39.4250
L255.8937 39.4250
" />
<path d="M259.5938 25.4250
L255.8937 25.4250
" />
<path d="M259.5938 23.8620
L256.2937 23.8620
" />
<path d="M256.2937 47.7380
L261.2937 47.7380
" />
<path d="M256.2937 17.1120
L261.2937 17.1120
" />
<path d="M255.7937 47.2380
L255.7937 46.4000
" />
<path d="M255.7937 42.3250
L255.7937 41.4880
" />
<path d="M255.7937 23.3620
L255.7937 22.5250
" />
<path d="M255.7937 18.4500
L255.7937 17.6120
" />
<path d="M255.3937 38.9250
L255.3937 25.9250
" />
<path d="M255.1187 45.9000
L255.2937 45.9000
" />
<path d="M255.1187 42.8250
L255.2937 42.8250
" />
<path d="M255.1187 22.0250
L255.2937 22.0250
" />
<path d="M255.1187 18.9500
L255.2937 18.9500
" />
<path d="M254.6187 45.4000
L254.6187 43.3250
" />
<path d="M254.6187 21.5250
L254.6187 19.4500
" />
<path d="M268.8938 39.4250 A0.5000 0.5000 0.0 0 0 269.3937 38.9250" />
<path d="M269.3937 25.9250 A0.5000 0.5000 0.0 0 0 268.8938 25.4250" />
<path d="M267.5938 47.7380 A0.5000 0.5000 0.0 0 0 268.0937 47.2380" />
<path d="M267.5938 23.8620 A0.5000 0.5000 0.0 0 0 268.0937 23.3620" />
<path d="M268.0937 41.4880 A0.5000 0.5000 0.0 0 0 267.5938 40.9880" />
<path d="M268.0937 17.6120 A0.5000 0.5000 0.0 0 0 267.5938 17.1120" />
<path d="M264.6938 40.4880 A0.5000 0.5000 0.0 0 0 265.1937 40.9880" />
<path d="M264.6938 24.9250 A0.5000 0.5000 0.0 0 0 265.1937 25.4250" />
<path d="M264.6938 17.0120 A0.1000 0.1000 0.0 0 0 264.7937 17.1120" />
<path d="M264.1937 48.5750 A0.5000 0.5000 0.0 0 0 264.6937 48.0750" />
<path d="M264.7937 47.7380 A0.1000 0.1000 0.0 0 0 264.6938 47.8380" />
<path d="M265.1937 39.4250 A0.5000 0.5000 0.0 0 0 264.6938 39.9250" />
<path d="M265.1937 23.8620 A0.5000 0.5000 0.0 0 0 264.6938 24.3620" />
<path d="M264.6937 16.7750 A0.5000 0.5000 0.0 0 0 264.1937 16.2750" />
<path d="M261.3938 48.0750 A0.5000 0.5000 0.0 0 0 261.8938 48.5750" />
<path d="M261.2937 17.1120 A0.1000 0.1000 0.0 0 0 261.3938 17.0120" />
<path d="M261.8938 16.2750 A0.5000 0.5000 0.0 0 0 261.3938 16.7750" />
<path d="M261.3938 47.8380 A0.1000 0.1000 0.0 0 0 261.2937 47.7380" />
<path d="M259.5938 40.9880 A0.5000 0.5000 0.0 0 0 260.0938 40.4880" />
<path d="M259.5938 25.4250 A0.5000 0.5000 0.0 0 0 260.0938 24.9250" />
<path d="M260.0938 39.9250 A0.5000 0.5000 0.0 0 0 259.5938 39.4250" />
<path d="M260.0938 24.3620 A0.5000 0.5000 0.0 0 0 259.5938 23.8620" />
<path d="M255.7937 47.2380 A0.5000 0.5000 0.0 0 0 256.2937 47.7380" />
<path d="M255.7937 23.3620 A0.5000 0.5000 0.0 0 0 256.2937 23.8620" />
<path d="M255.3937 38.9250 A0.5000 0.5000 0.0 0 0 255.8937 39.4250" />
<path d="M255.2937 42.8250 A0.5000 0.5000 0.0 0 0 255.7937 42.3250" />
<path d="M256.2937 40.9880 A0.5000 0.5000 0.0 0 0 255.7937 41.4880" />
<path d="M255.2937 18.9500 A0.5000 0.5000 0.0 0 0 255.7937 18.4500" />
<path d="M256.2937 17.1120 A0.5000 0.5000 0.0 0 0 255.7937 17.6120" />
<path d="M255.8937 25.4250 A0.5000 0.5000 0.0 0 0 255.3937 25.9250" />
<path d="M255.7937 46.4000 A0.5000 0.5000 0.0 0 0 255.2937 45.9000" />
<path d="M255.7937 22.5250 A0.5000 0.5000 0.0 0 0 255.2937 22.0250" />
<path d="M254.6187 45.4000 A0.5000 0.5000 0.0 0 0 255.1187 45.9000" />
<path d="M254.6187 21.5250 A0.5000 0.5000 0.0 0 0 255.1187 22.0250" />
<path d="M255.1187 42.8250 A0.5000 0.5000 0.0 0 0 254.6187 43.3250" />
<path d="M255.1187 18.9500 A0.5000 0.5000 0.0 0 0 254.6187 19.4500" />
<path d="M19.6500 16.4000
L19.6500 29.4000
" />
<path d="M20.1500 15.9000
L33.1500 15.9000
" />
<path d="M33.1500 29.9000
L20.1500 29.9000
" />
<path d="M33.6500 29.4000
L33.6500 16.4000
" />
<path d="M20.1500 15.9000 A0.5000 0.5000 0.0 0 0 19.6500 16.4000" />
<path d="M19.6500 29.4000 A0.5000 0.5000 0.0 0 0 20.1500 29.9000" />
<path d="M33.6500 16.4000 A0.5000 0.5000 0.0 0 0 33.1500 15.9000" />
<path d="M33.1500 29.9000 A0.5000 0.5000 0.0 0 0 33.6500 29.4000" />
<path d="M38.7000 16.4000
L38.7000 29.4000
" />
<path d="M39.2000 15.9000
L52.2000 15.9000
" />
<path d="M52.2000 29.9000
L39.2000 29.9000
" />
<path d="M52.7000 29.4000
L52.7000 16.4000
" />
<path d="M39.2000 15.9000 A0.5000 0.5000 0.0 0 0 38.7000 16.4000" />
<path d="M38.7000 29.4000 A0.5000 0.5000 0.0 0 0 39.2000 29.9000" />
<path d="M52.7000 16.4000 A0.5000 0.5000 0.0 0 0 52.2000 15.9000" />
<path d="M52.2000 29.9000 A0.5000 0.5000 0.0 0 0 52.7000 29.4000" />
<path d="M57.7500 16.4000
L57.7500 29.4000
" />
<path d="M58.2500 15.9000
L71.2500 15.9000
" />
<path d="M71.2500 29.9000
L58.2500 29.9000
" />
<path d="M71.7500 29.4000
L71.7500 16.4000
" />
<path d="M58.2500 15.9000 A0.5000 0.5000 0.0 0 0 57.7500 16.4000" />
<path d="M57.7500 29.4000 A0.5000 0.5000 0.0 0 0 58.2500 29.9000" />
<path d="M71.7500 16.4000 A0.5000 0.5000 0.0 0 0 71.2500 15.9000" />
<path d="M71.2500 29.9000 A0.5000 0.5000 0.0 0 0 71.7500 29.4000" />
<path d="M76.8000 16.4000
L76.8000 29.4000
" />
<path d="M77.3000 15.9000
L90.3000 15.9000
" />
<path d="M90.3000 29.9000
L77.3000 29.9000
" />
<path d="M90.8000 29.4000
L90.8000 16.4000
" />
<path d="M77.3000 15.9000 A0.5000 0.5000 0.0 0 0 76.8000 16.4000" />
<path d="M76.8000 29.4000 A0.5000 0.5000 0.0 0 0 77.3000 29.9000" />
<path d="M90.8000 16.4000 A0.5000 0.5000 0.0 0 0 90.3000 15.9000" />
<path d="M90.3000 29.9000 A0.5000 0.5000 0.0 0 0 90.8000 29.4000" />
<path d="M172.0500 16.4000
L172.0500 29.4000
" />
<path d="M172.5500 15.9000
L185.5500 15.9000
" />
<path d="M185.5500 29.9000
L172.5500 29.9000
" />
<path d="M186.0500 29.4000
L186.0500 16.4000
" />
<path d="M172.5500 15.9000 A0.5000 0.5000 0.0 0 0 172.0500 16.4000" />
<path d="M172.0500 29.4000 A0.5000 0.5000 0.0 0 0 172.5500 29.9000" />
<path d="M186.0500 16.4000 A0.5000 0.5000 0.0 0 0 185.5500 15.9000" />
<path d="M185.5500 29.9000 A0.5000 0.5000 0.0 0 0 186.0500 29.4000" />
<path d="M210.1500 16.4000
L210.1500 29.4000
" />
<path d="M210.6500 15.9000
L223.6500 15.9000
" />
<path d="M223.6500 29.9000
L210.6500 29.9000
" />
<path d="M224.1500 29.4000
L224.1500 16.4000
" />
<path d="M210.6500 15.9000 A0.5000 0.5000 0.0 0 0 210.1500 16.4000" />
<path d="M210.1500 29.4000 A0.5000 0.5000 0.0 0 0 210.6500 29.9000" />
<path d="M224.1500 16.4000 A0.5000 0.5000 0.0 0 0 223.6500 15.9000" />
<path d="M223.6500 29.9000 A0.5000 0.5000 0.0 0 0 224.1500 29.4000" />
<path d="M229.2000 16.4000
L229.2000 29.4000
" />
<path d="M229.7000 15.9000
L242.7000 15.9000
" />
<path d="M242.7000 29.9000
L229.7000 29.9000
" />
<path d="M243.2000 29.4000
L243.2000 16.4000
" />
<path d="M229.7000 15.9000 A0.5000 0.5000 0.0 0 0 229.2000 16.4000" />
<path d="M229.2000 29.4000 A0.5000 0.5000 0.0 0 0 229.7000 29.9000" />
<path d="M243.2000 16.4000 A0.5000 0.5000 0.0 0 0 242.7000 15.9000" />
<path d="M242.7000 29.9000 A0.5000 0.5000 0.0 0 0 243.2000 29.4000" />
<path d="M191.1000 16.4000
L191.1000 29.4000
" />
<path d="M191.6000 15.9000
L204.6000 15.9000
" />
<path d="M204.6000 29.9000
L191.6000 29.9000
" />
<path d="M205.1000 29.4000
L205.1000 16.4000
" />
<path d="M191.6000 15.9000 A0.5000 0.5000 0.0 0 0 191.1000 16.4000" />
<path d="M191.1000 29.4000 A0.5000 0.5000 0.0 0 0 191.6000 29.9000" />
<path d="M205.1000 16.4000 A0.5000 0.5000 0.0 0 0 204.6000 15.9000" />
<path d="M204.6000 29.9000 A0.5000 0.5000 0.0 0 0 205.1000 29.4000" />
<path d="M62.5125 35.4500
L62.5125 48.4500
" />
<path d="M63.0125 34.9500
L76.0125 34.9500
" />
<path d="M76.0125 48.9500
L63.0125 48.9500
" />
<path d="M76.5125 48.4500
L76.5125 35.4500
" />
<path d="M63.0125 34.9500 A0.5000 0.5000 0.0 0 0 62.5125 35.4500" />
<path d="M62.5125 48.4500 A0.5000 0.5000 0.0 0 0 63.0125 48.9500" />
<path d="M76.5125 35.4500 A0.5000 0.5000 0.0 0 0 76.0125 34.9500" />
<path d="M76.0125 48.9500 A0.5000 0.5000 0.0 0 0 76.5125 48.4500" />
<path d="M81.5625 35.4500
L81.5625 48.4500
" />
<path d="M82.0625 34.9500
L95.0625 34.9500
" />
<path d="M95.0625 48.9500
L82.0625 48.9500
" />
<path d="M95.5625 48.4500
L95.5625 35.4500
" />
<path d="M82.0625 34.9500 A0.5000 0.5000 0.0 0 0 81.5625 35.4500" />
<path d="M81.5625 48.4500 A0.5000 0.5000 0.0 0 0 82.0625 48.9500" />
<path d="M95.5625 35.4500 A0.5000 0.5000 0.0 0 0 95.0625 34.9500" />
<path d="M95.0625 48.9500 A0.5000 0.5000 0.0 0 0 95.5625 48.4500" />
<path d="M100.6125 35.4500
L100.6125 48.4500
" />
<path d="M101.1125 34.9500
L114.1125 34.9500
" />
<path d="M114.1125 48.9500
L101.1125 48.9500
" />
<path d="M114.6125 48.4500
L114.6125 35.4500
" />
<path d="M101.1125 34.9500 A0.5000 0.5000 0.0 0 0 100.6125 35.4500" />
<path d="M100.6125 48.4500 A0.5000 0.5000 0.0 0 0 101.1125 48.9500" />
<path d="M114.6125 35.4500 A0.5000 0.5000 0.0 0 0 114.1125 34.9500" />
<path d="M114.1125 48.9500 A0.5000 0.5000 0.0 0 0 114.6125 48.4500" />
<path d="M138.7125 35.4500
L138.7125 48.4500
" />
<path d="M139.2125 34.9500
L152.2125 34.9500
" />
<path d="M152.2125 48.9500
L139.2125 48.9500
" />
<path d="M152.7125 48.4500
L152.7125 35.4500
" />
<path d="M139.2125 34.9500 A0.5000 0.5000 0.0 0 0 138.7125 35.4500" />
<path d="M138.7125 48.4500 A0.5000 0.5000 0.0 0 0 139.2125 48.9500" />
<path d="M152.7125 35.4500 A0.5000 0.5000 0.0 0 0 152.2125 34.9500" />
<path d="M152.2125 48.9500 A0.5000 0.5000 0.0 0 0 152.7125 48.4500" />
<path d="M119.6625 35.4500
L119.6625 48.4500
" />
<path d="M120.1625 34.9500
L133.1625 34.9500
" />
<path d="M133.1625 48.9500
L120.1625 48.9500
" />
<path d="M133.6625 48.4500
L133.6625 35.4500
" />
<path d="M120.1625 34.9500 A0.5000 0.5000 0.0 0 0 119.6625 35.4500" />
<path d="M119.6625 48.4500 A0.5000 0.5000 0.0 0 0 120.1625 48.9500" />
<path d="M133.6625 35.4500 A0.5000 0.5000 0.0 0 0 133.1625 34.9500" />
<path d="M133.1625 48.9500 A0.5000 0.5000 0.0 0 0 133.6625 48.4500" />
<path d="M43.4625 35.4500
L43.4625 48.4500
" />
<path d="M43.9625 34.9500
L56.9625 34.9500
" />
<path d="M56.9625 48.9500
L43.9625 48.9500
" />
<path d="M57.4625 48.4500
L57.4625 35.4500
" />
<path d="M43.9625 34.9500 A0.5000 0.5000 0.0 0 0 43.4625 35.4500" />
<path d="M43.4625 48.4500 A0.5000 0.5000 0.0 0 0 43.9625 48.9500" />
<path d="M57.4625 35.4500 A0.5000 0.5000 0.0 0 0 56.9625 34.9500" />
<path d="M56.9625 48.9500 A0.5000 0.5000 0.0 0 0 57.4625 48.4500" />
<path d="M157.7625 35.4500
L157.7625 48.4500
" />
<path d="M158.2625 34.9500
L171.2625 34.9500
" />
<path d="M171.2625 48.9500
L158.2625 48.9500
" />
<path d="M171.7625 48.4500
L171.7625 35.4500
" />
<path d="M158.2625 34.9500 A0.5000 0.5000 0.0 0 0 157.7625 35.4500" />
<path d="M157.7625 48.4500 A0.5000 0.5000 0.0 0 0 158.2625 48.9500" />
<path d="M171.7625 35.4500 A0.5000 0.5000 0.0 0 0 171.2625 34.9500" />
<path d="M171.2625 48.9500 A0.5000 0.5000 0.0 0 0 171.7625 48.4500" />
<path d="M233.9625 35.4500
L233.9625 48.4500
" />
<path d="M234.4625 34.9500
L247.4625 34.9500
" />
<path d="M247.4625 48.9500
L234.4625 48.9500
" />
<path d="M247.9625 48.4500
L247.9625 35.4500
" />
<path d="M234.4625 34.9500 A0.5000 0.5000 0.0 0 0 233.9625 35.4500" />
<path d="M233.9625 48.4500 A0.5000 0.5000 0.0 0 0 234.4625 48.9500" />
<path d="M247.9625 35.4500 A0.5000 0.5000 0.0 0 0 247.4625 34.9500" />
<path d="M247.4625 48.9500 A0.5000 0.5000 0.0 0 0 247.9625 48.4500" />
<path d="M195.8625 35.4500
L195.8625 48.4500
" />
<path d="M196.3625 34.9500
L209.3625 34.9500
" />
<path d="M209.3625 48.9500
L196.3625 48.9500
" />
<path d="M209.8625 48.4500
L209.8625 35.4500
" />
<path d="M196.3625 34.9500 A0.5000 0.5000 0.0 0 0 195.8625 35.4500" />
<path d="M195.8625 48.4500 A0.5000 0.5000 0.0 0 0 196.3625 48.9500" />
<path d="M209.8625 35.4500 A0.5000 0.5000 0.0 0 0 209.3625 34.9500" />
<path d="M209.3625 48.9500 A0.5000 0.5000 0.0 0 0 209.8625 48.4500" />
<path d="M176.8125 35.4500
L176.8125 48.4500
" />
<path d="M177.3125 34.9500
L190.3125 34.9500
" />
<path d="M190.3125 48.9500
L177.3125 48.9500
" />
<path d="M190.8125 48.4500
L190.8125 35.4500
" />
<path d="M177.3125 34.9500 A0.5000 0.5000 0.0 0 0 176.8125 35.4500" />
<path d="M176.8125 48.4500 A0.5000 0.5000 0.0 0 0 177.3125 48.9500" />
<path d="M190.8125 35.4500 A0.5000 0.5000 0.0 0 0 190.3125 34.9500" />
<path d="M190.3125 48.9500 A0.5000 0.5000 0.0 0 0 190.8125 48.4500" />
<path d="M214.9125 35.4500
L214.9125 48.4500
" />
<path d="M215.4125 34.9500
L228.4125 34.9500
" />
<path d="M228.4125 48.9500
L215.4125 48.9500
" />
<path d="M228.9125 48.4500
L228.9125 35.4500
" />
<path d="M215.4125 34.9500 A0.5000 0.5000 0.0 0 0 214.9125 35.4500" />
<path d="M214.9125 48.4500 A0.5000 0.5000 0.0 0 0 215.4125 48.9500" />
<path d="M228.9125 35.4500 A0.5000 0.5000 0.0 0 0 228.4125 34.9500" />
<path d="M228.4125 48.9500 A0.5000 0.5000 0.0 0 0 228.9125 48.4500" />
<path d="M224.4375 54.5000
L224.4375 67.5000
" />
<path d="M224.9375 54.0000
L237.9375 54.0000
" />
<path d="M237.9375 68.0000
L224.9375 68.0000
" />
<path d="M238.4375 67.5000
L238.4375 54.5000
" />
<path d="M224.9375 54.0000 A0.5000 0.5000 0.0 0 0 224.4375 54.5000" />
<path d="M224.4375 67.5000 A0.5000 0.5000 0.0 0 0 224.9375 68.0000" />
<path d="M238.4375 54.5000 A0.5000 0.5000 0.0 0 0 237.9375 54.0000" />
<path d="M237.9375 68.0000 A0.5000 0.5000 0.0 0 0 238.4375 67.5000" />
<path d="M52.9875 54.5000
L52.9875 67.5000
" />
<path d="M53.4875 54.0000
L66.4875 54.0000
" />
<path d="M66.4875 68.0000
L53.4875 68.0000
" />
<path d="M66.9875 67.5000
L66.9875 54.5000
" />
<path d="M53.4875 54.0000 A0.5000 0.5000 0.0 0 0 52.9875 54.5000" />
<path d="M52.9875 67.5000 A0.5000 0.5000 0.0 0 0 53.4875 68.0000" />
<path d="M66.9875 54.5000 A0.5000 0.5000 0.0 0 0 66.4875 54.0000" />
<path d="M66.4875 68.0000 A0.5000 0.5000 0.0 0 0 66.9875 67.5000" />
<path d="M186.3375 54.5000
L186.3375 67.5000
" />
<path d="M186.8375 54.0000
L199.8375 54.0000
" />
<path d="M199.8375 68.0000
L186.8375 68.0000
" />
<path d="M200.3375 67.5000
L200.3375 54.5000
" />
<path d="M186.8375 54.0000 A0.5000 0.5000 0.0 0 0 186.3375 54.5000" />
<path d="M186.3375 67.5000 A0.5000 0.5000 0.0 0 0 186.8375 68.0000" />
<path d="M200.3375 54.5000 A0.5000 0.5000 0.0 0 0 199.8375 54.0000" />
<path d="M199.8375 68.0000 A0.5000 0.5000 0.0 0 0 200.3375 67.5000" />
<path d="M205.3875 54.5000
L205.3875 67.5000
" />
<path d="M205.8875 54.0000
L218.8875 54.0000
" />
<path d="M218.8875 68.0000
L205.8875 68.0000
" />
<path d="M219.3875 67.5000
L219.3875 54.5000
" />
<path d="M205.8875 54.0000 A0.5000 0.5000 0.0 0 0 205.3875 54.5000" />
<path d="M205.3875 67.5000 A0.5000 0.5000 0.0 0 0 205.8875 68.0000" />
<path d="M219.3875 54.5000 A0.5000 0.5000 0.0 0 0 218.8875 54.0000" />
<path d="M218.8875 68.0000 A0.5000 0.5000 0.0 0 0 219.3875 67.5000" />
<path d="M167.2875 54.5000
L167.2875 67.5000
" />
<path d="M167.7875 54.0000
L180.7875 54.0000
" />
<path d="M180.7875 68.0000
L167.7875 68.0000
" />
<path d="M181.2875 67.5000
L181.2875 54.5000
" />
<path d="M167.7875 54.0000 A0.5000 0.5000 0.0 0 0 167.2875 54.5000" />
<path d="M167.2875 67.5000 A0.5000 0.5000 0.0 0 0 167.7875 68.0000" />
<path d="M181.2875 54.5000 A0.5000 0.5000 0.0 0 0 180.7875 54.0000" />
<path d="M180.7875 68.0000 A0.5000 0.5000 0.0 0 0 181.2875 67.5000" />
<path d="M129.1875 54.5000
L129.1875 67.5000
" />
<path d="M129.6875 54.0000
L142.6875 54.0000
" />
<path d="M142.6875 68.0000
L129.6875 68.0000
" />
<path d="M143.1875 67.5000
L143.1875 54.5000
" />
<path d="M129.6875 54.0000 A0.5000 0.5000 0.0 0 0 129.1875 54.5000" />
<path d="M129.1875 67.5000 A0.5000 0.5000 0.0 0 0 129.6875 68.0000" />
<path d="M143.1875 54.5000 A0.5000 0.5000 0.0 0 0 142.6875 54.0000" />
<path d="M142.6875 68.0000 A0.5000 0.5000 0.0 0 0 143.1875 67.5000" />
<path d="M110.1375 54.5000
L110.1375 67.5000
" />
<path d="M110.6375 54.0000
L123.6375 54.0000
" />
<path d="M123.6375 68.0000
L110.6375 68.0000
" />
<path d="M124.1375 67.5000
L124.1375 54.5000
" />
<path d="M110.6375 54.0000 A0.5000 0.5000 0.0 0 0 110.1375 54.5000" />
<path d="M110.1375 67.5000 A0.5000 0.5000 0.0 0 0 110.6375 68.0000" />
<path d="M124.1375 54.5000 A0.5000 0.5000 0.0 0 0 123.6375 54.0000" />
<path d="M123.6375 68.0000 A0.5000 0.5000 0.0 0 0 124.1375 67.5000" />
<path d="M148.2375 54.5000
L148.2375 67.5000
" />
<path d="M148.7375 54.0000
L161.7375 54.0000
" />
<path d="M161.7375 68.0000
L148.7375 68.0000
" />
<path d="M162.2375 67.5000
L162.2375 54.5000
" />
<path d="M148.7375 54.0000 A0.5000 0.5000 0.0 0 0 148.2375 54.5000" />
<path d="M148.2375 67.5000 A0.5000 0.5000 0.0 0 0 148.7375 68.0000" />
<path d="M162.2375 54.5000 A0.5000 0.5000 0.0 0 0 161.7375 54.0000" />
<path d="M161.7375 68.0000 A0.5000 0.5000 0.0 0 0 162.2375 67.5000" />
<path d="M72.0375 54.5000
L72.0375 67.5000
" />
<path d="M72.5375 54.0000
L85.5375 54.0000
" />
<path d="M85.5375 68.0000
L72.5375 68.0000
" />
<path d="M86.0375 67.5000
L86.0375 54.5000
" />
<path d="M72.5375 54.0000 A0.5000 0.5000 0.0 0 0 72.0375 54.5000" />
<path d="M72.0375 67.5000 A0.5000 0.5000 0.0 0 0 72.5375 68.0000" />
<path d="M86.0375 54.5000 A0.5000 0.5000 0.0 0 0 85.5375 54.0000" />
<path d="M85.5375 68.0000 A0.5000 0.5000 0.0 0 0 86.0375 67.5000" />
<path d="M91.0875 54.5000
L91.0875 67.5000
" />
<path d="M91.5875 54.0000
L104.5875 54.0000
" />
<path d="M104.5875 68.0000
L91.5875 68.0000
" />
<path d="M105.0875 67.5000
L105.0875 54.5000
" />
<path d="M91.5875 54.0000 A0.5000 0.5000 0.0 0 0 91.0875 54.5000" />
<path d="M91.0875 67.5000 A0.5000 0.5000 0.0 0 0 91.5875 68.0000" />
<path d="M105.0875 54.5000 A0.5000 0.5000 0.0 0 0 104.5875 54.0000" />
<path d="M104.5875 68.0000 A0.5000 0.5000 0.0 0 0 105.0875 67.5000" />
<path d="M21.1937 54.5000
L21.1937 67.5000
" />
<path d="M21.6937 54.0000
L22.6937 54.0000
" />
<path d="M21.6937 68.0000
L22.6937 68.0000
" />
<path d="M23.1937 54.5000
L23.1937 67.5000
" />
<path d="M26.7937 54.5000
L26.7937 67.5000
" />
<path d="M27.2937 54.0000
L40.2937 54.0000
" />
<path d="M40.2937 68.0000
L27.2937 68.0000
" />
<path d="M40.7937 67.5000
L40.7937 54.5000
" />
<path d="M44.3937 67.5000
L44.3937 54.5000
" />
<path d="M45.8937 54.0000
L44.8937 54.0000
" />
<path d="M45.8937 68.0000
L44.8937 68.0000
" />
<path d="M46.3937 67.5000
L46.3937 54.5000
" />
<path d="M21.6937 54.0000 A0.5000 0.5000 0.0 0 0 21.1938 54.5000" />
<path d="M21.1938 67.5000 A0.5000 0.5000 0.0 0 0 21.6937 68.0000" />
<path d="M23.1937 54.5000 A0.5000 0.5000 0.0 0 0 22.6938 54.0000" />
<path d="M22.6938 68.0000 A0.5000 0.5000 0.0 0 0 23.1937 67.5000" />
<path d="M27.2937 54.0000 A0.5000 0.5000 0.0 0 0 26.7938 54.5000" />
<path d="M26.7938 67.5000 A0.5000 0.5000 0.0 0 0 27.2937 68.0000" />
<path d="M40.7937 54.5000 A0.5000 0.5000 0.0 0 0 40.2937 54.0000" />
<path d="M40.2937 68.0000 A0.5000 0.5000 0.0 0 0 40.7937 67.5000" />
<path d="M44.8937 54.0000 A0.5000 0.5000 0.0 0 0 44.3937 54.5000" />
<path d="M44.3937 67.5000 A0.5000 0.5000 0.0 0 0 44.8937 68.0000" />
<path d="M46.3937 54.5000 A0.5000 0.5000 0.0 0 0 45.8937 54.0000" />
<path d="M45.8937 68.0000 A0.5000 0.5000 0.0 0 0 46.3937 67.5000" />
<path d="M245.8687 54.5000
L245.8687 67.5000
" />
<path d="M246.3687 54.0000
L259.3687 54.0000
" />
<path d="M259.3687 68.0000
L246.3687 68.0000
" />
<path d="M259.8687 67.5000
L259.8687 54.5000
" />
<path d="M246.3687 54.0000 A0.5000 0.5000 0.0 0 0 245.8688 54.5000" />
<path d="M245.8688 67.5000 A0.5000 0.5000 0.0 0 0 246.3687 68.0000" />
<path d="M259.8687 54.5000 A0.5000 0.5000 0.0 0 0 259.3687 54.0000" />
<path d="M259.3687 68.0000 A0.5000 0.5000 0.0 0 0 259.8687 67.5000" />
<path d="M45.8438 73.5500
L45.8438 86.5500
" />
<path d="M46.3438 73.0500
L59.3438 73.0500
" />
<path d="M59.3438 87.0500
L46.3438 87.0500
" />
<path d="M59.8438 86.5500
L59.8438 73.5500
" />
<path d="M46.3438 73.0500 A0.5000 0.5000 0.0 0 0 45.8438 73.5500" />
<path d="M45.8438 86.5500 A0.5000 0.5000 0.0 0 0 46.3438 87.0500" />
<path d="M59.8438 73.5500 A0.5000 0.5000 0.0 0 0 59.3438 73.0500" />
<path d="M59.3438 87.0500 A0.5000 0.5000 0.0 0 0 59.8438 86.5500" />
<path d="M226.8187 73.5500
L226.8187 86.5500
" />
<path d="M227.3187 73.0500
L240.3187 73.0500
" />
<path d="M240.3187 87.0500
L227.3187 87.0500
" />
<path d="M240.8187 86.5500
L240.8187 73.5500
" />
<path d="M227.3187 73.0500 A0.5000 0.5000 0.0 0 0 226.8188 73.5500" />
<path d="M226.8188 86.5500 A0.5000 0.5000 0.0 0 0 227.3187 87.0500" />
<path d="M240.8187 73.5500 A0.5000 0.5000 0.0 0 0 240.3187 73.0500" />
<path d="M240.3187 87.0500 A0.5000 0.5000 0.0 0 0 240.8187 86.5500" />
<path d="M203.0062 73.5500
L203.0062 86.5500
" />
<path d="M203.5062 73.0500
L216.5062 73.0500
" />
<path d="M216.5062 87.0500
L203.5062 87.0500
" />
<path d="M217.0062 86.5500
L217.0062 73.5500
" />
<path d="M203.5062 73.0500 A0.5000 0.5000 0.0 0 0 203.0063 73.5500" />
<path d="M203.0063 86.5500 A0.5000 0.5000 0.0 0 0 203.5062 87.0500" />
<path d="M217.0062 73.5500 A0.5000 0.5000 0.0 0 0 216.5062 73.0500" />
<path d="M216.5062 87.0500 A0.5000 0.5000 0.0 0 0 217.0062 86.5500" />
<path d="M329.2125 54.5000
L329.2125 67.5000
" />
<path d="M329.7125 54.0000
L342.7125 54.0000
" />
<path d="M342.7125 68.0000
L329.7125 68.0000
" />
<path d="M343.2125 67.5000
L343.2125 54.5000
" />
<path d="M329.7125 54.0000 A0.5000 0.5000 0.0 0 0 329.2125 54.5000" />
<path d="M329.2125 67.5000 A0.5000 0.5000 0.0 0 0 329.7125 68.0000" />
<path d="M343.2125 54.5000 A0.5000 0.5000 0.0 0 0 342.7125 54.0000" />
<path d="M342.7125 68.0000 A0.5000 0.5000 0.0 0 0 343.2125 67.5000" />
<path d="M343.2125 86.5500
L343.2125 73.5500
" />
<path d="M342.7125 87.0500
L310.6625 87.0500
" />
<path d="M342.5005 73.0500
L342.7125 73.0500
" />
<path d="M341.5005 72.0500
L335.7505 72.0500
" />
<path d="M318.6245 73.0500
L334.7505 73.0500
" />
<path d="M317.6245 72.0500
L311.8745 72.0500
" />
<path d="M310.6625 73.0500
L310.8745 73.0500
" />
<path d="M310.1625 73.5500
L310.1625 86.5500
" />
<path d="M342.7125 87.0500 A0.5000 0.5000 0.0 0 0 343.2125 86.5500" />
<path d="M343.2125 73.5500 A0.5000 0.5000 0.0 0 0 342.7125 73.0500" />
<path d="M342.0005 72.5500 A0.5000 0.5000 0.0 0 0 342.5005 73.0500" />
<path d="M342.0005 72.5500 A0.5000 0.5000 0.0 0 0 341.5005 72.0500" />
<path d="M335.7505 72.0500 A0.5000 0.5000 0.0 0 0 335.2505 72.5500" />
<path d="M334.7505 73.0500 A0.5000 0.5000 0.0 0 0 335.2505 72.5500" />
<path d="M318.1245 72.5500 A0.5000 0.5000 0.0 0 0 318.6245 73.0500" />
<path d="M318.1245 72.5500 A0.5000 0.5000 0.0 0 0 317.6245 72.0500" />
<path d="M311.8745 72.0500 A0.5000 0.5000 0.0 0 0 311.3745 72.5500" />
<path d="M310.8745 73.0500 A0.5000 0.5000 0.0 0 0 311.3745 72.5500" />
<path d="M310.1625 86.5500 A0.5000 0.5000 0.0 0 0 310.6625 87.0500" />
<path d="M310.6625 73.0500 A0.5000 0.5000 0.0 0 0 310.1625 73.5500" />
<path d="M361.7625 54.0000
L348.7625 54.0000
" />
<path d="M362.2625 54.5000
L362.2625 86.5500
" />
<path d="M348.2625 54.7120
L348.2625 54.5000
" />
<path d="M347.2625 55.7120
L347.2625 61.4620
" />
<path d="M348.2625 78.5880
L348.2625 62.4620
" />
<path d="M347.2625 79.5880
L347.2625 85.3380
" />
<path d="M348.2625 86.5500
L348.2625 86.3380
" />
<path d="M348.7625 87.0500
L361.7625 87.0500
" />
<path d="M362.2625 54.5000 A0.5000 0.5000 0.0 0 0 361.7625 54.0000" />
<path d="M348.7625 54.0000 A0.5000 0.5000 0.0 0 0 348.2625 54.5000" />
<path d="M347.7625 55.2120 A0.5000 0.5000 0.0 0 0 348.2625 54.7120" />
<path d="M347.7625 55.2120 A0.5000 0.5000 0.0 0 0 347.2625 55.7120" />
<path d="M347.2625 61.4620 A0.5000 0.5000 0.0 0 0 347.7625 61.9620" />
<path d="M348.2625 62.4620 A0.5000 0.5000 0.0 0 0 347.7625 61.9620" />
<path d="M347.7625 79.0880 A0.5000 0.5000 0.0 0 0 348.2625 78.5880" />
<path d="M347.7625 79.0880 A0.5000 0.5000 0.0 0 0 347.2625 79.5880" />
<path d="M347.2625 85.3380 A0.5000 0.5000 0.0 0 0 347.7625 85.8380" />
<path d="M348.2625 86.3380 A0.5000 0.5000 0.0 0 0 347.7625 85.8380" />
<path d="M361.7625 87.0500 A0.5000 0.5000 0.0 0 0 362.2625 86.5500" />
<path d="M348.2625 86.5500 A0.5000 0.5000 0.0 0 0 348.7625 87.0500" />
<path d="M67.2750 73.5500
L67.2750 86.5500
" />
<path d="M67.7750 73.0500
L70.3750 73.0500
" />
<path d="M77.1250 72.0500
L71.3750 72.0500
" />
<path d="M78.1250 73.0500
L80.7750 73.0500
" />
<path d="M80.7750 87.0500
L67.7750 87.0500
" />
<path d="M81.2750 86.5500
L81.2750 73.5500
" />
<path d="M94.6807 72.5500
L94.6807 85.5500
" />
<path d="M95.1807 72.0500
L100.9307 72.0500
" />
<path d="M95.1807 86.0500
L102.4937 86.0500
" />
<path d="M101.9307 73.0500
L118.0567 73.0500
" />
<path d="M116.4937 87.0500
L103.4937 87.0500
" />
<path d="M117.4937 86.0500
L123.9250 86.0500
" />
<path d="M119.0567 72.0500
L124.8067 72.0500
" />
<path d="M125.8067 73.0500
L137.9250 73.0500
" />
<path d="M137.9250 87.0500
L124.9250 87.0500
" />
<path d="M138.4250 86.5500
L138.4250 73.5500
" />
<path d="M142.3057 72.5500
L142.3057 85.5500
" />
<path d="M142.8057 72.0500
L148.5557 72.0500
" />
<path d="M142.8057 86.0500
L150.1188 86.0500
" />
<path d="M149.5557 73.0500
L165.6817 73.0500
" />
<path d="M164.1188 87.0500
L151.1188 87.0500
" />
<path d="M165.1188 86.0500
L172.4317 86.0500
" />
<path d="M166.6817 72.0500
L172.4317 72.0500
" />
<path d="M172.9317 72.5500
L172.9317 85.5500
" />
<path d="M181.5750 73.5500
L181.5750 86.5500
" />
<path d="M182.0750 73.0500
L184.7000 73.0500
" />
<path d="M185.7000 72.0500
L191.4500 72.0500
" />
<path d="M192.4500 73.0500
L195.0750 73.0500
" />
<path d="M195.0750 87.0500
L182.0750 87.0500
" />
<path d="M195.5750 86.5500
L195.5750 73.5500
" />
<path d="M67.7750 73.0500 A0.5000 0.5000 0.0 0 0 67.2750 73.5500" />
<path d="M67.2750 86.5500 A0.5000 0.5000 0.0 0 0 67.7750 87.0500" />
<path d="M70.3750 73.0500 A0.5000 0.5000 0.0 0 0 70.8750 72.5500" />
<path d="M71.3750 72.0500 A0.5000 0.5000 0.0 0 0 70.8750 72.5500" />
<path d="M77.6250 72.5500 A0.5000 0.5000 0.0 0 0 77.1250 72.0500" />
<path d="M77.6250 72.5500 A0.5000 0.5000 0.0 0 0 78.1250 73.0500" />
<path d="M81.2750 73.5500 A0.5000 0.5000 0.0 0 0 80.7750 73.0500" />
<path d="M80.7750 87.0500 A0.5000 0.5000 0.0 0 0 81.2750 86.5500" />
<path d="M95.1808 72.0500 A0.5000 0.5000 0.0 0 0 94.6808 72.5500" />
<path d="M94.6808 85.5500 A0.5000 0.5000 0.0 0 0 95.1808 86.0500" />
<path d="M101.4307 72.5500 A0.5000 0.5000 0.0 0 0 100.9307 72.0500" />
<path d="M101.4308 72.5500 A0.5000 0.5000 0.0 0 0 101.9308 73.0500" />
<path d="M102.9937 86.5500 A0.5000 0.5000 0.0 0 0 102.4937 86.0500" />
<path d="M102.9938 86.5500 A0.5000 0.5000 0.0 0 0 103.4937 87.0500" />
<path d="M116.4937 87.0500 A0.5000 0.5000 0.0 0 0 116.9937 86.5500" />
<path d="M117.4937 86.0500 A0.5000 0.5000 0.0 0 0 116.9938 86.5500" />
<path d="M118.0567 73.0500 A0.5000 0.5000 0.0 0 0 118.5567 72.5500" />
<path d="M119.0567 72.0500 A0.5000 0.5000 0.0 0 0 118.5568 72.5500" />
<path d="M124.4250 86.5500 A0.5000 0.5000 0.0 0 0 123.9250 86.0500" />
<path d="M125.3067 72.5500 A0.5000 0.5000 0.0 0 0 124.8067 72.0500" />
<path d="M124.4250 86.5500 A0.5000 0.5000 0.0 0 0 124.9250 87.0500" />
<path d="M125.3068 72.5500 A0.5000 0.5000 0.0 0 0 125.8067 73.0500" />
<path d="M138.4250 73.5500 A0.5000 0.5000 0.0 0 0 137.9250 73.0500" />
<path d="M137.9250 87.0500 A0.5000 0.5000 0.0 0 0 138.4250 86.5500" />
<path d="M142.8057 72.0500 A0.5000 0.5000 0.0 0 0 142.3058 72.5500" />
<path d="M142.3058 85.5500 A0.5000 0.5000 0.0 0 0 142.8058 86.0500" />
<path d="M149.0557 72.5500 A0.5000 0.5000 0.0 0 0 148.5557 72.0500" />
<path d="M149.0558 72.5500 A0.5000 0.5000 0.0 0 0 149.5558 73.0500" />
<path d="M150.6187 86.5500 A0.5000 0.5000 0.0 0 0 150.1187 86.0500" />
<path d="M150.6188 86.5500 A0.5000 0.5000 0.0 0 0 151.1188 87.0500" />
<path d="M164.1188 87.0500 A0.5000 0.5000 0.0 0 0 164.6187 86.5500" />
<path d="M165.1187 86.0500 A0.5000 0.5000 0.0 0 0 164.6188 86.5500" />
<path d="M165.6818 73.0500 A0.5000 0.5000 0.0 0 0 166.1817 72.5500" />
<path d="M166.6817 72.0500 A0.5000 0.5000 0.0 0 0 166.1817 72.5500" />
<path d="M172.9317 72.5500 A0.5000 0.5000 0.0 0 0 172.4317 72.0500" />
<path d="M172.4318 86.0500 A0.5000 0.5000 0.0 0 0 172.9317 85.5500" />
<path d="M182.0750 73.0500 A0.5000 0.5000 0.0 0 0 181.5750 73.5500" />
<path d="M181.5750 86.5500 A0.5000 0.5000 0.0 0 0 182.0750 87.0500" />
<path d="M184.7000 73.0500 A0.5000 0.5000 0.0 0 0 185.2000 72.5500" />
<path d="M185.7000 72.0500 A0.5000 0.5000 0.0 0 0 185.2000 72.5500" />
<path d="M191.9500 72.5500 A0.5000 0.5000 0.0 0 0 191.4500 72.0500" />
<path d="M191.9500 72.5500 A0.5000 0.5000 0.0 0 0 192.4500 73.0500" />
<path d="M195.5750 73.5500 A0.5000 0.5000 0.0 0 0 195.0750 73.0500" />
<path d="M195.0750 87.0500 A0.5000 0.5000 0.0 0 0 195.5750 86.5500" />
<path d="M310.1625 54.5000
L310.1625 67.5000
" />
<path d="M310.6625 54.0000
L323.6625 54.0000
" />
<path d="M323.6625 68.0000
L310.6625 68.0000
" />
<path d="M324.1625 67.5000
L324.1625 54.5000
" />
<path d="M310.6625 54.0000 A0.5000 0.5000 0.0 0 0 310.1625 54.5000" />
<path d="M310.1625 67.5000 A0.5000 0.5000 0.0 0 0 310.6625 68.0000" />
<path d="M324.1625 54.5000 A0.5000 0.5000 0.0 0 0 323.6625 54.0000" />
<path d="M323.6625 68.0000 A0.5000 0.5000 0.0 0 0 324.1625 67.5000" />
<path d="M114.9000 16.4000
L114.9000 29.4000
" />
<path d="M115.4000 15.9000
L128.4000 15.9000
" />
<path d="M128.4000 29.9000
L115.4000 29.9000
" />
<path d="M128.9000 29.4000
L128.9000 16.4000
" />
<path d="M115.4000 15.9000 A0.5000 0.5000 0.0 0 0 114.9000 16.4000" />
<path d="M114.9000 29.4000 A0.5000 0.5000 0.0 0 0 115.4000 29.9000" />
<path d="M128.9000 16.4000 A0.5000 0.5000 0.0 0 0 128.4000 15.9000" />
<path d="M128.4000 29.9000 A0.5000 0.5000 0.0 0 0 128.9000 29.4000" />
<path d="M95.8500 16.4000
L95.8500 29.4000
" />
<path d="M96.3500 15.9000
L109.3500 15.9000
" />
<path d="M109.3500 29.9000
L96.3500 29.9000
" />
<path d="M109.8500 29.4000
L109.8500 16.4000
" />
<path d="M96.3500 15.9000 A0.5000 0.5000 0.0 0 0 95.8500 16.4000" />
<path d="M95.8500 29.4000 A0.5000 0.5000 0.0 0 0 96.3500 29.9000" />
<path d="M109.8500 16.4000 A0.5000 0.5000 0.0 0 0 109.3500 15.9000" />
<path d="M109.3500 29.9000 A0.5000 0.5000 0.0 0 0 109.8500 29.4000" />
<path d="M348.2625 16.4000
L348.2625 29.4000
" />
<path d="M348.7625 15.9000
L361.7625 15.9000
" />
<path d="M361.7625 29.9000
L348.7625 29.9000
" />
<path d="M362.2625 29.4000
L362.2625 16.4000
" />
<path d="M348.7625 15.9000 A0.5000 0.5000 0.0 0 0 348.2625 16.4000" />
<path d="M348.2625 29.4000 A0.5000 0.5000 0.0 0 0 348.7625 29.9000" />
<path d="M362.2625 16.4000 A0.5000 0.5000 0.0 0 0 361.7625 15.9000" />
<path d="M361.7625 29.9000 A0.5000 0.5000 0.0 0 0 362.2625 29.4000" />
<path d="M153.0000 16.4000
L153.0000 29.4000
" />
<path d="M153.5000 15.9000
L166.5000 15.9000
" />
<path d="M166.5000 29.9000
L153.5000 29.9000
" />
<path d="M167.0000 29.4000
L167.0000 16.4000
" />
<path d="M153.5000 15.9000 A0.5000 0.5000 0.0 0 0 153.0000 16.4000" />
<path d="M153.0000 29.4000 A0.5000 0.5000 0.0 0 0 153.5000 29.9000" />
<path d="M167.0000 16.4000 A0.5000 0.5000 0.0 0 0 166.5000 15.9000" />
<path d="M166.5000 29.9000 A0.5000 0.5000 0.0 0 0 167.0000 29.4000" />
<path d="M22.0312 73.5500
L22.0312 86.5500
" />
<path d="M22.5312 73.0500
L35.5312 73.0500
" />
<path d="M35.5312 87.0500
L22.5312 87.0500
" />
<path d="M36.0312 86.5500
L36.0312 73.5500
" />
<path d="M22.5312 73.0500 A0.5000 0.5000 0.0 0 0 22.0313 73.5500" />
<path d="M22.0313 86.5500 A0.5000 0.5000 0.0 0 0 22.5312 87.0500" />
<path d="M36.0312 73.5500 A0.5000 0.5000 0.0 0 0 35.5312 73.0500" />
<path d="M35.5312 87.0500 A0.5000 0.5000 0.0 0 0 36.0312 86.5500" />
<path d="M288.7312 75.9312
L288.7312 88.9312
" />
<path d="M289.2312 75.4312
L302.2312 75.4312
" />
<path d="M302.2312 89.4312
L289.2312 89.4312
" />
<path d="M302.7312 88.9312
L302.7312 75.9312
" />
<path d="M289.2312 75.4313 A0.5000 0.5000 0.0 0 0 288.7313 75.9313" />
<path d="M288.7313 88.9312 A0.5000 0.5000 0.0 0 0 289.2312 89.4312" />
<path d="M302.7312 75.9312 A0.5000 0.5000 0.0 0 0 302.2312 75.4312" />
<path d="M302.2312 89.4312 A0.5000 0.5000 0.0 0 0 302.7312 88.9312" />
<path d="M310.1625 35.4500
L310.1625 48.4500
" />
<path d="M310.6625 34.9500
L323.6625 34.9500
" />
<path d="M323.6625 48.9500
L310.6625 48.9500
" />
<path d="M324.1625 48.4500
L324.1625 35.4500
" />
<path d="M310.6625 34.9500 A0.5000 0.5000 0.0 0 0 310.1625 35.4500" />
<path d="M310.1625 48.4500 A0.5000 0.5000 0.0 0 0 310.6625 48.9500" />
<path d="M324.1625 35.4500 A0.5000 0.5000 0.0 0 0 323.6625 34.9500" />
<path d="M323.6625 48.9500 A0.5000 0.5000 0.0 0 0 324.1625 48.4500" />
<path d="M250.6312 75.9312
L250.6312 88.9312
" />
<path d="M251.1312 75.4312
L264.1312 75.4312
" />
<path d="M264.1312 89.4312
L251.1312 89.4312
" />
<path d="M264.6312 88.9312
L264.6312 75.9312
" />
<path d="M251.1312 75.4313 A0.5000 0.5000 0.0 0 0 250.6313 75.9313" />
<path d="M250.6313 88.9312 A0.5000 0.5000 0.0 0 0 251.1312 89.4312" />
<path d="M264.6312 75.9312 A0.5000 0.5000 0.0 0 0 264.1312 75.4312" />
<path d="M264.1312 89.4312 A0.5000 0.5000 0.0 0 0 264.6312 88.9312" />
<path d="M310.1625 16.4000
L310.1625 29.4000
" />
<path d="M310.6625 15.9000
L323.6625 15.9000
" />
<path d="M323.6625 29.9000
L310.6625 29.9000
" />
<path d="M324.1625 29.4000
L324.1625 16.4000
" />
<path d="M310.6625 15.9000 A0.5000 0.5000 0.0 0 0 310.1625 16.4000" />
<path d="M310.1625 29.4000 A0.5000 0.5000 0.0 0 0 310.6625 29.9000" />
<path d="M324.1625 16.4000 A0.5000 0.5000 0.0 0 0 323.6625 15.9000" />
<path d="M323.6625 29.9000 A0.5000 0.5000 0.0 0 0 324.1625 29.4000" />
<path d="M269.6812 75.9312
L269.6812 88.9312
" />
<path d="M270.1812 75.4312
L283.1812 75.4312
" />
<path d="M283.1812 89.4312
L270.1812 89.4312
" />
<path d="M283.6812 88.9312
L283.6812 75.9312
" />
<path d="M270.1812 75.4313 A0.5000 0.5000 0.0 0 0 269.6813 75.9313" />
<path d="M269.6813 88.9312 A0.5000 0.5000 0.0 0 0 270.1812 89.4312" />
<path d="M283.6812 75.9312 A0.5000 0.5000 0.0 0 0 283.1812 75.4312" />
<path d="M283.1812 89.4312 A0.5000 0.5000 0.0 0 0 283.6812 88.9312" />
<path d="M269.6812 56.8812
L269.6812 69.8812
" />
<path d="M270.1812 56.3812
L283.1812 56.3812
" />
<path d="M283.1812 70.3812
L270.1812 70.3812
" />
<path d="M283.6812 69.8812
L283.6812 56.8812
" />
<path d="M270.1812 56.3813 A0.5000 0.5000 0.0 0 0 269.6813 56.8813" />
<path d="M269.6813 69.8812 A0.5000 0.5000 0.0 0 0 270.1812 70.3812" />
<path d="M283.6812 56.8812 A0.5000 0.5000 0.0 0 0 283.1812 56.3812" />
<path d="M283.1812 70.3812 A0.5000 0.5000 0.0 0 0 283.6812 69.8812" />
<path d="M348.2625 35.4500
L348.2625 48.4500
" />
<path d="M348.7625 34.9500
L361.7625 34.9500
" />
<path d="M361.7625 48.9500
L348.7625 48.9500
" />
<path d="M362.2625 48.4500
L362.2625 35.4500
" />
<path d="M348.7625 34.9500 A0.5000 0.5000 0.0 0 0 348.2625 35.4500" />
<path d="M348.2625 48.4500 A0.5000 0.5000 0.0 0 0 348.7625 48.9500" />
<path d="M362.2625 35.4500 A0.5000 0.5000 0.0 0 0 361.7625 34.9500" />
<path d="M361.7625 48.9500 A0.5000 0.5000 0.0 0 0 362.2625 48.4500" />
<path d="M329.2125 16.4000
L329.2125 29.4000
" />
<path d="M329.7125 15.9000
L342.7125 15.9000
" />
<path d="M342.7125 29.9000
L329.7125 29.9000
" />
<path d="M343.2125 29.4000
L343.2125 16.4000
" />
<path d="M329.7125 15.9000 A0.5000 0.5000 0.0 0 0 329.2125 16.4000" />
<path d="M329.2125 29.4000 A0.5000 0.5000 0.0 0 0 329.7125 29.9000" />
<path d="M343.2125 16.4000 A0.5000 0.5000 0.0 0 0 342.7125 15.9000" />
<path d="M342.7125 29.9000 A0.5000 0.5000 0.0 0 0 343.2125 29.4000" />
<path d="M329.2125 35.4500
L329.2125 48.4500
" />
<path d="M329.7125 34.9500
L342.7125 34.9500
" />
<path d="M342.7125 48.9500
L329.7125 48.9500
" />
<path d="M343.2125 48.4500
L343.2125 35.4500
" />
<path d="M329.7125 34.9500 A0.5000 0.5000 0.0 0 0 329.2125 35.4500" />
<path d="M329.2125 48.4500 A0.5000 0.5000 0.0 0 0 329.7125 48.9500" />
<path d="M343.2125 35.4500 A0.5000 0.5000 0.0 0 0 342.7125 34.9500" />
<path d="M342.7125 48.9500 A0.5000 0.5000 0.0 0 0 343.2125 48.4500" />
<path d="M291.1125 54.5000
L291.1125 67.5000
" />
<path d="M291.6125 54.0000
L304.6125 54.0000
" />
<path d="M304.6125 68.0000
L291.6125 68.0000
" />
<path d="M305.1125 67.5000
L305.1125 54.5000
" />
<path d="M291.6125 54.0000 A0.5000 0.5000 0.0 0 0 291.1125 54.5000" />
<path d="M291.1125 67.5000 A0.5000 0.5000 0.0 0 0 291.6125 68.0000" />
<path d="M305.1125 54.5000 A0.5000 0.5000 0.0 0 0 304.6125 54.0000" />
<path d="M304.6125 68.0000 A0.5000 0.5000 0.0 0 0 305.1125 67.5000" />
<path d="M291.1125 35.4500
L291.1125 48.4500
" />
<path d="M291.6125 34.9500
L304.6125 34.9500
" />
<path d="M304.6125 48.9500
L291.6125 48.9500
" />
<path d="M305.1125 48.4500
L305.1125 35.4500
" />
<path d="M291.6125 34.9500 A0.5000 0.5000 0.0 0 0 291.1125 35.4500" />
<path d="M291.1125 48.4500 A0.5000 0.5000 0.0 0 0 291.6125 48.9500" />
<path d="M305.1125 35.4500 A0.5000 0.5000 0.0 0 0 304.6125 34.9500" />
<path d="M304.6125 48.9500 A0.5000 0.5000 0.0 0 0 305.1125 48.4500" />
<path d="M22.0312 35.4500
L22.0312 48.4500
" />
<path d="M22.5312 34.9500
L35.5312 34.9500
" />
<path d="M35.5312 48.9500
L22.5312 48.9500
" />
<path d="M36.0312 48.4500
L36.0312 35.4500
" />
<path d="M22.5312 34.9500 A0.5000 0.5000 0.0 0 0 22.0313 35.4500" />
<path d="M22.0313 48.4500 A0.5000 0.5000 0.0 0 0 22.5312 48.9500" />
<path d="M36.0312 35.4500 A0.5000 0.5000 0.0 0 0 35.5312 34.9500" />
<path d="M35.5312 48.9500 A0.5000 0.5000 0.0 0 0 36.0312 48.4500" />
<path d="M133.9500 16.4000
L133.9500 29.4000
" />
<path d="M134.4500 15.9000
L147.4500 15.9000
" />
<path d="M147.4500 29.9000
L134.4500 29.9000
" />
<path d="M147.9500 29.4000
L147.9500 16.4000
" />
<path d="M134.4500 15.9000 A0.5000 0.5000 0.0 0 0 133.9500 16.4000" />
<path d="M133.9500 29.4000 A0.5000 0.5000 0.0 0 0 134.4500 29.9000" />
<path d="M147.9500 16.4000 A0.5000 0.5000 0.0 0 0 147.4500 15.9000" />
<path d="M147.4500 29.9000 A0.5000 0.5000 0.0 0 0 147.9500 29.4000" />
<path d="M291.1125 16.4000
L291.1125 29.4000
" />
<path d="M291.6125 15.9000
L304.6125 15.9000
" />
<path d="M304.6125 29.9000
L291.6125 29.9000
" />
<path d="M305.1125 29.4000
L305.1125 16.4000
" />
<path d="M291.6125 15.9000 A0.5000 0.5000 0.0 0 0 291.1125 16.4000" />
<path d="M291.1125 29.4000 A0.5000 0.5000 0.0 0 0 291.6125 29.9000" />
<path d="M305.1125 16.4000 A0.5000 0.5000 0.0 0 0 304.6125 15.9000" />
<path d="M304.6125 29.9000 A0.5000 0.5000 0.0 0 0 305.1125 29.4000" />
<g >
</g>
<g >
</g>
<g >
</g>
<g >
</g>
<g >
</g>
<g >
</g>
<g >
</g>
<g >
</g>
<g >
</g>
<g >
</g>
<g >
</g>
<g >
</g>
<g >
</g>
<g >
</g>
<g >
</g>
<g >
</g>
<g >
</g>
<g >
</g>
<g >
</g>
<g >
</g>
<g >
</g>
<g >
</g>
<g >
</g>
<g >
</g>
<g >
</g>
<g >
</g>
<g >
</g>
<g >
</g>
<g >
</g>
<g >
</g>
<g >
</g>
<g >
</g>
<g >
</g>
<g >
</g>
<g >
</g>
<g >
</g>
<g >
</g>
<g >
</g>
<g >
</g>
<g >
</g>
<g >
</g>
<g >
</g>
<g >
</g>
<g >
</g>
<g >
</g>
<g >
</g>
<g >
</g>
<g >
</g>
<g >
</g>
<g >
</g>
<g >
</g>
<g >
</g>
<g >
</g>
<g >
</g>
<g >
</g>
<g >
</g>
<g >
</g>
<g >
</g>
<g >
</g>
<g >
</g>
<g >
</g>
<g >
</g>
</g> 
</svg>
