G04 #@! TF.GenerationSoftware,KiCad,Pcbnew,(5.1.9)-1*
G04 #@! TF.CreationDate,2021-06-08T14:43:55-04:00*
G04 #@! TF.ProjectId,kastenwagen-bottom-plate,6b617374-656e-4776-9167-656e2d626f74,rev?*
G04 #@! TF.SameCoordinates,Original*
G04 #@! TF.FileFunction,Copper,L1,Top*
G04 #@! TF.FilePolarity,Positive*
%FSLAX46Y46*%
G04 Gerber Fmt 4.6, Leading zero omitted, Abs format (unit mm)*
G04 Created by KiCad (PCBNEW (5.1.9)-1) date 2021-06-08 14:43:55*
%MOMM*%
%LPD*%
G01*
G04 APERTURE LIST*
G04 #@! TA.AperFunction,NonConductor*
%ADD10C,0.254000*%
G04 #@! TD*
G04 #@! TA.AperFunction,NonConductor*
%ADD11C,0.020000*%
G04 #@! TD*
G04 APERTURE END LIST*
D10*
X173950952Y-7954265D02*
X173879053Y-8315728D01*
X173879053Y-8684272D01*
X173950952Y-9045735D01*
X174091988Y-9386226D01*
X174296740Y-9692659D01*
X174557341Y-9953260D01*
X174863774Y-10158012D01*
X175204265Y-10299048D01*
X175565728Y-10370947D01*
X175934272Y-10370947D01*
X176295735Y-10299048D01*
X176636226Y-10158012D01*
X176942659Y-9953260D01*
X177203260Y-9692659D01*
X177408012Y-9386226D01*
X177549048Y-9045735D01*
X177620947Y-8684272D01*
X177620947Y-8315728D01*
X177549048Y-7954265D01*
X177458225Y-7735000D01*
X362967269Y-7735000D01*
X363754747Y-7805281D01*
X364485643Y-8005231D01*
X364765985Y-8138947D01*
X364454265Y-8200952D01*
X364113774Y-8341988D01*
X363807341Y-8546740D01*
X363546740Y-8807341D01*
X363341988Y-9113774D01*
X363200952Y-9454265D01*
X363129053Y-9815728D01*
X363129053Y-10184272D01*
X363200952Y-10545735D01*
X363341988Y-10886226D01*
X363546740Y-11192659D01*
X363807341Y-11453260D01*
X364113774Y-11658012D01*
X364454265Y-11799048D01*
X364815728Y-11870947D01*
X365184272Y-11870947D01*
X365545735Y-11799048D01*
X365886226Y-11658012D01*
X366192659Y-11453260D01*
X366453260Y-11192659D01*
X366658012Y-10886226D01*
X366799048Y-10545735D01*
X366861035Y-10234101D01*
X367039463Y-10640570D01*
X367217715Y-11383039D01*
X367265001Y-12026963D01*
X367265000Y-91467269D01*
X367194719Y-92254748D01*
X366994769Y-92985643D01*
X366861053Y-93265985D01*
X366799048Y-92954265D01*
X366658012Y-92613774D01*
X366453260Y-92307341D01*
X366192659Y-92046740D01*
X365886226Y-91841988D01*
X365545735Y-91700952D01*
X365184272Y-91629053D01*
X364815728Y-91629053D01*
X364454265Y-91700952D01*
X364113774Y-91841988D01*
X363807341Y-92046740D01*
X363546740Y-92307341D01*
X363341988Y-92613774D01*
X363200952Y-92954265D01*
X363129053Y-93315728D01*
X363129053Y-93684272D01*
X363200952Y-94045735D01*
X363341988Y-94386226D01*
X363546740Y-94692659D01*
X363807341Y-94953260D01*
X364113774Y-95158012D01*
X364454265Y-95299048D01*
X364765899Y-95361035D01*
X364359429Y-95539464D01*
X363616961Y-95717714D01*
X362973051Y-95765000D01*
X177458225Y-95765000D01*
X177549048Y-95545735D01*
X177620947Y-95184272D01*
X177620947Y-94815728D01*
X177549048Y-94454265D01*
X177408012Y-94113774D01*
X177203260Y-93807341D01*
X176942659Y-93546740D01*
X176636226Y-93341988D01*
X176295735Y-93200952D01*
X175934272Y-93129053D01*
X175565728Y-93129053D01*
X175204265Y-93200952D01*
X174863774Y-93341988D01*
X174557341Y-93546740D01*
X174296740Y-93807341D01*
X174091988Y-94113774D01*
X173950952Y-94454265D01*
X173879053Y-94815728D01*
X173879053Y-95184272D01*
X173950952Y-95545735D01*
X174041775Y-95765000D01*
X16532731Y-95765000D01*
X15745252Y-95694719D01*
X15014357Y-95494769D01*
X14734015Y-95361053D01*
X15045735Y-95299048D01*
X15386226Y-95158012D01*
X15692659Y-94953260D01*
X15953260Y-94692659D01*
X16158012Y-94386226D01*
X16299048Y-94045735D01*
X16370947Y-93684272D01*
X16370947Y-93315728D01*
X16299048Y-92954265D01*
X16158012Y-92613774D01*
X15953260Y-92307341D01*
X15692659Y-92046740D01*
X15386226Y-91841988D01*
X15045735Y-91700952D01*
X14684272Y-91629053D01*
X14315728Y-91629053D01*
X13954265Y-91700952D01*
X13613774Y-91841988D01*
X13307341Y-92046740D01*
X13046740Y-92307341D01*
X12841988Y-92613774D01*
X12700952Y-92954265D01*
X12638965Y-93265899D01*
X12460536Y-92859429D01*
X12282286Y-92116961D01*
X12235000Y-91473051D01*
X12235000Y-12032731D01*
X12305281Y-11245253D01*
X12505231Y-10514357D01*
X12638947Y-10234015D01*
X12700952Y-10545735D01*
X12841988Y-10886226D01*
X13046740Y-11192659D01*
X13307341Y-11453260D01*
X13613774Y-11658012D01*
X13954265Y-11799048D01*
X14315728Y-11870947D01*
X14684272Y-11870947D01*
X15045735Y-11799048D01*
X15386226Y-11658012D01*
X15692659Y-11453260D01*
X15953260Y-11192659D01*
X16158012Y-10886226D01*
X16299048Y-10545735D01*
X16370947Y-10184272D01*
X16370947Y-9815728D01*
X16299048Y-9454265D01*
X16158012Y-9113774D01*
X15953260Y-8807341D01*
X15692659Y-8546740D01*
X15386226Y-8341988D01*
X15045735Y-8200952D01*
X14734101Y-8138965D01*
X15140570Y-7960537D01*
X15883039Y-7782285D01*
X16526949Y-7735000D01*
X174041775Y-7735000D01*
X173950952Y-7954265D01*
G04 #@! TA.AperFunction,NonConductor*
D11*
G36*
X173950952Y-7954265D02*
G01*
X173879053Y-8315728D01*
X173879053Y-8684272D01*
X173950952Y-9045735D01*
X174091988Y-9386226D01*
X174296740Y-9692659D01*
X174557341Y-9953260D01*
X174863774Y-10158012D01*
X175204265Y-10299048D01*
X175565728Y-10370947D01*
X175934272Y-10370947D01*
X176295735Y-10299048D01*
X176636226Y-10158012D01*
X176942659Y-9953260D01*
X177203260Y-9692659D01*
X177408012Y-9386226D01*
X177549048Y-9045735D01*
X177620947Y-8684272D01*
X177620947Y-8315728D01*
X177549048Y-7954265D01*
X177458225Y-7735000D01*
X362967269Y-7735000D01*
X363754747Y-7805281D01*
X364485643Y-8005231D01*
X364765985Y-8138947D01*
X364454265Y-8200952D01*
X364113774Y-8341988D01*
X363807341Y-8546740D01*
X363546740Y-8807341D01*
X363341988Y-9113774D01*
X363200952Y-9454265D01*
X363129053Y-9815728D01*
X363129053Y-10184272D01*
X363200952Y-10545735D01*
X363341988Y-10886226D01*
X363546740Y-11192659D01*
X363807341Y-11453260D01*
X364113774Y-11658012D01*
X364454265Y-11799048D01*
X364815728Y-11870947D01*
X365184272Y-11870947D01*
X365545735Y-11799048D01*
X365886226Y-11658012D01*
X366192659Y-11453260D01*
X366453260Y-11192659D01*
X366658012Y-10886226D01*
X366799048Y-10545735D01*
X366861035Y-10234101D01*
X367039463Y-10640570D01*
X367217715Y-11383039D01*
X367265001Y-12026963D01*
X367265000Y-91467269D01*
X367194719Y-92254748D01*
X366994769Y-92985643D01*
X366861053Y-93265985D01*
X366799048Y-92954265D01*
X366658012Y-92613774D01*
X366453260Y-92307341D01*
X366192659Y-92046740D01*
X365886226Y-91841988D01*
X365545735Y-91700952D01*
X365184272Y-91629053D01*
X364815728Y-91629053D01*
X364454265Y-91700952D01*
X364113774Y-91841988D01*
X363807341Y-92046740D01*
X363546740Y-92307341D01*
X363341988Y-92613774D01*
X363200952Y-92954265D01*
X363129053Y-93315728D01*
X363129053Y-93684272D01*
X363200952Y-94045735D01*
X363341988Y-94386226D01*
X363546740Y-94692659D01*
X363807341Y-94953260D01*
X364113774Y-95158012D01*
X364454265Y-95299048D01*
X364765899Y-95361035D01*
X364359429Y-95539464D01*
X363616961Y-95717714D01*
X362973051Y-95765000D01*
X177458225Y-95765000D01*
X177549048Y-95545735D01*
X177620947Y-95184272D01*
X177620947Y-94815728D01*
X177549048Y-94454265D01*
X177408012Y-94113774D01*
X177203260Y-93807341D01*
X176942659Y-93546740D01*
X176636226Y-93341988D01*
X176295735Y-93200952D01*
X175934272Y-93129053D01*
X175565728Y-93129053D01*
X175204265Y-93200952D01*
X174863774Y-93341988D01*
X174557341Y-93546740D01*
X174296740Y-93807341D01*
X174091988Y-94113774D01*
X173950952Y-94454265D01*
X173879053Y-94815728D01*
X173879053Y-95184272D01*
X173950952Y-95545735D01*
X174041775Y-95765000D01*
X16532731Y-95765000D01*
X15745252Y-95694719D01*
X15014357Y-95494769D01*
X14734015Y-95361053D01*
X15045735Y-95299048D01*
X15386226Y-95158012D01*
X15692659Y-94953260D01*
X15953260Y-94692659D01*
X16158012Y-94386226D01*
X16299048Y-94045735D01*
X16370947Y-93684272D01*
X16370947Y-93315728D01*
X16299048Y-92954265D01*
X16158012Y-92613774D01*
X15953260Y-92307341D01*
X15692659Y-92046740D01*
X15386226Y-91841988D01*
X15045735Y-91700952D01*
X14684272Y-91629053D01*
X14315728Y-91629053D01*
X13954265Y-91700952D01*
X13613774Y-91841988D01*
X13307341Y-92046740D01*
X13046740Y-92307341D01*
X12841988Y-92613774D01*
X12700952Y-92954265D01*
X12638965Y-93265899D01*
X12460536Y-92859429D01*
X12282286Y-92116961D01*
X12235000Y-91473051D01*
X12235000Y-12032731D01*
X12305281Y-11245253D01*
X12505231Y-10514357D01*
X12638947Y-10234015D01*
X12700952Y-10545735D01*
X12841988Y-10886226D01*
X13046740Y-11192659D01*
X13307341Y-11453260D01*
X13613774Y-11658012D01*
X13954265Y-11799048D01*
X14315728Y-11870947D01*
X14684272Y-11870947D01*
X15045735Y-11799048D01*
X15386226Y-11658012D01*
X15692659Y-11453260D01*
X15953260Y-11192659D01*
X16158012Y-10886226D01*
X16299048Y-10545735D01*
X16370947Y-10184272D01*
X16370947Y-9815728D01*
X16299048Y-9454265D01*
X16158012Y-9113774D01*
X15953260Y-8807341D01*
X15692659Y-8546740D01*
X15386226Y-8341988D01*
X15045735Y-8200952D01*
X14734101Y-8138965D01*
X15140570Y-7960537D01*
X15883039Y-7782285D01*
X16526949Y-7735000D01*
X174041775Y-7735000D01*
X173950952Y-7954265D01*
G37*
G04 #@! TD.AperFunction*
M02*
